<?xml version="1.0" encoding="utf-8"?>
<!-- Generator: Adobe Illustrator 16.0.0, SVG Export Plug-In . SVG Version: 6.00 Build 0)  -->
<!DOCTYPE svg PUBLIC "-//W3C//DTD SVG 1.1//EN" "http://www.w3.org/Graphics/SVG/1.1/DTD/svg11.dtd">
<svg version="1.1" id="Layer_1" xmlns="http://www.w3.org/2000/svg" xmlns:xlink="http://www.w3.org/1999/xlink" x="0px" y="0px"
	 width="60px" height="60px" viewBox="0 0 60 60" enable-background="new 0 0 60 60" xml:space="preserve">
<g>
	<defs>
		<path id="SVGID_77_" d="M29.999-38.667c-12.958,0-23.499-10.542-23.499-23.5c0-12.96,10.541-23.5,23.499-23.5
			S53.5-75.127,53.5-62.167C53.5-49.209,42.957-38.667,29.999-38.667z"/>
	</defs>
	<clipPath id="SVGID_2_">
		<use xlink:href="#SVGID_77_"  overflow="visible"/>
	</clipPath>
	<polygon clip-path="url(#SVGID_2_)" fill="#EBE0D5" stroke="#553E31" stroke-width="1.1908" stroke-miterlimit="10" points="
		-20.18,-50.943 63.079,-68.319 74.613,-10.24 -14.134,0.295 	"/>
</g>
<g>
	<defs>
		<path id="SVGID_85_" d="M29.999,53.5C17.041,53.5,6.5,42.958,6.5,30c0-12.96,10.541-23.5,23.499-23.5
			C42.958,6.5,53.5,17.04,53.5,30C53.5,42.958,42.958,53.5,29.999,53.5z"/>
	</defs>
	<clipPath id="SVGID_4_">
		<use xlink:href="#SVGID_85_"  overflow="visible"/>
	</clipPath>
	<rect x="0.625" y="0.625" clip-path="url(#SVGID_4_)" fill="#FFFCF5" width="58.75" height="58.75"/>
	<polygon clip-path="url(#SVGID_4_)" fill="#EBE0D5" stroke="#553E31" stroke-miterlimit="10" points="-16.437,32.831 
		56.273,22.989 67.002,59.021 -10.589,64.574 	"/>
	
		<ellipse clip-path="url(#SVGID_4_)" fill="#EBE0D5" stroke="#553E31" stroke-miterlimit="10" cx="30.39" cy="32.411" rx="18.414" ry="9.717"/>
	
		<ellipse clip-path="url(#SVGID_4_)" fill="#EBE0D5" stroke="#553E31" stroke-miterlimit="10" cx="30.441" cy="37.411" rx="17.815" ry="9.717"/>
	<g clip-path="url(#SVGID_4_)">
		<path fill="#CDB8AB" stroke="#553E31" stroke-miterlimit="10" d="M30.391,42.128c-9.804,0-17.815-4.043-18.38-9.142l0.374,5.496
			c0.435,5.038,8.349,9.055,18.077,9.055c9.908,0,17.947-4.167,18.102-9.337l0.213-5.268C48.264,38.057,40.228,42.128,30.391,42.128
			z"/>
	</g>
	
		<path clip-path="url(#SVGID_4_)" fill="#CDB8AB" stroke="#553E31" stroke-width="0.9633" stroke-linecap="round" stroke-linejoin="round" stroke-miterlimit="10" d="
		M32.422,29.344c-1.585-0.047-3.38,1.219-5.547,1.219s-4.021-0.411-6.021,0.714s-3.833,0.75-4.333,2.625s-1.016,1.335,0.708,2.833
		c1.583,1.375,3.292,1.792,5.375,2.417s1.724-1.631,2.349-2.589s6.203,0.859,10.453-1.578
		C35.924,34.688,33.838,29.386,32.422,29.344z"/>
	<g clip-path="url(#SVGID_4_)">
		<g>
			<path fill="#CDB8AB" d="M36.451,27.989c-0.052,0-0.104-0.008-0.157-0.025l-0.588-0.194c-0.259-0.086-0.401-0.364-0.319-0.624
				c0.425-1.354,4.158-13.232,4.343-13.681c0.199-0.483,0.695-0.795,1.264-0.795c0.446,0,0.854,0.199,1.09,0.532
				c0.147,0.207,0.358,0.66,0.113,1.359c-0.373,1.058-5.082,12.624-5.282,13.116C36.836,27.871,36.649,27.989,36.451,27.989z"/>
			<path fill="#553E31" d="M40.993,13.17c0.516,0,1.021,0.397,0.731,1.227c-0.373,1.058-5.273,13.093-5.273,13.093l-0.588-0.194
				c0,0,4.146-13.198,4.328-13.64C40.324,13.335,40.66,13.17,40.993,13.17 M40.993,12.17c-0.771,0-1.449,0.434-1.726,1.104
				c-0.185,0.448-3.383,10.616-4.358,13.722c-0.164,0.521,0.121,1.078,0.641,1.249l0.588,0.194c0.104,0.034,0.209,0.051,0.313,0.051
				c0.396,0,0.77-0.237,0.926-0.623c0.201-0.492,4.914-12.069,5.291-13.137c0.319-0.914,0.025-1.53-0.178-1.817
				C42.16,12.447,41.601,12.17,40.993,12.17L40.993,12.17z"/>
		</g>
		<path fill="none" stroke="#553E31" stroke-linecap="round" stroke-linejoin="round" stroke-miterlimit="10" d="M36.543,27.63
			c0.291,1.5,1.229,3.021,0.479,4.354s-1.417,1.958-2.584,2.083c-1.166,0.125-3.437,1.042-5.187,0.875"/>
		<path fill="none" stroke="#553E31" stroke-linecap="round" stroke-linejoin="round" stroke-miterlimit="10" d="M35.521,27.442
			c-0.208,1.292-0.396,2.104-0.979,3.146c-0.584,1.042-0.813,0.771-2.146,1.354s-2.916,0.708-3.958,1"/>
		<path fill="none" stroke="#553E31" stroke-linecap="round" stroke-linejoin="round" stroke-miterlimit="10" d="M35.313,27.359
			c-0.458,0.667-1.333,1.959-1.792,2.417s-1.25,0.833-2.584,1.208c-1.332,0.375-2.062,0.729-3.145,0.771"/>
		<path fill="none" stroke="#553E31" stroke-linecap="round" stroke-linejoin="round" stroke-miterlimit="10" d="M36.043,27.589
			c-0.292,1.834,0.166,2.249-0.271,3.416c-0.59,1.572-0.688,1.563-2.666,2.042c-2.039,0.494-2.459,0.688-3.209,0.688"/>
	</g>
	
		<path clip-path="url(#SVGID_4_)" fill="#CDB8AB" stroke="#553E31" stroke-width="0.9633" stroke-linecap="round" stroke-linejoin="round" stroke-miterlimit="10" d="
		M53.432-2.646c0,0-4.459,2.678-6.305,3.545C44.242,2.255,40.73,3.675,39,6.536c-0.549,0.912-0.898,1.998-1.123,3.035
		c-0.207,0.953-0.621,1.845-0.787,2.812c-0.111,0.665-0.043,1.007-0.434,1.591c-0.295,0.439-0.6,0.857-0.732,1.376
		c-0.137,0.538-0.092,1.104-0.197,1.646c-0.154,0.794-0.395,1.573-0.086,2.362c0.225,0.58,0.861,1.641,1.285,2.097
		c0.742-1.739,2.535-5.54,2.535-5.54s0.486-0.998,1.291-1.512c0.805-0.516,0.57-0.445,1.123-0.967
		c0.846,0.08,1.496-0.217,2.488-0.566c-1.037,0.17-2.031,1.049-2.57,1.413c-0.535,0.367-2.486,2.554-2.672,3.429
		c-0.184,0.875,0.051,1.801,0.715,1.994s0.77,0.096,1.092-0.308c0.322-0.405,3.299-3.254,4.564-3.884
		c1.268-0.633,0.734-0.335,1.535-0.781c0.799-0.448,1.436-1.584,2.006-2.098c0.574-0.514,1.414-1.291,2.076-3.204
		c0.662-1.909,2.555-3.892,4.027-4.628c1.469-0.736,7.342-2.555,9.555-3C59.27-0.338,53.432-2.646,53.432-2.646z"/>
</g>
</svg>
