<?xml version="1.0" encoding="utf-8"?>
<!-- Generator: Adobe Illustrator 16.0.0, SVG Export Plug-In . SVG Version: 6.00 Build 0)  -->
<!DOCTYPE svg PUBLIC "-//W3C//DTD SVG 1.1//EN" "http://www.w3.org/Graphics/SVG/1.1/DTD/svg11.dtd">
<svg version="1.1" id="Layer_1" xmlns="http://www.w3.org/2000/svg" xmlns:xlink="http://www.w3.org/1999/xlink" x="0px" y="0px"
	 width="60px" height="60px" viewBox="0 0 60 60" enable-background="new 0 0 60 60" xml:space="preserve">
<g>
	<defs>
		<path id="SVGID_77_" d="M29.999,53.5C17.041,53.5,6.5,42.958,6.5,30c0-12.96,10.541-23.5,23.499-23.5S53.5,17.04,53.5,30
			C53.5,42.958,42.957,53.5,29.999,53.5z"/>
	</defs>
	<clipPath id="SVGID_2_">
		<use xlink:href="#SVGID_77_"  overflow="visible"/>
	</clipPath>
	<rect x="0.625" y="3.641" clip-path="url(#SVGID_2_)" fill="#FFFCF5" width="58.75" height="58.75"/>
	<polygon clip-path="url(#SVGID_2_)" fill="#EBE0D5" stroke="#553E31" stroke-width="1.1908" stroke-miterlimit="10" points="
		-20.18,41.224 63.079,23.848 74.613,81.927 -14.134,92.462 	"/>
	
		<path clip-path="url(#SVGID_2_)" fill="#CDB8AB" stroke="#553E31" stroke-width="1.0649" stroke-linecap="round" stroke-miterlimit="10" d="
		M69.542,63.688c-6.17-2.616-15.996-8.314-18.769-9.909c-2.771-1.594-9.541-4.861-11.684-5.725
		c-2.143-0.861-4.208-1.489-4.968-1.566c-0.759-0.079-3.841-0.185-5.567-0.759s-2.719-1.308-4.443-1.543
		c-1.726-0.236-3.006-0.602-4.078-0.34s-0.864,0.117-1.111,0.156c-0.249,0.04-1.423,0.563-1.791,0.589
		c-0.365,0.026-1.033-0.405-0.861-1.24c0.169-0.837,0.405-1.569,1.907-2.418c1.501-0.85,2.326-1.151,2.889-1.269
		c-0.496-0.195-1.465-0.89-2.13-1.516c-0.667-0.628-2.065-1.621-2.875-2.132c-0.812-0.509-2.353-1.699-2.536-2.3
		c-0.183-0.602,0.098-1.149,0.719-1.397c-0.033-0.472-0.024-1.019,0.607-1.418c0.607-0.387,1.248-0.295,1.837-0.008
		c0.588,0.289,0.823,0.394,1.188,0.602c0.223-0.458,0.771-1.085,1.437-0.927c0.667,0.156,1.817,0.601,2.746,1.07
		c0.928,0.471,7.724,0.288,8.194,0.379c0.47,0.092,2.627,0.759,3.424,1.255c0.799,0.495,0.89,0.575,1.855,0.837
		c0.969,0.261,2.118,0.641,2.98,1.007c0.864,0.365,3.529,1.202,4.889,2.208c1.359,1.007,1.752,1.203,2.691,2.145
		c0.942,0.939,0.993,1.293,2.641,1.737c1.647,0.443,12.39,3.28,14.166,3.843c1.779,0.562,6.629,1.739,11.425,2.471
		c4.798,0.731,8.93,1.82,11.946,2.26c2.51,0.366,1.672,19.762,1.672,19.762S75.711,66.3,69.542,63.688z"/>
	
		<path clip-path="url(#SVGID_2_)" fill="none" stroke="#553E31" stroke-width="1.0649" stroke-linecap="round" stroke-miterlimit="10" d="
		M23,34.096c-1.32-0.628-4.662-2.309-5.124-2.601"/>
	
		<path clip-path="url(#SVGID_2_)" fill="none" stroke="#553E31" stroke-width="1.0649" stroke-linecap="round" stroke-miterlimit="10" d="
		M22.909,35.547c-0.953-0.365-3.215-1.32-3.973-1.737c-0.758-0.419-2.196-1.309-2.848-1.49c-0.654-0.184-1.137-0.3-1.844,0"/>
	
		<path clip-path="url(#SVGID_2_)" fill="none" stroke="#553E31" stroke-width="1.0649" stroke-linecap="round" stroke-miterlimit="10" d="
		M29.026,39.848c-0.825,0.247-2.196,0.326-3.228,0.092c-1.033-0.236-3.046-0.543-4.777-0.267"/>
	<path clip-path="url(#SVGID_2_)" fill="#EBE0D5" stroke="#553E31" stroke-width="1.0649" stroke-miterlimit="10" d="M25.131,27.797
		c-0.816,0.326-2.474,1.594-2.875,3.084c-0.367,1.359-0.785,3.111,0.104,4.287c0.888,1.176,1.411,1.961,3.528,2.248
		c2.118,0.287,4.156,0.235,5.333-0.94c1.177-1.177,2.456-3.085,2.04-5.307c-0.42-2.221-0.891-3.321-2.981-3.738
		C28.189,27.013,26.699,27.168,25.131,27.797z"/>
	
		<path clip-path="url(#SVGID_2_)" fill="#CDB8AB" stroke="#553E31" stroke-width="1.0649" stroke-linecap="round" stroke-miterlimit="10" d="
		M50.878,17.418c-5.175,1.359-12.692,2.732-14.339,3.047c-1.646,0.314-2.822,1.411-5.096,1.804
		c-1.566,0.269-4.126,1.305-6.273,1.519c-1.274,0.128-2.971,0.498-3.479,0.599c-0.827,0.163-1.261,0.229-2.247,0.528
		c-0.408,0.125-0.635,0.334-0.931,0.401c-0.582,0.137-1.757,0.502-1.852,0.658c-0.313,0.509,0.019,1.44,0.626,1.704
		c0.741,0.324,0.785,0.395,1.647,0.276c0.393,0.431,0.863,0.941,1.96,0.862c1.097-0.079,2.575-0.477,3.41-0.51
		c0.941-0.04,2.843-0.196,4.275-0.471c1.392,0.216,2.954,0.088,5.194-0.08c0.53-0.038,1.647,0.178,2.138,0.316
		c-0.726,0.097-1.528,0.391-1.628,0.842c-0.097,0.449-0.41,1.548,0.217,2.392c0.628,0.845,1.882,1.589,2.687,1.568
		c0.803-0.021,2.293-0.373,3.371-0.55c1.077-0.174,3.155-0.174,4.137-0.194c0.98-0.021,3.725-0.766,4.863-1.981
		c1.136-1.216,2.586-3.548,4.175-4.353c1.685-0.117,6.979,0,9.35-0.176c2.374-0.177,7.783-1.587,7.783-1.587l-1.704-13.665
		C69.163,10.368,56.054,16.061,50.878,17.418z"/>
	
		<path clip-path="url(#SVGID_2_)" fill="none" stroke="#553E31" stroke-width="1.0649" stroke-linecap="round" stroke-miterlimit="10" d="
		M34.385,22.699c-0.315,0.156-1.079,0.607-2.078,0.686c-2.353,0.118-4.216,0.784-5.431,1.12c-0.581,0.156-1.348,0.275-1.999,0.459
		c-0.716,0.202-1.316,0.465-1.965,0.597c-1.238,0.256-1.78,0.727-2.054,0.824c-0.274,0.098-1.197,0.354-1.805,0.628
		c-0.26,0.117-0.293,0.509-0.117,0.941"/>
	
		<path clip-path="url(#SVGID_2_)" fill="none" stroke="#553E31" stroke-width="1.0649" stroke-linecap="round" stroke-miterlimit="10" d="
		M43.09,26.398c-0.641,0.34-2.602,1.188-3.256,1.372c-0.652,0.184-2.064,0.144-2.601,0.118c-0.536-0.026-1.32,0.184-1.32,0.184"/>
	
		<path clip-path="url(#SVGID_2_)" fill="#CDB8AB" stroke="#553E31" stroke-width="1.0649" stroke-linecap="round" stroke-miterlimit="10" d="
		M31.952,38.973c1.9-0.457,4.255-0.414,6.535,0.477"/>
	<g clip-path="url(#SVGID_2_)">
		<g>
			<path fill="#553E31" d="M35.274,17.186c0,0.001-0.198,0.261-0.624,0.54c-0.429,0.273-1.11,0.562-1.933,0.925
				c-0.829,0.347-1.82,0.742-2.938,1.005c-1.115,0.263-2.339,0.441-3.563,0.415c-0.622,0-1.215-0.074-1.781-0.133
				c-0.599-0.08-1.179-0.178-1.728-0.307c-1.101-0.262-2.108-0.635-2.895-1.107c-0.791-0.465-1.358-0.997-1.693-1.406
				c-0.171-0.203-0.292-0.371-0.371-0.477c-0.076-0.097-0.117-0.148-0.117-0.148l-0.02-0.025c-0.07-0.089-0.054-0.218,0.035-0.288
				c0.083-0.065,0.202-0.056,0.274,0.019c0,0,0.056,0.058,0.16,0.165c0.095,0.104,0.224,0.249,0.399,0.42
				c0.345,0.346,0.902,0.771,1.657,1.121c0.752,0.357,1.708,0.607,2.75,0.741c0.525,0.066,1.065,0.1,1.607,0.117
				c0.578,0.002,1.147,0.002,1.689-0.03c1.106-0.058,2.192-0.28,3.182-0.583c0.991-0.303,1.892-0.682,2.656-1.044
				c0.77-0.353,1.384-0.726,1.867-0.905c0.484-0.176,0.809-0.173,0.809-0.172h0.007c0.399,0.004,0.719,0.331,0.714,0.73
				C35.419,16.919,35.364,17.067,35.274,17.186z"/>
		</g>
		<g>
			<path fill="#553E31" d="M33.208,18.857c0.335-0.361,0.643-0.77,0.843-1.179c0.101-0.203,0.178-0.409,0.197-0.588
				c0.023-0.179-0.009-0.32-0.063-0.388l0,0l0.518,0.66c-0.028-0.023-0.122-0.061-0.189-0.092c-0.071-0.034-0.156-0.06-0.235-0.091
				c-0.157-0.064-0.331-0.103-0.499-0.155c-0.344-0.084-0.698-0.165-1.062-0.199c-0.363-0.059-0.731-0.057-1.104-0.07
				c-0.373-0.004-0.746,0.04-1.126,0.058l-0.031,0.002c-0.128,0.006-0.237-0.094-0.244-0.222c-0.005-0.108,0.065-0.203,0.164-0.233
				c0.375-0.115,0.751-0.258,1.141-0.353c0.391-0.086,0.785-0.186,1.192-0.224c0.405-0.063,0.818-0.075,1.237-0.077
				c0.21,0.009,0.421,0.004,0.637,0.032c0.108,0.013,0.214,0.019,0.326,0.038c0.117,0.021,0.211,0.03,0.362,0.072
				c0.278,0.077,0.471,0.311,0.508,0.579l0.011,0.081l0,0c-0.002,0.444-0.15,0.814-0.326,1.104
				c-0.178,0.294-0.392,0.514-0.609,0.708c-0.439,0.388-0.903,0.663-1.396,0.897c-0.11,0.054-0.244,0.006-0.297-0.104
				c-0.04-0.085-0.022-0.183,0.038-0.247L33.208,18.857z"/>
		</g>
	</g>
	<g clip-path="url(#SVGID_2_)">
		<g>
			<path fill="#553E31" d="M19.145,13.094c0,0,0.198-0.261,0.624-0.54c0.429-0.273,1.111-0.563,1.933-0.925
				c0.829-0.347,1.82-0.742,2.938-1.005c1.115-0.263,2.339-0.442,3.563-0.417c0.621,0,1.216,0.074,1.781,0.133
				c0.6,0.08,1.179,0.179,1.728,0.308c1.101,0.262,2.107,0.636,2.895,1.107c0.791,0.466,1.358,0.997,1.693,1.407
				c0.17,0.202,0.291,0.37,0.371,0.476c0.076,0.097,0.116,0.148,0.116,0.148l0.02,0.024c0.07,0.09,0.055,0.219-0.034,0.289
				c-0.084,0.065-0.202,0.056-0.274-0.019c0,0-0.056-0.058-0.16-0.165c-0.096-0.104-0.224-0.249-0.399-0.42
				c-0.346-0.346-0.902-0.771-1.657-1.121c-0.752-0.356-1.708-0.607-2.751-0.741c-0.525-0.067-1.064-0.101-1.607-0.118
				c-0.578-0.001-1.146-0.002-1.688,0.031c-1.106,0.058-2.192,0.281-3.183,0.584s-1.892,0.682-2.656,1.044
				c-0.77,0.353-1.384,0.726-1.867,0.904c-0.485,0.177-0.809,0.174-0.809,0.173h-0.007c-0.399-0.004-0.719-0.331-0.714-0.73
				C19,13.36,19.055,13.213,19.145,13.094z"/>
		</g>
		<g>
			<path fill="#553E31" d="M21.212,11.423c-0.336,0.36-0.644,0.769-0.845,1.177c-0.101,0.203-0.178,0.41-0.197,0.588
				c-0.023,0.179,0.01,0.319,0.064,0.387l0,0l-0.518-0.658c0.029,0.023,0.122,0.061,0.189,0.092c0.072,0.034,0.157,0.06,0.235,0.091
				c0.157,0.064,0.331,0.104,0.5,0.155c0.343,0.085,0.698,0.166,1.061,0.199c0.363,0.059,0.731,0.058,1.105,0.07
				c0.373,0.004,0.745-0.039,1.126-0.058l0.031-0.002c0.128-0.006,0.237,0.094,0.244,0.222c0.005,0.108-0.065,0.203-0.164,0.233
				c-0.375,0.115-0.751,0.258-1.141,0.353c-0.391,0.086-0.786,0.186-1.192,0.224c-0.405,0.063-0.818,0.075-1.238,0.078
				c-0.21-0.01-0.42-0.005-0.636-0.033c-0.109-0.013-0.214-0.019-0.327-0.038c-0.117-0.021-0.211-0.03-0.363-0.072
				c-0.277-0.077-0.468-0.31-0.506-0.577l-0.011-0.081l0,0c0.001-0.444,0.149-0.816,0.325-1.105c0.178-0.295,0.392-0.515,0.61-0.709
				c0.439-0.388,0.905-0.663,1.398-0.897c0.111-0.053,0.244-0.005,0.297,0.106c0.04,0.084,0.022,0.182-0.038,0.247L21.212,11.423z"
				/>
		</g>
	</g>
</g>
</svg>
