<?xml version="1.0" encoding="utf-8"?>
<!-- Generator: Adobe Illustrator 16.0.0, SVG Export Plug-In . SVG Version: 6.00 Build 0)  -->
<!DOCTYPE svg PUBLIC "-//W3C//DTD SVG 1.1//EN" "http://www.w3.org/Graphics/SVG/1.1/DTD/svg11.dtd">
<svg version="1.1" id="Layer_1" xmlns="http://www.w3.org/2000/svg" xmlns:xlink="http://www.w3.org/1999/xlink" x="0px" y="0px"
	 width="32px" height="32px" viewBox="0 0 32 32" enable-background="new 0 0 32 32" xml:space="preserve">
<g>
	<linearGradient id="SVGID_1_" gradientUnits="userSpaceOnUse" x1="10" y1="12.5" x2="10" y2="29.5">
		<stop  offset="0" style="stop-color:#FFFCF5"/>
		<stop  offset="1" style="stop-color:#EBE0D5"/>
	</linearGradient>
	<path fill-rule="evenodd" clip-rule="evenodd" fill="url(#SVGID_1_)" stroke="#CDB8AB" stroke-miterlimit="10" d="M18.5,24.5
		c0,2.761-2.238,5-5,5h-7c-2.762,0-5-2.239-5-5v-7c0-2.761,2.238-5,5-5h7c2.762,0,5,2.239,5,5V24.5z"/>
	<g>
		<path fill-rule="evenodd" clip-rule="evenodd" fill="#553E31" d="M9.29,27.404c-0.693-2.223-2.047-5.054-2.792-6.544
			c-0.857-1.715-1.503-2.028-2.48-2.503l-0.75-0.366l0.467-0.494c1.514-1.602,2.732-2.415,3.621-2.415
			c1.42,0,2.163,0.906,2.748,1.755c0.39,0.569,0.401,0.59,0.682,1.185c0.138,0.29,0.344,0.729,0.699,1.455
			C18.893,7.721,28.179,3.02,28.274,2.973l0.357-0.177l0.252,0.31c0,0,0.237,0.29,0.762,1.027l0.274,0.386l-0.37,0.295
			C19.914,12.5,14.176,24.183,13.937,24.676l-0.05,0.103l-0.089,0.071c-0.276,0.219-0.611,0.459-1.016,0.749
			c-0.699,0.501-1.57,1.125-2.699,2.044l-0.572,0.467L9.29,27.404z"/>
		<path fill="#FFFCF5" d="M28.496,3.421c0,0,0.23,0.283,0.742,1.002c-8.746,6.977-14.52,17.496-15.752,20.035
			c-0.742,0.59-1.924,1.334-3.719,2.797c-0.641-2.053-1.848-4.67-2.822-6.619s-1.744-2.258-2.848-2.797
			c0.436-0.461,2.154-2.258,3.258-2.258s1.719,0.643,2.336,1.539c0.615,0.898,0.178,0.232,1.744,3.387
			C18.926,8.167,28.496,3.421,28.496,3.421 M28.768,2.17l-0.716,0.355c-0.385,0.191-9.131,4.62-16.507,15.93
			c-0.133-0.278-0.23-0.485-0.307-0.647c-0.292-0.618-0.316-0.662-0.668-1.174l-0.054-0.079c-0.707-1.026-1.577-1.974-3.161-1.974
			c-0.385,0-1.556,0-3.984,2.571l-0.935,0.989l1.223,0.597l0.14,0.068c0.948,0.461,1.471,0.714,2.252,2.277
			c0.738,1.477,2.079,4.281,2.762,6.47l0.441,1.411l1.146-0.934c1.116-0.91,1.98-1.529,2.674-2.025
			c0.412-0.295,0.754-0.541,1.035-0.764l0.179-0.142l0.099-0.205c2.013-4.146,7.837-13.596,15.477-19.69l0.739-0.59l-0.549-0.771
			c-0.524-0.736-0.771-1.041-0.781-1.053L28.768,2.17L28.768,2.17z"/>
	</g>
</g>
</svg>
