<?xml version="1.0" encoding="utf-8"?>
<!-- Generator: Adobe Illustrator 15.0.0, SVG Export Plug-In . SVG Version: 6.00 Build 0)  -->
<!DOCTYPE svg PUBLIC "-//W3C//DTD SVG 1.1//EN" "http://www.w3.org/Graphics/SVG/1.1/DTD/svg11.dtd">
<svg version="1.1" id="Layer_1" xmlns="http://www.w3.org/2000/svg" xmlns:xlink="http://www.w3.org/1999/xlink" x="0px" y="0px"
	 width="65px" height="65px" viewBox="0 0 65 65" enable-background="new 0 0 65 65" xml:space="preserve">
<g>
	<defs>
		<path id="SVGID_1_" d="M32.499,58.521c-14.348,0-26.021-11.674-26.021-26.021c0-14.35,11.673-26.021,26.021-26.021
			c14.349,0,26.022,11.672,26.022,26.021C58.521,46.848,46.848,58.521,32.499,58.521z"/>
	</defs>
	<clipPath id="SVGID_2_">
		<use xlink:href="#SVGID_1_"  overflow="visible"/>
	</clipPath>
	<path clip-path="url(#SVGID_2_)" fill="#CDB8AB" stroke="#553E31" stroke-width="1.0007" stroke-miterlimit="10" d="M30.782,19.563
		c0,0-0.553,0.313-0.568,0.656c-0.014,0.342,0.638,0.846,1.063,1.348c0.428,0.502,1.275,1.162,1.669,1.438
		c0.395,0.275,3.188,1.09,3.501,1.119c0.313,0.027,0.766-0.328,0.684-0.576c-0.083-0.246-2.303-2.146-2.536-2.457
		c-0.233-0.314-1.017-1.293-1.017-1.293L30.782,19.563z"/>
	<path clip-path="url(#SVGID_2_)" fill="#CDB8AB" stroke="#553E31" stroke-width="1.0954" stroke-miterlimit="10" d="M28.861,22.072
		c0,0,0.306,1.195,0.741,1.684c0.437,0.486,1.215,0.674,1.215,0.674s0.733-0.104,1.138-0.598c0.405-0.492,0.257-1.328,0.257-1.328
		s-0.532-1.104-0.904-1.287c-0.372-0.186-1.526-0.617-1.526-0.617L28.861,22.072z"/>
	<path clip-path="url(#SVGID_2_)" fill="#CDB8AB" stroke="#553E31" stroke-miterlimit="10" d="M15.87,40.627
		c0,7.412,7.333,13.418,16.378,13.418s16.378-6.006,16.378-13.418H15.87z"/>
	
		<ellipse clip-path="url(#SVGID_2_)" fill="#EBE0D5" stroke="#553E31" stroke-miterlimit="10" cx="32.248" cy="40.627" rx="16.378" ry="5.148"/>
	
		<ellipse transform="matrix(0.998 -0.063 0.063 0.998 -1.9478 2.1136)" clip-path="url(#SVGID_2_)" fill="#EBE0D5" stroke="#553E31" stroke-miterlimit="10" cx="32.555" cy="31.955" rx="15.6" ry="6.822"/>
	
		<ellipse transform="matrix(0.9988 -0.0487 0.0487 0.9988 -1.4518 1.612)" clip-path="url(#SVGID_2_)" fill="#CDB8AB" stroke="#553E31" stroke-miterlimit="10" cx="32.357" cy="30.602" rx="15.121" ry="6.383"/>
	
		<ellipse transform="matrix(0.9988 -0.0487 0.0487 0.9988 -1.3411 1.5799)" clip-path="url(#SVGID_2_)" fill="#EBE0D5" stroke="#553E31" stroke-width="1.1261" stroke-miterlimit="10" cx="31.773" cy="28.331" rx="4.635" ry="1.886"/>
	
		<ellipse transform="matrix(0.995 -0.0994 0.0994 0.995 -2.4038 3.3013)" clip-path="url(#SVGID_2_)" fill="#553E31" cx="31.92" cy="25.769" rx="4.214" ry="2.329"/>
	
		<ellipse transform="matrix(0.995 -0.0994 0.0994 0.995 -2.5682 3.3026)" clip-path="url(#SVGID_2_)" fill="#553E31" cx="31.851" cy="27.418" rx="2.986" ry="1.378"/>
	<path clip-path="url(#SVGID_2_)" fill="#CDB8AB" stroke="#553E31" stroke-miterlimit="10" d="M42.635,7.133
		c0,0-3.452,2.117-4.557,2.762s-3.497,2.07-4.188,2.348c-0.69,0.275-2.669,1.426-2.899,1.793c-0.23,0.369-1.427,3.039-1.979,3.545
		c-0.553,0.506-2.209,1.611-2.67,2.117c-0.46,0.506-0.645,0.645-0.506,1.334s0.189,1.1,0.207,1.41s0,0.758,0.259,1.396
		c0,0,0.414,0.967,1.036,1.398c0.621,0.432,1.449,1.088,1.794,1.156s0.38-0.104,0.501-0.467c0.121-0.361,0.068-1.482-0.207-1.777
		c-0.276-0.293-0.639-0.846-0.639-0.846s0.034-0.621-0.035-0.965c-0.068-0.346-0.068-0.346-0.068-0.346s1.639-0.484,2.002-1.588
		c0.293-0.139,1.863-0.121,2.502-0.689c0,0,1.777,0.672,2.468,0.879c-0.034,0.311-0.12,0.707-0.483,1.105
		c-0.362,0.396-1.053,1.189-1.311,1.484c-0.26,0.293-1.416,1.26-1.657,1.932c-0.241,0.674-0.587,1.434-0.207,2.088
		c0.38,0.656,1.139,0.621,1.726,0.328s1.984-1.311,2.537-1.76c0.552-0.449,1.397-1.691,1.743-2.295
		c0.345-0.605,1.069-1.209,2.088-2.002c1.019-0.795,2.762-2.227,3.365-3.539c0.604-1.311,1.415-3.813,3.228-5.486
		c1.812-1.676,6.506-4.402,7.68-5.092c1.174-0.691,1.674-1.328,1.674-1.328L42.635,7.133z"/>
	<g clip-path="url(#SVGID_2_)">
		<g>
			<path fill="#553E31" d="M11.716,35.831c-0.268-0.36-0.398-0.759-0.479-1.208c-0.069-0.433-0.081-0.863-0.1-1.298
				c-0.028-0.867,0.007-1.739,0.107-2.6c0.183-1.729,0.694-3.388,1.315-4.958c0.333-0.781,0.651-1.544,1.112-2.295
				c0.446-0.742,0.959-1.431,1.518-2.072c1.133-1.271,2.376-2.388,3.887-3.211c0.128-0.07,0.288-0.022,0.357,0.105
				c0.064,0.117,0.03,0.261-0.075,0.338l-0.028,0.02c-1.249,0.921-2.332,2.17-3.188,3.472c-0.885,1.316-1.392,2.75-1.901,4.258
				c-0.486,1.494-0.794,3.02-0.905,4.542c-0.054,0.762-0.052,1.525,0.006,2.285l0.112,1.139c0.019,0.36,0.018,0.767-0.107,1.209
				c-0.138,0.486-0.644,0.77-1.131,0.632c-0.203-0.058-0.37-0.179-0.486-0.336L11.716,35.831z"/>
		</g>
		<g>
			<path fill="#553E31" d="M9.727,31.869c0.399,0.685,0.902,1.335,1.452,1.858c0.548,0.524,1.182,0.915,1.752,1.011l-0.954,0.081
				c0.214-0.073,0.594-0.35,0.865-0.6c0.291-0.267,0.557-0.576,0.795-0.915c0.475-0.68,0.823-1.484,1.042-2.343
				c0.04-0.162,0.202-0.261,0.364-0.222c0.135,0.033,0.226,0.155,0.23,0.287c0.018,0.944-0.108,1.921-0.44,2.871
				c-0.167,0.473-0.383,0.938-0.658,1.383c-0.298,0.455-0.555,0.841-1.086,1.287c-0.274,0.229-0.652,0.253-0.946,0.087l-0.009-0.006
				c-0.961-0.547-1.561-1.342-2.004-2.126c-0.439-0.797-0.735-1.608-0.932-2.461c-0.035-0.153,0.06-0.305,0.213-0.34
				c0.124-0.028,0.248,0.029,0.309,0.133L9.727,31.869z"/>
		</g>
	</g>
	<g clip-path="url(#SVGID_2_)">
		<g>
			<path fill="#553E31" d="M50.582,38.133c-0.014-0.459,0.083-0.854,0.188-1.198l0.385-1.077c0.241-0.724,0.428-1.463,0.56-2.215
				c0.261-1.504,0.332-3.058,0.223-4.625c-0.129-1.586-0.273-3.099-0.813-4.591c-0.515-1.469-1.264-2.944-2.252-4.14l-0.021-0.026
				c-0.093-0.112-0.077-0.278,0.035-0.371c0.103-0.085,0.251-0.079,0.346,0.009c1.267,1.164,2.202,2.548,2.993,4.057
				c0.387,0.756,0.718,1.549,0.971,2.377c0.265,0.841,0.39,1.658,0.523,2.497c0.223,1.674,0.316,3.407,0.075,5.129
				c-0.111,0.859-0.288,1.714-0.525,2.549c-0.124,0.417-0.24,0.832-0.412,1.234c-0.188,0.416-0.41,0.771-0.757,1.057l-0.02,0.016
				c-0.391,0.321-0.969,0.265-1.29-0.126C50.656,38.524,50.588,38.328,50.582,38.133z"/>
		</g>
		<g>
			<path fill="#553E31" d="M55.456,35.749c-0.396,0.78-0.881,1.495-1.5,2.163c-0.62,0.652-1.395,1.278-2.46,1.576l-0.008,0.003
				c-0.344,0.096-0.699-0.04-0.897-0.313c-0.408-0.563-0.563-0.999-0.743-1.513c-0.159-0.497-0.255-1.001-0.304-1.501
				c-0.093-1.001,0.022-1.979,0.269-2.891c0.043-0.161,0.208-0.256,0.369-0.212c0.134,0.036,0.222,0.161,0.223,0.292
				c0.005,0.887,0.147,1.751,0.443,2.525c0.148,0.387,0.332,0.751,0.55,1.08c0.202,0.309,0.504,0.668,0.693,0.791l-0.905-0.31
				c0.577,0.044,1.286-0.181,1.944-0.556c0.66-0.374,1.306-0.884,1.859-1.451L55,35.423c0.109-0.112,0.289-0.115,0.401-0.006
				C55.493,35.506,55.511,35.642,55.456,35.749z"/>
		</g>
	</g>
	<g clip-path="url(#SVGID_2_)">
		<defs>
			<path id="SVGID_3_" d="M32.123,35.369c-8.955,0-16.24,2.246-16.24,5.008s7.285,5.01,16.24,5.01c8.954,0,16.239-2.248,16.239-5.01
				S41.077,35.369,32.123,35.369z"/>
		</defs>
		<clipPath id="SVGID_4_">
			<use xlink:href="#SVGID_3_"  overflow="visible"/>
		</clipPath>
		
			<ellipse clip-path="url(#SVGID_4_)" fill="none" stroke="#553E31" stroke-miterlimit="10" cx="32.785" cy="46.328" rx="8.421" ry="3.729"/>
	</g>
</g>
</svg>
