<?xml version="1.0" encoding="utf-8"?>
<!-- Generator: Adobe Illustrator 15.0.0, SVG Export Plug-In . SVG Version: 6.00 Build 0)  -->
<!DOCTYPE svg PUBLIC "-//W3C//DTD SVG 1.1//EN" "http://www.w3.org/Graphics/SVG/1.1/DTD/svg11.dtd">
<svg version="1.1" id="Layer_1" xmlns="http://www.w3.org/2000/svg" xmlns:xlink="http://www.w3.org/1999/xlink" x="0px" y="0px"
	 width="65px" height="65px" viewBox="0 0 65 65" enable-background="new 0 0 65 65" xml:space="preserve">
<g>
	<defs>
		<path id="SVGID_1_" d="M32.5,56.52c-13.245,0-24.021-10.774-24.021-24.02S19.255,8.48,32.5,8.48S56.521,19.255,56.521,32.5
			S45.745,56.52,32.5,56.52z"/>
	</defs>
	<clipPath id="SVGID_2_">
		<use xlink:href="#SVGID_1_"  overflow="visible"/>
	</clipPath>
	<polygon clip-path="url(#SVGID_2_)" fill="#EBE0D5" stroke="#553E31" stroke-miterlimit="10" points="-14.625,44.593 
		59.695,34.533 70.66,71.361 -8.648,77.037 	"/>
	<g clip-path="url(#SVGID_2_)">
		<g>
			<path fill="#553E31" d="M20.064,45.869c-0.6-0.406-0.856-1.149-1.104-1.789c-0.249-0.664-0.449-1.349-0.598-2.042
				c-0.311-1.387-0.349-2.806-0.278-4.185c0.062-1.36,0.346-2.797,0.894-4.07c0.545-1.281,1.215-2.472,2.17-3.504
				c0.081-0.087,0.217-0.093,0.304-0.012c0.08,0.074,0.091,0.195,0.03,0.282l-0.016,0.023c-0.727,1.039-1.238,2.291-1.561,3.522
				c-0.341,1.251-0.358,2.494-0.358,3.795c0.014,1.284,0.175,2.546,0.487,3.754c0.158,0.604,0.359,1.194,0.603,1.769
				c0.244,0.599,0.57,1.059,0.619,1.816c0.026,0.41-0.285,0.764-0.695,0.79c-0.171,0.011-0.333-0.037-0.464-0.127L20.064,45.869z"/>
		</g>
		<g>
			<path fill="#553E31" d="M17.488,43.321c0.488,0.426,1.047,0.799,1.61,1.06c0.562,0.262,1.154,0.398,1.621,0.323l-0.717,0.313
				c0.147-0.112,0.369-0.426,0.513-0.69c0.156-0.282,0.281-0.592,0.376-0.916c0.19-0.651,0.249-1.365,0.193-2.087
				c-0.012-0.136,0.088-0.255,0.224-0.268c0.113-0.01,0.215,0.062,0.253,0.162c0.261,0.727,0.42,1.517,0.411,2.338
				c-0.006,0.411-0.051,0.828-0.148,1.244c-0.112,0.43-0.21,0.796-0.505,1.28c-0.152,0.25-0.438,0.367-0.709,0.315l-0.008-0.002
				c-0.888-0.173-1.561-0.631-2.109-1.122c-0.548-0.503-0.99-1.054-1.365-1.663c-0.067-0.108-0.033-0.252,0.076-0.319
				c0.088-0.054,0.199-0.042,0.274,0.022L17.488,43.321z"/>
		</g>
	</g>
	
		<path clip-path="url(#SVGID_2_)" fill="#EBE0D5" stroke="#553E31" stroke-width="1.1129" stroke-linecap="round" stroke-linejoin="round" stroke-miterlimit="10" d="
		M46.412,25.771c-0.436-2.58-2.571-4.371-4.769-4.001c-0.267,0.046-0.52,0.12-0.761,0.222l-12.184,3.539l4.062,12.107l11.101-6.702
		c0.386-0.145,0.74-0.355,1.056-0.62l0.021-0.012l-0.001-0.003C46.097,29.311,46.719,27.59,46.412,25.771z"/>
	
		<path clip-path="url(#SVGID_2_)" fill="#CDB8AB" stroke="#553E31" stroke-width="1.1129" stroke-linecap="round" stroke-linejoin="round" stroke-miterlimit="10" d="
		M38.855,34.527c0.465,0.447,1.204,1.035,1.626,0.633c0.423-0.4,0.887-1.857,1.268-2.406c0.38-0.549,0.823-1.268,1.119-1.773
		c0.296-0.508,0.845-1.922,0.781-2.746c-0.064-0.823-0.19-2.154,0.105-2.955c0.296-0.804,1.077-2.303,1.521-3
		c0.443-0.695,0.549-1.857,0.781-2.871c0.231-1.014,0.401-3.273,1.456-4.266c1.057-0.993,5.048-3.949,6.736-4.73
		c1.69-0.781,11.319-6.652,13.494-8.129c2.175-1.479,2.196-3.484,2.196-3.484L51.314-0.272c0,0-8.827,9.164-10.137,10.431
		c-1.309,1.268-8.446,6.378-9.291,6.842c-0.844,0.465-1.984,1.775-2.406,2.788c-0.423,1.015-1.099,1.773-1.584,2.09
		c-0.486,0.317-2.407,1.374-2.746,1.732c-0.338,0.358-0.506,1.33-0.611,1.815c0,0-0.802,2.364-0.655,3.379
		c0.147,1.014,0.846,2.492,1.141,2.955c0,0,0-2.828,0.76-3.863c0.761-1.035,1.605-1.858,2.915-2.365
		c1.309-0.507,1.899-0.95,3.294-1.289c1.394-0.336,2.639-0.38,3.906-0.23c1.268,0.147,2.471,0.569,2.809,0.949
		c0.338,0.381,0.591,1.183,0.57,1.943c-0.021,0.76-0.212,1.837-0.168,2.428c0.041,0.592-0.297,1.648-0.445,2.134
		C38.519,31.951,38.265,33.957,38.855,34.527z"/>
	
		<ellipse transform="matrix(0.986 -0.1665 0.1665 0.986 -4.8295 5.543)" clip-path="url(#SVGID_2_)" fill="#EBE0D5" stroke="#553E31" stroke-width="1.1129" stroke-linecap="round" stroke-linejoin="round" stroke-miterlimit="10" cx="30.634" cy="31.566" rx="5.488" ry="6.443"/>
	
		<path clip-path="url(#SVGID_2_)" fill="#CDB8AB" stroke="#553E31" stroke-linecap="round" stroke-linejoin="round" stroke-miterlimit="10" d="
		M50.82,46.341c-0.965-0.111-1.935-0.15-2.9-0.25c-0.581-0.061-1.182-0.187-1.654-0.467c-0.25-0.149-0.355-0.37-0.567-0.525
		c-0.224-0.164-0.764-0.184-1.073-0.237c-1.587-0.276-3.219-0.524-4.853-0.424c-5.633,0.344-11.015,1.447-16.408,2.711
		c-2.624,0.615-5.089,2.122-6.189,4.096c-0.916,1.643-0.938,3.375-1.67,5.039c-0.813,1.85,0.798,3.564,3.181,4.053
		c4.528,0.926,9.429,0.097,13.955-0.47c5.729-0.717,11.461-1.395,17.245-1.754c4.054-0.254,8.742-1.379,8.865-5.013
		c0.043-1.257,0.016-2.688-0.911-3.775c-0.659-0.771-2.045-1.668-3.108-2.116c-0.291-0.123-0.615-0.259-0.937-0.328
		c-0.281-0.062-0.556-0.041-0.844-0.116c-0.7-0.184-1.355-0.332-2.094-0.418C50.845,46.344,50.832,46.342,50.82,46.341z"/>
	
		<path clip-path="url(#SVGID_2_)" fill="#CDB8AB" stroke="#553E31" stroke-width="1.1129" stroke-linecap="round" stroke-linejoin="round" stroke-miterlimit="10" d="
		M36.046,30.652c-0.349,0.072-1.489,0.174-1.793,0.37c-0.826,0.534-1.886,1.01-2.817,1.323c-1.034,0.35-2.036,0.484-3.095,0.709
		c-0.865,0.186-1.242,0.951-1.796,1.662c-0.632,0.814-0.486,1.547-0.204,2.471c0.211,0.689,0.337,1.994,0.31,2.746
		c-0.029,0.805-0.078,1.842,0.183,2.617c0.331,0.98,1.6,1.248,2.605,1.197c1.024-0.053,0.922-1.367,1.225-2.182
		c0.222-0.598,0.367-1.121,0.76-1.633c0.487-0.635,0.414-1.398,0.887-1.873c0.972-0.971,1.745-1.057,2.873-2.422
		C35.984,34.287,36.046,30.652,36.046,30.652"/>
</g>
</svg>
