<?xml version="1.0" encoding="utf-8"?>
<!-- Generator: Adobe Illustrator 16.0.0, SVG Export Plug-In . SVG Version: 6.00 Build 0)  -->
<!DOCTYPE svg PUBLIC "-//W3C//DTD SVG 1.1//EN" "http://www.w3.org/Graphics/SVG/1.1/DTD/svg11.dtd">
<svg version="1.1" id="Layer_1" xmlns="http://www.w3.org/2000/svg" xmlns:xlink="http://www.w3.org/1999/xlink" x="0px" y="0px"
	 width="230px" height="90px" viewBox="-27.873 -15.597 230 90" enable-background="new -27.873 -15.597 230 90"
	 xml:space="preserve">
<g>
	<path fill="#6D6E71" d="M195.958,8.798h1.43c0.011,0.018,0.017,0.035,0.022,0.054c0.235,0.509,0.469,1.016,0.684,1.53
		c0.233,0.575,0.441,1.159,0.691,1.727c0.013,0.017,0.02,0.036,0.025,0.054c0.184-0.419,0.469-1.094,0.657-1.513
		c0.173-0.387,0.346-0.782,0.518-1.171c0.07-0.15,0.08-0.18,0.08-0.233c0-0.13-0.134-0.13-0.251-0.13L199.29,9.14l0.524-0.34h1.918
		l-0.138,0.132c-0.139,0.125-0.212,0.215-0.212,0.461c0,0.083,0.008,0.167,0.021,0.255c0.032,0.377,0.065,0.753,0.095,1.13
		c0.042,0.495,0.088,0.991,0.181,1.482c0.077,0.399,0.16,0.544,0.447,0.758c-0.316,0.061-0.53,0.09-0.85,0.09
		c-0.131,0-0.358,0-0.567-0.155c-0.246-0.19-0.28-0.496-0.321-1.04c-0.035-0.371-0.072-0.741-0.104-1.112
		c-0.024-0.352-0.035-0.705-0.069-1.057l-0.009-0.071l-0.032,0.077c-0.211,0.454-0.403,0.92-0.606,1.374
		c-0.47,1.088-0.506,1.159-0.601,1.452l0.065,0.18c-0.174,0.04-0.854,0.268-1.107,0.362c-0.19-0.531-0.865-2.263-1.403-3.445
		c-0.053,0.501-0.102,1.003-0.148,1.504c-0.016,0.167-0.113,1.285-0.113,1.387c0,0.132,0.028,0.166,0.262,0.192l0.525,0.076
		l-0.307,0.186h-1.11l0.156-0.186c0.03-0.042,0.059-0.076,0.079-0.13c0.032-0.095,0.052-0.264,0.078-0.501
		c0.041-0.365,0.09-0.724,0.132-1.087c0.024-0.227,0.136-1.34,0.165-1.595c0.01-0.059,0.012-0.125,0.012-0.187
		c0-0.153-0.057-0.232-0.238-0.232c-0.084,0-0.468,0.01-0.554,0.01L195.958,8.798L195.958,8.798z"/>
	<path fill="#6D6E71" d="M195.694,8.798l-0.258,0.608l-0.271,0.12c0.019-0.059,0.067-0.281,0.067-0.304
		c0-0.137-0.162-0.143-0.33-0.143l-0.83,0.006C194,11.415,194,11.619,194,11.934c0,0.168,0,0.304,0.011,0.508
		c0.02,0.258,0.103,0.312,0.379,0.329l0.505,0.054l-0.387,0.191h-1.99l0.133-0.191c0.131-0.197,0.15-0.227,0.15-0.358
		c0.003-0.132,0-0.747,0-0.885c0-0.25,0-0.506,0.003-0.758c0.02-0.514,0.049-1.029,0.049-1.537c0-0.085-0.008-0.18-0.008-0.202
		h-0.727c-0.364,0.011-0.371,0.022-0.567,0.322l-0.317,0.12l0.317-0.729h4.144V8.798z"/>
	<path fill="#EF3E35" d="M187.96,42.898c-0.84,0.459-1.681,0.996-2.521,1.377c-2.526,1.147-5.125,1.454-7.418,1.454
		c-2.447,0-6.271-0.154-10.171-2.982c-5.429-3.822-7.799-10.399-7.799-16.136c0-11.852,9.636-17.666,17.513-17.666
		c2.75,0,5.582,0.688,7.875,2.143c3.823,2.522,4.818,5.811,5.353,7.57l-17.969,7.263l-5.889,0.46
		c1.912,9.71,8.489,15.37,15.754,15.37c3.898,0,6.73-1.374,9.33-2.676L187.96,42.898L187.96,42.898z M180.773,20.112
		c1.452-0.535,2.218-0.994,2.218-2.065c0-3.059-3.44-6.576-7.57-6.576c-3.06,0-8.794,2.371-8.794,10.63
		c0,1.299,0.152,2.674,0.229,4.051L180.773,20.112L180.773,20.112z"/>
	<path fill="#2FB457" d="M158.213,44.579h-13.534c1.758-2.291,2.065-2.521,2.065-4.049V28.065c0-5.964,0.077-14.453,0.304-22.405
		c0.077-3.901,0.384-8.795,0.46-12.313h-5.964l5.737-2.753h10.932c-2.369,1.376-3.135,1.835-3.438,4.513
		c-0.611,5.887-0.689,15.215-0.689,26.075v17.664c0,2.983,0.537,3.442,3.061,3.672c1.3,0.152,2.601,0.229,3.898,0.381
		L158.213,44.579L158.213,44.579z"/>
	<path fill="#0075BF" d="M133.135,12.695c1.755,1.452,5.426,4.511,5.426,10.322c0,5.659-3.212,8.335-6.422,10.859
		c-0.991,0.993-2.142,2.064-2.142,3.746s1.15,2.601,1.988,3.29l2.754,2.139c3.365,2.831,6.423,5.431,6.423,10.705
		c0,7.19-6.959,14.455-20.112,14.455c-11.086,0-16.44-5.277-16.44-10.936c0-2.756,1.377-6.654,5.891-9.331
		c4.739-2.905,11.164-3.287,14.602-3.517c-1.07-1.377-2.292-2.829-2.292-5.198c0-1.302,0.383-2.067,0.766-2.982
		c-0.843,0.075-1.683,0.152-2.446,0.152c-8.106,0-12.693-6.043-12.693-12.007c0-3.518,1.605-7.418,4.893-10.246
		c4.358-3.594,9.559-4.205,13.688-4.205h15.752l-4.894,2.752h-4.74V12.695z M127.704,46.644c-0.612-0.074-0.995-0.074-1.759-0.074
		c-0.687,0-4.816,0.15-8.03,1.224c-1.682,0.611-6.575,2.444-6.575,7.876c0,5.427,5.277,9.327,13.459,9.327
		c7.34,0,11.241-3.516,11.241-8.259C136.04,52.84,133.516,50.775,127.704,46.644L127.704,46.644z M129.923,32.117
		c1.757-1.761,1.911-4.208,1.911-5.584c0-5.505-3.288-14.07-9.636-14.07c-1.989,0-4.13,0.994-5.354,2.523
		c-1.299,1.606-1.682,3.671-1.682,5.659c0,5.123,2.983,13.612,9.558,13.612C126.633,34.258,128.698,33.339,129.923,32.117
		L129.923,32.117z"/>
	<path fill="#FFDF1C" d="M85.723,45.574c-12.158,0-18.658-9.482-18.658-18.045c0-10.016,8.182-18.583,19.804-18.583
		c11.242,0,18.277,8.794,18.277,18.048C105.146,36.019,98.188,45.574,85.723,45.574L85.723,45.574z M95.282,39.382
		c1.836-2.449,2.293-5.507,2.293-8.49c0-6.729-3.213-19.575-12.695-19.575c-2.522,0-5.046,0.994-6.881,2.6
		c-2.98,2.676-3.518,6.042-3.518,9.329c0,7.571,3.748,20.034,12.999,20.034C90.461,43.281,93.524,41.828,95.282,39.382
		L95.282,39.382z"/>
	<path fill="#EF3E35" d="M45.042,45.574c-12.16,0-18.66-9.482-18.66-18.045c0-10.016,8.183-18.583,19.807-18.583
		c11.24,0,18.274,8.794,18.274,18.048C64.464,36.019,57.507,45.574,45.042,45.574L45.042,45.574z M54.599,39.382
		c1.836-2.449,2.294-5.507,2.294-8.49c0-6.729-3.211-19.575-12.692-19.575c-2.524,0-5.047,0.994-6.883,2.6
		c-2.982,2.676-3.517,6.042-3.517,9.329c0,7.571,3.747,20.034,13.001,20.034C49.783,43.281,52.84,41.828,54.599,39.382
		L54.599,39.382z"/>
	<path fill="#0075BF" d="M21.521,42.906L11.269,45.27c-4.157,0.647-7.886,1.22-11.829,1.22c-19.785,0-27.313-14.553-27.313-25.951
		c0-13.908,10.682-26.811,28.963-26.811c3.872,0,7.601,0.575,10.969,1.505c5.376,1.506,7.887,3.37,9.462,4.447l-5.95,5.663
		l-2.508,0.574l1.791-2.868C12.417,0.681,7.97-3.691-0.486-3.691c-11.329,0-19.859,8.603-19.859,21.148
		c0,13.476,9.751,26.167,25.378,26.167c4.589,0,6.955-0.931,9.104-1.792v-11.54L3.313,30.865l5.735-3.083h15.198l-1.863,1.793
		c-0.502,0.427-0.574,0.572-0.718,1.144c-0.071,0.646-0.143,2.725-0.143,3.441L21.521,42.906L21.521,42.906z"/>
</g>
</svg>
