<?xml version="1.0" encoding="utf-8"?>
<!-- Generator: Adobe Illustrator 16.0.0, SVG Export Plug-In . SVG Version: 6.00 Build 0)  -->
<!DOCTYPE svg PUBLIC "-//W3C//DTD SVG 1.1//EN" "http://www.w3.org/Graphics/SVG/1.1/DTD/svg11.dtd">
<svg version="1.1" id="Layer_1" xmlns="http://www.w3.org/2000/svg" xmlns:xlink="http://www.w3.org/1999/xlink" x="0px" y="0px"
	 width="230px" height="90px" viewBox="13.542 -6.071 230 90" enable-background="new 13.542 -6.071 230 90" xml:space="preserve">
<g>
	<path fill="#0063DB" d="M22.751,37.13h-9.21V25.79h9.471V22.91c0-13.949,6.343-18.81,18.855-18.81c3.389,0,5.996,0.541,7.994,0.9
		l-0.956,11.16c-1.303-0.45-2.606-0.721-4.952-0.721c-3.997,0-5.562,2.881-5.562,7.471v2.879h11.122v11.34H38.392v35.548H22.751
		V37.13z"/>
	<rect x="57.681" y="5.18" fill="#0063DB" width="15.64" height="67.497"/>
	<rect x="86.703" y="6.26" fill="#0063DB" width="15.64" height="11.879"/>
	<rect x="86.703" y="25.79" fill="#0063DB" width="15.64" height="46.888"/>
	<path fill="#0063DB" d="M149.351,39.198c-2.867-1.799-5.735-2.609-9.471-2.609c-6.778,0-11.992,4.859-11.992,12.959
		c0,7.471,6.083,12.328,12.861,12.328c3.561,0,7.124-0.809,9.731-2.25l0.349,12.059c-3.911,1.352-8.603,2.071-12.773,2.071
		c-14.946,0-26.329-9.001-26.329-24.479c0-15.568,11.383-24.569,26.329-24.569c4.691,0,8.862,0.81,12.426,2.61L149.351,39.198z"/>
	<polygon fill="#0063DB" points="157.347,5.18 172.986,5.18 172.986,45.5 173.161,45.5 186.194,25.79 203.311,25.79 187.583,47.299 
		204.615,72.677 185.671,72.677 173.161,49.459 172.986,49.459 172.986,72.677 157.347,72.677 	"/>
	<path fill="#FF0084" d="M242.758,38.749c-1.736-0.54-3.476-0.54-5.3-0.54c-7.299,0-11.382,5.491-11.382,14.669v19.799h-15.641
		V25.79h14.249v8.64h0.175c2.693-5.94,6.604-9.72,13.382-9.72c1.822,0,3.734,0.27,5.3,0.541L242.758,38.749z"/>
</g>
</svg>
