<?xml version="1.0" encoding="utf-8"?>
<!-- Generator: Adobe Illustrator 16.0.0, SVG Export Plug-In . SVG Version: 6.00 Build 0)  -->
<!DOCTYPE svg PUBLIC "-//W3C//DTD SVG 1.1//EN" "http://www.w3.org/Graphics/SVG/1.1/DTD/svg11.dtd">
<svg version="1.1" id="Layer_1" xmlns="http://www.w3.org/2000/svg" xmlns:xlink="http://www.w3.org/1999/xlink" x="0px" y="0px"
	 width="638.848px" height="195.633px" viewBox="0 0 638.848 195.633" enable-background="new 0 0 638.848 195.633"
	 xml:space="preserve">
<g>
	<g>
		<polygon fill="#F7931E" points="96,15.633 96,175.572 96,195.633 128,180.572 128,0 		"/>
	</g>
	<polyline fill="#B3B3B3" points="206.822,68.433 211.239,114.297 149.356,100.833 	"/>
	<g>
		<g>
			<path fill="#B3B3B3" d="M133.617,59.21v20.317c13.399,2.319,25.385,6.728,34.951,12.64l22.627-13.984
				C175.775,68.652,155.873,61.9,133.617,59.21z M32,127.125c0-22.674,24.707-41.769,58.383-47.598V59.202
				C38.873,65.428,0,93.469,0,127.125c0,34.869,41.725,63.709,96,68.508v-20.061C59.484,170.994,32,151.044,32,127.125z"/>
		</g>
	</g>
</g>
<g>
	<path fill="#F7931E" d="M247.216,100.333c1.774-5.574,4.438-10.508,7.99-14.803c3.55-4.293,7.969-7.721,13.255-10.282
		c5.284-2.559,11.438-3.84,18.458-3.84c7.019,0,13.172,1.282,18.457,3.84c5.285,2.561,9.704,5.989,13.256,10.282
		c3.55,4.295,6.213,9.229,7.99,14.803c1.774,5.575,2.663,11.378,2.663,17.405c0,6.029-0.889,11.83-2.663,17.404
		c-1.777,5.575-4.44,10.511-7.99,14.804c-3.552,4.295-7.971,7.701-13.256,10.219c-5.285,2.52-11.438,3.779-18.457,3.779
		c-7.02,0-13.173-1.26-18.458-3.779c-5.286-2.518-9.705-5.924-13.255-10.219c-3.552-4.293-6.215-9.229-7.99-14.804
		c-1.777-5.574-2.664-11.375-2.664-17.404C244.552,111.711,245.439,105.908,247.216,100.333z M258.055,130.931
		c1.155,4.336,2.973,8.238,5.451,11.707s5.655,6.256,9.538,8.361c3.881,2.105,8.505,3.158,13.875,3.158
		c5.368,0,9.991-1.053,13.875-3.158c3.881-2.105,7.061-4.893,9.538-8.361c2.479-3.469,4.294-7.371,5.451-11.707
		c1.156-4.335,1.734-8.733,1.734-13.192s-0.578-8.857-1.734-13.193c-1.157-4.336-2.973-8.238-5.451-11.706
		c-2.477-3.469-5.656-6.256-9.538-8.362c-3.883-2.106-8.507-3.159-13.875-3.159c-5.37,0-9.994,1.053-13.875,3.159
		c-3.883,2.105-7.061,4.893-9.538,8.362c-2.478,3.468-4.295,7.37-5.451,11.706c-1.158,4.336-1.734,8.734-1.734,13.193
		S256.897,126.596,258.055,130.931z"/>
	<path fill="#F7931E" d="M349.104,97.917v8.671h0.248c1.734-3.55,4.459-6.132,8.176-7.743c3.717-1.609,7.805-2.415,12.264-2.415
		c4.955,0,9.27,0.91,12.945,2.725c3.674,1.817,6.73,4.273,9.167,7.371c2.435,3.097,4.274,6.67,5.513,10.715
		c1.238,4.047,1.858,8.342,1.858,12.884c0,4.543-0.601,8.838-1.796,12.883c-1.199,4.047-3.017,7.578-5.451,10.592
		c-2.438,3.016-5.494,5.389-9.167,7.123c-3.676,1.734-7.95,2.602-12.821,2.602c-1.57,0-3.326-0.166-5.265-0.496
		c-1.942-0.332-3.862-0.867-5.761-1.611c-1.9-0.742-3.696-1.752-5.389-3.033c-1.693-1.281-3.117-2.869-4.273-4.77h-0.248v32.951
		h-10.529V97.917H349.104z M386.949,120.648c-0.786-2.849-1.981-5.389-3.593-7.617c-1.61-2.23-3.676-4.006-6.193-5.327
		c-2.521-1.32-5.473-1.981-8.857-1.981c-3.551,0-6.565,0.701-9.043,2.105s-4.502,3.242-6.07,5.512
		c-1.569,2.273-2.706,4.853-3.406,7.742c-0.703,2.893-1.053,5.822-1.053,8.796c0,3.139,0.371,6.174,1.114,9.105
		s1.921,5.512,3.53,7.742c1.611,2.229,3.695,4.025,6.256,5.389c2.559,1.361,5.656,2.043,9.291,2.043
		c3.633,0,6.668-0.701,9.105-2.105c2.435-1.404,4.397-3.262,5.884-5.574c1.487-2.313,2.56-4.955,3.221-7.928
		c0.66-2.973,0.991-6.027,0.991-9.168C388.125,126.409,387.733,123.498,386.949,120.648z"/>
	<path fill="#F7931E" d="M454.522,157.874c-4.791,3.635-10.82,5.451-18.086,5.451c-5.121,0-9.559-0.828-13.316-2.479
		c-3.759-1.65-6.918-3.963-9.477-6.938c-2.561-2.973-4.48-6.521-5.76-10.652c-1.282-4.129-2.004-8.629-2.168-13.503
		c0-4.871,0.742-9.331,2.229-13.379c1.487-4.045,3.572-7.557,6.257-10.529c2.683-2.973,5.862-5.283,9.538-6.938
		c3.674-1.651,7.699-2.477,12.078-2.477c5.697,0,10.426,1.176,14.184,3.531c3.756,2.354,6.771,5.348,9.043,8.981
		c2.27,3.635,3.84,7.599,4.709,11.891c0.865,4.296,1.217,8.384,1.053,12.265h-47.941c-0.084,2.809,0.248,5.473,0.99,7.99
		c0.744,2.52,1.941,4.75,3.594,6.689c1.65,1.941,3.758,3.49,6.316,4.645c2.561,1.158,5.576,1.734,9.045,1.734
		c4.459,0,8.111-1.031,10.963-3.096c2.848-2.064,4.725-5.203,5.635-9.416h10.406C462.407,148.831,459.309,154.241,454.522,157.874z
		 M451.983,116.747c-0.949-2.229-2.23-4.15-3.842-5.761c-1.609-1.61-3.51-2.89-5.697-3.84c-2.189-0.949-4.604-1.424-7.246-1.424
		c-2.725,0-5.184,0.475-7.369,1.424c-2.19,0.95-4.07,2.252-5.639,3.902c-1.57,1.652-2.809,3.572-3.717,5.76
		c-0.908,2.189-1.445,4.521-1.609,7h36.791C453.489,121.33,452.932,118.977,451.983,116.747z"/>
	<path fill="#F7931E" d="M481.899,97.917v10.159h0.246c4.377-7.762,11.314-11.645,20.813-11.645c4.211,0,7.721,0.579,10.529,1.735
		c2.807,1.156,5.078,2.768,6.814,4.83c1.732,2.066,2.951,4.521,3.652,7.371s1.053,6.008,1.053,9.477v42.118h-10.529v-43.356
		c0-3.965-1.156-7.102-3.467-9.415c-2.313-2.312-5.494-3.468-9.541-3.468c-3.219,0-6.008,0.494-8.361,1.485
		s-4.316,2.396-5.883,4.212c-1.57,1.817-2.748,3.945-3.531,6.38c-0.785,2.437-1.176,5.101-1.176,7.989v36.173h-10.529V97.917
		H481.899z"/>
	<path fill="#F7931E" d="M552.383,73.514v88.448h-13.008V73.514H552.383z"/>
	<path fill="#F7931E" d="M596.356,73.514c13.627,0,24.115,3.468,31.467,10.406c7.35,6.937,11.025,17.509,11.025,31.713
		c0,7.432-0.828,14.019-2.479,19.757c-1.652,5.742-4.211,10.572-7.68,14.494c-3.469,3.924-7.887,6.918-13.256,8.98
		c-5.369,2.066-11.727,3.098-19.078,3.098h-30.35V73.514H596.356z M597.348,152.052c1.322,0,2.975-0.104,4.955-0.311
		c1.982-0.205,4.09-0.699,6.318-1.486c2.23-0.783,4.439-1.92,6.627-3.406s4.152-3.51,5.883-6.07c1.736-2.559,3.16-5.76,4.275-9.6
		c1.115-3.841,1.672-8.485,1.672-13.937c0-5.284-0.518-10.012-1.547-14.184c-1.033-4.17-2.725-7.721-5.08-10.653
		c-2.354-2.931-5.387-5.16-9.104-6.689c-3.717-1.527-8.301-2.292-13.752-2.292h-19.82v68.628H597.348z"/>
</g>
<g>
</g>
<g>
</g>
<g>
</g>
<g>
</g>
<g>
</g>
<g>
</g>
<g>
</g>
<g>
</g>
<g>
</g>
<g>
</g>
</svg>
