<?xml version="1.0" encoding="utf-8"?>
<!-- Generator: Adobe Illustrator 16.0.0, SVG Export Plug-In . SVG Version: 6.00 Build 0)  -->
<!DOCTYPE svg PUBLIC "-//W3C//DTD SVG 1.1//EN" "http://www.w3.org/Graphics/SVG/1.1/DTD/svg11.dtd">
<svg version="1.1" id="Layer_1" xmlns="http://www.w3.org/2000/svg" xmlns:xlink="http://www.w3.org/1999/xlink" x="0px" y="0px"
	 width="230px" height="90px" viewBox="-14.298 17.499 230 90" enable-background="new -14.298 17.499 230 90" xml:space="preserve"
	>
<g>
	<path fill="#00749A" d="M93.482,92.889H86.01v0.793c2.337,0,2.713,0.501,2.713,3.466v5.343c0,2.964-0.375,3.507-2.713,3.507
		c-1.794-0.251-3.005-1.212-4.675-3.047l-1.92-2.087c2.588-0.46,3.965-2.087,3.965-3.925c0-2.295-1.961-4.049-5.635-4.049h-7.347
		v0.793c2.337,0,2.713,0.501,2.713,3.466v5.344c0,2.964-0.375,3.506-2.713,3.506v0.793h8.307v-0.793
		c-2.338,0-2.713-0.542-2.713-3.506v-1.503H76.7l4.634,5.802h12.147c5.969,0,8.557-3.171,8.557-6.971
		C102.039,96.019,99.451,92.889,93.482,92.889z M75.991,99.692v-5.551h1.711c1.878,0,2.713,1.294,2.713,2.796
		c0,1.461-0.835,2.755-2.713,2.755H75.991z M93.607,105.494h-0.292c-1.502,0-1.711-0.375-1.711-2.295v-9.058c0,0,1.837,0,2.004,0
		c4.341,0,5.135,3.171,5.135,5.635C98.741,102.322,97.948,105.494,93.607,105.494z"/>
	<path fill="#00749A" d="M47.147,101.237l2.88-8.516c0.835-2.463,0.46-3.173-2.211-3.173v-0.835h7.848v0.835
		c-2.629,0-3.255,0.626-4.3,3.674l-4.759,14.276h-0.542l-4.258-13.066l-4.34,13.065H36.92l-4.634-14.276
		c-1.002-3.047-1.67-3.673-4.091-3.673v-0.836h9.268v0.836c-2.463,0-3.132,0.584-2.254,3.171l2.796,8.517l4.216-12.524h0.794
		L47.147,101.237z"/>
	<path fill="#00749A" d="M61.339,107.331c-4.592,0-8.349-3.381-8.349-7.514c0-4.091,3.757-7.473,8.349-7.473
		s8.349,3.382,8.349,7.473C69.688,103.95,65.931,107.331,61.339,107.331z M61.339,93.641c-3.84,0-5.176,3.464-5.176,6.178
		c0,2.755,1.336,6.178,5.176,6.178c3.882,0,5.217-3.423,5.217-6.178C66.556,97.104,65.221,93.641,61.339,93.641z"/>
	<path fill="#464342" d="M112.349,105.954v0.834h-9.559v-0.834c2.797,0,3.297-0.709,3.297-4.884v-6.679
		c0-4.175-0.5-4.843-3.297-4.843v-0.835h8.641c4.3,0,6.679,2.213,6.679,5.178c0,2.88-2.379,5.134-6.679,5.134h-2.38v2.045
		C109.051,105.245,109.552,105.954,112.349,105.954z M111.431,90.217h-2.38v7.264h2.38c2.338,0,3.423-1.629,3.423-3.589
		C114.853,91.888,113.769,90.217,111.431,90.217z"/>
	<path fill="#464342" d="M146.786,102.864l-0.208,0.753c-0.376,1.377-0.835,1.877-3.799,1.877h-0.585
		c-2.171,0-2.546-0.5-2.546-3.465v-1.92c3.255,0,3.507,0.291,3.507,2.463h0.793v-6.22h-0.793c0,2.171-0.252,2.462-3.507,2.462
		v-4.674h2.295c2.964,0,3.423,0.5,3.799,1.878l0.209,0.792h0.668l-0.292-3.923h-12.273v0.794c2.338,0,2.714,0.5,2.714,3.465v5.344
		c0,2.712-0.318,3.394-2.162,3.492c-1.752-0.269-2.955-1.224-4.601-3.033l-1.92-2.087c2.589-0.46,3.967-2.087,3.967-3.925
		c0-2.295-1.962-4.048-5.636-4.048h-7.347v0.793c2.338,0,2.714,0.5,2.714,3.466v5.343c0,2.964-0.375,3.507-2.714,3.507v0.793h8.307
		v-0.793c-2.337,0-2.713-0.543-2.713-3.507v-1.503h0.709l4.633,5.803h17.157l0.251-3.924h-0.627V102.864z M124.663,99.692v-5.551
		h1.711c1.878,0,2.714,1.294,2.714,2.796c0,1.461-0.835,2.755-2.714,2.755H124.663z"/>
	<path fill="#464342" d="M155.261,107.331c-1.67,0-3.132-0.876-3.757-1.419c-0.209,0.209-0.585,0.835-0.668,1.419h-0.794v-5.76
		h0.834c0.334,2.755,2.255,4.383,4.718,4.383c1.335,0,2.421-0.751,2.421-2.004c0-1.086-0.961-1.92-2.671-2.713l-2.38-1.128
		c-1.67-0.793-2.923-2.17-2.923-4.006c0-2.004,1.878-3.716,4.467-3.716c1.378,0,2.546,0.501,3.256,1.086
		c0.209-0.167,0.416-0.627,0.543-1.127h0.793v4.926h-0.877c-0.292-1.962-1.377-3.59-3.59-3.59c-1.169,0-2.255,0.669-2.255,1.712
		c0,1.086,0.877,1.669,2.881,2.588l2.296,1.128c2.003,0.959,2.797,2.504,2.797,3.756
		C160.354,105.494,158.056,107.331,155.261,107.331z"/>
	<path fill="#464342" d="M168.117,107.331c-1.67,0-3.133-0.876-3.758-1.419c-0.208,0.209-0.585,0.835-0.668,1.419h-0.794v-5.76
		h0.836c0.334,2.755,2.253,4.383,4.717,4.383c1.335,0,2.421-0.751,2.421-2.004c0-1.086-0.96-1.92-2.672-2.713l-2.38-1.128
		c-1.669-0.793-2.922-2.17-2.922-4.006c0-2.004,1.878-3.716,4.467-3.716c1.377,0,2.545,0.501,3.256,1.086
		c0.208-0.167,0.417-0.627,0.542-1.127h0.794v4.926h-0.878c-0.291-1.962-1.377-3.59-3.589-3.59c-1.169,0-2.254,0.669-2.254,1.712
		c0,1.086,0.876,1.669,2.881,2.588l2.295,1.128c2.004,0.959,2.797,2.504,2.797,3.756
		C173.209,105.494,170.914,107.331,168.117,107.331z"/>
	<g>
		<path fill="#464342" d="M73.59,48.936c0,10.675,6.204,19.901,15.2,24.272L75.925,37.96C74.429,41.315,73.59,45.026,73.59,48.936z"
			/>
		<path fill="#464342" d="M118.766,47.575c0-3.333-1.197-5.641-2.224-7.438c-1.367-2.221-2.649-4.104-2.649-6.325
			c0-2.479,1.88-4.787,4.528-4.787c0.12,0,0.232,0.015,0.35,0.021c-4.798-4.396-11.19-7.08-18.212-7.08
			c-9.422,0-17.711,4.834-22.533,12.156c0.633,0.02,1.229,0.033,1.736,0.033c2.82,0,7.187-0.343,7.187-0.343
			c1.454-0.086,1.625,2.05,0.173,2.221c0,0-1.462,0.172-3.087,0.257l9.821,29.213l5.903-17.701l-4.202-11.512
			c-1.452-0.085-2.828-0.257-2.828-0.257c-1.453-0.085-1.283-2.307,0.17-2.221c0,0,4.454,0.343,7.104,0.343
			c2.821,0,7.188-0.343,7.188-0.343c1.454-0.086,1.625,2.05,0.173,2.221c0,0-1.464,0.172-3.087,0.257l9.746,28.991l2.689-8.989
			C117.878,52.563,118.766,49.884,118.766,47.575z"/>
		<path fill="#464342" d="M101.033,51.295L92.941,74.81c2.415,0.709,4.971,1.098,7.618,1.098c3.14,0,6.153-0.543,8.956-1.528
			c-0.072-0.115-0.138-0.238-0.192-0.372L101.033,51.295z"/>
		<path fill="#464342" d="M124.224,35.998c0.116,0.859,0.182,1.781,0.182,2.773c0,2.736-0.511,5.813-2.051,9.66l-8.237,23.818
			c8.018-4.676,13.411-13.363,13.411-23.312C127.529,44.248,126.331,39.839,124.224,35.998z"/>
		<path fill="#464342" d="M100.559,17.499c-17.335,0-31.438,14.103-31.438,31.437c0,17.337,14.103,31.44,31.438,31.44
			c17.333,0,31.44-14.103,31.44-31.44C131.999,31.602,117.893,17.499,100.559,17.499z M100.559,78.935
			c-16.539,0-29.996-13.457-29.996-29.999c0-16.54,13.457-29.996,29.996-29.996c16.54,0,29.996,13.456,29.996,29.996
			C130.555,65.478,117.099,78.935,100.559,78.935z"/>
	</g>
</g>
</svg>
