<?xml version="1.0" encoding="utf-8"?>
<!-- Generator: Adobe Illustrator 15.0.0, SVG Export Plug-In . SVG Version: 6.00 Build 0)  -->
<!DOCTYPE svg PUBLIC "-//W3C//DTD SVG 1.1//EN" "http://www.w3.org/Graphics/SVG/1.1/DTD/svg11.dtd">
<svg version="1.1" id="Layer_1" xmlns="http://www.w3.org/2000/svg" xmlns:xlink="http://www.w3.org/1999/xlink" x="0px" y="0px"
	 width="20px" height="20px" viewBox="0 0 20 20" enable-background="new 0 0 20 20" xml:space="preserve">
<g>
	<g>
		<circle fill-rule="evenodd" clip-rule="evenodd" fill="#CDB8AB" cx="10" cy="10" r="9.506"/>
		<path fill="#553E31" d="M10,20C4.485,20,0,15.514,0,10S4.485,0,10,0c5.514,0,10,4.486,10,10S15.514,20,10,20z M10,0.987
			c-4.97,0-9.013,4.044-9.013,9.013S5.03,19.013,10,19.013c4.969,0,9.012-4.044,9.012-9.013S14.969,0.987,10,0.987z"/>
	</g>
	<g>
		<path fill="#553E31" d="M11.074,4.167v4.779h4.582v2.041h-4.582v4.846H8.926v-4.846H4.343V8.946h4.583V4.167H11.074z"/>
	</g>
</g>
</svg>
