<?xml version="1.0" encoding="utf-8"?>
<!-- Generator: Adobe Illustrator 15.0.0, SVG Export Plug-In . SVG Version: 6.00 Build 0)  -->
<!DOCTYPE svg PUBLIC "-//W3C//DTD SVG 1.1//EN" "http://www.w3.org/Graphics/SVG/1.1/DTD/svg11.dtd">
<svg version="1.1" id="Layer_1" xmlns="http://www.w3.org/2000/svg" xmlns:xlink="http://www.w3.org/1999/xlink" x="0px" y="0px"
	 width="272.361px" height="209.5px" viewBox="0 0 272.361 209.5" enable-background="new 0 0 272.361 209.5" xml:space="preserve">
<g>
	<path fill="#FFFFFF" stroke="#553E31" stroke-width="5" stroke-miterlimit="10" d="M185.734,24.592
		c-1.488,0-2.941,0.148-4.348,0.428C176.314,11.849,163.541,2.5,148.58,2.5c-13.321,0-24.91,7.41-30.871,18.333
		c-4.112-2.702-9.03-4.274-14.318-4.274c-14.419,0-26.108,11.689-26.108,26.108s11.689,26.108,26.108,26.108
		c1.365,0,2.707-0.105,4.017-0.307v65.167c0,0,5.021,10.043,33.137,10.043c28.119,0,35.146-10.043,35.146-10.043V66.367
		c3.014,1.539,6.426,2.408,10.043,2.408c12.201,0,22.092-9.891,22.092-22.092S197.935,24.592,185.734,24.592z"/>
	<path fill="#553E31" d="M91.824,45.132c-0.478-10.85,4.646-15.919,16.291-15.919c2.499,0,7.103,1.434,9.238,2.403
		c-3.099-4.089-8.007-6.731-13.533-6.731c-9.374,0-16.971,7.598-16.971,16.971c0,6.873,4.088,12.793,9.964,15.461
		C94.656,54.471,91.994,48.975,91.824,45.132z"/>
	<path fill="#553E31" d="M154.531,15.006c3.891,0,7.912,1.842,11.119,3.559c-4.189-4.845-10.381-7.911-17.287-7.911
		c-11.997,0-21.833,9.245-22.772,20.999c2.392,2.053,3.365,2.679,5.359,5.223C130.996,21.884,140.503,15.006,154.531,15.006z"/>
	<path fill="#553E31" d="M185.941,32.625c-3.1,0-5.969,0.985-8.314,2.656c1.545,2.658,2.242,2.998,2.863,5.982
		c2.607-3.609,5.918-4.909,10.711-4.909c1.879,0,4.938,1.854,6.584,2.509C195.195,35.096,190.857,32.625,185.941,32.625z"/>
	<g>
		<polygon fill="#553E31" points="121.541,113.75 117.45,114.083 117.45,63.705 121.541,60.742 		"/>
	</g>
	<path fill-rule="evenodd" clip-rule="evenodd" fill="#F9D438" stroke="#553E31" stroke-width="4" stroke-miterlimit="10" d="
		M175.976,77.002c0.063,3.507-0.043,5.953,0.258,8.921c14.789,0.619,24.725,3.582,25.432,8.445
		c1.195,8.21-24.385,18.727-57.133,23.487c-32.747,4.762-60.262,1.965-61.456-6.244c-0.742-5.104,9.292-11.279,24.524-16.227
		c-0.063-3.125-0.313-7-0.188-10.938c-33.565,8.053-58.226,21.185-56.712,31.592c1.89,13,41.692,17.975,88.9,11.109
		c47.207-6.863,83.945-22.965,82.055-35.965C220.378,82.393,202.498,77.271,175.976,77.002z"/>
</g>
<g>
	<path fill="#553E31" d="M45.8,201.474c-1.625,0-3.227,0.018-4.804,0.047c-1.578,0.031-3.164,0-4.757-0.094
		c-0.188,0-0.336-0.053-0.445-0.164c-0.11-0.109-0.133-0.24-0.07-0.398c0.125-0.404,0.195-0.803,0.211-1.195
		c0.015-0.389,0.023-0.787,0.023-1.193c0-2.25-0.11-4.617-0.328-7.102c-0.219-2.482-0.469-4.85-0.75-7.1
		c-0.094-0.688-0.172-1.297-0.234-1.828c-0.063-0.531-0.125-1.055-0.187-1.57c-0.063-0.516-0.125-1.037-0.188-1.568
		c-0.063-0.531-0.125-1.141-0.188-1.828c-1.406,2.717-2.765,5.451-4.078,8.201c-1.312,2.75-2.625,5.514-3.937,8.295
		c-0.563,1.188-1.125,2.383-1.687,3.586c-0.563,1.203-1.141,2.412-1.734,3.631c-0.094,0.158-0.234,0.234-0.421,0.234
		c-0.188,0-0.36-0.063-0.516-0.188c-1.938-2.623-3.602-5.342-4.991-8.154c-1.391-2.813-2.742-5.67-4.054-8.576
		c-0.344-0.719-0.632-1.352-0.867-1.898s-0.461-1.07-0.68-1.57c-0.219-0.498-0.453-1.014-0.703-1.547
		c-0.25-0.529-0.562-1.139-0.937-1.826c-0.063,0.875-0.149,1.75-0.258,2.623c-0.11,0.875-0.227,1.734-0.352,2.578
		c-0.313,2.156-0.594,4.352-0.844,6.584c-0.25,2.234-0.375,4.43-0.375,6.586v1.359c0,0.531,0.007,0.938,0.023,1.219
		c0.016,0.281,0.063,0.5,0.141,0.654c0.078,0.158,0.195,0.281,0.352,0.375c0.156,0.094,0.391,0.205,0.703,0.328H8.823
		c0.25,0.094,0.523,0.205,0.82,0.328c0.296,0.125,0.648,0.281,1.054,0.469c0.25,0.094,0.352,0.242,0.305,0.445
		c-0.047,0.205-0.227,0.305-0.539,0.305c-1.593,0-3.195,0.016-4.804,0.047c-1.609,0.031-3.21,0-4.804-0.094
		c-0.25-0.029-0.398-0.133-0.445-0.305c-0.047-0.17,0.007-0.32,0.164-0.445c0,0.031,0.164,0.018,0.492-0.047
		c0.328-0.063,0.57-0.109,0.727-0.141c0.343-0.063,0.648-0.133,0.914-0.211c0.265-0.076,0.492-0.318,0.68-0.727
		c0.094-0.217,0.227-0.818,0.398-1.803c0.171-0.984,0.352-2.227,0.539-3.727s0.39-3.18,0.609-5.037
		c0.218-1.859,0.429-3.758,0.632-5.695c0.203-1.938,0.406-3.85,0.609-5.74c0.203-1.891,0.382-3.633,0.539-5.227
		c0.156-1.406,0.289-2.631,0.398-3.678c0.109-1.047,0.195-1.805,0.258-2.273c0.031-0.188,0.141-0.313,0.328-0.375
		c0.188-0.063,0.375-0.016,0.563,0.141c0.312,0.281,0.718,0.836,1.219,1.664c0.5,0.828,1.062,1.82,1.687,2.975
		c0.625,1.156,1.296,2.453,2.015,3.891c0.718,1.438,1.453,2.922,2.203,4.453c0.75,1.529,1.5,3.061,2.25,4.592
		c0.75,1.531,1.453,2.984,2.109,4.359c0.78,1.625,1.39,2.912,1.828,3.865c0.437,0.953,0.827,1.742,1.171,2.367
		c0.812-1.656,1.594-3.281,2.343-4.875c0.75-1.592,1.5-3.217,2.25-4.873c0.625-1.406,1.266-2.795,1.922-4.172
		c0.656-1.373,1.312-2.779,1.968-4.217l0.937-2.063c0.625-1.313,1.266-2.641,1.922-3.984c0.656-1.342,1.406-2.654,2.25-3.936
		c0.156-0.156,0.352-0.219,0.586-0.188c0.234,0.031,0.367,0.156,0.398,0.375c0.25,2.063,0.492,4.133,0.727,6.209
		c0.234,2.078,0.46,4.148,0.68,6.211c0.031,0.344,0.07,0.805,0.117,1.381c0.047,0.58,0.101,1.213,0.164,1.898
		c0.062,0.906,0.141,1.898,0.234,2.977s0.203,2.172,0.328,3.281c0.125,1.109,0.25,2.201,0.375,3.279
		c0.125,1.078,0.265,2.078,0.422,3c0.156,0.922,0.32,1.727,0.492,2.414c0.171,0.688,0.352,1.188,0.539,1.5
		c0.375,0.625,0.789,1.023,1.242,1.193c0.453,0.174,0.929,0.305,1.43,0.398c0.281,0.064,0.585,0.135,0.914,0.211
		c0.328,0.078,0.664,0.195,1.008,0.352L45.8,201.474z"/>
	<path fill="#553E31" d="M74.154,199.505c-1.094,0-2.078-0.17-2.953-0.514c-0.875-0.344-1.671-0.797-2.39-1.359
		s-1.39-1.203-2.015-1.922s-1.234-1.453-1.828-2.203c-0.532-0.688-1.063-1.344-1.593-1.969c-0.532-0.625-1.094-1.186-1.688-1.688
		c-0.531-0.469-1.211-0.756-2.039-0.865c-0.828-0.109-1.586-0.164-2.273-0.164c-0.25,0-0.415-0.008-0.492-0.023
		c-0.078-0.016-0.242-0.008-0.492,0.023v6.186c0,0.125,0.023,0.32,0.07,0.586s0.101,0.547,0.164,0.844
		c0.063,0.297,0.133,0.563,0.211,0.797c0.078,0.234,0.148,0.367,0.211,0.398c0.094,0.063,0.234,0.094,0.422,0.094
		c0.218,0,0.406,0.016,0.563,0.047c0.281,0.031,0.57,0.07,0.867,0.117s0.57,0.164,0.82,0.352c0.25,0.125,0.328,0.281,0.234,0.469
		s-0.281,0.281-0.563,0.281c-1.593,0-3.179-0.008-4.757-0.023c-1.578-0.016-3.163-0.07-4.757-0.164
		c-0.281-0.031-0.43-0.164-0.445-0.398c-0.016-0.234,0.117-0.383,0.398-0.445c0.5-0.063,0.898-0.133,1.195-0.211
		c0.296-0.078,0.522-0.211,0.679-0.398c0.156-0.188,0.258-0.461,0.305-0.82s0.07-0.836,0.07-1.43v-19.027
		c0-0.75-0.164-1.203-0.492-1.359c-0.328-0.156-0.664-0.25-1.007-0.281c-0.344-0.031-0.641-0.078-0.891-0.141
		c-0.25-0.063-0.453-0.219-0.609-0.469c-0.125-0.156-0.14-0.297-0.046-0.422c0.093-0.125,0.265-0.188,0.515-0.188h0.703
		c0.343,0,0.703,0,1.078,0c0.375,0,0.75,0.016,1.125,0.047c0.5,0.031,0.968,0.047,1.406,0.047c0.437,0,0.906,0,1.406,0h0.984
		c0.312,0,0.616-0.008,0.914-0.023c0.297-0.016,0.617-0.023,0.961-0.023c1.155,0,2.367,0.063,3.632,0.188
		c1.266,0.125,2.414,0.406,3.445,0.844c1.031,0.438,1.882,1.078,2.554,1.922c0.671,0.844,1.007,1.984,1.007,3.42
		c0,0.721-0.133,1.438-0.398,2.156c-0.266,0.719-0.609,1.406-1.031,2.063s-0.891,1.273-1.406,1.852
		c-0.516,0.578-1.039,1.102-1.57,1.57c0.469,0.469,0.929,0.961,1.383,1.477c0.453,0.514,0.914,1.053,1.382,1.615
		c0.75,0.908,1.547,1.828,2.39,2.766c0.844,0.938,1.718,1.781,2.625,2.531c0.906,0.75,1.828,1.352,2.765,1.805
		s1.875,0.617,2.812,0.492l0.281,0.797C76.809,199.257,75.528,199.505,74.154,199.505z M63.96,178.863
		c-0.266-0.797-0.656-1.492-1.171-2.086s-1.133-1.07-1.851-1.43c-0.719-0.359-1.516-0.539-2.39-0.539
		c-0.75,0-1.469,0.094-2.156,0.281v11.295c0.531,0.063,1.085,0.109,1.664,0.141c0.578,0.031,1.132,0.047,1.664,0.047
		c1.531,0,2.687-0.469,3.468-1.406c0.78-0.938,1.171-2.203,1.171-3.797C64.359,180.496,64.226,179.658,63.96,178.863z"/>
	<path fill="#553E31" d="M85.846,197.164c-0.172,0.281-0.391,0.531-0.656,0.75c-0.266,0.219-0.562,0.391-0.89,0.516
		s-0.649,0.188-0.961,0.188c-0.719,0-1.273-0.305-1.664-0.914c-0.391-0.609-0.586-1.211-0.586-1.805
		c0-0.625,0.211-1.172,0.633-1.641s1.007-0.703,1.757-0.703c0.718,0,1.336,0.289,1.851,0.867c0.516,0.578,0.773,1.18,0.773,1.805
		C86.104,196.57,86.017,196.882,85.846,197.164z"/>
	<path fill="#553E31" d="M136.733,202.271c-1.469,0-2.945-0.398-4.429-1.195c-1.484-0.797-2.953-1.818-4.405-3.068
		c-1.453-1.25-2.882-2.633-4.288-4.148c-1.406-1.516-2.75-2.992-4.031-4.43c-0.813-0.904-1.563-1.756-2.25-2.553
		c-0.688-0.797-1.359-1.508-2.015-2.133v11.342c0,0.938,0.031,1.664,0.094,2.18c0.062,0.516,0.156,0.898,0.281,1.146
		c0.125,0.252,0.289,0.408,0.492,0.469c0.203,0.064,0.429,0.111,0.679,0.141c0.344,0.064,0.703,0.117,1.078,0.164
		s0.781,0.195,1.218,0.445c0.25,0.094,0.328,0.242,0.234,0.445c-0.094,0.205-0.266,0.305-0.515,0.305
		c-1.875,0-3.75,0.041-5.624,0.117c-1.875,0.078-3.75,0.086-5.624,0.023c-0.313,0-0.477-0.123-0.492-0.375
		c-0.016-0.25,0.133-0.404,0.445-0.469c0.656-0.123,1.172-0.264,1.546-0.422c0.375-0.154,0.656-0.381,0.844-0.68
		c0.188-0.295,0.305-0.686,0.352-1.17s0.07-1.102,0.07-1.852v-26.059c0-0.529-0.055-0.943-0.164-1.24
		c-0.11-0.297-0.258-0.523-0.445-0.68s-0.398-0.258-0.633-0.305c-0.234-0.047-0.461-0.086-0.679-0.117
		c-0.375-0.063-0.711-0.133-1.008-0.211c-0.297-0.078-0.539-0.273-0.727-0.586c-0.125-0.156-0.14-0.289-0.047-0.398
		c0.094-0.109,0.265-0.164,0.516-0.164c1.812,0,3.624-0.023,5.437-0.07c1.812-0.047,3.624-0.008,5.437,0.117
		c0.312,0.031,0.469,0.172,0.469,0.422s-0.157,0.391-0.469,0.422c-0.75,0.063-1.391,0.391-1.921,0.984
		c-0.532,0.594-0.797,1.264-0.797,2.014c-0.032,1.688-0.032,3.469,0,5.344c0.031,1.875,0.062,3.719,0.094,5.529
		c0.531-0.625,1.155-1.313,1.875-2.063c0.718-0.748,1.328-1.373,1.828-1.873c0.156-0.156,0.352-0.359,0.586-0.609
		s0.46-0.469,0.68-0.656c0.593-0.563,1.265-1.18,2.015-1.852s1.445-1.359,2.085-2.063c0.64-0.703,1.179-1.389,1.617-2.063
		c0.437-0.67,0.656-1.271,0.656-1.803c0-0.438-0.094-0.828-0.281-1.172c-0.094-0.156-0.094-0.297,0-0.422s0.265-0.172,0.516-0.141
		c0.781,0.063,1.554,0.086,2.32,0.07c0.765-0.016,1.554-0.023,2.367-0.023c0.718,0,1.421-0.031,2.109-0.094
		c0.687-0.063,1.39-0.063,2.109,0c0.311,0.031,0.468,0.172,0.468,0.422s-0.157,0.391-0.468,0.422c-1,0.125-2.039,0.508-3.117,1.148
		c-1.078,0.641-2.164,1.438-3.257,2.389c-1.094,0.953-2.179,2-3.257,3.141c-1.078,1.141-2.117,2.258-3.116,3.352
		c-0.75,0.844-1.484,1.648-2.203,2.412c-0.719,0.768-1.391,1.447-2.016,2.039c0.563,0.531,1.179,1.188,1.852,1.969
		c0.671,0.781,1.398,1.578,2.179,2.391c1.312,1.438,2.742,2.969,4.288,4.592c1.546,1.625,3.101,3.125,4.663,4.5
		c1.562,1.375,3.093,2.516,4.593,3.422c1.5,0.906,2.843,1.342,4.03,1.311l0.281,0.797
		C139.576,201.88,138.201,202.271,136.733,202.271z"/>
	<path fill="#553E31" d="M165.345,174.714c-0.484,0.25-0.727,0.688-0.727,1.313v12.982c0,1.592-0.297,3.037-0.891,4.334
		s-1.398,2.406-2.414,3.328s-2.21,1.633-3.584,2.133c-1.376,0.5-2.828,0.748-4.359,0.748c-1.25,0-2.57-0.164-3.96-0.49
		c-1.391-0.328-2.671-0.828-3.843-1.5s-2.141-1.523-2.906-2.555s-1.148-2.25-1.148-3.656v0.047c0-0.281-0.023-0.545-0.07-0.797
		c-0.047-0.248-0.07-0.469-0.07-0.656v-13.871c0-0.781-0.195-1.25-0.586-1.406s-0.772-0.25-1.147-0.281
		c-0.375-0.063-0.696-0.109-0.961-0.141c-0.266-0.031-0.43-0.219-0.491-0.563c-0.063-0.313,0.123-0.469,0.562-0.469h1.453
		c2.562,0,5.14,0.094,7.733,0.281c0.28,0.031,0.421,0.172,0.421,0.422c0,0.219-0.141,0.344-0.421,0.375
		c-0.626,0.063-1.156,0.195-1.594,0.398c-0.438,0.203-0.656,0.648-0.656,1.336v7.357c0,1.25-0.008,2.492-0.023,3.727
		c-0.017,1.234-0.023,2.459-0.023,3.678c0,1.094,0.218,2.055,0.656,2.883c0.438,0.828,1.015,1.523,1.734,2.086
		c0.718,0.563,1.537,0.984,2.46,1.266c0.921,0.281,1.882,0.422,2.882,0.422s1.977-0.148,2.93-0.445
		c0.952-0.297,1.796-0.734,2.53-1.313c0.733-0.578,1.319-1.289,1.757-2.133s0.656-1.828,0.656-2.953c0-1.186,0-2.389,0-3.607
		s-0.016-2.438-0.047-3.656c-0.031-1.188-0.047-2.391-0.047-3.609c0-1.217,0-2.436,0-3.654c0-0.375-0.055-0.672-0.164-0.891
		s-0.242-0.383-0.398-0.492s-0.336-0.18-0.538-0.211c-0.204-0.031-0.398-0.063-0.586-0.094c-0.345-0.031-0.664-0.07-0.961-0.117
		c-0.298-0.047-0.477-0.242-0.539-0.586c-0.063-0.313,0.124-0.469,0.563-0.469c1.406,0,2.796,0.016,4.171,0.047
		s2.749,0.094,4.125,0.188l0.047,0.797C166.336,174.308,165.83,174.464,165.345,174.714z"/>
	<path fill="#553E31" d="M188.488,182.658c-0.469,1.016-1.094,1.898-1.874,2.648c-0.781,0.75-1.695,1.344-2.741,1.781
		c-1.048,0.438-2.133,0.656-3.258,0.656c-0.406,0-0.797-0.031-1.172-0.094s-0.734-0.125-1.078-0.188
		c-0.313-0.063-0.453-0.211-0.422-0.445s0.203-0.352,0.516-0.352h0.891c0.844,0,1.633-0.125,2.367-0.375
		c0.733-0.25,1.375-0.609,1.922-1.078c0.546-0.469,0.976-1.047,1.288-1.734c0.312-0.688,0.469-1.484,0.469-2.391
		c0-0.844-0.141-1.641-0.422-2.389c-0.28-0.75-0.672-1.406-1.171-1.969c-0.5-0.563-1.102-1.016-1.805-1.359s-1.477-0.516-2.32-0.516
		c-0.438,0-0.852,0.039-1.242,0.117s-0.773,0.18-1.147,0.305v19.684c0,0.094,0.023,0.273,0.07,0.539s0.108,0.539,0.187,0.82
		s0.148,0.547,0.211,0.797s0.125,0.406,0.188,0.469c0.156,0.063,0.359,0.102,0.609,0.117s0.453,0.039,0.609,0.07
		c0.375,0.063,0.711,0.117,1.008,0.164s0.508,0.195,0.633,0.445c0.094,0.156,0.094,0.297,0,0.422s-0.25,0.188-0.469,0.188
		c-1.594,0-3.18-0.016-4.757-0.047c-1.578-0.031-3.163-0.078-4.757-0.141c-0.313,0-0.477-0.125-0.492-0.375s0.133-0.406,0.445-0.469
		c0.5-0.094,0.898-0.18,1.195-0.258s0.523-0.219,0.68-0.422s0.258-0.477,0.305-0.82s0.07-0.813,0.07-1.406v-19.168
		c0-0.656-0.164-1.055-0.492-1.195s-0.664-0.227-1.008-0.258c-0.313-0.031-0.609-0.078-0.891-0.141s-0.5-0.219-0.656-0.469
		c-0.125-0.156-0.141-0.297-0.047-0.422s0.266-0.188,0.516-0.188h0.797h3c0.343,0,0.663,0.008,0.96,0.023s0.616,0.023,0.961,0.023
		h1.452c0.313,0,0.609-0.008,0.891-0.023s0.594-0.023,0.938-0.023c1.156,0,2.313,0.063,3.469,0.188
		c1.155,0.125,2.202,0.406,3.14,0.844s1.694,1.063,2.272,1.875s0.867,1.922,0.867,3.326
		C189.191,180.572,188.957,181.644,188.488,182.658z"/>
	<path fill="#553E31" d="M204.439,198.992c-0.563-0.031-1.118-0.031-1.664,0c-0.547,0.031-1.117,0.031-1.711,0l-1.781-0.047
		c-0.25,0-0.563,0.016-0.938,0.047s-0.773,0.063-1.194,0.092c-0.422,0.033-0.829,0.041-1.219,0.023
		c-0.392-0.014-0.696-0.068-0.914-0.162c-0.28-0.094-0.359-0.289-0.233-0.586c0.123-0.297,0.327-0.414,0.608-0.352
		c0.156,0.063,0.288,0.07,0.398,0.023c0.109-0.047,0.194-0.07,0.258-0.07c0.249,0,0.46-0.102,0.633-0.305
		c0.171-0.203,0.305-0.461,0.398-0.773s0.164-0.625,0.21-0.938c0.047-0.313,0.07-0.594,0.07-0.844v-19.074
		c0-0.625-0.257-1.07-0.772-1.336s-1.055-0.43-1.617-0.492c-0.313-0.031-0.461-0.164-0.444-0.398
		c0.015-0.234,0.179-0.367,0.491-0.398c0.75-0.063,1.5-0.063,2.249,0c0.75,0.063,1.484,0.094,2.203,0.094s1.422-0.031,2.109-0.094
		c0.687-0.063,1.39-0.063,2.109,0c0.281,0.031,0.429,0.156,0.445,0.375c0.015,0.219-0.117,0.359-0.398,0.422
		c-0.626,0.094-1.156,0.234-1.594,0.422s-0.656,0.656-0.656,1.406v18.934c0,0.125,0.023,0.313,0.07,0.563s0.102,0.516,0.164,0.797
		s0.141,0.547,0.234,0.797s0.172,0.422,0.234,0.516c0.094,0.031,0.234,0.063,0.422,0.094s0.358,0.047,0.516,0.047
		c0.343,0,0.647,0.023,0.914,0.07c0.265,0.047,0.522,0.18,0.772,0.398L204.439,198.992z"/>
	<path fill="#553E31" d="M236.759,192.101c-0.906,1.719-2.125,3.109-3.654,4.172c-1.531,1.063-3.313,1.828-5.344,2.297
		s-4.155,0.701-6.373,0.701c-0.906,0-1.82-0.023-2.742-0.07s-1.836-0.1-2.741-0.162c-1.001-0.063-2.047-0.125-3.14-0.188
		c-1.095-0.063-2.125-0.078-3.094-0.047c-0.313,0-0.484-0.125-0.516-0.375s0.109-0.406,0.422-0.469
		c0.938-0.156,1.539-0.438,1.805-0.844c0.265-0.406,0.398-1.141,0.398-2.203v-19.027c0-0.625-0.188-1.016-0.563-1.172
		s-0.75-0.266-1.125-0.328c-0.281-0.063-0.555-0.133-0.82-0.211s-0.445-0.211-0.539-0.398c-0.063-0.156-0.047-0.289,0.047-0.398
		s0.25-0.164,0.469-0.164c0.438,0,0.867,0.008,1.289,0.023s0.851,0.039,1.289,0.07c0.563,0.031,1.155,0.063,1.781,0.094
		c0.624,0.031,1.201,0.047,1.733,0.047c1.343,0,2.702-0.047,4.077-0.141c0.656-0.031,1.367-0.063,2.133-0.094
		c0.765-0.031,1.477-0.047,2.132-0.047c1.249,0,2.671,0.258,4.265,0.773s3.109,1.219,4.547,2.109
		c1.436,0.891,2.678,1.945,3.725,3.164c1.047,1.217,1.648,2.514,1.805,3.889c0.063,0.438,0.094,0.891,0.094,1.359
		c0,0.438,0,0.875,0,1.313C238.119,188.275,237.666,190.384,236.759,192.101z M232.707,181.814c-0.767-1.514-1.789-2.764-3.07-3.748
		s-2.766-1.727-4.452-2.227c-1.688-0.5-3.452-0.75-5.296-0.75c-0.625,0-1.25,0.031-1.875,0.094s-1.25,0.188-1.875,0.375v18.09
		c0,0.875,0.117,1.563,0.352,2.063s0.578,0.875,1.031,1.125s0.992,0.406,1.617,0.469s1.328,0.094,2.109,0.094
		c1.655,0,3.249-0.188,4.779-0.563c1.531-0.375,2.875-0.977,4.031-1.805c1.155-0.828,2.077-1.891,2.766-3.188
		c0.686-1.295,1.03-2.881,1.03-4.756C233.854,185.087,233.471,183.33,232.707,181.814z"/>
	<path fill="#553E31" d="M270.885,192.265c-0.922,1.578-2.125,2.898-3.608,3.961c-1.484,1.063-3.156,1.859-5.016,2.391
		s-3.725,0.795-5.6,0.795s-3.711-0.35-5.507-1.053c-1.798-0.703-3.382-1.664-4.757-2.883s-2.484-2.664-3.328-4.336
		c-0.844-1.67-1.265-3.475-1.265-5.412c0-2.125,0.46-4.014,1.382-5.672c0.922-1.654,2.125-3.053,3.609-4.193
		c1.483-1.141,3.17-2.008,5.061-2.602s3.82-0.891,5.789-0.891c1.937,0,3.787,0.391,5.553,1.172s3.32,1.828,4.664,3.141
		c1.342,1.313,2.413,2.844,3.21,4.592c0.796,1.75,1.194,3.594,1.194,5.531C272.267,188.869,271.806,190.689,270.885,192.265z
		 M267.277,182.048c-0.547-1.482-1.313-2.787-2.297-3.912s-2.172-2.016-3.562-2.672c-1.391-0.656-2.929-0.984-4.616-0.984
		c-1.563,0-3.008,0.25-4.336,0.75s-2.468,1.211-3.42,2.133c-0.954,0.922-1.695,2.031-2.227,3.326
		c-0.531,1.297-0.797,2.758-0.797,4.383c0,1.656,0.281,3.234,0.844,4.732c0.563,1.5,1.351,2.82,2.366,3.961
		c1.015,1.141,2.227,2.047,3.632,2.719c1.406,0.672,2.969,1.008,4.688,1.008c1.593,0,3.037-0.258,4.334-0.773
		s2.406-1.25,3.328-2.203s1.633-2.094,2.133-3.422c0.499-1.326,0.75-2.787,0.75-4.381
		C268.097,185.087,267.823,183.533,267.277,182.048z"/>
</g>
<rect y="206.603" fill-rule="evenodd" clip-rule="evenodd" fill="#553E31" width="272.361" height="2.896"/>
<rect y="158.628" fill-rule="evenodd" clip-rule="evenodd" fill="#553E31" width="272.361" height="2.896"/>
</svg>
