<?xml version="1.0" encoding="utf-8"?>
<!-- Generator: Adobe Illustrator 15.0.0, SVG Export Plug-In . SVG Version: 6.00 Build 0)  -->
<!DOCTYPE svg PUBLIC "-//W3C//DTD SVG 1.1//EN" "http://www.w3.org/Graphics/SVG/1.1/DTD/svg11.dtd">
<svg version="1.1" id="Layer_1" xmlns="http://www.w3.org/2000/svg" xmlns:xlink="http://www.w3.org/1999/xlink" x="0px" y="0px"
	 width="60px" height="60px" viewBox="0 0 60 60" enable-background="new 0 0 60 60" xml:space="preserve">
<g>
	<g>
		<g id="XMLID_3_">
			<g>
				<path fill="#EBE0D5" d="M30,9.061c11.548,0,20.94,9.393,20.94,20.939S41.548,50.939,30,50.939
					C18.455,50.939,9.063,41.547,9.063,30S18.455,9.061,30,9.061z"/>
				<path fill="#553E31" d="M46.092,44.664l0.546,0.545c-0.453,0.496-0.929,0.971-1.424,1.424l-0.546-0.546L46.092,44.664z"/>
				<path fill="#553E31" d="M8.256,28.188v3.625H7.524C7.477,31.214,7.452,30.61,7.452,30s0.024-1.214,0.072-1.813H8.256z"/>
				<path fill="#553E31" d="M31.814,57.928v1.065H28.19v-1.065c0.598,0.039,1.202,0.059,1.81,0.059
					C30.61,57.986,31.215,57.967,31.814,57.928z"/>
				<path fill="#553E31" d="M28.19,2.071c0.598-0.038,1.202-0.058,1.81-0.058c0.61,0,1.215,0.02,1.814,0.058v5.453
					C31.217,7.474,30.61,7.449,30,7.449c-0.609,0-1.214,0.024-1.81,0.073V2.071z"/>
				<path fill="#553E31" d="M31.814,7.524v0.73H28.19V7.522c0.596-0.049,1.2-0.073,1.81-0.073
					C30.61,7.449,31.217,7.474,31.814,7.524z"/>
				<path fill="#EBE0D5" d="M52.48,31.813h5.45c-0.427,6.64-3.179,12.656-7.447,17.242l-3.846-3.846
					C49.928,41.615,52.069,36.952,52.48,31.813z"/>
				<path fill="#553E31" d="M31.814,1.007v1.064C31.215,2.033,30.61,2.014,30,2.014c-0.607,0-1.212,0.02-1.81,0.058V1.007H31.814z"
					/>
				<path fill="#553E31" d="M2.074,28.188h5.45C7.477,28.786,7.452,29.39,7.452,30s0.024,1.214,0.072,1.813h-5.45
					C2.036,31.214,2.016,30.608,2.016,30S2.036,28.788,2.074,28.188z"/>
				<path fill="#EBE0D5" d="M28.19,2.071v5.451c-5.143,0.41-9.804,2.553-13.397,5.845L10.945,9.52
					C15.532,5.251,21.55,2.496,28.19,2.071z"/>
				<path fill="#553E31" d="M57.931,28.188c0.038,0.601,0.059,1.204,0.059,1.813s-0.021,1.214-0.059,1.813h-5.45
					c0.048-0.599,0.072-1.202,0.072-1.813s-0.024-1.214-0.072-1.813H57.931z"/>
				<path fill="#CDB8AB" d="M31.814,7.524V2.071c6.641,0.427,12.656,3.178,17.243,7.448l-3.844,3.848
					C41.62,10.077,36.959,7.933,31.814,7.524z"/>
				<path fill="#553E31" d="M52.48,28.188h-0.735v3.625h0.735c-0.411,5.14-2.553,9.803-5.843,13.396l-0.546-0.545l-1.424,1.423
					l0.546,0.546c-3.594,3.29-8.255,5.435-13.399,5.843v-0.73H28.19v0.732c-5.143-0.41-9.804-2.553-13.397-5.845l0.546-0.546
					l-1.424-1.423l-0.546,0.545c-3.292-3.594-5.434-8.257-5.845-13.396h0.731v-3.625H7.524c0.411-5.14,2.553-9.803,5.845-13.397
					l0.546,0.546l1.424-1.423l-0.546-0.546c3.594-3.292,8.255-5.435,13.397-5.845v0.732h3.624v-0.73
					c5.145,0.408,9.806,2.553,13.399,5.843l-0.546,0.546l1.424,1.423l0.546-0.546C49.928,18.385,52.069,23.048,52.48,28.188z
					 M50.94,30c0-11.547-9.393-20.939-20.94-20.939C18.455,9.061,9.063,18.453,9.063,30S18.455,50.939,30,50.939
					C41.548,50.939,50.94,41.547,50.94,30z"/>
				<path fill="#553E31" d="M31.814,52.476v5.452c-0.6,0.039-1.204,0.059-1.814,0.059c-0.607,0-1.212-0.02-1.81-0.059v-5.45
					c0.596,0.049,1.2,0.073,1.81,0.073C30.61,52.551,31.217,52.526,31.814,52.476z"/>
				<path fill="#553E31" d="M46.638,14.79l-0.546,0.546l-1.424-1.423l0.546-0.546C45.709,13.82,46.185,14.295,46.638,14.79z"/>
				<path fill="#553E31" d="M31.814,2.071V1.007H28.19v1.064C21.55,2.496,15.532,5.251,10.945,9.52l-0.732-0.733L8.789,10.21
					l0.732,0.732v0.003c-4.268,4.586-7.022,10.603-7.447,17.242H1.009v3.625h1.065c0.427,6.64,3.18,12.658,7.447,17.244L8.789,49.79
					l1.424,1.424l0.732-0.733h0.002c4.587,4.269,10.604,7.022,17.243,7.447v1.065h3.624v-1.065
					c6.641-0.427,12.656-3.179,17.243-7.447l0.732,0.733l1.426-1.424l-0.732-0.735c4.269-4.586,7.021-10.603,7.447-17.242h1.062
					v-3.625h-1.062c-0.425-6.64-3.179-12.656-7.447-17.242l0.732-0.735L49.79,8.786L49.058,9.52
					C44.471,5.249,38.455,2.498,31.814,2.071z M30,0c16.545,0,30.001,13.458,30.001,30S46.545,60,30,60C13.46,60,0,46.542,0,30
					S13.46,0,30,0z"/>
				<path fill="#553E31" d="M46.638,45.209l3.846,3.846c-0.459,0.491-0.935,0.967-1.426,1.426l-3.844-3.848
					C45.709,46.18,46.185,45.705,46.638,45.209z"/>
				<path fill="#EBE0D5" d="M45.214,46.633l3.844,3.848c-4.587,4.269-10.603,7.021-17.243,7.447v-5.452
					C36.959,52.067,41.62,49.923,45.214,46.633z"/>
				<path fill="#EBE0D5" d="M13.369,45.209l-3.848,3.848c-4.268-4.586-7.021-10.604-7.447-17.244h5.45
					C7.936,36.952,10.077,41.615,13.369,45.209z"/>
				<path fill="#553E31" d="M10.945,9.52l3.848,3.848c-0.495,0.451-0.973,0.928-1.424,1.423l-3.848-3.845v-0.003
					C9.98,10.451,10.454,9.979,10.945,9.52z"/>
				<path fill="#553E31" d="M10.945,50.48l-0.732,0.733L8.789,49.79l0.732-0.733C9.98,49.546,10.454,50.021,10.945,50.48z"/>
				<path fill="#553E31" d="M58.992,28.188v3.625h-1.062c0.038-0.599,0.059-1.204,0.059-1.813s-0.021-1.212-0.059-1.813H58.992z"/>
				<path fill="#EBE0D5" d="M57.931,28.188h-5.45c-0.411-5.14-2.553-9.803-5.843-13.397l3.846-3.845
					C54.752,15.531,57.506,21.548,57.931,28.188z"/>
				<path fill="#553E31" d="M31.814,51.745v0.73c-0.598,0.051-1.204,0.075-1.814,0.075c-0.609,0-1.214-0.024-1.81-0.073v-0.732
					H31.814z"/>
				<path fill="#EBE0D5" d="M9.521,10.945l3.848,3.845c-3.292,3.595-5.434,8.258-5.845,13.397h-5.45
					C2.499,21.548,5.254,15.531,9.521,10.945z"/>
				<path fill="#553E31" d="M15.339,46.087l-0.546,0.546c-0.495-0.451-0.973-0.928-1.424-1.424l0.546-0.545L15.339,46.087z"/>
				<path fill="#553E31" d="M15.339,13.913l-1.424,1.423l-0.546-0.546c0.451-0.495,0.929-0.972,1.424-1.423L15.339,13.913z"/>
				<path fill="#553E31" d="M14.793,46.633l-3.846,3.848h-0.002c-0.491-0.459-0.965-0.935-1.424-1.424l3.848-3.848
					C13.82,45.705,14.298,46.182,14.793,46.633z"/>
				<path fill="#553E31" d="M50.483,49.055l0.732,0.735l-1.426,1.424l-0.732-0.733C49.549,50.021,50.024,49.546,50.483,49.055z"/>
				<path fill="#553E31" d="M51.216,10.21l-0.732,0.735c-0.459-0.492-0.935-0.969-1.426-1.426l0.732-0.733L51.216,10.21z"/>
				<path fill="#553E31" d="M52.48,28.188c0.048,0.599,0.072,1.202,0.072,1.813s-0.024,1.214-0.072,1.813h-0.735v-3.625H52.48z"/>
				<path fill="#553E31" d="M10.213,8.786l0.732,0.733c-0.491,0.459-0.965,0.932-1.424,1.423L8.789,10.21L10.213,8.786z"/>
				<path fill="#EBE0D5" d="M28.19,52.478v5.45c-6.639-0.425-12.656-3.179-17.243-7.447l3.846-3.848
					C18.387,49.925,23.048,52.067,28.19,52.478z"/>
				<path fill="#553E31" d="M50.483,10.945l-3.846,3.845c-0.453-0.495-0.929-0.97-1.424-1.423l3.844-3.848
					C49.549,9.977,50.024,10.453,50.483,10.945z"/>
				<path fill="#553E31" d="M1.009,28.188h1.065C2.036,28.788,2.016,29.392,2.016,30s0.021,1.214,0.059,1.813H1.009V28.188z"/>
			</g>
			<g>
			</g>
		</g>
	</g>
</g>
</svg>
