<?xml version="1.0" encoding="utf-8"?>
<!-- Generator: Adobe Illustrator 15.0.0, SVG Export Plug-In . SVG Version: 6.00 Build 0)  -->
<!DOCTYPE svg PUBLIC "-//W3C//DTD SVG 1.1//EN" "http://www.w3.org/Graphics/SVG/1.1/DTD/svg11.dtd">
<svg version="1.1" id="Layer_1" xmlns="http://www.w3.org/2000/svg" xmlns:xlink="http://www.w3.org/1999/xlink" x="0px" y="0px"
	 width="60px" height="60px" viewBox="0 0 60 60" enable-background="new 0 0 60 60" xml:space="preserve">
<g>
	<defs>
		<path id="SVGID_1_" d="M30,9.061C18.455,9.061,9.061,18.453,9.061,30S18.455,50.939,30,50.939
			c11.547,0,20.939-9.393,20.939-20.939S41.547,9.061,30,9.061z"/>
	</defs>
	<clipPath id="SVGID_2_">
		<use xlink:href="#SVGID_1_"  overflow="visible"/>
	</clipPath>
	
		<path clip-path="url(#SVGID_2_)" fill="#CDB8AB" stroke="#553E31" stroke-width="0.7483" stroke-linecap="round" stroke-linejoin="round" stroke-miterlimit="10" d="
		M39.087,33.783c0,7.332-5.157,13.275-11.52,13.275c-6.361,0-11.519-5.943-11.519-13.275"/>
	
		<ellipse clip-path="url(#SVGID_2_)" fill="#EBE0D5" stroke="#553E31" stroke-width="0.7483" stroke-linecap="round" stroke-linejoin="round" stroke-miterlimit="10" cx="27.568" cy="33.805" rx="11.519" ry="6.948"/>
	
		<path clip-path="url(#SVGID_2_)" fill="#E4D7CD" stroke="#553E31" stroke-width="0.7483" stroke-linecap="round" stroke-linejoin="round" stroke-miterlimit="10" d="
		M21.183,39.564c1.84,0.75,4.057,1.188,6.444,1.188c2.413,0,4.652-0.448,6.503-1.214c-0.8-1.313-3.391-2.274-6.466-2.274
		C24.569,37.265,21.965,38.239,21.183,39.564z"/>
	<g clip-path="url(#SVGID_2_)">
		<path fill="#553E31" d="M33.172,34.504c-0.133,0-0.258-0.052-0.353-0.146c-0.19-0.194-0.189-0.509,0.003-0.701
			c0.226-0.2,0.388-0.408,0.488-0.621c0.1-0.21,0.133-0.438,0.097-0.658c-0.077-0.516-0.533-0.931-0.902-1.188
			c-0.413-0.289-0.935-0.526-1.596-0.725c-0.578-0.17-1.177-0.284-1.775-0.338c-0.372-0.034-0.746-0.051-1.12-0.051
			c-0.849,0-1.688,0.087-2.494,0.258c-0.227,0.047-0.446,0.101-0.661,0.161c0.188,0.065,0.34,0.213,0.407,0.407
			c0.112,0.325-0.046,0.687-0.36,0.825c-0.541,0.236-1.088,0.367-1.626,0.389l-0.171,0.004c-0.232,0-0.467-0.021-0.7-0.063
			c-0.147-0.027-0.293-0.063-0.439-0.11c-0.073-0.023-0.148-0.05-0.224-0.082l-0.106-0.045c-0.053-0.024-0.08-0.037-0.15-0.078
			c-0.23-0.146-0.357-0.369-0.366-0.613c-0.018-0.538,0.111-1.063,0.405-1.655c0.12-0.235,0.254-0.456,0.4-0.664
			c0.15-0.211,0.297-0.4,0.485-0.603c0.124-0.135,0.301-0.212,0.485-0.212c0.167,0,0.327,0.063,0.449,0.176
			c0.254,0.236,0.285,0.62,0.073,0.893c-0.075,0.097-0.148,0.2-0.217,0.306c0.012-0.005,0.022-0.009,0.033-0.014
			c0.616-0.231,1.275-0.397,2.019-0.508c0.599-0.083,1.207-0.125,1.81-0.125c0.743,0,1.493,0.063,2.229,0.189
			c1.605,0.282,2.812,0.746,3.796,1.459c0.328,0.244,0.586,0.495,0.79,0.771c0.262,0.353,0.422,0.718,0.479,1.086
			c0.064,0.391,0.003,0.82-0.172,1.209c-0.142,0.318-0.359,0.621-0.666,0.925C33.428,34.453,33.304,34.504,33.172,34.504
			L33.172,34.504z"/>
		<path fill="#EBE0D5" d="M22.898,28.213c0.107,0,0.216,0.039,0.301,0.118c0.17,0.158,0.188,0.417,0.049,0.597l-0.012,0.017
			c-0.114,0.146-0.236,0.327-0.337,0.502c-0.073,0.122-0.129,0.25-0.188,0.377c0.2-0.097,0.401-0.186,0.604-0.264
			c0.646-0.243,1.308-0.397,1.972-0.496c0.592-0.082,1.186-0.123,1.777-0.123c0.736,0,1.469,0.063,2.192,0.187
			c1.299,0.229,2.598,0.619,3.704,1.421c0.273,0.203,0.531,0.438,0.743,0.724c0.21,0.283,0.381,0.618,0.438,0.988
			c0.061,0.368-0.006,0.755-0.155,1.086c-0.148,0.335-0.374,0.615-0.62,0.858l-0.001,0.001c-0.054,0.054-0.124,0.08-0.194,0.08
			c-0.071,0-0.143-0.027-0.196-0.082c-0.107-0.109-0.106-0.283,0.002-0.392c0.004-0.003,0.008-0.008,0.012-0.011
			c0.22-0.194,0.401-0.423,0.52-0.672c0.118-0.25,0.158-0.523,0.115-0.787c-0.081-0.538-0.51-0.995-0.994-1.333
			c-0.492-0.345-1.069-0.578-1.657-0.755c-0.591-0.174-1.202-0.291-1.819-0.347c-0.379-0.034-0.76-0.052-1.14-0.052
			c-0.857,0-1.713,0.088-2.54,0.263c-0.597,0.125-1.18,0.299-1.725,0.526c-0.18,0.076-0.353,0.161-0.521,0.251
			c0.011,0.001,0.022,0.003,0.034,0.004c0.034,0.001,0.069,0.002,0.104,0.002c0.373,0,0.754-0.071,1.125-0.2l0.003-0.001
			c0.048-0.017,0.097-0.024,0.145-0.024c0.185,0,0.356,0.115,0.42,0.298c0.076,0.221-0.032,0.46-0.241,0.552
			c-0.477,0.208-1,0.349-1.547,0.371c-0.054,0.002-0.107,0.004-0.162,0.004c-0.219,0-0.441-0.02-0.661-0.06
			c-0.138-0.025-0.274-0.06-0.411-0.104c-0.068-0.021-0.137-0.046-0.206-0.075l-0.105-0.045c-0.04-0.019-0.063-0.029-0.125-0.065
			h-0.001l-0.02-0.013c-0.148-0.094-0.232-0.256-0.238-0.419c-0.019-0.586,0.16-1.102,0.383-1.55
			c0.114-0.225,0.243-0.436,0.384-0.636c0.144-0.202,0.285-0.385,0.466-0.579C22.66,28.261,22.779,28.213,22.898,28.213
			 M22.898,27.774c-0.245,0-0.481,0.104-0.647,0.283c-0.175,0.188-0.325,0.375-0.501,0.623c-0.158,0.226-0.299,0.457-0.417,0.69
			c-0.313,0.629-0.449,1.188-0.431,1.763c0.012,0.319,0.177,0.608,0.442,0.776c0.113,0.066,0.144,0.081,0.193,0.104l0.12,0.051
			c0.084,0.035,0.165,0.064,0.246,0.09c0.152,0.05,0.308,0.088,0.464,0.117c0.243,0.044,0.491,0.066,0.74,0.066
			c0.061,0,0.121-0.002,0.181-0.004c0.564-0.023,1.138-0.16,1.704-0.407c0.418-0.185,0.629-0.666,0.48-1.098
			c-0.03-0.086-0.072-0.165-0.125-0.235c0.071-0.017,0.143-0.032,0.215-0.047c0.793-0.168,1.617-0.253,2.45-0.253
			c0.365,0,0.736,0.017,1.101,0.049c0.585,0.053,1.168,0.164,1.734,0.331c0.636,0.19,1.137,0.418,1.529,0.693
			c0.473,0.329,0.761,0.698,0.813,1.039c0.029,0.182,0.002,0.364-0.078,0.534c-0.088,0.186-0.231,0.369-0.414,0.531
			c-0.308,0.306-0.31,0.759-0.035,1.038c0.137,0.138,0.316,0.213,0.509,0.213c0.189,0,0.368-0.073,0.503-0.207
			c0.327-0.323,0.561-0.648,0.714-0.993c0.191-0.425,0.258-0.899,0.187-1.335c-0.061-0.399-0.235-0.798-0.518-1.178
			c-0.218-0.294-0.49-0.56-0.834-0.815c-1.017-0.736-2.251-1.212-3.89-1.5c-0.751-0.129-1.514-0.193-2.269-0.193
			c-0.613,0-1.231,0.043-1.838,0.127c-0.54,0.08-1.036,0.189-1.504,0.33c0.122-0.332,0.04-0.701-0.226-0.949
			C23.333,27.857,23.121,27.774,22.898,27.774L22.898,27.774z"/>
	</g>
	<g clip-path="url(#SVGID_2_)">
		<path fill="#553E31" d="M26.521,38.794c-0.255,0-0.492-0.036-0.706-0.108c-1.024-0.342-2.07-1.451-1.647-3.448
			c0.342-1.619,1.599-2.222,2.35-2.581c0.143-0.068,0.269-0.128,0.368-0.187c0.568-0.331,0.951-1.096,0.954-1.104l6.063-13.089
			l0.204,0.223c0.036,0.04,0.89,0.994,0.379,2.105l-0.658,1.42c-1.375,2.958-4.235,9.115-4.541,9.947
			c-0.327,0.891-0.225,1.171,0.117,2.103l0.097,0.264c0.464,1.286-0.063,2.303-0.486,3.12C28.619,38.22,27.548,38.794,26.521,38.794
			L26.521,38.794z"/>
		<path fill="#EBE0D5" d="M33.958,18.636c0,0,0.806,0.883,0.345,1.886c-0.46,1.003-4.821,10.338-5.205,11.382
			c-0.384,1.043-0.206,1.346,0.213,2.504c0.419,1.16-0.012,2.064-0.476,2.959c-0.372,0.718-1.402,1.227-2.314,1.227
			c-0.226,0-0.443-0.031-0.643-0.098c-1.005-0.336-1.901-1.389-1.515-3.216c0.386-1.826,1.998-2.271,2.623-2.636
			c0.627-0.365,1.033-1.188,1.033-1.188L33.958,18.636 M33.848,17.918l-0.255,0.549l-5.938,12.819l0,0c0,0-0.359,0.712-0.87,1.01
			c-0.096,0.057-0.218,0.113-0.354,0.179c-0.784,0.376-2.097,1.005-2.46,2.722c-0.45,2.126,0.678,3.312,1.78,3.68
			c0.235,0.079,0.494,0.119,0.771,0.119c1.097,0,2.245-0.621,2.672-1.444c0.441-0.852,0.99-1.911,0.496-3.28l-0.097-0.265
			c-0.339-0.924-0.419-1.143-0.117-1.964c0.304-0.824,3.269-7.207,4.535-9.933c0.329-0.709,0.568-1.224,0.658-1.42
			c0.565-1.23-0.373-2.28-0.413-2.324L33.848,17.918L33.848,17.918z"/>
	</g>
	
		<path clip-path="url(#SVGID_2_)" fill="#CDB8AB" stroke="#553E31" stroke-width="0.7483" stroke-linecap="round" stroke-linejoin="round" stroke-miterlimit="10" d="
		M31.712,18.396c0,0-1.21,1.206-1.654,2.021"/>
	
		<path clip-path="url(#SVGID_2_)" fill="#CDB8AB" stroke="#553E31" stroke-width="0.7483" stroke-linecap="round" stroke-linejoin="round" stroke-miterlimit="10" d="
		M41.981,6.537c0,0-3.345,2.421-4.745,3.231c-1.401,0.811-2.896,1.575-3.58,2.137s-1.307,1.04-1.844,2.104
		c-0.345,0.448-0.47,0.695-0.686,1.166c-0.243,0.305-0.756,0.861-0.513,1.772c-0.254,0.851-0.671,2.721-0.557,3.469
		c-0.3,0.587-0.729,1.188-0.771,1.801c-0.04,0.612,0.107,0.655,0.018,1.074s-0.138,1.296,0.015,1.68
		c0.152,0.385,0.761,1.208,1.028,1.448c0.267,0.24,1.928-4.003,1.928-4.003s0.231-1.071,0.833-1.533s0.42-0.392,0.822-0.841
		c0.676,0.006,1.169-0.274,1.931-0.616c-0.81,0.204-1.536,0.966-1.938,1.291c-0.399,0.326-1.795,2.19-1.881,2.895
		c-0.087,0.705,0.163,1.422,0.701,1.529c0.538,0.106,0.616,0.023,0.844-0.318c0.227-0.343,2.387-2.797,3.346-3.382
		c0.96-0.588,0.558-0.315,1.161-0.723c0.604-0.408,1.027-1.351,1.446-1.795c0.418-0.445,1.029-1.118,1.424-2.676
		c0.395-1.557,1.757-3.252,2.87-3.935s5.637-2.52,7.355-3.021C46.758,7.966,41.981,6.537,41.981,6.537z"/>
</g>
</svg>
