<?xml version="1.0" encoding="utf-8"?>
<!-- Generator: Adobe Illustrator 16.0.0, SVG Export Plug-In . SVG Version: 6.00 Build 0)  -->
<!DOCTYPE svg PUBLIC "-//W3C//DTD SVG 1.1//EN" "http://www.w3.org/Graphics/SVG/1.1/DTD/svg11.dtd">
<svg version="1.1" id="Layer_1" xmlns="http://www.w3.org/2000/svg" xmlns:xlink="http://www.w3.org/1999/xlink" x="0px" y="0px"
	 width="60px" height="60px" viewBox="0 0 60 60" enable-background="new 0 0 60 60" xml:space="preserve">
<g>
	<defs>
		<path id="SVGID_13_" d="M29.999,53.5C17.041,53.5,6.5,42.958,6.5,30c0-12.96,10.541-23.5,23.499-23.5
			C42.958,6.5,53.5,17.04,53.5,30C53.5,42.958,42.958,53.5,29.999,53.5z"/>
	</defs>
	<clipPath id="SVGID_2_">
		<use xlink:href="#SVGID_13_"  overflow="visible"/>
	</clipPath>
	<rect x="0.625" y="0.625" clip-path="url(#SVGID_2_)" fill="#FFFCF5" width="58.75" height="58.75"/>
	<polygon clip-path="url(#SVGID_2_)" fill="#EBE0D5" stroke="#553E31" stroke-miterlimit="10" points="57.337,29.283 -2.229,42.502 
		17.682,66.164 52.831,59.046 	"/>
	
		<path clip-path="url(#SVGID_2_)" fill="#CDB8AB" stroke="#553E31" stroke-width="1.0365" stroke-linecap="round" stroke-linejoin="round" stroke-miterlimit="10" d="
		M19.022,42.691c4.314-0.423,8.375-1.878,12.597-2.79c4.821-1.042,12.131-2.978,15.609,1.829c1.065,1.476,2.209,3.521,0.973,5.218
		c-1.507,2.067-3.581,3.641-5.698,5.016c-1.966,1.278-4.206,3.036-6.588,3.239c-1.184,0.1-2.368-0.188-3.536-0.325
		c-4.481-0.529-8.781-0.393-13.172-1.72c-3.011-0.909-6.504-2.007-8.665-4.492C6.71,44.261,16.55,42.937,19.022,42.691z"/>
	
		<path clip-path="url(#SVGID_2_)" fill="#CDB8AB" stroke="#553E31" stroke-width="1.0365" stroke-linecap="round" stroke-linejoin="round" stroke-miterlimit="10" d="
		M53.984,0.661c0,0-6.438,3.326-8.084,4.232c0,0-3.955,2.28-5.274,3.014c-1.318,0.731-3.571,1.019-4.794,1.632
		s-3.531,2.071-4.233,2.354c-0.703,0.283-1.983,0.582-2.548,1.799c-0.568,1.217-1.443,3.358-1.919,4.206
		c-0.474,0.847-1.241,1.968-1.419,2.875c-0.111,0.503,0.071,0.899,0.047,0.992c-0.021,0.094-0.427,0.787-0.428,1.055
		c-0.004,0.27,0.375,1.296,0.72,1.648c0.005,0.601-0.209,1.676-0.11,2.426c0.099,0.748,0.411,1.787,0.864,2.438
		c0.45,0.649,1.067,1.337,1.455,1.688c0.386,0.351,0.543-0.029,0.738-0.184c0.194-0.157,0.381-1.781,0.302-2.273
		c-0.076-0.491-0.326-0.962-0.326-0.962s0.756-1.58,0.857-2.586c0.8-0.712,2.201-1.908,2.826-2.304
		c0.52-0.331,0.949-0.291,1.269-0.405c0.317-0.116,1.12-0.353,1.532-0.362c0.413-0.009,1.039-0.352,1.293-0.456
		c-0.809,0.295-1.442,0.833-1.863,1.012c0,0-1.135,0.57-1.744,1.004c-0.607,0.43-1.795,1.563-2.197,2.073
		c-0.399,0.51-1.437,2.013-1.52,2.758c-0.081,0.746-0.263,2.188-0.182,2.538c0.083,0.348,0.764,0.551,1.111,0.283
		c0.349-0.268,0.992-1.034,1.32-1.395c0.33-0.357,0.647-0.848,1.329-1.379c0.576-0.448,1.005-0.787,1.483-1.145
		c0.517-0.385,0.788-0.729,1.55-1.167c0.975-0.562,1.724-1.09,2.171-1.28c0.865-0.37,1.772-0.58,2.235-1.102
		c0.467-0.518,1.29-1.613,1.802-1.97c0.512-0.354,1.524-1.873,1.802-2.381s0.771-2.316,2.944-4.005
		c2.17-1.689,6.305-3.347,8.059-3.83c1.753-0.484,13.176-2.828,14.424-3.1C70.723,8.132,53.984,0.661,53.984,0.661z"/>
	
		<path clip-path="url(#SVGID_2_)" fill="#CDB8AB" stroke="#553E31" stroke-width="1.0365" stroke-linecap="round" stroke-linejoin="round" stroke-miterlimit="10" d="
		M29.004,16.768c0,0-2.285,2.854-3.195,4.94"/>
	
		<path clip-path="url(#SVGID_2_)" fill="#CDB8AB" stroke="#553E31" stroke-width="1.0365" stroke-linecap="round" stroke-linejoin="round" stroke-miterlimit="10" d="
		M30.21,17.986c0,0-2.967,3.746-3.408,4.216c-0.444,0.471-0.699,1.237-0.75,2.267"/>
	
		<path clip-path="url(#SVGID_2_)" fill="none" stroke="#553E31" stroke-width="0.75" stroke-linecap="round" stroke-linejoin="round" stroke-miterlimit="10" d="
		M27.832,34.496c0,0-0.295,0.897-0.058,1.707"/>
	
		<path clip-path="url(#SVGID_2_)" fill="none" stroke="#553E31" stroke-width="0.75" stroke-linecap="round" stroke-linejoin="round" stroke-miterlimit="10" d="
		M29.654,34.662c-0.259,0.808,0.11,1.139,0.184,1.706"/>
	
		<path clip-path="url(#SVGID_2_)" fill="none" stroke="#553E31" stroke-width="0.75" stroke-linecap="round" stroke-linejoin="round" stroke-miterlimit="10" d="
		M29.044,38.192c0.029,1.825,0.619,1.407,0.089,2.545"/>
	
		<path clip-path="url(#SVGID_2_)" fill="none" stroke="#553E31" stroke-width="0.75" stroke-linecap="round" stroke-linejoin="round" stroke-miterlimit="10" d="
		M29.059,32.222c-0.119,0.359-0.06,0.838,0.028,1.018"/>
	
		<path clip-path="url(#SVGID_2_)" fill="none" stroke="#553E31" stroke-width="0.75" stroke-linecap="round" stroke-linejoin="round" stroke-miterlimit="10" d="
		M30.313,32.91c0.267,0.359,0.502,0.897,0.236,0.958"/>
	
		<path clip-path="url(#SVGID_2_)" fill="none" stroke="#553E31" stroke-width="0.75" stroke-linecap="round" stroke-linejoin="round" stroke-miterlimit="10" d="
		M31.432,37.933c0,0.12-0.193,0.569-0.193,0.928"/>
	
		<path clip-path="url(#SVGID_2_)" fill="none" stroke="#553E31" stroke-width="0.75" stroke-linecap="round" stroke-linejoin="round" stroke-miterlimit="10" d="
		M26.072,43.162c-0.059,0.149-0.205,1.348-0.118,1.796"/>
	
		<path clip-path="url(#SVGID_2_)" fill="none" stroke="#553E31" stroke-width="0.75" stroke-linecap="round" stroke-linejoin="round" stroke-miterlimit="10" d="
		M29.824,42.427c0,0.209,0.118,0.568,0.029,0.837"/>
	
		<path clip-path="url(#SVGID_2_)" fill="none" stroke="#553E31" stroke-width="0.75" stroke-linecap="round" stroke-linejoin="round" stroke-miterlimit="10" d="
		M29.159,45.872c-0.308,0.258-0.759,0.797-1.211,1.063"/>
	
		<path clip-path="url(#SVGID_2_)" fill="none" stroke="#553E31" stroke-width="0.75" stroke-linecap="round" stroke-linejoin="round" stroke-miterlimit="10" d="
		M27.719,50.118c-0.119,0.36-0.06,0.838,0.028,1.018"/>
	
		<path clip-path="url(#SVGID_2_)" fill="none" stroke="#553E31" stroke-width="0.75" stroke-linecap="round" stroke-linejoin="round" stroke-miterlimit="10" d="
		M31.462,46.703c0,0.209,0.118,0.567,0.029,0.837"/>
	
		<path clip-path="url(#SVGID_2_)" fill="none" stroke="#553E31" stroke-width="0.75" stroke-linecap="round" stroke-linejoin="round" stroke-miterlimit="10" d="
		M32.136,43.636c0,0.179,0.03,1.137-0.03,1.287"/>
	
		<path clip-path="url(#SVGID_2_)" fill="none" stroke="#553E31" stroke-width="0.75" stroke-linecap="round" stroke-linejoin="round" stroke-miterlimit="10" d="
		M27.08,40.221c0.059,0.959,0.059,1.163-0.059,1.617"/>
	
		<path clip-path="url(#SVGID_2_)" fill="none" stroke="#553E31" stroke-width="0.75" stroke-linecap="round" stroke-linejoin="round" stroke-miterlimit="10" d="
		M32.029,40.898c0.127,0.567,0.511,0.508,0.382,0.987"/>
	
		<path clip-path="url(#SVGID_2_)" fill="none" stroke="#553E31" stroke-width="0.75" stroke-linecap="round" stroke-linejoin="round" stroke-miterlimit="10" d="
		M28.784,48.815c0.629-0.255,0.629-0.638,0.881-0.638"/>
	
		<path clip-path="url(#SVGID_2_)" fill="none" stroke="#553E31" stroke-width="0.75" stroke-linecap="round" stroke-linejoin="round" stroke-miterlimit="10" d="
		M34.364,48.072c0.589-0.128,1.133-0.426,1.344-0.255"/>
	
		<path clip-path="url(#SVGID_2_)" fill="none" stroke="#553E31" stroke-width="0.75" stroke-linecap="round" stroke-linejoin="round" stroke-miterlimit="10" d="
		M24.671,47.434c0.588-0.128,1.133-0.426,1.343-0.255"/>
	
		<path clip-path="url(#SVGID_2_)" fill="none" stroke="#553E31" stroke-width="0.75" stroke-linecap="round" stroke-linejoin="round" stroke-miterlimit="10" d="
		M33.883,50.03c-0.463,0.169-0.881,0.552-1.049,0.935"/>
	
		<path clip-path="url(#SVGID_2_)" fill="none" stroke="#553E31" stroke-width="0.75" stroke-linecap="round" stroke-linejoin="round" stroke-miterlimit="10" d="
		M34.827,45.243c-0.463,0.169-0.881,0.553-1.049,0.936"/>
	
		<path clip-path="url(#SVGID_2_)" fill="none" stroke="#553E31" stroke-width="0.75" stroke-linecap="round" stroke-linejoin="round" stroke-miterlimit="10" d="
		M23.203,49.157c0.46,0.213,1.344,0.383,1.385,0.681"/>
	
		<path clip-path="url(#SVGID_2_)" fill="none" stroke="#553E31" stroke-width="0.75" stroke-linecap="round" stroke-linejoin="round" stroke-miterlimit="10" d="
		M29.141,50.562c0.546,0.084,1.008,0.126,1.428,0"/>
</g>
</svg>
