<?xml version="1.0" encoding="utf-8"?>
<!-- Generator: Adobe Illustrator 16.0.0, SVG Export Plug-In . SVG Version: 6.00 Build 0)  -->
<!DOCTYPE svg PUBLIC "-//W3C//DTD SVG 1.1//EN" "http://www.w3.org/Graphics/SVG/1.1/DTD/svg11.dtd">
<svg version="1.1" id="Layer_1" xmlns="http://www.w3.org/2000/svg" xmlns:xlink="http://www.w3.org/1999/xlink" x="0px" y="0px"
	 width="60px" height="60px" viewBox="0 0 60 60" enable-background="new 0 0 60 60" xml:space="preserve">
<g>
	<defs>
		<path id="SVGID_19_" d="M30,53.5C17.042,53.5,6.5,42.959,6.5,30S17.042,6.5,30,6.5S53.5,17.041,53.5,30S42.958,53.5,30,53.5z"/>
	</defs>
	<clipPath id="SVGID_2_">
		<use xlink:href="#SVGID_19_"  overflow="visible"/>
	</clipPath>
	<rect x="0.625" y="0.625" clip-path="url(#SVGID_2_)" fill="#FFFCF5" width="58.75" height="58.75"/>
	<polygon clip-path="url(#SVGID_2_)" fill="#EBE0D5" stroke="#553E31" stroke-miterlimit="10" points="-6.48,45.495 60.592,32.353 
		69.93,70.867 -7.692,75.955 	"/>
	
		<path clip-path="url(#SVGID_2_)" fill="#CDB8AB" stroke="#553E31" stroke-linecap="round" stroke-linejoin="round" stroke-miterlimit="10" d="
		M57.202,2.356c0,0-7.286,3.333-8.136,3.924c-0.852,0.593-3.422,2.152-4.207,2.575c-0.787,0.422-4.245,2.17-4.903,2.404
		c-0.656,0.234-3.038,1.771-3.578,2.487c-0.539,0.717-1.689,2.346-2.234,3.091c-0.545,0.746-2.241,2.664-2.183,3.285
		c0.059,0.623,0.522,2.119,0.909,2.928c0.388,0.81,1.906,2.06,2.434,2.317c0.529,0.258,1.408,0.891,1.591,0.896
		c0.182,0.006,0.8-0.19,0.783-0.788c-0.018-0.599-0.317-1.238-0.581-1.597c-0.264-0.357-1.226-1.571-1.449-1.906
		c-0.222-0.335,0.055-0.736-0.147-0.791c0.402-0.18,1.133-1.237,1.183-1.717c0,0,0.312,0.047,0.802,0.039
		c0.489-0.01,1.092-0.439,1.303-0.641c0.208-0.202,1.363-1.251,1.885-3.023c0,0-0.916,2.136-1.36,2.839"/>
	
		<path clip-path="url(#SVGID_2_)" fill="#CDB8AB" stroke="#553E31" stroke-linecap="round" stroke-linejoin="round" stroke-miterlimit="10" d="
		M38.259,23.64c0,0,0.018,0.218,0.855,0.37c0.839,0.151,1.783,0.233,2.265-0.035c0.481-0.271,1.015-0.957,1.291-1.421
		c0.274-0.463,0.532-0.991,0.644-1.395c0.112-0.406,0.101-0.348,0.024-0.575c0.026,0.25-0.095,0.926-0.19,1.181
		c-0.098,0.257-0.108,0.392,0.215,0.456c0.321,0.064,0.952-0.039,1.351-0.279c0.399-0.24,0.457-0.457,0.616-0.791
		s0.482-0.957,0.587-1.332c0.105-0.376,0.074-0.52,0.128-0.874c0,0-0.269,1.426-0.433,1.789c-0.165,0.364-0.295,0.552-0.032,0.542
		c0.262-0.009,0.652,0.085,1.006-0.301c0.352-0.388,1.029-1.564,1.205-2.063c0.176-0.498,0.265-0.785,0.021-1.017
		c-0.244-0.232-4.32,1.85-4.32,1.85L38.259,23.64z"/>
	
		<path clip-path="url(#SVGID_2_)" fill="#EBE0D5" stroke="#553E31" stroke-linecap="round" stroke-linejoin="round" stroke-miterlimit="10" d="
		M46.508,14.942c0,0-5.388,3.605-5.84,3.956c-0.451,0.354-3.074,2.254-3.906,2.91c-0.833,0.657-4.863,3.419-5.52,3.808
		c-0.729,0.429-1.073,0.664-1.924,0.41c-0.739-0.221-0.968-0.345-1.728-0.494c-1.402-0.273-3.01-0.033-4.307,0.539
		c-1.823,0.806-3.664,1.774-4.801,3.454c-0.373,0.553-0.904,1.387-0.808,2.065c0.081,0.558,0.479,1.266,0.899,1.607
		c0.577,0.471,1.317,0.64,2.039,0.717c1.853,0.195,3.667,0.018,5.473-0.418c1.066-0.259,2.185-0.66,3.188-1.099
		c1.023-0.448,2.147-1.333,2.226-2.507c0.037-0.57-0.095-1.36,0.595-1.984c0.69-0.625,2.567-2.308,4.171-3.391
		c1.604-1.082,7.359-4.918,8.345-5.576c0.984-0.657,3.966-2.835,3.966-2.835L46.508,14.942z"/>
	
		<path clip-path="url(#SVGID_2_)" fill="#CDB8AB" stroke="#553E31" stroke-linecap="round" stroke-linejoin="round" stroke-miterlimit="10" d="
		M40.753,15.735c-0.624,2.882-3.67,4.405-4.334,4.897c-0.663,0.492-1.463,1.522-1.786,2.296c-0.322,0.774,0.027,1.013,0.492,1.655
		c0.467,0.642,1.796,0.101,2.324-0.176c0.527-0.276,3.306-2.496,4.03-3.067c0.724-0.572,1.96-1.271,2.583-1.48
		c0.622-0.212,2.959-1.453,3.604-1.935c0.646-0.479,1.801-2.522,2.276-2.991c0.476-0.47,1.044-1.255,1.604-1.769
		c0.392-0.136,2.639-0.769,3.46-0.985c0.82-0.216,6.752-1.349,6.752-1.349l1.277-8.072l-5.032,0.153l-0.457-1.069"/>
	
		<path clip-path="url(#SVGID_2_)" fill="#CDB8AB" stroke="#553E31" stroke-linecap="round" stroke-linejoin="round" stroke-miterlimit="10" d="
		M28.821,30.54c0.771-0.84,1.067-1.795,0.165-2.29c-2.206-1.211-4.687-0.088-6.677,1.021c-0.654,0.364-1.265,0.784-1.882,1.202
		c-0.492,0.33-1.106,0.622-1.324,1.217c-0.372,1.024,1.057,1.029,1.594,1.441c0.533,0.408,0.667,0.967,0.707,1.606
		c0.034,0.538,0.007,1.306,0.725,1.354c0.454,0.029,0.617-0.33,0.711-0.705c0.143-0.577,0.197-1.177,0.482-1.712
		c0.322-0.604,0.812-1.136,1.452-1.263C26.239,32.123,28.05,31.379,28.821,30.54z"/>
	
		<path clip-path="url(#SVGID_2_)" fill="#CDB8AB" stroke="#553E31" stroke-linecap="round" stroke-linejoin="round" stroke-miterlimit="10" d="
		M22.124,37.916c0.097,0.858-0.642,1.688-0.851,2.484c-0.149,0.576,0.073,1.581,0.758,1.761c0.641,0.167,0.9-0.816,0.877-1.32
		c-0.041-0.895-0.41-1.854-0.533-2.286C22.252,38.122,22.124,37.916,22.124,37.916z"/>
	
		<path clip-path="url(#SVGID_2_)" fill="#CDB8AB" stroke="#553E31" stroke-linecap="round" stroke-linejoin="round" stroke-miterlimit="10" d="
		M31.58,42.811c-1.793,0.455-3.556,1.172-5.382,1.497c-1.815,0.322-3.584,0.08-5.393,0.283c-4.325,0.484-7.726,2.693-9.893,5.711
		c-1.266,1.761-1.942,4.634,0.714,5.423c1.396,0.415,3.075,0.029,4.573-0.18c2.52-0.35,5.021-0.691,7.496-0.438
		c2.129,0.219,4.205,0.614,6.428,0.497c2.439-0.131,4.866-0.617,7.25-1.22c3.375-0.853,9.617-3.725,10.093-6.902
		c0.236-1.575-1.645-2.731-2.933-3.566c-1.957-1.271-4.562-1.762-5.759-1.915S33.877,42.227,31.58,42.811z"/>
</g>
</svg>
