<?xml version="1.0" encoding="utf-8"?>
<!-- Generator: Adobe Illustrator 16.0.0, SVG Export Plug-In . SVG Version: 6.00 Build 0)  -->
<!DOCTYPE svg PUBLIC "-//W3C//DTD SVG 1.1//EN" "http://www.w3.org/Graphics/SVG/1.1/DTD/svg11.dtd">
<svg version="1.1" id="Layer_1" xmlns="http://www.w3.org/2000/svg" xmlns:xlink="http://www.w3.org/1999/xlink" x="0px" y="0px"
	 width="60px" height="60px" viewBox="0 0 60 60" enable-background="new 0 0 60 60" xml:space="preserve">
<g>
	<defs>
		<path id="SVGID_9_" d="M30,53.5C17.042,53.5,6.5,42.959,6.5,30S17.042,6.5,30,6.5c12.958,0,23.5,10.541,23.5,23.5
			S42.958,53.5,30,53.5z"/>
	</defs>
	<clipPath id="SVGID_2_">
		<use xlink:href="#SVGID_9_"  overflow="visible"/>
	</clipPath>
	<rect x="0.625" y="0.625" clip-path="url(#SVGID_2_)" fill="#FFFCF5" width="58.75" height="58.75"/>
	<polygon clip-path="url(#SVGID_2_)" fill="#EBE0D5" stroke="#553E31" stroke-width="0.9231" stroke-miterlimit="10" points="
		67.203,43.718 6.507,52.448 -4.631,22.947 39.66,17.303 	"/>
	
		<path clip-path="url(#SVGID_2_)" fill="#CDB8AB" stroke="#553E31" stroke-width="0.9231" stroke-linecap="round" stroke-linejoin="round" stroke-miterlimit="10" d="
		M31.488,25.411c-4.042-1.605-8.19-0.079-12.291,0.405c-2.199,0.259-4.325,0.373-6.305,1.498c-1.31,0.742-2.239,2.021-2.351,3.529
		c-0.151,2.028,1.849,3.141,3.355,4.104c1.636,1.043,3.482,2.161,4.807,3.603c0.936,1.018,1.149,2.458,2.097,3.438
		c1.072,1.11,2.503,1.251,3.966,1.058c1.251-0.164,2.488-0.559,3.729-0.788c1.456-0.27,2.951-0.497,4.434-0.532
		c2.473-0.059,5.085,0.552,7.502-0.13c2.118-0.596,3.919-2.577,4.198-4.787c0.406-3.249-3.043-5.38-5.482-6.758L31.488,25.411z"/>
	
		<ellipse transform="matrix(0.7683 -0.6401 0.6401 0.7683 -7.9093 14.3938)" clip-path="url(#SVGID_2_)" fill="#CDB8AB" stroke="#553E31" stroke-width="0.9231" stroke-linecap="round" stroke-linejoin="round" stroke-miterlimit="10" cx="15.927" cy="18.122" rx="1.79" ry="1.062"/>
	
		<path clip-path="url(#SVGID_2_)" fill="#EBE0D5" stroke="#553E31" stroke-width="0.9231" stroke-linecap="round" stroke-linejoin="round" stroke-miterlimit="10" d="
		M18.99,17.458c0.571,0.685,0.098,2.022-1.06,2.984c-1.155,0.964-2.556,1.188-3.127,0.505c-0.572-0.688-0.096-2.023,1.06-2.987
		C17.02,16.997,18.42,16.773,18.99,17.458z"/>
	
		<polyline clip-path="url(#SVGID_2_)" fill="#EBE0D5" stroke="#553E31" stroke-width="0.9231" stroke-linecap="round" stroke-linejoin="round" stroke-miterlimit="10" points="
		18.99,17.458 45.462,41.431 41.272,44.919 14.803,20.947 	"/>
	
		<ellipse transform="matrix(0.7685 -0.6399 0.6399 0.7685 -17.586 37.7448)" clip-path="url(#SVGID_2_)" fill="#CDB8AB" stroke="#553E31" stroke-width="0.9231" stroke-linecap="round" stroke-linejoin="round" stroke-miterlimit="10" cx="43.367" cy="43.175" rx="2.726" ry="1.617"/>
	
		<path clip-path="url(#SVGID_2_)" fill="#CDB8AB" stroke="#553E31" stroke-width="0.9231" stroke-linecap="round" stroke-linejoin="round" stroke-miterlimit="10" d="
		M45.629,42.899c0.372,0.452,0.063,1.328-0.697,1.962c-0.761,0.632-1.68,0.78-2.056,0.33c-0.373-0.451-0.062-1.327,0.694-1.962
		C44.334,42.597,45.253,42.45,45.629,42.899z"/>
	
		<path clip-path="url(#SVGID_2_)" fill="#CDB8AB" stroke="#553E31" stroke-width="0.9231" stroke-linecap="round" stroke-linejoin="round" stroke-miterlimit="10" d="
		M32.703,35.833c-0.966,1.435-1.867,3.122-1.454,3.481c0.415,0.359,0.46,0.949,1.702-0.266c1.242-1.214,2.525-2.664,3.713-3.575
		c0,0,1.574-1.479,1.844-1.739c0.532-0.51,0.848-0.663,1.407-1.118c-0.351,0.25-0.905,0.801-0.905,0.801s-0.672,0.694-1.034,1.021
		c-0.414,0.373-1.478,1.285-1.918,1.739c-0.379,0.392-0.987,1.241-0.457,1.685c0.415,0.345,0.725,0.429,1.575-0.069
		c0.848-0.495,1.902-1.399,2.4-1.939c0.497-0.539,2.06-1.924,2.568-2.298c0.621-0.455,3.362-1.436,4.542-2.553
		c1.181-1.119,3.645-4.348,5.278-5.902c1.637-1.553,8.387-7.763,10.168-9.607c1.779-1.842,4.929-9.152,4.929-9.152l-9.402-0.159"/>
	
		<path clip-path="url(#SVGID_2_)" fill="#CDB8AB" stroke="#553E31" stroke-width="0.9231" stroke-linecap="round" stroke-linejoin="round" stroke-miterlimit="10" d="
		M57.742,6.208c0,0-11.124,13.558-12.119,14.412c-0.993,0.857-1.794,1.603-4.171,2.238c-2.374,0.635-2.263,0.716-3.118,1.159
		c-0.854,0.441-3.174,1.739-3.864,2.068c-0.691,0.333-1.491,1.077-2.208,1.327c-0.72,0.248-1.519,0.387-1.519,0.387
		s-0.609,0.276-0.332,0.69c0.276,0.414,1.298,1.021,2.237,0.578c0.938-0.44,1.904-1.021,2.541-1.572
		c-1.188,0.966-2.587,1.976-3.094,2.374c-0.579,0.456-1.11,0.952-1.67,1.449c-0.569,0.507-1.768,1.635-2.319,2.458
		c-0.504,0.752-1.166,1.675-0.647,2.194c0.386,0.388,0.938,0.324,1.959-0.644c1.021-0.966,2.061-2.009,2.795-2.67
		c0.848-0.768,0.571-0.58,1.869-1.546s1.298-0.966,1.298-0.966s-2.274,1.716-3.23,2.788c-0.688,0.772-0.992,1.077-0.992,1.077
		s-0.636,0.743-1.132,1.462c-0.498,0.719-1.08,1.721-1.214,2.126c-0.187,0.558-0.297,1.119,0.055,1.49
		c0.467,0.496,0.994,0.352,1.794-0.551c0.873-0.985,1.904-2.401,2.622-3.147c0.719-0.746,1.057-1.167,2.209-2.183
		c1.222-1.075,2.207-1.675,2.484-1.897"/>
	
		<path clip-path="url(#SVGID_2_)" fill="#CDB8AB" stroke="#553E31" stroke-width="0.9231" stroke-linecap="round" stroke-linejoin="round" stroke-miterlimit="10" d="
		M17.546,27.345c-0.496,0.393-1.353,0.661-1.366-0.083c-0.011-0.602,0.813-2.059,1.125-2.575c0.311-0.518,1.339-1.897,1.657-2.237
		c0.311-0.33,1.802-1.697,1.802-1.697c-0.445,0.342-0.871,0.766-1.305,1.139c-0.531,0.457-1.159,1.222-1.656,1.698
		c-0.497,0.477-1.139,0.33-1.305,0.146c-0.166-0.188-0.082-0.436,0.208-0.912c0.289-0.475,0.994-1.574,1.718-2.152
		c0.725-0.581,3.625-2.548,4.659-3.417c1.035-0.868,3.686-3.272,4.308-3.852c0.621-0.58,0.558-1.615,0.807-2.423
		c0.25-0.808,0.684-4.804,0.684-4.804l6.77-0.31c0,0-1.264,6.459-1.407,7.287s-0.809,2.609-0.786,3.519
		c0.019,0.914,0.145,1.866,0.019,2.734c-0.123,0.87-0.807,2.632-1.387,3.293c-0.58,0.663-1.242,1.097-1.615,1.679
		c-0.372,0.578-0.579,0.642-1.035,1.531c-0.455,0.891-0.704,0.953-1.014,1.015c-0.311,0.063-0.953-0.042-1.222-0.539
		c-0.269-0.497-0.498-1.117-0.248-1.718c0.248-0.601,0.786-1.367,1.2-1.699c0.414-0.331,0.808-0.848,0.933-1.097
		c-0.312,0.167-1.284,0.745-1.698,1.057c-0.415,0.311-1.251,1.128-1.637,1.542c-0.414,0.446-1.304,1.512-1.78,2.215
		c-0.414,0.611-1.222,1.739-1.605,2.341c-0.349,0.545-1.16,2.008-1.823,1.614c-0.621-0.578-0.683-1.16-0.423-1.947
		c0,0,1.286-2.333,1.791-3.157c0.559-0.909,1.677-2.649,2.185-3.198c0,0-2.153,2.536-2.671,3.198
		c-0.355,0.454-0.973,1.306-1.409,1.926c-0.403,0.577-1.263,1.47-1.616,1.761c-0.352,0.29-0.6,0.455-1.055,0.311
		c-0.456-0.145-0.518-0.227-0.456-0.621c0.063-0.395,0.238-0.838,0.611-1.418s1.44-1.969,1.812-2.55
		c0.292-0.451,0.709-0.956,1.104-1.531c0.249-0.364,1.506-1.52,1.836-1.852"/>
	
		<path clip-path="url(#SVGID_2_)" fill="#CDB8AB" stroke="#553E31" stroke-width="0.9231" stroke-linecap="round" stroke-linejoin="round" stroke-miterlimit="10" d="
		M40.08,38.135"/>
</g>
</svg>
