<?xml version="1.0" encoding="utf-8"?>
<!-- Generator: Adobe Illustrator 16.0.0, SVG Export Plug-In . SVG Version: 6.00 Build 0)  -->
<!DOCTYPE svg PUBLIC "-//W3C//DTD SVG 1.1//EN" "http://www.w3.org/Graphics/SVG/1.1/DTD/svg11.dtd">
<svg version="1.1" id="Layer_1" xmlns="http://www.w3.org/2000/svg" xmlns:xlink="http://www.w3.org/1999/xlink" x="0px" y="0px"
	 width="60px" height="60px" viewBox="0 0 60 60" enable-background="new 0 0 60 60" xml:space="preserve">
<g>
	<defs>
		<path id="SVGID_29_" d="M30,53.5C17.042,53.5,6.5,42.959,6.5,30S17.042,6.5,30,6.5S53.5,17.041,53.5,30S42.958,53.5,30,53.5z"/>
	</defs>
	<clipPath id="SVGID_2_">
		<use xlink:href="#SVGID_29_"  overflow="visible"/>
	</clipPath>
	<rect x="0.625" y="0.625" clip-path="url(#SVGID_2_)" fill="#FFFCF5" width="58.75" height="58.75"/>
	<polygon clip-path="url(#SVGID_2_)" fill="#CDB8AB" stroke="#553E31" stroke-miterlimit="10" points="-9.126,52.096 60.823,62.368 
		64.492,3.096 13.375,-1.47 	"/>
	<path clip-path="url(#SVGID_2_)" fill="#553E31" d="M7.84,44.439l31.344,3.809c0,0,1.933,0.068,2.927,1.19
		c0.996,1.121,0.67,2.732,0.67,2.732l-0.639,11.831L3.898,58.61L7.84,44.439z"/>
	<polygon clip-path="url(#SVGID_2_)" fill="#EBE0D5" stroke="#553E31" stroke-width="1.0285" stroke-miterlimit="10" points="
		8.404,11.864 61.896,15.723 60.677,45.922 1.226,39.131 	"/>
	<g clip-path="url(#SVGID_2_)">
		<defs>
			<path id="XMLID_4_" d="M46.713,30.175v-9.339c0-0.946-0.769-1.717-1.714-1.717c-0.949,0-1.716,0.771-1.716,1.717v9.339
				c-1.5,0.658-2.546,2.155-2.546,3.897c0,2.354,1.907,4.261,4.262,4.261c2.352,0,4.258-1.906,4.258-4.261
				C49.257,32.33,48.212,30.833,46.713,30.175z"/>
		</defs>
		<use xlink:href="#XMLID_4_"  overflow="visible" fill="#EBE0D5"/>
		<clipPath id="XMLID_2_">
			<use xlink:href="#XMLID_4_"  overflow="visible"/>
		</clipPath>
		<rect x="39.861" y="26.2" clip-path="url(#XMLID_2_)" fill="#553E31" width="9.919" height="12.719"/>
		
			<line clip-path="url(#XMLID_2_)" fill="none" stroke="#553E31" stroke-width="0.7963" stroke-miterlimit="10" x1="45.076" y1="21.438" x2="46.713" y2="21.438"/>
		
			<line clip-path="url(#XMLID_2_)" fill="none" stroke="#553E31" stroke-width="0.7963" stroke-miterlimit="10" x1="45.076" y1="23.368" x2="46.713" y2="23.368"/>
		
			<line clip-path="url(#XMLID_2_)" fill="none" stroke="#553E31" stroke-width="0.7963" stroke-miterlimit="10" x1="45.076" y1="25.301" x2="46.713" y2="25.301"/>
		
			<line clip-path="url(#XMLID_2_)" fill="none" stroke="#CDB8AB" stroke-width="0.7963" stroke-miterlimit="10" x1="45.076" y1="27.231" x2="46.713" y2="27.231"/>
		
			<line clip-path="url(#XMLID_2_)" fill="none" stroke="#CDB8AB" stroke-width="0.7963" stroke-miterlimit="10" x1="45.076" y1="29.165" x2="46.713" y2="29.165"/>
		
			<use xlink:href="#XMLID_4_"  overflow="visible" fill="none" stroke="#553E31" stroke-width="0.7963" stroke-linecap="round" stroke-linejoin="round" stroke-miterlimit="10"/>
	</g>
	<g clip-path="url(#SVGID_2_)">
		<path fill="#EBE0D5" d="M46.325,35.366l0.925,0.291c-0.142,0.516-0.377,0.897-0.706,1.148c-0.328,0.248-0.746,0.374-1.254,0.374
			c-0.625,0-1.14-0.215-1.543-0.642c-0.403-0.428-0.604-1.014-0.604-1.754c0-0.784,0.202-1.396,0.607-1.829
			c0.404-0.434,0.938-0.651,1.6-0.651c0.575,0,1.044,0.17,1.403,0.513c0.216,0.199,0.377,0.49,0.483,0.867l-0.942,0.227
			c-0.056-0.246-0.171-0.439-0.349-0.58c-0.179-0.142-0.391-0.212-0.646-0.212c-0.349,0-0.632,0.124-0.85,0.375
			c-0.218,0.252-0.327,0.657-0.327,1.221c0,0.593,0.107,1.019,0.322,1.272c0.216,0.253,0.493,0.379,0.837,0.379
			c0.253,0,0.471-0.079,0.652-0.239C46.116,35.963,46.246,35.711,46.325,35.366z"/>
	</g>
	
		<circle clip-path="url(#SVGID_2_)" fill="none" stroke="#EBE0D5" stroke-width="0.35" stroke-miterlimit="10" cx="43.409" cy="31.888" r="0.501"/>
	<g clip-path="url(#SVGID_2_)">
		<g>
			<path fill="#CDB8AB" d="M31.747,37.213c-3.623,0-6.571-3.745-6.571-8.348s2.948-8.347,6.571-8.347
				c3.624,0,6.572,3.744,6.572,8.347S35.371,37.213,31.747,37.213z"/>
			<path fill="#553E31" d="M31.747,21.118c3.3,0,5.973,3.469,5.973,7.747s-2.673,7.748-5.973,7.748c-3.299,0-5.971-3.47-5.971-7.748
				S28.448,21.118,31.747,21.118 M31.747,19.919c-3.954,0-7.171,4.013-7.171,8.946s3.217,8.947,7.171,8.947
				c3.955,0,7.172-4.014,7.172-8.947S35.702,19.919,31.747,19.919L31.747,19.919z"/>
		</g>
		<g>
			<g>
				<path fill="#553E31" d="M25.222,16.99c0.515-0.521,1.158-0.58,1.803-0.765c0.647-0.162,1.332-0.31,2.043-0.372
					c1.436-0.134,2.859,0.158,4.127,0.594c1.275,0.416,2.558,1.195,3.491,2.163c0.957,0.976,1.688,2.128,2.132,3.392
					c0.041,0.117-0.021,0.246-0.138,0.287c-0.108,0.038-0.227-0.012-0.276-0.111L38.4,22.17c-0.563-1.113-1.39-2.097-2.352-2.844
					c-0.484-0.372-1.007-0.683-1.554-0.923c-0.522-0.232-1.11-0.401-1.713-0.548c-1.199-0.299-2.379-0.413-3.516-0.239
					c-0.572,0.08-1.147,0.231-1.743,0.413c-0.598,0.161-1.187,0.485-1.914,0.316c-0.434-0.102-0.703-0.535-0.602-0.969
					C25.042,17.228,25.122,17.093,25.222,16.99z"/>
			</g>
			<g>
				<path fill="#553E31" d="M28.372,15.054c-0.535,0.386-1.034,0.854-1.423,1.351c-0.389,0.495-0.66,1.05-0.692,1.525v0.001
					l-0.144-0.802c0.075,0.17,0.33,0.464,0.558,0.668c0.242,0.221,0.517,0.419,0.814,0.592c0.6,0.337,1.29,0.571,2.018,0.689
					c0.14,0.021,0.236,0.151,0.216,0.291c-0.018,0.116-0.114,0.203-0.225,0.217c-0.782,0.09-1.602,0.058-2.418-0.138
					c-0.406-0.104-0.809-0.247-1.2-0.439c-0.402-0.211-0.744-0.395-1.158-0.802c-0.171-0.168-0.233-0.406-0.185-0.624l0.04-0.178
					l0,0c0.384-0.843,1-1.401,1.618-1.828c0.63-0.424,1.281-0.73,1.974-0.957c0.127-0.042,0.263,0.027,0.305,0.154
					c0.034,0.103-0.005,0.211-0.088,0.271L28.372,15.054z"/>
			</g>
		</g>
		
			<path fill="#CDB8AB" stroke="#553E31" stroke-width="0.805" stroke-linecap="round" stroke-linejoin="round" stroke-miterlimit="10" d="
			M-9.212,44.354c0,0,8.511-5.78,9.66-7.288c1.149-1.51,5.314-6.106,6.391-7.865c1.078-1.761,2.514-3.556,3.412-4.633
			c0.896-1.077,1.831-1.902,3.446-1.364c1.617,0.538,2.551,0.79,3.592,0.79c1.041,0,1.507,0.107,2.979-0.467
			c1.473-0.575,2.333-0.826,3.735-0.971c1.398-0.144,2.174-0.317,2.979,0c0.683,0.27,0.971,1.007,1.131,1.562
			c0.162,0.559,0.925,2.289,1.077,2.587c0.208,0.399,0.147,0.918-0.149,1.459c-0.245,0.447-0.999,1.181-0.999,1.181l-0.592,0.857
			l-6.876,4.674L0.951,52.596L-9.212,44.354z"/>
		
			<path fill="none" stroke="#553E31" stroke-width="0.805" stroke-linecap="round" stroke-linejoin="round" stroke-miterlimit="10" d="
			M24.94,27.875c0,0-0.259,0.535-0.963,0.749c-0.617,0.188-1.589,0.535-2.048,0.306c-0.091,0.55-0.242,1.168-1.049,1.618
			c-0.808,0.446-1.191,0.75-1.749,0.858"/>
		
			<path fill="none" stroke="#553E31" stroke-width="0.805" stroke-linecap="round" stroke-linejoin="round" stroke-miterlimit="10" d="
			M25.674,29.755c-0.856,0.024-0.769,0.051-1.056-0.758c0,0-0.126-0.166,0-0.595"/>
		
			<path fill="none" stroke="#553E31" stroke-width="0.805" stroke-linecap="round" stroke-linejoin="round" stroke-miterlimit="10" d="
			M22.943,30.671c-1.023,0.648-1.291,0.864-1.291,0.864s-1.035,0.14-1.892-0.371"/>
		
			<path fill="none" stroke="#553E31" stroke-width="0.805" stroke-linecap="round" stroke-linejoin="round" stroke-miterlimit="10" d="
			M21.652,31.535c0,0-0.37,1.432,0.326,2.547"/>
		
			<path fill="none" stroke="#553E31" stroke-width="0.805" stroke-linecap="round" stroke-linejoin="round" stroke-miterlimit="10" d="
			M24.94,29.617c0,0-0.443,0.903-0.474,1.392c-0.25,0.411-0.141,0.536-0.028,1.035"/>
		
			<path fill="#CDB8AB" stroke="#553E31" stroke-width="0.6587" stroke-linecap="round" stroke-linejoin="round" stroke-miterlimit="10" d="
			M11.698,26.916c0.544-0.371,1.426-1.422,2.34-1.758c0.916-0.335,1.24-0.056,2.038-0.284"/>
		
			<ellipse fill="#CDB8AB" stroke="#553E31" stroke-width="1.0817" stroke-linecap="round" stroke-linejoin="round" stroke-miterlimit="10" cx="31.691" cy="28.965" rx="2.508" ry="4.239"/>
		<path fill="#553E31" d="M32.42,22.777c0,0.483-0.301,0.874-0.673,0.874s-0.671-0.391-0.671-0.874c0-0.479,0.299-0.873,0.671-0.873
			S32.42,22.298,32.42,22.777z"/>
		<path fill="#553E31" d="M29.745,23.339c0.107,0.244,0.042,0.558-0.146,0.696c-0.188,0.144-0.43,0.059-0.538-0.185
			c-0.11-0.246-0.045-0.558,0.145-0.7C29.392,23.01,29.635,23.094,29.745,23.339z"/>
		<path fill="#553E31" d="M29.218,25.893c0.131,0.12,0.175,0.389,0.099,0.597c-0.075,0.209-0.243,0.279-0.374,0.159
			c-0.13-0.119-0.175-0.387-0.099-0.595C28.92,25.846,29.087,25.774,29.218,25.893z"/>
		<path fill="#553E31" d="M28.944,31.081c0.13-0.121,0.298-0.048,0.373,0.159c0.076,0.208,0.032,0.477-0.099,0.594
			c-0.131,0.121-0.298,0.051-0.374-0.157C28.769,31.468,28.813,31.201,28.944,31.081z"/>
		<path fill="#553E31" d="M30.034,33.14c0.077-0.209,0.243-0.28,0.374-0.161c0.13,0.12,0.175,0.388,0.101,0.597
			c-0.076,0.209-0.244,0.28-0.374,0.16C30.004,33.614,29.959,33.348,30.034,33.14z"/>
		<path fill="#553E31" d="M33.752,34.391c-0.108-0.244-0.044-0.558,0.146-0.698c0.187-0.141,0.428-0.057,0.535,0.188
			c0.108,0.244,0.046,0.557-0.144,0.699C34.102,34.72,33.86,34.636,33.752,34.391z"/>
		<path fill="#553E31" d="M35.613,32.35c-0.188-0.139-0.252-0.454-0.145-0.697c0.107-0.244,0.351-0.329,0.541-0.187
			c0.187,0.141,0.251,0.452,0.142,0.698C36.045,32.409,35.802,32.492,35.613,32.35z"/>
		<path fill="#553E31" d="M36.009,26.264c-0.189,0.142-0.433,0.059-0.54-0.187c-0.107-0.242-0.043-0.559,0.145-0.698
			c0.188-0.141,0.432-0.058,0.538,0.188C36.261,25.812,36.196,26.123,36.009,26.264z"/>
		<path fill="#553E31" d="M34.434,23.851c-0.107,0.243-0.349,0.328-0.535,0.185c-0.19-0.139-0.255-0.452-0.146-0.696
			c0.11-0.245,0.35-0.329,0.538-0.188C34.479,23.293,34.542,23.604,34.434,23.851z"/>
		<ellipse fill="#553E31" cx="28.647" cy="28.865" rx="0.465" ry="0.744"/>
		<ellipse fill="#553E31" cx="31.748" cy="34.952" rx="0.672" ry="0.874"/>
		<ellipse fill="#553E31" cx="36.439" cy="28.865" rx="0.674" ry="0.873"/>
		<path fill="#EBE0D5" stroke="#553E31" stroke-width="1.0817" stroke-miterlimit="10" d="M31.674,25.009
			c-0.28-0.57-4.716-0.13-4.993,3.805c-0.214,3.049,1.597,3.322,1.597,3.322s1.718,1.182,2.668,0.826
			C31.989,32.584,33.443,28.614,31.674,25.009z"/>
		<g>
			<defs>
				<path id="XMLID_3_" d="M18.258,30.367c0,0,1.113,1.203,1.257,1.903c0.143,0.699,0.161,0.735,0.161,1.202
					c0,0.468,0.054,0.969,0.431,1.078c0.377,0.107,0.898,0.125,1.58-0.288c0.683-0.412,1.994-1.293,2.353-1.705
					c0.359-0.415,0.754-0.86,1.203-0.987c0.449-0.125,1.06-0.736,1.4-1.042s1.49-1.059,2.136-1.077
					c0.647-0.02,1.581-0.09,2.013,0.269c0.429,0.36,0.915,0.935,0.718,1.634c-0.199,0.7-0.559,1.473-0.738,1.797
					c-0.18,0.322-0.036,0.646-0.449,1.237c-0.412,0.593-0.574,0.702-0.664,1.186c-0.09,0.485-0.431,1.186-1.383,1.761
					s-4.956,2.71-5.692,3.482c-0.735,0.773-2.512,1.885-3.499,2.622c-0.988,0.736-2.479,2.064-6.556,3.016
					c-4.074,0.951-4.488,0.7-7.755,3.322c-3.267,2.621-3.824,2.819-3.824,2.819"/>
			</defs>
			<use xlink:href="#XMLID_3_"  overflow="visible" fill="#CDB8AB"/>
			<clipPath id="XMLID_5_">
				<use xlink:href="#XMLID_3_"  overflow="visible"/>
			</clipPath>
			
				<path clip-path="url(#XMLID_5_)" fill="#EBE0D5" stroke="#553E31" stroke-width="0.805" stroke-linecap="round" stroke-linejoin="round" stroke-miterlimit="10" d="
				M29.444,29.432c0,0-0.288,0.826-0.341,1.366c-0.055,0.538-0.055,0.664,0.34,1.239c0.395,0.574,0.449,1.041,0.629,1.31
				c0.18,0.271,0.267,0.109,0.573-0.357c0.305-0.468,0.694-1.113,0.694-1.113l1.408-0.981l-2.106-2.523L29.444,29.432z"/>
			
				<path clip-path="url(#XMLID_5_)" fill="#EBE0D5" stroke="#553E31" stroke-width="0.805" stroke-linecap="round" stroke-linejoin="round" stroke-miterlimit="10" d="
				M31.34,31.876"/>
			
				<use xlink:href="#XMLID_3_"  overflow="visible" fill="none" stroke="#553E31" stroke-width="0.805" stroke-linecap="round" stroke-linejoin="round" stroke-miterlimit="10"/>
		</g>
	</g>
</g>
</svg>
