<?xml version="1.0" encoding="utf-8"?>
<!-- Generator: Adobe Illustrator 16.0.0, SVG Export Plug-In . SVG Version: 6.00 Build 0)  -->
<!DOCTYPE svg PUBLIC "-//W3C//DTD SVG 1.1//EN" "http://www.w3.org/Graphics/SVG/1.1/DTD/svg11.dtd">
<svg version="1.1" id="Layer_1" xmlns="http://www.w3.org/2000/svg" xmlns:xlink="http://www.w3.org/1999/xlink" x="0px" y="0px"
	 width="60px" height="60px" viewBox="0 0 60 60" enable-background="new 0 0 60 60" xml:space="preserve">
<g>
	<defs>
		<path id="SVGID_15_" d="M29.999,53.5C17.041,53.5,6.5,42.958,6.5,30c0-12.96,10.541-23.5,23.499-23.5
			C42.958,6.5,53.5,17.04,53.5,30C53.5,42.958,42.958,53.5,29.999,53.5z"/>
	</defs>
	<clipPath id="SVGID_2_">
		<use xlink:href="#SVGID_15_"  overflow="visible"/>
	</clipPath>
	<rect x="0.625" y="0.625" clip-path="url(#SVGID_2_)" fill="#FFFCF5" width="58.75" height="58.75"/>
	<polygon clip-path="url(#SVGID_2_)" fill="#EBE0D5" stroke="#553E31" stroke-miterlimit="10" points="59.783,30 0.218,43.219 
		20.128,66.881 55.276,59.764 	"/>
	<g clip-path="url(#SVGID_2_)">
		<path fill="#EBE0D5" stroke="#553E31" stroke-linecap="round" stroke-linejoin="round" stroke-miterlimit="10" d="M33.123,40.04
			c0.441-0.248,0.83-0.632,1.127-1.179c0.637-1.16,0.571-2.5,0.775-3.768c0.209-1.297,1.467-2.983,0.301-4.169
			c-1.024-1.043-2.941-0.832-4.265-0.792c-1.5,0.046-2.284,0.617-3.304,1.51c-0.905,0.796-1.504,2.39-1.69,3.546
			c-0.169,1.045,0.498,2.392,1.166,3.139C28.573,39.825,31.308,41.065,33.123,40.04z"/>
		<path fill="#CDB8AB" stroke="#553E31" stroke-linecap="round" stroke-linejoin="round" stroke-miterlimit="10" d="M45.63,6.757
			c0,0-4.312,4.144-5.135,4.71c-0.823,0.565-2.767,2.887-3.71,3.371c-0.942,0.483-4.689,3.327-5.225,3.881
			c-0.538,0.553-1.438,1.051-1.794,1.467c-0.356,0.417-1.238,2.006-1.495,2.402c-0.256,0.399-2.174,2.302-2.617,3.026
			c-0.444,0.723-0.396,1.21-0.492,1.866c-0.094,0.657-0.068,1.963-0.129,2.584c-0.061,0.62-0.333,1.652-0.288,2.231
			c0.045,0.581,0.832,2.198,0.98,2.667c0.148,0.468,0.218,0.961,0.492,0.991c0.274,0.033,0.771,0.034,1.002-0.277
			c0,0,0.324-0.309,0.355-1.479c0.029-1.173,0.014-2.099,0.014-2.099s0.653-1.535,0.845-2.117c0,0-0.383,1.824-0.297,2.512
			c0.086,0.686,0.36,2.111,0.518,2.628c0.159,0.518,0.723,0.94,1.236,0.545c0.517-0.395,0.762-0.678,0.896-1.3
			c0.132-0.624,0.218-1.992,0.447-2.541c0.229-0.548,0.802-1.966,1.055-2.27c0.254-0.306,1.449-1.26,1.894-2.313
			c0.99-0.73,1.192-0.695,1.471-0.923c0.059,0.206,0.931,1.26,1.383,1.413c0,0-0.023,0.548,0.061,0.832c0,0-0.756,1.519-0.794,2.146
			s-0.482,0.942-0.599,1.154c-0.562,1.027-0.636,3.007-0.636,3.007s0.063,0.617,0.538,0.65c0.487,0.033,0.729-0.622,0.953-0.912
			c0.226-0.29,2.171-1.24,2.546-1.887c0.376-0.649,0.911-2.449,1.121-3.097c0.211-0.648,0.946-1.48,1.181-2.217
			c0.236-0.735,1.076-2.831,1.399-4.036c0.325-1.206,0.732-4.349,2.453-5.482c1.72-1.134,9.973-5.274,11.957-6.263
			c1.985-0.986,2.535-1.419,2.535-1.419L45.63,6.757z"/>
		<path fill="#CDB8AB" stroke="#553E31" stroke-linecap="round" stroke-linejoin="round" stroke-miterlimit="10" d="M31.58,24.062
			c0,0-1.751,2.142-2.183,2.82c-0.431,0.678-0.563,1.136-0.776,1.877c-0.214,0.742-0.176,0.918-0.195,1.313"/>
		<path fill="#CDB8AB" stroke="#553E31" stroke-miterlimit="10" d="M32.813,60.977c0.996-0.03,2.032,0.369,3.083,0.363
			c2.344-0.015,4.618-0.894,6.808-1.695c4.098-1.499,9.994-5.016,11.268-9.563c1.029-3.68-3.898-5.437-6.544-6.354
			c-5.093-1.767-11.144-1.555-16.448-1.203c-5.599,0.373-11.281,1.518-16.231,4.222c-2.361,1.291-5.926,4.388-3.724,7.241
			c2.147,2.782,6.642,3.942,9.877,4.904c3.395,1.01,6.843,1.68,10.368,1.899c1.432,0.089,2.845,0.463,4.266,0.549"/>
	</g>
	<g clip-path="url(#SVGID_2_)">
		<g>
			<path fill="#553E31" d="M17.821,34.886c-0.389-0.265-0.65-0.615-0.883-1.031c-0.211-0.404-0.368-0.826-0.531-1.249
				c-0.317-0.849-0.573-1.722-0.762-2.606c-0.396-1.771-0.443-3.58-0.353-5.339c0.069-0.883,0.13-1.742,0.335-2.639
				c0.194-0.882,0.474-1.734,0.812-2.553c0.697-1.634,1.555-3.149,2.773-4.466c0.105-0.114,0.283-0.12,0.396-0.016
				c0.104,0.097,0.119,0.254,0.04,0.367l-0.021,0.029c-0.923,1.326-1.572,2.921-1.979,4.49c-0.432,1.595-0.451,3.175-0.449,4.833
				c0.02,1.635,0.227,3.241,0.625,4.778c0.2,0.769,0.457,1.52,0.768,2.249l0.492,1.084c0.136,0.35,0.27,0.751,0.289,1.231
				c0.022,0.541-0.398,0.998-0.939,1.02c-0.219,0.009-0.423-0.055-0.591-0.169L17.821,34.886z"/>
		</g>
		<g>
			<path fill="#553E31" d="M14.559,31.624c0.624,0.541,1.339,1.013,2.057,1.343c0.716,0.33,1.47,0.5,2.059,0.401l-0.935,0.407
				c0.186-0.139,0.47-0.537,0.654-0.872c0.199-0.358,0.359-0.751,0.482-1.164c0.244-0.827,0.322-1.735,0.256-2.656
				c-0.015-0.177,0.116-0.332,0.293-0.347c0.146-0.013,0.279,0.079,0.328,0.21c0.335,0.927,0.541,1.934,0.531,2.983
				c-0.007,0.524-0.063,1.058-0.186,1.59c-0.142,0.551-0.265,1.018-0.643,1.641c-0.197,0.326-0.572,0.479-0.925,0.41l-0.011-0.003
				c-1.137-0.223-1.995-0.812-2.694-1.44c-0.698-0.645-1.26-1.35-1.736-2.128c-0.087-0.143-0.043-0.329,0.1-0.416
				c0.115-0.07,0.259-0.055,0.355,0.029L14.559,31.624z"/>
		</g>
	</g>
</g>
</svg>
