<?xml version="1.0" encoding="utf-8"?>
<!-- Generator: Adobe Illustrator 16.0.0, SVG Export Plug-In . SVG Version: 6.00 Build 0)  -->
<!DOCTYPE svg PUBLIC "-//W3C//DTD SVG 1.1//EN" "http://www.w3.org/Graphics/SVG/1.1/DTD/svg11.dtd">
<svg version="1.1" id="Layer_1" xmlns="http://www.w3.org/2000/svg" xmlns:xlink="http://www.w3.org/1999/xlink" x="0px" y="0px"
	 width="60px" height="60px" viewBox="0 0 60 60" enable-background="new 0 0 60 60" xml:space="preserve">
<g>
	<defs>
		<path id="SVGID_17_" d="M30,53.5C17.042,53.5,6.5,42.959,6.5,30C6.5,17.042,17.042,6.5,30,6.5S53.5,17.042,53.5,30
			C53.5,42.959,42.958,53.5,30,53.5z"/>
	</defs>
	<clipPath id="SVGID_2_">
		<use xlink:href="#SVGID_17_"  overflow="visible"/>
	</clipPath>
	<rect x="0.625" y="0.625" clip-path="url(#SVGID_2_)" fill="#FFFCF5" width="58.75" height="58.75"/>
	<polygon clip-path="url(#SVGID_2_)" fill="#EBE0D5" stroke="#553E31" stroke-miterlimit="10" points="-16.104,41.831 
		56.605,31.989 67.334,68.021 -10.257,73.574 	"/>
	<g clip-path="url(#SVGID_2_)">
		<g>
			<path fill="#553E31" d="M17.819,43.088c-0.593-0.395-0.842-1.124-1.085-1.751c-0.243-0.65-0.439-1.321-0.584-2
				c-0.305-1.359-0.341-2.749-0.271-4.1c0.062-1.332,0.342-2.739,0.88-3.985c0.536-1.254,1.193-2.418,2.131-3.428
				c0.081-0.087,0.217-0.092,0.305-0.011c0.079,0.074,0.091,0.194,0.03,0.281l-0.017,0.023c-0.709,1.017-1.208,2.242-1.521,3.447
				c-0.331,1.224-0.346,2.438-0.345,3.71c0.015,1.256,0.174,2.488,0.479,3.669c0.154,0.59,0.352,1.166,0.59,1.727
				c0.238,0.586,0.558,1.033,0.6,1.778c0.022,0.412-0.293,0.764-0.705,0.787c-0.167,0.009-0.324-0.038-0.454-0.124L17.819,43.088z"
				/>
		</g>
		<g>
			<path fill="#553E31" d="M15.316,40.583c0.479,0.415,1.027,0.777,1.578,1.031c0.55,0.254,1.129,0.385,1.58,0.309l-0.717,0.313
				c0.142-0.107,0.36-0.413,0.502-0.67c0.153-0.275,0.276-0.577,0.371-0.894c0.188-0.636,0.247-1.333,0.195-2.04
				c-0.012-0.136,0.089-0.255,0.225-0.267c0.112-0.01,0.214,0.061,0.252,0.161c0.258,0.712,0.416,1.485,0.408,2.291
				c-0.005,0.403-0.048,0.813-0.143,1.221c-0.109,0.423-0.203,0.782-0.493,1.26c-0.152,0.25-0.439,0.367-0.711,0.314l-0.008-0.001
				c-0.873-0.172-1.531-0.625-2.067-1.108c-0.536-0.495-0.967-1.036-1.332-1.634c-0.067-0.109-0.033-0.252,0.076-0.318
				c0.089-0.055,0.199-0.042,0.273,0.021L15.316,40.583z"/>
		</g>
	</g>
	
		<path clip-path="url(#SVGID_2_)" fill="#EBE0D5" stroke="#553E31" stroke-width="1.1129" stroke-linecap="round" stroke-linejoin="round" stroke-miterlimit="10" d="
		M43.61,23.417c-0.426-2.523-2.516-4.277-4.665-3.914c-0.261,0.044-0.509,0.118-0.744,0.217l-11.92,3.463l3.974,11.845l10.86-6.557
		c0.378-0.142,0.724-0.348,1.032-0.607l0.021-0.01l-0.001-0.003C43.302,26.88,43.911,25.196,43.61,23.417z"/>
	
		<path clip-path="url(#SVGID_2_)" fill="#CDB8AB" stroke="#553E31" stroke-width="1.1129" stroke-linecap="round" stroke-linejoin="round" stroke-miterlimit="10" d="
		M36.218,31.983c0.455,0.438,1.178,1.013,1.591,0.619c0.414-0.392,0.867-1.817,1.24-2.354c0.372-0.537,0.805-1.24,1.095-1.735
		c0.29-0.497,0.826-1.88,0.764-2.686c-0.063-0.806-0.187-2.108,0.104-2.892c0.29-0.786,1.054-2.252,1.488-2.935
		c0.433-0.681,0.536-1.817,0.764-2.809c0.227-0.991,0.393-3.201,1.425-4.173c1.033-0.972,4.938-3.864,6.59-4.627
		c1.654-0.765,11.074-6.509,13.202-7.954c2.127-1.446,2.148-3.409,2.148-3.409L48.407-2.064c0,0-8.637,8.966-9.918,10.206
		c-1.279,1.24-8.263,6.24-9.089,6.694c-0.826,0.454-1.942,1.736-2.354,2.727c-0.414,0.992-1.074,1.735-1.55,2.045
		c-0.477,0.31-2.355,1.343-2.687,1.695c-0.33,0.351-0.495,1.301-0.598,1.775c0,0-0.784,2.314-0.641,3.306s0.827,2.438,1.115,2.892
		c0,0,0-2.768,0.743-3.78c0.744-1.012,1.57-1.818,2.852-2.314c1.28-0.496,1.859-0.93,3.223-1.261
		c1.363-0.33,2.582-0.372,3.822-0.226c1.24,0.145,2.417,0.558,2.748,0.929c0.329,0.373,0.577,1.157,0.558,1.902
		c-0.021,0.743-0.208,1.797-0.165,2.375c0.04,0.579-0.291,1.612-0.435,2.087C35.889,29.462,35.64,31.426,36.218,31.983z"/>
	
		<ellipse transform="matrix(0.986 -0.1665 0.1665 0.986 -4.4488 5.0958)" clip-path="url(#SVGID_2_)" fill="#EBE0D5" stroke="#553E31" stroke-width="1.1129" stroke-linecap="round" stroke-linejoin="round" stroke-miterlimit="10" cx="28.174" cy="29.087" rx="5.369" ry="6.303"/>
	
		<path clip-path="url(#SVGID_2_)" fill="#CDB8AB" stroke="#553E31" stroke-linecap="round" stroke-linejoin="round" stroke-miterlimit="10" d="
		M47.924,43.542c-0.944-0.109-1.893-0.147-2.838-0.245c-0.568-0.059-1.156-0.183-1.618-0.456c-0.245-0.146-0.349-0.362-0.556-0.515
		c-0.219-0.16-0.747-0.18-1.05-0.232c-1.553-0.271-3.149-0.513-4.747-0.414c-5.511,0.336-10.776,1.416-16.053,2.652
		c-2.567,0.603-4.979,2.076-6.056,4.007c-0.896,1.606-0.917,3.302-1.634,4.93c-0.794,1.811,0.78,3.487,3.111,3.966
		c4.431,0.905,9.225,0.095,13.653-0.46c5.604-0.701,11.213-1.365,16.871-1.716c3.966-0.249,8.553-1.35,8.673-4.904
		c0.043-1.229,0.016-2.63-0.891-3.694c-0.646-0.754-2.001-1.631-3.041-2.07c-0.285-0.12-0.603-0.253-0.917-0.321
		c-0.274-0.06-0.543-0.04-0.825-0.112c-0.685-0.18-1.326-0.325-2.048-0.409C47.947,43.545,47.935,43.543,47.924,43.542z"/>
	
		<path clip-path="url(#SVGID_2_)" fill="#CDB8AB" stroke="#553E31" stroke-width="1.1129" stroke-linecap="round" stroke-linejoin="round" stroke-miterlimit="10" d="
		M33.469,28.193c-0.341,0.07-1.457,0.169-1.754,0.362c-0.809,0.522-1.845,0.988-2.756,1.295c-1.012,0.342-1.992,0.473-3.027,0.693
		c-0.848,0.181-1.216,0.931-1.758,1.626c-0.618,0.796-0.476,1.514-0.2,2.417c0.207,0.674,0.33,1.951,0.304,2.688
		c-0.029,0.786-0.077,1.801,0.179,2.56c0.324,0.959,1.565,1.221,2.549,1.171c1.002-0.052,0.902-1.338,1.198-2.134
		c0.216-0.585,0.358-1.097,0.743-1.597c0.478-0.622,0.405-1.369,0.867-1.834c0.95-0.949,1.708-1.033,2.812-2.369
		C33.409,31.748,33.469,28.193,33.469,28.193"/>
</g>
</svg>
