<?xml version="1.0" encoding="utf-8"?>
<!-- Generator: Adobe Illustrator 16.0.0, SVG Export Plug-In . SVG Version: 6.00 Build 0)  -->
<!DOCTYPE svg PUBLIC "-//W3C//DTD SVG 1.1//EN" "http://www.w3.org/Graphics/SVG/1.1/DTD/svg11.dtd">
<svg version="1.1" id="Layer_1" xmlns="http://www.w3.org/2000/svg" xmlns:xlink="http://www.w3.org/1999/xlink" x="0px" y="0px"
	 width="60px" height="60px" viewBox="0 0 60 60" enable-background="new 0 0 60 60" xml:space="preserve">
<g>
	<defs>
		<path id="SVGID_3_" d="M29.999,53.5C17.042,53.5,6.5,42.958,6.5,30c0-12.96,10.542-23.5,23.499-23.5
			C42.958,6.5,53.5,17.04,53.5,30C53.5,42.958,42.958,53.5,29.999,53.5z"/>
	</defs>
	<clipPath id="SVGID_2_">
		<use xlink:href="#SVGID_3_"  overflow="visible"/>
	</clipPath>
	<rect x="0.625" y="0.625" clip-path="url(#SVGID_2_)" fill="#FFFCF5" width="58.75" height="58.75"/>
	<polygon clip-path="url(#SVGID_2_)" fill="#EBE0D5" stroke="#553E31" stroke-miterlimit="10" points="56.519,27.884 -3.047,41.103 
		16.863,64.766 52.012,57.647 	"/>
	<path clip-path="url(#SVGID_2_)" fill="#CDB8AB" stroke="#553E31" stroke-width="0.9237" stroke-miterlimit="10" d="M28.449,18.316
		c0,0-0.5,0.281-0.513,0.592c-0.013,0.309,0.576,0.765,0.96,1.217c0.387,0.454,1.152,1.051,1.507,1.299
		c0.357,0.248,2.879,0.983,3.162,1.011c0.282,0.024,0.691-0.296,0.617-0.521c-0.074-0.222-2.079-1.938-2.29-2.218
		c-0.211-0.284-0.918-1.168-0.918-1.168L28.449,18.316z"/>
	<path clip-path="url(#SVGID_2_)" fill="#CDB8AB" stroke="#553E31" stroke-width="1.0112" stroke-miterlimit="10" d="M26.714,20.582
		c0,0,0.276,1.08,0.668,1.521c0.395,0.438,1.098,0.608,1.098,0.608s0.662-0.094,1.027-0.539c0.366-0.445,0.232-1.2,0.232-1.2
		s-0.48-0.997-0.816-1.162c-0.336-0.168-1.379-0.559-1.379-0.559L26.714,20.582z"/>
	<path clip-path="url(#SVGID_2_)" fill="#CDB8AB" stroke="#553E31" stroke-width="0.9231" stroke-miterlimit="10" d="M14.981,37.34
		c0,6.693,6.622,12.117,14.791,12.117c8.168,0,14.792-5.424,14.792-12.117H14.981z"/>
	
		<ellipse clip-path="url(#SVGID_2_)" fill="#EBE0D5" stroke="#553E31" stroke-width="0.9231" stroke-miterlimit="10" cx="29.773" cy="37.34" rx="14.792" ry="4.649"/>
	
		<ellipse transform="matrix(0.998 -0.063 0.063 0.998 -1.7995 1.952)" clip-path="url(#SVGID_2_)" fill="#EBE0D5" stroke="#553E31" stroke-width="0.9231" stroke-miterlimit="10" cx="30.05" cy="29.508" rx="14.089" ry="6.162"/>
	
		<ellipse transform="matrix(0.9988 -0.0487 0.0487 0.9988 -1.342 1.4882)" clip-path="url(#SVGID_2_)" fill="#CDB8AB" stroke="#553E31" stroke-width="0.9231" stroke-miterlimit="10" cx="29.871" cy="28.286" rx="13.657" ry="5.764"/>
	
		<ellipse transform="matrix(0.9988 -0.0489 0.0489 0.9988 -1.247 1.4654)" clip-path="url(#SVGID_2_)" fill="#EBE0D5" stroke="#553E31" stroke-width="1.0395" stroke-miterlimit="10" cx="29.344" cy="26.235" rx="4.186" ry="1.704"/>
	
		<ellipse transform="matrix(0.995 -0.0994 0.0994 0.995 -2.2327 3.0499)" clip-path="url(#SVGID_2_)" fill="#553E31" cx="29.476" cy="23.92" rx="3.805" ry="2.104"/>
	
		<ellipse transform="matrix(0.995 -0.0994 0.0994 0.995 -2.3805 3.05)" clip-path="url(#SVGID_2_)" fill="#553E31" cx="29.414" cy="25.411" rx="2.696" ry="1.244"/>
	<path clip-path="url(#SVGID_2_)" fill="#CDB8AB" stroke="#553E31" stroke-width="0.9231" stroke-miterlimit="10" d="M39.153,7.09
		c0,0-3.118,1.912-4.115,2.495c-0.997,0.582-3.159,1.87-3.783,2.121c-0.623,0.247-2.41,1.286-2.618,1.617
		c-0.208,0.334-1.288,2.746-1.787,3.202c-0.5,0.457-1.995,1.455-2.412,1.912c-0.416,0.457-0.582,0.582-0.457,1.205
		c0.125,0.622,0.171,0.993,0.188,1.273c0.015,0.28,0,0.685,0.233,1.261c0,0,0.375,0.873,0.936,1.264
		c0.561,0.389,1.308,0.982,1.62,1.044c0.312,0.063,0.343-0.094,0.453-0.422c0.109-0.327,0.061-1.338-0.187-1.605
		c-0.25-0.264-0.577-0.764-0.577-0.764s0.032-0.561-0.032-0.871c-0.061-0.312-0.061-0.312-0.061-0.312s1.479-0.438,1.808-1.435
		c0.265-0.125,1.683-0.11,2.26-0.622c0,0,1.604,0.605,2.229,0.793c-0.03,0.28-0.108,0.639-0.438,0.999
		c-0.326,0.358-0.95,1.073-1.183,1.34c-0.235,0.266-1.279,1.139-1.497,1.745c-0.218,0.608-0.53,1.295-0.186,1.885
		c0.343,0.594,1.028,0.562,1.558,0.297c0.529-0.265,1.792-1.183,2.291-1.59c0.498-0.405,1.262-1.527,1.574-2.071
		c0.312-0.549,0.966-1.093,1.886-1.81s2.493-2.01,3.039-3.195c0.546-1.185,1.277-3.442,2.915-4.955
		c1.636-1.514,5.875-3.976,6.936-4.599c1.06-0.624,1.512-1.199,1.512-1.199L39.153,7.09z"/>
	<g clip-path="url(#SVGID_2_)">
		<g>
			<path fill="#553E31" d="M11.214,33.011c-0.492-0.636-0.495-1.506-0.529-2.264c-0.025-0.785,0.007-1.573,0.097-2.352
				c0.166-1.564,0.629-3.063,1.192-4.482c0.546-1.402,1.356-2.807,2.382-3.945c1.026-1.147,2.15-2.154,3.516-2.897
				c0.118-0.064,0.266-0.021,0.33,0.098c0.059,0.107,0.027,0.24-0.069,0.312l-0.025,0.019c-1.125,0.834-2.102,1.963-2.872,3.139
				c-0.797,1.189-1.251,2.482-1.709,3.844c-0.438,1.349-0.713,2.725-0.813,4.098c-0.048,0.687-0.046,1.374,0.007,2.061
				c0.043,0.712,0.224,1.306-0.001,2.118c-0.124,0.448-0.588,0.711-1.037,0.587c-0.183-0.051-0.334-0.157-0.442-0.296L11.214,33.011
				z"/>
		</g>
		<g>
			<path fill="#553E31" d="M9.439,29.428c0.362,0.617,0.818,1.203,1.316,1.673c0.496,0.47,1.068,0.818,1.58,0.901l0,0l-0.881,0.075
				c0.19-0.063,0.535-0.311,0.779-0.535c0.263-0.238,0.504-0.517,0.719-0.821c0.43-0.611,0.746-1.336,0.947-2.11
				c0.037-0.149,0.188-0.24,0.336-0.203c0.124,0.03,0.208,0.143,0.211,0.264c0.019,0.854-0.092,1.737-0.391,2.597
				c-0.151,0.429-0.345,0.851-0.593,1.254c-0.27,0.413-0.5,0.763-0.983,1.169c-0.2,0.168-0.463,0.211-0.694,0.137l-0.187-0.062l0,0
				c-0.872-0.498-1.414-1.221-1.813-1.931c-0.396-0.724-0.661-1.458-0.836-2.229c-0.032-0.142,0.056-0.281,0.197-0.313
				c0.114-0.026,0.228,0.026,0.284,0.122L9.439,29.428z"/>
		</g>
	</g>
	<g clip-path="url(#SVGID_2_)">
		<defs>
			<path id="SVGID_5_" d="M29.66,32.592c-8.088,0-14.667,2.027-14.667,4.522c0,2.494,6.579,4.523,14.667,4.523
				c8.085,0,14.666-2.029,14.666-4.523C44.326,34.619,37.745,32.592,29.66,32.592z"/>
		</defs>
		<clipPath id="SVGID_4_">
			<use xlink:href="#SVGID_5_"  overflow="visible"/>
		</clipPath>
		
			<ellipse clip-path="url(#SVGID_4_)" fill="none" stroke="#553E31" stroke-width="0.9231" stroke-miterlimit="10" cx="30.257" cy="42.488" rx="7.605" ry="3.368"/>
	</g>
</g>
</svg>
