<?xml version="1.0" encoding="utf-8"?>
<!-- Generator: Adobe Illustrator 16.0.0, SVG Export Plug-In . SVG Version: 6.00 Build 0)  -->
<!DOCTYPE svg PUBLIC "-//W3C//DTD SVG 1.1//EN" "http://www.w3.org/Graphics/SVG/1.1/DTD/svg11.dtd">
<svg version="1.1" id="Layer_1" xmlns="http://www.w3.org/2000/svg" xmlns:xlink="http://www.w3.org/1999/xlink" x="0px" y="0px"
	 width="60px" height="60px" viewBox="0 0 60 60" enable-background="new 0 0 60 60" xml:space="preserve">
<g>
	<defs>
		<path id="SVGID_11_" d="M30,53.5c-12.958,0-23.5-10.54-23.5-23.499C6.5,17.042,17.042,6.5,30,6.5s23.5,10.542,23.5,23.501
			C53.5,42.96,42.958,53.5,30,53.5z"/>
	</defs>
	<clipPath id="SVGID_2_">
		<use xlink:href="#SVGID_11_"  overflow="visible"/>
	</clipPath>
	<rect x="0.625" y="0.625" clip-path="url(#SVGID_2_)" fill="#FFFCF5" width="58.75" height="58.75"/>
	<polygon clip-path="url(#SVGID_2_)" fill="#EBE0D5" stroke="#553E31" stroke-miterlimit="10" points="53.989,16.619 2.019,27.164 
		11.079,56.701 55.872,51.806 	"/>
	<g clip-path="url(#SVGID_2_)">
		<polygon fill="#EBE0D5" stroke="#553E31" stroke-linecap="round" stroke-linejoin="round" stroke-miterlimit="10" points="
			25.035,45.645 24.166,10.986 54.268,18.472 54.361,55.147 		"/>
		<polygon fill="#553E31" stroke="#553E31" stroke-linecap="round" stroke-linejoin="round" stroke-miterlimit="10" points="
			28.435,17.752 50.135,23.657 50.135,46.927 29.083,40.534 		"/>
		<path fill="#EBE0D5" stroke="#553E31" stroke-linecap="round" stroke-linejoin="round" stroke-miterlimit="10" d="M15.848,31.919
			c1.17-3.442,7.283-6.085,14.051-6.085c8.001,0,14.487,3.381,14.487,7.551c0,4.171-6.486,7.552-14.487,7.552
			c-3.879,0-7.284-1.024-9.885-2.318"/>
		<path fill="#CDB8AB" stroke="#553E31" stroke-linecap="round" stroke-linejoin="round" stroke-miterlimit="10" d="M0.953,24.177
			c0,0,7.248,4.836,8.687,5.771c1.442,0.936,3.1,2.141,4.112,2.018c1.013-0.122,3.238-0.038,4.374,0.669
			c1.137,0.704,2.511,2.071,3.523,2.531s2.828,1.146,3.382,1.45c0.509,0.275,0.98,0.924,0.692,1.428
			c-0.277,0.483-0.667,0.837-1.588,0.713c-0.921-0.122-3.216-0.499-3.891-1.082c-0.131-0.11-0.703-0.502-0.829-0.598
			c-0.534-0.399-1.122-0.473-1.52-0.646c0.384,0.121,1.253,0.771,1.382,0.943c0.21,0.288,0.306,0.502,0.332,0.761
			c0.035,0.323,0.325,0.428,0.681,0.621c0.338,0.185,2.094,1.13,4.834,1.68c1.939,0.394,2.688,0.478,3.361,0.509
			c-0.023,0.366-1.313,0.506-2.027,0.574c-0.712,0.069-1.112,0.3-1.642,0.323s-1.503-0.186-2.102-0.201
			c-0.954-0.022-1.275,0-1.781,0.063c-0.943,0.113-1.45,0.268-2.463,0.758c-1.013,0.492-2.349,0.714-3.315,0.046
			c-0.646-0.444-4.104-3.567-4.995-4.213c-0.89-0.645-3.653-2.333-4.911-3.099c-1.259-0.767-5.371-3.193-6.109-3.438
			C-1.595,31.513,0.953,24.177,0.953,24.177z"/>
		
			<ellipse fill="#CDB8AB" stroke="#553E31" stroke-linecap="round" stroke-linejoin="round" stroke-miterlimit="10" cx="30.128" cy="33.399" rx="7.842" ry="3.607"/>
		<path fill="#EBE0D5" stroke="#553E31" stroke-linecap="round" stroke-linejoin="round" stroke-miterlimit="10" d="M14.306,41.15"
			/>
		<g>
			<g>
				<path fill="#CDB8AB" d="M48.401,36.041c-0.064,0.606-0.506,1.1-0.878,1.545c-0.39,0.456-0.813,0.884-1.265,1.277
					c-0.898,0.797-1.931,1.407-2.979,1.921c-1.031,0.513-2.21,0.892-3.375,1.01c-1.171,0.123-2.327,0.116-3.482-0.167
					c-0.095-0.023-0.152-0.119-0.129-0.213c0.021-0.087,0.104-0.143,0.19-0.133l0.022,0.002c1.069,0.118,2.207-0.013,3.254-0.274
					c1.07-0.257,2.002-0.749,2.967-1.283c0.948-0.537,1.82-1.173,2.591-1.9c0.385-0.365,0.74-0.757,1.067-1.173
					c0.345-0.427,0.556-0.857,1.089-1.209c0.277-0.184,0.651-0.106,0.835,0.171c0.08,0.121,0.11,0.261,0.097,0.395L48.401,36.041z"
					/>
			</g>
			<g>
				<path fill="#CDB8AB" d="M47.579,39.002c0.111-0.536,0.153-1.104,0.112-1.626c-0.041-0.521-0.187-1.012-0.434-1.317l0.55,0.422
					l0,0c-0.137-0.063-0.459-0.103-0.712-0.103c-0.271-0.002-0.551,0.029-0.83,0.089c-0.559,0.122-1.112,0.366-1.627,0.698
					c-0.101,0.067-0.235,0.04-0.303-0.061c-0.055-0.083-0.044-0.191,0.018-0.264c0.43-0.494,0.949-0.94,1.563-1.274
					c0.308-0.166,0.636-0.306,0.985-0.406c0.367-0.096,0.679-0.176,1.166-0.156l0,0l0.113,0.024
					c0.213,0.047,0.374,0.204,0.437,0.397c0.235,0.737,0.167,1.429,0.024,2.038c-0.152,0.614-0.384,1.167-0.686,1.694
					c-0.057,0.099-0.182,0.133-0.28,0.076c-0.079-0.045-0.117-0.135-0.1-0.22L47.579,39.002z"/>
			</g>
		</g>
	</g>
	
		<polyline clip-path="url(#SVGID_2_)" fill="#CDB8AB" stroke="#553E31" stroke-linecap="round" stroke-linejoin="round" stroke-miterlimit="10" points="
		48.243,4.781 24.166,10.986 54.268,18.472 	"/>
</g>
</svg>
