<?xml version="1.0" encoding="utf-8"?>
<!-- Generator: Adobe Illustrator 16.0.0, SVG Export Plug-In . SVG Version: 6.00 Build 0)  -->
<!DOCTYPE svg PUBLIC "-//W3C//DTD SVG 1.1//EN" "http://www.w3.org/Graphics/SVG/1.1/DTD/svg11.dtd">
<svg version="1.1" xmlns="http://www.w3.org/2000/svg" xmlns:xlink="http://www.w3.org/1999/xlink" x="0px" y="0px" width="32px"
	 height="32px" viewBox="0 0 32 32" enable-background="new 0 0 32 32" xml:space="preserve">
<g id="Layer_1">
	<g>
		<path fill="none" stroke="#553E31" stroke-linecap="round" stroke-linejoin="round" stroke-miterlimit="10" d="M25.111,24.868
			c0,0-0.203-0.813,1.461,0c1.662,0.813-0.161,2.097,1.533,2.166c1.697,0.067,1.323-0.214,3.395-0.384"/>
		<path fill="#CDB8AB" stroke="#553E31" stroke-linecap="round" stroke-linejoin="round" stroke-miterlimit="10" d="M15.804,13.399
			l-0.42,11.164c0,0-11.937-0.166-12.819,3.221c-0.441,1.692,1.21,2.47,2.516,2.876c2.506,0.779,5.292,1.471,11.163-0.628
			c5.874-2.099,9.004-3.133,9.004-4.351c0-1.219-0.067-14.588-0.067-14.588l-7.358-0.071L15.804,13.399z"/>
		<path fill="#CDB8AB" stroke="#553E31" stroke-linecap="round" stroke-linejoin="round" stroke-miterlimit="10" d="M25.078,13.884
			c0,0-1.493,0.914-7.434-2.639C11.702,7.691,6.476,4.712,7.085,4.17c0.61-0.541,3.216-1.071,3.216-1.071l13.964,8.585
			L25.078,13.884z"/>
		<polygon fill="#CDB8AB" points="21.616,10.619 20.598,15.103 24.943,13.935 24.265,11.685 		"/>
		<path fill="#CDB8AB" stroke="#553E31" stroke-linecap="round" stroke-linejoin="round" stroke-miterlimit="10" d="M19.009,9.656
			l-3,3.406l4.182,2.48c0,0,2.103-3.077,2.443-3.855C22.021,11.451,19.009,9.656,19.009,9.656z"/>
		
			<line fill="#EBE0D5" stroke="#553E31" stroke-linecap="round" stroke-linejoin="round" stroke-miterlimit="10" x1="24.921" y1="13.86" x2="20.267" y2="15.408"/>
		
			<ellipse fill="#CDB8AB" stroke="#553E31" stroke-linecap="round" stroke-linejoin="round" stroke-miterlimit="10" cx="22.838" cy="24.096" rx="1.031" ry="1.453"/>
		<path fill="none" stroke="#553E31" stroke-linecap="round" stroke-linejoin="round" stroke-miterlimit="10" d="M20.512,15.428
			c0,0-0.21,6.979-0.288,8.865c-0.09,2.148-0.532,3.82-4.947,5.585c-4.525,1.809-9.36,0.885-11.386-0.3
			c-1.653-0.966-1.383-1.489-1.383-1.489"/>
		
			<ellipse fill="#EBE0D5" stroke="#553E31" stroke-linecap="round" stroke-linejoin="round" stroke-miterlimit="10" cx="22.872" cy="20.288" rx="0.407" ry="0.523"/>
		
			<ellipse fill="#EBE0D5" stroke="#553E31" stroke-linecap="round" stroke-linejoin="round" stroke-miterlimit="10" cx="22.872" cy="17.677" rx="0.407" ry="0.523"/>
		<path fill="#CDB8AB" stroke="#553E31" stroke-linecap="round" stroke-linejoin="round" stroke-miterlimit="10" d="M0.563,19.734
			c0,0,1.362,6.891,4.086,8.234c2.721,1.343,4.925,1.288,6.447,0.979c1.521-0.308,3.792-1.428,4.764-3.415
			c0.971-1.988,2.04-5.029,2.073-6.066C16.897,19.494,0.563,19.734,0.563,19.734z"/>
		
			<ellipse fill="#EBE0D5" stroke="#553E31" stroke-linecap="round" stroke-linejoin="round" stroke-miterlimit="10" cx="9.233" cy="19.336" rx="8.733" ry="3.587"/>
		
			<path fill="#CDB8AB" stroke="#553E31" stroke-width="1.0241" stroke-linecap="round" stroke-linejoin="round" stroke-miterlimit="10" d="
			M10.525,10.71c0,0-4.438,2.35-5.443,5.631c-0.387,1.268-0.364,3.689,1.665,4.438c2.027,0.749,2.857,0.321,3.524-0.364
			c1.275-1.312,2.005-4.699,1.055-9.305L10.525,10.71z"/>
		
			<path fill="none" stroke="#553E31" stroke-width="1.0241" stroke-linecap="round" stroke-linejoin="round" stroke-miterlimit="10" d="
			M10.708,11.131c0,0-5.41,5.468-3.913,9.558"/>
		
			<path fill="none" stroke="#553E31" stroke-width="1.0241" stroke-linecap="round" stroke-linejoin="round" stroke-miterlimit="10" d="
			M10.828,11.152c0,0-0.731,8.439-3.393,9.81"/>
		<path fill="none" stroke="#553E31" stroke-linecap="round" stroke-linejoin="round" stroke-miterlimit="10" d="M6.239,19.284"/>
		<path fill="none" stroke="#553E31" stroke-linecap="round" stroke-linejoin="round" stroke-miterlimit="10" d="M9.144,10.698"/>
		<path fill="#553E31" d="M11.624,6.254c-0.115,0.274-1.862,5.004-1.862,5.004l1.707,0.699c0,0,1.589-3.976,1.825-4.633
			C13.599,6.479,11.839,5.747,11.624,6.254z"/>
		<path fill="#EBE0D5" stroke="#553E31" stroke-linecap="round" stroke-linejoin="round" stroke-miterlimit="10" d="M8.474,1.348
			L7.085,4.17c0,0,1.653-1.287,5.997,1.388c4.346,2.674,11.69,6.939,11.996,8.326c0.44-1.692,0.294-3.187,0.294-3.187
			s-0.046-0.847-0.079-1.287c-0.035-0.44-0.124-0.846-0.192-1.185c-0.068-0.338-10.584-7.27-13.197-7.575
			C9.29,0.347,8.684,1.036,8.474,1.348z"/>
	</g>
</g>
<g id="Layer_3">
</g>
</svg>
