<?xml version="1.0" encoding="utf-8"?>
<!-- Generator: Adobe Illustrator 16.0.0, SVG Export Plug-In . SVG Version: 6.00 Build 0)  -->
<!DOCTYPE svg PUBLIC "-//W3C//DTD SVG 1.1//EN" "http://www.w3.org/Graphics/SVG/1.1/DTD/svg11.dtd">
<svg version="1.1" xmlns="http://www.w3.org/2000/svg" xmlns:xlink="http://www.w3.org/1999/xlink" x="0px" y="0px" width="32px"
	 height="32px" viewBox="0 0 32 32" enable-background="new 0 0 32 32" xml:space="preserve">
<g id="Layer_1">
	<g>
		
			<polygon fill="#CDB8AB" stroke="#553E31" stroke-width="0.75" stroke-linecap="round" stroke-linejoin="round" stroke-miterlimit="10" points="
			9.2,6.551 17.058,5.912 22.748,7.223 13.909,8.076 12.986,7.916 		"/>
		
			<path fill="#CDB8AB" stroke="#553E31" stroke-width="0.75" stroke-linecap="round" stroke-linejoin="round" stroke-miterlimit="10" d="
			M17.912,5.961c0,0,0.657-3.594,0.702-4.189c0.129-1.764,2.265-1.988,2.413,0.279c0.087,1.318,0.66,4.826,0.66,4.826L17.912,5.961z
			"/>
		
			<path fill="#E4D7CD" stroke="#553E31" stroke-width="0.75" stroke-linecap="round" stroke-linejoin="round" stroke-miterlimit="10" d="
			M11.538,0.799l8.275-0.424c0,0,0.715-0.039,1.016,0.725c0.3,0.764,0.021,1.6-0.434,1.619C19.943,2.738,12.8,3.082,12.8,3.082"/>
		
			<path fill="#E4D7CD" stroke="#553E31" stroke-width="0.75" stroke-linecap="round" stroke-linejoin="round" stroke-miterlimit="10" d="
			M9.813,7.705c0,0,0.474-4.939,0.518-5.535c0.131-1.764,2.267-1.988,2.415,0.279c0.085,1.32,0.689,5.795,0.689,5.795L9.813,7.705z"
			/>
		
			<polygon fill="#E4D7CD" stroke="#553E31" stroke-width="0.75" stroke-linecap="round" stroke-linejoin="round" stroke-miterlimit="10" points="
			9.2,6.59 8.131,28.988 14.039,31.625 23.869,28.098 22.748,7.223 13.909,8.076 		"/>
		<line fill="none" stroke="#553E31" stroke-width="0.75" stroke-miterlimit="10" x1="13.909" y1="8.076" x2="14.039" y2="31.625"/>
		<g>
			<path fill="#553E31" d="M16.171,9.402c-0.42,0.07-0.76,0.389-0.758,0.713l0.001,0.648c0.515-0.303,1.048-0.609,1.517-0.912
				C16.921,9.535,16.585,9.332,16.171,9.402z"/>
			<path fill="#CDB8AB" d="M16.194,11.832c0.424-0.078,0.761-0.408,0.757-0.736l-0.02-1.238c0-0.002-0.001-0.004-0.001-0.006
				c-0.469,0.303-1.002,0.609-1.517,0.912l0.006,0.611C15.421,11.707,15.769,11.912,16.194,11.832z"/>
			<path fill="#553E31" d="M18.543,9.012c-0.402,0.064-0.727,0.375-0.723,0.693l0.017,0.633c0.486-0.295,0.996-0.592,1.441-0.885
				C19.267,9.141,18.939,8.945,18.543,9.012z"/>
			<path fill="#CDB8AB" d="M18.603,11.383c0.403-0.076,0.722-0.396,0.712-0.715l-0.033-1.211c0-0.002-0.003-0.002-0.003-0.004
				c-0.445,0.293-0.955,0.59-1.441,0.885l0.013,0.598C17.854,11.258,18.194,11.461,18.603,11.383z"/>
			<path fill="#553E31" d="M20.818,8.635C20.431,8.697,20.127,9,20.136,9.311l0.021,0.617c0.465-0.285,0.95-0.572,1.376-0.859
				C21.516,8.766,21.198,8.57,20.818,8.635z"/>
			<path fill="#CDB8AB" d="M20.908,10.951c0.39-0.072,0.691-0.385,0.679-0.697l-0.052-1.182c0-0.002-0.002-0.002-0.002-0.004
				c-0.426,0.287-0.911,0.574-1.376,0.859l0.022,0.584C20.19,10.828,20.517,11.025,20.908,10.951z"/>
			<path fill="#553E31" d="M16.202,12.566c-0.429,0.082-0.776,0.422-0.772,0.762l0.001,0.674c0.521-0.328,1.069-0.66,1.544-0.986
				C16.968,12.684,16.624,12.486,16.202,12.566z"/>
			<path fill="#CDB8AB" d="M16.226,15.096c0.429-0.094,0.774-0.443,0.771-0.785l-0.017-1.289c0-0.002-0.005-0.006-0.005-0.006
				c-0.475,0.326-1.023,0.658-1.544,0.986l0.003,0.637C15.437,14.984,15.793,15.189,16.226,15.096z"/>
			<path fill="#553E31" d="M18.617,12.1c-0.407,0.078-0.738,0.41-0.73,0.74l0.013,0.658c0.498-0.32,1.017-0.641,1.472-0.957
				C19.355,12.217,19.024,12.021,18.617,12.1z"/>
			<path fill="#CDB8AB" d="M18.681,14.566c0.412-0.088,0.737-0.43,0.73-0.762l-0.039-1.26c0,0-0.001-0.002-0.001-0.004
				c-0.455,0.316-0.974,0.637-1.472,0.957l0.013,0.621C17.919,14.455,18.266,14.656,18.681,14.566z"/>
			<path fill="#553E31" d="M20.938,11.65c-0.394,0.076-0.706,0.398-0.694,0.721l0.021,0.643c0.474-0.311,0.969-0.619,1.399-0.928
				C21.646,11.77,21.322,11.578,20.938,11.65z"/>
			<path fill="#CDB8AB" d="M21.032,14.059c0.395-0.082,0.702-0.416,0.689-0.74l-0.054-1.229c0-0.002-0.003-0.004-0.003-0.004
				c-0.431,0.309-0.926,0.617-1.399,0.928l0.021,0.605C20.3,13.949,20.635,14.146,21.032,14.059z"/>
			<path fill="#553E31" d="M16.233,15.859c-0.437,0.098-0.79,0.463-0.788,0.814l0.004,0.703c0.527-0.357,1.086-0.715,1.573-1.07
				C17.014,15.965,16.665,15.764,16.233,15.859z"/>
			<path fill="#CDB8AB" d="M16.26,18.496c0.438-0.109,0.79-0.484,0.783-0.84l-0.021-1.344c0-0.002,0-0.004,0-0.006
				c-0.487,0.355-1.046,0.713-1.573,1.07l0.003,0.662C15.452,18.4,15.815,18.604,16.26,18.496z"/>
			<path fill="#553E31" d="M18.699,15.311c-0.42,0.096-0.755,0.449-0.745,0.791l0.012,0.686c0.507-0.346,1.036-0.693,1.5-1.033
				C19.448,15.416,19.111,15.221,18.699,15.311z"/>
			<path fill="#CDB8AB" d="M18.763,17.881c0.42-0.104,0.752-0.467,0.742-0.813l-0.037-1.311l-0.002-0.004
				c-0.464,0.34-0.993,0.688-1.5,1.033l0.013,0.645C17.985,17.785,18.339,17.984,18.763,17.881z"/>
			<path fill="#553E31" d="M21.062,14.789c-0.399,0.088-0.717,0.432-0.707,0.766l0.022,0.67c0.483-0.338,0.986-0.672,1.423-1.004
				C21.785,14.895,21.456,14.699,21.062,14.789z"/>
			<path fill="#CDB8AB" d="M21.16,17.293c0.402-0.098,0.716-0.451,0.703-0.789l-0.061-1.277c0-0.002-0.003-0.004-0.003-0.006
				c-0.437,0.332-0.939,0.666-1.423,1.004l0.021,0.629C20.412,17.197,20.752,17.395,21.16,17.293z"/>
			<path fill="#553E31" d="M16.266,19.291c-0.444,0.113-0.809,0.5-0.806,0.869l0.004,0.732c0.543-0.385,1.113-0.773,1.609-1.152
				C17.062,19.379,16.706,19.18,16.266,19.291z"/>
			<path fill="#CDB8AB" d="M16.294,22.039c0.45-0.123,0.809-0.525,0.801-0.895l-0.021-1.4c0-0.002-0.001-0.004-0.001-0.004
				c-0.496,0.379-1.066,0.768-1.609,1.152l0.004,0.693C15.469,21.961,15.842,22.164,16.294,22.039z"/>
			<path fill="#553E31" d="M18.786,18.656c-0.43,0.109-0.772,0.486-0.766,0.844l0.015,0.713c0.516-0.371,1.057-0.746,1.527-1.115
				C19.547,18.748,19.201,18.551,18.786,18.656z"/>
			<path fill="#CDB8AB" d="M18.847,21.334c0.432-0.119,0.771-0.506,0.76-0.869l-0.042-1.363c0-0.002-0.002-0.002-0.002-0.004
				c-0.471,0.369-1.012,0.744-1.527,1.115l0.013,0.674C18.057,21.252,18.416,21.453,18.847,21.334z"/>
			<path fill="#553E31" d="M21.19,18.051c-0.409,0.104-0.731,0.469-0.72,0.818l0.022,0.695c0.494-0.361,1.004-0.723,1.454-1.082
				C21.929,18.141,21.592,17.949,21.19,18.051z"/>
			<path fill="#CDB8AB" d="M21.293,20.66c0.411-0.113,0.73-0.49,0.713-0.844l-0.059-1.33c0.001,0,0-0.002,0-0.004
				c-0.45,0.359-0.96,0.721-1.454,1.082l0.024,0.656C20.531,20.576,20.879,20.773,21.293,20.66z"/>
			<path fill="#553E31" d="M16.301,22.869c-0.455,0.129-0.824,0.545-0.822,0.93l0.002,0.766c0.556-0.418,1.138-0.838,1.644-1.25
				C17.114,22.945,16.749,22.744,16.301,22.869z"/>
			<path fill="#CDB8AB" d="M16.329,25.74c0.461-0.143,0.824-0.568,0.817-0.955l-0.02-1.463c0-0.004-0.003-0.006-0.003-0.008
				c-0.506,0.412-1.088,0.832-1.644,1.25l0.005,0.721C15.487,25.678,15.865,25.883,16.329,25.74z"/>
			<path fill="#553E31" d="M18.871,22.141c-0.438,0.125-0.786,0.529-0.779,0.9l0.015,0.746c0.527-0.404,1.077-0.811,1.56-1.205
				C19.65,22.219,19.298,22.02,18.871,22.141z"/>
			<path fill="#CDB8AB" d="M18.938,24.934c0.437-0.135,0.778-0.551,0.771-0.924l-0.041-1.424c0-0.002-0.002-0.004-0.002-0.004
				c-0.482,0.395-1.032,0.801-1.56,1.205l0.015,0.701C18.13,24.869,18.496,25.07,18.938,24.934z"/>
			<path fill="#553E31" d="M21.322,21.447c-0.414,0.117-0.744,0.508-0.73,0.871l0.024,0.725c0.5-0.391,1.022-0.781,1.481-1.164
				C22.076,21.523,21.733,21.33,21.322,21.447z"/>
			<path fill="#CDB8AB" d="M21.432,24.164c0.419-0.129,0.743-0.529,0.727-0.896l-0.061-1.387v-0.002
				c-0.459,0.383-0.981,0.773-1.481,1.164l0.024,0.684C20.653,24.098,21.009,24.295,21.432,24.164z"/>
			<path fill="#553E31" d="M16.338,26.607c-0.466,0.146-0.844,0.592-0.84,0.99l0.002,0.801c0.565-0.451,1.162-0.906,1.68-1.35
				C17.169,26.66,16.796,26.463,16.338,26.607z"/>
			<path fill="#CDB8AB" d="M16.366,29.604c0.469-0.162,0.844-0.617,0.837-1.02l-0.023-1.527c0-0.004,0-0.006,0-0.008
				c-0.518,0.443-1.114,0.898-1.68,1.35l0.002,0.754C15.506,29.564,15.892,29.764,16.366,29.604z"/>
			<path fill="#553E31" d="M18.96,25.777c-0.445,0.141-0.801,0.568-0.794,0.961l0.018,0.777c0.537-0.436,1.1-0.875,1.59-1.303
				C19.758,25.832,19.396,25.639,18.96,25.777z"/>
			<path fill="#CDB8AB" d="M19.03,28.689c0.447-0.152,0.799-0.594,0.789-0.986l-0.045-1.484c0-0.004-0.001-0.004-0.001-0.006
				c-0.49,0.428-1.053,0.867-1.59,1.303l0.014,0.732C18.206,28.645,18.581,28.844,19.03,28.689z"/>
			<path fill="#553E31" d="M21.464,24.986c-0.425,0.133-0.761,0.549-0.746,0.928l0.024,0.756c0.509-0.42,1.045-0.844,1.51-1.256
				C22.231,25.045,21.881,24.854,21.464,24.986z"/>
			<path fill="#CDB8AB" d="M21.573,27.82c0.428-0.148,0.762-0.576,0.742-0.957l-0.063-1.443c0-0.002-0.001-0.004-0.001-0.006
				c-0.465,0.412-1.001,0.836-1.51,1.256l0.027,0.713C20.783,27.771,21.145,27.967,21.573,27.82z"/>
		</g>
		<g>
			<g>
				<path fill="#553E31" d="M13.064,26.794c-0.179,0.353-0.478,0.665-0.852,0.871c-0.372,0.214-0.82,0.281-1.24,0.269
					c-0.395-0.03-0.875-0.173-1.204-0.452c-0.343-0.284-0.562-0.681-0.613-1.084c-0.011-0.08,0.046-0.153,0.126-0.164
					c0.054-0.007,0.107,0.021,0.138,0.061c0.217,0.289,0.447,0.522,0.718,0.666c0.278,0.151,0.539,0.227,0.885,0.242
					c0.644,0.072,1.235-0.16,1.828-0.594c0.065-0.048,0.156-0.034,0.204,0.031C13.087,26.686,13.088,26.747,13.064,26.794z"/>
			</g>
			<g>
				<path fill="#CDB8AB" d="M13.003,27.279c-0.178,0.357-0.479,0.674-0.854,0.883c-0.375,0.218-0.826,0.287-1.251,0.274
					c-0.397-0.028-0.884-0.172-1.216-0.456c-0.344-0.288-0.563-0.688-0.614-1.096c-0.01-0.08,0.047-0.153,0.127-0.163
					c0.055-0.007,0.108,0.021,0.139,0.062c0.216,0.293,0.447,0.532,0.719,0.678c0.281,0.154,0.543,0.23,0.894,0.245
					c0.649,0.071,1.249-0.168,1.843-0.61c0.063-0.049,0.155-0.035,0.203,0.029C13.025,27.17,13.027,27.232,13.003,27.279z"/>
			</g>
		</g>
		<g>
			<g>
				<path fill="#553E31" d="M13.069,23.818c-0.174,0.336-0.471,0.628-0.835,0.813c-0.363,0.193-0.791,0.241-1.189,0.224
					c-0.373-0.038-0.828-0.175-1.143-0.438c-0.327-0.269-0.544-0.646-0.595-1.031c-0.011-0.081,0.046-0.154,0.127-0.165
					c0.053-0.007,0.105,0.02,0.137,0.058c0.213,0.269,0.437,0.482,0.694,0.614c0.267,0.14,0.513,0.213,0.842,0.232
					c0.611,0.08,1.175-0.106,1.751-0.498c0.067-0.045,0.158-0.027,0.203,0.039C13.093,23.712,13.093,23.772,13.069,23.818z"/>
			</g>
			<g>
				<path fill="#CDB8AB" d="M13.011,24.268c-0.176,0.337-0.473,0.632-0.838,0.82c-0.365,0.196-0.795,0.247-1.196,0.232
					c-0.382-0.038-0.835-0.176-1.153-0.442c-0.33-0.271-0.546-0.651-0.598-1.039c-0.011-0.081,0.046-0.154,0.127-0.165
					c0.053-0.007,0.105,0.019,0.137,0.058c0.214,0.272,0.438,0.489,0.697,0.623c0.269,0.141,0.521,0.216,0.848,0.235
					c0.617,0.076,1.185-0.118,1.768-0.514c0.066-0.045,0.157-0.028,0.202,0.039C13.035,24.161,13.035,24.222,13.011,24.268z"/>
			</g>
		</g>
		<g>
			<g>
				<path fill="#553E31" d="M13.072,21.071c-0.173,0.319-0.468,0.589-0.82,0.755c-0.354,0.176-0.76,0.208-1.14,0.187
					c-0.354-0.042-0.784-0.172-1.087-0.422c-0.313-0.255-0.526-0.614-0.573-0.986c-0.011-0.08,0.047-0.154,0.127-0.164
					c0.052-0.007,0.101,0.015,0.131,0.052l0.004,0.005c0.207,0.25,0.424,0.445,0.67,0.566c0.255,0.128,0.488,0.198,0.803,0.221
					c0.581,0.084,1.116-0.066,1.683-0.41c0.069-0.042,0.159-0.021,0.201,0.049C13.099,20.969,13.097,21.027,13.072,21.071z"/>
			</g>
			<g>
				<path fill="#CDB8AB" d="M13.018,21.483c-0.174,0.32-0.468,0.594-0.822,0.764c-0.354,0.179-0.766,0.215-1.148,0.194
					c-0.357-0.043-0.791-0.175-1.096-0.427c-0.315-0.256-0.53-0.617-0.579-0.992c-0.01-0.08,0.047-0.154,0.128-0.164
					c0.052-0.007,0.101,0.015,0.131,0.052l0.005,0.005c0.208,0.253,0.426,0.449,0.674,0.573c0.258,0.13,0.494,0.201,0.811,0.224
					c0.585,0.084,1.123-0.075,1.694-0.426c0.068-0.043,0.159-0.021,0.201,0.048C13.044,21.38,13.042,21.439,13.018,21.483z"/>
			</g>
		</g>
		<g>
			<g>
				<path fill="#553E31" d="M13.079,18.416c-0.171,0.304-0.464,0.557-0.807,0.706c-0.343,0.16-0.731,0.179-1.093,0.156
					c-0.339-0.048-0.746-0.172-1.037-0.41c-0.3-0.241-0.513-0.583-0.56-0.941c-0.01-0.08,0.047-0.154,0.127-0.165
					c0.051-0.007,0.099,0.013,0.13,0.048l0.005,0.006c0.204,0.232,0.414,0.41,0.65,0.522c0.246,0.119,0.47,0.188,0.769,0.212
					c0.555,0.088,1.063-0.031,1.616-0.337c0.071-0.039,0.161-0.014,0.2,0.058C13.105,18.316,13.103,18.373,13.079,18.416z"/>
			</g>
			<g>
				<path fill="#CDB8AB" d="M13.023,18.803c-0.171,0.306-0.465,0.56-0.81,0.712c-0.344,0.161-0.734,0.182-1.099,0.16
					c-0.344-0.048-0.751-0.174-1.044-0.414c-0.302-0.243-0.515-0.587-0.562-0.947c-0.011-0.081,0.047-0.154,0.127-0.165
					c0.051-0.007,0.099,0.013,0.13,0.049l0.005,0.005c0.205,0.235,0.415,0.415,0.653,0.529c0.247,0.12,0.475,0.19,0.771,0.215
					c0.56,0.086,1.072-0.036,1.628-0.347c0.071-0.039,0.161-0.014,0.2,0.058C13.051,18.703,13.048,18.76,13.023,18.803z"/>
			</g>
		</g>
		<g>
			<g>
				<path fill="#553E31" d="M13.086,15.886c-0.169,0.29-0.459,0.525-0.792,0.661c-0.333,0.146-0.704,0.154-1.05,0.13
					c-0.322-0.05-0.714-0.172-0.992-0.398c-0.289-0.231-0.496-0.557-0.544-0.901c-0.011-0.081,0.046-0.156,0.127-0.167
					c0.049-0.007,0.096,0.012,0.127,0.045l0.006,0.005c0.203,0.217,0.406,0.382,0.634,0.486c0.236,0.111,0.448,0.177,0.734,0.203
					c0.532,0.09,1.016-0.003,1.557-0.272c0.073-0.036,0.162-0.007,0.198,0.066C13.114,15.789,13.109,15.844,13.086,15.886z"/>
			</g>
			<g>
				<path fill="#CDB8AB" d="M13.032,16.243c-0.17,0.291-0.461,0.528-0.795,0.665c-0.335,0.146-0.709,0.157-1.057,0.132
					c-0.321-0.049-0.718-0.171-0.998-0.398c-0.29-0.232-0.498-0.56-0.547-0.905c-0.012-0.08,0.044-0.155,0.125-0.167
					c0.05-0.007,0.097,0.011,0.129,0.045l0.004,0.005c0.205,0.219,0.41,0.385,0.639,0.49c0.239,0.111,0.45,0.177,0.741,0.203
					c0.534,0.091,1.021-0.006,1.565-0.278c0.073-0.036,0.162-0.007,0.198,0.066C13.061,16.146,13.056,16.201,13.032,16.243z"/>
			</g>
		</g>
		<g>
			<g>
				<path fill="#553E31" d="M13.089,13.417c-0.166,0.279-0.454,0.499-0.776,0.621c-0.324,0.132-0.679,0.133-1.01,0.106
					c-0.313-0.056-0.68-0.173-0.949-0.39c-0.276-0.22-0.482-0.531-0.528-0.865c-0.012-0.081,0.046-0.156,0.127-0.167
					c0.048-0.007,0.094,0.01,0.125,0.042l0.006,0.006c0.199,0.203,0.396,0.353,0.616,0.45c0.227,0.104,0.435,0.169,0.704,0.197
					c0.511,0.093,0.971,0.021,1.498-0.214c0.074-0.033,0.163,0,0.196,0.075C13.118,13.325,13.112,13.377,13.089,13.417z"/>
			</g>
			<g>
				<path fill="#CDB8AB" d="M13.041,13.749c-0.167,0.28-0.455,0.503-0.779,0.627c-0.326,0.134-0.684,0.136-1.018,0.108
					c-0.31-0.053-0.684-0.171-0.954-0.389c-0.279-0.221-0.485-0.534-0.532-0.87c-0.012-0.081,0.045-0.156,0.126-0.167
					c0.049-0.007,0.095,0.01,0.126,0.042l0.006,0.006c0.2,0.205,0.398,0.356,0.619,0.455c0.23,0.104,0.435,0.169,0.712,0.196
					c0.512,0.094,0.976,0.02,1.505-0.222c0.075-0.033,0.163-0.001,0.197,0.074C13.069,13.656,13.064,13.708,13.041,13.749z"/>
			</g>
		</g>
		<g>
			<g>
				<path fill="#553E31" d="M13.097,11.117c-0.166,0.267-0.448,0.472-0.761,0.584c-0.315,0.12-0.656,0.116-0.975,0.088
					c-0.297-0.058-0.649-0.169-0.91-0.377c-0.268-0.21-0.471-0.51-0.515-0.834c-0.011-0.082,0.047-0.156,0.128-0.168
					c0.047-0.006,0.092,0.011,0.123,0.041l0.007,0.006c0.195,0.19,0.386,0.327,0.598,0.419c0.22,0.095,0.418,0.158,0.679,0.187
					c0.489,0.095,0.928,0.04,1.444-0.164c0.077-0.03,0.164,0.008,0.194,0.084C13.127,11.028,13.12,11.078,13.097,11.117z"/>
			</g>
			<g>
				<path fill="#CDB8AB" d="M13.049,11.429c-0.167,0.27-0.451,0.475-0.765,0.588c-0.315,0.122-0.658,0.119-0.979,0.09
					c-0.298-0.056-0.654-0.169-0.915-0.377c-0.269-0.211-0.473-0.511-0.519-0.837c-0.011-0.081,0.046-0.156,0.127-0.168
					c0.047-0.007,0.092,0.01,0.124,0.04l0.007,0.007c0.195,0.19,0.389,0.329,0.602,0.422c0.222,0.096,0.419,0.159,0.684,0.188
					c0.49,0.095,0.934,0.037,1.45-0.169c0.077-0.031,0.164,0.006,0.194,0.083C13.078,11.34,13.072,11.391,13.049,11.429z"/>
			</g>
		</g>
	</g>
</g>
<g id="Layer_3">
</g>
</svg>
