<?xml version="1.0" encoding="utf-8"?>
<!-- Generator: Adobe Illustrator 16.0.0, SVG Export Plug-In . SVG Version: 6.00 Build 0)  -->
<!DOCTYPE svg PUBLIC "-//W3C//DTD SVG 1.1//EN" "http://www.w3.org/Graphics/SVG/1.1/DTD/svg11.dtd">
<svg version="1.1" xmlns="http://www.w3.org/2000/svg" xmlns:xlink="http://www.w3.org/1999/xlink" x="0px" y="0px" width="32px"
	 height="32px" viewBox="0 0 32 32" enable-background="new 0 0 32 32" xml:space="preserve">
<g id="Layer_1">
	<g>
		<g>
			<path fill="#CDB8AB" d="M15.115,31.622c-3.368-0.077-5.977-1.48-5.938-3.194c0.032-1.474,1.969-2.633,4.752-2.874
				c0.18-3.145,0.381-6.733,0.381-6.951c0-0.293-0.308-0.472-0.777-0.712c-0.203-0.104-0.396-0.205-0.543-0.316
				c-2.022-1.538-3.516-4.258-3.997-7.275c-0.194-1.217-0.197-2.57-0.01-4.139c0.43-3.517,0.631-3.517,0.964-3.517
				c0.037,0,10.33,0.12,12.393,0.145c0.101,0.001,0.253,0.071,0.322,0.144c0.54,0.558,0.491,4.825,0.49,4.867
				c-0.063,2.335-0.633,4.563-1.646,6.448c-0.529,0.984-1.188,1.818-1.959,2.479c-1.05,0.904-1.92,1.458-2.659,1.693
				c-0.103,0.032-0.152,0.1-0.146,0.2l0.07,7.028c2.628,0.409,4.414,1.643,4.382,3.057c-0.037,1.665-2.526,2.92-5.789,2.92
				L15.115,31.622z"/>
			<path fill="#553E31" d="M9.946,3.019L9.946,3.019c0.037,0,12.389,0.145,12.389,0.145c0.412,0.004,0.451,4.224,0.441,4.627
				c-0.059,2.158-0.576,4.373-1.602,6.279c-0.482,0.896-1.1,1.709-1.873,2.373c-0.686,0.59-1.658,1.343-2.529,1.62
				c-0.453,0.145-0.406,0.588-0.406,0.588l0.072,7.324c2.531,0.32,4.408,1.436,4.379,2.722c-0.032,1.436-2.431,2.554-5.414,2.554
				c-0.093,0-0.186-0.001-0.279-0.003c-3.111-0.071-5.605-1.33-5.572-2.811c0.029-1.325,2.076-2.376,4.732-2.532
				c0.131-2.283,0.4-7.029,0.4-7.302c0-0.758-1.002-0.973-1.469-1.327c-2.15-1.636-3.436-4.414-3.854-7.035
				C9.149,8.906,9.194,7.543,9.354,6.205C9.386,5.949,9.769,3.019,9.946,3.019 M9.946,2.269c-0.673,0-0.887,0.164-1.336,3.846
				c-0.192,1.604-0.188,2.992,0.012,4.244c0.495,3.11,2.043,5.919,4.14,7.514c0.185,0.141,0.396,0.248,0.6,0.353
				c0.173,0.088,0.531,0.271,0.573,0.371c-0.002,0.214-0.143,2.784-0.362,6.618c-2.806,0.323-4.734,1.595-4.771,3.206
				c-0.044,1.956,2.667,3.493,6.305,3.577c0.1,0.002,0.198,0.003,0.297,0.003c3.528,0,6.121-1.382,6.164-3.287
				c0.035-1.573-1.701-2.891-4.385-3.382l-0.065-6.593c0.762-0.27,1.638-0.836,2.674-1.728c0.805-0.69,1.493-1.562,2.044-2.586
				c1.042-1.936,1.626-4.223,1.691-6.614c0.001-0.047,0.099-4.422-0.596-5.14c-0.158-0.164-0.367-0.256-0.589-0.258
				C18.629,2.37,9.983,2.269,9.946,2.269L9.946,2.269z"/>
		</g>
		<g>
			<path fill="#CDB8AB" d="M16.121,5.948C12.37,5.917,9.55,4.695,9.562,3.106c0.014-1.557,2.793-2.731,6.464-2.731l0.143,0.001
				c1.704,0.015,3.309,0.288,4.52,0.77c1.322,0.527,2.047,1.263,2.04,2.072c-0.014,1.557-2.793,2.731-6.464,2.731L16.121,5.948z"/>
			<path fill="#553E31" d="M16.025,0.75c0.047,0,0.093,0.001,0.14,0.001c3.428,0.029,6.199,1.132,6.188,2.464
				c-0.012,1.313-2.726,2.359-6.089,2.359c-0.047,0-0.093-0.001-0.14-0.001c-3.428-0.028-6.197-1.132-6.188-2.464
				C9.948,1.796,12.66,0.75,16.025,0.75 M16.025,0L16.025,0c-3.385,0-6.821,1.066-6.839,3.103c-0.016,2.077,3.476,3.192,6.932,3.221
				l0.146,0.001c3.385,0,6.821-1.066,6.839-3.103c0.005-0.565-0.284-1.631-2.276-2.424c-1.253-0.499-2.906-0.782-4.654-0.797
				L16.025,0L16.025,0z"/>
		</g>
		<path fill="#EBE0D5" d="M18.767,26.87c0.338,0.093,0.637,0.286,0.887,0.528c0.256,0.246,0.502,0.532,0.592,0.884
			c0.1,0.387,0.029,0.785-0.215,1.105c-0.379,0.492-0.965,0.755-1.539,0.933c-0.666,0.205-1.354,0.343-2.049,0.4
			c-0.373,0.03-0.754,0.043-1.129,0.028c-0.922-0.035-0.521-0.245,0.576-0.402c1.139-0.164,2.609-0.395,3.426-1.278
			c0.629-0.681-0.115-1.826-0.754-2.231C18.624,26.838,18.692,26.85,18.767,26.87z"/>
		<path fill="#EBE0D5" d="M15.669,18.923c0.035,0.412,0.178,7.099,0.195,7.711c0.02,0.612-0.08,1.306-0.285,1.488
			c-0.496,0.443-1.557-0.307-1.527-0.156c0.047,0.241,0.658,0.748,1.086,0.821c0.627,0.108,1.684-0.06,2.029-0.624
			c0.193-0.315,0.049-0.988-0.238-0.594c-0.377,0.516-0.49,0.313-0.67-0.065c-0.178-0.378-0.197-3.155-0.197-4.307
			s-0.039-3.821-0.012-4.415c0.02-0.372,0.18-0.385,0.145-0.552c-0.018-0.076-0.244,0.098-0.537,0.103
			c-0.352,0.005-0.736-0.186-0.752-0.097C14.876,18.398,15.632,18.51,15.669,18.923z"/>
		<path fill="#EBE0D5" d="M22.329,4.908c-0.52,0.558-0.752,0.756-1.809,1.008c0.07,3.652-0.662,7.197-1.469,8.781
			c-0.814,1.601-1.074,1.898-1.594,2.267c-0.074,0.054-0.984,0.783-0.93,0.847c0.16-0.036,0.666-0.269,0.975-0.423
			c0.574-0.288,1.389-1.035,1.961-1.611c0.572-0.575,1.576-2.015,1.986-3.221c0.412-1.206,0.609-1.8,0.771-3.455
			C22.382,7.445,22.329,4.908,22.329,4.908z"/>
		<g>
			<defs>
				<ellipse id="SVGID_11_" transform="matrix(1 0.0085 -0.0085 1 0.0274 -0.137)" cx="16.145" cy="3.162" rx="6.208" ry="2.411"/>
			</defs>
			<clipPath id="SVGID_2_">
				<use xlink:href="#SVGID_11_"  overflow="visible"/>
			</clipPath>
			<path clip-path="url(#SVGID_2_)" fill="#EBE0D5" d="M14.165,1.479c0.035-0.162-1.441,0.271-2.176,0.558
				c-0.734,0.289-1.414,0.77-1.422,1.35c-0.01,0.576,0.018,1.18,0.018,1.18l1.557,0.81c0,0-0.068-0.795-0.07-1.35
				c-0.004-0.556,0.057-1.083,0.285-1.413C12.587,2.283,14.13,1.642,14.165,1.479z"/>
		</g>
	</g>
</g>
<g id="Layer_3">
</g>
</svg>
