<?xml version="1.0" encoding="utf-8"?>
<!-- Generator: Adobe Illustrator 16.0.0, SVG Export Plug-In . SVG Version: 6.00 Build 0)  -->
<!DOCTYPE svg PUBLIC "-//W3C//DTD SVG 1.1//EN" "http://www.w3.org/Graphics/SVG/1.1/DTD/svg11.dtd">
<svg version="1.1" xmlns="http://www.w3.org/2000/svg" xmlns:xlink="http://www.w3.org/1999/xlink" x="0px" y="0px" width="32px"
	 height="32px" viewBox="0 0 32 32" enable-background="new 0 0 32 32" xml:space="preserve">
<g id="Layer_1">
	<g>
		<g id="XMLID_28_">
			<path fill="#EBE0D5" d="M7.55,31.575c-0.303,0-0.57-0.04-0.795-0.12c-0.42-0.146-0.847-0.203-1.258-0.257
				c-0.398-0.053-0.774-0.103-1.108-0.231c-0.686-0.264-1.253-0.481-1.442-1.631c-0.048-0.291-0.066-0.499-0.08-0.666
				c-0.03-0.356-0.038-0.441-0.356-0.903c-0.58-0.849-1.166-2.14-1.303-2.727c-0.127-0.583,0.012-0.858,0.257-1.094
				c0.42-0.462,1.049-0.849,2.02-1.263c0.34-0.149,1.545-1.024,3.142-2.284c0.314-0.248,0.691-0.276,0.948-0.276
				c0.114,0,0.229,0.006,0.343,0.013c0.092,0.005,0.182,0.011,0.267,0.011c0.072,0,0.127-0.004,0.168-0.013
				c0.157-0.086,0.668-0.802,0.941-1.187c0.259-0.362,0.481-0.676,0.663-0.867c0.198-0.211,0.409-0.376,0.608-0.531
				c0.245-0.189,0.438-0.339,0.549-0.544c0.071-0.132,0.088-0.276,0.108-0.459c0.035-0.313,0.079-0.7,0.422-1.111
				c0.17-0.203,0.313-0.327,0.434-0.432c0.186-0.159,0.235-0.202,0.288-0.52c0.2-1.167,0.439-2.272,1.089-2.617
				c0.28-0.147,0.681-0.281,1.104-0.423c0.412-0.138,0.879-0.294,1.08-0.423C15.96,10.813,16.635,9.874,17,9.204
				c0.299-0.552,1.159-1.75,1.809-2.168c0.248-0.159,0.68-0.521,1.334-1.337c0.597-0.732,1.072-1.14,1.415-1.215
				c0.103-0.049,0.568-0.438,0.848-0.671c0.492-0.411,0.709-0.586,0.874-0.652c0.097-0.04,0.195-0.06,0.299-0.06
				c0.06,0,0.115,0.007,0.17,0.016c0,0.002,0.002,0.003,0.004,0.003c0.013,0,0.052-0.023,0.123-0.093
				c0.21-0.201,0.221-0.306,0.251-0.614c0.008-0.086,0.018-0.178,0.031-0.277c0.065-0.448,0.196-0.958,0.668-1.353l0.097-0.085
				c0.137-0.121,0.307-0.272,0.565-0.272c0.238,0,0.442,0.125,0.694,0.328c0.229,0.185,0.442,0.428,0.649,0.663
				c0.228,0.258,0.484,0.551,0.663,0.638c0.096,0.046,0.172,0.052,0.288,0.062c0.252,0.021,0.598,0.048,1.041,0.494
				c0.154,0.156,0.341,0.209,0.578,0.276c0.35,0.099,0.828,0.233,1.104,0.808c0.234,0.483,0.267,0.6,0.25,0.889
				c-0.005,0.092-0.013,0.226,0.011,0.49l0.038,0.353c0.069,0.6,0.081,0.868-0.336,1.507c-0.478,0.737-1.22,2.457-1.189,2.862
				c0.062,0.854-1.936,3.457-2.398,3.87c-0.442,0.397-1.442,1.564-1.748,2.465c-0.188,0.544-0.741,1.226-1.327,1.948
				c-0.51,0.627-1.087,1.339-1.19,1.72c-0.239,0.866-1.694,2.295-3.086,3.579l-0.113,0.104c-0.271,0.253-0.707,0.836-1.129,1.399
				c-0.697,0.933-1.146,1.516-1.494,1.74c-0.176,0.113-0.374,0.427-0.549,0.703c-0.302,0.479-0.615,0.974-1.122,0.994
				c-0.207,0.009-0.634,0.154-1.009,0.283c-0.416,0.144-0.847,0.291-1.178,0.33c-0.234,0.04-0.999,0.674-1.455,1.053
				c-0.535,0.443-0.996,0.826-1.319,0.968C9.641,31.184,8.502,31.575,7.55,31.575z"/>
			<path fill="#553E31" d="M25.487,0.851c0.099,0,0.22,0.067,0.429,0.234c0.471,0.383,0.951,1.137,1.393,1.352
				c0.443,0.216,0.68-0.063,1.213,0.474c0.527,0.533,1.256,0.251,1.602,0.969c0.346,0.714,0.146,0.403,0.221,1.232
				c0.076,0.829,0.189,0.945-0.23,1.589c-0.422,0.651-1.303,2.527-1.258,3.127c0.043,0.598-1.752,3.069-2.258,3.521
				c-0.504,0.452-1.539,1.68-1.867,2.645c-0.334,0.965-2.277,2.779-2.525,3.693c-0.252,0.911-2.41,2.865-3.078,3.483
				c-0.662,0.619-2,2.729-2.564,3.095c-0.564,0.362-0.941,1.608-1.457,1.629c-0.52,0.021-1.623,0.545-2.221,0.616
				s-2.271,1.779-2.895,2.054c-0.484,0.215-1.569,0.587-2.44,0.587c-0.239,0-0.463-0.028-0.653-0.096
				c-0.879-0.308-1.75-0.25-2.354-0.484c-0.607-0.235-1.02-0.348-1.178-1.304c-0.158-0.964,0.031-0.964-0.506-1.741
				c-0.535-0.783-1.111-2.036-1.238-2.582c-0.119-0.549,0.07-0.607,0.201-0.756c0.428-0.474,1.232-0.859,1.828-1.113
				c0.594-0.26,2.809-2.002,3.238-2.341c0.191-0.151,0.435-0.186,0.685-0.186c0.207,0,0.419,0.023,0.609,0.023
				c0.091,0,0.177-0.005,0.255-0.021c0.432-0.094,1.375-1.701,1.826-2.177c0.449-0.48,0.963-0.686,1.223-1.166
				c0.262-0.485,0.031-0.959,0.482-1.501c0.451-0.538,0.697-0.449,0.814-1.153c0.121-0.703,0.334-2.027,0.869-2.311
				c0.539-0.284,1.758-0.57,2.215-0.864c0.455-0.292,1.191-1.394,1.506-1.971c0.313-0.577,1.129-1.668,1.666-2.014
				c0.537-0.347,1.119-1.034,1.436-1.429c0.318-0.391,0.875-1,1.174-1.065c0.297-0.068,1.521-1.235,1.791-1.345
				c0.053-0.021,0.098-0.028,0.139-0.028c0.071,0,0.132,0.021,0.202,0.021c0.095,0,0.207-0.037,0.39-0.213
				c0.4-0.385,0.34-0.656,0.408-1.139c0.07-0.481,0.199-0.818,0.52-1.086C25.276,0.959,25.362,0.851,25.487,0.851 M25.487,0
				c-0.421,0-0.688,0.239-0.849,0.382l-0.088,0.077c-0.583,0.487-0.741,1.118-0.813,1.613c-0.016,0.11-0.025,0.208-0.034,0.299
				c-0.021,0.21-0.024,0.249-0.078,0.306c-0.016,0-0.031-0.001-0.047-0.001c-0.158,0-0.313,0.031-0.463,0.093
				c-0.229,0.093-0.467,0.288-0.982,0.719c-0.23,0.191-0.604,0.504-0.762,0.605c-0.225,0.064-0.699,0.285-1.556,1.335
				c-0.655,0.817-1.057,1.135-1.237,1.252c-0.744,0.479-1.653,1.77-1.952,2.323c-0.377,0.691-1.006,1.522-1.218,1.659
				c-0.157,0.102-0.636,0.262-0.985,0.378c-0.44,0.147-0.856,0.287-1.167,0.45c-0.822,0.436-1.084,1.6-1.3,2.856l-0.011,0.062
				c-0.023,0.142-0.044,0.184-0.045,0.185c-0.023,0.026-0.061,0.054-0.102,0.088c-0.121,0.104-0.287,0.247-0.481,0.479
				c-0.426,0.511-0.482,1.009-0.52,1.338c-0.018,0.157-0.029,0.248-0.06,0.306c-0.068,0.126-0.229,0.251-0.435,0.409
				c-0.202,0.156-0.431,0.334-0.661,0.58c-0.197,0.208-0.429,0.532-0.696,0.908c-0.211,0.295-0.582,0.815-0.784,1.021
				c-0.071-0.001-0.146-0.006-0.222-0.01c-0.121-0.008-0.245-0.015-0.367-0.015c-0.319,0-0.793,0.039-1.212,0.369
				c-1.748,1.379-2.808,2.122-3.052,2.229c-1.022,0.436-1.698,0.856-2.118,1.322c-0.292,0.28-0.579,0.684-0.401,1.506
				c0.167,0.716,0.805,2.057,1.367,2.881c0.258,0.372,0.259,0.391,0.285,0.701c0.016,0.176,0.034,0.393,0.084,0.698
				c0.23,1.391,1.004,1.688,1.625,1.926l0.085,0.033c0.38,0.147,0.78,0.2,1.205,0.256c0.391,0.052,0.794,0.104,1.174,0.238
				C6.884,31.951,7.198,32,7.55,32c1.023,0,2.232-0.414,2.785-0.659c0.356-0.157,0.771-0.493,1.416-1.029
				c0.392-0.323,1.038-0.86,1.282-0.964c0.365-0.051,0.779-0.193,1.218-0.344c0.278-0.096,0.743-0.255,0.89-0.261
				c0.729-0.029,1.136-0.674,1.463-1.191c0.119-0.188,0.318-0.504,0.419-0.572c0.417-0.271,0.882-0.877,1.605-1.844
				c0.392-0.523,0.835-1.116,1.079-1.345l0.11-0.102c2.063-1.902,2.991-2.996,3.207-3.776c0.081-0.299,0.701-1.063,1.111-1.567
				c0.609-0.752,1.186-1.462,1.398-2.074c0.266-0.782,1.203-1.906,1.631-2.29c0.357-0.319,2.62-3.079,2.538-4.215
				c0.012-0.357,0.684-1.925,1.124-2.604c0.491-0.754,0.474-1.15,0.399-1.786c-0.011-0.099-0.024-0.211-0.036-0.343
				c-0.021-0.233-0.015-0.34-0.01-0.426c0.023-0.408-0.053-0.604-0.293-1.099c-0.358-0.745-0.992-0.925-1.371-1.031
				c-0.225-0.063-0.323-0.097-0.391-0.165c-0.513-0.517-0.944-0.591-1.31-0.62c-0.104-0.008-0.117-0.011-0.136-0.021
				c-0.109-0.058-0.373-0.356-0.53-0.535c-0.219-0.249-0.445-0.505-0.698-0.711C26.193,0.218,25.889,0,25.487,0L25.487,0z"/>
		</g>
		<g>
			<g>
				<defs>
					<path id="SVGID_3_" d="M1.822,24.188c0.428-0.474,1.232-0.859,1.828-1.113c0.594-0.26,2.809-2.002,3.238-2.341
						c0.428-0.338,1.113-0.093,1.549-0.184c0.432-0.094,1.375-1.701,1.826-2.177c0.449-0.48,0.963-0.686,1.223-1.166
						c0.262-0.485,0.031-0.959,0.482-1.501c0.451-0.538,0.697-0.449,0.814-1.153c0.121-0.703,0.334-2.027,0.869-2.311
						c0.539-0.284,1.758-0.57,2.215-0.864c0.455-0.292,1.191-1.394,1.506-1.971c0.313-0.577,1.129-1.668,1.666-2.014
						c0.537-0.347,1.119-1.034,1.436-1.429c0.318-0.391,0.875-1,1.174-1.065c0.297-0.068,1.521-1.235,1.791-1.345
						c0.268-0.11,0.332,0.162,0.73-0.221c0.4-0.385,0.34-0.656,0.408-1.139c0.07-0.481,0.199-0.818,0.52-1.086
						c0.318-0.268,0.344-0.405,0.818-0.024c0.471,0.383,0.951,1.137,1.393,1.352c0.443,0.216,0.68-0.063,1.213,0.474
						c0.527,0.533,1.256,0.251,1.602,0.969c0.346,0.714,0.146,0.403,0.221,1.232c0.076,0.829,0.189,0.945-0.23,1.589
						c-0.422,0.651-1.303,2.527-1.258,3.127c0.043,0.598-1.752,3.069-2.258,3.521c-0.504,0.452-1.539,1.68-1.867,2.645
						c-0.334,0.965-2.277,2.779-2.525,3.693c-0.252,0.911-2.41,2.865-3.078,3.483c-0.662,0.619-2,2.729-2.564,3.095
						c-0.564,0.362-0.941,1.608-1.457,1.629c-0.52,0.021-1.623,0.545-2.221,0.616s-2.271,1.779-2.895,2.054
						c-0.617,0.273-2.211,0.803-3.094,0.491c-0.879-0.308-1.75-0.25-2.354-0.484c-0.607-0.235-1.02-0.348-1.178-1.304
						c-0.158-0.964,0.031-0.964-0.506-1.741c-0.535-0.783-1.111-2.036-1.238-2.582C1.502,24.395,1.691,24.336,1.822,24.188z"/>
				</defs>
				<use xlink:href="#SVGID_3_"  overflow="visible" fill="#EBE0D5"/>
				<clipPath id="SVGID_2_">
					<use xlink:href="#SVGID_3_"  overflow="visible"/>
				</clipPath>
				<path id="XMLID_27_" clip-path="url(#SVGID_2_)" fill="#CDB8AB" d="M1.814,28.159c0.357-0.026,1.066,0.472,1.098-0.16
					c0.031-0.626,0.088-0.904-0.1-1.522c-0.189-0.621-0.082-0.686,0.168-0.955c0.248-0.268,0.938-0.674,1.291-0.825
					c0.361-0.146,1.484-0.506,1.846-0.899c0.359-0.394,0.906-0.595,1.484-0.568c0.574,0.026,1.289-0.455,1.646-0.788
					c0.361-0.331,1.816-1.188,2.039-1.688c0.223-0.495,0.445-1.117,0.859-1.603c0.412-0.488,0.883-1.621,1.271-2.152
					c0.387-0.535,0.854-1.419,1.271-1.849c0.41-0.426,0.631-0.492,0.721-1.4c0.053-0.58,0.139-1.258,0.432-1.728
					c0.086-0.14,0.557-0.813,0.758-0.699c0.145,0.088-0.102,0.535-0.137,0.613c-0.137,0.306-0.123,0.515-0.166,0.862
					c-0.111,0.96,1.211,1.06,1.689,0.776c0.389-0.227,0.549,0.472,0.605-0.477c0.061-0.952,0.285-1.511,0.584-1.87
					c0.305-0.363,0.557-1.061,0.777-1.436c0.428-0.719,0.279-2.229,0.836-2.747c0.355-0.337,0.414-0.489,0.91-0.479
					c0.492,0.019,0.934-0.057,1.18-0.324c0.246-0.269,0.279-1.021,0.527-1.41c0.248-0.393,0.248-0.146,0.77-0.332
					c0.521-0.185,1.127-0.358,1.322-0.961c0.193-0.602,0.088-0.967,0.197-1.216c0.109-0.246-0.352-0.829,0.172-0.83
					c0.518-0.002,0.305-0.975,0.193-1.094c-0.105-0.118-2.408-0.595-2.521-0.47C23.432,0.056,8.932,14.51,8.932,14.51L3.115,20.19
					l-3.498,3.711L1.814,28.159z"/>
				<path clip-path="url(#SVGID_2_)" fill="#CDB8AB" d="M4.92,31.025c0,0,0.555-0.674,1.121-0.85
					c0.568-0.179,1.438-0.362,1.957-0.196c0.521,0.163,1.877-0.209,2.141-0.443c0.268-0.238,1.258-0.998,1.551-1.25
					c0.295-0.253,0.859-0.491,1.348-0.618c0.488-0.123,1.059-0.305,1.506-0.846c0.447-0.54,1.439-1.304,1.701-1.721
					c0.264-0.418,1.219-1.476,1.563-1.884c0.344-0.41,1.291-1.836,1.83-2.117c0.537-0.283,1.197-1.025,1.277-1.076
					c0.08-0.053,0.684-1.065,0.916-1.469c0.238-0.402,1.105-1.591,1.666-2.012c0.564-0.424,1.316-1.912,1.393-2.211
					c0.074-0.3,0.387-0.813,0.84-1.354c0.447-0.541,0.855-0.68,1.301-1.342c0.447-0.662,0.857-1.616,0.936-1.854
					c0.076-0.235,0.115-0.825,0.352-1.229c0.232-0.401,0.309-0.763,0.678-1.128c0.375-0.363,0.688-1.003,0.789-1.256
					c0.102-0.255-0.09-0.439,0.059-0.915c0.154-0.475-0.074-2.014,0.344-1.598c0.418,0.42,1.184,1.738,1.184,1.738
					s1.018,2.538,0.943,2.836C32.24,8.53,19.715,25.431,19.715,25.431l-9.346,5.711c0,0-4.824,0.982-4.768,1.132
					C5.662,32.422,4.92,31.025,4.92,31.025z"/>
			</g>
			<path fill="#CDB8AB" d="M4.281,28.016c0.211-0.292,0.471-0.806,0.764-1.18c0.289-0.375,1.582-0.961,2.018-1.051
				c0.432-0.091,1.73-0.551,1.994-0.849c0.264-0.296,1.666-0.947,1.875-1.271c0.209-0.322,1.373-0.696,1.49-1.4
				c0.119-0.702,0.033-1.019,0.576-1.058c0.543-0.036,1.207-0.717,1.629-0.237c0.416,0.479,0.891,0.741,0.762,1.071
				c-0.129,0.335-0.363,0.799-0.656,1.052c-0.293,0.251-0.201,0.752-0.547,1.039c-0.348,0.285-0.531,0.594-1.051,0.428
				c-0.521-0.165-0.951,0.113-1.381,0.453c-0.428,0.337-1.217,0.344-1.254,0.996c-0.037,0.651-0.023,1.326-0.652,1.169
				c-0.629-0.153-1.387,0.144-1.826,0.051c-0.439-0.095-0.57,0.058-0.59,0.379c-0.02,0.327,0.238,0.787-0.141,0.846
				c-0.381,0.059-0.629-0.097-1.123-0.153c-0.49-0.059-0.455,0.355-0.914,0.403C4.789,28.749,3.941,28.485,4.281,28.016z"/>
			<path fill="#CDB8AB" d="M15.76,15.239c-0.076,0.297-0.33,1.024-0.596,1.259c-0.27,0.233-0.367,0.615-0.441,1.035
				c-0.07,0.42,0.334,0.158,0.627-0.031c0.297-0.189,0.895-0.2,1.238-0.732c0.338-0.532,0.354-1.04,0.514-1.208
				c0.16-0.164,0.078-0.114,0.4-0.259c0.324-0.146,0.477-0.56-0.092-0.503c-0.57,0.056-0.684-0.061-1.088,0.076
				C15.916,15.013,15.76,15.239,15.76,15.239z"/>
			<path fill="#CDB8AB" d="M20.238,13.902c-0.555,0.357-1.293,1.145-1.283,1.517c0.008,0.368-0.957,1.306-1.264,1.689
				c-0.303,0.385-1.246,1.492-1.633,1.679c-0.387,0.188-1.234,0.731-1.646,0.811c-0.408,0.077-1,0.519-0.357,0.73
				c0.639,0.212,1.193,0.358,1.635,0.258c0.445-0.096,0.676-0.307,1.363,0.188c0.684,0.501,1.164,0.313,1.348-0.117
				c0.184-0.433-0.035-0.916,0.27-1.299c0.309-0.389,0.797-0.765,1.166-1.129c0.363-0.359,0.713-0.898,0.863-1.308
				c0.15-0.408,0.449-0.662,0.691-1.07c0.244-0.41,0.355-0.668-0.104-1.313C20.832,13.896,20.434,13.775,20.238,13.902z"/>
			<path fill="#CDB8AB" d="M23.127,9.576c-0.539-0.112-0.799-0.297-1.23-0.083c-0.43,0.217-0.586,0.442-0.736,0.979
				c-0.15,0.534-0.27,1.3-0.342,1.657c-0.072,0.36-0.232,0.526,0.102,0.935c0.342,0.407,0.346,0.718,1.031,0.779
				c0.682,0.06,1.037,0.082,1.242-0.367c0.209-0.445,0.359-0.918,0.623-1.152c0.271-0.235,0.535-0.531,0.473-0.93
				c-0.064-0.394,0.18-0.367-0.322-0.855C23.463,10.048,23.348,9.623,23.127,9.576z"/>
			<path fill="#CDB8AB" d="M26.498,4.342c-0.506-0.166-0.758,0.424-0.949,1.172c-0.189,0.749-0.66,1.303-1.068,1.63
				c-0.408,0.325-0.824,0.405-0.865,1.06c-0.047,0.655-0.123,1.017,0.375,1.071c0.498,0.057,0.609,0.231,1.182,0.237
				c0.57,0.011,0.799-0.198,1.117-0.907c0.322-0.706,0.268-1.109,0.723-1.529c0.455-0.419,0.955-0.678,1.148-1.179
				c0.195-0.5,0.465-1.051,0.465-1.051s0.158-0.477-0.443-0.526C27.58,4.269,28.17,4.7,27.58,4.269
				C26.996,3.833,26.691,4.403,26.498,4.342z"/>
		</g>
	</g>
</g>
<g id="Layer_3">
</g>
</svg>
