<?xml version="1.0" encoding="utf-8"?>
<!-- Generator: Adobe Illustrator 16.0.0, SVG Export Plug-In . SVG Version: 6.00 Build 0)  -->
<!DOCTYPE svg PUBLIC "-//W3C//DTD SVG 1.1//EN" "http://www.w3.org/Graphics/SVG/1.1/DTD/svg11.dtd">
<svg version="1.1" xmlns="http://www.w3.org/2000/svg" xmlns:xlink="http://www.w3.org/1999/xlink" x="0px" y="0px" width="32px"
	 height="32px" viewBox="0 0 32 32" enable-background="new 0 0 32 32" xml:space="preserve">
<g id="Layer_1">
	<g>
		
			<path fill="#EBE0D5" stroke="#553E31" stroke-width="0.85" stroke-linecap="round" stroke-linejoin="round" stroke-miterlimit="10" d="
			M10.542,10.365c0,0-1.646-2.154-1.565-3.644c0.073-1.313,0.762-2.245,1.411-2.705c0.65-0.461,1.469-0.968,2.008-1.166
			s1.208-0.341,0.683,0.407c-0.524,0.748-0.594,0.905-0.594,0.905s1.642,0.161,2.329,0.498c0.687,0.338,0.607,0.545-0.155,0.76
			c-0.764,0.215-2.179,0.384-2.179,0.384s0.577,0.599,0.514,1.032c-0.063,0.433-0.828,0.395-1.192,0.312
			c-0.365-0.081-1.504-0.153-1.478,0.439c0.025,0.593,0.452,2.135,1.021,2.875c0.569,0.738,0.394,0.765,0.394,0.765L10.542,10.365z"
			/>
		
			<path fill="#EBE0D5" stroke="#553E31" stroke-width="0.85" stroke-linecap="round" stroke-linejoin="round" stroke-miterlimit="10" d="
			M11.584,11.456c0,0-2.85-2.012-4.277-3.71C5.879,6.049,5.33,5.465,4.743,4.084s0.101-2.613,0.488-3.276
			C5.62,0.146,6.022,0.446,6.089,0.936C6.156,1.425,6.21,2.447,6.21,2.447S7.4,1.466,8.034,1.195
			c0.633-0.271,0.729,0.163,0.349,0.686C8.002,2.404,7.327,3.517,7.327,3.517s0.441-0.055,0.954,0.147
			c0.512,0.202,0.319,0.647,0.007,0.852c-0.466,0.303-1.28,0.66-1.541,0.457c0.132,0.563-0.045,0.913,2.394,3.711
			s2.867,2.607,2.867,2.607L11.584,11.456z"/>
		
			<path fill="#EBE0D5" stroke="#553E31" stroke-width="0.85" stroke-linecap="round" stroke-linejoin="round" stroke-miterlimit="10" d="
			M11.781,11.505c0,0-2.363-2.104-3.502-2.718C7.14,8.174,4.891,7.724,4.263,7.681C3.634,7.639,3.063,7.846,2.71,8.096
			C2.355,8.345,1.844,9.009,2.66,8.825s0.989-0.141,0.989-0.141s-0.722,0.78-0.82,1.166c-0.1,0.386,0.001,0.957,0.591,0.86
			c0.59-0.098,0.859-0.196,0.859-0.196s-0.031,0.712,0.258,1.22c0.288,0.507,0.993,0.332,1.346-0.334
			c0.353-0.664,0.477-1.541,1.104-1.626c0.627-0.084,1.084-0.006,1.848,0.448c0.765,0.455,2.149,1.333,2.414,1.547
			C11.513,11.983,11.781,11.505,11.781,11.505z"/>
		<g>
			<defs>
				<path id="XMLID_4_" d="M29.777,31.575c0,0-2.535-3.971-3.361-5.145c-0.617-1.326-2.023-4.022-3.374-5.441
					c-0.926-1.863-2.456-4.016-3.553-5.507c-1.096-1.491-2.286-3.486-3.062-4.145c-1.389-1.18-3.123-1.773-4.618-0.438
					c-0.792,0.706-1.526,1.646-1.619,2.749c-0.12,1.466,0.306,2.014,0.739,2.677c0.434,0.662,1.96,2.218,3.209,3.02
					c1.248,0.802,1.856,1.184,2.51,1.899c0.655,0.715,1.948,1.598,3.042,2.327c1.091,0.731,1.972,1.684,2.948,2.493
					s1.261,0.683,1.94,1.322C25.258,28.025,27.901,30.489,29.777,31.575z"/>
			</defs>
			<use xlink:href="#XMLID_4_"  overflow="visible" fill="#CDB8AB"/>
			<clipPath id="XMLID_35_">
				<use xlink:href="#XMLID_4_"  overflow="visible"/>
			</clipPath>
			
				<path clip-path="url(#XMLID_35_)" fill="#CDB8AB" stroke="#553E31" stroke-width="0.85" stroke-linecap="round" stroke-linejoin="round" stroke-miterlimit="10" d="
				M10.543,16.411c0,0,0.738-1.708,1.55-2.49"/>
			
				<path clip-path="url(#XMLID_35_)" fill="#CDB8AB" stroke="#553E31" stroke-width="0.85" stroke-linecap="round" stroke-linejoin="round" stroke-miterlimit="10" d="
				M12.589,16.296c0,0,0.563-1.682,2.342-2.853"/>
			
				<path clip-path="url(#XMLID_35_)" fill="#CDB8AB" stroke="#553E31" stroke-width="0.85" stroke-linecap="round" stroke-linejoin="round" stroke-miterlimit="10" d="
				M15.221,15.485c0,0,0.833-1.365,2.948-1.893"/>
			
				<path clip-path="url(#XMLID_35_)" fill="#CDB8AB" stroke="#553E31" stroke-width="0.85" stroke-linecap="round" stroke-linejoin="round" stroke-miterlimit="10" d="
				M17.88,17.344c0,0-2.066,1.782-2.546,2.771"/>
			
				<path clip-path="url(#XMLID_35_)" fill="#CDB8AB" stroke="#553E31" stroke-width="0.85" stroke-linecap="round" stroke-linejoin="round" stroke-miterlimit="10" d="
				M17.262,19.356c0,0-0.792,0.522-1.07,1.248"/>
			
				<path clip-path="url(#XMLID_35_)" fill="#CDB8AB" stroke="#553E31" stroke-width="0.85" stroke-linecap="round" stroke-linejoin="round" stroke-miterlimit="10" d="
				M18.725,21.813c0,0,1.477-1.271,2.142-2.173"/>
			
				<path clip-path="url(#XMLID_35_)" fill="#CDB8AB" stroke="#553E31" stroke-width="0.85" stroke-linecap="round" stroke-linejoin="round" stroke-miterlimit="10" d="
				M23.786,21.449c0,0-0.493,0.946-1.679,1.695"/>
			
				<path clip-path="url(#XMLID_35_)" fill="#CDB8AB" stroke="#553E31" stroke-width="0.85" stroke-linecap="round" stroke-linejoin="round" stroke-miterlimit="10" d="
				M24.409,24.204c0,0-1.033,1.883-2.201,1.542"/>
			
				<path clip-path="url(#XMLID_35_)" fill="#CDB8AB" stroke="#553E31" stroke-width="0.85" stroke-linecap="round" stroke-linejoin="round" stroke-miterlimit="10" d="
				M27.184,27.445c0,0-0.003,1.063-1.246,1.274"/>
			
				<path clip-path="url(#XMLID_35_)" fill="#CDB8AB" stroke="#553E31" stroke-width="0.85" stroke-linecap="round" stroke-linejoin="round" stroke-miterlimit="10" d="
				M28.28,28.797c0,0-0.01,0.465-0.37,0.566"/>
			
				<use xlink:href="#XMLID_4_"  overflow="visible" fill="none" stroke="#553E31" stroke-width="0.85" stroke-linecap="round" stroke-linejoin="round" stroke-miterlimit="10"/>
		</g>
	</g>
</g>
<g id="Layer_3">
</g>
</svg>
