<?xml version="1.0" encoding="utf-8"?>
<!-- Generator: Adobe Illustrator 16.0.0, SVG Export Plug-In . SVG Version: 6.00 Build 0)  -->
<!DOCTYPE svg PUBLIC "-//W3C//DTD SVG 1.1//EN" "http://www.w3.org/Graphics/SVG/1.1/DTD/svg11.dtd">
<svg version="1.1" xmlns="http://www.w3.org/2000/svg" xmlns:xlink="http://www.w3.org/1999/xlink" x="0px" y="0px" width="32px"
	 height="32px" viewBox="0 0 32 32" enable-background="new 0 0 32 32" xml:space="preserve">
<g id="Layer_1">
	<g>
		<polygon fill="#CDB8AB" stroke="#553E31" stroke-width="1.5075" stroke-linejoin="round" stroke-miterlimit="10" points="
			31.236,11.667 21.734,6.693 0.754,15.803 11.678,21.511 		"/>
		
			<ellipse fill="#EBE0D5" stroke="#553E31" stroke-width="1.3065" stroke-miterlimit="10" cx="20.357" cy="10.104" rx="4.039" ry="4.688"/>
		
			<ellipse fill="#EBE0D5" stroke="#553E31" stroke-width="1.3065" stroke-miterlimit="10" cx="13.47" cy="12.767" rx="4.04" ry="4.688"/>
		<path fill="#553E31" stroke="#553E31" stroke-width="1.5075" stroke-miterlimit="10" d="M10.971,16.945l1.352-4.153
			c0,0,0.186-0.629,1.498-0.451c0.707,0.094,0.734,0.549,0.734,0.549l0.811,4.724L10.971,16.945z"/>
		<path fill="#553E31" stroke="#553E31" stroke-width="1.5075" stroke-miterlimit="10" d="M17.467,13.802l1.352-4.153
			c0,0,0.186-0.629,1.498-0.451c0.711,0.094,0.738,0.549,0.738,0.549l0.811,4.723L17.467,13.802z"/>
		
			<ellipse fill="#EBE0D5" stroke="#553E31" stroke-width="1.3065" stroke-miterlimit="10" cx="25.948" cy="13.888" rx="4.298" ry="5.352"/>
		<path fill="#EBE0D5" stroke="#553E31" stroke-width="1.3065" stroke-miterlimit="10" d="M10.4,16.709
			c0,3.067-1.969,5.553-4.398,5.553c-2.424,0-4.395-2.485-4.395-5.553s1.971-5.554,4.395-5.554
			C8.432,11.155,10.4,13.642,10.4,16.709z"/>
		
			<ellipse fill="#EBE0D5" stroke="#553E31" stroke-width="1.3065" stroke-miterlimit="10" cx="19.093" cy="16.346" rx="4.298" ry="5.351"/>
		
			<ellipse fill="#EBE0D5" stroke="#553E31" stroke-width="1.3065" stroke-miterlimit="10" cx="12.094" cy="19.567" rx="4.52" ry="5.351"/>
		
			<path fill="#CDB8AB" stroke="#553E31" stroke-width="1.3065" stroke-linecap="round" stroke-linejoin="round" stroke-miterlimit="10" d="
			M0.699,15.82l9.627,5.011c0,0,1.572,0.895,3.391,0c2.193-1.08,17.629-9.09,17.629-9.09s-0.895,4.985-1.434,6.083
			c-0.541,1.097-2.236,2.565-4.182,1.593c-1.289-0.645-2.438,0.65-3.127,2.082c-0.686,1.433-2.061,2.577-4.123,2.052
			c-1.93-0.49-2.801,0.264-3.514,1.91c-0.613,1.417-5.279,1.599-5.941-0.07c-0.572-1.439-1.598-2.816-2.898-1.863
			c-0.791,0.578-3.586-1.217-4.051-2.479C1.639,19.86,0.699,15.82,0.699,15.82z"/>
	</g>
</g>
<g id="Layer_3">
</g>
</svg>
