<?xml version="1.0" encoding="utf-8"?>
<!-- Generator: Adobe Illustrator 16.0.0, SVG Export Plug-In . SVG Version: 6.00 Build 0)  -->
<!DOCTYPE svg PUBLIC "-//W3C//DTD SVG 1.1//EN" "http://www.w3.org/Graphics/SVG/1.1/DTD/svg11.dtd">
<svg version="1.1" xmlns="http://www.w3.org/2000/svg" xmlns:xlink="http://www.w3.org/1999/xlink" x="0px" y="0px" width="32px"
	 height="32px" viewBox="0 0 32 32" enable-background="new 0 0 32 32" xml:space="preserve">
<g id="Layer_1">
	<g>
		<path fill="#EBE0D5" stroke="#553E31" stroke-width="1.3531" stroke-miterlimit="10" d="M23.857,17.496l4.561-0.105
			c0,0-0.488-2.297,1.393-2.34c1.279-0.029,1.705,2.541,0.709,3.566c2.107,2.041-0.41,4.426-2.061,1.236l-4.301,0.102L23.857,17.496
			z"/>
		<path fill="#CDB8AB" stroke="#553E31" stroke-width="1.3531" stroke-miterlimit="10" d="M8.127,24.934
			c-1.363-0.139-2.438-0.334-3.045-0.492c-3.938-1.023-4.369-8.43-4.369-8.43c-0.451-5.977,3.49-8.586,5.297-8.973
			c0.254-0.055,0.543-0.088,0.852-0.105c0,0,1.469-0.238,2.779,0.389c1.309,0.627,2.969,3.766,3.416,5.334
			c0.445,1.57,3.158,5.305,3.383,6.402s0.414,3.545,0,4.078c-0.414,0.535-1.408,1.615-3.225,1.818
			C11.4,25.156,8.945,25.027,8.127,24.934z"/>
		<path fill="#553E31" d="M2.604,16.939c-0.18-1.537,0.119-3.977,1-5.273S5.896,9.389,7.17,9.727
			c1.271,0.338,2.029,1.318,2.268,2.775c0.24,1.459,1.004,3.859,1.92,4.512c0.916,0.656,2.473,1.17,2.676,2.73
			c0.201,1.559-2.385,3.037-4.885,3.146C6.646,23.002,3.379,23.588,2.604,16.939z"/>
		<path fill="#553E31" stroke="#553E31" stroke-width="1.3531" stroke-miterlimit="10" d="M24.887,18.947
			c-0.566-1.242-1.049-2.008-1.982-2.182c-0.936-0.176-2.133,0.064-3.926-2.729c-1.795-2.795-3.688-5.322-5.732-6.063
			c-1.697-0.611-4.314-1.117-6.189-1.051c0.623-0.002,2.566,0.152,3.496,2.098c1.113,2.334,1.266,4.061,1.609,5.184
			c0.342,1.123,1.496,1.607,2.994,2.955c1.502,1.35,2.086,5.523-0.143,6.686c-2.227,1.164-3.697,0.842-6.887,1.088
			c2.428,0.248,5.779,0.316,9.082-0.332c4.633-0.906,7.502-1.58,8.045-2.566C25.6,21.408,25.451,20.191,24.887,18.947z"/>
		<polygon fill="none" stroke="#553E31" stroke-width="1.3531" stroke-miterlimit="10" points="8.127,24.934 8.127,24.934 
			8.127,24.934 		"/>
		<path fill="none" stroke="#553E31" stroke-width="1.3531" stroke-miterlimit="10" d="M6.859,6.932l0.002,0.002
			c0.063-0.006,0.129-0.008,0.195-0.01C6.934,6.926,6.859,6.932,6.859,6.932z"/>
		<path fill="#EBE0D5" d="M6.35,15.139c-0.809,0.094-1.369,0.98-1.25,1.982s0.873,1.738,1.684,1.645
			c0.811-0.092,1.371-0.98,1.25-1.982C7.914,15.783,7.16,15.045,6.35,15.139z"/>
	</g>
</g>
<g id="Layer_3">
</g>
</svg>
