<?xml version="1.0" encoding="utf-8"?>
<!-- Generator: Adobe Illustrator 16.0.0, SVG Export Plug-In . SVG Version: 6.00 Build 0)  -->
<!DOCTYPE svg PUBLIC "-//W3C//DTD SVG 1.1//EN" "http://www.w3.org/Graphics/SVG/1.1/DTD/svg11.dtd">
<svg version="1.1" xmlns="http://www.w3.org/2000/svg" xmlns:xlink="http://www.w3.org/1999/xlink" x="0px" y="0px" width="32px"
	 height="32px" viewBox="0 0 32 32" enable-background="new 0 0 32 32" xml:space="preserve">
<g id="Layer_1">
	<g>
		<g>
			<g>
				<defs>
					<polygon id="XMLID_19_" points="12.697,31.25 10.016,26.512 12.697,21.773 18.064,21.773 20.748,26.512 18.064,31.25 					"/>
				</defs>
				<use xlink:href="#XMLID_19_"  overflow="visible" fill="#553E31"/>
				<clipPath id="XMLID_35_">
					<use xlink:href="#XMLID_19_"  overflow="visible"/>
				</clipPath>
				
					<polyline clip-path="url(#XMLID_35_)" fill="#553E31" stroke="#553E31" stroke-width="2" stroke-linecap="round" stroke-miterlimit="10" points="
					11.891,23.469 17.256,23.469 19.791,27.945 				"/>
				<use xlink:href="#XMLID_19_"  overflow="visible" fill="none" stroke="#553E31" stroke-width="1.5" stroke-miterlimit="10"/>
			</g>
			<g>
				<defs>
					<polygon id="XMLID_18_" points="4.648,26.512 1.967,21.773 4.648,17.035 10.016,17.035 12.697,21.773 10.016,26.512 					"/>
				</defs>
				<use xlink:href="#XMLID_18_"  overflow="visible" fill="#553E31"/>
				<clipPath id="XMLID_36_">
					<use xlink:href="#XMLID_18_"  overflow="visible"/>
				</clipPath>
				
					<polyline clip-path="url(#XMLID_36_)" fill="#553E31" stroke="#553E31" stroke-width="2" stroke-linecap="round" stroke-miterlimit="10" points="
					3.842,18.73 9.207,18.73 11.742,23.207 				"/>
				<use xlink:href="#XMLID_18_"  overflow="visible" fill="none" stroke="#553E31" stroke-width="1.5" stroke-miterlimit="10"/>
			</g>
			<g>
				<defs>
					<polygon id="XMLID_17_" points="20.748,26.512 18.064,21.773 20.748,17.035 26.113,17.035 28.797,21.773 26.113,26.512 					
						"/>
				</defs>
				<use xlink:href="#XMLID_17_"  overflow="visible" fill="#553E31"/>
				<clipPath id="XMLID_37_">
					<use xlink:href="#XMLID_17_"  overflow="visible"/>
				</clipPath>
				
					<polyline clip-path="url(#XMLID_37_)" fill="#553E31" stroke="#553E31" stroke-width="2" stroke-linecap="round" stroke-miterlimit="10" points="
					19.938,18.73 25.305,18.73 27.84,23.207 				"/>
				<use xlink:href="#XMLID_17_"  overflow="visible" fill="none" stroke="#553E31" stroke-width="1.5" stroke-miterlimit="10"/>
			</g>
			<g>
				<defs>
					<polygon id="XMLID_16_" points="4.648,17.035 1.967,12.297 4.648,7.559 10.016,7.559 12.697,12.297 10.016,17.035 					"/>
				</defs>
				<use xlink:href="#XMLID_16_"  overflow="visible" fill="#553E31"/>
				<clipPath id="XMLID_38_">
					<use xlink:href="#XMLID_16_"  overflow="visible"/>
				</clipPath>
				
					<polyline clip-path="url(#XMLID_38_)" fill="#553E31" stroke="#553E31" stroke-width="2" stroke-linecap="round" stroke-miterlimit="10" points="
					3.842,9.254 9.207,9.254 11.742,13.73 				"/>
				<use xlink:href="#XMLID_16_"  overflow="visible" fill="none" stroke="#553E31" stroke-width="1.5" stroke-miterlimit="10"/>
			</g>
		</g>
		<g>
			<defs>
				<polygon id="XMLID_11_" points="13.84,29.18 11.141,24.441 13.84,19.703 19.238,19.703 21.936,24.441 19.238,29.18 				"/>
			</defs>
			<use xlink:href="#XMLID_11_"  overflow="visible" fill="#EBE0D5"/>
			<clipPath id="XMLID_39_">
				<use xlink:href="#XMLID_11_"  overflow="visible"/>
			</clipPath>
			
				<polyline clip-path="url(#XMLID_39_)" fill="none" stroke="#553E31" stroke-width="2" stroke-linecap="round" stroke-miterlimit="10" points="
				13.027,21.398 18.424,21.398 20.975,25.875 			"/>
			<use xlink:href="#XMLID_11_"  overflow="visible" fill="none" stroke="#CDB8AB" stroke-width="1.5" stroke-miterlimit="10"/>
		</g>
		<g>
			<defs>
				<polygon id="XMLID_9_" points="5.742,24.441 3.043,19.703 5.742,14.965 11.141,14.965 13.84,19.703 11.141,24.441 				"/>
			</defs>
			<use xlink:href="#XMLID_9_"  overflow="visible" fill="#EBE0D5"/>
			<clipPath id="XMLID_40_">
				<use xlink:href="#XMLID_9_"  overflow="visible"/>
			</clipPath>
			
				<polyline clip-path="url(#XMLID_40_)" fill="none" stroke="#553E31" stroke-width="2" stroke-linecap="round" stroke-miterlimit="10" points="
				4.93,16.66 10.328,16.66 12.877,21.137 			"/>
			<use xlink:href="#XMLID_9_"  overflow="visible" fill="none" stroke="#CDB8AB" stroke-width="1.5" stroke-miterlimit="10"/>
		</g>
		<g>
			<defs>
				<polygon id="XMLID_12_" points="21.936,24.441 19.238,19.703 21.936,14.965 27.334,14.965 30.033,19.703 27.334,24.441 				"/>
			</defs>
			<use xlink:href="#XMLID_12_"  overflow="visible" fill="#EBE0D5"/>
			<clipPath id="XMLID_41_">
				<use xlink:href="#XMLID_12_"  overflow="visible"/>
			</clipPath>
			
				<polyline clip-path="url(#XMLID_41_)" fill="none" stroke="#553E31" stroke-width="2" stroke-linecap="round" stroke-miterlimit="10" points="
				21.123,16.66 26.521,16.66 29.072,21.137 			"/>
			<use xlink:href="#XMLID_12_"  overflow="visible" fill="none" stroke="#CDB8AB" stroke-width="1.5" stroke-miterlimit="10"/>
		</g>
		<g>
			<defs>
				<polygon id="XMLID_10_" points="13.84,19.703 11.141,14.965 13.84,10.227 19.238,10.227 21.936,14.965 19.238,19.703 				"/>
			</defs>
			<use xlink:href="#XMLID_10_"  overflow="visible" fill="#EBE0D5"/>
			<clipPath id="XMLID_42_">
				<use xlink:href="#XMLID_10_"  overflow="visible"/>
			</clipPath>
			
				<polyline clip-path="url(#XMLID_42_)" fill="none" stroke="#553E31" stroke-width="2" stroke-linecap="round" stroke-miterlimit="10" points="
				13.027,11.922 18.424,11.922 20.975,16.398 			"/>
			<use xlink:href="#XMLID_10_"  overflow="visible" fill="none" stroke="#CDB8AB" stroke-width="1.5" stroke-miterlimit="10"/>
		</g>
		<g>
			<defs>
				<polygon id="XMLID_15_" points="5.742,14.965 3.043,10.227 5.742,5.488 11.141,5.488 13.84,10.227 11.141,14.965 				"/>
			</defs>
			<use xlink:href="#XMLID_15_"  overflow="visible" fill="#EBE0D5"/>
			<clipPath id="XMLID_43_">
				<use xlink:href="#XMLID_15_"  overflow="visible"/>
			</clipPath>
			
				<polyline clip-path="url(#XMLID_43_)" fill="none" stroke="#553E31" stroke-width="2" stroke-linecap="round" stroke-miterlimit="10" points="
				4.93,7.184 10.328,7.184 12.877,11.66 			"/>
			<use xlink:href="#XMLID_15_"  overflow="visible" fill="none" stroke="#CDB8AB" stroke-width="1.5" stroke-miterlimit="10"/>
		</g>
		<g>
			<defs>
				<polygon id="XMLID_14_" points="21.936,14.965 19.238,10.227 21.936,5.488 27.334,5.488 30.033,10.227 27.334,14.965 				"/>
			</defs>
			<use xlink:href="#XMLID_14_"  overflow="visible" fill="#EBE0D5"/>
			<clipPath id="XMLID_44_">
				<use xlink:href="#XMLID_14_"  overflow="visible"/>
			</clipPath>
			
				<polyline clip-path="url(#XMLID_44_)" fill="none" stroke="#553E31" stroke-width="2" stroke-linecap="round" stroke-miterlimit="10" points="
				21.123,7.184 26.521,7.184 29.072,11.66 			"/>
			<use xlink:href="#XMLID_14_"  overflow="visible" fill="none" stroke="#CDB8AB" stroke-width="1.5" stroke-miterlimit="10"/>
		</g>
		<g>
			<defs>
				<polygon id="XMLID_13_" points="13.84,10.227 11.141,5.488 13.84,0.75 19.238,0.75 21.936,5.488 19.238,10.227 				"/>
			</defs>
			<use xlink:href="#XMLID_13_"  overflow="visible" fill="#EBE0D5"/>
			<clipPath id="XMLID_45_">
				<use xlink:href="#XMLID_13_"  overflow="visible"/>
			</clipPath>
			
				<polyline clip-path="url(#XMLID_45_)" fill="none" stroke="#553E31" stroke-width="2" stroke-linecap="round" stroke-miterlimit="10" points="
				13.027,2.445 18.424,2.445 20.975,6.922 			"/>
			<use xlink:href="#XMLID_13_"  overflow="visible" fill="none" stroke="#CDB8AB" stroke-width="1.5" stroke-miterlimit="10"/>
		</g>
	</g>
</g>
<g id="Layer_3">
</g>
</svg>
