<?xml version="1.0" encoding="utf-8"?>
<!-- Generator: Adobe Illustrator 16.0.0, SVG Export Plug-In . SVG Version: 6.00 Build 0)  -->
<!DOCTYPE svg PUBLIC "-//W3C//DTD SVG 1.1//EN" "http://www.w3.org/Graphics/SVG/1.1/DTD/svg11.dtd">
<svg version="1.1" xmlns="http://www.w3.org/2000/svg" xmlns:xlink="http://www.w3.org/1999/xlink" x="0px" y="0px" width="32px"
	 height="32px" viewBox="0 0 32 32" enable-background="new 0 0 32 32" xml:space="preserve">
<g id="Layer_1">
	<g>
		<polygon fill="#EBE0D5" points="19.888,2.969 13.381,5.49 9.973,9.125 16.785,11.796 22.629,8.703 		"/>
		<path fill="#EBE0D5" stroke="#553E31" stroke-width="1.5" stroke-linejoin="round" stroke-miterlimit="10" d="M16.715,31.25
			V12.187 M16.715,12.187L9.094,9.301v19.063l7.621,2.886l6.191-2.886V9.301L16.715,12.187z M22.906,9.301l-2.857-6.169
			 M16.715,12.187L13.381,5.49 M13.381,5.49l6.668-2.358V0.75l-6.668,2.356V5.49L9.094,9.301"/>
		<path fill="#553E31" d="M12.534,15.316c-0.05-0.262-0.142-0.526-0.325-0.786c-0.004-0.006-0.011-0.008-0.015-0.015
			c-0.059-0.308-0.131-0.612-0.265-0.915c-0.137-0.309-0.351-0.604-0.612-0.842c-0.336-0.524-0.876-0.836-1.512-0.945
			C8.96,11.668,8.3,12.44,8.708,13.243c0.321,0.634,0.189,1.263,0.854,1.676c-0.002,0.226-0.118,0.512-0.165,0.723
			c-0.079,0.35-0.064,0.684-0.018,1.024c-0.469,0.658,0.38,1.803,1.347,1.384c1.055-0.456,1.949-1.479,1.839-2.571
			C12.561,15.424,12.55,15.371,12.534,15.316z"/>
		<path fill="#553E31" d="M12.29,22.475c-0.102-0.158-0.263-0.283-0.442-0.368c-0.234-0.293-0.564-0.496-0.972-0.58
			c-0.417-0.122-0.894-0.105-1.284,0.034c-0.336,0.12-0.555,0.378-0.646,0.668c-0.197,0.331-0.274,0.738-0.174,1.157
			c0.059,0.245,0.19,0.402,0.348,0.516c-0.084,0.103-0.15,0.22-0.186,0.346c-0.219,0.773,0.118,2.041,1.155,1.951
			c0.021-0.002,0.036-0.009,0.057-0.012c0.87,0.13,1.89-0.482,2.277-1.22c0.007-0.014,0.009-0.03,0.017-0.044
			c0.087-0.085,0.174-0.168,0.248-0.266C13.206,23.987,12.665,23.054,12.29,22.475z"/>
		<path fill="#553E31" d="M16.9,17.867c-0.04-0.256-0.16-0.545-0.098-0.805c0.07-0.287,0.013-0.53-0.108-0.726
			c0.011-0.395-0.108-0.78-0.424-1.152c-0.434-0.51-1.197-0.281-1.527,0.197c0,0-0.001,0-0.001,0.001
			c-0.312,0.199-0.549,0.551-0.628,1.028c-0.067,0.416-0.089,0.833-0.092,1.253c0,0.028,0,0.058,0,0.086
			c-0.001,0.002-0.001,0.004-0.002,0.007c-0.071,0.295-0.094,0.639,0.017,0.928c0.01,0.024,0.026,0.045,0.037,0.068
			c-0.228,0.648,0.542,1.451,1.199,1.178c0.599-0.248,1.205-0.319,1.513-0.973C16.952,18.606,16.957,18.246,16.9,17.867z"/>
		<path fill="#553E31" d="M23.024,15.314c-0.002-0.005-0.001-0.01-0.004-0.016c0.19-0.28,0.311-0.609,0.324-0.98
			c0.015-0.428-0.089-0.798-0.285-1.176c-0.049-0.093-0.125-0.18-0.207-0.261c-0.008-0.126-0.034-0.246-0.084-0.355
			c0.392-0.666-0.11-1.747-1.05-1.451c-0.788,0.248-1.343,0.887-1.31,1.68c-0.153,0.337-0.223,0.715-0.216,1.123
			c0.009,0.504,0.161,0.966,0.356,1.423c0.027,0.064,0.066,0.116,0.105,0.169c0.029,0.187,0.145,0.344,0.315,0.47
			c0.113,0.202,0.27,0.373,0.49,0.487c0.592,0.762,1.801,0.062,1.622-0.875C23.076,15.473,23.058,15.395,23.024,15.314z"/>
		<path fill="#553E31" d="M23.503,25.598c0.035-0.286-0.001-0.569-0.075-0.843c0.015-0.496-0.042-1.008-0.286-1.412
			c-0.007-0.032-0.012-0.065-0.019-0.099c-0.051-0.225-0.164-0.371-0.297-0.485c-0.325-0.594-1.117-0.566-1.539-0.16
			c-0.269,0.146-0.476,0.403-0.478,0.802c0,0.109,0.012,0.212,0.022,0.316c-0.063,0.295,0.019,0.623,0.22,0.842
			c0.063,0.148,0.138,0.296,0.221,0.442c-0.004,0.055-0.01,0.108-0.016,0.164c-0.067,0.257-0.147,0.512-0.222,0.768
			c-0.105,0.365-0.162,0.726-0.162,1.069c-0.063,0.193-0.041,0.4,0.042,0.597c-0.021,0.118-0.039,0.236-0.037,0.354
			c0.021,1.241,1.354,1.611,2.118,0.715c0.314-0.369,0.322-0.817,0.092-1.18c0.008-0.054,0.029-0.097,0.029-0.155v-0.284v-0.001
			c0.026-0.059,0.051-0.114,0.063-0.141C23.375,26.481,23.445,26.058,23.503,25.598z"/>
		<path fill="#553E31" d="M21.168,20.072c-0.073-0.184-0.161-0.387-0.186-0.582c-0.002-0.022,0-0.044-0.001-0.064
			c0.229-0.243,0.314-0.57,0.343-0.919c0.077-0.927-1.075-1.177-1.659-0.688c-0.018,0.014-0.027,0.031-0.044,0.046
			c-0.22,0.06-0.426,0.183-0.563,0.359c-0.149,0.19-0.229,0.385-0.265,0.581c-0.388,0.656-0.435,1.679-0.209,2.269
			c0.051,0.135,0.122,0.243,0.202,0.337c0.071,0.201,0.17,0.393,0.263,0.524c0.732,1.027,2.234,0.404,2.144-0.828
			c-0.01-0.132-0.04-0.253-0.081-0.369C21.219,20.531,21.257,20.294,21.168,20.072z"/>
		<path fill="#553E31" d="M16.361,29.235c0.014-0.062,0.031-0.124,0.031-0.191c-0.001-0.527-0.011-1.12-0.295-1.584
			c-0.477-0.776-1.384-0.83-2.013-0.237c-0.195,0.183-0.278,0.395-0.289,0.604c-0.214,0.033-0.424,0.073-0.619,0.117
			c-1.086,0.245-0.823,1.913,0.259,1.911c0.243,0,0.474-0.018,0.699-0.047c0.256,0.335,0.624,0.588,1.108,0.782
			c0.492,0.197,1.066-0.211,1.195-0.681C16.509,29.657,16.466,29.43,16.361,29.235z"/>
		<path fill="#553E31" d="M18.604,23.774c0.006-0.683-0.371-1.034-0.894-1.296c-0.93-0.762-2.244,0.539-1.338,1.397
			c0.009,0.009,0.021,0.021,0.031,0.033c0.037,0.063,0.073,0.127,0.106,0.191c0.027,0.05,0.059,0.13,0.092,0.222
			c-0.082,0.294-0.249,0.61-0.358,0.887c-0.053,0.135-0.06,0.273-0.035,0.409c-0.099,0.415,0.013,0.845,0.421,1.085
			c0.204,0.119,0.47,0.15,0.715,0.101c0.104,0.007,0.209,0.002,0.308-0.033c0.939-0.331,1.118-1.17,1.035-2.041
			C18.767,24.405,18.755,24.082,18.604,23.774z"/>
	</g>
</g>
<g id="Layer_3">
</g>
</svg>
