<?xml version="1.0" encoding="utf-8"?>
<!-- Generator: Adobe Illustrator 16.0.0, SVG Export Plug-In . SVG Version: 6.00 Build 0)  -->
<!DOCTYPE svg PUBLIC "-//W3C//DTD SVG 1.1//EN" "http://www.w3.org/Graphics/SVG/1.1/DTD/svg11.dtd">
<svg version="1.1" xmlns="http://www.w3.org/2000/svg" xmlns:xlink="http://www.w3.org/1999/xlink" x="0px" y="0px" width="32px"
	 height="32px" viewBox="0 0 32 32" enable-background="new 0 0 32 32" xml:space="preserve">
<g id="Layer_1">
	
		<path fill="#EBE0D5" stroke="#553E31" stroke-width="2" stroke-linecap="round" stroke-linejoin="round" stroke-miterlimit="10" d="
		M13.713,25.516c9.026,0.738,12.683-9.373,13.46-11.658l-0.036-0.031L5.508,6.256c0,0-4.141,4.195-3.109,9.395
		c0.939,4.738,4.482,7.732,6.487,8.559C10.297,24.789,11.934,25.297,13.713,25.516z"/>
	<path fill-rule="evenodd" clip-rule="evenodd" fill="#553E31" d="M14.968,22.041c-2.36,0-4.613-0.869-5.473-1.242
		C7.659,20,5.533,17.857,5.154,15.654c-0.45-2.619,0.59-4.781,1.797-5.486c0.333-0.193,0.733-0.297,1.157-0.297
		c0.665,0,1.339,0.25,1.714,0.637c0.275,0.283,0.322,0.564,0.313,0.75c-0.021,0.443-0.312,0.744-0.593,1.037
		c-0.275,0.285-0.586,0.607-0.753,1.139c-0.164,0.525-0.008,1.457,0.925,2.5c0.88,0.986,2.834,1.576,4.215,1.576h0.04
		c1.063-0.012,1.812-0.385,1.998-1.002c0.054-0.178-0.153-0.414-0.452-0.729c-0.248-0.26-0.503-0.529-0.599-0.871
		c-0.073-0.266-0.021-0.531,0.148-0.748c0.291-0.375,0.896-0.557,1.848-0.557c0.406,0,0.854,0.037,1.293,0.105
		c1.837,0.291,2.887,1.303,3.165,1.607c0.653,0.713,0.778,1.982,0.316,3.236c-0.511,1.387-2.716,2.686-4.532,3.203
		C16.489,21.945,15.753,22.041,14.968,22.041z M19.11,16.748c0.364,0.467,0.462,0.994,0.22,1.176
		c-0.245,0.184-0.736-0.047-1.1-0.514c-0.364-0.467-0.462-0.992-0.219-1.176C18.254,16.051,18.746,16.281,19.11,16.748z
		 M16.96,18.824c0.27,0.525,0.267,1.061-0.007,1.195s-0.714-0.18-0.983-0.705s-0.266-1.061,0.008-1.195S16.69,18.299,16.96,18.824z
		 M14.277,19.578c0.107,0.578-0.051,1.092-0.352,1.145c-0.302,0.055-0.632-0.371-0.739-0.951c-0.106-0.576,0.051-1.09,0.353-1.143
		C13.839,18.574,14.171,19,14.277,19.578z M11.944,19.246c-0.021,0.588-0.285,1.055-0.591,1.045
		c-0.307-0.01-0.537-0.494-0.519-1.082c0.021-0.588,0.285-1.057,0.591-1.047C11.732,18.174,11.965,18.658,11.944,19.246z
		 M9.927,18.256c-0.174,0.529-0.536,0.887-0.813,0.801c-0.274-0.088-0.357-0.586-0.185-1.115s0.536-0.887,0.812-0.801
		C10.017,17.229,10.1,17.727,9.927,18.256z M8.285,16.781c-0.331,0.359-0.75,0.516-0.938,0.35c-0.188-0.166-0.071-0.594,0.261-0.951
		c0.331-0.361,0.751-0.52,0.938-0.352C8.733,15.994,8.617,16.42,8.285,16.781z M7.167,15.027c-0.43,0.107-0.832-0.01-0.896-0.264
		c-0.065-0.252,0.23-0.545,0.662-0.65c0.429-0.107,0.831,0.012,0.896,0.264C7.893,14.631,7.597,14.922,7.167,15.027z M7.447,12.775
		c-0.409-0.049-0.716-0.297-0.684-0.557c0.03-0.258,0.388-0.428,0.799-0.379c0.409,0.047,0.716,0.295,0.684,0.555
		C8.215,12.652,7.857,12.824,7.447,12.775z"/>
	
		<path fill="#CDB8AB" stroke="#553E31" stroke-width="2" stroke-linecap="round" stroke-linejoin="round" stroke-miterlimit="10" d="
		M28.951,19.443c0.975-2.035,0.804-3.488,0.804-3.488l-2.582-2.098c-0.777,2.285-2.988,11.318-13.46,11.658
		c2.444,0.301,5.89,0.449,8.839-0.498C27.388,23.467,28.095,21.23,28.951,19.443z"/>
</g>
<g id="Layer_3">
</g>
</svg>
