<?xml version="1.0" encoding="utf-8"?>
<!-- Generator: Adobe Illustrator 16.0.0, SVG Export Plug-In . SVG Version: 6.00 Build 0)  -->
<!DOCTYPE svg PUBLIC "-//W3C//DTD SVG 1.1//EN" "http://www.w3.org/Graphics/SVG/1.1/DTD/svg11.dtd">
<svg version="1.1" xmlns="http://www.w3.org/2000/svg" xmlns:xlink="http://www.w3.org/1999/xlink" x="0px" y="0px" width="32px"
	 height="32px" viewBox="0 0 32 32" enable-background="new 0 0 32 32" xml:space="preserve">
<g id="Layer_1">
	<path fill="#553E31" d="M9.24,8.301c0,0,1.224,0.653,1.836,0.857c0.612,0.203,0.897,0.081,1.428,0.652s1.999,1.347,3.183,1.347
		c1.183,0,3.631-0.694,5.304-0.694s3.322-0.258,4.569,0.857c0.853,0.762,2.733,3.713,3.427,5.345
		c0.694,1.632,1.45,3.071,1.551,3.794c0.119,0.855,0.454,2.534,0.938,3.02c0.367,0.367,0.122,0.122,0.448,0.326
		c0.327,0.204-0.489,0.652-0.774,0.489c-0.286-0.163-0.204-0.326-0.408-0.938c-0.204-0.611-0.612-2.651-0.897-3.427
		c-0.286-0.775-1.673-2.856-2.04-3.387s-0.693-0.53-0.326,0.694c0.367,1.224,1.224,4.365,1.224,5.385c0,1.021,0.367,3.835,0,4.162
		c-0.367,0.326-1.102,0.244-1.632,0.122s0.081-0.979,0.489-1.102s0.693-0.082,0.367-1.061c-0.326-0.979-0.775-2.122-1.714-2.938
		c-0.938-0.816-1.672-1.632-1.672-1.632s-0.49,0.53-0.449,1.795s0.367,2.162,0.082,2.529c-0.286,0.367-2.734,2.285-3.346,2.57
		c-0.612,0.285-1.021-0.122-1.306-0.245c-0.286-0.122-0.775-1.142,0.041-0.938c0.815,0.204,1.142-0.04,1.509-0.367
		c0.367-0.326,1.388-0.938,1.225-1.917s-1.184-3.224-1.428-3.998c-0.245-0.775-0.327-1.143,0-1.959
		c-0.653,0.816-1.429,1.673-2.326,1.918s-1.479,0.362-2.542,0.05c-0.735-0.216-1.5-0.594-2.027-0.254
		c-0.041,0.775,0.163,5.59-0.041,6.487s-0.285,1.387-0.734,1.469c-0.448,0.081-1.428,0-2.08,0c0.081-0.53,0.407-0.694,0.938-0.734
		c0.53-0.041,0.693-0.367,0.693-0.694c0-0.326,0.041-1.265-0.367-2.366s-0.775-1.469-0.571-2.407
		c-0.53,0.531-4.782,3.225-5.019,3.876c-0.136,0.374,0,0.612-0.326,0.612s-1.102,0.367-1.632,0.571s-0.897,0.122-0.979-0.326
		c-0.081-0.449,0.123-0.775,0.857-0.938s0.938-0.286,1.305-0.857c0.367-0.57,2.048-2.906,2.652-3.712
		c0.122-0.163-0.693,0.081-0.693,0.081l-0.49-2.488l-0.203,1.754l-1.266-1.673l-0.57,0.449l-0.082-2.448l-0.612,1.184l0.123-2.407
		l-0.734,0.693l-0.53-1.387l-0.408,1.061l-0.041-1.184l-0.979,1.021c0,0-0.407,0.489-0.897-0.082
		c-0.489-0.571-1.265-2.08-1.265-2.08s-0.122-0.612,0.245-0.979s0.775-0.612,1.02-1.184c0.245-0.571,0.571-1.224,0.816-1.469
		c0.244-0.244-0.571-0.081-0.571-0.081l1.428-1.225L2.182,7.281l1.714,0.041l0.449-0.734l1.061,0.448l0.652-0.612l0.123,1.184
		C6.181,7.607,6.915,7.118,9.24,8.301z M2.914,9.72c-0.251,0.339-0.274,0.743-0.054,0.907s0.601,0.024,0.852-0.312
		c0.251-0.338,0.274-0.742,0.054-0.906C3.545,9.244,3.164,9.384,2.914,9.72z"/>
</g>
<g id="Layer_3">
</g>
</svg>
