<?xml version="1.0" encoding="utf-8"?>
<!-- Generator: Adobe Illustrator 16.0.0, SVG Export Plug-In . SVG Version: 6.00 Build 0)  -->
<!DOCTYPE svg PUBLIC "-//W3C//DTD SVG 1.1//EN" "http://www.w3.org/Graphics/SVG/1.1/DTD/svg11.dtd">
<svg version="1.1" xmlns="http://www.w3.org/2000/svg" xmlns:xlink="http://www.w3.org/1999/xlink" x="0px" y="0px" width="32px"
	 height="32px" viewBox="0 0 32 32" enable-background="new 0 0 32 32" xml:space="preserve">
<g id="Layer_1">
	<g>
		<path fill-rule="evenodd" clip-rule="evenodd" fill="#553E31" d="M12.742,19.291c0.615-0.203,1.289-0.425,1.991-0.645
			c0.568,0.587,1.376,1.564,1.643,2.597c1.661-0.562,4.702-1.928,4.702-1.928s-0.227-0.966-1.32-1.984
			c0.697-0.127,1.352-0.205,1.93-0.218c2.992-0.066,4.866,0.671,5.131,1.8c0.263,1.127,0.494,3.396-0.296,3.725
			c-0.79,0.329-4.051,0.271-6.677-0.92c-0.61-0.277-0.192,1.143-0.063,1.743c0.449,2.146,1.363,2.646,1.971,4.028
			c0,0,0.628,3.085,2.039,3.961c0.609,0.38,0.758-0.031,1.266-0.59c0.511-0.56,3.289-3.782,3.651-6.43
			c0.559-0.97,1.563-2.482,1.924-5.459c0,0,1.842-2.976,1.25-5.92c-0.593-2.943-1.99-6.149-4.539-8.401
			c-2.548-2.254-8.673-5.284-13.928-3.898C9.865,1.69,8.187,3.316,7.531,3.977c0,0-7.531,2.561-7.531,14.646
			c0,0,0.139,1.395,2.088,0.426c0,0-0.549,1.661,0.735,1.725c1.281,0.067,5.775-0.177,8.308-0.963
			c0.038-0.012,0.077-0.024,0.113-0.036L12.742,19.291z"/>
		<path fill-rule="evenodd" clip-rule="evenodd" fill="#CDB8AB" d="M11.244,19.774c0.44-2.049,0.992-6.618-1.362-11.262
			c-0.593-1.166,0.148-0.838,0.657-0.146c0.497,0.673,2.759,3.097,2.203,10.925L11.244,19.774z"/>
		<circle fill-rule="evenodd" clip-rule="evenodd" fill="#CDB8AB" cx="6.207" cy="11.991" r="1.488"/>
		<path fill-rule="evenodd" clip-rule="evenodd" fill="#CDB8AB" d="M18.849,19.424c0.45-0.19,0.865-0.371,1.193-0.513
			c-0.209-0.358-0.571-0.835-1.178-1.307c-0.159-0.127-0.429-0.156-0.624-0.156c-0.279,0-0.595,0.053-0.919,0.135L18.849,19.424z"/>
		<path fill-rule="evenodd" clip-rule="evenodd" fill="#CDB8AB" d="M16.508,17.837c-0.367,0.135-0.722,0.29-1.038,0.441
			c0.457,0.494,1.005,1.184,1.373,1.958c0.391-0.149,0.819-0.32,1.244-0.495L16.508,17.837z"/>
		<path fill-rule="evenodd" clip-rule="evenodd" fill="#CDB8AB" d="M25.772,24.541c-1.483,0.493-3.036,0.742-4.354,0.863
			c0.079,0.124,0.158,0.239,0.24,0.362c0.18,0.267,0.364,0.538,0.539,0.851c1.322-0.467,2.797-1.061,3.777-1.67
			C25.907,24.812,25.839,24.675,25.772,24.541z"/>
		<path fill-rule="evenodd" clip-rule="evenodd" fill="#CDB8AB" d="M26.204,25.579c-1.033,0.619-2.389,1.299-3.676,1.759
			c0.084,0.425,0.24,0.975,0.447,1.515c1.035-0.803,2.492-1.982,3.42-2.994L26.204,25.579z"/>
		<path fill-rule="evenodd" clip-rule="evenodd" fill="#CDB8AB" d="M20.553,23.298c0.116,0.555,0.266,0.981,0.438,1.345
			c1.317-0.102,2.923-0.33,4.435-0.82c-0.034-0.077-0.072-0.15-0.107-0.224c-0.08,0.001-0.158,0.001-0.231,0.001
			c-0.612,0-2.575-0.065-4.646-0.795c0.016,0.073,0.031,0.138,0.043,0.188C20.511,23.104,20.534,23.21,20.553,23.298z"/>
		<path fill-rule="evenodd" clip-rule="evenodd" fill="#CDB8AB" d="M23.302,29.604c0.24,0.482,0.521,0.897,0.829,1.126
			c0.028-0.036,0.057-0.07,0.083-0.102c0.078-0.093,0.164-0.194,0.261-0.301c0.688-0.755,1.8-2.165,2.583-3.626
			c-0.096-0.123-0.188-0.25-0.278-0.38C25.798,27.565,24.461,28.719,23.302,29.604z"/>
		<path fill-rule="evenodd" clip-rule="evenodd" fill="#CDB8AB" d="M22.76,2.727c-0.454-0.206-0.926-0.396-1.414-0.572l-1.517,1.921
			c0.45,0.133,0.882,0.282,1.296,0.446L22.76,2.727z"/>
		<path fill-rule="evenodd" clip-rule="evenodd" fill="#CDB8AB" d="M20.55,1.889c-0.477-0.147-0.961-0.276-1.455-0.381l-1.418,2.073
			c0.458,0.077,0.899,0.167,1.324,0.271L20.55,1.889z"/>
		<path fill-rule="evenodd" clip-rule="evenodd" fill="#CDB8AB" d="M24.844,3.821C24.43,3.57,23.981,3.319,23.503,3.08l-1.612,1.771
			c0.421,0.195,0.821,0.401,1.204,0.623L24.844,3.821z"/>
		<path fill-rule="evenodd" clip-rule="evenodd" fill="#CDB8AB" d="M14.373,1.353L13.359,3.31c0.427-0.014,0.841-0.016,1.245-0.007
			l1.254-2.104C15.349,1.215,14.85,1.268,14.373,1.353z"/>
		<path fill-rule="evenodd" clip-rule="evenodd" fill="#CDB8AB" d="M18.245,1.353c-0.487-0.075-0.979-0.126-1.475-0.146l-1.27,2.135
			c0.449,0.026,0.884,0.063,1.306,0.114L18.245,1.353z"/>
		<path fill-rule="evenodd" clip-rule="evenodd" fill="#CDB8AB" d="M26.729,5.163c-0.33-0.286-0.733-0.592-1.198-0.904l-1.742,1.647
			c0.371,0.247,0.726,0.505,1.059,0.774L26.729,5.163z"/>
		<path fill-rule="evenodd" clip-rule="evenodd" fill="#CDB8AB" d="M27.314,5.705l-1.858,1.499c0.311,0.284,0.604,0.575,0.881,0.874
			l1.918-1.31C27.969,6.402,27.654,6.045,27.314,5.705z"/>
		<path fill-rule="evenodd" clip-rule="evenodd" fill="#CDB8AB" d="M31.209,14.365l-1.23,0.354c0.339,1.156,0.446,2.018,0.532,2.677
			l0,0C30.497,17.438,31.186,15.818,31.209,14.365z"/>
		<path fill-rule="evenodd" clip-rule="evenodd" fill="#CDB8AB" d="M13.36,1.587c-2.022,0.569-3.358,1.359-4.212,2.009
			c0,0-0.17,0.144,0.931-0.009c0.824-0.115,1.61-0.191,2.371-0.236L13.36,1.587z"/>
		<path fill-rule="evenodd" clip-rule="evenodd" fill="#CDB8AB" d="M31.165,13.559c-0.016-0.118-0.033-0.233-0.058-0.352
			c-0.028-0.139-0.06-0.288-0.095-0.443l-1.502,0.562c0.083,0.217,0.159,0.431,0.23,0.641L31.165,13.559z"/>
		<path fill-rule="evenodd" clip-rule="evenodd" fill="#CDB8AB" d="M30.248,10.296c-0.14-0.351-0.296-0.711-0.472-1.073l-1.79,1.021
			c0.181,0.29,0.353,0.579,0.513,0.869L30.248,10.296z"/>
		<path fill-rule="evenodd" clip-rule="evenodd" fill="#CDB8AB" d="M30.815,11.994c-0.081-0.303-0.18-0.624-0.293-0.955
			l-1.662,0.776c0.127,0.262,0.248,0.52,0.356,0.776L30.815,11.994z"/>
		<path fill-rule="evenodd" clip-rule="evenodd" fill="#CDB8AB" d="M29.413,8.521c-0.208-0.374-0.437-0.747-0.691-1.116
			l-1.863,1.272c0.243,0.299,0.476,0.601,0.691,0.907L29.413,8.521z"/>
	</g>
</g>
<g id="Layer_3">
</g>
</svg>
