<?xml version="1.0" encoding="utf-8"?>
<!-- Generator: Adobe Illustrator 16.0.0, SVG Export Plug-In . SVG Version: 6.00 Build 0)  -->
<!DOCTYPE svg PUBLIC "-//W3C//DTD SVG 1.1//EN" "http://www.w3.org/Graphics/SVG/1.1/DTD/svg11.dtd">
<svg version="1.1" xmlns="http://www.w3.org/2000/svg" xmlns:xlink="http://www.w3.org/1999/xlink" x="0px" y="0px" width="32px"
	 height="32px" viewBox="0 0 32 32" enable-background="new 0 0 32 32" xml:space="preserve">
<g id="Layer_1">
	<g>
		<path fill="#EBE0D5" stroke="#553E31" stroke-width="1.336" stroke-linejoin="round" stroke-miterlimit="10" d="M27.606,24.019
			c0,0-4.726-0.876-6.381-1.12c-1.656-0.242-3.802,0.662-6.06,0.697c-2.257,0.034-5.24-0.715-7.148-1.045
			c-2.465-0.425-3.824,0.865-3.824,0.865s-0.339-4.355,1.467-4.531C6.413,18.712,7.791,15.5,7.791,15.5s1.204-1.879,1.73-2.749
			c0.528-0.87,4.064-2.053,4.064-2.053s1.203-2.85,2.259-2.71c1.054,0.14,2.589,0.984,3.041,1.297
			c0.45,0.313,1.693,0.233,2.897,0.708c1.202,0.477-0.039,1.96,1.579,3.271c1.618,1.311,2.468,3.001,2.468,3.001
			c1.358,1.819,0.396,3.172,0.681,3.672C26.887,20.6,28.397,23.74,27.606,24.019z"/>
		<path fill="#553E31" d="M15.444,18.725c0,0-0.007,0.007-0.02,0.019c-0.116,0.103-0.713,0.648-0.857,0.937
			c-0.159,0.32,0.713,0.987,0.713,0.987l0.75-0.842L15.444,18.725z"/>
		<path fill="#553E31" d="M17.152,10.587c0,0-0.01,0.002-0.026,0.007c-0.154,0.04-0.967,0.253-1.238,0.45
			c-0.303,0.216,0.169,1.241,0.169,1.241l1.096-0.414V10.587z"/>
		<path fill="#553E31" d="M23.132,16.765c0,0-0.008-0.005-0.023-0.014c-0.15-0.08-0.939-0.498-1.306-0.533
			c-0.406-0.041-0.905,1.158-0.905,1.158l1.168,0.457L23.132,16.765z"/>
		<path fill="#553E31" d="M12.108,18.833c0,0-0.003,0.01-0.01,0.029c-0.056,0.182-0.347,1.132-0.322,1.523
			c0.029,0.433,1.32,0.542,1.32,0.542l0.27-1.354L12.108,18.833z"/>
		<path fill="#553E31" d="M18.319,15.079c0,0-0.009,0.003-0.027,0.009c-0.152,0.054-0.957,0.341-1.229,0.604
			c-0.296,0.291,0.171,1.665,0.171,1.665l1.085-0.555V15.079z"/>
		<path fill="#553E31" d="M15.786,14.951c0,0-0.009-0.007-0.028-0.022c-0.17-0.131-1.064-0.809-1.496-0.935
			c-0.479-0.139-1.198,1.193-1.198,1.193L14.404,16L15.786,14.951z"/>
		<path fill="none" stroke="#553E31" stroke-width="1.1952" stroke-miterlimit="10" d="M11.775,15.497c0,0-1.434,1.625-1.571,2.053
			c-0.138,0.43-0.24,2.146-0.24,2.146"/>
		<path fill="none" stroke="#553E31" stroke-width="1.1952" stroke-miterlimit="10" d="M21.228,15.331c0,0-0.669-2.052-0.971-2.389
			c-0.301-0.337-1.737-1.309-1.737-1.309"/>
		<path fill="none" stroke="#553E31" stroke-width="1.5056" stroke-miterlimit="10" d="M24.245,21.37c0,0-2.451-1.33-3.058-1.406
			c-0.608-0.077-2.976,0.127-2.976,0.127"/>
	</g>
</g>
<g id="Layer_3">
</g>
</svg>
