<?xml version="1.0" encoding="utf-8"?>
<!-- Generator: Adobe Illustrator 16.0.0, SVG Export Plug-In . SVG Version: 6.00 Build 0)  -->
<!DOCTYPE svg PUBLIC "-//W3C//DTD SVG 1.1//EN" "http://www.w3.org/Graphics/SVG/1.1/DTD/svg11.dtd">
<svg version="1.1" xmlns="http://www.w3.org/2000/svg" xmlns:xlink="http://www.w3.org/1999/xlink" x="0px" y="0px" width="32px"
	 height="32px" viewBox="0 0 32 32" enable-background="new 0 0 32 32" xml:space="preserve">
<g id="Layer_1">
	<g>
		<g>
			<path fill="#CDB8AB" d="M15.968,28.237c-2.02,0-4.162-0.507-5.878-1.39c-1.384-0.712-2.153-1.705-3.427-3.351L5.917,22.54
				c-0.791-1.005-1.896-2.044-2.619-2.646C1.467,18.938,0.5,17.776,0.5,16.531c0-3.227,6.809-5.755,15.501-5.755
				c8.691,0,15.499,2.528,15.499,5.755c0,1.284-1.026,2.477-2.97,3.452c-0.701,0.594-1.761,1.603-2.513,2.557l-0.637,0.814
				c-1.334,1.714-2.069,2.658-3.517,3.483C20.278,27.74,18.185,28.237,15.968,28.237z"/>
			<path fill="#553E31" d="M16.001,11.276C24.286,11.276,31,13.63,31,16.531c0,1.13-1.016,2.174-2.746,3.031
				c-0.78,0.655-1.863,1.696-2.629,2.668c-1.789,2.273-2.446,3.282-4.009,4.173c-1.526,0.869-3.54,1.334-5.648,1.334
				c-2.111,0-4.141-0.558-5.649-1.334C8.803,25.623,8.1,24.504,6.31,22.23c-0.801-1.017-1.948-2.107-2.734-2.756
				C1.949,18.636,1,17.622,1,16.531C1,13.63,7.717,11.276,16.001,11.276 M16.001,10.276C8.244,10.276,0,12.469,0,16.531
				c0,1.002,0.527,2.465,3.018,3.78c0.755,0.633,1.8,1.641,2.507,2.538c0.271,0.343,0.516,0.66,0.743,0.954
				c1.316,1.699,2.111,2.726,3.593,3.488c1.785,0.919,4.011,1.445,6.107,1.445c2.303,0,4.484-0.521,6.144-1.465
				c1.534-0.875,2.291-1.847,3.664-3.611c0.196-0.251,0.406-0.521,0.636-0.813c0.712-0.904,1.715-1.863,2.398-2.446
				c2.633-1.338,3.19-2.84,3.19-3.871C32,12.469,23.757,10.276,16.001,10.276L16.001,10.276z"/>
		</g>
		<path fill="#EBE0D5" stroke="#EBE0D5" stroke-miterlimit="10" d="M16.688,26.22c-0.706-0.072-0.93-0.073-1.881-0.2
			c-0.893-0.12-1.969-0.425-2.807-0.776c-0.899-0.377-2.025-1.313-2.905-2.155c-0.606-0.581-1.354-1.401-1.955-1.982
			c-0.272-0.262-0.367-0.091-0.211,0.128c0.158,0.218,0,0,1.075,1.485c0.245,0.34,0.511,0.663,0.8,0.962
			c1.085,1.125,1.961,1.769,3.309,2.186c1.282,0.395,3.136,0.594,4.467,0.583C17.208,26.443,17.259,26.279,16.688,26.22z"/>
		
			<ellipse fill="#EBE0D5" stroke="#553E31" stroke-width="0.8" stroke-miterlimit="10" cx="16.001" cy="15.965" rx="12.551" ry="3.399"/>
		<path fill="#CDB8AB" d="M11.593,15.656c0,0-1.734-1.335-1.646-2.907c0.089-1.573,1.269-3.058,2.146-4.258
			c0.791-1.083,1.682-3.045-0.921-4.957c0,0-0.286-0.196-0.24-0.256c0.063-0.068,0.361,0.106,0.361,0.106
			c3.766,2.096,2.769,4.375,1.891,5.574c-0.875,1.2-2.057,2.684-2.146,4.258c-0.048,0.851,0.545,1.771,0.895,2.17
			C12.325,15.837,12.161,16.139,11.593,15.656z"/>
		<path fill="#CDB8AB" d="M16.087,15.656c0,0-1.733-1.335-1.646-2.907c0.09-1.573,1.27-3.058,2.146-4.258
			c0.79-1.083,1.68-3.045-0.922-4.957c0,0-0.285-0.196-0.239-0.256c0.063-0.068,0.36,0.106,0.36,0.106
			c3.765,2.096,2.769,4.375,1.892,5.574c-0.878,1.2-2.058,2.684-2.146,4.258c-0.048,0.851,0.547,1.771,0.895,2.17
			C16.819,15.837,16.654,16.139,16.087,15.656z"/>
		<path fill="#CDB8AB" d="M20.139,15.656c0,0-1.735-1.335-1.646-2.907c0.089-1.573,1.27-3.058,2.146-4.258
			c0.79-1.083,1.682-3.045-0.921-4.957c0,0-0.285-0.196-0.24-0.256c0.063-0.068,0.361,0.106,0.361,0.106
			c3.766,2.096,2.769,4.375,1.891,5.574c-0.877,1.2-2.057,2.684-2.146,4.258c-0.048,0.851,0.546,1.771,0.895,2.17
			C20.871,15.837,20.705,16.139,20.139,15.656z"/>
	</g>
</g>
<g id="Layer_3">
</g>
</svg>
