<?xml version="1.0" encoding="utf-8"?>
<!-- Generator: Adobe Illustrator 16.0.0, SVG Export Plug-In . SVG Version: 6.00 Build 0)  -->
<!DOCTYPE svg PUBLIC "-//W3C//DTD SVG 1.1//EN" "http://www.w3.org/Graphics/SVG/1.1/DTD/svg11.dtd">
<svg version="1.1" id="Layer_1" xmlns="http://www.w3.org/2000/svg" xmlns:xlink="http://www.w3.org/1999/xlink" x="0px" y="0px"
	 width="11px" height="9px" viewBox="0 0 11 9" enable-background="new 0 0 11 9" xml:space="preserve">
<g>
	<path fill="#EBE0D5" d="M5.5,8.277c-0.321,0-0.613-0.164-0.781-0.439L1.196,2.143c-0.092-0.149-0.14-0.319-0.14-0.493
		c0-0.155,0.04-0.31,0.114-0.447c0.158-0.295,0.467-0.481,0.806-0.481h7.049c0.337,0,0.647,0.186,0.808,0.484
		C9.991,1.5,9.98,1.858,9.805,2.143L6.28,7.84C6.113,8.113,5.821,8.277,5.5,8.277z"/>
	<path fill="#553E31" d="M9.025,1.167c0.173,0,0.333,0.095,0.416,0.25C9.524,1.571,9.519,1.76,9.427,1.909L5.902,7.606
		C5.815,7.748,5.664,7.833,5.5,7.833c-0.164,0-0.315-0.085-0.402-0.227L1.574,1.909C1.525,1.83,1.5,1.74,1.5,1.65
		c0-0.08,0.02-0.16,0.06-0.233c0.083-0.155,0.242-0.25,0.416-0.25H9.025 M9.025,0.278H1.976c-0.502,0-0.962,0.275-1.199,0.72
		C0.669,1.193,0.611,1.421,0.611,1.65c0,0.256,0.071,0.507,0.206,0.726l3.525,5.698C4.589,8.478,5.023,8.722,5.5,8.722
		c0.476,0,0.909-0.243,1.159-0.65l3.523-5.694c0.259-0.42,0.274-0.95,0.04-1.383C9.986,0.553,9.526,0.278,9.025,0.278L9.025,0.278z"
		/>
</g>
</svg>
