<?xml version="1.0" encoding="utf-8"?>
<!-- Generator: Adobe Illustrator 16.0.0, SVG Export Plug-In . SVG Version: 6.00 Build 0)  -->
<!DOCTYPE svg PUBLIC "-//W3C//DTD SVG 1.1//EN" "http://www.w3.org/Graphics/SVG/1.1/DTD/svg11.dtd">
<svg version="1.1" id="Layer_1" xmlns="http://www.w3.org/2000/svg" xmlns:xlink="http://www.w3.org/1999/xlink" x="0px" y="0px"
	 width="60px" height="60px" viewBox="0 0 60 60" enable-background="new 0 0 60 60" xml:space="preserve">
<g>
	<defs>
		<path id="SVGID_37_" d="M30,53.5C17.042,53.5,6.5,42.959,6.5,30S17.042,6.5,30,6.5S53.5,17.041,53.5,30S42.958,53.5,30,53.5z"/>
	</defs>
	<clipPath id="SVGID_2_">
		<use xlink:href="#SVGID_37_"  overflow="visible"/>
	</clipPath>
	<rect clip-path="url(#SVGID_2_)" fill="#FFFCF5" width="60" height="60"/>
	<g clip-path="url(#SVGID_2_)">
		<polygon fill="#EBE0D5" stroke="#553E31" stroke-miterlimit="10" points="56.493,24.122 1.752,36.27 19.427,56.75 51.986,53.886 
					"/>
		<g>
			
				<path fill="#CDB8AB" stroke="#553E31" stroke-width="0.8821" stroke-linecap="round" stroke-linejoin="round" stroke-miterlimit="10" d="
				M43.036,35.035c0,7.741-6.495,14.019-14.508,14.019s-14.507-6.277-14.507-14.019"/>
			
				<ellipse fill="#EBE0D5" stroke="#553E31" stroke-width="0.9633" stroke-linecap="round" stroke-linejoin="round" stroke-miterlimit="10" cx="28.529" cy="35.062" rx="14.507" ry="8.751"/>
			
				<path fill="#E4D7CD" stroke="#553E31" stroke-width="0.9633" stroke-linecap="round" stroke-linejoin="round" stroke-miterlimit="10" d="
				M20.486,42.315c2.317,0.944,5.109,1.497,8.117,1.497c3.038,0,5.858-0.564,8.188-1.529c-1.007-1.653-4.27-2.865-8.144-2.865
				C24.752,39.418,21.472,40.646,20.486,42.315z"/>
			<g>
				<g>
					<path fill="#553E31" d="M18.601,32.562c0.278-0.566,0.822-0.982,1.344-1.256c0.537-0.283,1.086-0.511,1.64-0.708
						c1.108-0.389,2.235-0.651,3.369-0.809c2.27-0.298,4.546-0.257,6.777,0.096c2.222,0.365,4.441,0.979,6.385,2.261
						c0.94,0.643,1.888,1.528,2.176,2.816c0.133,0.634,0.031,1.311-0.233,1.882c-0.263,0.574-0.659,1.052-1.095,1.451l-0.006,0.006
						c-0.194,0.178-0.496,0.165-0.674-0.029s-0.165-0.496,0.029-0.674c0.005-0.005,0.011-0.01,0.016-0.014
						c0.764-0.642,1.29-1.546,1.076-2.441c-0.181-0.897-0.971-1.638-1.826-2.177c-1.769-1.077-3.914-1.542-6.012-1.733
						c-2.113-0.165-4.258-0.042-6.307,0.376c-1.022,0.21-2.029,0.479-2.971,0.861c-0.469,0.19-0.924,0.405-1.345,0.652
						c-0.438,0.251-0.808,0.449-1.354,0.604l-0.017,0.005c-0.442,0.125-0.902-0.133-1.027-0.575
						C18.488,32.95,18.514,32.739,18.601,32.562z"/>
				</g>
				<g>
					<path fill="#553E31" d="M21.034,29.326c-0.386,0.603-0.702,1.274-0.896,1.931c-0.195,0.655-0.247,1.323-0.09,1.816l0,0
						l-0.465-0.752c0.142,0.142,0.519,0.337,0.828,0.453c0.332,0.127,0.688,0.216,1.058,0.271c0.74,0.107,1.529,0.063,2.311-0.108
						c0.149-0.035,0.299,0.059,0.333,0.208c0.029,0.124-0.033,0.249-0.14,0.308c-0.753,0.402-1.592,0.702-2.493,0.824
						c-0.45,0.06-0.914,0.077-1.386,0.037c-0.489-0.054-0.905-0.101-1.487-0.348c-0.239-0.103-0.396-0.318-0.435-0.558l-0.03-0.194
						l0,0c0.051-1.003,0.449-1.813,0.902-2.489c0.467-0.68,1.001-1.249,1.61-1.754c0.111-0.093,0.276-0.077,0.368,0.034
						c0.075,0.09,0.079,0.215,0.02,0.309L21.034,29.326z"/>
				</g>
			</g>
			<g>
				<path fill="#553E31" d="M27.924,41.693c-0.433,0-0.837-0.062-1.201-0.183c-1.647-0.547-3.349-2.265-2.721-5.307
					c0.506-2.47,2.507-3.358,3.702-3.889c0.229-0.102,0.432-0.191,0.591-0.278c0.898-0.486,1.487-1.635,1.493-1.646l6.422-13.554
					l0.291,0.141c0.492,0.237,1.244,1.063,0.573,2.49c-0.688,1.47-4.351,10.25-4.961,11.891c-0.497,1.338-0.325,1.769,0.245,3.194
					l0.159,0.397c0.781,1.983-0.041,3.525-0.702,4.765C31.214,40.843,29.541,41.693,27.924,41.693L27.924,41.693z"/>
				<path fill="#EBE0D5" d="M36.361,17.267c0,0,1.136,0.549,0.423,2.064c-0.71,1.517-4.384,10.334-4.972,11.916
					c-0.587,1.578-0.296,2.045,0.406,3.821c0.7,1.777,0.034,3.144-0.687,4.495c-0.569,1.067-2.165,1.809-3.608,1.809
					c-0.385,0-0.759-0.053-1.1-0.166c-1.619-0.537-3.08-2.164-2.508-4.938c0.568-2.773,3.143-3.408,4.133-3.95
					c0.995-0.539,1.625-1.782,1.625-1.782L36.361,17.267 M36.059,16.407l-0.277,0.585l-6.287,13.27l0,0c0,0-0.551,1.06-1.351,1.492
					c-0.155,0.085-0.351,0.171-0.569,0.268c-1.252,0.556-3.348,1.486-3.887,4.118c-0.67,3.248,1.162,5.088,2.935,5.676
					c0.396,0.132,0.834,0.199,1.302,0.199c1.755,0,3.511-0.904,4.175-2.149c0.655-1.229,1.553-2.912,0.717-5.032l-0.159-0.399
					c-0.563-1.407-0.696-1.741-0.242-2.963c0.608-1.638,4.265-10.4,4.951-11.867c0.807-1.714-0.25-2.686-0.725-2.915L36.059,16.407
					L36.059,16.407z"/>
			</g>
			
				<path fill="#CDB8AB" stroke="#553E31" stroke-width="0.9633" stroke-linecap="round" stroke-linejoin="round" stroke-miterlimit="10" d="
				M49.139,1.034c0,0-4.458,2.678-6.304,3.545c-2.886,1.355-6.397,2.775-8.127,5.637c-0.549,0.912-0.899,1.998-1.123,3.035
				c-0.207,0.953-0.622,1.845-0.787,2.812c-0.112,0.665-0.044,1.007-0.435,1.591c-0.294,0.439-0.6,0.857-0.732,1.376
				c-0.136,0.538-0.092,1.104-0.197,1.646c-0.154,0.794-0.395,1.573-0.086,2.362c0.226,0.58,0.861,1.641,1.286,2.097
				c0.742-1.739,2.534-5.54,2.534-5.54s0.487-0.998,1.292-1.512c0.805-0.516,0.57-0.445,1.122-0.967
				c0.847,0.08,1.497-0.217,2.489-0.566c-1.038,0.17-2.032,1.049-2.57,1.413c-0.536,0.367-2.487,2.554-2.672,3.429
				c-0.184,0.875,0.051,1.801,0.714,1.994c0.665,0.193,0.77,0.096,1.093-0.308c0.322-0.405,3.298-3.254,4.563-3.884
				c1.269-0.633,0.734-0.335,1.535-0.781c0.8-0.448,1.436-1.584,2.007-2.098c0.574-0.514,1.413-1.291,2.076-3.204
				c0.662-1.909,2.555-3.892,4.026-4.628c1.469-0.736,7.343-2.555,9.555-3C54.978,3.342,49.139,1.034,49.139,1.034z"/>
		</g>
		<path fill="#553E31" stroke="#CDB8AB" stroke-linecap="round" stroke-linejoin="round" stroke-miterlimit="10" d="M28.953,33.768
			c-0.836,0.184-1.896,0.633-2.567,1.632c-0.468,0.694-0.673,1.446-0.632,2.425s0.896,1.916,1.774,2.161"/>
	</g>
</g>
</svg>
