<?xml version="1.0" encoding="utf-8"?>
<!-- Generator: Adobe Illustrator 16.0.0, SVG Export Plug-In . SVG Version: 6.00 Build 0)  -->
<!DOCTYPE svg PUBLIC "-//W3C//DTD SVG 1.1//EN" "http://www.w3.org/Graphics/SVG/1.1/DTD/svg11.dtd">
<svg version="1.1" id="Layer_1" xmlns="http://www.w3.org/2000/svg" xmlns:xlink="http://www.w3.org/1999/xlink" x="0px" y="0px"
	 width="60px" height="60px" viewBox="0 0 60 60" enable-background="new 0 0 60 60" xml:space="preserve">
<g>
	<defs>
		<path id="SVGID_73_" d="M29.999,53.5C17.041,53.5,6.5,42.958,6.5,30c0-12.96,10.541-23.5,23.499-23.5
			C42.958,6.5,53.5,17.04,53.5,30C53.5,42.958,42.958,53.5,29.999,53.5z"/>
	</defs>
	<clipPath id="SVGID_2_">
		<use xlink:href="#SVGID_73_"  overflow="visible"/>
	</clipPath>
	<rect x="0.625" y="0.625" clip-path="url(#SVGID_2_)" fill="#FFFCF5" width="58.75" height="58.75"/>
	<polygon clip-path="url(#SVGID_2_)" fill="#EBE0D5" stroke="#553E31" stroke-miterlimit="10" points="-7.651,28.716 57.97,19.833 
		67.652,52.353 -2.373,57.364 	"/>
	<path clip-path="url(#SVGID_2_)" fill="#EBE0D5" stroke="#553E31" stroke-miterlimit="10" d="M26.513,26.508
		c1.566,0.003,4.283-0.625,5.906,0.152c1.621,0.777,2.05,1.893,3.151,2.331c1.102,0.44,8.844,0.068,10.221-0.607
		c1.378-0.676,1.225-1.048,3.061-0.202c1.837,0.844,1.989,4.223,1.285,6.285c-0.703,2.062-2.692,3.92-4.56,4.46
		c-1.866,0.541-6.273,1.724-7.987,1.96c-1.714,0.237-5.901,0.486-7.908-0.145c-2.007-0.633-2.526-0.802-5.526-0.7
		c-2.998,0.102-3.825-1.115-6.059-0.438c-2.234,0.676-3.703,1.655-5.233-0.068c-1.529-1.723-1.499-6.514-0.917-8.275
		C12.527,29.499,17.607,26.491,26.513,26.508z"/>
	
		<path clip-path="url(#SVGID_2_)" fill="#CDB8AB" stroke="#553E31" stroke-linecap="round" stroke-linejoin="round" stroke-miterlimit="10" d="
		M13.567,8.324c0.704,2.814,2.204,7.711,2.233,10.19c0.031,2.478-0.488,6.426-0.55,8.078s-0.139,2.097-0.367,2.892
		c-0.229,0.796-0.766,2.969-0.872,3.366c-0.107,0.398-0.123,0.597,0.015,1.025s0.566,1.271,0.628,1.515
		c0.061,0.245,0.259,0.484,0.566,0.291c0.29-0.184,0.673-0.383,0.642-0.934c-0.03-0.55-0.106-1.285,0-1.698
		c0.107-0.413,0.735-1.606,0.735-1.606s-0.153,0.979-0.107,1.729s0.291,3.551,0.536,3.994c0.244,0.443,0.351,0.627,0.719,0.734
		c0.367,0.107,0.811,0.076,0.979-0.275c0.168-0.352,0.122-0.597,0.045-1.102c-0.076-0.505-0.138-2.265-0.03-2.754
		c0.107-0.49,0.138-0.49,0.261-0.826c-0.047,0.627,0.045,2.479,0.122,3.091c0.076,0.611,0.275,1.438,0.52,1.698
		c0.245,0.26,0.307,0.551,0.688,0.611c0.384,0.062,0.734,0.093,0.949-0.245c0.214-0.336,0.107-0.642,0.107-1.101
		c0-0.46,0.199-2.312,0.291-2.984c0.091-0.673,0.091-2.295,0.152-2.724c0.352-0.016,0.627,0.077,0.826,0.475
		s0.873,1.867,1.102,2.632c0.229,0.765,0.612,2.464,0.857,3.029c0.244,0.566,0.489,1.071,0.933,1.041
		c0.444-0.03,0.842-0.153,0.934-0.734c0.092-0.582,0.076-2.204-0.367-4.04s-0.918-3.014-1.132-3.748
		c-0.215-0.735-0.123-2.326,0.046-2.8c0.26-0.291,0.428-0.398,0.734-0.506c0.306-0.106,0.551-0.122,0.75-0.153
		c-0.077-0.291-0.444-1.102-0.812-1.621c-0.367-0.521-1.652-2.969-1.959-3.474c-0.306-0.505-0.887-1.546-0.979-2.433
		c-0.092-0.888-1.041-9.38-1.148-10.451C21.509,7.437,13.567,8.324,13.567,8.324z"/>
	
		<path clip-path="url(#SVGID_2_)" fill="#CDB8AB" stroke="#553E31" stroke-linecap="round" stroke-linejoin="round" stroke-miterlimit="10" d="
		M50.526,12.313c-0.856,0.812-8.928,10.104-9.754,10.746c-0.825,0.643-2.065,1.928-2.677,2.372c-0.612,0.443-2.097,1.974-2.51,2.555
		c-0.414,0.581-1.561,1.301-2.25,1.852c-0.688,0.551-1.881,1.866-2.279,2.8s-0.658,2.111-0.566,2.738
		c0.092,0.628,0.275,1.256,0.78,1.025c0.505-0.229,0.72-0.26,0.995-0.826c0.275-0.565,0.397-0.964,0.704-1.315
		c0.306-0.352,0.581-0.934,0.811-1.255c0.443-0.153,1.53-0.551,1.913-1.147c0.122,0.092,0.244,0.199,0.244,0.199
		s-0.657,1.591-0.795,2.417c-0.139,0.826-0.781,3.106-0.734,3.688c0.045,0.581,0.213,0.887,0.688,1.086
		c0.475,0.198,0.78,0.184,1.133-0.169c0.352-0.352,0.429-0.704,0.597-1.33c0.168-0.628,0.796-2.174,1.07-2.648
		c0.275-0.474,0.613-1.33,0.72-1.683c0.169-0.016,0.275,0.046,0.275,0.046s-0.275,1.179-0.26,1.744
		c0.016,0.566-0.142,1.395-0.26,1.852c-0.107,0.413-0.123,0.597-0.275,0.734c-0.153,0.138-0.291,0.628,0.075,0.826
		c0.368,0.199,1.148,0.536,1.576,0.123c0.429-0.414,0.949-1.209,1.377-2.831c0.429-1.622,0.506-1.453,0.506-1.453
		s0.03,0.627,0.016,1.132c-0.016,0.505,0.122,0.918-0.199,1.239c-0.322,0.321-0.628,1.01-0.245,1.27
		c0.383,0.261,0.643,0.031,1.01-0.106s0.796-0.016,1.04-0.475c0.245-0.459,0.644-1.82,0.75-2.586
		c0.107-0.765,0.214-1.515,0.229-2.065c0.353-0.475,0.307-0.582,0.506-0.888c0.198-0.306,0.397-0.581,0.703-1.178
		c0.307-0.597,0.75-1.01,1.04-2.387c0.291-1.378,0.582-1.775,1.255-2.479C48.408,25.231,61,14.264,61,14.264L50.526,12.313z"/>
	
		<path clip-path="url(#SVGID_2_)" fill="#EBE0D5" stroke="#553E31" stroke-linecap="round" stroke-linejoin="round" stroke-miterlimit="10" d="
		M16.598,31.443c0.084-0.337,0.244-0.986,0.291-1.309"/>
	
		<path clip-path="url(#SVGID_2_)" fill="#EBE0D5" stroke="#553E31" stroke-linecap="round" stroke-linejoin="round" stroke-miterlimit="10" d="
		M19,32.943c0.045-0.498,0.114-1.47,0.145-1.829"/>
	
		<path clip-path="url(#SVGID_2_)" fill="#EBE0D5" stroke="#553E31" stroke-linecap="round" stroke-linejoin="round" stroke-miterlimit="10" d="
		M41.63,34.458c0.061-0.673,0.081-0.796,0.143-1.163"/>
</g>
</svg>
