<?xml version="1.0" encoding="utf-8"?>
<!-- Generator: Adobe Illustrator 16.0.0, SVG Export Plug-In . SVG Version: 6.00 Build 0)  -->
<!DOCTYPE svg PUBLIC "-//W3C//DTD SVG 1.1//EN" "http://www.w3.org/Graphics/SVG/1.1/DTD/svg11.dtd">
<svg version="1.1" id="Layer_1" xmlns="http://www.w3.org/2000/svg" xmlns:xlink="http://www.w3.org/1999/xlink" x="0px" y="0px"
	 width="60px" height="60px" viewBox="0 0 60 60" enable-background="new 0 0 60 60" xml:space="preserve">
<g>
	<defs>
		<path id="SVGID_27_" d="M30,53.5C17.042,53.5,6.5,42.959,6.5,30S17.042,6.5,30,6.5S53.5,17.041,53.5,30S42.958,53.5,30,53.5z"/>
	</defs>
	<clipPath id="SVGID_2_">
		<use xlink:href="#SVGID_27_"  overflow="visible"/>
	</clipPath>
	<rect x="0.625" y="0.625" clip-path="url(#SVGID_2_)" fill="#FFFCF5" width="58.75" height="58.75"/>
	<polygon clip-path="url(#SVGID_2_)" fill="#EBE0D5" stroke="#553E31" stroke-miterlimit="10" points="56.384,23.88 -3.182,37.099 
		16.729,60.762 51.877,53.644 	"/>
	
		<ellipse clip-path="url(#SVGID_2_)" fill="#CDB8AB" stroke="#553E31" stroke-miterlimit="10" cx="25.455" cy="48.12" rx="23.296" ry="10.945"/>
	
		<ellipse clip-path="url(#SVGID_2_)" fill="#CDB8AB" stroke="#553E31" stroke-width="0.9069" stroke-miterlimit="10" cx="24.182" cy="52.156" rx="21.126" ry="9.927"/>
	<g clip-path="url(#SVGID_2_)">
		<g>
			<path fill="#553E31" d="M26.99,19.81c0.351,0.314,0.553,0.938,0.622,1.409c0.082,0.508,0.101,1.009,0.11,1.506
				c-0.002,0.991-0.102,1.964-0.29,2.912c-0.397,1.893-1.059,3.699-1.961,5.382c-0.909,1.67-2.017,3.271-3.578,4.466
				c-0.773,0.572-1.743,1.082-2.851,0.954c-0.253-0.025-0.569-0.144-0.758-0.231c-0.266-0.142-0.489-0.296-0.677-0.481
				c-0.387-0.367-0.659-0.816-0.855-1.276c-0.088-0.204,0.006-0.441,0.211-0.529c0.204-0.088,0.441,0.007,0.529,0.211
				c0.001,0.003,0.003,0.009,0.004,0.012c0.155,0.393,0.368,0.755,0.646,1.032c0.134,0.149,0.303,0.248,0.439,0.331
				c0.232,0.103,0.354,0.145,0.563,0.175c0.766,0.105,1.576-0.319,2.244-0.853c1.351-1.112,2.317-2.694,3.054-4.315
				c0.72-1.641,1.213-3.386,1.453-5.136c0.116-0.875,0.178-1.752,0.138-2.609c-0.027-0.426-0.062-0.852-0.147-1.255
				c-0.09-0.438-0.113-0.716-0.108-1.26c0.004-0.379,0.314-0.684,0.693-0.68c0.174,0.002,0.331,0.067,0.451,0.175L26.99,19.81z"/>
		</g>
		<g>
			<path fill="#553E31" d="M28.89,22.641c-0.373-0.476-0.821-0.915-1.291-1.252c-0.469-0.337-0.986-0.565-1.425-0.578l0,0
				l0.73-0.162c-0.153,0.076-0.412,0.321-0.591,0.537c-0.192,0.23-0.364,0.489-0.511,0.769c-0.286,0.562-0.476,1.202-0.557,1.873
				c-0.014,0.13-0.13,0.223-0.259,0.209c-0.106-0.012-0.189-0.097-0.206-0.197c-0.111-0.714-0.112-1.465,0.036-2.219
				c0.079-0.376,0.194-0.751,0.356-1.116c0.178-0.376,0.332-0.695,0.689-1.09c0.148-0.164,0.364-0.229,0.566-0.192l0.164,0.03h0.001
				c0.784,0.32,1.318,0.863,1.733,1.413c0.412,0.561,0.717,1.146,0.95,1.772c0.043,0.114-0.015,0.242-0.13,0.284
				c-0.092,0.035-0.193,0.004-0.251-0.07L28.89,22.641z"/>
		</g>
	</g>
	<g clip-path="url(#SVGID_2_)">
		<g>
			<path fill="#553E31" d="M14.995,29.879c-0.351-0.315-0.553-0.938-0.621-1.41c-0.082-0.508-0.102-1.008-0.111-1.505
				c0.003-0.991,0.102-1.964,0.291-2.912c0.396-1.893,1.058-3.699,1.96-5.381C17.423,17,18.53,15.4,20.092,14.205
				c0.774-0.571,1.744-1.081,2.852-0.953c0.253,0.025,0.568,0.144,0.757,0.231c0.266,0.142,0.489,0.295,0.677,0.48
				c0.387,0.367,0.66,0.815,0.858,1.274c0.089,0.204-0.006,0.441-0.21,0.529c-0.204,0.089-0.441-0.005-0.529-0.209
				c-0.002-0.003-0.004-0.009-0.005-0.012c-0.156-0.393-0.369-0.754-0.647-1.031c-0.134-0.148-0.304-0.248-0.44-0.331
				c-0.232-0.103-0.354-0.145-0.563-0.175c-0.766-0.105-1.576,0.319-2.243,0.852c-1.352,1.112-2.318,2.694-3.055,4.314
				c-0.721,1.641-1.213,3.386-1.453,5.136c-0.116,0.875-0.177,1.752-0.138,2.609c0.028,0.426,0.063,0.852,0.147,1.255
				c0.091,0.438,0.114,0.716,0.108,1.26c-0.004,0.379-0.314,0.684-0.694,0.68c-0.173-0.002-0.331-0.068-0.45-0.175L14.995,29.879z"
				/>
		</g>
		<g>
			<path fill="#553E31" d="M13.097,27.049c0.372,0.476,0.819,0.915,1.289,1.252c0.469,0.338,0.986,0.564,1.425,0.576l0,0
				l-0.729,0.162c0.152-0.075,0.412-0.319,0.591-0.536c0.192-0.229,0.363-0.488,0.511-0.768c0.286-0.562,0.475-1.202,0.556-1.873
				c0.014-0.129,0.129-0.223,0.259-0.209c0.106,0.012,0.189,0.097,0.206,0.197c0.111,0.713,0.112,1.465-0.035,2.219
				c-0.079,0.376-0.195,0.75-0.357,1.115c-0.178,0.377-0.333,0.696-0.69,1.091c-0.147,0.163-0.362,0.229-0.564,0.191l-0.164-0.029
				l0,0c-0.786-0.319-1.321-0.862-1.735-1.412c-0.412-0.562-0.718-1.146-0.951-1.773c-0.042-0.114,0.016-0.242,0.131-0.284
				c0.093-0.035,0.193-0.003,0.251,0.07L13.097,27.049z"/>
		</g>
	</g>
	
		<path clip-path="url(#SVGID_2_)" fill="#CDB8AB" stroke="#553E31" stroke-width="0.8448" stroke-linecap="round" stroke-linejoin="round" stroke-miterlimit="10" d="
		M45.804,6.466c0,0-3.829,5.52-4.524,7.083c-0.695,1.562-1.796,3.289-2.567,4.165c-0.773,0.877-2.18,2.069-2.736,3.657
		s-1.349,2.707-1.498,4.165c-0.149,1.459,0.13,2.063-0.117,3.079c-0.248,1.019-0.612,2.945-0.389,3.759
		c0.226,0.815,1.178,1.643,1.722,2.059c0.543,0.414,2.293,0.805,2.844,0.77c0.549-0.035,2.24-0.393,2.625-0.77
		c0.586-0.57,0.116-1.099,0.044-1.21c-0.071-0.111-1.027-0.789-1.479-0.788c-0.454,0.004-0.766,0.188-1.474,0.317
		c-0.523,0.097,0.144-1.433,1.271-2.437c1.128-1.001,2.719-4.078,2.573-3.913c-0.144,0.165,0.966-0.683,1.515-1.026
		c0.548-0.347,3.019-0.993,3.206-1.29c0.189-0.298,0.702-2.113,1.141-3.255c0.489-1.272,0.123-2.568,0.435-2.977
		c0,0,10.515-10.137,13.069-11.926c2.553-1.792-4.924-0.494-4.924-0.494L45.804,6.466z"/>
	
		<path clip-path="url(#SVGID_2_)" fill="#EBE0D5" stroke="#553E31" stroke-width="0.8448" stroke-linecap="round" stroke-linejoin="round" stroke-miterlimit="10" d="
		M37.071,31.247c-0.909,1.017-1.647,1.87-1.904,2.218c0,0-2.532,3.783-2.799,4.083c-0.263,0.302-1.404,1.099-2.7,1.49
		c-1.295,0.393-5.271,1.367-6.25,1.455c-0.978,0.087-4.649,0.525-5.312,0.724c-0.659,0.196-2.005,0.617-1.646,1.37
		c0.932,1.966,2.764,3.494,4.688,4.432c1.153,0.563,2.564,1.204,3.863,0.813c0.617-0.185,1.229-0.377,1.844-0.574
		c1.502-0.481,2.987-1.059,4.434-1.685c0.455-0.197,0.999-0.396,1.384-0.721c0.836-0.697,1.203-1.859,1.083-2.525
		c-0.119-0.665-0.201-2.395,0.086-3.164c0.289-0.768,1.241-2.897,2.835-4.707c0.34-0.385,0.96-1.013,1.744-1.774"/>
	
		<path clip-path="url(#SVGID_2_)" fill="#EBE0D5" stroke="#553E31" stroke-width="0.8448" stroke-linecap="round" stroke-linejoin="round" stroke-miterlimit="10" d="
		M38.422,32.682c2.894-2.815,8.033-7.448,9.627-8.361c2.023-1.162,2.26-1.515,2.021-2.017c-0.239-0.503-1.081-1.123-1.685-0.852
		c-0.603,0.27-5.214,3.511-6.341,4.515c-0.746,0.662-3.188,3.286-4.973,5.28"/>
	
		<path clip-path="url(#SVGID_2_)" fill="#CDB8AB" stroke="#553E31" stroke-width="0.8448" stroke-linecap="round" stroke-linejoin="round" stroke-miterlimit="10" d="
		M44.687,30.512c0,0,1.725-0.524,2.384-1.161c0.66-0.637,1.121-1.132,1.142-1.624c0.02-0.494-0.209-2.498-0.467-2.87
		c-0.256-0.371-0.438-0.386-0.748-0.393c-0.313-0.005-0.696,0.07-0.87,0.572C45.95,25.538,44.687,30.512,44.687,30.512z"/>
	
		<path clip-path="url(#SVGID_2_)" fill="#CDB8AB" stroke="#553E31" stroke-width="0.8448" stroke-linecap="round" stroke-linejoin="round" stroke-miterlimit="10" d="
		M42.228,32.166c0,0,0.958,0.017,1.455-0.324c0.496-0.343,1.023-1.023,1.461-1.464c0.437-0.443,1.133-1.729,1.356-2.285
		s-0.092-1.469-0.022-1.992c0.071-0.521-0.135-0.897-0.316-1.326c-0.181-0.427-0.448-0.566-0.835-0.516
		c-0.385,0.05-0.911,0.315-1.14,0.795c-0.229,0.481-0.341,1.16-0.443,1.582C43.64,27.057,42.228,32.166,42.228,32.166z"/>
	
		<path clip-path="url(#SVGID_2_)" fill="#CDB8AB" stroke="#553E31" stroke-width="0.8448" stroke-linecap="round" stroke-linejoin="round" stroke-miterlimit="10" d="
		M41.215,33.066c0,0,0.226,0.237,0.657-0.308c0.43-0.545,1.2-1.06,1.635-1.578c0.434-0.519,0.863-1.505,0.91-1.998
		c0.045-0.495-0.143-1.026-0.268-1.771c-0.125-0.741-0.112-1.228-0.604-1.247c-0.494-0.021-1.166,0.402-1.386,0.761
		c-0.162,0.266-0.286,0.934-0.404,1.51c-0.119,0.576-0.021,0.777-0.332,1.313c-0.129,0.225-1.756,1.699-2.362,2.347
		c-0.546,0.581-0.521,0.434-0.521,0.434s0.748-0.185,1.373-0.121C40.247,32.441,41.215,33.066,41.215,33.066z"/>
	
		<path clip-path="url(#SVGID_2_)" fill="#CDB8AB" stroke="#553E31" stroke-width="0.8448" stroke-linecap="round" stroke-linejoin="round" stroke-miterlimit="10" d="
		M37.729,22.355c0,0-0.148,2.986-0.362,3.698c-0.215,0.71-0.401,1.862-0.565,2.546c-0.164,0.683-0.44,2.461-0.349,3.102
		c0.092,0.642,0.367,0.909,0.811,0.933c0.44,0.024,1.11-0.044,1.59-0.617c0.483-0.574,1.372-2.08,1.47-2.992
		c0.098-0.911,0.649-2.422,0.88-2.875c0.229-0.455,0.725-0.823,1.279-1.038c0.557-0.218,1.377-1.148,1.987-1.756
		c0.608-0.609,1.122-1.884,1.296-2.437"/>
	
		<path clip-path="url(#SVGID_2_)" fill="#CDB8AB" stroke="#553E31" stroke-width="0.8448" stroke-linecap="round" stroke-linejoin="round" stroke-miterlimit="10" d="
		M19.456,40.698c-1.541,1.334-0.577,3.872,1.094,4.863c1.697,1.006,4.494,0.444,5.813,2.067c0.376,0.461,0.518,1.252,1.03,1.577
		c0.551,0.347,1.345-0.085,1.905-0.326c1.274-0.548,2.906,0.081,3.332-1.435c0.279-1.001,0.472-2.37-0.455-2.836
		c-0.956-0.479-2.574-0.395-3.231-1.361c-0.347-0.511-0.454-1.191-0.804-1.698c-0.379-0.558-1.015-0.986-1.649-1.151
		C24.401,39.857,21.093,39.282,19.456,40.698z"/>
</g>
</svg>
