<?xml version="1.0" encoding="utf-8"?>
<!-- Generator: Adobe Illustrator 16.0.0, SVG Export Plug-In . SVG Version: 6.00 Build 0)  -->
<!DOCTYPE svg PUBLIC "-//W3C//DTD SVG 1.1//EN" "http://www.w3.org/Graphics/SVG/1.1/DTD/svg11.dtd">
<svg version="1.1" id="Layer_1" xmlns="http://www.w3.org/2000/svg" xmlns:xlink="http://www.w3.org/1999/xlink" x="0px" y="0px"
	 width="60px" height="60px" viewBox="0 0 60 60" enable-background="new 0 0 60 60" xml:space="preserve">
<g>
	<defs>
		<path id="SVGID_39_" d="M29.999,53.5C17.041,53.5,6.5,42.958,6.5,30c0-12.96,10.541-23.5,23.499-23.5
			C42.958,6.5,53.5,17.04,53.5,30C53.5,42.958,42.958,53.5,29.999,53.5z"/>
	</defs>
	<clipPath id="SVGID_2_">
		<use xlink:href="#SVGID_39_"  overflow="visible"/>
	</clipPath>
	<polygon clip-path="url(#SVGID_2_)" fill="#EBE0D5" stroke="#553E31" stroke-width="0.8921" stroke-miterlimit="10" points="
		64.878,55.197 59.003,3.293 6.459,6.473 -1.064,57.965 	"/>
	<g clip-path="url(#SVGID_2_)">
		<g>
			<path fill="#CDB8AB" d="M47.218,41.794c-0.035,0-0.071-0.007-0.104-0.021c-0.852-0.379-1.429-1.037-1.472-1.678
				c-0.036-0.469-0.088-1.931-0.099-2.637c-0.008-0.673-0.108-3.267-0.125-3.532c-0.016-0.224-0.016-0.224-0.107-0.444
				c-0.112-0.269-0.228-0.621-0.43-1.465c-0.206-0.872-0.279-1.292-0.375-2.39c-0.103-1.193-0.061-1.911,0.173-2.953
				c0.243-1.107,0.86-1.379,0.93-1.405c0.031-0.012,0.284-0.105,0.562-0.105c0.44,0,0.717,0.255,0.723,0.664
				c0.006,0.85,0.144,2.052,0.276,3.215c0.047,0.405,0.093,0.81,0.134,1.197c0.166,1.571,0.218,2.706,0.163,3.57
				c-0.044,0.738,0.633,3.988,0.922,5.376c0.074,0.354,0.126,0.604,0.141,0.688c0.084,0.485-0.063,0.952-0.417,1.313
				c-0.302,0.302-0.746,0.563-0.765,0.573C47.307,41.783,47.263,41.794,47.218,41.794z"/>
			<path fill="#553E31" d="M46.17,25.42c0.232,0,0.462,0.084,0.467,0.411c0.007,1.155,0.252,2.918,0.411,4.435
				c0.139,1.315,0.223,2.566,0.162,3.528c-0.058,0.96,0.992,5.699,1.065,6.123c0.074,0.426-0.067,0.804-0.348,1.09
				c-0.279,0.28-0.71,0.531-0.71,0.531c-0.853-0.379-1.289-0.988-1.32-1.46c-0.036-0.475-0.088-1.951-0.099-2.624
				c-0.008-0.675-0.108-3.271-0.125-3.544c-0.019-0.268-0.019-0.268-0.127-0.527c-0.106-0.256-0.22-0.602-0.417-1.426
				c-0.204-0.867-0.274-1.268-0.368-2.353c-0.104-1.208-0.05-1.907,0.167-2.875c0.193-0.881,0.639-1.17,0.773-1.223
				C45.768,25.482,45.97,25.42,46.17,25.42 M46.17,24.907c-0.316,0-0.597,0.101-0.649,0.12c-0.14,0.055-0.826,0.38-1.093,1.592
				c-0.236,1.057-0.281,1.822-0.177,3.029c0.097,1.114,0.171,1.54,0.38,2.426c0.206,0.862,0.326,1.226,0.442,1.506
				c0.076,0.182,0.076,0.182,0.089,0.365c0.017,0.261,0.116,2.846,0.124,3.515c0.011,0.642,0.062,2.146,0.101,2.657
				c0.048,0.729,0.686,1.473,1.623,1.89c0.066,0.029,0.137,0.044,0.208,0.044c0.09,0,0.179-0.023,0.258-0.069
				c0.051-0.029,0.498-0.294,0.815-0.612c0.416-0.425,0.589-0.971,0.489-1.54c-0.015-0.084-0.066-0.337-0.142-0.695
				c-0.263-1.26-0.959-4.604-0.917-5.31c0.056-0.878,0.003-2.026-0.164-3.612c-0.041-0.388-0.087-0.792-0.134-1.198
				c-0.133-1.157-0.27-2.353-0.274-3.186C47.142,25.267,46.757,24.907,46.17,24.907L46.17,24.907z"/>
		</g>
		<path fill="#EBE0D5" d="M47.259,41.264c0,0,0.524-0.433,0.657-0.813c0.132-0.374,0.146-0.628,0.014-1.18
			c-0.132-0.55-0.501-2.488-0.65-3.354c-0.147-0.865-0.199-2.008-0.199-2.307c0-0.298-0.456-0.36-0.723-0.327
			c-0.269,0.029-0.386,0.304-0.208,0.319c0.177,0.016,0.713-0.102,0.736,0.151c0.068,0.618,0.188,1.739,0.571,4.43
			c0.07,0.488,0.15,1.49,0.045,1.765c-0.163,0.425-0.641,0.11-0.681,0.415C46.781,40.703,46.993,41.082,47.259,41.264z"/>
		<path fill="#EBE0D5" d="M46.51,25.717c0.058,0.141,0.101,1.785,0.25,3.06c0.147,1.273,0.3,3.791,0.329,4.198
			c0.01,0.146-0.182-0.028-0.436,0.006c-0.252,0.031-0.052-0.304,0.049-0.56c0.104-0.249-0.252-6.499-0.303-6.65
			C46.311,25.512,46.457,25.575,46.51,25.717z"/>
	</g>
	<g clip-path="url(#SVGID_2_)">
		<g>
			<path fill="#CDB8AB" d="M11.951,41.85c-0.4-0.006-0.887-0.317-1.123-0.614c-0.259-0.329-0.163-0.755-0.052-1.248l0.039-0.178
				c0.063-0.291,0.272-0.989,0.493-1.729c0.195-0.653,0.394-1.314,0.48-1.667c0.183-0.735,0.579-2.935,0.621-3.383
				c0.042-0.466,0.051-0.994,0.03-1.154c-0.001,0-0.002,0-0.003,0c-0.036,0-0.249-0.07-0.33-0.098c-0.06-0.02-0.108-0.037-0.14-0.05
				c-0.15-0.072-0.387-0.186-0.395-0.577c-0.005-0.145,0.029-0.329,0.068-0.544c0.035-0.194,0.076-0.417,0.093-0.646
				c0.019-0.251,0.078-0.688,0.141-1.149c0.057-0.41,0.115-0.839,0.148-1.166l0.056-0.534c0.058-0.545,0.122-1.162,0.12-1.396
				c-0.002-0.156,0.051-0.297,0.149-0.396c0.084-0.085,0.193-0.132,0.309-0.132c0.097,0,0.197,0.034,0.279,0.107
				c0.085-0.137,0.214-0.191,0.329-0.191c0.129,0,0.249,0.064,0.339,0.169c0.016-0.026,0.034-0.051,0.055-0.072
				c0.049-0.051,0.201-0.115,0.271-0.115c0.136,0,0.269,0.072,0.363,0.182c0.022-0.057,0.057-0.109,0.102-0.156
				c0.087-0.091,0.202-0.144,0.316-0.144c0.167,0,0.365,0.113,0.416,0.432c0.07,0.402,0.119,2.158,0.119,2.955
				c0,0.875-0.048,2.158-0.063,2.556c-0.013,0.426-0.145,0.573-0.303,0.716c-0.121,0.106-0.317,0.183-0.627,0.299l-0.276,0.105
				c-0.158,0.064-0.16,0.079-0.197,0.33l-0.017,0.11c-0.068,0.436-0.137,1.186-0.127,1.982c0.007,0.455,0.109,1.86,0.184,2.886
				l0.075,1.064c0.048,0.718,0.084,1.918-0.016,2.283c-0.103,0.372-0.512,0.722-0.737,0.869c-0.253,0.166-0.822,0.295-1.144,0.295
				C11.999,41.851,11.954,41.85,11.951,41.85z"/>
			<path fill="#553E31" d="M14.711,25.225c0.069,0,0.138,0.057,0.163,0.216c0.066,0.382,0.116,2.12,0.116,2.914
				c0,0.941-0.056,2.356-0.065,2.624c-0.008,0.264-0.095,0.348-0.216,0.457c-0.124,0.109-0.495,0.224-0.827,0.357
				c-0.331,0.134-0.316,0.299-0.371,0.637c-0.059,0.375-0.142,1.146-0.13,2.026c0.01,0.653,0.204,3.122,0.259,3.964
				c0.057,0.846,0.071,1.911-0.007,2.199c-0.079,0.287-0.431,0.591-0.631,0.722c-0.189,0.125-0.697,0.254-1.003,0.254
				c-0.013,0-0.025-0.001-0.038-0.001c-0.3-0.005-0.722-0.253-0.932-0.518c-0.207-0.263-0.079-0.677,0.037-1.212
				c0.116-0.539,0.787-2.646,0.972-3.389c0.184-0.741,0.583-2.95,0.627-3.421c0.043-0.469,0.054-1.023,0.029-1.211
				c-0.028-0.187-0.501-0.296-0.624-0.35c-0.119-0.058-0.236-0.104-0.241-0.347c-0.007-0.241,0.127-0.693,0.161-1.166
				s0.219-1.617,0.288-2.309c0.069-0.693,0.181-1.631,0.177-1.959c-0.002-0.169,0.1-0.27,0.202-0.27c0.092,0,0.185,0.082,0.2,0.27
				c0.033,0.394-0.126,1.788-0.155,2.327c-0.029,0.541-0.098,1.263-0.13,1.718c-0.016,0.229,0.047,0.334,0.12,0.334
				c0.071,0,0.152-0.1,0.181-0.281c0.057-0.425,0.088-0.896,0.115-1.626c0.029-0.73,0.103-2.038,0.112-2.524
				c0.006-0.214,0.081-0.301,0.165-0.3c0.106,0,0.227,0.136,0.243,0.327c0.026,0.34,0.009,2.095,0.013,2.639
				c0.002,0.548-0.026,1.204-0.039,1.55c-0.005,0.159,0.046,0.24,0.104,0.24c0.064,0,0.137-0.104,0.144-0.318
				c0.012-0.363,0.037-1.223,0.051-1.987c0.011-0.767,0.02-1.725,0.006-2.189c-0.008-0.204,0.062-0.279,0.144-0.279
				c0.104,0,0.23,0.121,0.242,0.254c0.021,0.24,0.064,1.899,0.092,2.46c0.028,0.558-0.004,1.303,0,1.729
				c0.001,0.181,0.032,0.247,0.071,0.247c0.054,0,0.124-0.119,0.162-0.241c0.064-0.214,0.075-0.561,0.074-1.347
				c0-0.781-0.047-2.824-0.055-3.004C14.512,25.337,14.613,25.225,14.711,25.225 M14.711,24.712c-0.171,0-0.341,0.07-0.473,0.193
				c-0.096-0.048-0.201-0.075-0.309-0.075c-0.125,0-0.244,0.035-0.346,0.103c-0.098-0.055-0.205-0.084-0.318-0.085
				c-0.132,0-0.266,0.041-0.379,0.125c-0.076-0.027-0.154-0.041-0.229-0.041c-0.185,0-0.358,0.074-0.491,0.209
				c-0.146,0.148-0.227,0.354-0.224,0.579c0.003,0.219-0.062,0.828-0.118,1.366l-0.056,0.536c-0.033,0.324-0.092,0.75-0.147,1.157
				c-0.063,0.464-0.123,0.901-0.143,1.165c-0.015,0.21-0.055,0.427-0.089,0.618c-0.042,0.229-0.078,0.426-0.073,0.6
				c0.011,0.544,0.379,0.721,0.518,0.787c0.067,0.03,0.124,0.051,0.192,0.073c0.039,0.013,0.108,0.036,0.168,0.06
				c0.003,0.212-0.008,0.577-0.04,0.926c-0.041,0.441-0.434,2.616-0.614,3.345c-0.085,0.343-0.284,1.01-0.478,1.655
				c-0.222,0.744-0.433,1.447-0.497,1.748l-0.039,0.175c-0.115,0.511-0.234,1.038,0.101,1.463c0.27,0.34,0.825,0.705,1.325,0.713
				c0.002,0,0.003,0,0.004,0c0.411,0,1.026-0.139,1.328-0.338c0.113-0.074,0.695-0.477,0.843-1.014
				c0.146-0.534,0.029-2.295,0.024-2.369c-0.016-0.245-0.044-0.629-0.075-1.065c-0.074-1.022-0.176-2.423-0.183-2.872
				c-0.014-1.006,0.101-1.792,0.124-1.939l0.017-0.111c0.007-0.045,0.01-0.085,0.018-0.12c0.006-0.002,0.014-0.006,0.022-0.009
				c0.089-0.036,0.181-0.07,0.27-0.104c0.304-0.114,0.544-0.204,0.704-0.345c0.192-0.174,0.376-0.376,0.39-0.826l0.003-0.074
				c0.015-0.416,0.063-1.684,0.063-2.565c0-0.665-0.043-2.54-0.124-3.002C15.303,24.881,14.972,24.712,14.711,24.712L14.711,24.712z
				"/>
		</g>
		<path fill="#EBE0D5" d="M13.186,34.415c0,0,0.038,1.556,0.084,2.724c0.046,1.172,0.134,2.163,0.085,2.744
			c-0.049,0.583-0.015,0.825-0.423,1.108c-0.419,0.295-1.336,0.506-1.478-0.002c-0.105-0.384,0.773-0.364,1.11-1.031
			c0.384-0.772,0.271-1.982,0.309-2.819c0.038-0.798,0.056-1.556,0.119-2.347c0.013-0.15,0.026-0.39,0.087-0.534
			C13.079,34.258,13.212,34.118,13.186,34.415z"/>
		<path fill="#EBE0D5" d="M13.438,31.795c0,0,0.073-0.133,0.516-0.287c0.438-0.151,0.634-0.192,0.738-0.415
			c0.104-0.219,0.112-0.971,0.106-1.203c-0.004-0.58-0.101-0.132-0.133,0.15c-0.025,0.212-0.086,0.659-0.34,0.851
			c-0.251,0.193-0.547,0.233-0.746,0.409C13.381,31.477,13.416,31.594,13.438,31.795z"/>
	</g>
	<g clip-path="url(#SVGID_2_)">
		<g>
			<path fill="#EBE0D5" d="M37.421,25.939c-1.523-0.038-2.704-0.743-2.688-1.607c0.017-0.729,0.854-1.303,2.069-1.441
				c0.132-2.52,0.16-3.132,0.16-3.194c0-0.083-0.084-0.144-0.286-0.256c-0.095-0.052-0.184-0.104-0.252-0.159
				c-0.898-0.743-1.56-2.05-1.769-3.496c-0.087-0.577-0.089-1.222-0.007-1.971c0.205-1.657,0.252-1.752,0.531-1.752
				c0.017,0,5.384,0.068,5.384,0.068c0.074,0.001,0.167,0.044,0.219,0.099c0.283,0.299,0.244,2.351,0.243,2.371
				C41,15.71,40.75,16.775,40.304,17.679c-0.239,0.479-0.534,0.882-0.876,1.197c-0.45,0.426-0.851,0.704-1.19,0.824l0.034,3.241
				c1.148,0.217,1.921,0.824,1.905,1.521c-0.017,0.842-1.146,1.478-2.628,1.478L37.421,25.939z"/>
			<path fill="#553E31" d="M35.181,12.338c0.017,0,5.38,0.068,5.38,0.068c0.179,0.004,0.197,1.994,0.191,2.186
				c-0.024,1.019-0.25,2.065-0.694,2.965c-0.211,0.422-0.479,0.806-0.816,1.117c-0.296,0.28-0.719,0.634-1.096,0.768
				c-0.197,0.068-0.178,0.275-0.178,0.275l0.031,3.459c1.102,0.15,1.916,0.678,1.902,1.281c-0.014,0.68-1.057,1.209-2.353,1.209
				c-0.04,0-0.08-0.001-0.121-0.002c-1.351-0.033-2.433-0.629-2.419-1.326c0.014-0.626,0.901-1.121,2.056-1.194
				c0.057-1.079,0.174-3.319,0.174-3.447c0-0.358-0.436-0.461-0.639-0.628c-0.934-0.771-1.492-2.083-1.671-3.322
				c-0.095-0.628-0.075-1.271-0.006-1.901C34.938,13.724,35.103,12.338,35.181,12.338 M35.181,11.788
				c-0.558,0-0.604,0.371-0.797,1.933l-0.007,0.054c-0.086,0.782-0.083,1.451,0.008,2.054c0.218,1.508,0.915,2.879,1.864,3.664
				c0.081,0.066,0.184,0.128,0.294,0.189c0.044,0.023,0.104,0.057,0.143,0.084c-0.009,0.212-0.044,0.926-0.146,2.885
				c-1.229,0.203-2.063,0.855-2.08,1.676c-0.021,1.035,1.25,1.846,2.955,1.888l0.135,0.002c1.662,0,2.883-0.735,2.902-1.748
				c0.019-0.799-0.73-1.47-1.906-1.75l-0.025-2.837c0.331-0.158,0.699-0.429,1.1-0.808c0.361-0.333,0.676-0.762,0.931-1.271
				c0.465-0.941,0.725-2.046,0.752-3.197c0.011-0.358,0.048-2.179-0.319-2.565c-0.101-0.106-0.264-0.181-0.41-0.184
				C37.007,11.811,35.194,11.788,35.181,11.788L35.181,11.788z"/>
		</g>
		<g>
			<path fill="#CDB8AB" d="M37.859,13.82c-1.438-0.013-2.965-0.521-2.96-1.44c0.009-0.91,1.479-1.387,2.927-1.387
				c1.498,0.015,3.024,0.524,3.018,1.44c-0.009,0.91-1.477,1.387-2.922,1.387C37.922,13.82,37.86,13.82,37.859,13.82z"/>
			<path fill="#553E31" d="M37.826,11.269c0.019,0,0.037,0,0.056,0c1.489,0.015,2.691,0.534,2.687,1.163
				c-0.006,0.622-1.185,1.113-2.646,1.113c-0.02,0-0.039,0-0.06,0c-1.487-0.013-2.691-0.533-2.688-1.163
				C35.181,11.762,36.362,11.269,37.826,11.269 M37.826,10.719L37.826,10.719c-1.534,0-3.19,0.519-3.201,1.658
				c-0.007,1.11,1.621,1.704,3.232,1.718l0.064,0.001c1.532,0,3.186-0.52,3.196-1.659c0.009-1.107-1.619-1.702-3.23-1.718H37.826
				L37.826,10.719z"/>
		</g>
		<path fill="#FFFCF5" d="M37.664,19.847c0.017,0.196,0.079,3.353,0.088,3.64c0.007,0.289-0.036,0.614-0.124,0.701
			c-0.218,0.211-0.679-0.144-0.665-0.072c0.021,0.114,0.286,0.354,0.474,0.388c0.27,0.051,0.729-0.028,0.879-0.296
			c0.084-0.148,0.021-0.467-0.103-0.279c-0.164,0.244-0.214,0.147-0.291-0.031c-0.076-0.176-0.085-1.487-0.085-2.032
			c0-0.544-0.018-1.805-0.007-2.083c0.009-0.178,0.078-0.183,0.064-0.264c-0.008-0.034-0.106,0.049-0.235,0.052
			c-0.151,0.001-0.317-0.088-0.325-0.049C37.321,19.599,37.65,19.652,37.664,19.847z"/>
		<path fill="#FFFCF5" d="M40.575,13.438c-0.227,0.263-0.329,0.356-0.786,0.475c0.031,1.727-0.303,3.191-0.654,3.94
			c-0.354,0.753-0.466,0.894-0.692,1.066c-0.033,0.026-0.428,0.372-0.404,0.401c0.068-0.018,0.291-0.127,0.424-0.199
			c0.25-0.137,0.604-0.488,0.852-0.761c0.248-0.271,0.685-0.951,0.864-1.52c0.178-0.57,0.263-0.85,0.334-1.634
			C40.58,14.428,40.575,13.438,40.575,13.438z"/>
		<path fill="#EBE0D5" d="M36.066,11.875c-0.317,0.137-0.613,0.363-0.617,0.639c-0.002,0.134,0,0.271,0.003,0.376
			c0.163,0.142,0.391,0.267,0.668,0.369c-0.007-0.13-0.017-0.303-0.018-0.442c-0.001-0.263,0.026-0.512,0.125-0.669
			c0.101-0.154,0.771-0.459,0.785-0.534C37.027,11.536,36.385,11.739,36.066,11.875z"/>
	</g>
	<g clip-path="url(#SVGID_2_)">
		
			<ellipse transform="matrix(1 -0.0023 0.0023 1 -0.0815 0.068)" fill="#553E31" stroke="#553E31" stroke-width="0.0636" stroke-miterlimit="10" cx="29.814" cy="35.816" rx="13.727" ry="8.69"/>
		<path fill="#FFFCF5" stroke="#553E31" stroke-width="0.9019" stroke-miterlimit="10" d="M29.813,26.727
			c-7.71,0.018-13.973,3.813-13.963,8.464c0.011,4.652,6.291,8.425,13.998,8.406c7.709-0.017,13.971-3.815,13.96-8.469
			C43.799,30.479,37.521,26.71,29.813,26.727z"/>
		
			<ellipse transform="matrix(1 -0.0022 0.0022 1 -0.0767 0.0656)" fill="#FFFCF5" stroke="#CDB8AB" stroke-width="0.9019" stroke-miterlimit="10" cx="29.891" cy="35.012" rx="10.914" ry="5.998"/>
	</g>
	<g clip-path="url(#SVGID_2_)">
		
			<path fill="#CDB8AB" stroke="#553E31" stroke-width="0.7" stroke-linecap="round" stroke-linejoin="round" stroke-miterlimit="10" d="
			M28.444,18.158c0,0-6.437,16.937-6.329,17.744c0.044,0.346,0.46,1.334,1.666,0.725c1.207-0.606,2.666-1.266,2.666-1.266
			L28.444,18.158z"/>
		
			<path fill="#CDB8AB" stroke="#553E31" stroke-width="0.7" stroke-linecap="round" stroke-linejoin="round" stroke-miterlimit="10" d="
			M26.54,34.589c0,0,2.81,1.877,3.591,2.889c0.721-0.547,1.034-0.438,0.95-1.264C31,35.385,28.444,18.158,28.444,18.158
			L26.54,34.589z"/>
		
			<path fill="#CDB8AB" stroke="#553E31" stroke-width="0.7" stroke-linecap="round" stroke-linejoin="round" stroke-miterlimit="10" d="
			M30.996,35.566c0,0,3.391,1.162,4.371,2.254c-0.755-2.084-6.923-19.662-6.923-19.662S30.338,34.241,30.996,35.566z"/>
		
			<path fill="#CDB8AB" stroke="#553E31" stroke-width="0.7" stroke-linecap="round" stroke-linejoin="round" stroke-miterlimit="10" d="
			M34.414,35.137c0,0,3.878,0.977,4.909,1.663c-4.581-8.328-10.879-18.642-10.879-18.642L34.414,35.137z"/>
	</g>
</g>
</svg>
