<?xml version="1.0" encoding="utf-8"?>
<!-- Generator: Adobe Illustrator 16.0.0, SVG Export Plug-In . SVG Version: 6.00 Build 0)  -->
<!DOCTYPE svg PUBLIC "-//W3C//DTD SVG 1.1//EN" "http://www.w3.org/Graphics/SVG/1.1/DTD/svg11.dtd">
<svg version="1.1" id="Layer_1" xmlns="http://www.w3.org/2000/svg" xmlns:xlink="http://www.w3.org/1999/xlink" x="0px" y="0px"
	 width="60px" height="60px" viewBox="0 0 60 60" enable-background="new 0 0 60 60" xml:space="preserve">
<g>
	<defs>
		<path id="SVGID_55_" d="M29.999,53.5C17.041,53.5,6.5,42.958,6.5,30c0-12.96,10.541-23.5,23.499-23.5
			C42.958,6.5,53.5,17.04,53.5,30C53.5,42.958,42.958,53.5,29.999,53.5z"/>
	</defs>
	<clipPath id="SVGID_2_">
		<use xlink:href="#SVGID_55_"  overflow="visible"/>
	</clipPath>
	<rect x="0.625" y="0.625" clip-path="url(#SVGID_2_)" fill="#FFFCF5" width="58.75" height="58.75"/>
	<polygon clip-path="url(#SVGID_2_)" fill="#EBE0D5" stroke="#553E31" stroke-miterlimit="10" points="34.596,23.375 -3.904,32.125 
		20.846,61.125 69.596,42.375 	"/>
	<g clip-path="url(#SVGID_2_)">
		<path fill="#553E31" d="M25.587,49.828c1.472-0.47,25.343-9.355,26.897-10.018c2.618-1.112,0-2.641-0.739-3.029
			c-0.625-0.33-15.933-8.921-16.704-9.33c-0.851-0.451-1.776-0.287-2.616-0.076C31.587,27.59,9.685,33.249,8.656,33.6
			c-1.025,0.35-1.926,1.302-1.127,2.304c0.801,1.002,11.522,11.997,13.05,13.35C22.106,50.604,23.231,50.582,25.587,49.828z"/>
		<path fill="#EBE0D5" d="M51.708,38.847c-0.962,0.403-22.726,8.471-26.221,9.705c-2.556,0.901-3.031,0.275-4.032-0.477
			c-1.002-0.751-12.3-12.105-12.64-12.489c-0.341-0.382-0.215-0.639,0.167-0.768c3.917-1.323,23.129-6.23,23.768-6.391
			c1.29-0.388,1.61-0.201,2.691,0.451c0.852,0.514,15.084,8.498,15.767,8.942C51.888,38.264,52.246,38.623,51.708,38.847z"/>
		<path fill="#CDB8AB" d="M38.789,38.809c0,2.445-3.892,4.429-8.696,4.429c-4.799,0-8.691-1.983-8.691-4.429
			s3.893-4.428,8.691-4.428C34.897,34.381,38.789,36.363,38.789,38.809z"/>
		<path fill="#EBE0D5" d="M37.098,37.96c0,1.886-3.144,3.41-7.019,3.41c-3.88,0-7.021-1.524-7.021-3.41
			c0-1.879,3.142-3.405,7.021-3.405C33.954,34.555,37.098,36.081,37.098,37.96z"/>
		<ellipse fill="#553E31" cx="29.996" cy="36.517" rx="7.087" ry="3.594"/>
		<path fill="#553E31" d="M13.516,41.264c0,0-0.499-1.979-0.225-2.08c0.273-0.1,10.368-3.08,10.744-3.181
			c0.375-0.1,0.627,0.303,0.075,0.603s-2.655,1.554-4.008,1.954s-2.605,0.501-3.456,1.828
			C15.921,40.687,14.216,41.138,13.516,41.264z"/>
		<path fill="#553E31" d="M21.188,30.398c0,0-0.075-1.327,0.2-1.452c0.277-0.125,0.402-0.151,0.852,0.175
			c0.451,0.326,4.184,2.905,4.358,3.255c0.175,0.352-0.127,0.476-0.45,0.376c-0.326-0.1-1.704-0.525-2.329-1.003
			c-0.627-0.475-1.654-1.213-1.954-1.177C21.659,30.599,21.188,30.398,21.188,30.398z"/>
		<path fill="#553E31" d="M41.69,30.474c-1.812,0.546-7.235,2.181-7.444,2.264c-0.25,0.099-0.1,0.413,0.188,0.552
			c0.179,0.085,2.498-0.098,3.369-0.275c0.613-0.125,1.827-0.64,2.203-0.602c0.376,0.037,0.426,0.325,0.764,0.3
			c0.339-0.025,1.217-0.338,1.554-0.426c0.253-0.063,0.099-1.15,0.005-1.689C42.298,30.416,42.055,30.363,41.69,30.474z"/>
		<path fill="#553E31" d="M34.259,37.356c0.393,0.23,5.923,3.957,6.285,4.194c0.364,0.239,0.415,0.715,0.4,1.04
			c-0.012,0.324-0.051,1.266-0.051,1.266s-1.251-0.302-1.488-0.64c-0.238-0.338-0.278-0.647-0.751-1.076
			c-0.402-0.363-2.127-1.603-2.643-2.116c-0.514-0.513-1.632-1.712-1.93-2.042C33.744,37.606,33.832,37.107,34.259,37.356z"/>
	</g>
	<g clip-path="url(#SVGID_2_)">
		
			<path fill="#EBE0D5" stroke="#553E31" stroke-width="0.8" stroke-linecap="round" stroke-linejoin="round" stroke-miterlimit="10" d="
			M15.212,24.983c0,7.536,5.441,10.356,12.156,10.356c6.712,0,12.154-2.82,12.154-10.356"/>
		
			<path fill="#EBE0D5" stroke="#553E31" stroke-width="0.8" stroke-linecap="round" stroke-linejoin="round" stroke-miterlimit="10" d="
			M25.173,20.569c0,0-3.615-3.46-4.443-4.716c-0.796-1.212-3.447-5.811-6.062-8.504c-0.623-0.638-0.746-0.865-1.316-0.938
			c-0.563-0.07-1.08,0-1.444,0.237c-0.479,0.309-0.633,0.698-0.619,1.052c0.013,0.297-0.066,0.501,0.637,1.292
			c0,0,3.64,4.456,4.38,5.288c0.745,0.834,1.354,1.698,1.579,2.345c0.231,0.638,0.121,2.105,0.293,3.302
			c0.173,1.197,0.834,1.952,1.632,2.625l0.536,0.214L25.173,20.569z"/>
		<g>
			<defs>
				<ellipse id="XMLID_1_" cx="27.367" cy="24.983" rx="12.155" ry="6.887"/>
			</defs>
			<use xlink:href="#XMLID_1_"  overflow="visible" fill="#CDB8AB"/>
			<clipPath id="XMLID_5_">
				<use xlink:href="#XMLID_1_"  overflow="visible"/>
			</clipPath>
			
				<ellipse clip-path="url(#XMLID_5_)" fill="none" stroke="#553E31" stroke-width="0.75" stroke-linecap="round" stroke-linejoin="round" stroke-miterlimit="10" cx="27.367" cy="27.774" rx="10.57" ry="6.05"/>
			
				<use xlink:href="#XMLID_1_"  overflow="visible" fill="none" stroke="#553E31" stroke-width="0.8" stroke-linecap="round" stroke-linejoin="round" stroke-miterlimit="10"/>
		</g>
	</g>
	<g clip-path="url(#SVGID_2_)">
		<g>
			<path fill="#553E31" d="M43.073,13.959c-0.483-0.153-1.004-0.247-1.487-0.257c-0.482-0.013-0.944,0.078-1.239,0.274l0.484-0.497
				c-0.073,0.106-0.147,0.398-0.178,0.627c-0.033,0.247-0.039,0.505-0.019,0.768c0.049,0.523,0.201,1.062,0.446,1.574
				c0.054,0.108,0.01,0.239-0.099,0.293c-0.088,0.044-0.192,0.021-0.257-0.047c-0.415-0.447-0.772-0.976-1.026-1.578
				c-0.122-0.302-0.219-0.622-0.277-0.958c-0.053-0.353-0.097-0.648-0.028-1.107c0.039-0.258,0.242-0.453,0.484-0.498
				c0.721-0.135,1.355,0.011,1.904,0.215c0.553,0.214,1.037,0.493,1.49,0.834c0.091,0.068,0.108,0.198,0.04,0.289
				c-0.054,0.071-0.146,0.098-0.227,0.072L43.073,13.959z"/>
		</g>
		<g>
			<path fill="#553E31" d="M40.463,12.838c0.563,0.109,0.972,0.578,1.343,0.97c0.38,0.41,0.73,0.85,1.046,1.311
				c0.64,0.918,1.091,1.94,1.45,2.966c0.361,1.009,0.58,2.145,0.558,3.234c-0.018,1.097-0.154,2.162-0.548,3.198
				c-0.034,0.091-0.136,0.137-0.227,0.103c-0.083-0.032-0.128-0.119-0.109-0.203l0.006-0.022c0.218-0.971,0.216-2.034,0.081-3.023
				c-0.127-1.011-0.485-1.914-0.876-2.859c-0.395-0.928-0.889-1.795-1.476-2.578c-0.294-0.391-0.616-0.759-0.964-1.103
				c-0.356-0.362-0.729-0.595-0.985-1.139c-0.144-0.306-0.013-0.669,0.293-0.813c0.122-0.058,0.253-0.07,0.375-0.047L40.463,12.838z
				"/>
		</g>
	</g>
</g>
</svg>
