<?xml version="1.0" encoding="utf-8"?>
<!-- Generator: Adobe Illustrator 16.0.0, SVG Export Plug-In . SVG Version: 6.00 Build 0)  -->
<!DOCTYPE svg PUBLIC "-//W3C//DTD SVG 1.1//EN" "http://www.w3.org/Graphics/SVG/1.1/DTD/svg11.dtd">
<svg version="1.1" id="Layer_1" xmlns="http://www.w3.org/2000/svg" xmlns:xlink="http://www.w3.org/1999/xlink" x="0px" y="0px"
	 width="60px" height="60px" viewBox="0 0 60 60" enable-background="new 0 0 60 60" xml:space="preserve">
<g>
	<defs>
		<path id="SVGID_77_" d="M29.999-38.667c-12.958,0-23.499-10.542-23.499-23.5c0-12.96,10.541-23.5,23.499-23.5
			S53.5-75.127,53.5-62.167C53.5-49.209,42.957-38.667,29.999-38.667z"/>
	</defs>
	<clipPath id="SVGID_2_">
		<use xlink:href="#SVGID_77_"  overflow="visible"/>
	</clipPath>
	<polygon clip-path="url(#SVGID_2_)" fill="#EBE0D5" stroke="#553E31" stroke-width="1.1908" stroke-miterlimit="10" points="
		-20.18,-50.943 63.079,-68.319 74.613,-10.24 -14.134,0.295 	"/>
</g>
<g>
	<defs>
		<path id="SVGID_87_" d="M29.999,53.5C17.041,53.5,6.5,42.958,6.5,30c0-12.96,10.541-23.5,23.499-23.5
			C42.958,6.5,53.5,17.04,53.5,30C53.5,42.958,42.958,53.5,29.999,53.5z"/>
	</defs>
	<clipPath id="SVGID_4_">
		<use xlink:href="#SVGID_87_"  overflow="visible"/>
	</clipPath>
	<rect x="0.625" y="0.625" clip-path="url(#SVGID_4_)" fill="#FFFCF5" width="58.75" height="58.75"/>
	<polygon clip-path="url(#SVGID_4_)" fill="#EBE0D5" stroke="#553E31" stroke-miterlimit="10" points="-16.437,32.831 
		56.273,22.989 67.002,59.021 -10.589,64.574 	"/>
	
		<ellipse clip-path="url(#SVGID_4_)" fill="#EBE0D5" stroke="#553E31" stroke-miterlimit="10" cx="30.39" cy="32.411" rx="18.414" ry="9.717"/>
	
		<ellipse clip-path="url(#SVGID_4_)" fill="#EBE0D5" stroke="#553E31" stroke-miterlimit="10" cx="30.441" cy="37.411" rx="17.815" ry="9.717"/>
	<g clip-path="url(#SVGID_4_)">
		<path fill="#CDB8AB" stroke="#553E31" stroke-miterlimit="10" d="M30.391,42.128c-9.804,0-17.815-4.043-18.38-9.142l0.374,5.496
			c0.435,5.038,8.349,9.055,18.077,9.055c9.908,0,17.947-4.167,18.102-9.337l0.213-5.268C48.264,38.057,40.228,42.128,30.391,42.128
			z"/>
	</g>
	
		<path clip-path="url(#SVGID_4_)" fill="#CDB8AB" stroke="#553E31" stroke-width="0.9633" stroke-linecap="round" stroke-linejoin="round" stroke-miterlimit="10" d="
		M31.753,30.731c-5.182,0.021-5.343-0.602-7.322-1.331c-1.809-0.667-4.934,0.224-6.714,1.211c-1.779,0.987-4.227,3-4.527,4.679
		c-0.104,0.583,1.42,2.371,4.776,4.219c1.625,0.895,6.628,2.84,13.372,2.606c2.127-0.073,4.201-0.941,4.35-1.938
		c0.297-2-9.886-3.859-2.104-5.922"/>
	<g clip-path="url(#SVGID_4_)">
		<g>
			<path fill="#CDB8AB" d="M37.063,27.677c-0.041,0-0.083-0.005-0.124-0.016l-1.344-0.344c-0.135-0.034-0.249-0.124-0.315-0.246
				s-0.079-0.267-0.034-0.398c0.441-1.303,4.313-12.743,4.496-13.187c0.204-0.495,0.766-0.803,1.465-0.803
				c0.605,0,1.136,0.237,1.418,0.636c0.243,0.343,0.289,0.784,0.129,1.241c-0.373,1.06-5.03,12.328-5.229,12.808
				C37.446,27.559,37.261,27.677,37.063,27.677z"/>
			<path fill="#553E31" d="M41.207,13.184c0.669,0,1.361,0.39,1.074,1.212c-0.373,1.058-5.219,12.781-5.219,12.781l-1.344-0.344
				c0,0,4.303-12.715,4.484-13.156C40.337,13.353,40.767,13.184,41.207,13.184 M41.207,12.184c-0.906,0-1.646,0.426-1.928,1.111
				c-0.186,0.449-3.787,11.089-4.508,13.218c-0.089,0.264-0.064,0.553,0.068,0.797c0.133,0.245,0.361,0.423,0.631,0.492l1.344,0.344
				c0.083,0.021,0.166,0.031,0.248,0.031c0.396,0,0.767-0.237,0.924-0.618c0.198-0.479,4.86-11.76,5.238-12.83
				c0.216-0.617,0.146-1.22-0.193-1.698C42.655,12.5,41.974,12.184,41.207,12.184L41.207,12.184z"/>
		</g>
		<path fill="none" stroke="#553E31" stroke-linecap="round" stroke-linejoin="round" stroke-miterlimit="10" d="M36.543,27.63
			c0.291,1.5,0.658,3.524,0.113,4.375c-0.641,1-1.578,1.797-2.766,2.156c-1.123,0.34-2.89,0.948-4.64,0.781"/>
		<path fill="none" stroke="#553E31" stroke-linecap="round" stroke-linejoin="round" stroke-miterlimit="10" d="M35.313,27.359
			c-0.458,0.667-1.333,1.959-1.792,2.417s-1.25,0.833-2.584,1.208c-1.332,0.375-2.073,0.557-3.156,0.599"/>
		<path fill="none" stroke="#553E31" stroke-linecap="round" stroke-linejoin="round" stroke-miterlimit="10" d="M36.043,27.589
			c-0.292,1.834-0.318,2.13-0.934,3.213c-0.453,0.797-1.297,1.719-2.891,1.984c-2.069,0.345-2.844,0.516-3.594,0.516"/>
	</g>
	
		<path clip-path="url(#SVGID_4_)" fill="#CDB8AB" stroke="#553E31" stroke-width="0.9633" stroke-linecap="round" stroke-linejoin="round" stroke-miterlimit="10" d="
		M51.713-3.728c0,0-4.256,2.988-6.035,3.985c-2.781,1.558-6.183,3.225-7.705,6.202c-0.482,0.948-0.754,2.057-0.903,3.107
		c-0.139,0.965-0.488,1.884-0.585,2.86c-0.063,0.671,0.029,1.007-0.318,1.617c-0.264,0.46-0.537,0.898-0.633,1.425
		c-0.098,0.547-0.014,1.107-0.08,1.656c-0.097,0.803-0.281,1.598,0.083,2.362c0.266,0.563,0.977,1.575,1.432,2
		c0.616-1.788,2.134-5.707,2.134-5.707s0.414-1.03,1.18-1.6c0.766-0.571,0.537-0.484,1.051-1.044c0.85,0.02,1.478-0.323,2.442-0.742
		c-1.022,0.243-1.951,1.19-2.464,1.592c-0.507,0.405-2.297,2.725-2.42,3.611c-0.121,0.886,0.18,1.792,0.855,1.938
		s0.773,0.041,1.066-0.385c0.293-0.427,3.059-3.48,4.276-4.199c1.22-0.722,0.708-0.387,1.476-0.889
		c0.765-0.504,1.318-1.682,1.852-2.235c0.535-0.553,1.318-1.389,1.842-3.344c0.524-1.951,2.271-4.063,3.688-4.903
		c1.412-0.839,7.141-3.071,9.316-3.674C57.701-1.842,51.713-3.728,51.713-3.728z"/>
</g>
</svg>
