<?xml version="1.0" encoding="utf-8"?>
<!-- Generator: Adobe Illustrator 16.0.0, SVG Export Plug-In . SVG Version: 6.00 Build 0)  -->
<!DOCTYPE svg PUBLIC "-//W3C//DTD SVG 1.1//EN" "http://www.w3.org/Graphics/SVG/1.1/DTD/svg11.dtd">
<svg version="1.1" id="Layer_1" xmlns="http://www.w3.org/2000/svg" xmlns:xlink="http://www.w3.org/1999/xlink" x="0px" y="0px"
	 width="60px" height="60px" viewBox="0 0 60 60" enable-background="new 0 0 60 60" xml:space="preserve">
<g>
	<defs>
		<path id="SVGID_47_" d="M29.999,53.5C17.041,53.5,6.5,42.958,6.5,30c0-12.96,10.541-23.5,23.499-23.5
			C42.958,6.5,53.5,17.04,53.5,30C53.5,42.958,42.958,53.5,29.999,53.5z"/>
	</defs>
	<clipPath id="SVGID_2_">
		<use xlink:href="#SVGID_47_"  overflow="visible"/>
	</clipPath>
	<rect x="0.625" y="0.625" clip-path="url(#SVGID_2_)" fill="#FFFCF5" width="58.75" height="58.75"/>
	<polygon clip-path="url(#SVGID_2_)" fill="#EBE0D5" stroke="#553E31" stroke-miterlimit="10" points="57.417,26.682 2.676,38.829 
		20.351,59.31 52.91,56.445 	"/>
	<g clip-path="url(#SVGID_2_)">
		
			<polygon fill="#E4D7CD" stroke="#553E31" stroke-width="0.802" stroke-linecap="round" stroke-linejoin="round" stroke-miterlimit="10" points="
			30.948,21.397 31.686,16.738 32.972,16.738 32.635,21.16 		"/>
		
			<polygon fill="#CDB8AB" stroke="#553E31" stroke-width="0.802" stroke-linecap="round" stroke-linejoin="round" stroke-miterlimit="10" points="
			43.586,22.845 33.922,20.711 29.824,21.311 38.993,23.559 		"/>
		
			<polygon fill="#E4D7CD" stroke="#553E31" stroke-width="0.802" stroke-linecap="round" stroke-linejoin="round" stroke-miterlimit="10" points="
			43.586,22.845 42.371,47.371 36.319,49.615 25.727,46.443 29.824,21.311 38.993,23.559 		"/>
		
			<line fill="none" stroke="#553E31" stroke-width="0.802" stroke-linecap="round" stroke-linejoin="round" stroke-miterlimit="10" x1="38.993" y1="23.559" x2="36.319" y2="49.615"/>
		<g>
			<path fill="#553E31" d="M36.745,25.116c0.478,0.162,0.834,0.588,0.795,0.95l-0.073,0.728c-0.56-0.438-1.143-0.886-1.654-1.319
				C35.859,25.118,36.273,24.956,36.745,25.116z"/>
			<path fill="#CDB8AB" d="M36.446,27.848c-0.482-0.166-0.838-0.603-0.797-0.971l0.161-1.396c0.001-0.003,0.002-0.004,0.002-0.007
				c0.512,0.434,1.095,0.882,1.654,1.319l-0.076,0.684C37.353,27.851,36.929,28.016,36.446,27.848z"/>
			<path fill="#553E31" d="M34.013,24.198c0.467,0.155,0.814,0.574,0.774,0.935l-0.09,0.714c-0.54-0.43-1.11-0.87-1.607-1.294
				C33.139,24.196,33.55,24.041,34.013,24.198z"/>
			<path fill="#CDB8AB" d="M33.677,26.887c-0.469-0.164-0.812-0.592-0.766-0.953l0.174-1.378c0.001-0.003,0.005-0.001,0.005-0.003
				c0.497,0.424,1.067,0.864,1.607,1.294l-0.082,0.677C34.573,26.889,34.151,27.054,33.677,26.887z"/>
			<path fill="#553E31" d="M31.332,23.295c0.461,0.153,0.793,0.564,0.748,0.919l-0.095,0.704c-0.526-0.421-1.084-0.853-1.569-1.273
				C30.473,23.298,30.879,23.14,31.332,23.295z"/>
			<path fill="#CDB8AB" d="M30.968,25.945c-0.464-0.162-0.797-0.582-0.746-0.941l0.193-1.354c0-0.003,0.001-0.002,0.001-0.005
				c0.485,0.421,1.043,0.853,1.569,1.273l-0.091,0.667C31.845,25.945,31.432,26.106,30.968,25.945z"/>
			<path fill="#553E31" d="M36.355,28.67c0.487,0.17,0.848,0.612,0.806,0.992l-0.076,0.752c-0.563-0.457-1.163-0.926-1.677-1.378
				C35.453,28.664,35.874,28.505,36.355,28.67z"/>
			<path fill="#CDB8AB" d="M36.046,31.501c-0.486-0.178-0.851-0.629-0.807-1.013l0.163-1.446c-0.001-0.002,0.006-0.006,0.006-0.006
				c0.514,0.452,1.114,0.921,1.677,1.378l-0.075,0.71C36.969,31.509,36.536,31.679,36.046,31.501z"/>
			<path fill="#553E31" d="M33.581,27.699c0.471,0.164,0.825,0.601,0.779,0.973l-0.089,0.743c-0.551-0.453-1.128-0.91-1.635-1.355
				C32.691,27.693,33.106,27.533,33.581,27.699z"/>
			<path fill="#CDB8AB" d="M33.232,30.484c-0.48-0.171-0.829-0.618-0.784-0.993l0.188-1.428c0,0,0.001-0.002,0.001-0.004
				c0.507,0.445,1.084,0.902,1.635,1.355l-0.083,0.698C34.143,30.492,33.713,30.659,33.232,30.484z"/>
			<path fill="#553E31" d="M30.854,26.742c0.467,0.165,0.807,0.594,0.758,0.959l-0.098,0.732c-0.536-0.445-1.101-0.894-1.59-1.331
				C29.98,26.742,30.397,26.585,30.854,26.742z"/>
			<path fill="#CDB8AB" d="M30.476,29.488c-0.47-0.166-0.808-0.606-0.756-0.978l0.2-1.404c0-0.002,0.004-0.004,0.004-0.004
				c0.489,0.438,1.054,0.886,1.59,1.331l-0.093,0.687C31.37,29.495,30.945,29.661,30.476,29.488z"/>
			<path fill="#553E31" d="M35.952,32.354c0.492,0.18,0.858,0.645,0.819,1.034l-0.085,0.782c-0.566-0.48-1.173-0.968-1.7-1.445
				C35.034,32.343,35.462,32.175,35.952,32.354z"/>
			<path fill="#CDB8AB" d="M35.628,35.291c-0.494-0.188-0.862-0.662-0.815-1.058l0.174-1.501c0-0.002,0-0.005,0-0.008
				c0.527,0.478,1.134,0.965,1.7,1.445l-0.076,0.734C36.57,35.306,36.13,35.476,35.628,35.291z"/>
			<path fill="#553E31" d="M33.127,31.324c0.485,0.181,0.842,0.635,0.792,1.018l-0.09,0.77c-0.559-0.472-1.146-0.952-1.66-1.416
				C32.227,31.315,32.649,31.15,33.127,31.324z"/>
			<path fill="#CDB8AB" d="M32.77,34.216c-0.486-0.183-0.842-0.647-0.792-1.036l0.188-1.48l0.003-0.004
				c0.515,0.464,1.102,0.944,1.66,1.416l-0.086,0.723C33.696,34.231,33.259,34.399,32.77,34.216z"/>
			<path fill="#553E31" d="M30.359,30.32c0.472,0.17,0.816,0.617,0.769,0.997l-0.102,0.76c-0.545-0.468-1.116-0.937-1.61-1.393
				C29.47,30.313,29.892,30.146,30.359,30.32z"/>
			<path fill="#CDB8AB" d="M29.965,33.164c-0.477-0.178-0.818-0.634-0.767-1.019l0.214-1.455c0.001-0.002,0.004-0.004,0.004-0.006
				c0.494,0.456,1.065,0.925,1.61,1.393l-0.095,0.712C30.879,33.178,30.447,33.347,29.965,33.164z"/>
			<path fill="#553E31" d="M35.535,36.175c0.499,0.19,0.874,0.672,0.83,1.079l-0.084,0.811c-0.582-0.502-1.199-1.015-1.734-1.508
				C34.601,36.155,35.036,35.984,35.535,36.175z"/>
			<path fill="#CDB8AB" d="M35.197,39.222c-0.507-0.196-0.88-0.692-0.829-1.103l0.178-1.559c0-0.002,0.001-0.004,0.001-0.004
				c0.535,0.493,1.152,1.006,1.734,1.508l-0.083,0.765C36.156,39.244,35.705,39.42,35.197,39.222z"/>
			<path fill="#553E31" d="M32.656,35.087c0.495,0.188,0.856,0.662,0.81,1.063l-0.096,0.797c-0.565-0.49-1.165-0.993-1.684-1.481
				C31.743,35.073,32.176,34.904,32.656,35.087z"/>
			<path fill="#CDB8AB" d="M32.291,38.089c-0.499-0.194-0.859-0.679-0.807-1.086l0.199-1.533c0-0.003,0.002-0.003,0.003-0.005
				c0.519,0.488,1.118,0.991,1.684,1.481l-0.088,0.753C33.23,38.106,32.786,38.282,32.291,38.089z"/>
			<path fill="#553E31" d="M29.847,34.024c0.482,0.184,0.829,0.648,0.778,1.044l-0.104,0.785c-0.556-0.486-1.133-0.977-1.642-1.457
				C28.94,34.008,29.371,33.845,29.847,34.024z"/>
			<path fill="#CDB8AB" d="M29.438,36.979c-0.485-0.188-0.833-0.665-0.772-1.067l0.214-1.511c-0.002,0,0.001-0.001,0.001-0.004
				c0.509,0.48,1.086,0.971,1.642,1.457l-0.102,0.74C30.364,36.994,29.925,37.167,29.438,36.979z"/>
			<path fill="#553E31" d="M35.099,40.141c0.51,0.2,0.889,0.706,0.844,1.129l-0.087,0.843c-0.592-0.527-1.219-1.063-1.761-1.584
				C34.146,40.119,34.594,39.942,35.099,40.141z"/>
			<path fill="#CDB8AB" d="M34.751,43.308c-0.518-0.21-0.893-0.723-0.844-1.149l0.184-1.621c0.001-0.005,0.004-0.008,0.004-0.008
				c0.542,0.52,1.169,1.056,1.761,1.583l-0.084,0.791C35.726,43.335,35.27,43.518,34.751,43.308z"/>
			<path fill="#553E31" d="M32.174,38.989c0.503,0.2,0.868,0.697,0.819,1.11l-0.099,0.831c-0.575-0.519-1.183-1.045-1.713-1.552
				C31.24,38.973,31.682,38.796,32.174,38.989z"/>
			<path fill="#CDB8AB" d="M31.788,42.107c-0.502-0.203-0.862-0.713-0.813-1.131l0.204-1.594c0.001-0.002,0.003-0.004,0.003-0.004
				c0.53,0.507,1.138,1.033,1.713,1.552l-0.094,0.779C32.75,42.133,32.296,42.313,31.788,42.107z"/>
			<path fill="#553E31" d="M29.315,37.869c0.488,0.19,0.843,0.68,0.787,1.087l-0.108,0.815c-0.56-0.508-1.149-1.021-1.666-1.521
				C28.393,37.849,28.83,37.677,29.315,37.869z"/>
			<path fill="#CDB8AB" d="M28.891,40.933c-0.494-0.199-0.846-0.695-0.786-1.111l0.223-1.569l0.001-0.002
				c0.517,0.5,1.106,1.014,1.666,1.521l-0.102,0.768C29.836,40.957,29.387,41.134,28.891,40.933z"/>
			<path fill="#553E31" d="M34.646,44.263c0.52,0.212,0.904,0.741,0.854,1.177l-0.088,0.877c-0.601-0.551-1.24-1.114-1.791-1.657
				C33.676,44.229,34.131,44.053,34.646,44.263z"/>
			<path fill="#CDB8AB" d="M34.285,47.553c-0.524-0.222-0.911-0.759-0.857-1.203l0.192-1.682c0-0.005,0.001-0.008,0.002-0.009
				c0.551,0.543,1.19,1.106,1.791,1.657l-0.087,0.825C35.278,47.591,34.813,47.773,34.285,47.553z"/>
			<path fill="#553E31" d="M31.671,43.047c0.512,0.208,0.883,0.724,0.832,1.159l-0.105,0.862c-0.585-0.542-1.202-1.095-1.738-1.628
				C30.718,43.015,31.17,42.841,31.671,43.047z"/>
			<path fill="#CDB8AB" d="M31.272,46.283c-0.514-0.215-0.884-0.744-0.83-1.182l0.215-1.655c0-0.005,0.001-0.005,0.001-0.005
				c0.537,0.532,1.154,1.085,1.739,1.627l-0.096,0.81C32.248,46.316,31.786,46.5,31.272,46.283z"/>
			<path fill="#553E31" d="M28.762,41.859c0.499,0.202,0.857,0.711,0.8,1.135l-0.111,0.848c-0.567-0.531-1.17-1.071-1.691-1.596
				C27.822,41.831,28.271,41.656,28.762,41.859z"/>
			<path fill="#CDB8AB" d="M28.324,45.044c-0.502-0.214-0.863-0.734-0.799-1.163l0.231-1.628c0-0.003,0.002-0.004,0.002-0.007
				c0.521,0.524,1.124,1.064,1.691,1.596l-0.108,0.799C29.281,45.074,28.826,45.255,28.324,45.044z"/>
		</g>
		<g>
			<g>
				<path fill="#553E31" d="M37.661,45.112c0.635,0.478,1.267,0.733,1.956,0.648c0.37-0.019,0.649-0.104,0.946-0.272
					c0.289-0.159,0.535-0.417,0.768-0.729c0.051-0.071,0.149-0.089,0.221-0.038c0.049,0.033,0.071,0.095,0.066,0.149
					c-0.055,0.434-0.283,0.862-0.646,1.175c-0.35,0.311-0.867,0.469-1.294,0.508c-0.455,0.018-0.942-0.054-1.345-0.289
					c-0.403-0.227-0.722-0.569-0.906-0.952c-0.04-0.078-0.01-0.173,0.067-0.213C37.549,45.07,37.615,45.08,37.661,45.112z"/>
			</g>
			<g>
				<path fill="#CDB8AB" d="M37.725,45.647c0.635,0.486,1.274,0.749,1.971,0.667c0.372-0.018,0.655-0.104,0.954-0.276
					c0.291-0.162,0.538-0.425,0.771-0.742c0.05-0.072,0.148-0.09,0.22-0.041c0.049,0.034,0.072,0.096,0.067,0.15
					c-0.055,0.438-0.281,0.871-0.647,1.188c-0.352,0.315-0.873,0.476-1.307,0.515c-0.46,0.016-0.95-0.06-1.354-0.298
					c-0.406-0.231-0.726-0.578-0.91-0.967c-0.04-0.077-0.009-0.172,0.069-0.212C37.612,45.604,37.679,45.613,37.725,45.647z"/>
			</g>
		</g>
		<g>
			<g>
				<path fill="#553E31" d="M38.054,41.715c0.58,0.479,1.163,0.731,1.822,0.692c0.354,0.006,0.623-0.056,0.919-0.188
					c0.286-0.125,0.543-0.341,0.795-0.611c0.058-0.066,0.158-0.073,0.225-0.016c0.043,0.038,0.061,0.1,0.051,0.152
					c-0.087,0.41-0.344,0.797-0.714,1.064c-0.356,0.266-0.856,0.379-1.264,0.393c-0.433-0.013-0.891-0.101-1.266-0.344
					c-0.375-0.234-0.665-0.58-0.814-0.96c-0.034-0.081,0.004-0.174,0.084-0.207C37.947,41.668,38.011,41.681,38.054,41.715z"/>
			</g>
			<g>
				<path fill="#CDB8AB" d="M38.071,42.21c0.586,0.484,1.172,0.746,1.839,0.712c0.35,0.006,0.628-0.058,0.924-0.191
					c0.289-0.126,0.547-0.345,0.8-0.62c0.058-0.066,0.158-0.073,0.224-0.017c0.044,0.038,0.062,0.1,0.052,0.153
					c-0.087,0.412-0.345,0.804-0.718,1.073c-0.361,0.269-0.858,0.382-1.275,0.396c-0.436-0.016-0.896-0.106-1.271-0.354
					c-0.377-0.238-0.666-0.587-0.819-0.967c-0.034-0.081,0.002-0.174,0.083-0.208C37.963,42.163,38.027,42.176,38.071,42.21z"/>
			</g>
		</g>
		<g>
			<g>
				<path fill="#553E31" d="M38.371,38.681c0.565,0.437,1.118,0.655,1.747,0.621c0.338,0.008,0.594-0.047,0.879-0.161
					c0.274-0.108,0.524-0.3,0.773-0.549l0.004-0.004c0.062-0.062,0.163-0.062,0.225,0c0.04,0.04,0.055,0.097,0.043,0.148
					c-0.088,0.393-0.347,0.758-0.706,1.004c-0.347,0.245-0.824,0.343-1.209,0.356c-0.41-0.016-0.847-0.091-1.208-0.319
					c-0.361-0.219-0.646-0.546-0.792-0.909c-0.034-0.081,0.004-0.174,0.085-0.208C38.266,38.638,38.327,38.648,38.371,38.681z"/>
			</g>
			<g>
				<path fill="#CDB8AB" d="M38.381,39.136c0.57,0.444,1.125,0.674,1.76,0.641c0.337,0.007,0.599-0.049,0.886-0.166
					c0.277-0.11,0.53-0.304,0.78-0.555l0.004-0.004c0.062-0.063,0.162-0.063,0.225-0.001c0.04,0.039,0.055,0.097,0.043,0.147
					c-0.089,0.396-0.351,0.764-0.712,1.012c-0.35,0.247-0.826,0.348-1.219,0.361c-0.415-0.017-0.855-0.097-1.218-0.329
					c-0.362-0.224-0.646-0.555-0.793-0.919c-0.034-0.08,0.003-0.174,0.084-0.208C38.274,39.092,38.337,39.103,38.381,39.136z"/>
			</g>
		</g>
		<g>
			<g>
				<path fill="#553E31" d="M38.664,35.777c0.558,0.394,1.084,0.576,1.686,0.535c0.318,0.004,0.566-0.051,0.84-0.155
					c0.265-0.101,0.507-0.273,0.751-0.503l0.005-0.004c0.063-0.061,0.165-0.058,0.226,0.007c0.037,0.04,0.051,0.096,0.039,0.146
					c-0.088,0.378-0.343,0.724-0.688,0.956c-0.334,0.232-0.782,0.327-1.153,0.349c-0.392-0.011-0.81-0.071-1.162-0.281
					c-0.353-0.2-0.637-0.507-0.781-0.854c-0.035-0.081,0.002-0.176,0.082-0.211C38.56,35.739,38.62,35.748,38.664,35.777z"/>
			</g>
			<g>
				<path fill="#CDB8AB" d="M38.681,36.206c0.557,0.398,1.089,0.584,1.694,0.545c0.32,0.004,0.569-0.051,0.844-0.157
					c0.266-0.102,0.509-0.277,0.754-0.51l0.004-0.005c0.064-0.061,0.165-0.058,0.226,0.006c0.038,0.04,0.052,0.096,0.04,0.146
					c-0.087,0.38-0.342,0.729-0.688,0.965c-0.336,0.234-0.787,0.33-1.162,0.351c-0.394-0.012-0.813-0.074-1.167-0.286
					c-0.354-0.202-0.64-0.511-0.785-0.86c-0.034-0.081,0.003-0.175,0.084-0.21C38.576,36.167,38.637,36.176,38.681,36.206z"/>
			</g>
		</g>
		<g>
			<g>
				<path fill="#553E31" d="M38.941,33.011c0.549,0.353,1.051,0.503,1.628,0.458c0.308,0.001,0.541-0.052,0.805-0.149
					c0.253-0.092,0.487-0.251,0.728-0.464l0.005-0.005c0.066-0.059,0.168-0.052,0.227,0.014c0.036,0.041,0.047,0.095,0.036,0.144
					c-0.086,0.363-0.336,0.693-0.666,0.916c-0.319,0.222-0.751,0.314-1.104,0.34c-0.375-0.008-0.774-0.056-1.119-0.248
					c-0.343-0.184-0.627-0.472-0.771-0.804c-0.037-0.081-0.001-0.176,0.08-0.212C38.839,32.977,38.897,32.984,38.941,33.011z"/>
			</g>
			<g>
				<path fill="#CDB8AB" d="M38.959,33.406c0.55,0.356,1.057,0.512,1.636,0.465c0.313,0.001,0.545-0.051,0.811-0.148
					c0.255-0.094,0.49-0.255,0.732-0.47l0.005-0.004c0.066-0.059,0.168-0.053,0.227,0.014c0.036,0.041,0.047,0.096,0.036,0.145
					c-0.089,0.363-0.338,0.695-0.67,0.919c-0.321,0.224-0.759,0.315-1.109,0.34c-0.378-0.007-0.78-0.056-1.126-0.25
					c-0.345-0.185-0.63-0.475-0.775-0.809c-0.036-0.081,0-0.176,0.081-0.213C38.856,33.372,38.915,33.38,38.959,33.406z"/>
			</g>
		</g>
		<g>
			<g>
				<path fill="#553E31" d="M39.217,30.313c0.537,0.313,1.018,0.438,1.571,0.388c0.289-0.003,0.519-0.056,0.771-0.145
					c0.244-0.086,0.47-0.229,0.704-0.428l0.006-0.005c0.067-0.058,0.169-0.049,0.227,0.019c0.034,0.04,0.045,0.093,0.033,0.141
					c-0.082,0.353-0.329,0.668-0.646,0.879c-0.31,0.212-0.714,0.301-1.057,0.334c-0.359-0.004-0.741-0.042-1.077-0.219
					c-0.334-0.167-0.618-0.438-0.762-0.757c-0.037-0.081-0.001-0.177,0.08-0.214C39.117,30.283,39.173,30.288,39.217,30.313z"/>
			</g>
			<g>
				<path fill="#CDB8AB" d="M39.23,30.681c0.54,0.319,1.023,0.448,1.58,0.397c0.296-0.002,0.522-0.054,0.777-0.145
					c0.245-0.086,0.474-0.232,0.709-0.433l0.006-0.005c0.067-0.058,0.169-0.05,0.227,0.018c0.034,0.041,0.045,0.094,0.033,0.142
					c-0.083,0.354-0.33,0.671-0.649,0.885c-0.31,0.213-0.723,0.303-1.063,0.333c-0.361-0.004-0.747-0.043-1.085-0.222
					c-0.336-0.17-0.619-0.443-0.763-0.766c-0.037-0.081-0.001-0.177,0.08-0.213C39.131,30.65,39.188,30.655,39.23,30.681z"/>
			</g>
		</g>
		<g>
			<g>
				<path fill="#553E31" d="M39.467,27.797c0.529,0.278,0.986,0.383,1.519,0.327c0.282-0.004,0.5-0.054,0.743-0.136
					c0.235-0.078,0.453-0.209,0.682-0.395l0.007-0.006c0.069-0.056,0.171-0.045,0.227,0.024c0.032,0.04,0.043,0.091,0.032,0.138
					c-0.079,0.342-0.322,0.645-0.628,0.848c-0.298,0.201-0.689,0.286-1.014,0.321c-0.345,0-0.713-0.03-1.04-0.193
					c-0.325-0.155-0.605-0.409-0.75-0.716c-0.038-0.081-0.003-0.178,0.078-0.216C39.369,27.771,39.423,27.774,39.467,27.797z"/>
			</g>
			<g>
				<path fill="#CDB8AB" d="M39.483,28.144c0.53,0.281,0.993,0.39,1.526,0.335c0.283-0.004,0.502-0.055,0.747-0.138
					c0.236-0.08,0.457-0.212,0.687-0.397l0.008-0.006c0.069-0.056,0.17-0.045,0.226,0.024c0.033,0.04,0.043,0.091,0.032,0.138
					c-0.082,0.344-0.326,0.646-0.633,0.85c-0.298,0.203-0.691,0.289-1.019,0.324c-0.348-0.001-0.718-0.032-1.045-0.197
					c-0.326-0.157-0.607-0.412-0.752-0.722c-0.038-0.081-0.003-0.177,0.078-0.215C39.387,28.117,39.44,28.12,39.483,28.144z"/>
			</g>
		</g>
		
			<path fill="#CDB8AB" stroke="#553E31" stroke-width="0.9706" stroke-linecap="round" stroke-linejoin="round" stroke-miterlimit="10" d="
			M34.237,25.997c0,0,1.263,1.529,1.343,1.952c0.081,0.423-0.92,7.97-0.96,8.353c-0.041,0.382-0.402,0.623-0.644,0.704
			c-0.243,0.08-3.603-0.181-3.603-0.181l-5.495-10.929L34.237,25.997z"/>
		
			<line fill="none" stroke="#553E31" stroke-width="0.9706" stroke-linecap="round" stroke-linejoin="round" stroke-miterlimit="10" x1="35.585" y1="28.1" x2="26.409" y2="27.797"/>
		
			<path fill="#CDB8AB" stroke="#553E31" stroke-width="0.9037" stroke-linecap="round" stroke-linejoin="round" stroke-miterlimit="10" d="
			M7.214,11.192c0,0,8.045,7.544,9.744,8.295c1.698,0.749,6.127,2.31,7.776,2.91c1.648,0.599,2.767,0.445,3.597,0.786
			c0.73,0.3,1.631,0.862,2.118,1.03c0.487,0.169,2.023,0.412,2.229,0.694c0.207,0.28,0.15,0.768-0.093,1.011
			c-0.244,0.244-1.199,0.619-2.904,0.469c-1.705-0.149-2.998-0.112-4.216-0.3c0.355,0.656,0.956,2.398,1.312,3.11
			c0.356,0.713,1.499,2.249,1.968,2.941c0.468,0.694,0.861,1.781,1.123,2.492c0.264,0.712,0.525,1.8,0.563,2.193
			c0.038,0.393-0.244,1.029-0.993,1.236c-0.749,0.205-1.424-0.207-1.63-0.563s-0.506-1.293-0.712-1.574
			c0.075,0.375,0.337,1.162,0.094,1.518c-0.244,0.356-0.993,1.013-1.799,0.713c-0.806-0.301-1.218-0.319-1.705-1.012
			c-0.057,0.355-0.243,0.637-0.432,0.749c-0.187,0.112-1.086,0.73-1.63,0.563c-0.543-0.169-1.011-0.412-1.705-1.518
			c-0.375,0.58-0.618,0.824-1.199,0.898c-0.58,0.075-1.274,0.038-2.042-1.011c-0.769-1.05-1.518-2.23-2.623-3.43
			s-2.192-2.586-2.866-3.916c-0.676-1.33-0.862-2.136-1.894-3.335c-1.03-1.199-2.285-2.736-3.935-4.104
			c-1.648-1.368-6.97-4.946-6.97-4.946L7.214,11.192z"/>
		
			<path fill="none" stroke="#553E31" stroke-width="0.9037" stroke-linecap="round" stroke-linejoin="round" stroke-miterlimit="10" d="
			M19.918,36.938c0,0-0.88-1.425-1.218-2.024"/>
		
			<path fill="none" stroke="#553E31" stroke-width="0.9037" stroke-linecap="round" stroke-linejoin="round" stroke-miterlimit="10" d="
			M23.685,37.144c0,0-1.105-1.743-1.611-2.549"/>
		
			<path fill="none" stroke="#553E31" stroke-width="0.9037" stroke-linecap="round" stroke-linejoin="round" stroke-miterlimit="10" d="
			M27.095,35.925c0,0-1.743-2.322-2.174-3.335"/>
		
			<path fill="none" stroke="#553E31" stroke-width="0.9037" stroke-linecap="round" stroke-linejoin="round" stroke-miterlimit="10" d="
			M25.465,26.088c0,0-0.226-0.618-0.394-1.049"/>
		
			<path fill="#CDB8AB" stroke="#553E31" stroke-width="0.9037" stroke-linecap="round" stroke-linejoin="round" stroke-miterlimit="10" d="
			M24.846,0.899c0,0,1.806,5.62,1.856,6.744c0.049,1.125,0.873,4.397,1.498,5.922s1.35,3.123,2.724,3.198
			c0.575,0.031,1.061,0.039,1.497,0.064c0,0-0.648,0.136-0.636,0.698c0.007,0.34,0.725,0.924,1.024,1.186
			c0.3,0.263,0.649,0.588,1.1,1.062c0.449,0.475,0.849,0.688,1.236,0.938s1.299,0.626,1.898,0.875s1.187,0.536,1.611,0.523
			c0.425-0.012,0.625-0.087,0.801-0.262c0,0,0.308-0.34,0.474-0.537c0.536,0.096,1.252,0.01,1.873-0.163
			c0.676-0.187,0.976-0.674,1.175-0.924s0.262-0.138,0.625-0.262c0.362-0.126,0.637-0.525,0.762-1.013s-0.325-1.523-0.724-2.223
			c-0.4-0.7-1.537-1.774-1.762-2.175c-0.225-0.398-0.2-0.786-0.774-1.436c-0.575-0.65-1.575-1.224-2.387-1.599
			s-2.147-0.8-3.597-1.449c-1.52-0.682-1.574-2.023-1.887-3.249c-0.313-1.224-0.161-8.918-0.161-8.918"/>
		
			<path fill="#E4D7CD" stroke="#553E31" stroke-width="0.802" stroke-linecap="round" stroke-linejoin="round" stroke-miterlimit="10" d="
			M40.429,25.743c0,0,0.326-5.994,0.264-6.682c-0.063-0.688,0.199-1.786-0.563-1.974c-0.763-0.188-0.787-0.662-0.787-0.662
			s1.663,0.282,2.198,0.575c0.662,0.361,1.087,0.824,1.087,1.474s-0.325,6.876-0.325,6.876L40.429,25.743z"/>
		
			<path fill="#CDB8AB" stroke="#553E31" stroke-width="0.9037" stroke-linecap="round" stroke-linejoin="round" stroke-miterlimit="10" d="
			M32.421,16.828c0.604,0.034,1.116,0.104,1.639,0.323c0.898,0.375,1.91,0.774,2.473,1.286c0.562,0.512,2.049,1.361,2.849,1.462
			c0.799,0.1,1.498-0.301,1.724-0.65c0.225-0.35,0.349-1.286-0.15-1.812c-0.5-0.523-2.136-1.724-2.698-2.085
			c-0.562-0.362-2.336-1.412-2.811-2.274"/>
		
			<path fill="none" stroke="#553E31" stroke-width="0.9037" stroke-linecap="round" stroke-linejoin="round" stroke-miterlimit="10" d="
			M39.93,21.311c-0.043-0.019-0.085-0.039-0.128-0.064c-0.55-0.325-0.859-0.835-1.208-1.035c-0.35-0.2-1.374-1.07-1.55-1.383"/>
	</g>
</g>
</svg>
