<?xml version="1.0" encoding="utf-8"?>
<!-- Generator: Adobe Illustrator 16.0.0, SVG Export Plug-In . SVG Version: 6.00 Build 0)  -->
<!DOCTYPE svg PUBLIC "-//W3C//DTD SVG 1.1//EN" "http://www.w3.org/Graphics/SVG/1.1/DTD/svg11.dtd">
<svg version="1.1" id="Layer_1" xmlns="http://www.w3.org/2000/svg" xmlns:xlink="http://www.w3.org/1999/xlink" x="0px" y="0px"
	 width="60px" height="60px" viewBox="0 0 60 60" enable-background="new 0 0 60 60" xml:space="preserve">
<g>
	<defs>
		<path id="SVGID_57_" d="M29.999,53.5C17.041,53.5,6.5,42.958,6.5,30c0-12.96,10.541-23.5,23.499-23.5
			C42.958,6.5,53.5,17.04,53.5,30C53.5,42.958,42.958,53.5,29.999,53.5z"/>
	</defs>
	<clipPath id="SVGID_2_">
		<use xlink:href="#SVGID_57_"  overflow="visible"/>
	</clipPath>
	<rect x="0.625" y="0.625" clip-path="url(#SVGID_2_)" fill="#FFFCF5" width="58.75" height="58.75"/>
	<polygon clip-path="url(#SVGID_2_)" fill="#EBE0D5" stroke="#553E31" stroke-miterlimit="10" points="58.75,17.133 -10.48,32.497 
		12.661,60 53.514,51.727 	"/>
	<g clip-path="url(#SVGID_2_)">
		<path fill="#EBE0D5" stroke="#553E31" stroke-linecap="round" stroke-linejoin="round" stroke-miterlimit="10" d="M22.659,36.941
			c-0.576,0.154-1.145,0.334-1.684,0.544c-3.175,1.228-8.18,3.092-8.18,3.092l-0.755-1.619c0,0,6.313-2.835,10.176-3.915"/>
		<path fill="#EBE0D5" stroke="#553E31" stroke-linecap="round" stroke-linejoin="round" stroke-miterlimit="10" d="M17.438,27.212
			c-0.592,0.073-1.181,0.171-1.743,0.306c-3.314,0.777-8.529,1.93-8.529,1.93l-0.524-1.71c0,0,6.645-1.933,10.621-2.466"/>
		<path fill="#EBE0D5" stroke="#553E31" stroke-linecap="round" stroke-linejoin="round" stroke-miterlimit="10" d="M32.81,31.399
			c0.391-0.11,0.76-0.185,1.088-0.271c3.771-0.999,6.104-1.444,8.297-1.869c1.863-0.361,2.951-0.509,4.332-0.587v-0.001
			c0.121,0.176,0.215,0.323,0.275,0.433c0.408,0.743,0.332,0.692-0.154,1.589c-0.486,0.895-2.33,4.044-2.611,4.428
			c-0.283,0.384-0.512,0.7-0.955,0.444c-0.58-0.333-2.604-1.272-3.234-3.345c-0.781,0.15-3.896,0.51-6.594,1.077L32.81,31.399z"/>
		<path fill="#CDB8AB" stroke="#553E31" stroke-linecap="round" stroke-linejoin="round" stroke-miterlimit="10" d="M1.405,17.03
			c2.506,1.462,8.48,7.937,9.859,11.628c0.86,2.304,3.604,5.848,4.115,6.906c0.513,1.059,0.922,2.765,1.639,3.276
			c0.716,0.513,1.596,0.734,2.107,0.633c0.512-0.104,1.101-0.462,1.28-0.947c0.461,0.384,0.871,0.896,1.51,0.87
			c0.64-0.026,1.896-0.128,2.278-0.691c0.385-0.563,0.462-1.101,0.232-1.664c-0.232-0.563-1.46-3.482-1.435-3.789
			c0.025-0.307,0.205-0.078,0.333,0.281c0.127,0.357,1.639,3.711,1.819,4.224c0.178,0.513,0.946,1.203,1.971,0.871
			c1.023-0.334,1.895-0.946,2.048-1.612c0.153-0.666,0.23-1.178-0.332-2.433c-0.565-1.255-1.562-3.482-1.819-4.354
			c0.709,1.542,1.101,2.253,1.382,3.047c0,0,0.346,0.861,0.667,1.538c0.28,0.589,0.282,1.586,0.282,1.586s0.895,0.538,1.355,0.512
			c0.462-0.025,0.742-0.153,1.154-0.408c0.408-0.256,1.229-1.229,1.305-2.177c0.078-0.947,0.262-1.666-0.154-2.535
			c-0.563-1.177-1.074-2.022-1.434-2.688c0.896,0.539,1.486,0.845,2.203,0.718c0.717-0.129,1.176-0.41,1.305-0.769
			c0.129-0.357,0.051-0.307-0.051-0.436c-0.102-0.127-1.332-1.459-1.664-1.688c-0.127-0.411-0.332-0.743-0.666-1.281
			c-0.332-0.537-1.74-3.097-2.355-3.788c-0.614-0.691-2.075-2.304-2.484-2.842c-0.408-0.538-1.458-1.049-2.636-1.512
			c-1.178-0.459-4.966-1.842-7.475-3.507c-2.509-1.663-6.503-5.811-8.397-7.321c-1.895-1.512-13.21,7.117-13.21,7.117
			S-1.102,15.568,1.405,17.03z"/>
		<path fill="#EBE0D5" stroke="#553E31" stroke-miterlimit="10" d="M42.194,29.259c-0.207-0.642-1.127-2.612-2.049-3.33
			c-0.922-0.716-3.023-1.368-4.584-1.305c-1.254,0.052-5.237,0.455-6.282,0.694l-0.921-2.869c0,0,1.647-0.154,5.054-0.066
			c3.402,0.09,7.166,0.628,9.139,2.101c1.678,1.253,3.283,3.185,3.975,4.188L42.194,29.259z"/>
		<path fill="#FFFFFF" stroke="#553E31" stroke-linecap="round" stroke-linejoin="round" stroke-miterlimit="10" d="M18.408,33.533
			c0,0,1.562,4.198,1.998,4.993"/>
		<g>
			<path fill="#EBE0D5" d="M46.649,30.629c-0.682,0-1.236-0.554-1.236-1.235s0.555-1.235,1.236-1.235
				c0.68,0,1.234,0.554,1.234,1.235S47.329,30.629,46.649,30.629z"/>
			<path fill="#553E31" d="M46.649,28.658c0.404,0,0.734,0.33,0.734,0.735s-0.328,0.735-0.734,0.735s-0.736-0.33-0.736-0.735
				C45.913,28.987,46.243,28.658,46.649,28.658 M46.649,27.658c-0.957,0-1.736,0.778-1.736,1.735s0.779,1.735,1.736,1.735
				s1.734-0.778,1.734-1.735S47.606,27.658,46.649,27.658L46.649,27.658z"/>
		</g>
		<g>
			<path fill="#CDB8AB" d="M46.526,39.998c-0.129,0-0.256-0.033-0.381-0.098c-1.049-0.548-1.516-1.418-1.316-2.45
				c0.08-0.424,0.213-0.755,0.332-1.048c0.135-0.34,0.234-0.585,0.207-0.856c-0.018-0.183-0.063-0.383-0.104-0.577
				c-0.125-0.588-0.297-1.394,0.373-1.675c0.162-0.067,0.309-0.1,0.447-0.1c0.76,0,0.861,0.782,0.941,1.41
				c0.045,0.334,0.094,0.712,0.205,1.091c0.289,0.973,0.477,3.22-0.084,3.974C46.989,39.881,46.769,39.998,46.526,39.998z"/>
			<path fill="#553E31" d="M46.085,33.694c0.514,0,0.338,1.031,0.668,2.144c0.35,1.177,0.402,3.66-0.227,3.66
				c-0.047,0-0.096-0.014-0.148-0.041c-0.785-0.41-1.23-1.024-1.059-1.912c0.17-0.888,0.613-1.365,0.547-2.048
				c-0.068-0.684-0.443-1.57-0.035-1.742C45.931,33.714,46.015,33.694,46.085,33.694 M46.085,32.694L46.085,32.694
				c-0.207,0-0.414,0.045-0.637,0.138c-1.057,0.443-0.807,1.612-0.672,2.241c0.039,0.186,0.08,0.377,0.094,0.523
				c0.014,0.142-0.049,0.31-0.174,0.62c-0.119,0.298-0.268,0.668-0.359,1.141c-0.24,1.247,0.334,2.336,1.578,2.986
				c0.195,0.103,0.402,0.154,0.611,0.154c0.396,0,0.77-0.193,1.021-0.53c0.752-1.009,0.426-3.533,0.162-4.415
				c-0.1-0.34-0.146-0.697-0.188-1.012C47.446,33.941,47.284,32.694,46.085,32.694L46.085,32.694z"/>
		</g>
		<g>
			<path fill="#CDB8AB" d="M44.872,42.752c-0.209,0-0.375-0.107-0.482-0.188c-0.525-0.393-0.824-1.197-0.777-2.098
				c0.031-0.642,0.139-1.332,0.707-2.031c0.279-0.343,0.486-0.567,0.797-0.567c0.557,0,0.602,0.577,0.639,1.041l0.014,0.176
				c0.049,0.593-0.041,1.048-0.129,1.488c-0.043,0.221-0.088,0.441-0.111,0.685c-0.016,0.175-0.02,0.339-0.023,0.48
				c-0.008,0.354-0.021,1.015-0.631,1.015C44.874,42.752,44.874,42.752,44.872,42.752z"/>
			<path fill="#553E31" d="M45.116,38.367c0.109,0,0.113,0.271,0.154,0.759c0.068,0.818-0.172,1.365-0.24,2.083
				c-0.055,0.576,0.023,1.043-0.156,1.043c-0.045,0-0.104-0.027-0.184-0.088c-0.41-0.307-0.615-0.99-0.58-1.673
				c0.033-0.683,0.162-1.206,0.598-1.74C44.919,38.49,45.042,38.367,45.116,38.367 M45.116,37.367c-0.572,0-0.912,0.417-1.184,0.753
				c-0.662,0.813-0.787,1.63-0.82,2.322c-0.055,1.063,0.32,2.03,0.979,2.522c0.092,0.069,0.381,0.287,0.783,0.287
				c0.502,0,1.105-0.261,1.131-1.504c0.004-0.131,0.006-0.282,0.021-0.444c0.02-0.21,0.061-0.416,0.104-0.634
				c0.09-0.452,0.191-0.965,0.139-1.626l-0.016-0.175C46.218,38.42,46.136,37.367,45.116,37.367L45.116,37.367z"/>
		</g>
		<path fill="#FFFFFF" stroke="#553E31" stroke-linecap="round" stroke-linejoin="round" stroke-miterlimit="10" d="M27.851,21.437
			c0.382,0.486,0.832,2.593,1.189,3.49c0.36,0.896,1.452,2.667,2.527,4.177"/>
	</g>
	<g clip-path="url(#SVGID_2_)">
		<g>
			<path fill="#553E31" d="M36.01,18.654c0.001,0-0.229-0.188-0.435-0.579c-0.099-0.205-0.198-0.443-0.292-0.688
				c-0.101-0.254-0.189-0.545-0.35-0.857c-0.285-0.631-0.665-1.349-1.177-2.059c-0.226-0.375-0.532-0.716-0.812-1.087
				c-0.295-0.358-0.628-0.7-0.948-1.054c-0.343-0.33-0.686-0.66-1.023-0.984c-0.379-0.354-0.675-0.602-1.048-0.874
				c-0.715-0.526-1.464-0.923-2.126-1.218c-0.664-0.295-1.246-0.479-1.655-0.589c-0.413-0.112-0.636-0.138-0.636-0.138
				c-0.134-0.015-0.231-0.136-0.217-0.271c0.014-0.122,0.116-0.214,0.235-0.218c0,0,0.278-0.01,0.724,0.041
				c0.449,0.051,1.086,0.148,1.835,0.352c0.747,0.206,1.616,0.496,2.499,0.947c0.428,0.211,0.93,0.514,1.316,0.775
				c0.438,0.316,0.813,0.642,1.226,0.969c0.381,0.356,0.773,0.703,1.134,1.075c0.346,0.387,0.715,0.744,1.01,1.148
				c0.627,0.777,1.109,1.591,1.476,2.305c0.197,0.347,0.336,0.706,0.472,1.012c0.148,0.314,0.223,0.576,0.252,0.79
				c0.065,0.438-0.009,0.725-0.008,0.725c-0.124,0.484-0.617,0.777-1.103,0.653C36.229,18.798,36.108,18.734,36.01,18.654z"/>
		</g>
		<g>
			<path fill="#553E31" d="M37.861,14.539c0.183,0.695,0.277,1.399,0.266,2.152c-0.023,0.745-0.164,1.561-0.664,2.346
				c-0.173,0.271-0.49,0.396-0.788,0.337l-0.032-0.007c-0.188-0.037-0.272-0.072-0.393-0.115c-0.112-0.041-0.215-0.087-0.318-0.134
				c-0.203-0.097-0.398-0.199-0.58-0.317c-0.367-0.232-0.697-0.499-0.994-0.789c-0.587-0.59-1.035-1.265-1.361-1.969
				c-0.064-0.14-0.003-0.305,0.137-0.369c0.113-0.053,0.246-0.02,0.326,0.068c0.484,0.535,1.044,0.975,1.637,1.283
				c0.299,0.15,0.605,0.268,0.911,0.347c0.152,0.042,0.306,0.067,0.454,0.087c0.073,0.008,0.147,0.016,0.216,0.017
				c0.06,0.002,0.157,0.003,0.153-0.011l-0.819,0.329c0.369-0.255,0.7-0.747,0.92-1.321c0.219-0.574,0.36-1.228,0.413-1.873
				l0.002-0.015c0.012-0.145,0.139-0.252,0.283-0.24C37.742,14.354,37.833,14.436,37.861,14.539z"/>
		</g>
	</g>
	<g clip-path="url(#SVGID_2_)">
		<g>
			<path fill="#553E31" d="M37.977,38.168c0,0,0.059,0.305-0.031,0.769c-0.041,0.227-0.129,0.503-0.297,0.83
				c-0.154,0.32-0.313,0.697-0.534,1.06c-0.211,0.372-0.434,0.778-0.723,1.175c-0.266,0.412-0.577,0.821-0.922,1.226
				c-0.326,0.421-0.731,0.788-1.111,1.189c-0.396,0.385-0.825,0.74-1.241,1.107c-0.449,0.335-0.859,0.67-1.335,0.992
				c-0.422,0.27-0.96,0.573-1.423,0.786c-0.953,0.453-1.886,0.736-2.688,0.935c-0.804,0.194-1.486,0.279-1.965,0.319
				c-0.477,0.041-0.771,0.022-0.771,0.022c-0.135-0.008-0.237-0.124-0.229-0.26c0.007-0.123,0.105-0.22,0.226-0.229
				c0,0,0.241-0.019,0.687-0.122c0.441-0.102,1.071-0.274,1.792-0.563c0.72-0.289,1.537-0.682,2.324-1.217
				c0.41-0.275,0.741-0.531,1.158-0.893c0.374-0.335,0.753-0.675,1.133-1.015c0.355-0.366,0.726-0.72,1.055-1.093
				c0.313-0.387,0.654-0.74,0.911-1.133c0.284-0.374,0.545-0.742,0.757-1.114c0.237-0.355,0.412-0.72,0.581-1.051
				c0.183-0.329,0.29-0.639,0.407-0.908c0.11-0.261,0.225-0.513,0.334-0.728c0.229-0.413,0.47-0.609,0.47-0.609
				c0.381-0.311,0.941-0.253,1.252,0.128C37.889,37.89,37.95,38.029,37.977,38.168z"/>
		</g>
		<g>
			<path fill="#553E31" d="M37.792,42.005c-0.025-0.692-0.146-1.396-0.353-2.023c-0.208-0.626-0.538-1.174-0.927-1.478l0.81,0.356
				c-0.002-0.014-0.105-0.015-0.172-0.013c-0.074-0.001-0.155,0.007-0.234,0.014c-0.161,0.019-0.327,0.043-0.492,0.085
				c-0.332,0.079-0.664,0.199-0.988,0.354c-0.644,0.319-1.252,0.776-1.784,1.337c-0.104,0.112-0.28,0.119-0.393,0.016
				c-0.093-0.086-0.112-0.224-0.059-0.332c0.377-0.734,0.883-1.431,1.529-2.029c0.327-0.295,0.688-0.563,1.085-0.793
				c0.197-0.117,0.407-0.219,0.626-0.313c0.11-0.045,0.221-0.089,0.341-0.127c0.127-0.04,0.219-0.074,0.414-0.106l0.028-0.004
				c0.318-0.054,0.624,0.101,0.781,0.361c0.503,0.837,0.631,1.701,0.637,2.492c-0.005,0.798-0.123,1.546-0.334,2.279
				c-0.041,0.14-0.186,0.22-0.325,0.18c-0.111-0.032-0.186-0.132-0.189-0.242L37.792,42.005z"/>
		</g>
	</g>
</g>
</svg>
