<?xml version="1.0" encoding="utf-8"?>
<!-- Generator: Adobe Illustrator 16.0.0, SVG Export Plug-In . SVG Version: 6.00 Build 0)  -->
<!DOCTYPE svg PUBLIC "-//W3C//DTD SVG 1.1//EN" "http://www.w3.org/Graphics/SVG/1.1/DTD/svg11.dtd">
<svg version="1.1" id="Layer_1" xmlns="http://www.w3.org/2000/svg" xmlns:xlink="http://www.w3.org/1999/xlink" x="0px" y="0px"
	 width="60px" height="60px" viewBox="0 0 60 60" enable-background="new 0 0 60 60" xml:space="preserve">
<g>
	<defs>
		<path id="SVGID_49_" d="M29.999,53.5C17.041,53.5,6.5,42.958,6.5,30c0-12.96,10.541-23.5,23.499-23.5
			C42.958,6.5,53.5,17.04,53.5,30C53.5,42.958,42.958,53.5,29.999,53.5z"/>
	</defs>
	<clipPath id="SVGID_2_">
		<use xlink:href="#SVGID_49_"  overflow="visible"/>
	</clipPath>
	<rect x="0.625" y="0.625" clip-path="url(#SVGID_2_)" fill="#FFFCF5" width="58.75" height="58.75"/>
	<polygon clip-path="url(#SVGID_2_)" fill="#EBE0D5" stroke="#553E31" stroke-miterlimit="10" points="57.371,24.869 2.63,37.017 
		20.305,57.497 52.864,54.633 	"/>
	<g clip-path="url(#SVGID_2_)">
		<path fill="#CDB8AB" stroke="#553E31" stroke-linecap="round" stroke-linejoin="round" stroke-miterlimit="10" d="M42.066,29.841
			c0,0-13.746,5.369-14.437,5.96c-0.692,0.592-0.964,0.775-1.045,1.539c-0.063,0.589-0.46,3.271,0.394,3.626
			c0.854,0.354,9.804,3.509,10.78,3.431c0.977-0.079,2.359-0.867,3.538-1.577c1.181-0.709,5.736-4.259,5.736-4.259l1.018-5.756
			L42.066,29.841z"/>
		<path fill="none" stroke="#553E31" stroke-miterlimit="10" d="M43.495,37.864c-0.76,0.565-3.282,1.841-4.001,2.393
			c-0.719,0.553-0.623,0.553-2.129,0.184c-1.505-0.369-8.477-3.417-9.274-3.642c-0.801-0.223-1.432,0.066-1.447,0.201"/>
		<path fill="none" stroke="#553E31" stroke-miterlimit="10" d="M38.694,40.698c0.379,0.163,0.393,0.465,0.312,0.951
			s-0.096,2.554-1.098,2.729"/>
		<g>
			<path fill="#CDB8AB" stroke="#553E31" stroke-linecap="round" stroke-linejoin="round" stroke-miterlimit="10" d="M20.638,40.496
				c0.636-0.306,0.653-0.43,1.309-0.244c0.655,0.184,1.688,0.63,2.098,0.852c0.411,0.22,0.272,0.804,0.271,1.494
				c-0.004,0.688-0.004,1.333-0.623,1.517c-0.617,0.185-1.054-0.046-1.818,0.138c-0.763,0.184-1.163-0.184-1.709-0.551
				c-0.546-0.368-0.327-1.219-0.327-1.703C19.837,41.517,20.187,40.711,20.638,40.496z"/>
		</g>
		<g>
			<path fill="#CDB8AB" stroke="#553E31" stroke-linecap="round" stroke-linejoin="round" stroke-miterlimit="10" d="M25.677,43.254
				c0.223-0.41,1.331-0.753,1.466-0.75c0.325,0.014,1.064,0.431,1.822,0.75c0.534,0.226,0.729,0.443,0.729,0.94
				c0,0.45,0.287,1.426-0.029,1.911c-0.315,0.482-0.256,0.808-1.27,0.652c-1.017-0.154-1.662-0.612-2.001-0.814
				c-0.338-0.206-0.882,0.08-1-0.608C25.313,44.861,25.466,43.642,25.677,43.254z"/>
		</g>
		<g>
			<path fill="#CDB8AB" stroke="#553E31" stroke-linecap="round" stroke-linejoin="round" stroke-miterlimit="10" d="M32.688,43.43
				c0.901,0.113,0.771,0.701,1.465,0.926c0.691,0.224,1.354,0.307,1.441,0.755c0.085,0.446-0.2,0.301-0.2,1.007
				c0,0.528,0.934,1.047-0.406,1.732c-0.361,0.186-1.01-0.196-1.729-0.504c-0.723-0.309-1.011-0.475-1.732-0.699
				c-0.721-0.222-0.401-0.686-0.691-0.958c-0.286-0.271,0.313-1.053,0.487-1.64C31.496,43.461,32.23,43.374,32.688,43.43z"/>
		</g>
		<g>
			<path fill="#CDB8AB" stroke="#553E31" stroke-linecap="round" stroke-linejoin="round" stroke-miterlimit="10" d="M22.594,44.114
				c0.121-0.033,0.712,0.221,1.212,0.405c0.501,0.186,1.026,0.54,1.285,0.832c0.261,0.293,0.007,1.136-0.006,1.562
				c-0.014,0.425-0.562,0.64-0.807,0.766c-0.245,0.125-1.069,0.242-1.252,0.216c-0.185-0.025-0.509-0.399-0.79-0.622
				c-0.282-0.223-1.043-0.605-1.171-0.754c-0.129-0.147,0.036-0.485,0.19-0.787c0.143-0.281,0.327-0.661,0.26-0.962
				c-0.067-0.304,0.413-0.38,0.551-0.492C22.324,44.067,22.268,44.201,22.594,44.114z"/>
		</g>
		<g>
			<path fill="#CDB8AB" stroke="#553E31" stroke-linecap="round" stroke-linejoin="round" stroke-miterlimit="10" d="M29.138,46.83
				c0,0-1.346,1.133-1.861,1.6c-0.517,0.466-0.639,1.731-0.338,2.131c0.302,0.4,0.696,0.466,1.186,0.433
				c0.492-0.032,1.283-1.133,2.005-1.665c0.723-0.533,0.688-1.719,0.55-2.26C30.541,46.529,29.48,46.928,29.138,46.83z"/>
		</g>
		<path fill="#CDB8AB" stroke="#553E31" stroke-linecap="round" stroke-linejoin="round" stroke-miterlimit="10" d="M36.171-7.996
			c0,0-0.1,16.179-0.431,19.42c-0.331,3.243-1.589,9.759-1.92,11.429c-0.332,1.669-0.928,3.852-1.094,5.425
			c-0.165,1.572-0.778,3.804-1.076,4.702s0.066,1.621,0.96,1.59c0.895-0.033,1.591-0.386,2.153-1.092
			c0.563-0.707,1.209-1.798,1.374-2.473c0.166-0.673,0.397-1.411,0.828-1.219s1.027,1.026,1.391,1.733
			c0.365,0.706,0.779,2.011,1.144,2.747c0.364,0.737,0.615,1.995,0.96,2.774c0.149,0.337,0.314,0.786,0.331,1.348
			c0.017,0.563-0.166,2.504,0.05,2.986c0.216,0.48,0.431,0.802,0.861,0.851c0.43,0.048,0.596-0.129,0.845-0.466
			c0.248-0.337,0.596-0.851,0.729-1.156c0.265-0.016,1.093-0.225,1.407-0.336c0.314-0.113,0.845-0.242,1.192-0.499
			c0.348-0.256,0.812-0.608,0.894-0.931c0.365-0.192,0.862-0.4,1.193-0.689c0.331-0.29,0.894-1.124,1.043-1.718
			c0.331-0.321,0.414-0.272,0.546-0.578c0.133-0.305,0.53-1.894,0.612-2.52c0.084-0.626,0.116-1.38-0.065-2.086
			s-0.745-2.44-0.911-3.179c-0.165-0.738-0.099-1.22-0.265-1.83c-0.165-0.609-0.629-1.894-0.943-3.017
			c-0.315-1.124-1.623-3.58-1.954-4.414c-0.331-0.835-0.563-2.584-0.58-4.109c-0.017-1.523,0.381-6.516,0.778-8.73
			s2.468-12.953,2.65-13.98C48.426-8.013,36.171-7.996,36.171-7.996z"/>
		<path fill="#CDB8AB" stroke="#553E31" stroke-linecap="round" stroke-linejoin="round" stroke-miterlimit="10" d="M43.275,40.604
			c0,0,0.563-1.059,0.646-1.813c0.083-0.754-0.017-3.033-0.1-3.819c-0.082-0.787-0.712-3.548-1.076-4.382
			c-0.364-0.835-0.547-0.995-0.679-1.252"/>
		<path fill="#CDB8AB" stroke="#553E31" stroke-linecap="round" stroke-linejoin="round" stroke-miterlimit="10" d="M46.769,38.838
			c0.232-0.609,0.497-1.46,0.63-2.118s0.248-1.637,0.348-2.055c0.1-0.417,0.298-0.946,0.149-1.396
			c-0.149-0.45-1.242-3.019-1.475-3.483c-0.231-0.466-0.28-0.61-0.248-0.818"/>
		<path fill="#CDB8AB" stroke="#553E31" stroke-linecap="round" stroke-linejoin="round" stroke-miterlimit="10" d="M49.005,36.431
			c0.199-0.818,0.464-1.686,0.579-2.287c0.116-0.602,0.48-1.452,0.199-2.238c-0.282-0.787-0.762-1.991-1.043-2.568
			c-0.282-0.578-0.563-0.963-0.447-1.445"/>
		<path fill="#CDB8AB" stroke="#553E31" stroke-linecap="round" stroke-linejoin="round" stroke-miterlimit="10" d="M43.604,33.751
			c0,0,0.549,0.802,0.549,0.963c0,0.16-0.261,1.205-0.252,1.396"/>
		<path fill="#CDB8AB" stroke="#553E31" stroke-linecap="round" stroke-linejoin="round" stroke-miterlimit="10" d="M37.065,29.841
			c0,0-0.462-0.504-0.925-1.361"/>
		<path fill="#CDB8AB" stroke="#553E31" stroke-linecap="round" stroke-linejoin="round" stroke-miterlimit="10" d="M21.834,26.268
			c0.398,0.387,0.752,0.771,0.817,1.328c0.066,0.556,0.089,0.855,0.089,0.855c0.375,0.342,1.258,1.198,1.258,1.198
			s2.297-2.846,2.693-3.081c0.397-0.236,1.37-0.493,1.37-0.493l-3.711-3.857L21.834,26.268z"/>
		<path fill="#EBE0D5" stroke="#553E31" stroke-linecap="round" stroke-linejoin="round" stroke-miterlimit="10" d="M27.74,26.167
			l15.269,16.066c0,0-3.466,0.428-6.05-1.563C34.376,38.681,24.16,29.45,24.16,29.45l2.444-3.054L27.74,26.167z"/>
		<path fill="#CDB8AB" stroke="#553E31" stroke-linecap="round" stroke-linejoin="round" stroke-miterlimit="10" d="M15.288-1.104
			c0.795,1.06,3.112,4.72,3.742,5.715c0.63,0.994,1.987,3.017,2.584,3.595c0.596,0.578,2.317,2.824,2.483,3.948
			c0.165,1.124,0.597,4.237,0.431,5.361c-0.165,1.123-0.231,2.278-0.199,3.434c0.034,1.157,0.066,3.179-0.231,3.837
			s-1.374,2.344-2.501,2.536c-1.126,0.192-2.036,0.128-2.418-0.578c-0.381-0.707-0.611-1.477-0.446-1.846
			c0.166-0.369,0.579-0.642,1.026-0.706c0.034-0.209-0.066-0.69-0.066-1.076c-0.198,0.578-0.447,0.996-0.895,1.364
			c-0.446,0.37-0.977,0.723-1.722,0.595c-0.744-0.129-1.159-0.241-1.457-0.771c-0.298-0.53-0.579-2.087-0.579-2.954
			c-0.432,0.098-1.606,0.113-2.203-0.625c-0.596-0.738-0.895-1.557-0.579-2.022c-0.612,0.177-0.729,0.225-1.274,0.048
			c-0.548-0.176-1.342-1.107-1.773-1.91c-0.43-0.802-1.274-2.231-1.572-3.884C7.34,11.304,7.505,9.843,7.207,8.704
			c-0.298-1.141-1.159-2.89-3.511-4.751C1.345,2.091-4.269-1.505-4.269-1.505L15.288-1.104z"/>
		<path fill="#CDB8AB" stroke="#553E31" stroke-linecap="round" stroke-linejoin="round" stroke-miterlimit="10" d="M19.692,23.116
			c0,0,0.103-1.165,0.281-1.813c0.116-0.417,0.299-0.689,0.398-0.834"/>
		<path fill="#CDB8AB" stroke="#553E31" stroke-linecap="round" stroke-linejoin="round" stroke-miterlimit="10" d="M15.04,21.351
			c0,0,0.43-0.256,0.662-0.689"/>
		<path fill="#CDB8AB" stroke="#553E31" stroke-linecap="round" stroke-linejoin="round" stroke-miterlimit="10" d="M24.414,18.446
			c0,0,0.445,1.027,0.545,1.686c0.099,0.658,0.082,2.359,0.413,3.065c-0.513-0.466-1.021-0.979-1.021-0.979L24.414,18.446z"/>
	</g>
</g>
</svg>
