<?xml version="1.0" encoding="utf-8"?>
<!-- Generator: Adobe Illustrator 16.0.0, SVG Export Plug-In . SVG Version: 6.00 Build 0)  -->
<!DOCTYPE svg PUBLIC "-//W3C//DTD SVG 1.1//EN" "http://www.w3.org/Graphics/SVG/1.1/DTD/svg11.dtd">
<svg version="1.1" id="Layer_1" xmlns="http://www.w3.org/2000/svg" xmlns:xlink="http://www.w3.org/1999/xlink" x="0px" y="0px"
	 width="60px" height="60px" viewBox="0 0 60 60" enable-background="new 0 0 60 60" xml:space="preserve">
<g>
	<defs>
		<path id="SVGID_63_" d="M30,53.5C17.042,53.5,6.5,42.959,6.5,30S17.042,6.5,30,6.5S53.5,17.041,53.5,30S42.958,53.5,30,53.5z"/>
	</defs>
	<clipPath id="SVGID_2_">
		<use xlink:href="#SVGID_63_"  overflow="visible"/>
	</clipPath>
	<rect clip-path="url(#SVGID_2_)" fill="#FFFCF5" width="60" height="60"/>
	<polygon clip-path="url(#SVGID_2_)" fill="#EBE0D5" stroke="#553E31" stroke-miterlimit="10" points="56.493,24.122 1.752,36.27 
		19.427,56.75 51.986,53.886 	"/>
	
		<path clip-path="url(#SVGID_2_)" fill="#CDB8AB" stroke="#553E31" stroke-width="0.8821" stroke-linecap="round" stroke-linejoin="round" stroke-miterlimit="10" d="
		M43.036,35.035c0,7.741-6.495,14.019-14.508,14.019s-14.507-6.277-14.507-14.019"/>
	
		<ellipse clip-path="url(#SVGID_2_)" fill="#EBE0D5" stroke="#553E31" stroke-width="0.9633" stroke-linecap="round" stroke-linejoin="round" stroke-miterlimit="10" cx="28.529" cy="35.062" rx="14.507" ry="8.751"/>
	
		<path clip-path="url(#SVGID_2_)" fill="#E4D7CD" stroke="#553E31" stroke-width="0.9633" stroke-linecap="round" stroke-linejoin="round" stroke-miterlimit="10" d="
		M20.486,42.315c2.317,0.944,5.109,1.497,8.117,1.497c3.038,0,5.858-0.564,8.188-1.529c-1.007-1.653-4.27-2.865-8.144-2.865
		C24.752,39.418,21.472,40.646,20.486,42.315z"/>
	<g clip-path="url(#SVGID_2_)">
		<g>
			<path fill="#553E31" d="M18.632,32.536c0,0,0.049-0.105,0.167-0.268c0.134-0.161,0.269-0.388,0.607-0.621
				c0.345-0.215,0.825-0.521,1.316-0.699c0.25-0.104,0.517-0.213,0.798-0.329c0.286-0.089,0.586-0.182,0.899-0.279
				c0.626-0.198,1.315-0.333,2.042-0.471c0.73-0.112,1.501-0.203,2.3-0.236c0.8-0.053,1.614-0.037,2.461-0.006
				c0.785,0.044,1.681,0.122,2.505,0.264c1.67,0.268,3.323,0.689,4.78,1.371c1.44,0.664,2.782,1.546,3.445,2.811
				c0.326,0.609,0.478,1.32,0.348,1.887c-0.007,0.23-0.114,0.513-0.212,0.769c-0.085,0.27-0.214,0.446-0.325,0.615
				c-0.206,0.356-0.436,0.561-0.578,0.718c-0.146,0.153-0.223,0.234-0.223,0.234c-0.181,0.191-0.482,0.199-0.673,0.019
				s-0.199-0.482-0.018-0.673c0.001-0.002,0.003-0.003,0.004-0.005l0.052-0.052c0,0,0.065-0.066,0.187-0.189
				c0.119-0.125,0.322-0.293,0.48-0.562c0.092-0.128,0.201-0.271,0.244-0.421c0.066-0.146,0.154-0.292,0.167-0.568
				c0.102-0.416-0.013-0.879-0.254-1.343c-0.249-0.465-0.677-0.91-1.215-1.285c-0.53-0.384-1.154-0.727-1.846-0.983
				c-1.37-0.539-2.943-0.87-4.528-0.994c-0.803-0.072-1.549-0.081-2.378-0.064c-0.766,0.035-1.546,0.068-2.274,0.173
				c-0.737,0.082-1.436,0.22-2.092,0.365c-0.65,0.154-1.27,0.302-1.808,0.501c-0.271,0.097-0.529,0.189-0.775,0.278
				c-0.233,0.108-0.454,0.212-0.662,0.309c-0.445,0.18-0.675,0.4-0.968,0.512c-0.277,0.133-0.561,0.295-0.744,0.351
				c-0.188,0.07-0.303,0.089-0.303,0.089l-0.006,0.001c-0.471,0.076-0.914-0.243-0.99-0.715
				C18.534,32.86,18.562,32.688,18.632,32.536z"/>
		</g>
		<g>
			<path fill="#553E31" d="M21.035,29.325c-0.388,0.605-0.7,1.275-0.896,1.932c-0.194,0.657-0.24,1.32-0.09,1.816l-0.465-0.752
				c-0.003,0.014,0.085,0.075,0.144,0.112c0.064,0.044,0.139,0.085,0.211,0.125c0.15,0.078,0.308,0.154,0.475,0.214
				c0.332,0.126,0.688,0.216,1.057,0.272c0.739,0.101,1.528,0.063,2.311-0.108c0.149-0.035,0.299,0.059,0.334,0.208
				c0.028,0.124-0.034,0.25-0.141,0.308c-0.753,0.402-1.593,0.695-2.493,0.824c-0.45,0.058-0.914,0.074-1.386,0.035
				c-0.235-0.016-0.473-0.054-0.713-0.103c-0.12-0.026-0.239-0.054-0.363-0.092c-0.131-0.04-0.229-0.066-0.411-0.151l-0.024-0.012
				c-0.292-0.138-0.457-0.437-0.44-0.74c0.058-1.001,0.449-1.812,0.902-2.489c0.468-0.678,1.003-1.249,1.609-1.753
				c0.111-0.093,0.276-0.077,0.369,0.034c0.074,0.09,0.079,0.215,0.02,0.309L21.035,29.325z"/>
		</g>
	</g>
	<g clip-path="url(#SVGID_2_)">
		<g>
			<path fill="#553E31" d="M29.682,42.766c-0.717,0-1.534-0.177-2.498-0.54c-2.978-1.127-3.164-4.538-2.564-6.557
				c1.243-4.157,6.295-7.05,6.867-7.366c0.156-0.084,0.325-0.127,0.494-0.127c0.162,0,0.324,0.04,0.469,0.114l0.939,0.479
				c0.271,0.138,0.469,0.396,0.528,0.692c1.06,5.267,0.473,10.006-1.494,12.074C31.921,42.063,31.091,42.766,29.682,42.766z"/>
			<path fill="#EBE0D5" d="M31.98,28.576c0.098,0,0.195,0.023,0.285,0.069l0.941,0.479c0.165,0.084,0.282,0.238,0.318,0.416
				c1.033,5.139,0.488,9.74-1.393,11.719c-0.488,0.514-1.209,1.105-2.451,1.105c-0.672,0-1.441-0.169-2.357-0.514
				c-2.721-1.03-2.879-4.194-2.321-6.068c1.237-4.138,6.459-7.01,6.68-7.132C31.775,28.602,31.878,28.576,31.98,28.576
				 M31.98,27.776c-0.235,0-0.47,0.059-0.677,0.171c-0.598,0.33-5.778,3.298-7.067,7.606c-0.644,2.163-0.427,5.822,2.805,7.046
				c1.012,0.381,1.875,0.565,2.641,0.565c1.563,0,2.479-0.772,3.031-1.354c2.085-2.193,2.697-6.955,1.597-12.428
				c-0.086-0.422-0.355-0.775-0.739-0.971l-0.941-0.479C32.432,27.831,32.206,27.776,31.98,27.776L31.98,27.776z"/>
		</g>
		<path fill="#EBE0D5" d="M32.001,29.866c-1.068,0.639-4.873,3.103-5.816,6.254c-0.416,1.392-0.352,3.876,1.584,4.61
			c0.76,0.285,1.404,0.432,1.913,0.432c0.719,0,1.14-0.289,1.549-0.722c1.305-1.373,2.148-5.104,1.143-10.386L32.001,29.866z"/>
		<path fill="none" stroke="#553E31" stroke-linecap="round" stroke-linejoin="round" stroke-miterlimit="10" d="M32.196,29.685
			c0,0-6.348,6.576-4.593,11.496"/>
		<path fill="none" stroke="#553E31" stroke-linecap="round" stroke-linejoin="round" stroke-miterlimit="10" d="M32.337,29.709
			c0,0-0.859,10.152-3.982,11.801"/>
		<path fill="none" stroke="#553E31" stroke-linecap="round" stroke-linejoin="round" stroke-miterlimit="10" d="M27.418,39.49"/>
		<path fill="none" stroke="#553E31" stroke-linecap="round" stroke-linejoin="round" stroke-miterlimit="10" d="M30.992,29.164"/>
		<g>
			<path fill="#CDB8AB" d="M32.783,29.752c-0.052,0-0.105-0.008-0.157-0.025l-0.587-0.194c-0.259-0.086-0.401-0.364-0.319-0.624
				c0.425-1.354,4.157-13.232,4.342-13.681c0.199-0.483,0.695-0.795,1.264-0.795c0.446,0,0.854,0.199,1.09,0.532
				c0.147,0.207,0.358,0.66,0.113,1.359c-0.373,1.058-5.082,12.624-5.282,13.116C33.168,29.634,32.981,29.752,32.783,29.752z"/>
			<path fill="#553E31" d="M37.325,14.933c0.516,0,1.021,0.397,0.731,1.227c-0.373,1.058-5.273,13.093-5.273,13.093l-0.587-0.194
				c0,0,4.146-13.198,4.327-13.64C36.655,15.098,36.992,14.933,37.325,14.933 M37.325,13.933c-0.771,0-1.449,0.434-1.727,1.104
				c-0.184,0.448-3.381,10.616-4.356,13.722c-0.164,0.521,0.121,1.077,0.64,1.249l0.587,0.194c0.104,0.034,0.21,0.051,0.314,0.051
				c0.396,0,0.769-0.237,0.926-0.623C33.91,29.137,38.623,17.56,39,16.492c0.319-0.914,0.025-1.53-0.178-1.817
				C38.492,14.21,37.933,13.933,37.325,13.933L37.325,13.933z"/>
		</g>
	</g>
	
		<path clip-path="url(#SVGID_2_)" fill="#CDB8AB" stroke="#553E31" stroke-width="0.9633" stroke-linecap="round" stroke-linejoin="round" stroke-miterlimit="10" d="
		M49.139,1.034c0,0-4.458,2.678-6.304,3.545c-2.886,1.355-6.397,2.775-8.127,5.637c-0.549,0.912-0.899,1.998-1.123,3.035
		c-0.207,0.953-0.622,1.845-0.787,2.812c-0.112,0.665-0.044,1.007-0.435,1.591c-0.294,0.439-0.6,0.857-0.732,1.376
		c-0.136,0.538-0.092,1.104-0.197,1.646c-0.154,0.794-0.395,1.573-0.086,2.362c0.226,0.58,0.861,1.641,1.286,2.097
		c0.742-1.739,2.534-5.54,2.534-5.54s0.487-0.998,1.292-1.512c0.805-0.516,0.57-0.445,1.122-0.967
		c0.847,0.08,1.497-0.217,2.489-0.566c-1.038,0.17-2.032,1.049-2.57,1.413c-0.536,0.367-2.487,2.554-2.672,3.429
		c-0.184,0.875,0.051,1.801,0.714,1.994c0.665,0.193,0.77,0.096,1.093-0.308c0.322-0.405,3.298-3.254,4.563-3.884
		c1.269-0.633,0.734-0.335,1.535-0.781c0.8-0.448,1.436-1.584,2.007-2.098c0.574-0.514,1.413-1.291,2.076-3.204
		c0.662-1.909,2.555-3.892,4.026-4.628c1.469-0.736,7.343-2.555,9.555-3C54.978,3.342,49.139,1.034,49.139,1.034z"/>
</g>
</svg>
