<?xml version="1.0" encoding="utf-8"?>
<!-- Generator: Adobe Illustrator 16.0.0, SVG Export Plug-In . SVG Version: 6.00 Build 0)  -->
<!DOCTYPE svg PUBLIC "-//W3C//DTD SVG 1.1//EN" "http://www.w3.org/Graphics/SVG/1.1/DTD/svg11.dtd">
<svg version="1.1" id="Layer_1" xmlns="http://www.w3.org/2000/svg" xmlns:xlink="http://www.w3.org/1999/xlink" x="0px" y="0px"
	 width="230px" height="90px" viewBox="0 0 230 90" enable-background="new 0 0 230 90" xml:space="preserve">
<polyline fill="#00549E" points="0,0 230,0 230,90 0,90 "/>
<path fill="#FFFFFF" d="M119.359,44.46c-1.608,0-2.767,0.526-3.941,1.063v12.136c1.126,0.109,1.767,0.109,2.839,0.109
	c3.859,0,4.389-1.767,4.389-4.23V47.74C122.645,45.923,122.041,44.46,119.359,44.46 M93.731,43.798
	c-2.678,0-3.287,1.468-3.287,3.285v1.022h6.573v-1.022C97.017,45.264,96.406,43.798,93.731,43.798 M44.085,56.431
	c0,1.438,0.679,2.185,2.178,2.185c1.61,0,2.562-0.524,3.736-1.063v-2.876h-3.52C44.815,54.676,44.085,54.984,44.085,56.431
	 M144.29,44.46c-2.682,0-3.61,1.462-3.61,3.28v6.642c0,1.824,0.929,3.288,3.61,3.288c2.673,0,3.61-1.464,3.61-3.288V47.74
	C147.9,45.923,146.963,44.46,144.29,44.46 M30.941,63.878H23.06V44.821h-3.942v-6.568h3.942v-3.942c0-5.357,2.224-8.542,8.541-8.542
	h5.262v6.567h-3.286c-2.46,0-2.625,0.917-2.625,2.629l-0.01,3.288h5.959l-0.697,6.566h-5.262L30.941,63.878L30.941,63.878z
	 M57.885,63.927h-6.569l-0.283-1.66c-3.002,1.66-5.68,1.929-7.445,1.929c-4.82,0-7.384-3.215-7.384-7.661
	c0-5.243,2.992-7.116,8.346-7.116H50v-1.134c0-2.678-0.307-3.463-4.431-3.463h-6.742l0.661-6.568h7.367
	c9.047,0,11.029,2.855,11.029,10.085L57.885,63.927L57.885,63.927z M80.229,45.303c-4.088-0.699-5.264-0.854-7.23-0.854
	c-3.533,0-4.603,0.779-4.603,3.775v5.669c0,2.998,1.068,3.779,4.603,3.779c1.966,0,3.142-0.156,7.23-0.858v6.403
	c-3.583,0.806-5.916,1.015-7.886,1.015c-8.466,0-11.828-4.445-11.828-10.867v-4.6c0-6.427,3.362-10.88,11.828-10.88
	c1.971,0,4.305,0.213,7.886,1.017V45.303z M104.899,53.362H90.444v0.53c0,2.998,1.069,3.779,4.601,3.779
	c3.177,0,5.114-0.156,9.195-0.858v6.403c-3.935,0.806-5.986,1.015-9.849,1.015c-8.465,0-11.831-4.445-11.831-10.867v-5.259
	c0-5.618,2.498-10.222,11.171-10.222c8.674,0,11.167,4.548,11.167,10.222V53.362L104.899,53.362z M130.526,53.484
	c0,6.207-1.776,10.734-12.536,10.734c-3.882,0-6.166-0.341-10.455-1.003V27.74l7.881-1.313v12.409
	c1.702-0.633,3.907-0.953,5.914-0.953c7.885,0,9.196,3.53,9.196,9.199V53.484L130.526,53.484z M155.791,53.619
	c0,5.355-2.215,10.55-11.474,10.55c-9.268,0-11.521-5.194-11.521-10.55v-5.168c0-5.355,2.254-10.549,11.521-10.549
	c9.259,0,11.474,5.194,11.474,10.549V53.619z M181.035,53.619c0,5.355-2.217,10.55-11.475,10.55c-9.266,0-11.521-5.194-11.521-10.55
	v-5.168c0-5.355,2.256-10.549,11.521-10.549c9.258,0,11.475,5.194,11.475,10.549V53.619z M206.945,63.878H198.4l-7.225-12.045
	v12.045h-7.883V27.74l7.883-1.313V49.69l7.225-11.438h8.545l-7.889,12.48L206.945,63.878z M169.533,44.46
	c-2.676,0-3.605,1.462-3.605,3.28v6.642c0,1.824,0.93,3.288,3.605,3.288s3.621-1.464,3.621-3.288V47.74
	C173.154,45.923,172.209,44.46,169.533,44.46"/>
</svg>
