<?xml version="1.0" encoding="utf-8"?>
<!-- Generator: Adobe Illustrator 15.0.0, SVG Export Plug-In . SVG Version: 6.00 Build 0)  -->
<!DOCTYPE svg PUBLIC "-//W3C//DTD SVG 1.1//EN" "http://www.w3.org/Graphics/SVG/1.1/DTD/svg11.dtd">
<svg version="1.1" id="Layer_1" xmlns="http://www.w3.org/2000/svg" xmlns:xlink="http://www.w3.org/1999/xlink" x="0px" y="0px"
	 width="45px" height="30px" viewBox="0 0 45 30" enable-background="new 0 0 45 30" xml:space="preserve">
<g>
	<path fill-rule="evenodd" clip-rule="evenodd" fill="#553e31" d="M37.774,12.165c-0.569-2.83-1.914-5.913-4.364-8.079
		c-2.451-2.168-8.341-5.082-13.394-3.749c-3.416,0.902-5.029,2.467-5.661,3.101c0,0-7.242,2.463-7.242,14.085
		c0,0,0.135,1.341,2.009,0.409c0,0-0.528,1.597,0.706,1.659c1.233,0.064,5.556-0.169,7.991-0.927
		c0.035-0.011,0.072-0.022,0.108-0.034c0.424-1.971,0.954-6.364-1.31-10.83c-0.57-1.122,0.143-0.806,0.632-0.142
		c0.478,0.647,2.652,2.978,2.118,10.505c0.591-0.195,1.24-0.407,1.915-0.618c0.546,0.564,1.324,1.504,1.58,2.495
		c1.598-0.539,4.522-1.852,4.522-1.852s-0.219-0.931-1.271-1.91c0.671-0.121,1.3-0.196,1.856-0.209
		c2.877-0.063,4.68,0.646,4.934,1.73c0.253,1.085,0.475,3.267-0.285,3.582c-0.759,0.316-3.895,0.261-6.42-0.885
		c-0.588-0.266-0.186,1.1-0.063,1.677c0.434,2.063,1.313,2.546,1.896,3.874c0,0,0.604,2.966,1.961,3.81
		c0.586,0.364,0.728-0.03,1.217-0.568c0.49-0.538,3.164-3.637,3.512-6.184c0.537-0.932,1.502-2.387,1.85-5.248
		C36.572,17.858,38.344,14.997,37.774,12.165z M14.513,11.145c0,0.791-0.64,1.431-1.431,1.431c-0.79,0-1.431-0.64-1.431-1.431
		s0.641-1.431,1.431-1.431C13.873,9.714,14.513,10.354,14.513,11.145z M25.24,18.292c0.434-0.182,0.833-0.355,1.148-0.492
		c-0.203-0.345-0.551-0.803-1.133-1.258c-0.154-0.122-0.412-0.148-0.602-0.148c-0.269,0-0.57,0.05-0.883,0.129L25.24,18.292z
		 M22.988,16.767c-0.353,0.13-0.696,0.279-0.998,0.424c0.439,0.476,0.967,1.14,1.32,1.883c0.377-0.144,0.789-0.308,1.196-0.476
		L22.988,16.767z M31.898,23.213c-1.426,0.476-2.92,0.715-4.188,0.831c0.076,0.118,0.153,0.231,0.231,0.349
		c0.173,0.256,0.351,0.518,0.519,0.817c1.271-0.448,2.69-1.021,3.633-1.606C32.027,23.473,31.963,23.343,31.898,23.213z
		 M32.314,24.212c-0.995,0.596-2.297,1.25-3.535,1.692c0.082,0.407,0.231,0.936,0.43,1.456c0.996-0.771,2.396-1.906,3.289-2.881
		L32.314,24.212z M26.879,22.019c0.112,0.532,0.256,0.943,0.42,1.293c1.268-0.098,2.812-0.317,4.266-0.789
		c-0.033-0.073-0.069-0.146-0.104-0.216c-0.076,0.001-0.152,0.002-0.223,0.002c-0.59,0-2.477-0.063-4.468-0.765
		c0.016,0.07,0.03,0.132,0.042,0.181C26.838,21.833,26.861,21.934,26.879,22.019z M29.522,28.083
		c0.231,0.463,0.501,0.863,0.798,1.082c0.027-0.033,0.055-0.066,0.08-0.097c0.074-0.089,0.156-0.187,0.25-0.289
		c0.662-0.726,1.73-2.083,2.484-3.488c-0.093-0.117-0.182-0.239-0.268-0.364C31.924,26.122,30.638,27.23,29.522,28.083z
		 M29.001,2.236c-0.436-0.198-0.891-0.382-1.36-0.551l-1.457,1.848c0.433,0.128,0.848,0.271,1.245,0.429L29.001,2.236z
		 M26.875,1.429c-0.456-0.142-0.923-0.266-1.398-0.366l-1.364,1.993c0.44,0.075,0.865,0.161,1.274,0.261L26.875,1.429z
		 M31.006,3.288c-0.398-0.24-0.829-0.481-1.289-0.712l-1.551,1.702c0.404,0.188,0.79,0.387,1.157,0.6L31.006,3.288z M20.935,0.914
		l-0.974,1.882c0.41-0.013,0.808-0.014,1.197-0.006l1.205-2.023C21.872,0.782,21.395,0.832,20.935,0.914z M24.659,0.914
		c-0.468-0.072-0.941-0.12-1.417-0.141l-1.222,2.053c0.431,0.025,0.85,0.062,1.255,0.11L24.659,0.914z M32.818,4.578
		c-0.318-0.273-0.705-0.568-1.152-0.869L29.99,5.293c0.357,0.236,0.697,0.485,1.018,0.744L32.818,4.578z M33.381,5.099l-1.787,1.442
		c0.299,0.273,0.582,0.554,0.848,0.841l1.845-1.261C34.011,5.77,33.709,5.427,33.381,5.099z M37.127,13.428l-1.184,0.34
		c0.326,1.111,0.43,1.94,0.514,2.574l0,0C36.441,16.383,37.104,14.825,37.127,13.428z M19.963,1.139
		c-1.945,0.547-3.23,1.307-4.052,1.932c0,0-0.163,0.138,0.895-0.009c0.792-0.11,1.549-0.183,2.28-0.227L19.963,1.139z
		 M37.084,12.652c-0.014-0.113-0.031-0.225-0.055-0.337c-0.026-0.134-0.057-0.277-0.092-0.427l-1.443,0.539
		c0.079,0.209,0.152,0.415,0.221,0.617L37.084,12.652z M36.202,9.514c-0.134-0.337-0.284-0.684-0.453-1.032l-1.722,0.982
		c0.176,0.278,0.34,0.558,0.493,0.837L36.202,9.514z M36.75,11.148c-0.08-0.292-0.174-0.6-0.284-0.919l-1.598,0.747
		c0.122,0.251,0.237,0.5,0.343,0.746L36.75,11.148z M35.398,7.807c-0.199-0.359-0.419-0.719-0.663-1.073l-1.793,1.225
		c0.235,0.287,0.458,0.577,0.665,0.871L35.398,7.807z"/>
</g>
</svg>
