<?xml version="1.0" encoding="utf-8"?>
<!-- Generator: Adobe Illustrator 15.0.0, SVG Export Plug-In . SVG Version: 6.00 Build 0)  -->
<!DOCTYPE svg PUBLIC "-//W3C//DTD SVG 1.1//EN" "http://www.w3.org/Graphics/SVG/1.1/DTD/svg11.dtd">
<svg version="1.1" id="Layer_1" xmlns="http://www.w3.org/2000/svg" xmlns:xlink="http://www.w3.org/1999/xlink" x="0px" y="0px"
	 width="45px" height="30px" viewBox="0 0 45 30" enable-background="new 0 0 45 30" xml:space="preserve">
<g>
	<path fill="#553e31" stroke="#553e31" stroke-width="0.0792" stroke-miterlimit="10" d="M45,20.082
		c0,4.646-10.074,8.413-22.5,8.413S0,24.728,0,20.082c0-2.565,3.073-4.861,7.914-6.404c2.237-4.945,6.721-8.565,12.079-9.438
		c-0.006-0.07-0.021-0.137-0.021-0.207c0-1.396,1.131-2.528,2.527-2.528s2.525,1.133,2.525,2.528c0,0.07-0.014,0.137-0.02,0.207
		c5.357,0.871,9.842,4.492,12.078,9.438C41.926,15.221,45,17.517,45,20.082z M21.21,4.608c0-1.285,1.024-2.331,2.302-2.365
		c-0.281-0.156-0.603-0.245-0.947-0.245c-1.082,0-1.958,0.877-1.958,1.957c0,0.644,0.311,1.213,0.788,1.57
		C21.276,5.243,21.21,4.935,21.21,4.608z M6.541,19.779l-0.156,0.173c0.241,0.261,0.513,0.491,0.792,0.707
		c0.283,0.212,0.579,0.404,0.883,0.587c0.606,0.361,1.246,0.664,1.895,0.934c1.301,0.536,2.651,0.931,4.015,1.244
		c2.731,0.618,5.521,0.91,8.311,0.978c0.376,0.008,0.752,0.013,1.129,0.013c2.412,0,4.826-0.177,7.209-0.563
		c1.377-0.226,2.744-0.522,4.082-0.92c0.67-0.202,1.332-0.424,1.979-0.686c0.324-0.13,0.646-0.269,0.963-0.415
		c0.314-0.15,0.627-0.307,0.928-0.479l-0.063-0.141c-0.328,0.109-0.654,0.216-0.984,0.309c-0.328,0.097-0.658,0.187-0.99,0.268
		c-0.666,0.161-1.332,0.305-2.004,0.427c-1.342,0.247-2.693,0.426-4.051,0.559c-2.141,0.207-4.291,0.3-6.439,0.3
		c-0.576,0-1.152-0.006-1.726-0.02c-2.724-0.069-5.444-0.282-8.126-0.724c-1.34-0.223-2.669-0.505-3.968-0.889
		c-0.649-0.193-1.29-0.416-1.911-0.68c-0.311-0.132-0.615-0.277-0.911-0.441C7.098,20.16,6.813,19.98,6.541,19.779 M20.453,5.505
		C13.813,6.381,8.546,11.94,7.806,18.924c0.091,0.055,0.172,0.116,0.268,0.169c0.245,0.134,0.508,0.262,0.78,0.377
		c0.122,0.052,0.254,0.098,0.38,0.147C9.68,12.91,14.577,7.378,20.71,5.817C20.614,5.722,20.531,5.615,20.453,5.505z"/>
</g>
</svg>
