<?xml version="1.0" encoding="utf-8"?>
<!-- Generator: Adobe Illustrator 15.0.0, SVG Export Plug-In . SVG Version: 6.00 Build 0)  -->
<!DOCTYPE svg PUBLIC "-//W3C//DTD SVG 1.1//EN" "http://www.w3.org/Graphics/SVG/1.1/DTD/svg11.dtd">
<svg version="1.1" id="Layer_1" xmlns="http://www.w3.org/2000/svg" xmlns:xlink="http://www.w3.org/1999/xlink" x="0px" y="0px"
	 width="45px" height="30px" viewBox="0 0 45 30" enable-background="new 0 0 45 30" xml:space="preserve">
<symbol  id="New_Symbol" viewBox="-14.78 -7.287 29.561 14.574">
	<g>
		<g>
			<g>
				<g>
					<path fill="#cdb8ab" d="M-14.655-1.556c1.007-0.774,2.172-1.201,3.351-1.53c1.185-0.318,2.397-0.526,3.618-0.662
						c2.44-0.273,4.907-0.297,7.333-0.146c2.419,0.163,4.837,0.499,7.016,1.169C7.738-2.39,8.77-1.959,9.518-1.429
						c0.372,0.262,0.667,0.542,0.834,0.794c0.177,0.256,0.24,0.454,0.259,0.703c0.016,0.25-0.018,0.38-0.142,0.614
						c-0.128,0.225-0.384,0.505-0.741,0.769C9.012,1.987,7.991,2.44,6.918,2.785C4.748,3.477,2.33,3.833-0.09,4.007
						c-2.429,0.168-4.899,0.144-7.357-0.11C-8.677,3.77-9.903,3.579-11.12,3.305c-1.216-0.279-2.418-0.648-3.598-1.171
						c0.927,0.902,2.038,1.631,3.202,2.236c1.167,0.608,2.398,1.091,3.653,1.493C-5.344,6.646-2.725,7.1-0.073,7.242
						C2.582,7.373,5.272,7.243,8,6.556c1.361-0.36,2.747-0.842,4.112-1.775c0.675-0.472,1.359-1.084,1.896-1.947
						c0.541-0.847,0.843-2.006,0.758-3.024c-0.049-1.019-0.446-2.063-1.01-2.835c-0.561-0.794-1.24-1.362-1.914-1.817
						C10.48-5.741,9.096-6.21,7.734-6.566c-2.729-0.677-5.42-0.803-8.076-0.677C-2.996-7.098-5.621-6.66-8.149-5.858
						c-1.26,0.411-2.5,0.911-3.66,1.575c-1.147,0.659-2.269,1.492-2.971,2.618L-14.655-1.556z"/>
				</g>
			</g>
		</g>
	</g>
</symbol>
<g>
	<path fill="#cdb8ab" d="M18.542,19.664c-0.117,0-0.233-0.01-0.343-0.031c-0.286-0.049-0.533-0.157-0.714-0.312
		c-0.1-0.086-0.173-0.183-0.219-0.288c-0.05-0.116-0.063-0.243-0.037-0.363c0.01-0.048,0.05-0.086,0.1-0.093
		c0.067-0.012,0.136,0.034,0.147,0.098c0.011,0.071,0.04,0.137,0.087,0.196c0.048,0.059,0.112,0.113,0.191,0.159
		c0.156,0.093,0.356,0.154,0.579,0.178c0.222,0.024,0.459,0,0.645-0.066c0.099-0.034,0.185-0.08,0.257-0.136
		c0.07-0.055,0.13-0.118,0.178-0.191c0.045-0.07,0.072-0.135,0.08-0.192c0.006-0.055-0.004-0.106-0.031-0.153
		c-0.028-0.051-0.077-0.099-0.144-0.144c-0.067-0.044-0.15-0.081-0.246-0.11c-0.195-0.061-0.427-0.081-0.661-0.068
		c-0.123,0.009-0.246,0.028-0.366,0.057c-0.118,0.028-0.24,0.069-0.366,0.122c-0.057,0.024-0.121,0-0.15-0.052
		c-0.029-0.054-0.013-0.12,0.038-0.154c0.116-0.08,0.247-0.147,0.389-0.201c0.135-0.054,0.281-0.094,0.432-0.121
		c0.3-0.055,0.604-0.05,0.872,0.01c0.146,0.032,0.277,0.08,0.389,0.143c0.131,0.071,0.232,0.161,0.301,0.268
		c0.079,0.118,0.114,0.256,0.101,0.397c-0.01,0.125-0.062,0.261-0.147,0.394c-0.081,0.128-0.188,0.241-0.317,0.337
		c-0.13,0.097-0.288,0.177-0.456,0.23c-0.155,0.049-0.317,0.078-0.483,0.086C18.612,19.663,18.577,19.664,18.542,19.664z"/>
	<path fill="#cdb8ab" d="M44.994,13.794c-0.021-0.227-0.146-0.751-0.791-1.067c0.48-0.184,0.693-0.621,0.682-1.002
		c-0.032-1.044-1.678-1.828-2.797-1.911c-0.527-0.039-1.033-0.096-1.438-0.146c0.133-0.52,0.179-1.041,0.179-1.605
		c0-1.396-0.423-1.915-1.453-1.915c-0.104,0-0.216,0.005-0.333,0.016c-0.74,0.065-0.964,0.161-1.291,0.161
		c-0.237,0-0.529-0.05-1.108-0.198c0,0-9.895-2.586-13.418-2.849C21.524,3.149,20.208,2.9,18.892,2.9
		c-1.41,0-2.818,0.286-4.699,1.313c-3.636,1.987-8.77,5.173-9.67,5.922c0,0-1.236,0.938-0.75,2.549
		c0.13,0.431,0.34,0.847,0.603,1.23c-1.312,0.567-3.168,1.426-3.694,1.952c-0.608,0.606-0.823,1.302-0.592,1.905
		c0.137,0.357,0.469,0.778,1.255,0.964c-0.012,0.027-0.023,0.054-0.034,0.08c-0.121,0.325-0.103,0.667,0.05,0.965
		c0.214,0.417,0.602,0.703,1.101,0.824c-0.097,0.288-0.102,0.574,0.043,0.867c0.09,0.183,0.376,0.607,1.083,0.607
		c0.135,0,0.283-0.014,0.453-0.044c0.174-0.031,0.387-0.077,0.618-0.129c0.329,0.621,1.041,1.3,2.636,1.796
		c3.544,1.103,13.68,2.812,15.517,3.111c1.837,0.3,2.812,0.524,4.872-0.188c1.504-0.519,5.661-2.45,8.615-4.062
		c0.939-0.098,1.661-0.381,2.13-0.862c0.231-0.237,0.359-0.47,0.428-0.683c0.013-0.009,0.028-0.02,0.041-0.028
		c1.567-1.167,2.142-1.927,2.352-2.533c0.139-0.088,0.262-0.183,0.36-0.294c0.426-0.485,0.303-0.952,0.23-1.13
		c-0.093-0.227-0.236-0.378-0.412-0.484c0.008-0.19,0.015-0.381,0.021-0.56c0.024-0.003,0.049-0.008,0.072-0.011
		c1-0.14,1.865-0.26,2.47-0.612C44.98,14.791,45.021,14.075,44.994,13.794z M5.247,11.092l0.022-0.018l0.021-0.018
		c0.785-0.652,5.764-3.761,9.477-5.791c1.516-0.828,2.711-1.165,4.124-1.165c0.722,0,1.461,0.083,2.318,0.181
		c0.602,0.068,1.224,0.139,1.927,0.191c3.374,0.251,13.105,2.787,13.211,2.815c0.68,0.173,1.048,0.234,1.404,0.234
		c0.262,0,0.475-0.036,0.68-0.071c0.182-0.03,0.387-0.065,0.717-0.095c0.08-0.007,0.156-0.011,0.228-0.011
		c0.085,0,0.143,0.006,0.18,0.012c0.028,0.084,0.073,0.287,0.073,0.704c0,0.291-0.015,0.563-0.051,0.829
		c-3.153,3.344-11.283,7.268-13.016,7.866c-2.188,0.757-3.049-0.075-3.682-0.775c-0.633-0.699,0.207-0.774-2.166-1.199
		c-1.787-0.319-11.242-2.192-15.818-3.101C4.979,11.339,5.196,11.135,5.247,11.092z M22.551,23.361
		c-0.213,0.058-0.403,0.082-0.572,0.082c-0.814,0-1.149-0.568-1.227-0.738c-0.094-0.207,1.012-0.488,0.731-0.619
		c-0.258-0.108-0.534-0.156-0.826-0.156c-0.771,0-1.658,0.33-2.622,0.737c-0.391,0.165-0.631,0.245-0.792,0.245
		c-0.387,0-0.313-0.461-0.764-1.295c-0.255-0.474-0.881-0.616-1.54-0.616c-0.983,0-2.039,0.317-2.039,0.317
		c-0.753,0.213-1.3,0.299-1.694,0.299c-1.574,0-0.686-1.367-0.686-1.367s-0.281,0.28-1.462,0.618
		c-0.166,0.048-0.298,0.068-0.402,0.068c-0.635,0-0.191-0.79,0.308-1.192c-0.543,0.206-3.835,1.185-5.078,1.405
		C3.768,21.17,3.67,21.18,3.59,21.18c-0.759,0,0.122-0.896,0.774-1.811c-0.31,0.22-0.856,0.399-1.337,0.399
		c-0.378,0-0.716-0.111-0.864-0.399c-0.337-0.656,2.324-1.725,2.324-1.725s-0.813,0.292-2.037,0.292
		c-0.128,0-0.262-0.003-0.399-0.011c-1.443-0.075-1.331-0.825-0.731-1.424c0.6-0.6,4.254-2.119,4.254-2.119l1.053,0.2l-3.809,1.966
		c-0.177,0.091-0.272,0.288-0.235,0.483s0.199,0.344,0.397,0.363c0.029,0.003,2.953,0.301,6.141,0.939
		c1.471,0.294,2.466,0.839,3.429,1.365c1.085,0.594,2.11,1.154,3.566,1.154c2.063,0,6.333,0.899,8.633,1.963
		C24.044,22.927,23.371,23.137,22.551,23.361z M26.723,22.967l-0.068,0.006c-1.651-1.652-7.997-3.018-10.539-3.018
		c-1.227,0-2.111-0.484-3.135-1.044c-0.975-0.533-2.079-1.137-3.685-1.458c-1.837-0.368-3.588-0.624-4.763-0.777l3.526-1.82
		l2.386,0.453c-0.069,0.021-0.142,0.032-0.208,0.058c-0.171,0.067-0.324,0.146-0.456,0.237c-0.059,0.041-0.078,0.119-0.043,0.182
		c0.035,0.062,0.11,0.088,0.176,0.061c0.144-0.062,0.288-0.11,0.427-0.145c0.148-0.034,0.292-0.057,0.431-0.064
		c0.275-0.023,0.548,0.008,0.775,0.078c0.114,0.035,0.211,0.079,0.288,0.131c0.078,0.051,0.135,0.106,0.169,0.167
		c0.031,0.056,0.043,0.115,0.036,0.178c-0.008,0.069-0.04,0.146-0.093,0.228c-0.057,0.088-0.126,0.163-0.209,0.226
		c-0.085,0.064-0.186,0.119-0.301,0.159c-0.219,0.076-0.497,0.102-0.757,0.077c-0.26-0.027-0.494-0.099-0.678-0.208
		c-0.094-0.055-0.169-0.118-0.225-0.188c-0.055-0.068-0.089-0.146-0.103-0.23c-0.006-0.037-0.034-0.068-0.065-0.09
		c-0.03-0.022-0.078-0.025-0.113-0.022c-0.056,0.011-0.099,0.053-0.111,0.107c-0.031,0.142-0.016,0.289,0.043,0.428
		c0.053,0.12,0.139,0.234,0.257,0.336c0.211,0.181,0.501,0.308,0.838,0.367c0.134,0.023,0.272,0.035,0.409,0.035
		c0.038,0,0.077-0.001,0.115-0.003c0.195-0.009,0.387-0.044,0.568-0.102c0.199-0.065,0.383-0.159,0.533-0.271
		c0.146-0.106,0.275-0.243,0.373-0.393c0.1-0.155,0.16-0.315,0.173-0.464c0.015-0.166-0.026-0.327-0.118-0.466
		c-0.001-0.002-0.003-0.002-0.004-0.004l2.8,0.531l2.579,0.947l5.721,1.136l2.51-0.03l0.178,0.034l0.1-0.036l2.13-0.025
		c-0.017,0.046-0.02,0.096,0.006,0.143c0.044,0.081,0.142,0.117,0.227,0.078c0.184-0.078,0.369-0.14,0.551-0.185
		c0.181-0.043,0.366-0.071,0.552-0.084c0.356-0.022,0.706,0.011,0.996,0.101c0.146,0.045,0.271,0.103,0.373,0.169
		c0.098,0.064,0.172,0.139,0.215,0.214c0.041,0.073,0.057,0.149,0.048,0.23c-0.011,0.088-0.052,0.187-0.12,0.293
		c-0.072,0.109-0.162,0.207-0.268,0.287c-0.113,0.086-0.243,0.155-0.389,0.206c-0.281,0.1-0.639,0.135-0.973,0.1
		s-0.636-0.127-0.872-0.267c-0.12-0.071-0.217-0.153-0.288-0.241c-0.071-0.089-0.116-0.189-0.133-0.296
		c-0.016-0.097-0.123-0.155-0.222-0.147c-0.074,0.011-0.134,0.066-0.149,0.14c-0.039,0.182-0.02,0.371,0.057,0.549
		c0.066,0.156,0.178,0.302,0.33,0.434c0.271,0.23,0.643,0.393,1.077,0.471c0.169,0.031,0.345,0.046,0.521,0.046
		c0.051,0,0.103-0.001,0.154-0.004c0.255-0.013,0.501-0.057,0.729-0.13c0.25-0.08,0.488-0.2,0.688-0.348
		c0.189-0.142,0.355-0.317,0.479-0.507c0.129-0.199,0.205-0.405,0.221-0.596c0.02-0.21-0.034-0.423-0.152-0.601
		c-0.105-0.158-0.258-0.293-0.454-0.403c-0.171-0.094-0.368-0.165-0.586-0.213c-0.179-0.04-0.372-0.056-0.566-0.062l6.149-4.349
		c0.122-0.008,0.329-0.02,0.572-0.02c1.116,0,1.454,0.22,1.49,0.202c-0.186,0.543-3.119,3.614-4.758,4.979
		C32.477,19.808,28.019,22.967,26.723,22.967z M43.54,14.59c-0.962,0.563-3.476,0.427-5.229,1.219
		c-1.161,0.524-0.093,1.067,0.844,1.255s2.192,0.037,1.78,0.506s-2.361,0.73-3.448,1.124c-1.087,0.395-1.706,0.825-0.919,1.013
		c0.787,0.187,1.969,0.601,1.219,1.368c-0.459,0.47-1.338,0.639-2.242,0.639c-0.574,0-1.161-0.068-1.656-0.17
		c-0.176-0.036-0.35-0.053-0.52-0.053c-1.064,0-1.938,0.65-1.598,1.233c0.268,0.458-0.09,0.735-0.753,0.735
		c-0.312,0-0.69-0.061-1.103-0.192c-0.396-0.127-0.71-0.183-0.979-0.198c2.253-1.201,5.102-3.392,5.732-3.917
		c0.699-0.583,5.096-4.665,5.072-5.616c-0.019-0.768-0.819-1.155-2.381-1.155c-0.026,0-0.049,0.001-0.074,0.001l2.367-1.944
		c0,0,1.132,0.184,2.367,0.274c1.236,0.091,2.455,1.105,1.762,1.199s-1.893,0.169-1.893,0.6s1.144,0.75,1.78,0.969
		C44.309,13.697,44.215,14.196,43.54,14.59z"/>
	<g>
		
			<use xlink:href="#New_Symbol"  width="29.561" height="14.574" x="-14.78" y="-7.287" transform="matrix(0.048 0 0 -0.0512 27.6465 7.8145)" overflow="visible"/>
		
			<use xlink:href="#New_Symbol"  width="29.561" height="14.574" x="-14.78" y="-7.287" transform="matrix(0.0956 0 0 -0.1019 9.3447 10.7656)" overflow="visible"/>
		
			<use xlink:href="#New_Symbol"  width="29.561" height="14.574" x="-14.78" y="-7.287" transform="matrix(0.0633 0 0 -0.0675 18.5576 10.7021)" overflow="visible"/>
		
			<use xlink:href="#New_Symbol"  width="29.561" height="14.574" x="-14.78" y="-7.287" transform="matrix(0.0794 0 0 -0.0846 34.8594 9.0977)" overflow="visible"/>
		
			<use xlink:href="#New_Symbol"  width="29.561" height="14.574" x="-14.78" y="-7.287" transform="matrix(0.0597 0 0 -0.0635 22.1196 7.8945)" overflow="visible"/>
		
			<use xlink:href="#New_Symbol"  width="29.561" height="14.574" x="-14.78" y="-7.287" transform="matrix(0.0483 0 0 -0.0514 24.9238 15.5039)" overflow="visible"/>
		
			<use xlink:href="#New_Symbol"  width="29.561" height="14.574" x="-14.78" y="-7.287" transform="matrix(0.0673 0 0 -0.0718 33.2188 11.0771)" overflow="visible"/>
		
			<use xlink:href="#New_Symbol"  width="29.561" height="14.574" x="-14.78" y="-7.287" transform="matrix(0.0552 0 0 -0.0588 13.7954 7.3857)" overflow="visible"/>
		
			<use xlink:href="#New_Symbol"  width="29.561" height="14.574" x="-14.78" y="-7.287" transform="matrix(0.0552 0 0 -0.0588 30.5635 8.5723)" overflow="visible"/>
		
			<use xlink:href="#New_Symbol"  width="29.561" height="14.574" x="-14.78" y="-7.287" transform="matrix(0.0695 0 0 -0.074 17.6763 5.9004)" overflow="visible"/>
		
			<use xlink:href="#New_Symbol"  width="29.561" height="14.574" x="-14.78" y="-7.287" transform="matrix(0.0486 0 0 -0.0518 23.7168 12.2334)" overflow="visible"/>
		
			<use xlink:href="#New_Symbol"  width="29.561" height="14.574" x="-14.78" y="-7.287" transform="matrix(0.0553 0 0 -0.0589 28.2539 13.8506)" overflow="visible"/>
		
			<use xlink:href="#New_Symbol"  width="29.561" height="14.574" x="-14.78" y="-7.287" transform="matrix(0.05 0 0 -0.0532 25.6602 13.6641)" overflow="visible"/>
		
			<use xlink:href="#New_Symbol"  width="29.561" height="14.574" x="-14.78" y="-7.287" transform="matrix(0.0653 0 0 -0.0696 21.0195 12.6426)" overflow="visible"/>
		
			<use xlink:href="#New_Symbol"  width="29.561" height="14.574" x="-14.78" y="-7.287" transform="matrix(0.0653 0 0 -0.0696 18.4941 8.2422)" overflow="visible"/>
		
			<use xlink:href="#New_Symbol"  width="29.561" height="14.574" x="-14.78" y="-7.287" transform="matrix(0.0728 0 0 -0.0776 14.8716 9.2031)" overflow="visible"/>
		
			<use xlink:href="#New_Symbol"  width="29.561" height="14.574" x="-14.78" y="-7.287" transform="matrix(0.0516 0 0 -0.055 13.6846 11.0742)" overflow="visible"/>
		
			<use xlink:href="#New_Symbol"  width="29.561" height="14.574" x="-14.78" y="-7.287" transform="matrix(0.0884 0 0 -0.0943 31.1123 13.208)" overflow="visible"/>
		
			<use xlink:href="#New_Symbol"  width="29.561" height="14.574" x="-14.78" y="-7.287" transform="matrix(0.0568 0 0 -0.0606 28.4824 10.7002)" overflow="visible"/>
		
			<use xlink:href="#New_Symbol"  width="29.561" height="14.574" x="-14.78" y="-7.287" transform="matrix(0.0448 0 0 -0.0477 22.002 5.5762)" overflow="visible"/>
		
			<use xlink:href="#New_Symbol"  width="29.561" height="14.574" x="-14.78" y="-7.287" transform="matrix(0.05 0 0 -0.0533 26.293 6.3125)" overflow="visible"/>
		
			<use xlink:href="#New_Symbol"  width="29.561" height="14.574" x="-14.78" y="-7.287" transform="matrix(0.0602 0 0 -0.0641 16.0376 11.5986)" overflow="visible"/>
		
			<use xlink:href="#New_Symbol"  width="29.561" height="14.574" x="-14.78" y="-7.287" transform="matrix(0.0604 0 0 -0.0644 24.7031 9.5664)" overflow="visible"/>
	</g>
</g>
</svg>
