<?xml version="1.0" encoding="utf-8"?>
<!-- Generator: Adobe Illustrator 16.0.0, SVG Export Plug-In . SVG Version: 6.00 Build 0)  -->
<!DOCTYPE svg PUBLIC "-//W3C//DTD SVG 1.1//EN" "http://www.w3.org/Graphics/SVG/1.1/DTD/svg11.dtd">
<svg version="1.1" id="Layer_1" xmlns="http://www.w3.org/2000/svg" xmlns:xlink="http://www.w3.org/1999/xlink" x="0px" y="0px"
	 width="35px" height="35px" viewBox="0 0 35 35" enable-background="new 0 0 35 35" xml:space="preserve">
<g>
	<path fill="#553E31" d="M17.5,35C7.851,35,0,27.149,0,17.5S7.851,0,17.5,0S35,7.851,35,17.5S27.149,35,17.5,35z"/>
	<path fill="#FFFCF5" d="M17.5,1C8.402,1,1,8.402,1,17.5S8.402,34,17.5,34S34,26.598,34,17.5S26.598,1,17.5,1z"/>
	<path fill="#CDB8AB" d="M34,17.5C34,8.402,26.598,1,17.5,1v33C26.598,34,34,26.598,34,17.5z"/>
	<g>
		<path fill="#CDB8AB" d="M16.719,30.395c0,1.112,0.351,2.014,0.781,2.014v-4.026C17.069,28.382,16.719,29.283,16.719,30.395z"/>
		<path fill="#FFFCF5" d="M18.281,30.395c0-1.111-0.351-2.013-0.781-2.013v4.026C17.931,32.408,18.281,31.507,18.281,30.395z"/>
	</g>
	<g>
		<path fill="#FFFCF5" d="M23.271,29.058c0.557,0.963,1.311,1.568,1.684,1.354l-2.013-3.487
			C22.568,27.14,22.715,28.096,23.271,29.058z"/>
		<path fill="#FFFCF5" d="M24.624,28.276c-0.556-0.962-1.311-1.567-1.683-1.353l2.013,3.487
			C25.327,30.195,25.18,29.239,24.624,28.276z"/>
	</g>
	<g>
		<path fill="#FFFCF5" d="M28.276,24.624c0.964,0.556,1.919,0.703,2.135,0.33l-3.486-2.014
			C26.709,23.314,27.314,24.068,28.276,24.624z"/>
		<path fill="#FFFCF5" d="M29.058,23.271c-0.962-0.555-1.919-0.702-2.133-0.33l3.486,2.014
			C30.626,24.581,30.021,23.827,29.058,23.271z"/>
	</g>
	<g>
		<path fill="#FFFCF5" d="M30.395,18.281c1.112-0.001,2.014-0.351,2.014-0.781l-4.025-0.001
			C28.383,17.931,29.284,18.281,30.395,18.281z"/>
		<path fill="#FFFCF5" d="M30.395,16.719c-1.11,0.001-2.013,0.352-2.012,0.78l4.025,0.001C32.408,17.069,31.507,16.72,30.395,16.719
			z"/>
	</g>
	<g>
		<path fill="#FFFCF5" d="M29.058,11.729c0.963-0.557,1.568-1.311,1.354-1.684l-3.486,2.012
			C27.141,12.432,28.096,12.284,29.058,11.729z"/>
		<path fill="#FFFCF5" d="M28.276,10.376c-0.961,0.557-1.567,1.312-1.352,1.682l3.486-2.012C30.195,9.673,29.24,9.821,28.276,10.376
			z"/>
	</g>
	<g>
		<path fill="#FFFCF5" d="M24.624,6.724c0.556-0.963,0.703-1.919,0.33-2.135l-2.013,3.485C23.314,8.29,24.068,7.686,24.624,6.724z"
			/>
		<path fill="#FFFCF5" d="M23.271,5.942c-0.554,0.963-0.701,1.919-0.329,2.132l2.013-3.485C24.581,4.374,23.828,4.98,23.271,5.942z"
			/>
	</g>
	<g>
		<path fill="#FFFCF5" d="M18.281,4.605c0-1.111-0.351-2.014-0.781-2.014v4.024C17.931,6.617,18.281,5.717,18.281,4.605z"/>
		<path fill="#CDB8AB" d="M16.719,4.605c0.002,1.111,0.353,2.013,0.781,2.011V2.592C17.069,2.592,16.721,3.494,16.719,4.605z"/>
	</g>
	<g>
		<path fill="#CDB8AB" d="M11.729,5.942c-0.556-0.962-1.311-1.568-1.684-1.354l2.013,3.485C12.432,7.86,12.285,6.905,11.729,5.942z"
			/>
		<path fill="#CDB8AB" d="M10.376,6.724c0.558,0.962,1.312,1.566,1.683,1.351l-2.013-3.485C9.673,4.805,9.822,5.761,10.376,6.724z"
			/>
	</g>
	<g>
		<path fill="#CDB8AB" d="M6.724,10.376c-0.962-0.555-1.919-0.703-2.135-0.33l3.486,2.012C8.291,11.687,7.687,10.933,6.724,10.376z"
			/>
		<path fill="#CDB8AB" d="M5.942,11.729c0.964,0.555,1.919,0.701,2.133,0.328l-3.486-2.012C4.374,10.419,4.981,11.173,5.942,11.729z
			"/>
	</g>
	<g>
		<path fill="#CDB8AB" d="M4.605,16.719c-1.11,0.001-2.014,0.351-2.014,0.781l4.025-0.001C6.618,17.07,5.718,16.72,4.605,16.719z"/>
		<path fill="#CDB8AB" d="M4.605,18.281c1.112-0.001,2.013-0.352,2.012-0.782L2.592,17.5C2.592,17.931,3.495,18.28,4.605,18.281z"/>
	</g>
	<g>
		<path fill="#CDB8AB" d="M5.942,23.271c-0.961,0.557-1.568,1.311-1.354,1.684l3.486-2.014C7.861,22.569,6.906,22.716,5.942,23.271z
			"/>
		<path fill="#CDB8AB" d="M6.724,24.624c0.963-0.557,1.567-1.311,1.352-1.684l-3.486,2.014C4.805,25.327,5.762,25.179,6.724,24.624z
			"/>
	</g>
	<g>
		<path fill="#CDB8AB" d="M10.376,28.276c-0.554,0.963-0.703,1.919-0.33,2.135l2.013-3.487
			C11.688,26.71,10.934,27.314,10.376,28.276z"/>
		<path fill="#CDB8AB" d="M11.729,29.058c0.556-0.963,0.702-1.918,0.329-2.134l-2.013,3.487
			C10.419,30.626,11.174,30.02,11.729,29.058z"/>
	</g>
</g>
</svg>
