<?xml version="1.0" encoding="utf-8"?>
<!-- Generator: Adobe Illustrator 16.0.0, SVG Export Plug-In . SVG Version: 6.00 Build 0)  -->
<!DOCTYPE svg PUBLIC "-//W3C//DTD SVG 1.1//EN" "http://www.w3.org/Graphics/SVG/1.1/DTD/svg11.dtd">
<svg version="1.1" id="Layer_1" xmlns="http://www.w3.org/2000/svg" xmlns:xlink="http://www.w3.org/1999/xlink" x="0px" y="0px"
	 width="32px" height="32px" viewBox="0 0 32 32" enable-background="new 0 0 32 32" xml:space="preserve">
<g>
	
		<path fill="#CDB8AB" stroke="#553E31" stroke-width="1.6829" stroke-linecap="round" stroke-linejoin="round" stroke-miterlimit="10" d="
		M31.25,7.796c0,10.608-6.828,19.209-15.25,19.209c-8.424,0-15.25-8.601-15.25-19.209"/>
	
		<ellipse fill="#EBE0D5" stroke="#553E31" stroke-width="1.6829" stroke-linecap="round" stroke-linejoin="round" stroke-miterlimit="10" cx="16" cy="7.587" rx="15.25" ry="4.529"/>
</g>
<g>
	<path fill="#553E31" d="M19.189,22.728v1.784h-6.733c0.073-0.674,0.292-1.313,0.656-1.917s1.084-1.405,2.16-2.403
		c0.866-0.807,1.397-1.354,1.593-1.641c0.264-0.396,0.396-0.789,0.396-1.176c0-0.428-0.115-0.758-0.345-0.988
		s-0.548-0.345-0.954-0.345c-0.401,0-0.72,0.121-0.957,0.362s-0.374,0.643-0.41,1.203l-1.914-0.191
		c0.114-1.057,0.472-1.816,1.073-2.276s1.354-0.69,2.256-0.69c0.989,0,1.766,0.267,2.331,0.8s0.848,1.196,0.848,1.989
		c0,0.451-0.081,0.881-0.243,1.289s-0.418,0.835-0.769,1.282c-0.232,0.296-0.652,0.722-1.258,1.278s-0.99,0.925-1.152,1.107
		s-0.293,0.36-0.393,0.533H19.189z"/>
</g>
</svg>
