<?xml version="1.0" encoding="utf-8"?>
<!-- Generator: Adobe Illustrator 16.0.0, SVG Export Plug-In . SVG Version: 6.00 Build 0)  -->
<!DOCTYPE svg PUBLIC "-//W3C//DTD SVG 1.1//EN" "http://www.w3.org/Graphics/SVG/1.1/DTD/svg11.dtd">
<svg version="1.1" xmlns="http://www.w3.org/2000/svg" xmlns:xlink="http://www.w3.org/1999/xlink" x="0px" y="0px" width="32px"
	 height="32px" viewBox="0 0 32 32" enable-background="new 0 0 32 32" xml:space="preserve">
<g id="Layer_1">
	<g>
		
			<ellipse transform="matrix(0.998 -0.0632 0.0632 0.998 -1.015 1.0436)" fill="#EBE0D5" stroke="#553E31" stroke-miterlimit="10" cx="16" cy="16.578" rx="15.525" ry="6.806"/>
		
			<ellipse transform="matrix(0.9988 -0.0488 0.0488 0.9988 -0.7243 0.7893)" fill="#CDB8AB" stroke="#553E31" stroke-miterlimit="10" cx="15.803" cy="15.229" rx="15.049" ry="6.367"/>
		<path fill="#EBE0D5" stroke="#553E31" stroke-miterlimit="10" d="M19.83,12.736c0.051,1.039-1.972,1.98-4.518,2.105
			c-2.545,0.125-4.647-0.615-4.698-1.654c-0.05-1.037,1.973-1.98,4.516-2.102C17.675,10.959,19.78,11.701,19.83,12.736z"/>
		<path fill="#553E31" d="M19.473,9.291c0.127,1.279-1.638,2.5-3.941,2.732c-2.306,0.23-4.277-0.617-4.404-1.896
			C11.001,8.854,12.765,7.631,15.07,7.4C17.374,7.168,19.347,8.016,19.473,9.291z"/>
		
			<ellipse transform="matrix(0.995 -0.0996 0.0996 0.995 -1.1241 1.5835)" fill="#553E31" cx="15.299" cy="12.052" rx="2.971" ry="1.373"/>
	</g>
</g>
<g id="Layer_3">
</g>
</svg>
