<?xml version="1.0" encoding="utf-8"?>
<!-- Generator: Adobe Illustrator 16.0.0, SVG Export Plug-In . SVG Version: 6.00 Build 0)  -->
<!DOCTYPE svg PUBLIC "-//W3C//DTD SVG 1.1//EN" "http://www.w3.org/Graphics/SVG/1.1/DTD/svg11.dtd">
<svg version="1.1" xmlns="http://www.w3.org/2000/svg" xmlns:xlink="http://www.w3.org/1999/xlink" x="0px" y="0px" width="32px"
	 height="32px" viewBox="0 0 32 32" enable-background="new 0 0 32 32" xml:space="preserve">
<g id="Layer_1">
	<g>
		<defs>
			<rect id="SVGID_9_" width="32" height="32"/>
		</defs>
		<clipPath id="SVGID_2_">
			<use xlink:href="#SVGID_9_"  overflow="visible"/>
		</clipPath>
		<g clip-path="url(#SVGID_2_)">
			<g>
				<path fill="#EBE0D5" d="M4.319,32.5c-0.171,0-0.33-0.087-0.422-0.231c-0.092-0.144-0.104-0.325-0.031-0.479
					c1.573-3.379,3.239-7.17,3.305-7.667c0.064-0.674-0.59-3.868-1.025-5.227c-0.406-1.265-1.101-5.316-0.747-6.788
					c0.2-0.827,0.284-1.85,0.352-2.671c0.035-0.421,0.065-0.792,0.104-1.063c0.171-1.183,0.852-1.36,1.242-1.36
					c0.052,0,0.104,0.003,0.157,0.009c0.489,0.05,1.133,0.31,1.467,0.891c0.297,0.514,0.57,1.98,0.608,2.717
					c0.039,0.764,0.221,1.393,0.473,1.642c0.299,0.295,0.409,0.344,0.442,0.352c0.081-0.192,0.402-0.727,0.713-1.243
					c0.428-0.712,0.871-1.448,1.106-1.741l0.106-0.131c0.332-0.41,0.62-0.765,0.943-1.556c0.941-2.294,2.581-6.223,2.993-6.754
					c0.33-0.424,0.875-0.698,1.388-0.698c0.586,0,1.251,0.371,1.362,1.412c0.054,0.517-0.152,1.256-0.407,2.098l-0.092,0.31
					c-0.045,0.153-0.208,0.58-0.424,1.142c-0.197,0.511-0.549,1.424-0.858,2.295c0.572-1.028,1.195-2.227,1.561-2.929
					c0.361-0.696,0.642-1.234,0.754-1.415c0.852-1.363,1.291-1.985,1.569-2.218c0.208-0.176,0.648-0.368,1.12-0.368
					c0.39,0,0.717,0.135,0.945,0.389c0.266,0.296,0.37,0.723,0.311,1.269c-0.111,1.006-1.481,4.06-1.896,4.846
					c-0.117,0.222-0.346,0.607-0.615,1.061c-0.134,0.224-0.305,0.513-0.485,0.823c0.909-1.083,1.892-2.336,2.205-2.786
					c0.403-0.578,1.647-1.875,2.196-2.075c0.127-0.046,0.28-0.07,0.443-0.07c0.502,0,0.964,0.204,1.234,0.545
					c0.172,0.217,0.35,0.594,0.217,1.154c-0.276,1.168-1.966,3.334-2.593,4.07l-0.424,0.485c-0.414,0.473-1.391,1.587-2.048,2.41
					c0.185-0.111,0.389-0.245,0.604-0.402c0.59-0.431,1.717-1.206,3.349-2.305c0.301-0.202,0.61-0.304,0.92-0.304
					c0.554,0,0.943,0.327,1.107,0.607c0.287,0.484,0.322,1.229-0.44,1.864c-0.218,0.182-0.775,0.633-1.418,1.154
					c-1.069,0.866-2.377,1.926-2.739,2.24l-0.219,0.185c-0.57,0.478-1.28,1.073-1.782,2.212c-0.185,0.417-0.367,0.889-0.558,1.377
					c-0.469,1.207-0.954,2.455-1.59,3.323c-0.777,1.065-1.755,2.278-3.562,3.28c-0.145,1.135-0.661,5.092-0.965,5.982
					c-0.069,0.203-0.26,0.339-0.474,0.339H4.319z"/>
				<path fill="#553E31" d="M17.494,1c0.412,0,0.79,0.263,0.865,0.965c0.057,0.543-0.308,1.611-0.482,2.215s-2.29,5.627-1.84,5.892
					c0.01,0.006,0.021,0.009,0.033,0.009c0.542,0,3.327-5.735,3.744-6.404c0.427-0.684,1.155-1.839,1.466-2.1
					c0.133-0.113,0.471-0.25,0.799-0.25c0.435,0,0.853,0.242,0.759,1.104c-0.098,0.885-1.396,3.821-1.842,4.667
					c-0.444,0.844-2.541,4.096-2.227,4.364c0.009,0.008,0.021,0.012,0.036,0.012c0.479,0,3.753-4.192,4.147-4.758
					c0.407-0.583,1.569-1.75,1.957-1.891c0.071-0.026,0.166-0.04,0.272-0.04c0.469,0,1.154,0.281,0.965,1.085
					c-0.233,0.986-1.752,2.998-2.487,3.86c-0.566,0.663-3.425,3.833-3.205,4.065c0.04,0.042,0.104,0.062,0.187,0.062
					c0.372,0,1.13-0.397,1.827-0.906c0.854-0.624,2.675-1.851,3.333-2.293c0.236-0.159,0.453-0.219,0.641-0.219
					c0.335,0,0.578,0.192,0.677,0.36c0.154,0.261,0.251,0.744-0.329,1.226c-0.582,0.483-3.584,2.897-4.165,3.399
					c-0.582,0.502-1.512,1.167-2.132,2.574c-0.621,1.408-1.24,3.44-2.093,4.606c-0.852,1.167-1.821,2.313-3.622,3.258
					c0,0-0.646,5.175-0.975,6.139H4.319c0,0,3.271-7.022,3.349-7.827c0.077-0.805-0.621-4.104-1.047-5.431
					c-0.426-1.328-1.046-5.23-0.736-6.518c0.311-1.287,0.35-2.976,0.465-3.781c0.105-0.731,0.403-0.931,0.747-0.931
					c0.035,0,0.07,0.002,0.105,0.006C7.59,7.559,8.056,7.76,8.287,8.162c0.232,0.402,0.504,1.75,0.543,2.494
					c0.038,0.745,0.213,1.569,0.62,1.971c0.268,0.265,0.535,0.495,0.781,0.495c0.127,0,0.248-0.062,0.36-0.213
					c0.331-0.442,1.473-2.474,1.861-2.957c0.388-0.482,0.736-0.865,1.123-1.811c0.388-0.945,2.507-6.097,2.926-6.637
					C16.73,1.21,17.126,1,17.494,1 M17.494,0c-0.672,0-1.354,0.341-1.781,0.89c-0.129,0.166-0.517,0.666-3.062,6.872
					c-0.297,0.724-0.55,1.036-0.87,1.43l-0.107,0.133c-0.239,0.297-0.608,0.904-1.146,1.796c-0.145,0.241-0.299,0.498-0.433,0.714
					c-0.104-0.182-0.234-0.598-0.267-1.232c-0.036-0.682-0.3-2.292-0.677-2.943C8.79,7.031,8.099,6.605,7.304,6.524
					C7.235,6.517,7.166,6.513,7.097,6.513c-0.444,0-1.504,0.174-1.736,1.788C5.319,8.582,5.287,8.962,5.252,9.396
					C5.186,10.2,5.103,11.201,4.913,11.99c-0.389,1.615,0.352,5.796,0.756,7.058c0.437,1.36,1.056,4.463,1.004,5.029
					c-0.113,0.547-1.748,4.255-3.26,7.501c-0.145,0.31-0.121,0.671,0.063,0.959C3.66,32.825,3.978,33,4.319,33h9.484
					c0.428,0,0.809-0.272,0.946-0.677c0.301-0.88,0.769-4.365,0.957-5.833c1.753-1.024,2.724-2.232,3.501-3.297
					c0.674-0.921,1.171-2.2,1.652-3.438c0.19-0.49,0.37-0.953,0.548-1.355c0.455-1.033,1.116-1.586,1.646-2.031l0.224-0.189
					c0.353-0.305,1.67-1.372,2.729-2.23c0.645-0.522,1.203-0.975,1.422-1.157c1.006-0.837,0.926-1.872,0.551-2.505
					c-0.304-0.516-0.907-0.851-1.537-0.851c-0.411,0-0.813,0.131-1.198,0.389c-0.293,0.197-0.57,0.384-0.831,0.561
					c0.003-0.003,0.005-0.005,0.008-0.008c0.023-0.028,2.339-2.756,2.699-4.279c0.14-0.59,0.029-1.151-0.312-1.581
					c-0.364-0.46-0.972-0.735-1.626-0.735c-0.224,0-0.43,0.034-0.613,0.1c-0.438,0.159-1.075,0.733-1.598,1.28
					c0.416-1.006,0.798-2.057,0.86-2.623c0.075-0.694-0.071-1.251-0.436-1.658c-0.321-0.358-0.789-0.556-1.317-0.556
					c-0.52,0-1.101,0.196-1.444,0.487c-0.281,0.236-0.642,0.718-1.309,1.763c0.038-0.258,0.051-0.496,0.028-0.714
					C19.207,0.487,18.26,0,17.494,0L17.494,0z"/>
			</g>
			<path fill="#EBE0D5" stroke="#CDB8AB" stroke-linecap="round" stroke-linejoin="round" stroke-miterlimit="10" d="M12.686,12.949
				c0,0,0.717,0.604,1.24,1.448c0.522,0.845,1.976,3.983,2.248,6.115"/>
			<path fill="#EBE0D5" stroke="#CDB8AB" stroke-linecap="round" stroke-linejoin="round" stroke-miterlimit="10" d="M14.37,11.562
				c0,0,1.337,3.801,4.495,5.692"/>
			<path fill="#EBE0D5" stroke="#CDB8AB" stroke-linecap="round" stroke-linejoin="round" stroke-miterlimit="10" d="M10.776,13.443
				c0,0,0.909,1.051,1.309,2.945"/>
			<path fill="#EBE0D5" stroke="#CDB8AB" stroke-linecap="round" stroke-linejoin="round" stroke-miterlimit="10" d="M8.213,24.441
				c0,0,1.935,0.576,3.93-1.175"/>
		</g>
	</g>
</g>
<g id="Layer_3">
</g>
</svg>
