<?xml version="1.0" encoding="utf-8"?>
<!-- Generator: Adobe Illustrator 16.0.0, SVG Export Plug-In . SVG Version: 6.00 Build 0)  -->
<!DOCTYPE svg PUBLIC "-//W3C//DTD SVG 1.1//EN" "http://www.w3.org/Graphics/SVG/1.1/DTD/svg11.dtd">
<svg version="1.1" xmlns="http://www.w3.org/2000/svg" xmlns:xlink="http://www.w3.org/1999/xlink" x="0px" y="0px" width="32px"
	 height="32px" viewBox="0 0 32 32" enable-background="new 0 0 32 32" xml:space="preserve">
<g id="Layer_1">
	<g>
		
			<path fill="#CDB8AB" stroke="#553E31" stroke-width="0.7577" stroke-linecap="round" stroke-linejoin="round" stroke-miterlimit="10" d="
			M5.341,26.134c0.194-1.177,0.057-2.755-0.237-3.924c-0.293-1.168-0.891-5.312-0.704-6.352c0.191-1.038,0.87-3.969,0.712-4.38
			c-0.163-0.406-0.6-0.338-1.228,0.146c-0.626,0.488-0.77,0.75-1.266,1.038c-0.496,0.281-0.705,0.758-0.923,1.358
			c-0.219,0.599-0.636,1.55-0.763,2.095c-0.123,0.542-0.402-0.562-0.444-1.063c-0.04-0.507-0.252-2.721,0.08-3.276
			c0.331-0.554,0.391-0.928,0.438-1.657c0.05-0.733-0.495-1.772,0.122-2.292c0.621-0.52,1.738-0.318,2.605-0.041
			c0.866,0.283,2.253,0.855,3.278,0.758c1.028-0.101,1.699-0.7,2.351-0.919c0.65-0.22,1.233,0.368,1.698,1.048
			c0.466,0.682,0.796,1.223,0.86,1.824c0.063,0.604-3.119,10.247-3.119,10.247L5.341,26.134z"/>
		
			<path fill="none" stroke="#553E31" stroke-width="0.5412" stroke-linecap="round" stroke-linejoin="round" stroke-miterlimit="10" d="
			M6.382,8.529c0.407,0.421,0.992,1.644,1.143,2.328"/>
		
			<path fill="none" stroke="#553E31" stroke-width="0.7577" stroke-linecap="round" stroke-linejoin="round" stroke-miterlimit="10" d="
			M5.111,11.479C4.943,10.56,4.646,7.854,3.323,7.714"/>
		
			<path fill="none" stroke="#553E31" stroke-width="0.5412" stroke-linecap="round" stroke-linejoin="round" stroke-miterlimit="10" d="
			M8.725,13.116c-0.035-0.472-0.079-2.722-0.134-3.293C8.533,9.253,7.888,8.71,7.348,8.489"/>
		<path fill="#553E31" d="M9.501,26.308c-0.162-0.01-0.314-0.058-0.453-0.145c-0.312-0.201-0.537-0.325-0.695-0.407
			c-0.228,0.264-0.517,0.4-0.826,0.385c-0.138-0.007-0.271-0.046-0.393-0.111c-0.688-0.361-0.957-0.45-1.055-0.468
			c-0.286-0.054-0.515-0.232-0.632-0.485c-0.183-0.41-0.017-0.822,0.175-1.178c-0.305-0.169-0.434-0.217-0.482-0.229
			c-0.28-0.076-0.498-0.271-0.593-0.534c-0.188-0.505,0.127-0.977,0.381-1.36c0.051-0.077,0.109-0.143,0.18-0.197
			c-0.007-0.021-0.011-0.041-0.018-0.062c-0.137-0.524,0.229-0.974,0.521-1.339c0.018-0.022,0.038-0.048,0.06-0.069
			c-0.1-0.458,0.18-0.896,0.408-1.259c0.072-0.111,0.167-0.203,0.275-0.27c-0.06-0.436,0.192-0.873,0.403-1.237
			c0.021-0.041,0.051-0.082,0.086-0.125c-0.042-0.069-0.075-0.144-0.098-0.224c-0.165-0.58,0.269-1.145,0.616-1.594
			c0.005-0.009,0.013-0.016,0.019-0.022c-0.095-0.532,0.256-1.084,0.545-1.534c0.041-0.066,0.118-0.17,0.24-0.261
			c-0.009-0.476,0.292-0.959,0.546-1.361c0.041-0.071,0.145-0.21,0.325-0.313c0.007-0.463,0.332-0.946,0.604-1.348
			c0.068-0.102,0.184-0.222,0.359-0.305c0.051-0.367,0.252-0.74,0.474-1.118c0.063-0.104,0.216-0.313,0.503-0.41
			c0.034-0.462,0.339-0.886,0.597-1.242c0.107-0.151,0.253-0.261,0.424-0.321c0.066-0.405,0.337-0.785,0.546-1.08
			c0.111-0.154,0.264-0.27,0.436-0.33c0.061-0.405,0.349-0.779,0.594-1.092c0.126-0.169,0.306-0.283,0.508-0.33
			c0.086-0.288,0.252-0.556,0.385-0.767c0.158-0.254,0.428-0.405,0.733-0.419c0.081-0.293,0.254-0.562,0.385-0.761
			c0.163-0.253,0.441-0.4,0.75-0.397c0.069-0.22,0.187-0.43,0.307-0.633c0.168-0.279,0.474-0.438,0.816-0.421
			c0.019,0.002,0.038,0.001,0.058,0.004c0.074-0.223,0.203-0.418,0.304-0.571c0.169-0.247,0.447-0.383,0.745-0.365
			c0.309,0.016,0.589,0.186,0.863,0.351c0.055,0.032,0.158,0.096,0.237,0.138c0.167-0.193,0.415-0.301,0.682-0.286
			c0.308,0.017,0.586,0.185,0.862,0.348c0.208,0.13,0.287,0.168,0.317,0.178c0.447,0.115,0.709,0.545,0.633,1.045
			c-0.024,0.156-0.082,0.311-0.164,0.454c0.089,0.046,0.172,0.095,0.252,0.145c0.065,0.04,0.253,0.155,0.313,0.175
			c0.446,0.114,0.709,0.546,0.633,1.045c-0.036,0.238-0.168,0.529-0.384,0.745c0.067,0.166,0.092,0.355,0.067,0.555
			c-0.042,0.345-0.241,0.738-0.555,0.977c0.05,0.155,0.063,0.325,0.039,0.502c-0.059,0.393-0.278,0.76-0.575,0.985
			c0.036,0.141,0.043,0.293,0.021,0.447c-0.057,0.436-0.299,0.829-0.621,1.062c0.055,0.177,0.067,0.371,0.028,0.576
			c-0.075,0.395-0.306,0.771-0.605,1.015c0.035,0.153,0.041,0.32,0.012,0.492c-0.063,0.367-0.299,0.813-0.653,1.09
			c0.039,0.161,0.045,0.333,0.015,0.515c-0.063,0.362-0.293,0.829-0.662,1.128c0.019,0.116,0.021,0.234,0.006,0.356
			c-0.061,0.498-0.37,1.063-0.822,1.334c0.017,0.117,0.012,0.236-0.006,0.359c-0.078,0.485-0.4,1.06-0.876,1.327
			c0,0.063-0.003,0.126-0.013,0.187c-0.073,0.563-0.457,1.186-0.988,1.415c-0.002,0.043-0.006,0.086-0.013,0.128
			c-0.083,0.589-0.539,1.354-1.219,1.486c-0.005,0.035-0.01,0.069-0.017,0.104c-0.112,0.585-0.663,1.375-1.415,1.369
			c-0.162,0.509-0.576,0.962-1.087,1.003c-0.086,0.555-0.515,1.12-1.061,1.206c-0.005,0.033-0.013,0.07-0.018,0.103
			c-0.105,0.517-0.541,1.045-1.069,1.141C10.594,25.776,10.095,26.339,9.501,26.308z"/>
		<path fill="#553E31" d="M22.845,3.539c0.05-0.318-0.104-0.58-0.381-0.652c-0.089-0.025-0.259-0.127-0.396-0.21
			c-0.239-0.142-0.463-0.273-0.681-0.295c0.232-0.148,0.39-0.43,0.424-0.662c0.049-0.316-0.104-0.581-0.381-0.65
			c-0.091-0.025-0.264-0.13-0.402-0.211c-0.248-0.15-0.481-0.292-0.703-0.304c-0.181-0.01-0.339,0.069-0.437,0.213
			c-0.034,0.054-0.07,0.108-0.106,0.165c-0.04-0.026-0.084-0.052-0.133-0.063c-0.09-0.026-0.262-0.128-0.399-0.211
			c-0.25-0.151-0.483-0.293-0.707-0.305c-0.181-0.011-0.338,0.066-0.435,0.209c-0.173,0.259-0.354,0.547-0.29,0.824
			c-0.134-0.056-0.262-0.095-0.382-0.101C17.22,1.274,17.04,1.368,16.938,1.54c-0.168,0.278-0.341,0.591-0.314,0.877
			c-0.088-0.031-0.179-0.073-0.261-0.076c-0.206-0.011-0.385,0.076-0.491,0.238c-0.204,0.316-0.42,0.665-0.361,0.986
			c-0.079-0.025-0.162-0.064-0.236-0.067c-0.22-0.013-0.408,0.082-0.517,0.255c-0.183,0.294-0.381,0.621-0.385,0.918
			c-0.017-0.001-0.035-0.009-0.051-0.009c-0.193-0.01-0.364,0.067-0.479,0.216c-0.285,0.37-0.61,0.789-0.506,1.175h-0.001
			c-0.213-0.01-0.394,0.074-0.511,0.238c-0.267,0.374-0.552,0.793-0.492,1.166c-0.196,0.002-0.367,0.08-0.479,0.233
			c-0.306,0.427-0.65,0.904-0.52,1.31c0.002,0.012,0.013,0.018,0.017,0.027c-0.343-0.014-0.51,0.175-0.577,0.292
			c-0.235,0.397-0.474,0.833-0.431,1.203c-0.17,0.025-0.317,0.093-0.415,0.234c-0.306,0.454-0.649,0.96-0.503,1.374
			c0.001,0.004,0.006,0.006,0.008,0.009c-0.235,0.037-0.368,0.173-0.428,0.269c-0.285,0.451-0.599,0.967-0.453,1.373
			c-0.179,0.053-0.281,0.167-0.334,0.25c-0.292,0.459-0.627,0.979-0.464,1.395c0.011,0.024,0.033,0.04,0.045,0.06
			c-0.06,0.037-0.118,0.072-0.161,0.129c-0.316,0.409-0.674,0.874-0.558,1.281c0.051,0.177,0.181,0.309,0.366,0.38
			c-0.166,0.027-0.31,0.1-0.39,0.243c-0.221,0.382-0.469,0.816-0.313,1.167c0.021,0.047,0.062,0.082,0.094,0.12
			c-0.196-0.004-0.366,0.079-0.465,0.234c-0.223,0.348-0.469,0.735-0.336,1.074c0.021,0.048,0.059,0.086,0.091,0.128
			c-0.095,0.029-0.185,0.076-0.249,0.156c-0.256,0.318-0.544,0.677-0.453,1.025c0.037,0.14,0.136,0.244,0.268,0.315
			c-0.2-0.011-0.373,0.073-0.477,0.23c-0.22,0.331-0.47,0.706-0.347,1.041c0.06,0.158,0.188,0.271,0.363,0.318
			c0.169,0.044,0.475,0.203,0.894,0.459c-0.029,0.03-0.068,0.048-0.091,0.086c-0.197,0.348-0.415,0.73-0.271,1.054
			c0.07,0.15,0.204,0.253,0.38,0.286c0.208,0.04,0.598,0.212,1.153,0.505c0.077,0.044,0.161,0.064,0.248,0.068
			c0.311,0.017,0.545-0.207,0.69-0.474c0.172,0.066,0.47,0.216,0.996,0.551c0.091,0.056,0.187,0.086,0.286,0.091
			c0.432,0.022,0.809-0.452,0.875-0.894c0.013-0.086,0.013-0.172,0-0.25c0.044,0.015,0.084,0.048,0.13,0.051
			c0.435,0.022,0.838-0.441,0.926-0.874c0.034-0.167,0.016-0.319-0.043-0.448c0.073,0.037,0.147,0.067,0.23,0.07
			c0.445,0.025,0.826-0.469,0.891-0.931c0.019-0.133-0.001-0.249-0.038-0.357c0.003,0.002,0.006,0.003,0.011,0.006
			c0.082,0.044,0.171,0.069,0.263,0.074c0.469,0.025,0.86-0.51,0.917-1.003c0.004-0.036-0.004-0.064-0.005-0.099
			c0.082,0.041,0.163,0.088,0.253,0.093c0.549,0.03,1.013-0.61,1.101-1.084c0.031-0.151,0.014-0.289-0.02-0.411
			c0.045,0.011,0.088,0.038,0.135,0.041c0.606,0.033,1.047-0.688,1.116-1.199c0.018-0.126,0.013-0.24-0.008-0.347
			c0.554-0.047,0.947-0.709,1.013-1.193c0.017-0.134,0.005-0.256-0.021-0.367c0.485-0.123,0.838-0.718,0.906-1.157
			c0.029-0.193,0.002-0.367-0.063-0.511c0.497-0.109,0.835-0.72,0.89-1.17c0.022-0.181-0.009-0.335-0.063-0.471
			c0.387-0.193,0.659-0.669,0.724-1.033c0.041-0.236-0.006-0.439-0.112-0.599c0.398-0.163,0.686-0.636,0.75-1.004
			c0.038-0.227-0.007-0.419-0.103-0.571c0.346-0.16,0.624-0.56,0.697-0.942c0.053-0.27-0.02-0.506-0.177-0.659
			c0.393-0.094,0.709-0.526,0.767-0.957c0.032-0.223-0.021-0.412-0.125-0.554c0.346-0.117,0.624-0.504,0.68-0.885
			c0.033-0.248-0.041-0.461-0.187-0.6c0.392-0.085,0.658-0.522,0.702-0.87c0.03-0.256-0.05-0.466-0.208-0.598
			C22.608,4.133,22.805,3.807,22.845,3.539z"/>
		
			<path fill="none" stroke="#553E31" stroke-width="0.5412" stroke-linecap="round" stroke-linejoin="round" stroke-miterlimit="10" d="
			M6.468,24.741c-0.004-1.916,0.338-8.439,0.829-9.377"/>
		<g>
			<g>
				<g>
					<g>
						<path fill="#EBE0D5" d="M9.56,25.546c-0.036,0-0.071-0.011-0.104-0.031c-0.571-0.361-0.968-0.569-1.212-0.636
							c-0.048-0.014-0.078-0.036-0.09-0.069c-0.054-0.141,0.159-0.458,0.3-0.669c0.022-0.035,0.058-0.051,0.108-0.051
							c0.159,0,0.427,0.159,0.685,0.313c0.224,0.134,0.455,0.271,0.638,0.319c0.128,0.032,0.14,0.158,0.128,0.259
							C9.98,25.229,9.761,25.546,9.56,25.546L9.56,25.546z"/>
						<path fill="#553E31" d="M8.562,24.14c0.146,0,0.419,0.162,0.659,0.306c0.227,0.136,0.461,0.275,0.651,0.324
							c0.074,0.02,0.104,0.088,0.09,0.204c-0.031,0.249-0.242,0.522-0.402,0.522c-0.027,0-0.053-0.008-0.077-0.024
							c-0.576-0.363-0.978-0.573-1.227-0.642c-0.047-0.013-0.054-0.031-0.056-0.038c-0.044-0.116,0.176-0.446,0.295-0.624
							C8.504,24.154,8.518,24.14,8.562,24.14 M8.562,24.039c-0.064,0-0.116,0.022-0.15,0.074c-0.206,0.309-0.487,0.731-0.181,0.813
							c0.301,0.082,0.803,0.38,1.198,0.63c0.043,0.027,0.087,0.039,0.131,0.039c0.364,0,0.729-0.823,0.337-0.923
							C9.509,24.572,8.879,24.039,8.562,24.039L8.562,24.039z"/>
					</g>
				</g>
				<g>
					<g>
						<path fill="#EBE0D5" d="M10.567,24.453c-0.045,0-0.087-0.016-0.124-0.046c-0.353-0.278-0.856-0.663-1.17-0.788
							c-0.049-0.019-0.076-0.045-0.086-0.08c-0.041-0.151,0.208-0.46,0.373-0.665c0.023-0.029,0.055-0.044,0.096-0.044
							c0.161,0,0.428,0.201,0.686,0.395c0.215,0.162,0.438,0.33,0.62,0.397c0.121,0.045,0.126,0.169,0.109,0.265
							C11.025,24.137,10.78,24.453,10.567,24.453C10.567,24.453,10.568,24.453,10.567,24.453z"/>
						<path fill="#553E31" d="M9.656,22.881c0.145,0,0.416,0.204,0.655,0.384c0.219,0.164,0.444,0.334,0.633,0.404
							c0.026,0.01,0.108,0.04,0.077,0.209c-0.045,0.25-0.282,0.524-0.453,0.524c-0.034,0-0.064-0.011-0.094-0.034
							c-0.354-0.28-0.863-0.668-1.184-0.796c-0.048-0.018-0.053-0.038-0.056-0.047c-0.034-0.126,0.225-0.447,0.364-0.62
							C9.611,22.891,9.626,22.881,9.656,22.881 M9.656,22.78c-0.054,0-0.1,0.02-0.135,0.063c-0.24,0.298-0.57,0.707-0.267,0.823
							c0.298,0.118,0.778,0.48,1.157,0.78c0.049,0.039,0.102,0.057,0.156,0.057c0.365,0,0.791-0.786,0.411-0.928
							C10.583,23.429,9.975,22.78,9.656,22.78L9.656,22.78z"/>
					</g>
				</g>
				<g>
					<g>
						<path fill="#EBE0D5" d="M11.68,23.201c-0.036,0-0.072-0.011-0.106-0.031c-0.427-0.253-0.958-0.555-1.283-0.635
							c-0.051-0.013-0.083-0.035-0.097-0.07c-0.059-0.146,0.156-0.481,0.298-0.704c0.025-0.04,0.063-0.059,0.122-0.059
							c0.169,0,0.447,0.158,0.717,0.31c0.237,0.135,0.483,0.273,0.676,0.318c0.137,0.03,0.151,0.165,0.14,0.271
							C12.116,22.866,11.891,23.201,11.68,23.201L11.68,23.201z"/>
						<path fill="#553E31" d="M10.613,21.753c0.155,0,0.429,0.153,0.692,0.303c0.24,0.136,0.489,0.276,0.689,0.323
							c0.081,0.018,0.114,0.091,0.101,0.218c-0.027,0.242-0.233,0.554-0.416,0.554c-0.027,0-0.054-0.007-0.081-0.023
							c-0.429-0.255-0.965-0.559-1.297-0.64c-0.051-0.013-0.06-0.033-0.063-0.041c-0.049-0.122,0.166-0.458,0.294-0.659
							C10.545,21.77,10.563,21.753,10.613,21.753 M10.613,21.652c-0.071,0-0.128,0.024-0.164,0.081
							c-0.208,0.326-0.492,0.771-0.171,0.851c0.317,0.078,0.849,0.379,1.27,0.629c0.043,0.026,0.088,0.038,0.132,0.038
							c0.382,0,0.749-0.877,0.338-0.97C11.61,22.187,10.948,21.652,10.613,21.652L10.613,21.652z"/>
					</g>
				</g>
				<g>
					<g>
						<path fill="#EBE0D5" d="M12.801,21.992c-0.037,0-0.074-0.009-0.109-0.027c-0.68-0.362-1.148-0.564-1.434-0.618
							c-0.058-0.012-0.094-0.036-0.111-0.074c-0.071-0.158,0.146-0.536,0.289-0.785c0.018-0.031,0.052-0.071,0.148-0.071
							c0.187,0,0.49,0.149,0.783,0.295c0.269,0.132,0.546,0.27,0.761,0.307c0.167,0.03,0.177,0.207,0.168,0.31
							C13.27,21.627,13.036,21.992,12.801,21.992L12.801,21.992z"/>
						<path fill="#553E31" d="M11.584,20.466c0.175,0,0.473,0.147,0.761,0.29c0.271,0.134,0.553,0.272,0.774,0.312
							c0.122,0.021,0.137,0.15,0.127,0.255c-0.023,0.273-0.238,0.62-0.445,0.62c-0.029,0-0.058-0.007-0.086-0.021
							c-0.684-0.364-1.158-0.568-1.447-0.623c-0.06-0.013-0.071-0.037-0.075-0.046c-0.061-0.135,0.157-0.514,0.287-0.74
							C11.492,20.489,11.515,20.466,11.584,20.466 M11.584,20.366c-0.086,0-0.152,0.027-0.191,0.096
							c-0.21,0.365-0.495,0.863-0.145,0.934c0.354,0.067,0.948,0.362,1.42,0.613c0.045,0.023,0.089,0.034,0.133,0.034
							c0.428,0,0.795-0.993,0.336-1.074C12.692,20.891,11.956,20.366,11.584,20.366L11.584,20.366z"/>
					</g>
				</g>
				<g>
					<g>
						<path fill="#EBE0D5" d="M13.975,20.983c-0.061,0-0.118-0.02-0.17-0.059c-0.476-0.358-1.157-0.853-1.585-1.006
							c-0.069-0.025-0.11-0.063-0.126-0.117c-0.061-0.211,0.265-0.632,0.479-0.91c0.036-0.046,0.083-0.067,0.147-0.067
							c0.221,0,0.582,0.257,0.931,0.505c0.293,0.208,0.597,0.423,0.842,0.506c0.174,0.062,0.184,0.236,0.16,0.373
							C14.596,20.55,14.265,20.983,13.975,20.983L13.975,20.983z"/>
						<path fill="#553E31" d="M12.721,18.875c0.205,0,0.56,0.251,0.901,0.494c0.297,0.211,0.603,0.428,0.854,0.514
							c0.114,0.039,0.157,0.146,0.129,0.316c-0.055,0.321-0.369,0.734-0.63,0.734c-0.051,0-0.097-0.016-0.14-0.049
							c-0.479-0.36-1.164-0.857-1.598-1.013c-0.071-0.026-0.089-0.061-0.096-0.084c-0.054-0.187,0.275-0.611,0.472-0.865
							C12.639,18.89,12.672,18.875,12.721,18.875 M12.721,18.774c-0.076,0-0.14,0.026-0.187,0.087
							c-0.312,0.402-0.737,0.957-0.331,1.104c0.405,0.146,1.056,0.61,1.571,0.999c0.063,0.048,0.131,0.068,0.2,0.068
							c0.491,0,1.045-1.067,0.534-1.245C13.976,19.607,13.148,18.774,12.721,18.774L12.721,18.774z"/>
					</g>
				</g>
				<g>
					<g>
						<path fill="#EBE0D5" d="M15.19,19.531c-0.057,0-0.111-0.016-0.163-0.046c-0.861-0.519-1.461-0.814-1.833-0.904
							c-0.079-0.02-0.129-0.057-0.151-0.113c-0.089-0.224,0.223-0.708,0.429-1.028c0.04-0.064,0.102-0.094,0.193-0.094
							c0.247,0,0.649,0.225,1.037,0.442c0.34,0.19,0.69,0.387,0.964,0.449c0.222,0.051,0.229,0.283,0.214,0.417
							C15.835,19.049,15.508,19.531,15.19,19.531z"/>
						<path fill="#553E31" d="M13.665,17.396c0.234,0,0.63,0.222,1.013,0.437c0.343,0.191,0.696,0.39,0.977,0.454
							c0.175,0.04,0.192,0.219,0.177,0.362c-0.042,0.367-0.353,0.833-0.641,0.833c-0.048,0-0.093-0.013-0.137-0.039
							c-0.866-0.521-1.471-0.819-1.848-0.909c-0.083-0.021-0.106-0.058-0.117-0.084c-0.079-0.199,0.249-0.709,0.426-0.983
							C13.535,17.433,13.57,17.396,13.665,17.396 M13.665,17.296c-0.103,0-0.184,0.034-0.235,0.116
							c-0.298,0.463-0.703,1.105-0.247,1.218c0.458,0.11,1.221,0.538,1.819,0.898c0.062,0.037,0.125,0.054,0.188,0.054
							c0.549,0,1.075-1.258,0.486-1.394C15.096,18.055,14.146,17.296,13.665,17.296L13.665,17.296z"/>
					</g>
				</g>
				<g>
					<g>
						<path fill="#EBE0D5" d="M16.199,17.992c-0.056,0-0.109-0.015-0.161-0.045c-0.563-0.327-1.365-0.774-1.84-0.887
							c-0.081-0.019-0.131-0.055-0.154-0.111c-0.091-0.219,0.216-0.707,0.419-1.031c0.04-0.063,0.102-0.094,0.194-0.094
							c0.247,0,0.649,0.221,1.038,0.434c0.34,0.188,0.692,0.381,0.966,0.441c0.226,0.05,0.234,0.283,0.22,0.419
							C16.839,17.512,16.516,17.992,16.199,17.992C16.199,17.992,16.199,17.992,16.199,17.992z"/>
						<path fill="#553E31" d="M14.657,15.874c0.234,0,0.631,0.218,1.014,0.428c0.344,0.188,0.699,0.384,0.979,0.446
							c0.178,0.039,0.197,0.22,0.182,0.364c-0.04,0.366-0.346,0.83-0.633,0.83c-0.047,0-0.092-0.013-0.137-0.039
							c-0.564-0.328-1.371-0.778-1.854-0.892c-0.084-0.02-0.108-0.056-0.119-0.081c-0.08-0.195,0.23-0.69,0.416-0.986
							C14.526,15.912,14.562,15.874,14.657,15.874 M14.657,15.774c-0.104,0-0.185,0.034-0.236,0.117
							c-0.293,0.467-0.694,1.112-0.234,1.218c0.456,0.107,1.22,0.528,1.826,0.881c0.062,0.036,0.125,0.053,0.187,0.053
							c0.55,0,1.065-1.263,0.473-1.393C16.091,16.521,15.138,15.774,14.657,15.774L14.657,15.774z"/>
					</g>
				</g>
				<g>
					<g>
						<path fill="#EBE0D5" d="M17.069,16.446c-0.061,0-0.117-0.018-0.171-0.053c-0.845-0.546-1.43-0.86-1.787-0.962
							c-0.078-0.021-0.126-0.06-0.146-0.116c-0.08-0.221,0.23-0.678,0.457-1.012c0.04-0.06,0.098-0.087,0.182-0.087
							c0.245,0,0.644,0.242,1.029,0.477c0.328,0.2,0.668,0.406,0.935,0.478c0.216,0.06,0.219,0.286,0.201,0.416
							C17.717,15.974,17.384,16.446,17.069,16.446L17.069,16.446z"/>
						<path fill="#553E31" d="M15.604,14.267c0.231,0,0.624,0.239,1.003,0.47c0.332,0.202,0.675,0.41,0.947,0.483
							c0.17,0.046,0.184,0.222,0.165,0.36c-0.048,0.359-0.363,0.815-0.649,0.815c-0.051,0-0.098-0.014-0.144-0.044
							c-0.85-0.548-1.438-0.865-1.801-0.969c-0.082-0.022-0.104-0.059-0.113-0.085c-0.071-0.196,0.256-0.678,0.452-0.967
							C15.484,14.302,15.519,14.267,15.604,14.267 M15.604,14.167c-0.095,0-0.171,0.032-0.223,0.108
							c-0.309,0.454-0.731,1.079-0.283,1.204c0.448,0.128,1.189,0.579,1.773,0.956c0.064,0.042,0.131,0.061,0.198,0.061
							c0.539,0,1.086-1.217,0.511-1.373C17.006,14.97,16.076,14.167,15.604,14.167L15.604,14.167z"/>
					</g>
				</g>
				<g>
					<g>
						<path fill="#EBE0D5" d="M17.942,14.773c-0.051,0-0.103-0.014-0.151-0.04c-0.836-0.463-1.449-0.736-1.82-0.813
							c-0.078-0.017-0.127-0.05-0.151-0.104c-0.093-0.21,0.194-0.693,0.385-1.013c0.039-0.066,0.103-0.097,0.199-0.097
							c0.243,0,0.635,0.2,1.014,0.395c0.337,0.173,0.687,0.352,0.955,0.403c0.225,0.044,0.236,0.277,0.224,0.412
							C18.558,14.302,18.25,14.773,17.942,14.773L17.942,14.773z"/>
						<path fill="#553E31" d="M16.403,12.756c0.231,0,0.617,0.198,0.99,0.39c0.341,0.174,0.693,0.354,0.969,0.408
							c0.177,0.034,0.197,0.213,0.184,0.357c-0.035,0.358-0.325,0.813-0.604,0.813c-0.043,0-0.086-0.012-0.126-0.034
							c-0.842-0.465-1.459-0.74-1.835-0.818c-0.082-0.017-0.105-0.051-0.116-0.075c-0.082-0.187,0.208-0.676,0.382-0.968
							C16.268,12.794,16.303,12.756,16.403,12.756 M16.403,12.656c-0.107,0-0.191,0.035-0.242,0.121
							c-0.273,0.46-0.65,1.099-0.2,1.191c0.451,0.094,1.208,0.478,1.807,0.809c0.059,0.031,0.117,0.046,0.175,0.046
							c0.544,0,1.024-1.254,0.439-1.368C17.816,13.346,16.878,12.656,16.403,12.656L16.403,12.656z"/>
					</g>
				</g>
				<g>
					<g>
						<path fill="#EBE0D5" d="M18.575,13.203c-0.06,0-0.116-0.018-0.169-0.054c-0.781-0.547-1.327-0.866-1.666-0.976
							c-0.072-0.022-0.116-0.06-0.134-0.113c-0.069-0.213,0.253-0.657,0.466-0.951c0.037-0.052,0.088-0.075,0.16-0.075
							c0.229,0,0.604,0.247,0.967,0.485c0.308,0.203,0.627,0.413,0.881,0.49c0.187,0.057,0.2,0.241,0.179,0.386
							C19.205,12.751,18.873,13.203,18.575,13.203L18.575,13.203z"/>
						<path fill="#553E31" d="M17.232,11.084c0.214,0,0.582,0.243,0.939,0.478c0.311,0.205,0.633,0.417,0.894,0.496
							c0.122,0.037,0.171,0.148,0.144,0.33c-0.05,0.334-0.366,0.766-0.634,0.766c-0.05,0-0.096-0.015-0.14-0.045
							c-0.797-0.558-1.331-0.869-1.681-0.982c-0.074-0.023-0.093-0.058-0.101-0.081c-0.063-0.189,0.264-0.638,0.459-0.906
							C17.132,11.113,17.161,11.084,17.232,11.084 M17.232,10.984c-0.084,0-0.152,0.028-0.2,0.096
							c-0.309,0.425-0.729,1.008-0.308,1.142c0.425,0.137,1.11,0.589,1.653,0.969c0.063,0.044,0.13,0.063,0.197,0.063
							c0.511,0,1.057-1.128,0.52-1.292C18.545,11.795,17.675,10.984,17.232,10.984L17.232,10.984z"/>
					</g>
				</g>
				<g>
					<g>
						<path fill="#EBE0D5" d="M19.258,11.558c-0.055,0-0.106-0.017-0.154-0.049c-0.724-0.498-1.257-0.803-1.584-0.907
							c-0.069-0.021-0.11-0.056-0.127-0.106c-0.067-0.201,0.232-0.62,0.432-0.896c0.034-0.049,0.082-0.072,0.151-0.072
							c0.217,0,0.572,0.229,0.916,0.451c0.292,0.188,0.595,0.384,0.835,0.455c0.176,0.052,0.189,0.225,0.169,0.361
							C19.847,11.131,19.537,11.558,19.258,11.558L19.258,11.558z"/>
						<path fill="#553E31" d="M17.976,9.577c0.202,0,0.551,0.225,0.889,0.442c0.295,0.19,0.601,0.388,0.849,0.461
							c0.113,0.033,0.158,0.137,0.134,0.306c-0.046,0.315-0.34,0.722-0.589,0.722c-0.045,0-0.086-0.014-0.126-0.04
							c-0.728-0.501-1.266-0.808-1.599-0.914c-0.068-0.021-0.086-0.053-0.094-0.074c-0.06-0.178,0.244-0.6,0.426-0.853
							C17.883,9.603,17.909,9.577,17.976,9.577 M17.976,9.477c-0.081,0-0.146,0.028-0.192,0.093
							c-0.288,0.401-0.681,0.955-0.279,1.08c0.399,0.127,1.056,0.546,1.571,0.9c0.059,0.04,0.12,0.058,0.183,0.058
							c0.481,0,0.993-1.072,0.483-1.223C19.221,10.23,18.396,9.477,17.976,9.477L17.976,9.477z"/>
					</g>
				</g>
				<g>
					<g>
						<path fill="#EBE0D5" d="M19.879,9.98c-0.055,0-0.106-0.018-0.152-0.053c-0.436-0.325-1.06-0.774-1.448-0.915
							c-0.061-0.022-0.098-0.056-0.111-0.103c-0.055-0.187,0.228-0.554,0.434-0.822c0.034-0.045,0.076-0.063,0.134-0.063
							c0.2,0,0.529,0.233,0.848,0.459c0.267,0.189,0.543,0.386,0.767,0.461c0.155,0.054,0.164,0.211,0.144,0.332
							C20.44,9.587,20.141,9.98,19.879,9.98L19.879,9.98z"/>
						<path fill="#553E31" d="M18.734,8.074c0.185,0,0.521,0.239,0.818,0.45c0.27,0.191,0.549,0.39,0.779,0.468
							c0.099,0.034,0.136,0.127,0.11,0.276c-0.048,0.289-0.33,0.662-0.563,0.662c-0.044,0-0.084-0.014-0.123-0.043
							c-0.438-0.327-1.065-0.779-1.46-0.922c-0.067-0.024-0.077-0.058-0.081-0.069c-0.047-0.163,0.249-0.548,0.428-0.781
							C18.665,8.086,18.692,8.074,18.734,8.074 M18.734,7.974c-0.069,0-0.128,0.024-0.171,0.081
							c-0.282,0.367-0.671,0.871-0.302,1.005s0.963,0.556,1.435,0.908c0.058,0.044,0.12,0.063,0.183,0.063
							c0.447,0,0.951-0.973,0.485-1.133C19.879,8.732,19.125,7.974,18.734,7.974L18.734,7.974z"/>
					</g>
				</g>
				<g>
					<g>
						<path fill="#EBE0D5" d="M20.563,8.345c-0.041,0-0.082-0.012-0.12-0.034c-0.669-0.394-1.134-0.618-1.422-0.687
							c-0.058-0.014-0.094-0.039-0.11-0.079c-0.066-0.161,0.156-0.521,0.319-0.784c0.03-0.049,0.075-0.07,0.143-0.07
							c0.188,0,0.499,0.171,0.799,0.335c0.263,0.145,0.535,0.294,0.747,0.342c0.165,0.037,0.172,0.212,0.16,0.313
							C21.046,7.979,20.801,8.345,20.563,8.345L20.563,8.345z"/>
						<path fill="#553E31" d="M19.372,6.741c0.176,0,0.48,0.167,0.774,0.328c0.267,0.146,0.541,0.297,0.761,0.347
							c0.097,0.021,0.138,0.108,0.121,0.259c-0.029,0.271-0.261,0.619-0.466,0.619c-0.032,0-0.063-0.009-0.095-0.026
							c-0.674-0.396-1.144-0.623-1.437-0.692c-0.061-0.014-0.071-0.039-0.075-0.049c-0.057-0.138,0.177-0.515,0.318-0.742
							C19.287,6.763,19.31,6.741,19.372,6.741 M19.372,6.641c-0.08,0-0.143,0.026-0.183,0.09c-0.225,0.362-0.534,0.859-0.181,0.942
							c0.354,0.084,0.943,0.407,1.408,0.681c0.048,0.028,0.097,0.041,0.146,0.041c0.426,0,0.823-0.975,0.366-1.076
							C20.479,7.217,19.744,6.641,19.372,6.641L19.372,6.641z"/>
					</g>
				</g>
				<g>
					<g>
						<path fill="#EBE0D5" d="M21.153,6.846c-0.039,0-0.076-0.011-0.111-0.033c-0.615-0.376-1.04-0.592-1.301-0.66
							c-0.053-0.013-0.085-0.036-0.099-0.072c-0.059-0.148,0.162-0.491,0.309-0.718c0.026-0.04,0.065-0.059,0.122-0.059
							c0.173,0,0.458,0.164,0.733,0.323c0.24,0.138,0.488,0.281,0.684,0.329c0.142,0.035,0.155,0.174,0.142,0.285
							C21.6,6.508,21.367,6.846,21.153,6.846L21.153,6.846z"/>
						<path fill="#553E31" d="M20.073,5.354c0.159,0,0.438,0.161,0.708,0.316c0.243,0.14,0.495,0.285,0.696,0.334
							c0.086,0.021,0.121,0.099,0.104,0.23c-0.029,0.245-0.243,0.562-0.429,0.562c-0.029,0-0.058-0.009-0.086-0.025
							c-0.618-0.38-1.049-0.598-1.314-0.666c-0.053-0.014-0.061-0.035-0.064-0.043c-0.049-0.125,0.173-0.467,0.306-0.673
							C20.006,5.37,20.023,5.354,20.073,5.354 M20.073,5.254c-0.07,0-0.127,0.023-0.163,0.08c-0.214,0.331-0.508,0.785-0.182,0.867
							c0.323,0.084,0.861,0.394,1.287,0.654c0.045,0.027,0.092,0.04,0.138,0.04c0.388,0,0.77-0.885,0.349-0.988
							C21.089,5.806,20.414,5.254,20.073,5.254L20.073,5.254z"/>
					</g>
				</g>
				<g>
					<g>
						<path fill="#EBE0D5" d="M21.718,5.344c-0.032,0-0.064-0.009-0.095-0.025c-0.583-0.323-0.988-0.506-1.238-0.561
							c-0.048-0.01-0.077-0.03-0.091-0.061c-0.059-0.132,0.131-0.453,0.257-0.665c0.021-0.034,0.049-0.066,0.126-0.066
							c0.16,0,0.424,0.137,0.68,0.269c0.23,0.12,0.469,0.243,0.654,0.279c0.139,0.028,0.145,0.177,0.136,0.263
							C22.121,5.032,21.918,5.344,21.718,5.344L21.718,5.344z"/>
						<path fill="#553E31" d="M20.677,4.017c0.148,0,0.406,0.134,0.656,0.263c0.233,0.121,0.476,0.246,0.668,0.283
							c0.076,0.016,0.108,0.086,0.096,0.209C22.074,5,21.886,5.294,21.718,5.294c-0.024,0-0.048-0.006-0.07-0.02
							c-0.588-0.325-0.997-0.51-1.253-0.565c-0.045-0.01-0.053-0.026-0.055-0.032c-0.048-0.108,0.148-0.44,0.26-0.628
							C20.606,4.037,20.619,4.017,20.677,4.017 M20.677,3.916c-0.072,0-0.129,0.023-0.163,0.081c-0.186,0.313-0.445,0.746-0.14,0.81
							c0.307,0.066,0.821,0.332,1.225,0.556c0.04,0.021,0.08,0.031,0.119,0.031c0.367,0,0.696-0.849,0.303-0.929
							C21.635,4.389,20.998,3.916,20.677,3.916L20.677,3.916z"/>
					</g>
				</g>
				<g>
					<g>
						<path fill="#EBE0D5" d="M22.121,3.896c-0.027,0-0.052-0.008-0.076-0.023c-0.338-0.213-0.715-0.438-0.959-0.506
							c-0.1-0.154,0.073-0.41,0.177-0.563c0.024-0.005,0.048-0.007,0.072-0.007c0.179,0,0.362,0.11,0.54,0.218
							c0.175,0.105,0.355,0.215,0.5,0.253c0.093,0.024,0.102,0.117,0.092,0.191C22.442,3.651,22.275,3.896,22.121,3.896
							L22.121,3.896z"/>
						<path fill="#553E31" d="M21.341,2.817c0.109,0,0.321,0.128,0.509,0.24c0.178,0.107,0.361,0.218,0.514,0.259
							c0.017,0.005,0.069,0.018,0.054,0.136c-0.022,0.181-0.183,0.394-0.296,0.394c-0.018,0-0.033-0.006-0.05-0.017
							C21.73,3.615,21.35,3.387,21.1,3.318c-0.011-0.004-0.025-0.009-0.027-0.017c-0.03-0.083,0.153-0.354,0.232-0.471
							C21.309,2.825,21.313,2.817,21.341,2.817 M21.341,2.718c-0.051,0-0.092,0.017-0.119,0.058
							c-0.162,0.239-0.386,0.571-0.149,0.639c0.241,0.066,0.631,0.302,0.945,0.5c0.033,0.021,0.068,0.031,0.104,0.031
							c0.285,0,0.574-0.647,0.267-0.726C22.083,3.138,21.591,2.718,21.341,2.718L21.341,2.718z"/>
					</g>
				</g>
			</g>
			<g>
				<g>
					<g>
						<path fill="#EBE0D5" d="M6.68,23.607c-0.036,0-0.072-0.011-0.106-0.032c-0.577-0.366-0.979-0.576-1.23-0.645
							c-0.047-0.014-0.076-0.036-0.088-0.069c-0.054-0.144,0.16-0.464,0.303-0.677c0.023-0.036,0.059-0.053,0.111-0.053
							c0.163,0,0.434,0.161,0.696,0.316c0.225,0.135,0.458,0.272,0.642,0.321c0.131,0.032,0.144,0.161,0.131,0.264
							C7.105,23.286,6.885,23.607,6.68,23.607L6.68,23.607z"/>
						<path fill="#553E31" d="M5.669,22.182c0.149,0,0.426,0.165,0.67,0.31c0.229,0.136,0.465,0.276,0.656,0.326
							c0.076,0.02,0.107,0.09,0.093,0.21c-0.031,0.252-0.245,0.529-0.408,0.529c-0.027,0-0.054-0.008-0.079-0.024
							c-0.582-0.368-0.989-0.58-1.244-0.65c-0.046-0.013-0.053-0.03-0.056-0.037c-0.044-0.12,0.187-0.466,0.299-0.633
							C5.609,22.197,5.623,22.182,5.669,22.182 M5.669,22.082c-0.066,0-0.118,0.021-0.153,0.075c-0.207,0.31-0.49,0.738-0.186,0.821
							c0.308,0.084,0.815,0.385,1.217,0.639c0.043,0.027,0.088,0.04,0.133,0.04c0.369,0,0.737-0.836,0.34-0.937
							C6.629,22.618,5.991,22.082,5.669,22.082L5.669,22.082z"/>
					</g>
				</g>
				<g>
					<g>
						<path fill="#EBE0D5" d="M7.202,22.227c-0.044,0-0.086-0.016-0.123-0.045c-0.351-0.279-0.854-0.664-1.175-0.788
							c-0.047-0.019-0.074-0.045-0.083-0.08c-0.041-0.151,0.198-0.448,0.372-0.664c0.026-0.033,0.058-0.047,0.099-0.047
							c0.161,0,0.429,0.201,0.688,0.396c0.215,0.162,0.438,0.33,0.62,0.398c0.121,0.045,0.126,0.167,0.109,0.261
							C7.664,21.909,7.417,22.227,7.202,22.227C7.203,22.227,7.203,22.227,7.202,22.227z"/>
						<path fill="#553E31" d="M6.292,20.652c0.145,0,0.417,0.205,0.657,0.387c0.218,0.164,0.443,0.334,0.634,0.405
							c0.026,0.01,0.106,0.039,0.076,0.205c-0.044,0.246-0.287,0.527-0.456,0.527c-0.034,0-0.064-0.012-0.093-0.034
							c-0.561-0.446-0.938-0.699-1.188-0.795c-0.046-0.019-0.052-0.039-0.054-0.048c-0.033-0.126,0.215-0.435,0.365-0.622
							C6.247,20.662,6.262,20.652,6.292,20.652 M6.292,20.553c-0.054,0-0.1,0.019-0.135,0.062c-0.241,0.3-0.571,0.708-0.271,0.826
							c0.302,0.116,0.782,0.479,1.161,0.78c0.049,0.039,0.101,0.056,0.155,0.056c0.365,0,0.795-0.785,0.414-0.926
							C7.219,21.201,6.611,20.553,6.292,20.553L6.292,20.553z"/>
					</g>
				</g>
				<g>
					<g>
						<path fill="#EBE0D5" d="M7.905,20.691c-0.037,0-0.073-0.01-0.108-0.031c-0.393-0.233-0.952-0.553-1.284-0.635
							c-0.051-0.012-0.082-0.035-0.097-0.069c-0.058-0.143,0.146-0.463,0.293-0.697c0.032-0.05,0.07-0.068,0.129-0.068
							c0.17,0,0.449,0.158,0.72,0.311c0.237,0.133,0.482,0.271,0.675,0.316c0.137,0.031,0.151,0.166,0.139,0.274
							C8.342,20.356,8.116,20.691,7.905,20.691L7.905,20.691z"/>
						<path fill="#553E31" d="M6.838,19.24c0.156,0,0.431,0.154,0.695,0.304c0.24,0.136,0.488,0.275,0.688,0.322
							c0.081,0.019,0.114,0.093,0.1,0.22c-0.027,0.243-0.233,0.556-0.416,0.556c-0.028,0-0.055-0.008-0.083-0.024
							c-0.395-0.235-0.959-0.557-1.298-0.641c-0.051-0.012-0.059-0.032-0.062-0.039c-0.048-0.119,0.163-0.453,0.295-0.662
							C6.77,19.257,6.787,19.24,6.838,19.24 M6.838,19.141c-0.071,0-0.128,0.024-0.164,0.081c-0.207,0.327-0.494,0.774-0.173,0.853
							c0.317,0.078,0.852,0.38,1.271,0.629c0.044,0.026,0.089,0.039,0.134,0.039c0.384,0,0.749-0.88,0.339-0.974
							C7.837,19.673,7.174,19.141,6.838,19.141L6.838,19.141z"/>
					</g>
				</g>
				<g>
					<g>
						<path fill="#EBE0D5" d="M8.803,19.24c-0.038,0-0.076-0.01-0.113-0.029c-0.487-0.255-1.094-0.556-1.459-0.624
							c-0.059-0.012-0.096-0.037-0.114-0.077c-0.073-0.161,0.146-0.544,0.292-0.798c0.019-0.031,0.055-0.073,0.154-0.073
							c0.191,0,0.501,0.152,0.8,0.3c0.271,0.134,0.552,0.272,0.768,0.31c0.173,0.032,0.182,0.215,0.172,0.32
							C9.274,18.871,9.039,19.24,8.803,19.24L8.803,19.24z"/>
						<path fill="#553E31" d="M7.563,17.688c0.18,0,0.483,0.15,0.777,0.295c0.274,0.136,0.559,0.275,0.781,0.314
							c0.126,0.023,0.142,0.157,0.131,0.266C9.228,18.84,9.011,19.19,8.803,19.19c-0.03,0-0.06-0.008-0.091-0.024
							c-0.489-0.256-1.1-0.559-1.471-0.628c-0.063-0.013-0.075-0.039-0.079-0.049c-0.063-0.138,0.158-0.522,0.29-0.752
							C7.466,17.713,7.489,17.688,7.563,17.688 M7.563,17.589c-0.089,0-0.157,0.028-0.197,0.099
							c-0.212,0.369-0.503,0.877-0.144,0.948c0.358,0.067,0.964,0.368,1.444,0.619c0.046,0.024,0.092,0.035,0.137,0.035
							c0.431,0,0.803-1.005,0.336-1.091C8.69,18.121,7.942,17.589,7.563,17.589L7.563,17.589z"/>
					</g>
				</g>
				<g>
					<g>
						<path fill="#EBE0D5" d="M9.379,17.973c-0.063,0-0.121-0.021-0.174-0.061c-0.731-0.554-1.271-0.896-1.604-1.019
							c-0.071-0.025-0.112-0.063-0.128-0.118c-0.062-0.21,0.253-0.619,0.482-0.918c0.04-0.052,0.087-0.073,0.152-0.073
							c0.225,0,0.591,0.261,0.944,0.513c0.297,0.211,0.603,0.429,0.85,0.513c0.179,0.062,0.188,0.239,0.165,0.378
							C10.009,17.533,9.673,17.973,9.379,17.973L9.379,17.973z"/>
						<path fill="#553E31" d="M8.108,15.834c0.208,0,0.568,0.256,0.916,0.504c0.299,0.212,0.607,0.433,0.862,0.52
							c0.116,0.04,0.16,0.148,0.131,0.321c-0.055,0.325-0.374,0.744-0.639,0.744c-0.052,0-0.099-0.017-0.144-0.051
							c-0.736-0.557-1.28-0.902-1.617-1.025c-0.072-0.026-0.09-0.062-0.097-0.085c-0.055-0.186,0.264-0.601,0.478-0.878
							C8.025,15.85,8.06,15.834,8.108,15.834 M8.108,15.734c-0.077,0-0.141,0.026-0.188,0.088c-0.314,0.409-0.747,0.97-0.336,1.118
							c0.408,0.149,1.071,0.618,1.591,1.012c0.064,0.049,0.134,0.07,0.204,0.07c0.498,0,1.06-1.08,0.54-1.26
							C9.379,16.578,8.542,15.734,8.108,15.734L8.108,15.734z"/>
					</g>
				</g>
				<g>
					<g>
						<path fill="#EBE0D5" d="M10.29,16.337c-0.058,0-0.112-0.016-0.165-0.047c-0.864-0.519-1.465-0.816-1.837-0.909
							c-0.081-0.02-0.131-0.057-0.154-0.114c-0.089-0.223,0.224-0.709,0.431-1.03c0.04-0.064,0.102-0.094,0.192-0.094
							c0.247,0,0.649,0.226,1.039,0.443c0.341,0.19,0.693,0.388,0.969,0.451c0.225,0.053,0.231,0.288,0.216,0.424
							C10.935,15.855,10.606,16.337,10.29,16.337L10.29,16.337z"/>
						<path fill="#553E31" d="M8.757,14.192c0.234,0,0.631,0.223,1.015,0.437c0.344,0.193,0.699,0.392,0.98,0.457
							c0.179,0.042,0.195,0.224,0.179,0.369c-0.043,0.367-0.354,0.832-0.641,0.832c-0.049,0-0.095-0.014-0.139-0.04
							c-0.869-0.521-1.475-0.82-1.852-0.914c-0.085-0.021-0.108-0.059-0.119-0.085c-0.079-0.199,0.237-0.691,0.427-0.986
							C8.628,14.229,8.663,14.192,8.757,14.192 M8.757,14.093c-0.103,0-0.183,0.034-0.234,0.116
							c-0.301,0.468-0.706,1.108-0.246,1.221c0.458,0.114,1.22,0.541,1.823,0.903c0.063,0.037,0.127,0.054,0.19,0.054
							c0.552,0,1.075-1.259,0.485-1.398C10.19,14.854,9.237,14.093,8.757,14.093L8.757,14.093z"/>
					</g>
				</g>
				<g>
					<g>
						<path fill="#EBE0D5" d="M11.085,14.688c-0.056,0-0.11-0.016-0.162-0.046c-0.559-0.326-1.356-0.772-1.838-0.885
							c-0.08-0.019-0.13-0.056-0.153-0.111c-0.089-0.218,0.205-0.689,0.42-1.034c0.04-0.063,0.102-0.094,0.194-0.094
							c0.247,0,0.649,0.221,1.039,0.435c0.34,0.187,0.691,0.38,0.964,0.44c0.226,0.05,0.233,0.284,0.219,0.42
							C11.725,14.206,11.401,14.688,11.085,14.688L11.085,14.688z"/>
						<path fill="#553E31" d="M9.546,12.567c0.234,0,0.631,0.218,1.015,0.429c0.343,0.188,0.698,0.383,0.978,0.445
							c0.178,0.039,0.196,0.221,0.18,0.365c-0.04,0.366-0.346,0.83-0.633,0.83c-0.048,0-0.093-0.013-0.137-0.038
							c-0.562-0.328-1.363-0.776-1.852-0.891c-0.084-0.02-0.107-0.056-0.118-0.082c-0.08-0.193,0.219-0.672,0.416-0.988
							C9.415,12.605,9.45,12.567,9.546,12.567 M9.546,12.468c-0.104,0-0.186,0.034-0.236,0.117
							c-0.292,0.468-0.694,1.112-0.236,1.221c0.457,0.106,1.219,0.525,1.824,0.879c0.062,0.036,0.125,0.053,0.188,0.053
							c0.55,0,1.066-1.262,0.475-1.394C10.98,13.215,10.026,12.468,9.546,12.468L9.546,12.468z"/>
					</g>
				</g>
				<g>
					<g>
						<path fill="#EBE0D5" d="M11.914,13.119c-0.06,0-0.116-0.018-0.17-0.053c-0.544-0.35-1.321-0.83-1.789-0.962
							c-0.077-0.022-0.125-0.062-0.146-0.118c-0.081-0.223,0.242-0.696,0.456-1.01c0.04-0.06,0.098-0.087,0.181-0.087
							c0.244,0,0.642,0.242,1.025,0.477c0.331,0.201,0.673,0.409,0.941,0.48c0.214,0.058,0.218,0.282,0.201,0.411
							C12.564,12.637,12.226,13.119,11.914,13.119L11.914,13.119z"/>
						<path fill="#553E31" d="M10.446,10.939c0.229,0,0.621,0.239,1,0.47c0.333,0.203,0.678,0.413,0.954,0.486
							c0.168,0.045,0.183,0.218,0.164,0.355c-0.047,0.36-0.362,0.818-0.65,0.818c-0.05,0-0.097-0.015-0.144-0.045
							c-0.546-0.352-1.327-0.835-1.802-0.968c-0.081-0.023-0.104-0.062-0.112-0.088c-0.072-0.198,0.255-0.678,0.451-0.965
							C10.328,10.975,10.361,10.939,10.446,10.939 M10.446,10.84c-0.095,0-0.17,0.032-0.222,0.108
							c-0.309,0.452-0.73,1.075-0.283,1.204c0.45,0.127,1.189,0.579,1.775,0.956c0.064,0.042,0.131,0.061,0.197,0.061
							c0.538,0,1.087-1.217,0.512-1.37C11.849,11.646,10.919,10.84,10.446,10.84L10.446,10.84z"/>
					</g>
				</g>
				<g>
					<g>
						<path fill="#EBE0D5" d="M12.862,11.483c-0.051,0-0.102-0.014-0.149-0.04c-0.556-0.303-1.348-0.718-1.818-0.813
							c-0.078-0.017-0.128-0.05-0.151-0.104c-0.092-0.206,0.179-0.666,0.377-1.003c0.043-0.074,0.106-0.104,0.202-0.104
							c0.242,0,0.634,0.2,1.013,0.394c0.338,0.173,0.687,0.352,0.955,0.402c0.224,0.043,0.235,0.274,0.223,0.409
							C13.476,11.011,13.169,11.483,12.862,11.483L12.862,11.483z"/>
						<path fill="#553E31" d="M11.322,9.469c0.23,0,0.616,0.197,0.99,0.389c0.341,0.174,0.693,0.354,0.969,0.407
							c0.175,0.033,0.195,0.211,0.182,0.354c-0.034,0.359-0.324,0.814-0.601,0.814c-0.043,0-0.085-0.012-0.126-0.034
							c-0.558-0.305-1.354-0.721-1.831-0.818c-0.082-0.018-0.105-0.051-0.116-0.075c-0.081-0.183,0.192-0.648,0.379-0.966
							C11.188,9.507,11.223,9.469,11.322,9.469 M11.322,9.369c-0.107,0-0.19,0.035-0.24,0.12c-0.272,0.464-0.647,1.097-0.197,1.189
							c0.449,0.092,1.205,0.481,1.804,0.809c0.058,0.031,0.116,0.046,0.174,0.046c0.539,0,1.021-1.255,0.438-1.367
							C12.735,10.058,11.797,9.369,11.322,9.369L11.322,9.369z"/>
					</g>
				</g>
				<g>
					<g>
						<path fill="#EBE0D5" d="M13.686,10.005c-0.06,0-0.116-0.019-0.169-0.055c-0.547-0.38-1.23-0.833-1.661-0.969
							c-0.071-0.022-0.115-0.061-0.133-0.114c-0.068-0.208,0.233-0.631,0.454-0.938c0.045-0.063,0.096-0.086,0.167-0.086
							c0.229,0,0.604,0.246,0.966,0.484c0.307,0.202,0.624,0.411,0.877,0.487c0.187,0.057,0.2,0.241,0.178,0.386
							C14.312,9.555,13.981,10.005,13.686,10.005L13.686,10.005z"/>
						<path fill="#553E31" d="M12.344,7.894c0.214,0,0.582,0.241,0.938,0.476c0.311,0.204,0.631,0.415,0.891,0.493
							c0.122,0.037,0.171,0.148,0.144,0.33c-0.05,0.333-0.364,0.763-0.63,0.763c-0.05,0-0.096-0.015-0.141-0.046
							c-0.55-0.382-1.237-0.838-1.674-0.975c-0.074-0.024-0.093-0.059-0.101-0.083c-0.061-0.185,0.245-0.611,0.455-0.905
							C12.243,7.922,12.273,7.894,12.344,7.894 M12.344,7.793c-0.083,0-0.151,0.028-0.199,0.095
							c-0.305,0.426-0.725,1.006-0.304,1.142c0.421,0.133,1.105,0.586,1.647,0.962c0.063,0.044,0.13,0.063,0.197,0.063
							c0.508,0,1.051-1.124,0.516-1.288C13.654,8.602,12.786,7.793,12.344,7.793L12.344,7.793z"/>
					</g>
				</g>
				<g>
					<g>
						<path fill="#EBE0D5" d="M14.59,8.472c-0.055,0-0.107-0.017-0.155-0.05c-0.477-0.325-1.158-0.771-1.581-0.905
							c-0.067-0.021-0.108-0.055-0.125-0.104c-0.067-0.197,0.219-0.6,0.428-0.895c0.035-0.049,0.083-0.071,0.151-0.071
							c0.217,0,0.572,0.229,0.917,0.451c0.29,0.188,0.591,0.381,0.829,0.451c0.177,0.053,0.19,0.227,0.171,0.363
							C15.176,8.047,14.867,8.472,14.59,8.472L14.59,8.472z"/>
						<path fill="#553E31" d="M13.308,6.497c0.202,0,0.552,0.225,0.89,0.442c0.294,0.189,0.598,0.385,0.843,0.457
							c0.114,0.034,0.159,0.138,0.135,0.309c-0.045,0.313-0.337,0.717-0.585,0.717c-0.045,0-0.087-0.014-0.127-0.042
							c-0.761-0.519-1.268-0.808-1.595-0.911c-0.067-0.021-0.085-0.052-0.093-0.072c-0.059-0.173,0.242-0.597,0.422-0.851
							C13.215,6.521,13.242,6.497,13.308,6.497 M13.308,6.396c-0.08,0-0.146,0.027-0.191,0.092c-0.284,0.4-0.677,0.953-0.277,1.076
							c0.399,0.126,1.052,0.547,1.567,0.898c0.06,0.041,0.121,0.059,0.184,0.059c0.48,0,0.989-1.069,0.479-1.221
							C14.553,7.148,13.728,6.396,13.308,6.396L13.308,6.396z"/>
					</g>
				</g>
				<g>
					<g>
						<path fill="#EBE0D5" d="M15.438,7.008c-0.055,0-0.105-0.018-0.151-0.053c-0.478-0.354-1.072-0.778-1.444-0.912
							c-0.062-0.022-0.099-0.056-0.112-0.103c-0.055-0.19,0.242-0.572,0.438-0.825c0.031-0.041,0.072-0.06,0.129-0.06
							c0.198,0,0.526,0.232,0.843,0.458c0.266,0.189,0.541,0.385,0.764,0.461c0.156,0.054,0.164,0.21,0.145,0.331
							C15.997,6.615,15.699,7.008,15.438,7.008L15.438,7.008z"/>
						<path fill="#553E31" d="M14.298,5.105c0.183,0,0.518,0.238,0.813,0.449c0.27,0.191,0.548,0.389,0.777,0.468
							c0.098,0.033,0.136,0.126,0.11,0.275c-0.048,0.288-0.328,0.66-0.561,0.66c-0.044,0-0.084-0.015-0.122-0.043
							c-0.479-0.356-1.078-0.783-1.457-0.919c-0.067-0.024-0.077-0.058-0.08-0.069c-0.049-0.167,0.263-0.565,0.43-0.781
							C14.23,5.117,14.257,5.105,14.298,5.105 M14.298,5.006c-0.068,0-0.126,0.023-0.168,0.079
							c-0.286,0.367-0.674,0.873-0.304,1.005c0.366,0.132,0.959,0.555,1.431,0.905c0.058,0.043,0.119,0.063,0.182,0.063
							c0.444,0,0.947-0.971,0.482-1.13C15.437,5.762,14.686,5.006,14.298,5.006L14.298,5.006z"/>
					</g>
				</g>
				<g>
					<g>
						<path fill="#EBE0D5" d="M16.432,5.541c-0.04,0-0.08-0.011-0.117-0.032c-0.669-0.395-1.134-0.618-1.423-0.687
							c-0.058-0.014-0.094-0.039-0.11-0.078c-0.066-0.162,0.168-0.539,0.323-0.788c0.028-0.045,0.073-0.066,0.14-0.066
							c0.188,0,0.498,0.17,0.797,0.334c0.263,0.145,0.535,0.294,0.747,0.342c0.164,0.037,0.17,0.211,0.159,0.312
							C16.914,5.176,16.67,5.541,16.432,5.541L16.432,5.541z"/>
						<path fill="#553E31" d="M15.244,3.939c0.176,0,0.479,0.167,0.772,0.328c0.267,0.146,0.541,0.298,0.761,0.347
							c0.096,0.021,0.137,0.108,0.12,0.257c-0.03,0.271-0.262,0.62-0.466,0.62c-0.032,0-0.063-0.009-0.092-0.025
							c-0.673-0.396-1.144-0.623-1.438-0.692c-0.061-0.014-0.07-0.039-0.074-0.049c-0.058-0.138,0.179-0.516,0.319-0.742
							C15.16,3.961,15.183,3.939,15.244,3.939 M15.244,3.84c-0.079,0-0.143,0.026-0.182,0.09c-0.227,0.363-0.535,0.859-0.183,0.941
							c0.354,0.083,0.943,0.406,1.409,0.681c0.047,0.027,0.095,0.04,0.143,0.04c0.424,0,0.822-0.974,0.367-1.075
							C16.351,4.416,15.615,3.84,15.244,3.84L15.244,3.84z"/>
					</g>
				</g>
				<g>
					<g>
						<path fill="#EBE0D5" d="M17.415,4.273c-0.039,0-0.077-0.012-0.112-0.033C16.908,4,16.345,3.671,16.001,3.584
							c-0.052-0.013-0.083-0.037-0.098-0.073c-0.059-0.15,0.164-0.492,0.311-0.719c0.025-0.039,0.064-0.058,0.123-0.058
							c0.172,0,0.456,0.163,0.73,0.322c0.24,0.139,0.488,0.282,0.684,0.329c0.14,0.034,0.153,0.173,0.14,0.282
							C17.858,3.936,17.628,4.273,17.415,4.273L17.415,4.273z"/>
						<path fill="#553E31" d="M16.337,2.784c0.158,0,0.437,0.16,0.705,0.315c0.243,0.141,0.495,0.286,0.697,0.334
							c0.083,0.021,0.117,0.098,0.102,0.229c-0.029,0.245-0.241,0.562-0.426,0.562c-0.03,0-0.058-0.009-0.087-0.026
							c-0.396-0.242-0.965-0.573-1.314-0.661c-0.052-0.014-0.061-0.035-0.063-0.043c-0.049-0.127,0.182-0.483,0.306-0.674
							C16.268,2.801,16.286,2.784,16.337,2.784 M16.337,2.684c-0.071,0-0.128,0.024-0.165,0.081
							c-0.213,0.328-0.508,0.783-0.184,0.868c0.324,0.082,0.862,0.391,1.288,0.649c0.045,0.028,0.092,0.041,0.139,0.041
							c0.387,0,0.765-0.885,0.348-0.986C17.351,3.237,16.678,2.684,16.337,2.684L16.337,2.684z"/>
					</g>
				</g>
				<g>
					<g>
						<path fill="#EBE0D5" d="M18.448,3.056c-0.032,0-0.064-0.008-0.095-0.025c-0.583-0.323-0.987-0.507-1.236-0.562
							c-0.048-0.01-0.077-0.03-0.091-0.062c-0.058-0.132,0.131-0.45,0.256-0.661c0.021-0.034,0.049-0.067,0.127-0.067
							c0.162,0,0.428,0.138,0.685,0.271c0.229,0.118,0.464,0.24,0.647,0.277c0.131,0.025,0.146,0.154,0.137,0.258
							C18.854,2.737,18.646,3.056,18.448,3.056L18.448,3.056z"/>
						<path fill="#553E31" d="M17.409,1.729c0.149,0,0.41,0.135,0.661,0.266c0.231,0.12,0.471,0.244,0.662,0.283
							c0.075,0.014,0.107,0.083,0.096,0.203c-0.022,0.229-0.21,0.525-0.38,0.525c-0.024,0-0.047-0.006-0.07-0.02
							c-0.587-0.325-0.996-0.511-1.251-0.566c-0.045-0.01-0.052-0.026-0.055-0.032c-0.048-0.108,0.148-0.438,0.259-0.626
							C17.338,1.75,17.351,1.729,17.409,1.729 M17.409,1.629c-0.073,0-0.13,0.023-0.164,0.082c-0.185,0.312-0.443,0.742-0.139,0.807
							c0.304,0.066,0.816,0.331,1.223,0.557c0.04,0.021,0.08,0.032,0.119,0.032c0.367,0,0.698-0.851,0.303-0.928
							C18.368,2.102,17.732,1.629,17.409,1.629L17.409,1.629z"/>
					</g>
				</g>
				<g>
					<g>
						<path fill="#EBE0D5" d="M19.303,1.875c-0.026,0-0.052-0.008-0.076-0.022c-0.449-0.288-0.762-0.454-0.955-0.508
							c-0.101-0.148,0.058-0.39,0.162-0.55c0.032-0.007,0.064-0.011,0.096-0.011c0.179,0,0.354,0.106,0.525,0.21
							c0.176,0.106,0.358,0.217,0.504,0.255c0.092,0.024,0.1,0.117,0.091,0.191C19.625,1.632,19.457,1.875,19.303,1.875
							L19.303,1.875z"/>
						<path fill="#553E31" d="M18.521,0.797c0.11,0,0.321,0.128,0.509,0.24c0.179,0.108,0.364,0.221,0.517,0.261
							c0.018,0.005,0.068,0.018,0.054,0.136c-0.023,0.183-0.182,0.392-0.297,0.392c-0.017,0-0.033-0.005-0.049-0.015
							c-0.453-0.291-0.771-0.459-0.97-0.515c-0.009-0.002-0.025-0.008-0.028-0.016c-0.029-0.077,0.14-0.334,0.228-0.47
							C18.488,0.805,18.493,0.797,18.521,0.797 M18.521,0.696c-0.051,0-0.092,0.018-0.119,0.058
							c-0.159,0.243-0.381,0.573-0.144,0.639c0.235,0.065,0.63,0.302,0.942,0.502c0.033,0.021,0.068,0.03,0.103,0.03
							c0.286,0,0.574-0.645,0.269-0.724C19.265,1.12,18.772,0.696,18.521,0.696L18.521,0.696z"/>
					</g>
				</g>
			</g>
			<g>
				<g>
					<g>
						<path fill="#EBE0D5" d="M7.586,25.378c-0.031,0-0.063-0.009-0.094-0.024c-0.601-0.317-1.013-0.494-1.263-0.541
							c-0.048-0.01-0.078-0.029-0.093-0.062c-0.061-0.134,0.126-0.462,0.25-0.679c0.018-0.03,0.047-0.064,0.129-0.064
							c0.164,0,0.432,0.132,0.689,0.26c0.234,0.116,0.477,0.235,0.664,0.269c0.143,0.025,0.15,0.178,0.143,0.266
							C7.988,25.061,7.788,25.378,7.586,25.378L7.586,25.378z"/>
						<path fill="#553E31" d="M6.516,24.058c0.152,0,0.414,0.129,0.667,0.255c0.238,0.117,0.483,0.238,0.678,0.273
							c0.078,0.014,0.112,0.085,0.102,0.211c-0.021,0.232-0.206,0.53-0.376,0.53c-0.023,0-0.047-0.006-0.07-0.019
							c-0.613-0.323-1.019-0.497-1.275-0.545c-0.047-0.01-0.055-0.027-0.058-0.033c-0.051-0.11,0.144-0.451,0.25-0.638
							C6.439,24.08,6.453,24.058,6.516,24.058 M6.516,23.957c-0.076,0-0.135,0.025-0.17,0.086c-0.183,0.32-0.434,0.758-0.125,0.818
							c0.311,0.059,0.834,0.317,1.248,0.536c0.039,0.021,0.079,0.03,0.117,0.03c0.373,0,0.693-0.869,0.292-0.94
							C7.49,24.418,6.844,23.957,6.516,23.957L6.516,23.957z"/>
					</g>
				</g>
				<g>
					<g>
						<path fill="#EBE0D5" d="M8.433,24.135c-0.037,0-0.074-0.011-0.108-0.032c-0.414-0.262-0.932-0.572-1.256-0.659
							c-0.049-0.014-0.078-0.036-0.091-0.07c-0.055-0.144,0.164-0.474,0.309-0.692c0.024-0.036,0.061-0.054,0.115-0.054
							c0.167,0,0.443,0.164,0.711,0.323c0.23,0.137,0.469,0.277,0.657,0.327c0.132,0.033,0.145,0.165,0.131,0.27
							C8.868,23.807,8.641,24.135,8.433,24.135L8.433,24.135z"/>
						<path fill="#553E31" d="M7.401,22.678c0.153,0,0.436,0.167,0.686,0.315c0.233,0.138,0.475,0.281,0.671,0.332
							c0.077,0.021,0.108,0.093,0.093,0.216C8.818,23.8,8.6,24.085,8.433,24.085c-0.028,0-0.055-0.008-0.081-0.025
							c-0.418-0.263-0.939-0.576-1.271-0.665c-0.047-0.013-0.055-0.031-0.058-0.039c-0.045-0.12,0.182-0.463,0.304-0.646
							C7.338,22.692,7.354,22.678,7.401,22.678 M7.401,22.577c-0.067,0-0.121,0.022-0.157,0.076c-0.211,0.318-0.5,0.755-0.188,0.838
							c0.315,0.085,0.833,0.396,1.242,0.653c0.044,0.027,0.09,0.04,0.135,0.04c0.376,0,0.75-0.854,0.35-0.956
							C8.381,23.124,7.731,22.577,7.401,22.577L7.401,22.577z"/>
					</g>
				</g>
				<g>
					<g>
						<path fill="#EBE0D5" d="M9.219,22.859c-0.046,0-0.089-0.016-0.127-0.047c-0.552-0.438-0.938-0.697-1.183-0.793
							c-0.049-0.019-0.077-0.045-0.087-0.081c-0.041-0.151,0.209-0.461,0.374-0.666c0.028-0.035,0.06-0.05,0.103-0.05
							c0.163,0,0.433,0.204,0.694,0.4c0.216,0.163,0.44,0.332,0.623,0.4c0.122,0.045,0.127,0.17,0.11,0.266
							C9.681,22.54,9.433,22.859,9.219,22.859L9.219,22.859z"/>
						<path fill="#553E31" d="M8.299,21.272c0.146,0,0.422,0.208,0.664,0.391c0.22,0.165,0.446,0.336,0.636,0.407
							c0.027,0.01,0.108,0.04,0.078,0.21c-0.045,0.252-0.285,0.528-0.458,0.528c-0.035,0-0.066-0.011-0.096-0.035
							c-0.556-0.441-0.947-0.703-1.196-0.801c-0.048-0.018-0.054-0.039-0.056-0.047c-0.034-0.127,0.215-0.437,0.368-0.627
							C8.25,21.285,8.265,21.272,8.299,21.272 M8.299,21.173c-0.056,0-0.103,0.02-0.138,0.063c-0.242,0.301-0.576,0.713-0.271,0.83
							c0.303,0.118,0.786,0.48,1.17,0.785c0.05,0.04,0.104,0.058,0.158,0.058c0.368,0,0.798-0.791,0.415-0.933
							C9.234,21.827,8.621,21.173,8.299,21.173L8.299,21.173z"/>
					</g>
				</g>
				<g>
					<g>
						<path fill="#EBE0D5" d="M10.156,21.47c-0.039,0-0.077-0.012-0.114-0.033c-0.632-0.381-1.072-0.6-1.345-0.669
							c-0.056-0.013-0.089-0.037-0.104-0.074c-0.063-0.153,0.162-0.506,0.311-0.739c0.028-0.045,0.069-0.064,0.132-0.064
							c0.179,0,0.473,0.165,0.757,0.325c0.249,0.14,0.507,0.284,0.708,0.331c0.146,0.034,0.162,0.178,0.148,0.293
							C10.618,21.117,10.379,21.47,10.156,21.47L10.156,21.47z"/>
						<path fill="#553E31" d="M9.036,19.939c0.166,0,0.454,0.162,0.732,0.318c0.252,0.142,0.513,0.288,0.722,0.337
							c0.089,0.021,0.125,0.101,0.109,0.238c-0.029,0.256-0.249,0.586-0.443,0.586c-0.03,0-0.06-0.008-0.088-0.025
							c-0.637-0.383-1.081-0.604-1.36-0.675c-0.056-0.013-0.064-0.035-0.068-0.044c-0.052-0.129,0.173-0.482,0.308-0.696
							C8.961,19.958,8.98,19.939,9.036,19.939 M9.036,19.84c-0.075,0-0.135,0.025-0.173,0.085c-0.216,0.34-0.516,0.811-0.179,0.892
							c0.335,0.085,0.893,0.398,1.332,0.663c0.046,0.027,0.093,0.04,0.14,0.04c0.403,0,0.79-0.922,0.356-1.022
							C10.086,20.397,9.39,19.84,9.036,19.84L9.036,19.84z"/>
					</g>
				</g>
				<g>
					<g>
						<path fill="#EBE0D5" d="M11.195,20.124c-0.045,0-0.089-0.012-0.131-0.033c-0.508-0.269-1.234-0.636-1.67-0.717
							c-0.068-0.014-0.112-0.043-0.134-0.09C9.176,19.1,9.415,18.678,9.59,18.37c0.038-0.067,0.096-0.095,0.185-0.095
							c0.22,0,0.573,0.174,0.916,0.343c0.312,0.154,0.635,0.313,0.883,0.355c0.202,0.038,0.214,0.251,0.202,0.374
							C11.743,19.697,11.469,20.124,11.195,20.124L11.195,20.124z"/>
						<path fill="#553E31" d="M9.774,18.325c0.208,0,0.557,0.172,0.894,0.338c0.315,0.155,0.642,0.316,0.896,0.36
							c0.156,0.028,0.174,0.189,0.162,0.319c-0.029,0.322-0.285,0.731-0.53,0.731c-0.037,0-0.072-0.01-0.107-0.028
							c-0.813-0.429-1.348-0.658-1.683-0.721c-0.069-0.014-0.09-0.042-0.099-0.063c-0.074-0.161,0.177-0.604,0.331-0.876
							C9.654,18.358,9.685,18.325,9.774,18.325 M9.774,18.226c-0.101,0-0.178,0.032-0.224,0.111
							c-0.24,0.424-0.573,1.006-0.165,1.086c0.41,0.077,1.104,0.421,1.655,0.712c0.052,0.027,0.104,0.039,0.154,0.039
							c0.493,0,0.921-1.149,0.387-1.249C11.066,18.836,10.209,18.226,9.774,18.226L9.774,18.226z"/>
					</g>
				</g>
				<g>
					<g>
						<path fill="#EBE0D5" d="M12.07,18.788c-0.066,0-0.128-0.021-0.184-0.063c-0.797-0.602-1.354-0.954-1.702-1.079
							c-0.074-0.027-0.118-0.068-0.135-0.127c-0.065-0.226,0.271-0.662,0.517-0.981c0.038-0.05,0.089-0.073,0.159-0.073
							c0.24,0,0.631,0.278,1.008,0.547c0.312,0.222,0.633,0.45,0.892,0.54c0.189,0.065,0.2,0.255,0.176,0.401
							C12.738,18.321,12.383,18.788,12.07,18.788L12.07,18.788z"/>
						<path fill="#553E31" d="M10.726,16.514c0.224,0,0.607,0.273,0.979,0.538c0.313,0.223,0.638,0.454,0.904,0.547
							c0.125,0.043,0.173,0.159,0.142,0.346c-0.059,0.347-0.398,0.794-0.681,0.794c-0.056,0-0.105-0.018-0.153-0.054
							c-0.801-0.604-1.362-0.96-1.715-1.086c-0.078-0.028-0.097-0.067-0.104-0.094c-0.059-0.201,0.282-0.645,0.508-0.937
							C10.635,16.53,10.672,16.514,10.726,16.514 M10.726,16.414c-0.081,0-0.149,0.028-0.199,0.093
							c-0.334,0.434-0.791,1.027-0.358,1.186c0.436,0.156,1.135,0.654,1.688,1.072c0.067,0.051,0.14,0.074,0.214,0.074
							c0.524,0,1.119-1.146,0.571-1.335C12.072,17.306,11.185,16.414,10.726,16.414L10.726,16.414z"/>
					</g>
				</g>
				<g>
					<g>
						<path fill="#EBE0D5" d="M13.082,17.148c-0.057,0-0.111-0.016-0.164-0.047c-0.608-0.361-1.366-0.79-1.835-0.901
							c-0.08-0.02-0.13-0.058-0.152-0.115c-0.088-0.222,0.223-0.708,0.429-1.03c0.04-0.064,0.102-0.094,0.193-0.094
							c0.247,0,0.648,0.225,1.037,0.441c0.34,0.19,0.691,0.387,0.966,0.45c0.224,0.052,0.23,0.286,0.215,0.421
							C13.726,16.667,13.398,17.148,13.082,17.148L13.082,17.148z"/>
						<path fill="#553E31" d="M11.553,15.011c0.234,0,0.63,0.222,1.013,0.436c0.343,0.191,0.697,0.39,0.979,0.455
							c0.177,0.041,0.193,0.222,0.177,0.366c-0.042,0.366-0.352,0.831-0.639,0.831c-0.048,0-0.094-0.014-0.139-0.04
							c-0.611-0.363-1.374-0.795-1.848-0.906c-0.084-0.021-0.108-0.059-0.118-0.085c-0.079-0.198,0.236-0.691,0.425-0.986
							C11.423,15.048,11.458,15.011,11.553,15.011 M11.553,14.911c-0.103,0-0.184,0.034-0.235,0.116
							c-0.297,0.465-0.704,1.106-0.246,1.222c0.459,0.108,1.22,0.538,1.821,0.896c0.063,0.037,0.126,0.054,0.189,0.054
							c0.55,0,1.073-1.257,0.484-1.395C12.982,15.669,12.033,14.911,11.553,14.911L11.553,14.911z"/>
					</g>
				</g>
				<g>
					<g>
						<path fill="#EBE0D5" d="M13.998,15.558c-0.056,0-0.109-0.015-0.161-0.045c-0.561-0.326-1.361-0.771-1.839-0.885
							c-0.079-0.019-0.128-0.055-0.151-0.109c-0.088-0.214,0.201-0.679,0.412-1.018c0.046-0.074,0.108-0.104,0.201-0.104
							c0.248,0,0.649,0.22,1.037,0.433c0.34,0.186,0.691,0.378,0.963,0.438c0.224,0.05,0.232,0.283,0.218,0.418
							C14.635,15.078,14.313,15.558,13.998,15.558L13.998,15.558z"/>
						<path fill="#553E31" d="M12.46,13.446c0.235,0,0.631,0.217,1.013,0.426c0.343,0.188,0.697,0.382,0.977,0.443
							c0.177,0.039,0.194,0.22,0.179,0.364c-0.04,0.365-0.345,0.828-0.63,0.828c-0.047,0-0.092-0.013-0.137-0.039
							c-0.563-0.327-1.367-0.774-1.852-0.89c-0.083-0.02-0.106-0.055-0.116-0.08c-0.079-0.189,0.214-0.66,0.414-0.982
							C12.328,13.484,12.363,13.446,12.46,13.446 M12.46,13.347c-0.104,0-0.186,0.034-0.237,0.117
							c-0.289,0.465-0.691,1.105-0.236,1.213c0.459,0.108,1.222,0.528,1.825,0.879c0.062,0.036,0.124,0.053,0.187,0.053
							c0.547,0,1.062-1.26,0.473-1.391C13.893,14.091,12.941,13.347,12.46,13.347L12.46,13.347z"/>
					</g>
				</g>
				<g>
					<g>
						<path fill="#EBE0D5" d="M14.873,14.017c-0.059,0-0.115-0.018-0.168-0.052c-0.839-0.544-1.421-0.857-1.779-0.959
							c-0.077-0.021-0.125-0.06-0.146-0.115c-0.079-0.218,0.228-0.671,0.451-1.002c0.043-0.063,0.1-0.09,0.182-0.09
							c0.243,0,0.639,0.24,1.021,0.473c0.329,0.2,0.67,0.406,0.938,0.478c0.214,0.057,0.217,0.28,0.2,0.408
							C15.522,13.536,15.184,14.017,14.873,14.017L14.873,14.017z"/>
						<path fill="#553E31" d="M13.413,11.849c0.229,0,0.619,0.236,0.996,0.466c0.332,0.201,0.676,0.41,0.95,0.482
							c0.167,0.045,0.182,0.218,0.163,0.354c-0.047,0.359-0.362,0.814-0.649,0.814c-0.05,0-0.096-0.014-0.141-0.043
							c-0.844-0.547-1.43-0.862-1.793-0.966c-0.081-0.022-0.103-0.059-0.112-0.084c-0.07-0.193,0.24-0.652,0.449-0.961
							C13.296,11.883,13.329,11.849,13.413,11.849 M13.413,11.749c-0.094,0-0.169,0.031-0.22,0.106
							c-0.306,0.452-0.728,1.073-0.281,1.198c0.447,0.127,1.183,0.575,1.766,0.953c0.063,0.041,0.13,0.06,0.195,0.06
							c0.537,0,1.085-1.213,0.512-1.366C14.811,12.549,13.884,11.749,13.413,11.749L13.413,11.749z"/>
					</g>
				</g>
				<g>
					<g>
						<path fill="#EBE0D5" d="M15.844,12.397c-0.051,0-0.101-0.014-0.148-0.04c-0.55-0.298-1.334-0.704-1.8-0.804
							c-0.078-0.016-0.127-0.049-0.15-0.103c-0.092-0.207,0.191-0.685,0.379-1.001c0.038-0.064,0.101-0.094,0.195-0.094
							c0.24,0,0.629,0.199,1.004,0.392c0.332,0.171,0.676,0.348,0.94,0.399c0.221,0.041,0.233,0.269,0.222,0.4
							C16.45,11.93,16.147,12.397,15.844,12.397L15.844,12.397z"/>
						<path fill="#553E31" d="M14.319,10.406c0.229,0,0.611,0.196,0.981,0.387c0.335,0.172,0.682,0.351,0.954,0.404
							c0.173,0.031,0.193,0.205,0.181,0.346c-0.032,0.354-0.317,0.804-0.592,0.804c-0.042,0-0.084-0.011-0.125-0.033
							c-0.552-0.299-1.34-0.708-1.814-0.809c-0.08-0.017-0.103-0.05-0.113-0.074c-0.081-0.184,0.205-0.666,0.376-0.955
							C14.187,10.443,14.221,10.406,14.319,10.406 M14.319,10.306c-0.105,0-0.188,0.035-0.238,0.119
							c-0.271,0.456-0.642,1.087-0.196,1.178c0.445,0.095,1.191,0.477,1.786,0.799c0.058,0.031,0.115,0.046,0.173,0.046
							c0.534,0,1.009-1.242,0.43-1.349C15.715,10.988,14.788,10.306,14.319,10.306L14.319,10.306z"/>
					</g>
				</g>
				<g>
					<g>
						<path fill="#EBE0D5" d="M16.65,10.922c-0.059,0-0.113-0.019-0.165-0.054c-0.509-0.358-1.206-0.815-1.633-0.957
							c-0.071-0.022-0.113-0.059-0.131-0.111c-0.067-0.206,0.233-0.622,0.453-0.925C15.212,8.824,15.263,8.8,15.334,8.8
							c0.227,0,0.596,0.243,0.952,0.478c0.3,0.197,0.609,0.401,0.856,0.477c0.183,0.056,0.196,0.235,0.175,0.377
							C17.266,10.479,16.941,10.922,16.65,10.922L16.65,10.922z"/>
						<path fill="#553E31" d="M15.334,8.85c0.212,0,0.574,0.238,0.925,0.47c0.302,0.199,0.615,0.404,0.869,0.482
							c0.119,0.036,0.166,0.145,0.14,0.322c-0.048,0.326-0.356,0.748-0.617,0.748c-0.049,0-0.093-0.015-0.136-0.045
							c-0.513-0.36-1.214-0.82-1.647-0.963c-0.072-0.023-0.09-0.057-0.098-0.08c-0.06-0.183,0.257-0.619,0.446-0.88
							C15.234,8.879,15.264,8.85,15.334,8.85 M15.334,8.75c-0.083,0-0.151,0.028-0.199,0.096c-0.299,0.412-0.711,0.98-0.298,1.113
							c0.414,0.137,1.089,0.576,1.62,0.95c0.063,0.043,0.128,0.063,0.193,0.063c0.5,0,1.034-1.105,0.507-1.266
							C16.621,9.542,15.771,8.75,15.334,8.75L15.334,8.75z"/>
					</g>
				</g>
				<g>
					<g>
						<path fill="#EBE0D5" d="M17.477,9.359c-0.054,0-0.104-0.017-0.151-0.049c-0.472-0.322-1.146-0.765-1.561-0.89
							c-0.066-0.021-0.106-0.055-0.123-0.104c-0.065-0.196,0.23-0.608,0.426-0.882c0.034-0.048,0.081-0.07,0.148-0.07
							c0.213,0,0.562,0.225,0.898,0.442c0.288,0.186,0.585,0.378,0.822,0.447c0.171,0.051,0.185,0.221,0.165,0.354
							C18.054,8.939,17.75,9.359,17.477,9.359L17.477,9.359z"/>
						<path fill="#553E31" d="M16.216,7.415c0.198,0,0.54,0.221,0.871,0.435c0.291,0.188,0.591,0.382,0.835,0.453
							c0.11,0.033,0.154,0.133,0.13,0.299c-0.045,0.309-0.331,0.707-0.575,0.707c-0.044,0-0.084-0.013-0.123-0.04
							C16.879,8.945,16.2,8.5,15.78,8.373c-0.067-0.021-0.084-0.051-0.091-0.071c-0.058-0.172,0.24-0.589,0.418-0.838
							C16.125,7.439,16.151,7.415,16.216,7.415 M16.216,7.315c-0.079,0-0.144,0.027-0.189,0.091
							c-0.282,0.395-0.67,0.939-0.276,1.063c0.396,0.119,1.038,0.535,1.547,0.883c0.058,0.04,0.118,0.058,0.18,0.058
							c0.472,0,0.975-1.055,0.474-1.202C17.439,8.057,16.63,7.315,16.216,7.315L16.216,7.315z"/>
					</g>
				</g>
				<g>
					<g>
						<path fill="#EBE0D5" d="M18.187,7.832c-0.055,0-0.105-0.018-0.151-0.053c-0.502-0.373-1.063-0.771-1.416-0.896
							c-0.061-0.021-0.096-0.055-0.109-0.101c-0.054-0.184,0.235-0.558,0.426-0.805c0.032-0.041,0.073-0.061,0.131-0.061
							c0.197,0,0.52,0.229,0.832,0.451c0.259,0.184,0.526,0.374,0.742,0.448c0.155,0.054,0.164,0.209,0.144,0.33
							C18.733,7.448,18.441,7.832,18.187,7.832L18.187,7.832z"/>
						<path fill="#553E31" d="M17.066,5.967c0.181,0,0.512,0.235,0.803,0.442c0.262,0.186,0.532,0.378,0.756,0.455
							c0.098,0.033,0.135,0.126,0.109,0.273c-0.047,0.281-0.321,0.644-0.548,0.644c-0.044,0-0.084-0.014-0.122-0.042
							c-0.529-0.395-1.069-0.776-1.429-0.903c-0.065-0.023-0.074-0.056-0.078-0.067c-0.047-0.16,0.244-0.535,0.419-0.761
							C16.998,5.979,17.024,5.967,17.066,5.967 M17.066,5.867c-0.069,0-0.127,0.024-0.17,0.08C16.619,6.306,16.239,6.8,16.603,6.93
							c0.36,0.128,0.941,0.547,1.402,0.89c0.058,0.043,0.119,0.063,0.182,0.063c0.44,0,0.93-0.954,0.471-1.112
							C18.185,6.606,17.449,5.867,17.066,5.867L17.066,5.867z"/>
					</g>
				</g>
				<g>
					<g>
						<path fill="#EBE0D5" d="M18.959,6.25c-0.04,0-0.08-0.011-0.117-0.032c-0.427-0.249-1.037-0.59-1.4-0.675
							c-0.057-0.014-0.093-0.039-0.108-0.079c-0.066-0.163,0.163-0.529,0.314-0.771c0.028-0.046,0.073-0.066,0.14-0.066
							c0.187,0,0.491,0.167,0.787,0.329c0.258,0.142,0.525,0.288,0.734,0.336c0.162,0.035,0.168,0.206,0.157,0.305
							C19.434,5.891,19.193,6.25,18.959,6.25L18.959,6.25z"/>
						<path fill="#553E31" d="M17.787,4.676c0.174,0,0.473,0.164,0.763,0.323c0.262,0.144,0.531,0.292,0.748,0.341
							c0.095,0.021,0.134,0.104,0.118,0.25C19.388,5.856,19.16,6.2,18.959,6.2c-0.032,0-0.063-0.009-0.092-0.025
							c-0.43-0.251-1.044-0.594-1.414-0.681c-0.06-0.014-0.07-0.039-0.074-0.049c-0.057-0.14,0.183-0.521,0.312-0.727
							C17.703,4.697,17.726,4.676,17.787,4.676 M17.787,4.576c-0.079,0-0.143,0.026-0.182,0.09
							c-0.222,0.354-0.523,0.843-0.176,0.926c0.348,0.081,0.928,0.401,1.387,0.669C18.863,6.288,18.911,6.3,18.959,6.3
							c0.419,0,0.81-0.959,0.36-1.058C18.877,5.142,18.154,4.576,17.787,4.576L17.787,4.576z"/>
					</g>
				</g>
				<g>
					<g>
						<path fill="#EBE0D5" d="M19.66,4.811c-0.038,0-0.074-0.012-0.109-0.033c-0.43-0.262-0.965-0.572-1.295-0.655
							c-0.051-0.013-0.083-0.037-0.097-0.072c-0.058-0.148,0.164-0.487,0.312-0.711c0.025-0.04,0.063-0.058,0.121-0.058
							c0.171,0,0.452,0.162,0.724,0.318c0.239,0.139,0.486,0.281,0.682,0.328c0.138,0.033,0.151,0.17,0.138,0.278
							C20.104,4.473,19.873,4.811,19.66,4.811L19.66,4.811z"/>
						<path fill="#553E31" d="M18.592,3.331c0.157,0,0.433,0.158,0.699,0.313c0.242,0.14,0.492,0.284,0.694,0.333
							c0.082,0.02,0.115,0.095,0.101,0.224c-0.029,0.244-0.241,0.56-0.426,0.56c-0.028,0-0.056-0.008-0.084-0.024
							c-0.433-0.264-0.972-0.577-1.308-0.661c-0.052-0.014-0.06-0.034-0.063-0.043c-0.049-0.124,0.183-0.476,0.307-0.666
							C18.524,3.348,18.542,3.331,18.592,3.331 M18.592,3.23c-0.07,0-0.127,0.024-0.163,0.081c-0.215,0.327-0.509,0.776-0.185,0.859
							c0.323,0.081,0.855,0.391,1.28,0.649c0.045,0.027,0.09,0.04,0.136,0.04c0.385,0,0.763-0.881,0.349-0.981
							C19.598,3.779,18.93,3.23,18.592,3.23L18.592,3.23z"/>
					</g>
				</g>
				<g>
					<g>
						<path fill="#EBE0D5" d="M20.443,3.414c-0.032,0-0.064-0.009-0.095-0.026c-0.438-0.24-0.925-0.494-1.23-0.557
							c-0.047-0.011-0.076-0.031-0.09-0.063c-0.058-0.133,0.124-0.438,0.256-0.662c0.02-0.031,0.047-0.063,0.123-0.063
							c0.159,0,0.421,0.136,0.675,0.268c0.229,0.119,0.466,0.242,0.649,0.277c0.14,0.029,0.146,0.178,0.137,0.265
							C20.843,3.104,20.642,3.414,20.443,3.414C20.443,3.414,20.444,3.414,20.443,3.414z"/>
						<path fill="#553E31" d="M19.407,2.092c0.146,0,0.403,0.134,0.651,0.262c0.232,0.121,0.473,0.245,0.662,0.282
							c0.078,0.017,0.11,0.087,0.099,0.211c-0.025,0.246-0.222,0.517-0.376,0.517c-0.023,0-0.047-0.006-0.071-0.02
							c-0.439-0.242-0.932-0.498-1.241-0.562c-0.047-0.011-0.054-0.027-0.057-0.034c-0.048-0.11,0.141-0.428,0.258-0.624
							C19.339,2.112,19.351,2.092,19.407,2.092 M19.407,1.992c-0.071,0-0.127,0.023-0.161,0.08
							c-0.187,0.314-0.441,0.739-0.138,0.808c0.304,0.063,0.813,0.33,1.216,0.552c0.04,0.022,0.08,0.032,0.119,0.032
							c0.366,0,0.693-0.845,0.298-0.926C20.359,2.464,19.727,1.992,19.407,1.992L19.407,1.992z"/>
					</g>
				</g>
				<g>
					<g>
						<path fill="#EBE0D5" d="M21.084,2.077c-0.027,0-0.052-0.008-0.077-0.023c-0.315-0.201-0.71-0.44-0.954-0.507
							c-0.1-0.15,0.062-0.393,0.168-0.552c0.029-0.007,0.06-0.011,0.09-0.011c0.176,0,0.353,0.106,0.524,0.21
							c0.177,0.106,0.359,0.217,0.506,0.255c0.092,0.024,0.101,0.117,0.091,0.191C21.407,1.833,21.238,2.077,21.084,2.077z"/>
						<path fill="#553E31" d="M20.303,0.998c0.108,0,0.32,0.127,0.507,0.239c0.18,0.108,0.365,0.22,0.519,0.261
							c0.018,0.005,0.069,0.018,0.054,0.136c-0.023,0.184-0.182,0.393-0.298,0.393c-0.018,0-0.033-0.005-0.05-0.015
							c-0.319-0.203-0.718-0.445-0.967-0.514c-0.01-0.002-0.026-0.008-0.029-0.017c-0.029-0.078,0.142-0.336,0.231-0.471
							C20.273,1.005,20.278,0.998,20.303,0.998 M20.303,0.898c-0.05,0-0.09,0.017-0.116,0.057c-0.162,0.244-0.385,0.572-0.146,0.64
							c0.236,0.064,0.629,0.303,0.94,0.501c0.034,0.021,0.068,0.031,0.104,0.031c0.286,0,0.576-0.646,0.27-0.726
							C21.047,1.32,20.552,0.898,20.303,0.898L20.303,0.898z"/>
					</g>
				</g>
			</g>
		</g>
		
			<path fill="#CDB8AB" stroke="#553E31" stroke-width="0.7577" stroke-linecap="round" stroke-linejoin="round" stroke-miterlimit="10" d="
			M6.054,29.631c0.274,0.189-0.784,1.278-1.178,1.75c-0.396,0.472-1.381,0.147-2.051-0.104c-0.668-0.252-1.535-0.446-1.232-0.969
			c0.303-0.521,0.733-0.852,0.967-1.3c0.233-0.45,0.54-0.381,1.047-0.143C4.115,29.102,5.783,29.44,6.054,29.631z"/>
		
			<path fill="#CDB8AB" stroke="#553E31" stroke-width="0.7577" stroke-linecap="round" stroke-linejoin="round" stroke-miterlimit="10" d="
			M7.578,28.791c-0.753,0.62-0.75,1.119-1.241,0.9c-0.485-0.223-1.212-0.489-1.806-0.531c-0.596-0.042-1.251-0.478-1.828-0.654
			c-0.271-0.08-0.273-0.331,0.231-0.625c0.505-0.296,0.575-0.414,0.902-0.889c0.422-0.615,0.542-1.301,0.54-1.955
			c-0.001-0.96,0.28-3.272,0.656-3.941c0.377-0.67,1.751,5.869,2.617,4.883c0.777-0.889,4.66-5.495,6.382-6.713
			c1.725-1.22,3.625-3.917,4.013-4.625c0.475-0.861,2.135-4.179,3.481-5.212c0.845-0.656,2.429-1.567,3.358-1.783
			c0.934-0.215,1.057-0.098,1.466,0.146c0.452-0.191,0.67-0.334,1.526-0.372c1.645-0.077,4.088,1.41,3.696,3.284
			c-0.604-0.994-0.989-1.316-2.032-1.453c-1.044-0.135-3.994,0.709-5.021,2.075c-1.026,1.367-4.738,6.737-6.056,7.896
			c-1.317,1.156-6.566,6.536-8.398,7.4C9.21,27.024,8.335,28.171,7.578,28.791z"/>
		
			<path fill="none" stroke="#553E31" stroke-width="0.5412" stroke-linecap="round" stroke-linejoin="round" stroke-miterlimit="10" d="
			M6.45,28.403c-0.458-0.176-0.47-0.142-0.955-0.247c-0.483-0.104-0.569-0.283-0.764-0.533"/>
		
			<path fill="none" stroke="#553E31" stroke-width="0.5412" stroke-linecap="round" stroke-linejoin="round" stroke-miterlimit="10" d="
			M4.871,27.305c0.163-0.42,0.479-1.154,0.567-1.449c0.089-0.299,0.235,0.033,0.248,0.372c0.025,0.696,1.003,0.853,1.213,1.219
			c0.209,0.365-0.45,0.693-0.571,0.874"/>
		
			<path fill="none" stroke="#553E31" stroke-width="0.5412" stroke-linecap="round" stroke-linejoin="round" stroke-miterlimit="10" d="
			M19.128,16.207c1.396-1.417,4.858-5.584,7.273-6.229"/>
		
			<path fill="none" stroke="#553E31" stroke-width="0.5412" stroke-linecap="round" stroke-linejoin="round" stroke-miterlimit="10" d="
			M21.819,10.854c0.409-0.367,3.184-2.402,4.622-2.97"/>
		
			<path fill="#CDB8AB" stroke="#553E31" stroke-width="0.7577" stroke-linecap="round" stroke-linejoin="round" stroke-miterlimit="10" d="
			M5.484,21.527"/>
		
			<path fill="#CDB8AB" stroke="#553E31" stroke-width="0.5412" stroke-linecap="round" stroke-linejoin="round" stroke-miterlimit="10" d="
			M10.935,24.475c0,0,4.097-3.364,6.008-5.616"/>
	</g>
</g>
<g id="Layer_3">
</g>
</svg>
