<?xml version="1.0" encoding="utf-8"?>
<!-- Generator: Adobe Illustrator 16.0.0, SVG Export Plug-In . SVG Version: 6.00 Build 0)  -->
<!DOCTYPE svg PUBLIC "-//W3C//DTD SVG 1.1//EN" "http://www.w3.org/Graphics/SVG/1.1/DTD/svg11.dtd">
<svg version="1.1" xmlns="http://www.w3.org/2000/svg" xmlns:xlink="http://www.w3.org/1999/xlink" x="0px" y="0px" width="32px"
	 height="32px" viewBox="0 0 32 32" enable-background="new 0 0 32 32" xml:space="preserve">
<g id="Layer_1">
	<g>
		<polygon fill="#EBE0D5" stroke="#553E31" stroke-linecap="round" stroke-linejoin="round" stroke-miterlimit="10" points="
			24.555,5.644 24.517,1.789 20.367,0.75 14.211,2.094 13.507,6.544 15.866,9.631 		"/>
		<polyline fill="none" stroke="#553E31" stroke-linecap="round" stroke-linejoin="round" stroke-miterlimit="10" points="
			24.517,1.789 18.096,3.154 14.211,2.094 		"/>
		
			<line fill="none" stroke="#553E31" stroke-linecap="round" stroke-linejoin="round" stroke-miterlimit="10" x1="18.096" y1="3.154" x2="17.688" y2="7.464"/>
		<g>
			<path fill="#EBE0D5" stroke="#553E31" stroke-linecap="round" stroke-linejoin="round" stroke-miterlimit="10" d="M4.865,14.942
				c-1.391-2.518,0.02-5.251,0.012-5.357c-0.01-0.103-0.584-0.314-1.145-0.319C3.176,9.264,2.84,8.953,3.141,8.875
				c0.307-0.079,0.594-0.339,0.363-0.502c-0.23-0.161-0.777-0.401-0.977-0.191C2.328,8.393,1.676,8.376,1.42,8.279
				C1.164,8.181,1.594,7.416,1.75,7.402C1.902,7.39,1.813,6.717,1.988,6.573C2.16,6.428,1.293,6.424,0.916,6.354
				C0.539,6.281,0.963,5.801,1.363,5.792S1.961,5.53,1.936,5.219c-0.027-0.312-0.871-0.395-1.1-0.531
				C0.607,4.551,0.98,4.181,1.252,4.104c0.273-0.077,0.652,0.021,0.953-0.083c0.301-0.105,0.258-0.597-0.043-0.859
				C1.861,2.901,1.77,2.544,1.859,2.563c0.09,0.017,0.75-0.327,0.586-0.443C2.279,2.003,1.553,1.415,1.818,1.286
				C2.084,1.158,2.994,1.653,3.074,1.49c0.078-0.164,0.002-1.097,0.164-0.98c0.164,0.115,1.014,1.373,1.123,1.206
				c0.111-0.166,0.578-0.129,0.6,0.13c0.023,0.26-0.113,0.847,0.072,0.83C5.215,2.663,5.328,2.521,5.52,2.583
				c0.189,0.063,0.434,0.379,0.434,0.379l0.865-0.754L6.605,3.716l0.707-0.063L7.076,4.17l0.807,0.349L6.678,5.303l0.391,0.201
				L6.955,6.01l0.613,0.284L6.652,6.819l1.031,0.823c0,0-0.564,0.285-1.289,0.505c0.762,0.611,1.834,1.538,2.816,3.28
				c1.305,2.312,1.088,3.699,1.088,3.699L4.865,14.942z"/>
			<path fill="#EBE0D5" stroke="#553E31" stroke-linecap="round" stroke-linejoin="round" stroke-miterlimit="10" d="M6.641,15.428
				c0,0-0.605-2.382-0.727-3.833"/>
			<path fill="#EBE0D5" stroke="#553E31" stroke-linecap="round" stroke-linejoin="round" stroke-miterlimit="10" d="M9.271,15.428
				c-0.881-2.161-0.576-1.707-2-4.412"/>
			<polyline fill="none" stroke="#553E31" stroke-linecap="round" stroke-linejoin="round" stroke-miterlimit="10" points="
				31.18,9.955 30.111,9.472 29.461,9.779 28.32,8.988 			"/>
			<polyline fill="#EBE0D5" stroke="#553E31" stroke-linecap="round" stroke-linejoin="round" stroke-miterlimit="10" points="
				17.885,7.154 26.729,5.009 30.707,5.804 29.695,10.251 22.813,14.252 			"/>
			<polyline fill="#EBE0D5" stroke="#553E31" stroke-linecap="round" stroke-linejoin="round" stroke-miterlimit="10" points="
				17.83,12.773 17.885,7.154 21.338,8.469 21.32,12.895 			"/>
			<polygon fill="#EBE0D5" stroke="#553E31" stroke-linecap="round" stroke-linejoin="round" stroke-miterlimit="10" points="
				18.473,13.806 10.469,15.625 8.721,8.387 16.607,6.617 			"/>
			<path fill="none" stroke="#553E31" stroke-linecap="round" stroke-linejoin="round" stroke-miterlimit="10" d="M16.982,8.301
				c0.127,0.57-1.527,1.427-3.695,1.914c-2.168,0.487-4.029,0.417-4.156-0.153"/>
			<path fill="#CDB8AB" stroke="#553E31" stroke-linecap="round" stroke-linejoin="round" stroke-miterlimit="10" d="M4.072,13.806
				l2.113,8.292l-0.25,8.368c0,0,3.404,0.202,5.791,1.034c2.514-1.288,7.229-3.834,10.072-4.352
				c2.846-0.518,4.516-0.571,4.516-0.571l0.891-7.511l4.029-8.863l-1.695,0.299l-1.717,0.546l-1.17-0.219l-2.387,1.139l-1.432-0.322
				l-2.34,1.168l-1.547-0.297l-2.086,1.234l-1.852-0.229l-1.379,0.994l-1.338-0.263l-1.58,0.274L9.658,13.92l-1.896,0.104
				L6.9,13.573l-1.531,0.304L4.072,13.806z"/>
			<path fill="none" stroke="#553E31" stroke-linecap="round" stroke-linejoin="round" stroke-miterlimit="10" d="M11.727,31.5
				l-0.209-5.257c0,0-0.426-7.864,0.775-11.991"/>
			
				<line fill="none" stroke="#553E31" stroke-linecap="round" stroke-linejoin="round" stroke-miterlimit="10" x1="21.338" y1="8.469" x2="30.707" y2="5.804"/>
			
				<ellipse transform="matrix(0.9757 -0.219 0.219 0.9757 -1.3506 2.9655)" fill="#EBE0D5" stroke="#553E31" stroke-linecap="round" stroke-linejoin="round" stroke-miterlimit="10" cx="12.699" cy="7.574" rx="4.021" ry="1.059"/>
		</g>
	</g>
</g>
<g id="Layer_3">
</g>
</svg>
