<?xml version="1.0" encoding="utf-8"?>
<!-- Generator: Adobe Illustrator 16.0.0, SVG Export Plug-In . SVG Version: 6.00 Build 0)  -->
<!DOCTYPE svg PUBLIC "-//W3C//DTD SVG 1.1//EN" "http://www.w3.org/Graphics/SVG/1.1/DTD/svg11.dtd">
<svg version="1.1" xmlns="http://www.w3.org/2000/svg" xmlns:xlink="http://www.w3.org/1999/xlink" x="0px" y="0px" width="32px"
	 height="32px" viewBox="0 0 32 32" enable-background="new 0 0 32 32" xml:space="preserve">
<g id="Layer_1">
	<g>
		<path fill="#EBE0D5" stroke="#553E31" stroke-width="0.9746" stroke-miterlimit="10" d="M5.954,10.032
			c0,0-1.452,0.501-1.584,1.875c-0.134,1.372-0.389,2.09,1.297,4.006c1.686,1.915,3.725,3.615,4.692,4.165
			c0.965,0.553,1.611,1.181,3.49,2.125c1.881,0.944,6.459,2.691,7.983,2.925c1.526,0.234,2.596,0.335,3.95,0.526
			c1.351,0.194,2.085,0.306,3.199,1.011c1.112,0.706,1.027,1.075,1.444,1.112c0.418,0.035,0.864-0.188,0.989-0.729
			c0.124-0.538,0.191-0.971-0.205-1.361c-0.395-0.392-0.484-0.8-0.82-1.445c-0.341-0.647-2.33-2.692-3.286-3.421
			c-0.953-0.728-1.55-0.658-4.527-3.828c-2.975-3.172-5.582-6.643-6.37-7.573c-0.786-0.93-2.007-2.497-2.945-2.775
			c-0.938-0.277-1.851-0.4-2.846,0.628C9.42,8.296,6.131,9.923,5.954,10.032z"/>
		
			<path fill="#CDB8AB" stroke="#553E31" stroke-width="0.8711" stroke-linecap="round" stroke-linejoin="round" stroke-miterlimit="10" d="
			M11.541,7.51c0,0-0.265,0.307,0.094,0.919c0.354,0.606,0.548,0.837,0.627,0.855c0.079,0.02-0.933-0.135-1.252,0.292
			c-0.315,0.428-0.444,0.739-1.006,1.03c-0.561,0.292-0.812,0.181-0.887,0.507c-0.074,0.325-0.151,0.544-0.611,0.622
			c-0.457,0.079-1.205,0.326-1.445,0.666c-0.244,0.339-0.54,0.667-0.829,0.729c-0.288,0.063-0.34-0.315-0.158-0.51
			c0.184-0.195,0.453-0.293,0.249-0.603c-0.206-0.309-0.253-0.82-0.507-1.039c0.289-0.169,0.521,0.015,0.742-0.224
			s0.426-0.534,0.426-0.534l2.186-1.02l0.125-0.184L10,8.234c0,0,0.045-0.199,0.468-0.364C10.891,7.702,11.201,7.67,11.541,7.51z"/>
		<path fill="#CDB8AB" stroke="#553E31" stroke-width="0.7295" stroke-miterlimit="10" d="M8.358,9.976
			c0.424-0.316,0.846-0.319,1.087-0.577c0.241-0.257,0.57-0.606,0.544-0.88C9.961,8.242,9.886,8.182,9.886,8.182
			S9.375,8.218,8.703,7.683c-0.672-0.538-1.55-1.565-1.99-1.937C6.278,5.377,4.87,4.291,3.772,4.143
			c-0.814-0.111-1.786-0.011-2.302,0.16C0.953,4.475,0.475,4.903,0.435,5.68C0.394,6.45,0.258,6.644,0.532,6.843
			c0.271,0.195,0.592,0.292,0.839,0.306c0.244,0.011,0.443-0.056,0.572-0.315c0.126-0.262-0.187-0.38,0.095-0.718
			C2.32,5.778,2.594,5.574,3.22,5.629c0.625,0.055,1.421,0.24,2.132,1.008c0.71,0.771,1.196,1.571,1.513,2.12
			c0.604,1.034,0.212,1.619,0.505,1.862c0.27,0.219,0.255,0.28,0.457,0.083C8.033,10.502,8.084,10.179,8.358,9.976z"/>
	</g>
</g>
<g id="Layer_3">
</g>
</svg>
