<?xml version="1.0" encoding="utf-8"?>
<!-- Generator: Adobe Illustrator 16.0.0, SVG Export Plug-In . SVG Version: 6.00 Build 0)  -->
<!DOCTYPE svg PUBLIC "-//W3C//DTD SVG 1.1//EN" "http://www.w3.org/Graphics/SVG/1.1/DTD/svg11.dtd">
<svg version="1.1" id="Layer_1" xmlns="http://www.w3.org/2000/svg" xmlns:xlink="http://www.w3.org/1999/xlink" x="0px" y="0px"
	 width="50px" height="45px" viewBox="0 0 50 45" enable-background="new 0 0 50 45" xml:space="preserve">
<g>
	<path fill="#553E31" d="M32.333,40.378c0,0.349-0.361,0.491-0.361,0.491H18.278c0,0-0.371-0.035-0.371-0.472
		c0-0.437,0.371-0.493,0.371-0.493h0.934c0.062-2.961,2.287-5.386,5.162-5.76c-0.162-0.176-0.265-0.409-0.265-0.667
		c0-0.544,0.441-0.986,0.986-0.986c0.544,0,0.985,0.441,0.985,0.986c0,0.252-0.097,0.479-0.252,0.653
		c2.917,0.334,5.188,2.781,5.25,5.773h0.893C31.972,39.904,32.333,40.029,32.333,40.378z M20.974,39.904
		c-0.002-0.054-0.009-0.107-0.009-0.163c0-2.532,1.91-4.615,4.367-4.895c-0.063-0.002-0.123-0.01-0.187-0.01
		c-2.764,0-5.004,2.241-5.004,5.004c0,0.021,0.003,0.042,0.003,0.063H20.974z"/>
	<path fill="#553E31" d="M50,40.378c0,0.349-0.362,0.491-0.362,0.491H35.944c0,0-0.37-0.035-0.37-0.472
		c0-0.437,0.37-0.493,0.37-0.493h0.934c0.062-2.961,2.288-5.386,5.163-5.76c-0.163-0.176-0.265-0.409-0.265-0.667
		c0-0.544,0.441-0.986,0.985-0.986c0.545,0,0.986,0.441,0.986,0.986c0,0.252-0.098,0.479-0.253,0.653
		c2.917,0.334,5.188,2.781,5.251,5.773h0.892C49.638,39.904,50,40.029,50,40.378z M38.64,39.904
		c-0.002-0.054-0.008-0.107-0.008-0.163c0-2.532,1.909-4.615,4.366-4.895c-0.063-0.002-0.123-0.01-0.186-0.01
		c-2.765,0-5.005,2.241-5.005,5.004c0,0.021,0.003,0.042,0.003,0.063H38.64z"/>
	<path fill="#553E31" d="M14.426,40.378c0,0.349-0.361,0.491-0.361,0.491H0.37c0,0-0.37-0.035-0.37-0.472
		c0-0.437,0.37-0.493,0.37-0.493h0.934c0.062-2.961,2.288-5.386,5.163-5.76c-0.163-0.176-0.265-0.409-0.265-0.667
		c0-0.544,0.441-0.986,0.985-0.986c0.545,0,0.986,0.441,0.986,0.986c0,0.252-0.098,0.479-0.253,0.653
		c2.918,0.334,5.188,2.781,5.251,5.773h0.893C14.064,39.904,14.426,40.029,14.426,40.378z M3.066,39.904
		c-0.002-0.054-0.009-0.107-0.009-0.163c0-2.532,1.91-4.615,4.366-4.895c-0.062-0.002-0.123-0.01-0.186-0.01
		c-2.764,0-5.005,2.241-5.005,5.004c0,0.021,0.004,0.042,0.004,0.063H3.066z"/>
	
		<line fill="none" stroke="#553E31" stroke-width="0.8031" stroke-miterlimit="10" stroke-dasharray="2.8108" x1="6.839" y1="26.381" x2="43.178" y2="26.381"/>
	<rect x="24.709" y="28.091" fill="#553E31" width="0.799" height="3.194"/>
	<g>
		<path fill="#553E31" d="M27.202,18.784c0,0.649-0.672,0.912-0.672,0.912H1.086c0,0-0.687-0.066-0.687-0.877
			s0.687-0.915,0.687-0.915h1.736c0.114-5.503,4.25-10.007,9.592-10.702c-0.303-0.327-0.492-0.76-0.492-1.24
			c0-1.012,0.821-1.832,1.832-1.832c1.012,0,1.832,0.82,1.832,1.832c0,0.468-0.182,0.891-0.47,1.214
			c5.421,0.622,9.64,5.167,9.756,10.727h1.658C26.53,17.904,27.202,18.135,27.202,18.784z M6.095,17.904
			c-0.003-0.102-0.015-0.2-0.015-0.302c0-4.704,3.548-8.575,8.113-9.095c-0.116-0.004-0.229-0.017-0.346-0.017
			c-5.136,0-9.298,4.163-9.298,9.297c0,0.039,0.005,0.077,0.005,0.117H6.095z"/>
		<rect x="13.476" y="21.701" fill="#553E31" width="0.799" height="3.195"/>
	</g>
	<g>
		
			<line fill="none" stroke="#553E31" stroke-width="0.7987" stroke-miterlimit="10" stroke-dasharray="3.1947,3.1947" x1="7.238" y1="28.003" x2="7.238" y2="32.646"/>
	</g>
	<g>
		
			<line fill="none" stroke="#553E31" stroke-width="0.7987" stroke-miterlimit="10" stroke-dasharray="3.1947,3.1947" x1="42.778" y1="28.003" x2="42.778" y2="32.646"/>
	</g>
</g>
</svg>
