<?xml version="1.0" encoding="utf-8"?>
<!-- Generator: Adobe Illustrator 16.0.0, SVG Export Plug-In . SVG Version: 6.00 Build 0)  -->
<!DOCTYPE svg PUBLIC "-//W3C//DTD SVG 1.1//EN" "http://www.w3.org/Graphics/SVG/1.1/DTD/svg11.dtd">
<svg version="1.1" id="Layer_1" xmlns="http://www.w3.org/2000/svg" xmlns:xlink="http://www.w3.org/1999/xlink" x="0px" y="0px"
	 width="32px" height="32px" viewBox="0 0 32 32" enable-background="new 0 0 32 32" xml:space="preserve">
<g>
	
		<path fill="#CDB8AB" stroke="#553E31" stroke-width="1.7522" stroke-linecap="round" stroke-linejoin="round" stroke-miterlimit="10" d="
		M22.852,7.12c-0.958-1.251-1.746-1.392-2.979-1.27c-2.237,0.219-4.278,1.385-6.493,0.97C11.621,6.491,9.99,5.692,8.201,5.5
		C6.41,5.311,4.6,6.49,2.834,7.382c-1.586,0.804-2.611,2.739-1.522,4.688c0.775,1.391,2.026,2.289,2.909,3.59
		c0.805,1.184,0.996,2.129,1.061,3.859c0.055,1.502-0.744,3.977-0.289,5.17c0.562,1.469,2.791,1.104,3.852,1.043
		c1.83-0.109,3.698-0.816,5.522-0.936c0.816-0.055,1.662-0.146,2.431,0.135c0.77,0.281,1.348,0.977,2.071,1.367
		c1.463,0.787,2.512-0.717,3.909-1.438c1.057-0.545,2.049,0.141,2.993,0.486c1.37,0.504,3.157,0.059,4.333-1.537
		c3.518-4.789-2.975-5.539-3.831-8.258c-0.663-2.104,0.633-3.97,0.507-5.996c-0.174-2.779-1.25-2.041-2.607-2.167
		C23.835,7.357,23.084,7.426,22.852,7.12z"/>
	<g>
		<path fill="#553E31" d="M14.35,15.488c-0.497-0.209-0.858-0.498-1.084-0.864s-0.338-0.769-0.338-1.206
			c0-0.748,0.26-1.365,0.782-1.854c0.522-0.487,1.264-0.73,2.226-0.73c0.952,0,1.691,0.243,2.218,0.73
			c0.526,0.488,0.79,1.105,0.79,1.854c0,0.465-0.121,0.878-0.363,1.24c-0.241,0.362-0.58,0.639-1.018,0.83
			c0.556,0.224,0.979,0.55,1.268,0.979c0.289,0.428,0.434,0.922,0.434,1.482c0,0.926-0.295,1.678-0.885,2.256
			c-0.59,0.579-1.375,0.869-2.355,0.869c-0.911,0-1.67-0.24-2.275-0.719c-0.716-0.564-1.074-1.34-1.074-2.324
			c0-0.542,0.135-1.039,0.404-1.493C13.347,16.084,13.771,15.734,14.35,15.488z M14.568,17.848c0,0.528,0.135,0.94,0.406,1.236
			c0.271,0.297,0.609,0.445,1.016,0.445c0.396,0,0.725-0.143,0.984-0.428s0.389-0.696,0.389-1.234c0-0.469-0.132-0.846-0.396-1.131
			c-0.264-0.285-0.599-0.428-1.004-0.428c-0.47,0-0.82,0.162-1.05,0.486C14.684,17.118,14.568,17.469,14.568,17.848z M14.746,13.555
			c0,0.383,0.107,0.681,0.324,0.895c0.217,0.215,0.505,0.322,0.865,0.322c0.364,0,0.656-0.109,0.875-0.325s0.328-0.517,0.328-0.899
			c0-0.359-0.109-0.648-0.325-0.864s-0.503-0.325-0.858-0.325c-0.369,0-0.662,0.109-0.881,0.328S14.746,13.194,14.746,13.555z"/>
	</g>
</g>
</svg>
