<?xml version="1.0" encoding="utf-8"?>
<!-- Generator: Adobe Illustrator 16.0.0, SVG Export Plug-In . SVG Version: 6.00 Build 0)  -->
<!DOCTYPE svg PUBLIC "-//W3C//DTD SVG 1.1//EN" "http://www.w3.org/Graphics/SVG/1.1/DTD/svg11.dtd">
<svg version="1.1" id="Layer_1" xmlns="http://www.w3.org/2000/svg" xmlns:xlink="http://www.w3.org/1999/xlink" x="0px" y="0px"
	 width="32px" height="32px" viewBox="0 0 32 32" enable-background="new 0 0 32 32" xml:space="preserve">
<g>
	
		<path fill="#CDB8AB" stroke="#553E31" stroke-width="1.7522" stroke-linecap="round" stroke-linejoin="round" stroke-miterlimit="10" d="
		M22.851,7.12c-0.958-1.251-1.746-1.392-2.979-1.27c-2.237,0.219-4.279,1.385-6.493,0.97C11.621,6.491,9.99,5.692,8.202,5.5
		C6.41,5.311,4.599,6.49,2.834,7.382c-1.586,0.804-2.611,2.739-1.522,4.688c0.775,1.391,2.026,2.289,2.91,3.59
		c0.805,1.184,0.996,2.129,1.06,3.859c0.054,1.502-0.745,3.977-0.289,5.17c0.561,1.469,2.79,1.104,3.851,1.043
		c1.83-0.109,3.698-0.816,5.522-0.936c0.816-0.055,1.662-0.146,2.431,0.135c0.77,0.281,1.347,0.977,2.071,1.367
		c1.463,0.787,2.512-0.717,3.91-1.438c1.057-0.545,2.048,0.141,2.993,0.486c1.371,0.504,3.158,0.059,4.333-1.537
		c3.518-4.789-2.975-5.539-3.831-8.258c-0.663-2.104,0.633-3.97,0.507-5.996c-0.173-2.779-1.25-2.041-2.608-2.167
		C23.835,7.357,23.084,7.426,22.851,7.12z"/>
	<g>
		<path fill="#553E31" d="M12.729,18.318l1.914-0.197c0.055,0.433,0.216,0.775,0.485,1.028s0.579,0.38,0.93,0.38
			c0.401,0,0.741-0.164,1.019-0.489s0.417-0.817,0.417-1.474c0-0.615-0.138-1.076-0.414-1.384s-0.635-0.462-1.077-0.462
			c-0.551,0-1.046,0.244-1.483,0.732l-1.559-0.227l0.984-5.215h5.079v1.797h-3.623l-0.301,1.703
			c0.428-0.215,0.866-0.322,1.313-0.322c0.852,0,1.575,0.311,2.167,0.93c0.592,0.62,0.889,1.425,0.889,2.414
			c0,0.824-0.239,1.561-0.718,2.207c-0.652,0.885-1.556,1.326-2.714,1.326c-0.925,0-1.679-0.248-2.263-0.744
			C13.191,19.825,12.843,19.157,12.729,18.318z"/>
	</g>
</g>
</svg>
