<?xml version="1.0" encoding="utf-8"?>
<!-- Generator: Adobe Illustrator 16.0.0, SVG Export Plug-In . SVG Version: 6.00 Build 0)  -->
<!DOCTYPE svg PUBLIC "-//W3C//DTD SVG 1.1//EN" "http://www.w3.org/Graphics/SVG/1.1/DTD/svg11.dtd">
<svg version="1.1" id="Layer_1" xmlns="http://www.w3.org/2000/svg" xmlns:xlink="http://www.w3.org/1999/xlink" x="0px" y="0px"
	 width="32px" height="32px" viewBox="0 0 32 32" enable-background="new 0 0 32 32" xml:space="preserve">
<g>
	
		<path fill="#CDB8AB" stroke="#553E31" stroke-width="1.7522" stroke-linecap="round" stroke-linejoin="round" stroke-miterlimit="10" d="
		M22.852,7.12c-0.958-1.251-1.746-1.392-2.979-1.27c-2.237,0.219-4.278,1.385-6.493,0.97C11.621,6.491,9.99,5.692,8.201,5.5
		C6.41,5.311,4.6,6.49,2.834,7.382c-1.586,0.804-2.611,2.739-1.522,4.688c0.775,1.391,2.026,2.289,2.909,3.59
		c0.805,1.184,0.996,2.129,1.061,3.859c0.055,1.502-0.744,3.977-0.289,5.17c0.562,1.469,2.791,1.104,3.852,1.043
		c1.83-0.109,3.698-0.816,5.522-0.936c0.816-0.055,1.662-0.146,2.431,0.135c0.77,0.281,1.348,0.977,2.071,1.367
		c1.463,0.787,2.512-0.717,3.909-1.438c1.057-0.545,2.049,0.141,2.993,0.486c1.37,0.504,3.157,0.059,4.333-1.537
		c3.518-4.789-2.975-5.539-3.831-8.258c-0.663-2.104,0.633-3.97,0.507-5.996c-0.174-2.779-1.25-2.041-2.607-2.167
		C23.835,7.357,23.084,7.426,22.852,7.12z"/>
	<g>
		<path fill="#553E31" d="M14.424,20.896h-1.921v-7.24c-0.702,0.656-1.528,1.143-2.481,1.457v-1.744
			c0.502-0.164,1.046-0.475,1.634-0.933s0.991-0.992,1.21-1.603h1.559V20.896z"/>
		<path fill="#553E31" d="M22.383,19.111v1.785h-6.734c0.073-0.675,0.292-1.314,0.656-1.918c0.365-0.604,1.085-1.404,2.16-2.402
			c0.866-0.807,1.397-1.354,1.594-1.641c0.264-0.396,0.396-0.789,0.396-1.176c0-0.429-0.115-0.758-0.346-0.988
			s-0.548-0.346-0.953-0.346c-0.401,0-0.721,0.121-0.957,0.363c-0.237,0.241-0.374,0.643-0.41,1.203l-1.914-0.191
			c0.113-1.058,0.471-1.816,1.072-2.277c0.602-0.46,1.354-0.689,2.256-0.689c0.989,0,1.767,0.266,2.332,0.799
			c0.564,0.533,0.848,1.197,0.848,1.99c0,0.451-0.082,0.881-0.243,1.288s-0.418,0.835-0.769,1.282
			c-0.232,0.296-0.652,0.722-1.258,1.277c-0.606,0.557-0.99,0.926-1.152,1.107c-0.162,0.183-0.293,0.36-0.393,0.533H22.383z"/>
	</g>
</g>
</svg>
