<?xml version="1.0" encoding="utf-8"?>
<!-- Generator: Adobe Illustrator 16.0.0, SVG Export Plug-In . SVG Version: 6.00 Build 0)  -->
<!DOCTYPE svg PUBLIC "-//W3C//DTD SVG 1.1//EN" "http://www.w3.org/Graphics/SVG/1.1/DTD/svg11.dtd">
<svg version="1.1" id="Layer_1" xmlns="http://www.w3.org/2000/svg" xmlns:xlink="http://www.w3.org/1999/xlink" x="0px" y="0px"
	 width="200px" height="152px" viewBox="0 0 200 152" enable-background="new 0 0 200 152" xml:space="preserve">
<g>
	<g>
		<path fill="#FFFFFF" stroke="#553E31" stroke-width="3.6636" stroke-miterlimit="10" d="M136.107,17.858
			c-1.084,0-2.144,0.107-3.169,0.31c-3.696-9.555-13.003-16.336-23.903-16.336c-9.707,0-18.151,5.375-22.494,13.299
			c-2.997-1.96-6.58-3.101-10.433-3.101c-10.506,0-19.023,8.48-19.023,18.94s8.517,18.94,19.023,18.94
			c0.995,0,1.973-0.077,2.927-0.222v47.276c0,0,3.658,7.285,24.145,7.285c20.489,0,25.609-7.285,25.609-7.285V48.164
			c2.196,1.116,4.683,1.747,7.318,1.747c8.89,0,16.096-7.175,16.096-16.026C152.203,25.033,144.997,17.858,136.107,17.858z"/>
		<path fill="#553E31" d="M67.681,32.759c-0.348-7.87,3.385-11.549,11.87-11.549c1.82,0,5.175,1.041,6.731,1.745
			c-2.258-2.967-5.834-4.884-9.86-4.884c-6.83,0-12.366,5.512-12.366,12.312c0,4.986,2.979,9.281,7.26,11.216
			C69.744,39.534,67.804,35.546,67.681,32.759z"/>
		<path fill="#553E31" d="M113.372,10.904c2.834,0,5.764,1.336,8.102,2.582c-3.053-3.515-7.564-5.739-12.596-5.739
			c-8.741,0-15.908,6.707-16.593,15.234c1.743,1.489,2.452,1.943,3.905,3.789C96.223,15.893,103.15,10.904,113.372,10.904z"/>
		<path fill="#553E31" d="M136.257,23.686c-2.258,0-4.349,0.715-6.058,1.927c1.126,1.928,1.634,2.174,2.086,4.339
			c1.9-2.618,4.312-3.561,7.804-3.561c1.369,0,3.598,1.345,4.798,1.82C143.001,25.479,139.84,23.686,136.257,23.686z"/>
		<g>
			<polygon fill="#553E31" points="89.333,82.538 86.353,82.78 86.353,46.233 89.333,44.083 			"/>
		</g>
		<path fill-rule="evenodd" clip-rule="evenodd" fill="#F9D438" stroke="#553E31" stroke-width="2.9309" stroke-miterlimit="10" d="
			M128.997,55.879c0.045,2.543-0.031,4.319,0.188,6.472c10.776,0.448,18.016,2.598,18.53,6.126
			c0.871,5.957-17.768,13.585-41.628,17.039c-23.861,3.455-43.909,1.426-44.779-4.529c-0.541-3.703,6.771-8.183,17.869-11.772
			c-0.045-2.268-0.228-5.079-0.136-7.935c-24.457,5.842-42.425,15.368-41.323,22.919c1.377,9.431,30.379,13.04,64.776,8.06
			c34.397-4.979,61.167-16.661,59.789-26.091C161.35,59.79,148.321,56.075,128.997,55.879z"/>
	</g>
	<g>
		<path fill="#553E31" d="M34.146,146.178c-1.184,0-2.351,0.013-3.5,0.034c-1.15,0.022-2.305,0-3.466-0.068
			c-0.137,0-0.245-0.038-0.325-0.119c-0.08-0.079-0.097-0.174-0.051-0.288c0.09-0.294,0.142-0.583,0.153-0.867
			c0.011-0.282,0.017-0.571,0.017-0.867c0-1.631-0.08-3.349-0.239-5.15c-0.16-1.802-0.342-3.519-0.547-5.15
			c-0.068-0.499-0.125-0.941-0.171-1.327c-0.046-0.386-0.091-0.766-0.136-1.14c-0.046-0.374-0.091-0.752-0.137-1.138
			c-0.046-0.385-0.091-0.827-0.136-1.326c-1.025,1.971-2.015,3.955-2.971,5.95s-1.912,4-2.868,6.018
			c-0.41,0.861-0.82,1.729-1.229,2.602c-0.41,0.873-0.832,1.75-1.264,2.634c-0.068,0.115-0.171,0.17-0.307,0.17
			s-0.262-0.045-0.375-0.137c-1.412-1.901-2.624-3.875-3.637-5.914c-1.014-2.041-1.998-4.113-2.954-6.223
			c-0.25-0.521-0.461-0.98-0.632-1.377c-0.17-0.396-0.336-0.776-0.495-1.14c-0.16-0.361-0.33-0.735-0.512-1.122
			c-0.183-0.384-0.409-0.825-0.683-1.324c-0.046,0.635-0.108,1.27-0.188,1.903c-0.08,0.635-0.166,1.258-0.256,1.87
			c-0.228,1.563-0.433,3.157-0.615,4.776c-0.182,1.621-0.273,3.213-0.273,4.778v0.985c0,0.386,0.005,0.68,0.017,0.885
			c0.012,0.203,0.045,0.362,0.103,0.475c0.057,0.114,0.142,0.203,0.256,0.271c0.114,0.067,0.285,0.148,0.512,0.238H7.203
			c0.182,0.067,0.38,0.148,0.597,0.238c0.216,0.09,0.472,0.203,0.769,0.339c0.182,0.069,0.256,0.177,0.222,0.324
			s-0.166,0.221-0.393,0.221c-1.161,0-2.327,0.012-3.5,0.034c-1.172,0.021-2.338,0-3.5-0.068c-0.183-0.021-0.29-0.097-0.325-0.221
			c-0.034-0.123,0.005-0.232,0.12-0.324c0,0.023,0.12,0.014,0.359-0.033c0.239-0.045,0.415-0.08,0.529-0.102
			c0.25-0.046,0.472-0.097,0.666-0.153c0.193-0.056,0.358-0.23,0.495-0.527c0.068-0.157,0.165-0.594,0.29-1.308
			c0.125-0.714,0.256-1.615,0.393-2.703s0.284-2.308,0.444-3.654c0.159-1.35,0.313-2.727,0.46-4.132
			c0.148-1.406,0.296-2.793,0.444-4.165c0.148-1.371,0.279-2.636,0.393-3.791c0.113-1.02,0.21-1.908,0.29-2.668
			s0.142-1.31,0.188-1.649c0.022-0.136,0.103-0.227,0.239-0.272c0.136-0.045,0.273-0.012,0.41,0.102
			c0.227,0.205,0.523,0.607,0.888,1.208c0.364,0.601,0.773,1.32,1.229,2.158c0.455,0.839,0.944,1.779,1.468,2.822
			c0.523,1.043,1.059,2.119,1.605,3.23c0.546,1.109,1.093,2.221,1.639,3.332c0.546,1.11,1.059,2.164,1.537,3.161
			c0.568,1.18,1.012,2.113,1.332,2.805c0.318,0.692,0.603,1.264,0.854,1.717c0.591-1.201,1.161-2.38,1.707-3.536
			c0.547-1.154,1.093-2.334,1.639-3.535c0.456-1.021,0.922-2.027,1.4-3.026c0.478-0.996,0.957-2.017,1.435-3.06l0.683-1.496
			c0.456-0.952,0.922-1.915,1.4-2.891c0.478-0.974,1.024-1.925,1.639-2.854c0.113-0.113,0.256-0.159,0.427-0.137
			c0.17,0.023,0.267,0.113,0.29,0.272c0.182,1.496,0.358,2.998,0.529,4.504c0.171,1.508,0.335,3.01,0.495,4.506
			c0.022,0.25,0.051,0.585,0.085,1.002c0.034,0.421,0.074,0.88,0.119,1.377c0.046,0.658,0.103,1.378,0.171,2.16
			s0.147,1.575,0.239,2.38c0.09,0.806,0.182,1.597,0.273,2.379c0.09,0.782,0.192,1.508,0.307,2.177
			c0.114,0.668,0.233,1.253,0.358,1.752c0.125,0.498,0.256,0.861,0.393,1.088c0.273,0.452,0.574,0.742,0.904,0.865
			c0.33,0.126,0.677,0.221,1.042,0.289c0.205,0.047,0.427,0.098,0.666,0.152c0.239,0.058,0.483,0.142,0.734,0.255L34.146,146.178z"
			/>
		<path fill="#553E31" d="M54.805,144.75c-0.797,0-1.514-0.124-2.151-0.374c-0.638-0.249-1.218-0.577-1.741-0.985
			c-0.524-0.407-1.013-0.873-1.469-1.395c-0.456-0.521-0.899-1.054-1.332-1.599c-0.387-0.498-0.773-0.975-1.161-1.427
			c-0.387-0.454-0.797-0.861-1.229-1.226c-0.387-0.34-0.883-0.548-1.486-0.628C43.633,137.04,43.081,137,42.581,137
			c-0.183,0-0.302-0.006-0.359-0.017c-0.057-0.012-0.176-0.006-0.358,0.017v4.487c0,0.091,0.017,0.232,0.051,0.425
			c0.034,0.193,0.074,0.397,0.12,0.612c0.046,0.216,0.097,0.408,0.154,0.578c0.057,0.17,0.107,0.267,0.154,0.289
			c0.068,0.045,0.17,0.068,0.307,0.068c0.159,0,0.296,0.012,0.41,0.034c0.205,0.021,0.415,0.051,0.632,0.085
			c0.216,0.034,0.415,0.119,0.598,0.255c0.182,0.09,0.239,0.203,0.171,0.34c-0.068,0.136-0.205,0.203-0.41,0.203
			c-1.161,0-2.316-0.004-3.466-0.016c-1.15-0.012-2.305-0.052-3.466-0.119c-0.205-0.022-0.313-0.119-0.325-0.289
			c-0.012-0.171,0.085-0.278,0.29-0.324c0.364-0.044,0.654-0.096,0.872-0.152c0.215-0.057,0.38-0.152,0.495-0.289
			c0.114-0.136,0.188-0.334,0.222-0.595c0.035-0.261,0.051-0.606,0.051-1.037v-13.804c0-0.544-0.12-0.873-0.358-0.986
			s-0.484-0.181-0.734-0.204c-0.251-0.022-0.467-0.057-0.649-0.102c-0.183-0.046-0.331-0.159-0.444-0.341
			c-0.091-0.113-0.102-0.215-0.034-0.306s0.193-0.136,0.375-0.136h0.512c0.25,0,0.512,0,0.786,0c0.273,0,0.546,0.012,0.819,0.033
			c0.364,0.022,0.706,0.034,1.025,0.034c0.318,0,0.66,0,1.024,0h0.717c0.227,0,0.449-0.006,0.666-0.017
			c0.217-0.012,0.45-0.018,0.7-0.018c0.842,0,1.725,0.046,2.646,0.136c0.922,0.092,1.759,0.296,2.51,0.613
			c0.751,0.317,1.371,0.781,1.861,1.394c0.489,0.612,0.734,1.44,0.734,2.481c0,0.522-0.097,1.043-0.29,1.564
			c-0.194,0.521-0.444,1.02-0.751,1.496c-0.308,0.476-0.649,0.924-1.024,1.343c-0.376,0.42-0.757,0.8-1.145,1.14
			c0.342,0.34,0.677,0.697,1.008,1.071c0.33,0.373,0.666,0.764,1.007,1.171c0.547,0.659,1.127,1.327,1.742,2.007
			c0.615,0.681,1.251,1.292,1.912,1.837c0.66,0.543,1.332,0.98,2.015,1.309c0.683,0.329,1.366,0.448,2.049,0.356l0.205,0.579
			C56.74,144.57,55.807,144.75,54.805,144.75z M47.378,129.775c-0.194-0.578-0.478-1.082-0.854-1.514
			c-0.375-0.43-0.825-0.776-1.349-1.037c-0.523-0.261-1.104-0.391-1.741-0.391c-0.546,0-1.071,0.067-1.571,0.204v8.193
			c0.387,0.046,0.791,0.08,1.212,0.103c0.42,0.022,0.825,0.033,1.212,0.033c1.116,0,1.958-0.34,2.527-1.02
			c0.569-0.681,0.854-1.599,0.854-2.754C47.668,130.959,47.571,130.351,47.378,129.775z"/>
		<path fill="#553E31" d="M63.325,143.051c-0.125,0.203-0.285,0.385-0.479,0.544c-0.194,0.158-0.409,0.283-0.648,0.374
			s-0.473,0.137-0.7,0.137c-0.524,0-0.928-0.222-1.212-0.664s-0.427-0.878-0.427-1.31c0-0.453,0.153-0.85,0.461-1.189
			c0.307-0.34,0.734-0.51,1.28-0.51c0.523,0,0.974,0.209,1.349,0.629c0.376,0.42,0.563,0.855,0.563,1.31
			C63.512,142.62,63.449,142.847,63.325,143.051z"/>
		<path fill="#553E31" d="M100.403,146.755c-1.07,0-2.146-0.288-3.228-0.866c-1.082-0.578-2.151-1.319-3.21-2.227
			c-1.059-0.906-2.1-1.91-3.125-3.009c-1.024-1.1-2.003-2.17-2.937-3.214c-0.591-0.656-1.138-1.273-1.639-1.852
			c-0.5-0.578-0.99-1.095-1.468-1.548v8.229c0,0.68,0.022,1.207,0.068,1.581c0.045,0.374,0.113,0.651,0.205,0.832
			c0.091,0.183,0.21,0.296,0.359,0.34c0.147,0.047,0.313,0.081,0.495,0.103c0.25,0.046,0.512,0.085,0.785,0.119
			c0.273,0.033,0.569,0.141,0.888,0.322c0.182,0.067,0.239,0.177,0.17,0.323c-0.068,0.148-0.193,0.222-0.375,0.222
			c-1.366,0-2.732,0.028-4.098,0.084c-1.366,0.058-2.732,0.063-4.098,0.018c-0.228,0-0.347-0.089-0.358-0.272
			c-0.012-0.182,0.096-0.293,0.324-0.34c0.478-0.09,0.854-0.191,1.127-0.307c0.273-0.111,0.478-0.276,0.615-0.492
			c0.137-0.214,0.222-0.498,0.256-0.849c0.034-0.352,0.051-0.8,0.051-1.343v-18.904c0-0.385-0.04-0.686-0.119-0.9
			c-0.081-0.216-0.188-0.38-0.325-0.493s-0.29-0.188-0.461-0.222c-0.17-0.033-0.335-0.062-0.495-0.085
			c-0.273-0.045-0.518-0.096-0.734-0.153c-0.217-0.056-0.393-0.197-0.529-0.424c-0.091-0.113-0.102-0.211-0.034-0.29
			c0.068-0.078,0.193-0.118,0.376-0.118c1.32,0,2.641-0.018,3.961-0.052c1.32-0.033,2.641-0.006,3.961,0.086
			c0.228,0.021,0.341,0.124,0.341,0.306s-0.114,0.283-0.341,0.306c-0.547,0.045-1.013,0.284-1.4,0.714
			c-0.388,0.432-0.581,0.917-0.581,1.461c-0.022,1.225-0.022,2.517,0,3.877c0.023,1.36,0.045,2.698,0.068,4.011
			c0.387-0.453,0.842-0.951,1.366-1.496c0.524-0.542,0.968-0.996,1.332-1.358c0.114-0.113,0.256-0.261,0.427-0.441
			c0.171-0.183,0.336-0.341,0.495-0.477c0.433-0.408,0.922-0.856,1.469-1.344s1.053-0.986,1.52-1.496
			c0.466-0.51,0.859-1.008,1.178-1.496c0.318-0.486,0.478-0.922,0.478-1.308c0-0.317-0.068-0.602-0.205-0.851
			c-0.068-0.113-0.068-0.215,0-0.306c0.068-0.091,0.193-0.125,0.376-0.102c0.569,0.045,1.132,0.062,1.69,0.05
			c0.558-0.011,1.132-0.017,1.725-0.017c0.523,0,1.036-0.022,1.536-0.067c0.501-0.046,1.013-0.046,1.538,0
			c0.227,0.022,0.341,0.124,0.341,0.306s-0.114,0.283-0.341,0.306c-0.729,0.091-1.486,0.369-2.271,0.833
			c-0.786,0.466-1.577,1.043-2.374,1.733c-0.797,0.691-1.588,1.451-2.374,2.278c-0.785,0.828-1.542,1.638-2.271,2.432
			c-0.546,0.612-1.082,1.195-1.605,1.75c-0.524,0.557-1.013,1.05-1.469,1.479c0.41,0.386,0.859,0.861,1.35,1.429
			c0.489,0.566,1.018,1.146,1.587,1.734c0.956,1.043,1.998,2.154,3.125,3.331c1.126,1.179,2.259,2.267,3.397,3.265
			c1.138,0.997,2.254,1.825,3.347,2.481c1.093,0.658,2.071,0.975,2.936,0.952l0.206,0.577
			C102.474,146.473,101.472,146.755,100.403,146.755z"/>
		<path fill="#553E31" d="M121.251,126.765c-0.354,0.182-0.53,0.499-0.53,0.952v9.418c0,1.155-0.216,2.204-0.648,3.145
			c-0.434,0.941-1.02,1.745-1.76,2.414c-0.74,0.669-1.611,1.185-2.612,1.548c-1.002,0.362-2.06,0.542-3.176,0.542
			c-0.911,0-1.872-0.119-2.885-0.355c-1.014-0.238-1.947-0.601-2.8-1.088c-0.854-0.487-1.56-1.104-2.117-1.854
			c-0.558-0.748-0.837-1.632-0.837-2.652v0.033c0-0.203-0.017-0.395-0.051-0.577c-0.034-0.181-0.051-0.34-0.051-0.477v-10.063
			c0-0.566-0.142-0.907-0.427-1.021c-0.285-0.113-0.563-0.181-0.836-0.204c-0.273-0.045-0.508-0.079-0.701-0.102
			s-0.313-0.159-0.357-0.408c-0.047-0.227,0.09-0.34,0.409-0.34h1.059c1.866,0,3.745,0.067,5.635,0.204
			c0.205,0.022,0.307,0.124,0.307,0.306c0,0.158-0.103,0.25-0.307,0.272c-0.456,0.045-0.842,0.141-1.161,0.288
			c-0.32,0.148-0.479,0.471-0.479,0.97v5.338c0,0.907-0.005,1.808-0.016,2.703c-0.013,0.896-0.018,1.784-0.018,2.668
			c0,0.794,0.159,1.49,0.478,2.091s0.74,1.105,1.265,1.514c0.522,0.408,1.119,0.714,1.792,0.918c0.671,0.204,1.371,0.306,2.1,0.306
			s1.441-0.107,2.135-0.322s1.309-0.533,1.844-0.952c0.534-0.419,0.961-0.936,1.28-1.547c0.319-0.612,0.478-1.326,0.478-2.143
			c0-0.86,0-1.733,0-2.617s-0.01-1.769-0.034-2.652c-0.022-0.861-0.034-1.734-0.034-2.618c0-0.883,0-1.768,0-2.651
			c0-0.272-0.04-0.487-0.12-0.646c-0.08-0.158-0.177-0.277-0.291-0.357c-0.114-0.078-0.245-0.13-0.393-0.152
			c-0.148-0.022-0.29-0.045-0.426-0.068c-0.251-0.022-0.484-0.051-0.701-0.084c-0.217-0.034-0.347-0.177-0.392-0.426
			c-0.047-0.227,0.09-0.34,0.41-0.34c1.024,0,2.037,0.012,3.039,0.033c1.002,0.022,2.003,0.068,3.006,0.136l0.034,0.579
			C121.973,126.47,121.604,126.584,121.251,126.765z"/>
		<path fill="#553E31" d="M138.113,132.528c-0.341,0.736-0.797,1.377-1.366,1.922c-0.569,0.543-1.234,0.975-1.997,1.291
			c-0.764,0.318-1.554,0.477-2.374,0.477c-0.295,0-0.581-0.022-0.854-0.068c-0.273-0.045-0.535-0.09-0.786-0.136
			c-0.228-0.045-0.329-0.153-0.307-0.322c0.023-0.171,0.148-0.256,0.376-0.256h0.649c0.614,0,1.189-0.09,1.725-0.271
			c0.534-0.183,1.002-0.442,1.4-0.783c0.397-0.34,0.71-0.759,0.938-1.258s0.342-1.076,0.342-1.734c0-0.611-0.103-1.189-0.307-1.732
			c-0.204-0.545-0.49-1.021-0.854-1.429c-0.364-0.407-0.802-0.736-1.315-0.986c-0.513-0.249-1.076-0.374-1.691-0.374
			c-0.319,0-0.62,0.029-0.905,0.086c-0.284,0.056-0.563,0.131-0.835,0.221v14.279c0,0.068,0.017,0.198,0.05,0.392
			c0.035,0.192,0.08,0.392,0.137,0.595c0.056,0.204,0.107,0.397,0.153,0.578c0.046,0.182,0.091,0.295,0.137,0.341
			c0.114,0.044,0.262,0.073,0.444,0.084c0.182,0.012,0.331,0.029,0.445,0.052c0.273,0.045,0.518,0.085,0.734,0.119
			c0.216,0.033,0.369,0.141,0.46,0.322c0.069,0.113,0.069,0.215,0,0.307c-0.068,0.091-0.182,0.135-0.341,0.135
			c-1.162,0-2.317-0.01-3.466-0.033c-1.15-0.022-2.305-0.057-3.466-0.102c-0.228,0-0.347-0.092-0.358-0.272
			c-0.012-0.182,0.097-0.295,0.325-0.341c0.364-0.067,0.654-0.13,0.871-0.187c0.216-0.057,0.381-0.158,0.495-0.307
			c0.113-0.146,0.188-0.345,0.222-0.595c0.034-0.249,0.051-0.589,0.051-1.02v-13.906c0-0.476-0.12-0.765-0.358-0.867
			c-0.239-0.102-0.484-0.163-0.734-0.187c-0.228-0.022-0.444-0.057-0.649-0.102c-0.205-0.046-0.364-0.159-0.478-0.341
			c-0.091-0.113-0.103-0.215-0.035-0.306c0.069-0.091,0.194-0.136,0.376-0.136h0.581h2.186c0.25,0,0.484,0.006,0.7,0.018
			c0.216,0.011,0.449,0.016,0.701,0.016h1.058c0.228,0,0.444-0.005,0.648-0.016c0.205-0.012,0.433-0.018,0.683-0.018
			c0.843,0,1.685,0.045,2.527,0.136c0.842,0.091,1.605,0.295,2.288,0.612s1.234,0.771,1.656,1.36
			c0.422,0.589,0.632,1.395,0.632,2.413C138.625,131.014,138.455,131.792,138.113,132.528z"/>
		<path fill="#553E31" d="M149.736,144.376c-0.41-0.021-0.815-0.021-1.212,0c-0.399,0.023-0.815,0.023-1.247,0l-1.298-0.033
			c-0.183,0-0.41,0.012-0.684,0.033c-0.272,0.023-0.563,0.046-0.87,0.067c-0.308,0.024-0.604,0.03-0.889,0.018
			c-0.284-0.011-0.506-0.05-0.665-0.118c-0.205-0.068-0.262-0.21-0.171-0.425c0.09-0.216,0.238-0.3,0.444-0.256
			c0.113,0.046,0.209,0.052,0.289,0.018c0.081-0.034,0.143-0.052,0.188-0.052c0.182,0,0.335-0.073,0.461-0.221
			c0.125-0.147,0.222-0.334,0.291-0.561c0.067-0.228,0.119-0.454,0.153-0.681c0.033-0.227,0.05-0.43,0.05-0.611v-13.838
			c0-0.453-0.187-0.776-0.562-0.97c-0.376-0.191-0.769-0.311-1.179-0.356c-0.228-0.022-0.336-0.119-0.325-0.289
			s0.131-0.267,0.359-0.289c0.546-0.045,1.093-0.045,1.639,0s1.081,0.068,1.605,0.068c0.523,0,1.036-0.023,1.537-0.068
			c0.5-0.045,1.013-0.045,1.536,0c0.205,0.022,0.313,0.113,0.325,0.271c0.011,0.159-0.086,0.261-0.291,0.307
			c-0.456,0.068-0.842,0.17-1.161,0.307c-0.318,0.136-0.479,0.476-0.479,1.02v13.735c0,0.091,0.018,0.227,0.052,0.408
			c0.033,0.182,0.073,0.375,0.119,0.578c0.045,0.204,0.103,0.397,0.171,0.578c0.068,0.182,0.125,0.307,0.171,0.374
			c0.068,0.022,0.171,0.045,0.308,0.068c0.137,0.022,0.262,0.034,0.376,0.034c0.25,0,0.472,0.017,0.665,0.051
			s0.381,0.13,0.563,0.289L149.736,144.376z"/>
		<path fill="#553E31" d="M173.286,139.378c-0.661,1.246-1.549,2.256-2.663,3.026c-1.115,0.771-2.414,1.327-3.894,1.667
			c-1.48,0.34-3.028,0.509-4.644,0.509c-0.66,0-1.326-0.018-1.998-0.052c-0.671-0.033-1.338-0.072-1.998-0.117
			c-0.729-0.045-1.491-0.091-2.286-0.137c-0.799-0.045-1.549-0.056-2.255-0.033c-0.229,0-0.354-0.092-0.375-0.272
			c-0.023-0.182,0.079-0.295,0.307-0.341c0.684-0.113,1.121-0.316,1.315-0.611c0.192-0.294,0.289-0.827,0.289-1.599v-13.804
			c0-0.453-0.137-0.736-0.409-0.85s-0.546-0.192-0.819-0.238c-0.205-0.045-0.405-0.096-0.598-0.153
			c-0.194-0.056-0.325-0.153-0.394-0.289c-0.046-0.113-0.034-0.209,0.035-0.288c0.067-0.08,0.182-0.119,0.341-0.119
			c0.318,0,0.632,0.006,0.938,0.018c0.309,0.011,0.621,0.027,0.94,0.05c0.41,0.023,0.841,0.046,1.298,0.068
			c0.454,0.022,0.875,0.033,1.264,0.033c0.978,0,1.968-0.033,2.97-0.102c0.479-0.022,0.996-0.045,1.554-0.067
			s1.076-0.034,1.554-0.034c0.91,0,1.946,0.188,3.107,0.562s2.266,0.883,3.313,1.529c1.045,0.646,1.95,1.412,2.714,2.296
			c0.763,0.883,1.201,1.823,1.315,2.82c0.045,0.318,0.067,0.646,0.067,0.987c0,0.316,0,0.635,0,0.952
			C174.276,136.603,173.946,138.132,173.286,139.378z M170.333,131.916c-0.559-1.098-1.304-2.005-2.237-2.719
			c-0.934-0.715-2.016-1.252-3.244-1.615c-1.229-0.363-2.516-0.544-3.858-0.544c-0.455,0-0.911,0.022-1.366,0.067
			c-0.455,0.046-0.911,0.136-1.366,0.272V140.5c0,0.635,0.085,1.134,0.256,1.496c0.172,0.363,0.422,0.635,0.752,0.816
			s0.723,0.295,1.178,0.34c0.456,0.046,0.968,0.068,1.537,0.068c1.207,0,2.367-0.136,3.482-0.408
			c1.116-0.272,2.096-0.708,2.938-1.31c0.842-0.601,1.514-1.371,2.016-2.312c0.499-0.94,0.75-2.09,0.75-3.451
			C171.169,134.291,170.89,133.015,170.333,131.916z"/>
		<path fill="#553E31" d="M198.151,139.498c-0.672,1.145-1.548,2.103-2.63,2.874c-1.081,0.77-2.299,1.349-3.653,1.734
			c-1.355,0.385-2.715,0.576-4.081,0.576s-2.703-0.254-4.013-0.764c-1.309-0.511-2.463-1.207-3.465-2.092
			c-1.002-0.884-1.811-1.933-2.426-3.146c-0.614-1.211-0.921-2.521-0.921-3.927c0-1.54,0.335-2.91,1.007-4.114
			c0.671-1.199,1.548-2.214,2.63-3.042c1.081-0.827,2.31-1.456,3.687-1.888c1.378-0.43,2.784-0.646,4.219-0.646
			c1.411,0,2.759,0.283,4.046,0.851c1.287,0.566,2.42,1.325,3.398,2.278c0.978,0.952,1.758,2.063,2.339,3.331
			c0.58,1.27,0.87,2.606,0.87,4.013C199.158,137.034,198.822,138.355,198.151,139.498z M195.521,132.086
			c-0.397-1.076-0.956-2.022-1.673-2.839c-0.717-0.815-1.583-1.462-2.595-1.938c-1.013-0.476-2.134-0.714-3.364-0.714
			c-1.139,0-2.191,0.182-3.158,0.544c-0.969,0.362-1.799,0.879-2.492,1.548c-0.695,0.668-1.236,1.473-1.623,2.412
			c-0.387,0.941-0.58,2.001-0.58,3.18c0,1.202,0.204,2.347,0.614,3.434c0.41,1.088,0.984,2.046,1.724,2.873
			c0.74,0.827,1.623,1.485,2.646,1.973c1.025,0.487,2.164,0.73,3.416,0.73c1.161,0,2.213-0.187,3.158-0.561
			c0.944-0.374,1.753-0.906,2.425-1.599c0.672-0.691,1.189-1.519,1.554-2.482c0.363-0.962,0.547-2.021,0.547-3.178
			C196.12,134.291,195.92,133.163,195.521,132.086z"/>
	</g>
	<rect x="0.773" y="149.899" fill-rule="evenodd" clip-rule="evenodd" fill="#553E31" width="198.453" height="2.102"/>
	<rect x="0.773" y="115.095" fill-rule="evenodd" clip-rule="evenodd" fill="#553E31" width="198.453" height="2.102"/>
</g>
</svg>
