<?xml version="1.0" encoding="utf-8"?>
<!-- Generator: Adobe Illustrator 16.0.0, SVG Export Plug-In . SVG Version: 6.00 Build 0)  -->
<!DOCTYPE svg PUBLIC "-//W3C//DTD SVG 1.1//EN" "http://www.w3.org/Graphics/SVG/1.1/DTD/svg11.dtd">
<svg version="1.1" id="Layer_1" xmlns="http://www.w3.org/2000/svg" xmlns:xlink="http://www.w3.org/1999/xlink" x="0px" y="0px"
	 width="91px" height="31px" viewBox="0 0 91 31" enable-background="new 0 0 91 31" xml:space="preserve">
<path fill="none" stroke="#CDB8AB" stroke-width="2" stroke-miterlimit="10" d="M6,1C3.238,1,1,3.238,1,6v19c0,2.762,2.238,5,5,5
	h56.321H86h5"/>
<path fill="#EBDFD5" d="M86,0H62.321H6C3.238,0,1,2.238,1,5v20c0,2.762,2.238,5,5,5h56.321H86h5v-5V5V0H86z"/>
<g>
	<rect x="30" y="5.5" fill="none" width="32" height="20"/>
	<rect x="30" y="5.5" fill="#CDB8AB" width="32" height="20"/>
	<polygon fill="#EBDFD5" points="62,5.5 57.773,5.5 48.803,11.106 48.76,11.134 48.76,5.5 43.24,5.5 43.24,11.134 43.197,11.106 
		34.227,5.5 30,5.5 30,8.142 36.334,12.101 30,12.101 30,18.9 36.334,18.9 30,22.858 30,25.5 34.227,25.5 43.197,19.894 
		43.24,19.866 43.24,25.5 48.76,25.5 48.76,19.866 48.803,19.894 57.773,25.5 62,25.5 62,22.858 55.666,18.9 62,18.9 62,12.101 
		55.666,12.101 62,8.142 	"/>
	<polyline fill="#563F32" points="31.66,5.5 42.477,12.261 39.154,12.261 30,6.538 30,5.5 31.66,5.5 	"/>
	<polyline fill="#563F32" points="62,5.5 62,6.538 52.844,12.261 49.523,12.261 60.34,5.5 62,5.5 	"/>
	<polyline fill="#563F32" points="47.4,5.5 47.4,13.46 62,13.46 62,17.54 47.4,17.54 47.4,25.5 44.6,25.5 44.6,17.54 30,17.54 
		30,13.46 44.6,13.46 44.6,5.5 47.4,5.5 	"/>
	<polyline fill="#563F32" points="52.844,18.74 62,24.462 62,25.5 60.34,25.5 49.523,18.74 52.844,18.74 	"/>
	<polyline fill="#563F32" points="42.477,18.74 31.66,25.5 30,25.5 30,24.462 39.154,18.74 42.477,18.74 	"/>
</g>
</svg>
