<?xml version="1.0" encoding="utf-8"?>
<!-- Generator: Adobe Illustrator 16.0.0, SVG Export Plug-In . SVG Version: 6.00 Build 0)  -->
<!DOCTYPE svg PUBLIC "-//W3C//DTD SVG 1.1//EN" "http://www.w3.org/Graphics/SVG/1.1/DTD/svg11.dtd">
<svg version="1.1" id="Layer_1" xmlns="http://www.w3.org/2000/svg" xmlns:xlink="http://www.w3.org/1999/xlink" x="0px" y="0px"
	 width="91px" height="31px" viewBox="0 0 91 31" enable-background="new 0 0 91 31" xml:space="preserve">
<polyline fill="none" stroke="#CDB8AB" stroke-width="2" stroke-miterlimit="10" points="1,0 1,30 91,30 "/>
<rect x="1" fill="#EBDFD5" width="90" height="30"/>
<g>
	<g>
		<g>
			<path fill="#563F32" d="M57.802,17.181c-0.305,0-0.607-0.116-0.84-0.348L45.499,5.371L34.036,16.833
				c-0.463,0.464-1.217,0.464-1.682,0c-0.463-0.464-0.463-1.217,0-1.682L44.659,2.849c0.463-0.464,1.217-0.464,1.682,0
				l12.303,12.303c0.465,0.465,0.465,1.218,0,1.682C58.411,17.065,58.106,17.181,57.802,17.181z"/>
		</g>
	</g>
	<g>
		<path fill="#563F32" d="M45.499,7.22l-9.42,9.42v9.675c0,0.654,0.531,1.185,1.186,1.185h5.576v-6.851
			c0-0.729,0.592-1.321,1.32-1.321h2.676c0.73,0,1.32,0.592,1.32,1.321V27.5h5.576c0.654,0,1.186-0.53,1.186-1.185V16.64
			L45.499,7.22z"/>
	</g>
</g>
</svg>
