<?xml version="1.0" encoding="utf-8"?>
<!-- Generator: Adobe Illustrator 16.0.0, SVG Export Plug-In . SVG Version: 6.00 Build 0)  -->
<!DOCTYPE svg PUBLIC "-//W3C//DTD SVG 1.1//EN" "http://www.w3.org/Graphics/SVG/1.1/DTD/svg11.dtd">
<svg version="1.1" id="Layer_1" xmlns="http://www.w3.org/2000/svg" xmlns:xlink="http://www.w3.org/1999/xlink" x="0px" y="0px"
	 width="29.752px" height="50px" viewBox="-42.584 0 29.752 50" enable-background="new -42.584 0 29.752 50" xml:space="preserve">
<ellipse fill="#CDB8AB" cx="-27.707" cy="2.778" rx="7.438" ry="2.777"/>
<g>
	<ellipse fill="#CDB8AB" cx="-27.708" cy="42.593" rx="14.876" ry="5.556"/>
	<path fill="#563F32" d="M-27.708,48.148c-8.215,0-14.876-2.488-14.876-5.557v1.852C-42.583,47.512-35.923,50-27.708,50
		s14.876-2.488,14.876-5.557v-1.852C-12.832,45.66-19.492,48.148-27.708,48.148z"/>
</g>
<path fill="#EBDFD5" d="M-35.145,2.778v38.425c0,1.535,3.33,2.779,7.438,2.779s7.438-1.244,7.438-2.779V2.778H-35.145z"/>
<ellipse fill="#CDB8AB" cx="-27.708" cy="2.778" rx="7.438" ry="2.777"/>
<path fill="#CDB8AB" d="M-20.27,9.962c-0.033,0.067-0.051,0.144-0.051,0.224c0,0.945-2.633,2.264-6.921,2.264
	c-0.285,0-0.516,0.229-0.516,0.514c0,0.284,0.231,0.515,0.516,0.515c2.047,0,3.979-0.302,5.441-0.847
	c0.621-0.23,1.134-0.502,1.532-0.803L-20.27,9.962L-20.27,9.962z"/>
<path fill="#CDB8AB" d="M-20.27,17.369c-0.033,0.067-0.051,0.143-0.051,0.224c0,0.944-2.633,2.263-6.921,2.263
	c-0.285,0-0.516,0.231-0.516,0.516c0,0.283,0.231,0.514,0.516,0.514c2.047,0,3.979-0.3,5.441-0.846
	c0.621-0.232,1.134-0.503,1.532-0.803L-20.27,17.369L-20.27,17.369z"/>
<path fill="#CDB8AB" d="M-20.27,24.776c-0.033,0.068-0.051,0.144-0.051,0.224c0,0.945-2.633,2.264-6.921,2.264
	c-0.285,0-0.516,0.23-0.516,0.516c0,0.283,0.231,0.514,0.516,0.514c2.047,0,3.979-0.3,5.441-0.846
	c0.621-0.231,1.134-0.504,1.532-0.805L-20.27,24.776L-20.27,24.776z"/>
<path fill="#563F32" d="M-27.708,41.625c-4.108,0-7.438-1.244-7.438-2.777v2.355c0,1.535,3.33,2.779,7.438,2.779
	s7.438-1.244,7.438-2.779v-2.355C-20.27,40.381-23.6,41.625-27.708,41.625z"/>
<path fill="#CDB8AB" d="M-20.27,32.184c-0.033,0.068-0.051,0.146-0.051,0.225c0,0.943-2.633,2.263-6.921,2.263
	c-0.285,0-0.516,0.231-0.516,0.517c0,0.283,0.231,0.514,0.516,0.514c2.047,0,3.979-0.301,5.441-0.846
	c0.621-0.232,1.134-0.504,1.532-0.804L-20.27,32.184L-20.27,32.184z"/>
</svg>
