<?xml version="1.0" encoding="utf-8"?>
<!-- Generator: Adobe Illustrator 16.0.0, SVG Export Plug-In . SVG Version: 6.00 Build 0)  -->
<!DOCTYPE svg PUBLIC "-//W3C//DTD SVG 1.1//EN" "http://www.w3.org/Graphics/SVG/1.1/DTD/svg11.dtd">
<svg version="1.1" id="Layer_1" xmlns="http://www.w3.org/2000/svg" xmlns:xlink="http://www.w3.org/1999/xlink" x="0px" y="0px"
	 width="30px" height="50px" viewBox="-0.124 55.67 30 50" enable-background="new -0.124 55.67 30 50" xml:space="preserve">
<g>
	<path fill="#553E31" d="M4.06,81.548v-1.097c0.195-0.007,0.321-0.011,0.378-0.011c0.309,0,0.55,0.042,0.724,0.124
		c0.195,0.092,0.328,0.271,0.398,0.535c0.07,0.266,0.105,0.725,0.105,1.377c0,0.686-0.015,1.174-0.044,1.464
		c-0.029,0.291-0.086,0.511-0.17,0.658c-0.076,0.132-0.179,0.23-0.308,0.296c-0.129,0.064-0.306,0.106-0.53,0.126
		c-0.182,0.016-0.51,0.023-0.984,0.023c-0.463,0-0.797-0.008-1.002-0.023s-0.364-0.047-0.478-0.092
		c-0.254-0.101-0.418-0.304-0.493-0.609s-0.113-0.923-0.113-1.851c0-0.464,0.012-0.802,0.035-1.013s0.067-0.379,0.132-0.504
		c0.086-0.163,0.214-0.278,0.382-0.345c0.17-0.067,0.418-0.101,0.746-0.101c0.018,0,0.084,0.001,0.199,0.003v1.097
		c-0.133,0.005-0.222,0.013-0.267,0.022s-0.082,0.029-0.111,0.06c-0.041,0.042-0.07,0.148-0.089,0.318
		c-0.019,0.171-0.028,0.429-0.028,0.775c0,0.343,0.009,0.58,0.024,0.712c0.018,0.132,0.05,0.225,0.099,0.279
		c0.059,0.065,0.157,0.11,0.296,0.136s0.359,0.038,0.662,0.038s0.517-0.011,0.641-0.034c0.124-0.022,0.213-0.066,0.268-0.132
		c0.053-0.062,0.088-0.159,0.105-0.294s0.026-0.372,0.026-0.713c0-0.42-0.008-0.7-0.023-0.84S4.59,81.7,4.537,81.651
		C4.469,81.586,4.31,81.552,4.06,81.548z"/>
	<path fill="#553E31" d="M5.604,75.613l-0.677,0.309v2.381l0.677,0.309v1.253l-3.999-1.909v-1.703l3.999-1.883V75.613z
		 M4.051,76.307L2.536,77v0.219l1.515,0.694V76.307z"/>
	<path fill="#553E31" d="M1.604,73.666v-1.152h2.979v-2.561h1.02v3.713H1.604z"/>
	<path fill="#553E31" d="M4.279,69.182v-1.063c0.197,0.001,0.324-0.035,0.381-0.108c0.037-0.053,0.06-0.121,0.066-0.204
		c0.007-0.084,0.012-0.347,0.016-0.79c-0.002-0.464-0.005-0.743-0.01-0.836s-0.021-0.167-0.046-0.222
		c-0.037-0.081-0.138-0.121-0.302-0.121c-0.119,0-0.198,0.028-0.238,0.086c-0.04,0.057-0.063,0.174-0.066,0.35
		c0,0.135-0.012,0.422-0.035,0.859c-0.023,0.448-0.037,0.74-0.041,0.875c-0.01,0.264-0.037,0.467-0.084,0.608
		c-0.045,0.141-0.12,0.251-0.224,0.33c-0.172,0.136-0.459,0.203-0.861,0.203c-0.451,0-0.77-0.077-0.955-0.231
		c-0.145-0.118-0.236-0.299-0.276-0.544c-0.04-0.244-0.061-0.74-0.061-1.489c0-0.529,0.017-0.901,0.05-1.115
		c0.051-0.331,0.153-0.558,0.306-0.681c0.154-0.123,0.412-0.185,0.775-0.185c0.033,0,0.096,0.001,0.188,0.003v1.063
		c-0.111,0.004-0.188,0.012-0.229,0.025c-0.041,0.013-0.074,0.039-0.1,0.077c-0.031,0.048-0.051,0.131-0.061,0.251
		c-0.008,0.119-0.013,0.372-0.013,0.759c0,0.466,0.017,0.75,0.048,0.853c0.033,0.102,0.122,0.152,0.269,0.152
		c0.141,0,0.227-0.051,0.258-0.152c0.025-0.085,0.05-0.473,0.073-1.163c0.02-0.582,0.043-0.971,0.068-1.167
		c0.027-0.196,0.077-0.352,0.151-0.468c0.088-0.132,0.209-0.226,0.362-0.279c0.153-0.055,0.373-0.082,0.66-0.082
		c0.377,0,0.657,0.046,0.841,0.137c0.135,0.069,0.235,0.164,0.302,0.286s0.111,0.294,0.135,0.516
		c0.023,0.237,0.035,0.68,0.035,1.326c0,0.542-0.016,0.941-0.047,1.2c-0.031,0.258-0.087,0.452-0.167,0.582
		c-0.086,0.136-0.199,0.229-0.34,0.281s-0.354,0.078-0.642,0.078H4.279z"/>
</g>
</svg>
