<?xml version="1.0" encoding="utf-8"?>
<!-- Generator: Adobe Illustrator 16.0.0, SVG Export Plug-In . SVG Version: 6.00 Build 0)  -->
<!DOCTYPE svg PUBLIC "-//W3C//DTD SVG 1.1//EN" "http://www.w3.org/Graphics/SVG/1.1/DTD/svg11.dtd">
<svg version="1.1" id="Layer_1" xmlns="http://www.w3.org/2000/svg" xmlns:xlink="http://www.w3.org/1999/xlink" x="0px" y="0px"
	 width="30px" height="50px" viewBox="-0.124 0 30 50" enable-background="new -0.124 0 30 50" xml:space="preserve">
<g>
	<path fill="#553E31" d="M1.604,28.549v-1.107h1.45v-0.607l-1.477-1.438v-1.694l1.989,2.101l2.036-2.28v1.683l-1.529,1.627v0.607
		h1.529v1.107H1.604z"/>
	<path fill="#553E31" d="M4.464,20.393V19.41c0.236,0.009,0.417,0.03,0.54,0.065c0.125,0.035,0.233,0.094,0.327,0.177
		c0.139,0.125,0.231,0.291,0.276,0.5c0.046,0.21,0.069,0.567,0.069,1.073c0,0.398-0.019,0.696-0.056,0.894
		c-0.037,0.198-0.105,0.362-0.205,0.492c-0.098,0.124-0.236,0.21-0.418,0.258c-0.18,0.048-0.458,0.072-0.833,0.072
		c-0.342,0-0.6-0.022-0.773-0.066s-0.312-0.124-0.413-0.237c-0.109-0.124-0.185-0.289-0.226-0.495s-0.062-0.527-0.062-0.964
		c0-0.428,0.021-0.75,0.064-0.968c0.043-0.218,0.118-0.388,0.226-0.51c0.092-0.103,0.205-0.175,0.339-0.217
		c0.134-0.042,0.333-0.067,0.599-0.076v0.983c-0.162,0.016-0.274,0.081-0.335,0.196c-0.063,0.114-0.093,0.313-0.093,0.595
		c0,0.286,0.029,0.485,0.088,0.599c0.039,0.071,0.106,0.122,0.2,0.152c0.096,0.03,0.235,0.045,0.421,0.045
		c0.182,0,0.315-0.016,0.401-0.048c0.086-0.032,0.148-0.088,0.188-0.17c0.059-0.121,0.088-0.318,0.088-0.591
		c0-0.284-0.028-0.479-0.085-0.584C4.735,20.478,4.626,20.414,4.464,20.393z"/>
	<path fill="#553E31" d="M3.655,17.527v0.961c-0.221-0.012-0.388-0.055-0.501-0.128c-0.182-0.115-0.305-0.294-0.369-0.537
		c-0.064-0.242-0.097-0.652-0.097-1.229c0-0.424,0.018-0.714,0.053-0.868s0.112-0.286,0.231-0.394
		c0.094-0.085,0.207-0.144,0.338-0.174c0.133-0.031,0.327-0.047,0.585-0.047h1.708v0.927H5.217v0.045
		c0.164,0.071,0.283,0.184,0.357,0.338c0.039,0.082,0.066,0.196,0.08,0.343c0.016,0.147,0.022,0.382,0.022,0.703
		c0,0.259-0.019,0.459-0.054,0.599c-0.036,0.141-0.099,0.253-0.187,0.338c-0.131,0.125-0.345,0.187-0.642,0.187
		c-0.33,0-0.568-0.074-0.715-0.221c-0.115-0.117-0.19-0.271-0.226-0.463s-0.053-0.545-0.053-1.06c0-0.222,0.015-0.38,0.042-0.475
		c0.029-0.095,0.089-0.18,0.181-0.254v-0.042H3.875c-0.223,0-0.362,0.037-0.419,0.112c-0.057,0.074-0.085,0.258-0.085,0.551
		c0,0.346,0.015,0.56,0.044,0.642S3.524,17.511,3.655,17.527z M4.405,16.883c0,0.325,0.021,0.526,0.064,0.604
		c0.051,0.094,0.128,0.141,0.231,0.141c0.115,0,0.193-0.046,0.234-0.138s0.062-0.268,0.062-0.527c0-0.337-0.022-0.566-0.067-0.687
		c-0.045-0.121-0.13-0.181-0.255-0.181c-0.113,0-0.191,0.052-0.234,0.157C4.421,16.3,4.409,16.51,4.405,16.883z"/>
	<path fill="#553E31" d="M1.604,14.148v-0.964h3.999v0.964H1.604z"/>
</g>
</svg>
