<?xml version="1.0" encoding="utf-8"?>
<!-- Generator: Adobe Illustrator 16.0.0, SVG Export Plug-In . SVG Version: 6.00 Build 0)  -->
<!DOCTYPE svg PUBLIC "-//W3C//DTD SVG 1.1//EN" "http://www.w3.org/Graphics/SVG/1.1/DTD/svg11.dtd">
<svg version="1.1" xmlns="http://www.w3.org/2000/svg" xmlns:xlink="http://www.w3.org/1999/xlink" x="0px" y="0px" width="32px"
	 height="32px" viewBox="0 0 32 32" enable-background="new 0 0 32 32" xml:space="preserve">
<g id="Layer_1">
	<g>
		<path fill="#553E31" d="M8.055,8.521C6.896,8.89,5.606,9.408,4.079,10.534C1.639,12.333,0,15.317,0,17.958
			c0,2.692,1.256,5.059,3.36,6.328c1.307,0.79,3.2,1.173,5.786,1.173c1.536,0,3.355-0.138,5.408-0.413
			c6.029-0.81,11.033-2.67,13.318-4.155c2.456-1.594,3.997-3.928,4.121-6.238c0.142-2.565-2.179-4.872-4.396-6.174
			c-1.513-0.891-4.066-1.633-7.03-1.869C16.965,6.322,13.025,6.937,8.055,8.521z"/>
		<path fill="#CDB8AB" d="M27.212,9.133c-1.278-0.752-3.835-1.511-6.711-1.766c0.145,0.089,0.297,0.198,0.464,0.311
			c1.366,0.922,1.98,1.714,1.466,2.328c-1.644-1.861-4.772-2.515-6-2.476c-0.653,0.021-2.512,0.359-2.852,0.416
			c5.247,1.426,3.901,3.703,3.901,3.703c-3.763-3.387-8.356-2.495-9.484-2.179c-1.129,0.317-2.041,0.624-3.466,1.675
			c-2.255,1.663-3.771,4.401-3.771,6.813c0,2.423,1.119,4.546,2.994,5.678c1.186,0.718,2.948,1.063,5.393,1.063l0,0
			c1.504,0,3.291-0.136,5.307-0.405c5.908-0.795,10.79-2.602,13.005-4.042c2.254-1.463,3.666-3.571,3.777-5.642
			C31.357,12.384,29.144,10.268,27.212,9.133z"/>
		<path fill="#EBE0D5" stroke="#553E31" stroke-width="0.7" stroke-miterlimit="10" d="M16.494,22.559
			c-1.425,1.792-2.982,1.926-3.978,2.139c-0.912,0.193-1.774,0.232-2.703,0.225c-1.373-0.007-2.777,0.021-4.133-0.289
			c-0.499-0.119-1.023-0.263-1.496-0.492c-2.426-1.181-3.556-3.421-3.653-5.651c-0.101-2.276,1.034-4.531,2.645-5.76
			c0.435-0.329,0.918-0.611,1.401-0.83c0.715-0.321,2.402-0.878,4.921-0.867c0.777,0.004,1.558,0.096,2.323,0.271
			c1.262,0.296,2.525,0.985,3.559,1.866c1.117,0.954,1.915,2.217,2.249,3.82C18.053,19.024,17.723,21.015,16.494,22.559z"/>
		<g>
			<ellipse fill="#CDB8AB" cx="8.289" cy="12.855" rx="0.805" ry="0.609"/>
			<ellipse fill="#CDB8AB" cx="10.782" cy="15.762" rx="0.868" ry="0.639"/>
			<path fill="#CDB8AB" d="M12.054,12.426c0,0.215-0.257,0.386-0.572,0.386c-0.313,0-0.57-0.171-0.57-0.386
				c0-0.211,0.258-0.385,0.57-0.385C11.797,12.041,12.054,12.215,12.054,12.426z"/>
			<path fill="#CDB8AB" d="M5.307,13.369c0,0.247-0.325,0.446-0.727,0.446c-0.398,0-0.724-0.199-0.724-0.446
				c0-0.242,0.325-0.441,0.724-0.441C4.981,12.928,5.307,13.127,5.307,13.369z"/>
			<ellipse fill="#CDB8AB" cx="4.864" cy="16.198" rx="0.906" ry="0.631"/>
			<ellipse fill="#CDB8AB" cx="7.939" cy="17.771" rx="0.61" ry="0.421"/>
			<path fill="#CDB8AB" d="M15.401,15.698c0,0.363-0.426,0.665-0.948,0.665s-0.946-0.302-0.946-0.665c0-0.37,0.424-0.67,0.946-0.67
				S15.401,15.328,15.401,15.698z"/>
			<ellipse fill="#CDB8AB" cx="16.155" cy="17.705" rx="0.594" ry="0.408"/>
			<path fill="#CDB8AB" d="M12.074,19.304c0,0.26-0.326,0.468-0.733,0.468c-0.406,0-0.736-0.208-0.736-0.468
				c0-0.255,0.33-0.465,0.736-0.465C11.748,18.839,12.074,19.049,12.074,19.304z"/>
			<path fill="#CDB8AB" d="M15.439,20.239c0,0.208-0.237,0.377-0.533,0.377c-0.295,0-0.532-0.169-0.532-0.377
				c0-0.205,0.237-0.373,0.532-0.373C15.202,19.866,15.439,20.034,15.439,20.239z"/>
			<ellipse fill="#CDB8AB" cx="12.639" cy="22.494" rx="0.564" ry="0.317"/>
			<path fill="#CDB8AB" d="M8.149,21.479c0,0.205-0.273,0.371-0.608,0.371c-0.332,0-0.603-0.166-0.603-0.371
				c0-0.208,0.271-0.374,0.603-0.374C7.876,21.105,8.149,21.271,8.149,21.479z"/>
			<ellipse fill="#CDB8AB" cx="1.901" cy="17.554" rx="0.624" ry="0.443"/>
			<ellipse fill="#CDB8AB" cx="4.35" cy="20.16" rx="0.635" ry="0.456"/>
			<ellipse fill="#CDB8AB" cx="5.287" cy="22.776" rx="0.523" ry="0.361"/>
			<path fill="#CDB8AB" d="M10.888,23.162c0,0.28-0.312,0.513-0.695,0.513s-0.695-0.232-0.695-0.513
				c0-0.284,0.312-0.517,0.695-0.517S10.888,22.878,10.888,23.162z"/>
		</g>
	</g>
</g>
<g id="Layer_3">
</g>
</svg>
