<?xml version="1.0" encoding="utf-8"?>
<!-- Generator: Adobe Illustrator 16.0.0, SVG Export Plug-In . SVG Version: 6.00 Build 0)  -->
<!DOCTYPE svg PUBLIC "-//W3C//DTD SVG 1.1//EN" "http://www.w3.org/Graphics/SVG/1.1/DTD/svg11.dtd">
<svg version="1.1" xmlns="http://www.w3.org/2000/svg" xmlns:xlink="http://www.w3.org/1999/xlink" x="0px" y="0px" width="32px"
	 height="32px" viewBox="0 0 32 32" enable-background="new 0 0 32 32" xml:space="preserve">
<g id="Layer_1">
	<g>
		<polyline fill="#CDB8AB" stroke="#553E31" stroke-width="0.75" stroke-miterlimit="10" points="2.544,24.518 6.977,22.531 
			5.797,21.31 2.305,22.607 		"/>
		
			<path fill="#EBE0D5" stroke="#553E31" stroke-width="0.75" stroke-linecap="round" stroke-linejoin="round" stroke-miterlimit="10" d="
			M31.5,13.12v-1.495l-31-5.049v2.357c0.726,0,1.313,0.794,1.313,1.773S1.226,12.48,0.5,12.48v11.725l2.058,0.315
			c0.395-1.266,1.669-2.198,3.196-2.198c1.841,0,3.334,1.347,3.334,3.01c0,0.063-0.018,0.123-0.021,0.186l10.933,1.675
			c0.424-0.495,1.116-0.82,1.903-0.82c1.089,0,1.996,0.62,2.256,1.458l7.342,1.124v-3.249c-1.081-0.196-1.919-1.513-1.919-3.126
			s0.838-2.93,1.919-3.127v-4.674c-0.402-0.094-0.707-0.42-0.707-0.829C30.793,13.541,31.098,13.214,31.5,13.12z"/>
		
			<path fill="#EBE0D5" stroke="#553E31" stroke-width="0.75" stroke-linecap="round" stroke-linejoin="round" stroke-miterlimit="10" d="
			M28.786,9.826c-0.125,0.036-0.257,0.059-0.396,0.059c-0.658,0-1.19-0.426-1.19-0.951c0-0.051,0.009-0.099,0.019-0.146L24.399,6.92
			c-0.146,0.014-0.294,0.027-0.448,0.027c-1.577,0-2.857-0.773-2.857-1.726c0-0.148,0.041-0.29,0.099-0.428l-2.638-1.748
			c-0.623,0-1.42,0.007-2.324,0.027c-0.18,0.733-1.046,1.292-2.095,1.292c-0.959,0-1.76-0.469-2.029-1.109
			C7.137,3.594,1.482,4.451,0.5,6.576l31,5.049L28.786,9.826z"/>
		
			<line fill="#EBE0D5" stroke="#553E31" stroke-width="0.75" stroke-miterlimit="10" x1="22.52" y1="26.441" x2="19.994" y2="27.191"/>
		<g>
			<path fill="#CDB8AB" d="M24.597,11.378c-0.17,0-0.354-0.015-0.542-0.047c-0.628-0.106-1.135-0.358-1.359-0.674
				c-0.14-0.197-0.145-0.379-0.124-0.497c0.071-0.417,0.536-0.665,1.244-0.665c0.17,0,0.354,0.015,0.544,0.047
				c0.626,0.105,1.134,0.356,1.358,0.672c0.14,0.197,0.145,0.379,0.124,0.496C25.77,11.129,25.304,11.378,24.597,11.378z"/>
			<path fill="#553E31" d="M23.815,9.871c0.15,0,0.313,0.014,0.481,0.042c0.698,0.117,1.226,0.446,1.176,0.735
				c-0.039,0.221-0.398,0.355-0.876,0.355c-0.15,0-0.313-0.014-0.48-0.042c-0.697-0.118-1.226-0.447-1.176-0.737
				C22.979,10.005,23.338,9.871,23.815,9.871 M23.815,9.121L23.815,9.121c-0.905,0-1.509,0.365-1.614,0.976
				c-0.046,0.266,0.021,0.542,0.188,0.777c0.404,0.57,1.254,0.768,1.602,0.827c0.206,0.035,0.409,0.052,0.605,0.052
				c0.904,0,1.508-0.365,1.615-0.976c0.046-0.267-0.021-0.543-0.188-0.779c-0.404-0.57-1.256-0.768-1.603-0.826
				C24.217,9.139,24.013,9.121,23.815,9.121L23.815,9.121z"/>
		</g>
		<g>
			<path fill="#CDB8AB" d="M14.401,11.69c-0.255,0-0.495-0.023-0.714-0.069c-1.929-0.402-3.068-1.716-2.904-3.347l0.016-0.151
				l0.116-0.098c0.916-0.77,2.244-0.854,2.773-0.854c0.26,0,0.499,0.018,0.704,0.047c1.041,0.146,2.822,0.6,3.06,1.996
				c0.091,0.537-0.044,1.038-0.391,1.448C16.422,11.421,15.229,11.69,14.401,11.69z"/>
			<path fill="#553E31" d="M13.688,7.546c0.24,0,0.462,0.016,0.651,0.043c1.044,0.146,2.555,0.581,2.742,1.688
				c0.234,1.379-1.391,2.039-2.681,2.039c-0.228,0-0.443-0.021-0.638-0.061c-1.864-0.389-2.739-1.63-2.607-2.942
				C11.847,7.731,12.873,7.546,13.688,7.546 M13.688,6.796L13.688,6.796c-0.708,0-2.041,0.123-3.015,0.941L10.44,7.934l-0.03,0.303
				c-0.151,1.503,0.78,3.247,3.2,3.751c0.244,0.051,0.51,0.077,0.791,0.077c0.951,0,2.225-0.305,2.947-1.161
				c0.42-0.497,0.583-1.104,0.473-1.753c-0.205-1.209-1.404-2.028-3.377-2.305C14.209,6.813,13.954,6.796,13.688,6.796L13.688,6.796
				z"/>
		</g>
		<g>
			<ellipse fill="#CDB8AB" cx="24.905" cy="23.021" rx="1.818" ry="1.787"/>
			<path fill="#553E31" d="M24.905,21.608c0.797,0,1.442,0.633,1.442,1.412s-0.646,1.412-1.442,1.412
				c-0.798,0-1.443-0.633-1.443-1.412S24.107,21.608,24.905,21.608 M24.905,20.858c-1.209,0-2.193,0.97-2.193,2.162
				s0.984,2.162,2.193,2.162s2.192-0.97,2.192-2.162S26.114,20.858,24.905,20.858L24.905,20.858z"/>
		</g>
		<g>
			<ellipse fill="#CDB8AB" cx="11.525" cy="19.769" rx="1.457" ry="1.302"/>
			<path fill="#553E31" d="M11.525,18.842c0.599,0,1.083,0.415,1.083,0.928c0,0.512-0.484,0.927-1.083,0.927
				c-0.597,0-1.082-0.415-1.082-0.927C10.443,19.257,10.929,18.842,11.525,18.842 M11.525,18.092c-1.01,0-1.832,0.753-1.832,1.678
				s0.822,1.677,1.832,1.677c1.011,0,1.833-0.752,1.833-1.677S12.536,18.092,11.525,18.092L11.525,18.092z"/>
		</g>
		
			<ellipse fill="#CDB8AB" stroke="#553E31" stroke-width="0.75" stroke-miterlimit="10" cx="3.805" cy="18.3" rx="1.385" ry="1.313"/>
		
			<ellipse fill="#CDB8AB" stroke="#553E31" stroke-width="0.75" stroke-miterlimit="10" cx="6.923" cy="13.165" rx="2.425" ry="1.797"/>
		<path fill="#CDB8AB" stroke="#553E31" stroke-width="0.75" stroke-miterlimit="10" d="M22.638,18.236
			c-0.595,1.348-2.465,1.841-4.173,1.104c-1.709-0.739-2.609-2.431-2.013-3.778c0.596-1.348,2.464-1.841,4.173-1.103
			C22.333,15.197,23.234,16.889,22.638,18.236z"/>
		
			<ellipse transform="matrix(0.9938 0.1115 -0.1115 0.9938 0.6783 -1.1451)" fill="#CDB8AB" stroke="#553E31" stroke-width="0.75" stroke-miterlimit="10" cx="10.58" cy="5.494" rx="1.818" ry="0.557"/>
		
			<ellipse transform="matrix(0.9863 0.1652 -0.1652 0.9863 1.2161 -2.9152)" fill="#CDB8AB" stroke="#553E31" stroke-width="0.75" stroke-miterlimit="10" cx="18.131" cy="5.852" rx="1.061" ry="0.44"/>
	</g>
</g>
<g id="Layer_3">
</g>
</svg>
