<?xml version="1.0" encoding="utf-8"?>
<!-- Generator: Adobe Illustrator 16.0.0, SVG Export Plug-In . SVG Version: 6.00 Build 0)  -->
<!DOCTYPE svg PUBLIC "-//W3C//DTD SVG 1.1//EN" "http://www.w3.org/Graphics/SVG/1.1/DTD/svg11.dtd">
<svg version="1.1" id="Layer_1" xmlns="http://www.w3.org/2000/svg" xmlns:xlink="http://www.w3.org/1999/xlink" x="0px" y="0px"
	 width="12px" height="20px" viewBox="0 0 12 20" enable-background="new 0 0 12 20" xml:space="preserve">
<g>
	<g>
		<path fill="#553E31" d="M11.256,19.072l-0.327-0.32c0.044-0.074,0.075-0.156,0.075-0.248c0-0.18-0.097-0.34-0.243-0.428
			l-7.985-7.832l8.556-8.395c0.146-0.143,0.189-0.357,0.11-0.545c-0.079-0.186-0.265-0.309-0.471-0.309h-0.281l0.146-0.143
			c0.146-0.143,0.189-0.357,0.11-0.545C10.867,0.123,10.681,0,10.475,0H0c0,0.813,0,1.626,0,2.439c0,5.32,0,9.858,0,15
			c0,0.667,0,1.333,0,2C0,19.626,0,19.813,0,20h10.971c0.006,0,0.015,0,0.02,0c0.282,0,0.51-0.223,0.51-0.5
			C11.5,19.32,11.402,19.16,11.256,19.072z"/>
		<path fill="#EBE0D5" d="M0.938,9.148L9.244,1H0c0,0.48,0,0.959,0,1.439c0,5.32,0,9.858,0,15c0,0.188,0,0.376,0,0.564h9.244
			L0.938,9.855C0.739,9.66,0.739,9.344,0.938,9.148z"/>
	</g>
</g>
</svg>
