<?xml version="1.0" encoding="utf-8"?>
<!-- Generator: Adobe Illustrator 16.0.0, SVG Export Plug-In . SVG Version: 6.00 Build 0)  -->
<!DOCTYPE svg PUBLIC "-//W3C//DTD SVG 1.1//EN" "http://www.w3.org/Graphics/SVG/1.1/DTD/svg11.dtd">
<svg version="1.1" id="Layer_1" xmlns="http://www.w3.org/2000/svg" xmlns:xlink="http://www.w3.org/1999/xlink" x="0px" y="0px"
	 width="35px" height="35px" viewBox="0 0 35 35" enable-background="new 0 0 35 35" xml:space="preserve">
<g>
	<g>
		<path fill-rule="evenodd" clip-rule="evenodd" fill="#553E31" d="M8.215,31.171c-0.416,0-0.781-0.275-0.897-0.674L4.116,19.47
			c-0.082-0.283-0.026-0.587,0.15-0.822c0.177-0.235,0.453-0.374,0.747-0.374h25.492c0.294,0,0.57,0.138,0.747,0.374
			c0.177,0.235,0.232,0.54,0.15,0.822L28.2,30.498c-0.116,0.399-0.481,0.674-0.897,0.674H8.215z"/>
		<path fill="#553E31" d="M30.506,19.209l-3.203,11.027H8.215L5.014,19.209H30.506 M30.506,17.34H5.014
			c-0.588,0-1.142,0.277-1.494,0.747c-0.354,0.47-0.465,1.079-0.301,1.644L6.42,30.758c0.231,0.799,0.963,1.348,1.795,1.348h19.088
			c0.831,0,1.563-0.549,1.795-1.348l3.203-11.027c0.164-0.565,0.053-1.173-0.301-1.644C31.647,17.617,31.094,17.34,30.506,17.34
			L30.506,17.34z"/>
	</g>
	
		<path fill="none" stroke="#553E31" stroke-width="1.869" stroke-linecap="round" stroke-linejoin="round" stroke-miterlimit="10" d="
		M30.506,19.209"/>
	
		<path fill="none" stroke="#553E31" stroke-width="1.869" stroke-linecap="round" stroke-linejoin="round" stroke-miterlimit="10" d="
		M5.014,19.209"/>
	<g>
		<path fill="#553E31" d="M32,17.807H3h0.75h27.5H32 M32,15.689H3c-1.17,0-2.118,0.948-2.118,2.118S1.83,19.925,3,19.925h0.75h27.5
			H32c1.17,0,2.118-0.948,2.118-2.118S33.17,15.689,32,15.689L32,15.689z"/>
	</g>
	<g>
		<g>
			<path fill="#553E31" d="M26.488,18.483c-0.728,0-1.397-0.366-1.791-0.979L18.267,7.397c-0.622-0.988-0.329-2.299,0.649-2.925
				c0.299-0.189,0.64-0.302,0.988-0.328L20.05,4.14c0.734,0,1.404,0.368,1.793,0.985l6.428,10.103
				c0.305,0.475,0.405,1.042,0.283,1.593c-0.122,0.554-0.454,1.026-0.935,1.331c-0.301,0.191-0.634,0.302-0.987,0.327L26.488,18.483
				z"/>
			<path fill="#FFFCF5" d="M20.05,4.763c0.498,0,0.982,0.244,1.266,0.694l6.43,10.105c0.446,0.696,0.24,1.62-0.46,2.063
				c-0.216,0.138-0.453,0.214-0.697,0.231c-0.033,0.002-0.066,0.003-0.1,0.003c-0.492,0-0.979-0.244-1.267-0.692l-0.165-0.262
				l-6.098-9.583l-0.168-0.262c-0.439-0.698-0.233-1.62,0.461-2.064c0.217-0.138,0.459-0.214,0.697-0.231
				C19.982,4.764,20.017,4.763,20.05,4.763 M20.05,3.517c-0.061,0-0.122,0.002-0.183,0.006c-0.458,0.033-0.899,0.179-1.283,0.422
				c-1.27,0.813-1.648,2.507-0.848,3.779l0.174,0.271l6.096,9.579l0.162,0.257c0.514,0.801,1.38,1.274,2.32,1.274
				c0.062,0,0.122-0.002,0.183-0.006c0.457-0.032,0.899-0.179,1.284-0.424c0.619-0.392,1.048-1.003,1.207-1.72
				c0.158-0.715,0.027-1.449-0.368-2.066L22.366,4.788C21.866,3.994,20.999,3.517,20.05,3.517L20.05,3.517z"/>
		</g>
		<g>
			<path fill="#553E31" d="M8.89,18.478c-0.351-0.024-0.684-0.133-0.99-0.324c-0.482-0.309-0.813-0.78-0.935-1.332
				c-0.123-0.553-0.022-1.12,0.283-1.597l6.428-10.104c0.393-0.615,1.062-0.982,1.789-0.982l0.142,0.005
				c0.352,0.024,0.684,0.133,0.99,0.323c0.99,0.634,1.278,1.945,0.65,2.929l-6.432,10.11c-0.388,0.609-1.056,0.976-1.784,0.976
				L8.89,18.478z"/>
			<path fill="#FFFCF5" d="M15.465,4.763c0.033,0,0.066,0.001,0.1,0.003c0.244,0.017,0.481,0.093,0.703,0.231
				c0.694,0.444,0.9,1.366,0.454,2.064l-0.165,0.262l-6.094,9.583l-0.17,0.262c-0.285,0.449-0.769,0.692-1.262,0.692
				c-0.033,0-0.066-0.001-0.1-0.003c-0.244-0.017-0.481-0.094-0.703-0.231c-0.694-0.444-0.901-1.367-0.456-2.063l6.429-10.105
				C14.488,5.006,14.973,4.763,15.465,4.763 M15.465,3.517c-0.941,0-1.807,0.475-2.314,1.27l-6.43,10.106
				c-0.393,0.615-0.522,1.35-0.364,2.065c0.159,0.713,0.585,1.323,1.201,1.717c0.407,0.253,0.835,0.393,1.287,0.425
				c0.064,0.004,0.126,0.006,0.187,0.006c0.942,0,1.808-0.475,2.313-1.27l0.163-0.252l6.101-9.593l0.167-0.266
				c0.81-1.266,0.437-2.964-0.836-3.778c-0.407-0.253-0.836-0.393-1.288-0.425C15.587,3.519,15.525,3.517,15.465,3.517L15.465,3.517
				z"/>
		</g>
	</g>
	<g>
		
			<line fill="none" stroke="#FFFCF5" stroke-width="2.4919" stroke-linecap="round" stroke-linejoin="round" stroke-miterlimit="10" x1="9.966" y1="28.959" x2="9.966" y2="21.401"/>
		
			<line fill="none" stroke="#FFFCF5" stroke-width="2.4919" stroke-linecap="round" stroke-linejoin="round" stroke-miterlimit="10" x1="15.164" y1="28.959" x2="15.164" y2="21.401"/>
		
			<line fill="none" stroke="#FFFCF5" stroke-width="2.4919" stroke-linecap="round" stroke-linejoin="round" stroke-miterlimit="10" x1="20.355" y1="28.959" x2="20.355" y2="21.401"/>
		
			<line fill="none" stroke="#FFFCF5" stroke-width="2.4919" stroke-linecap="round" stroke-linejoin="round" stroke-miterlimit="10" x1="25.553" y1="28.959" x2="25.553" y2="21.401"/>
	</g>
</g>
</svg>
