<?xml version="1.0" encoding="utf-8"?>
<!-- Generator: Adobe Illustrator 16.0.0, SVG Export Plug-In . SVG Version: 6.00 Build 0)  -->
<!DOCTYPE svg PUBLIC "-//W3C//DTD SVG 1.1//EN" "http://www.w3.org/Graphics/SVG/1.1/DTD/svg11.dtd">
<svg version="1.1" id="Layer_1" xmlns="http://www.w3.org/2000/svg" xmlns:xlink="http://www.w3.org/1999/xlink" x="0px" y="0px"
	 width="230px" height="90px" viewBox="0 0 230 90" enable-background="new 0 0 230 90" xml:space="preserve">
<g>
	<g>
		<g>
			<polygon fill="#F7931E" points="34.563,15.412 34.563,72.994 34.563,80.216 46.083,74.794 46.083,9.784 			"/>
		</g>
		<polyline fill="#B3B3B3" points="74.461,34.422 76.051,50.934 53.771,46.086 		"/>
		<g>
			<g>
				<path fill="#B3B3B3" d="M48.105,31.101v7.315c4.823,0.835,9.139,2.422,12.583,4.551l8.146-5.035
					C63.283,34.5,56.118,32.069,48.105,31.101z M11.521,55.552c0-8.163,8.896-15.037,21.02-17.136v-7.317
					C13.995,33.34,0,43.435,0,55.552c0,12.554,15.021,22.937,34.563,24.664v-7.222C21.416,71.346,11.521,64.163,11.521,55.552z"/>
			</g>
		</g>
	</g>
	<g>
		<path fill="#F7931E" d="M89.004,34.72c0.639-2.007,1.598-3.783,2.876-5.33c1.278-1.546,2.869-2.78,4.772-3.702
			c1.902-0.921,4.117-1.383,6.646-1.383c2.526,0,4.742,0.462,6.645,1.383c1.903,0.922,3.494,2.156,4.772,3.702
			c1.278,1.546,2.237,3.323,2.877,5.33c0.639,2.007,0.959,4.096,0.959,6.266c0,2.171-0.32,4.26-0.959,6.267
			c-0.64,2.007-1.599,3.783-2.877,5.329c-1.278,1.547-2.869,2.772-4.772,3.68c-1.902,0.907-4.118,1.36-6.645,1.36
			c-2.528,0-4.743-0.454-6.646-1.36c-1.903-0.907-3.494-2.133-4.772-3.68c-1.278-1.546-2.237-3.322-2.876-5.329
			c-0.64-2.007-0.96-4.096-0.96-6.267C88.044,38.816,88.364,36.727,89.004,34.72z M92.905,45.736
			c0.416,1.562,1.07,2.966,1.963,4.215s2.036,2.253,3.434,3.01c1.397,0.758,3.063,1.138,4.996,1.138c1.933,0,3.597-0.38,4.995-1.138
			c1.397-0.757,2.542-1.762,3.434-3.01c0.893-1.249,1.546-2.653,1.963-4.215c0.416-1.561,0.624-3.144,0.624-4.75
			c0-1.604-0.208-3.188-0.624-4.749c-0.417-1.561-1.07-2.966-1.963-4.214c-0.892-1.249-2.036-2.252-3.434-3.011
			c-1.398-0.758-3.063-1.137-4.995-1.137c-1.934,0-3.599,0.379-4.996,1.137c-1.397,0.758-2.542,1.762-3.434,3.011
			c-0.893,1.249-1.546,2.653-1.963,4.214c-0.417,1.561-0.624,3.145-0.624,4.749C92.281,42.592,92.488,44.175,92.905,45.736z"/>
		<path fill="#F7931E" d="M125.686,33.85v3.122h0.089c0.625-1.278,1.605-2.208,2.943-2.787c1.339-0.58,2.811-0.87,4.416-0.87
			c1.784,0,3.338,0.328,4.66,0.98c1.323,0.655,2.423,1.539,3.301,2.654c0.876,1.116,1.538,2.402,1.984,3.858
			c0.446,1.457,0.669,3.004,0.669,4.639c0,1.636-0.216,3.182-0.646,4.638c-0.432,1.457-1.086,2.729-1.963,3.813
			c-0.877,1.086-1.978,1.94-3.3,2.564c-1.323,0.625-2.862,0.938-4.616,0.938c-0.564,0-1.197-0.06-1.895-0.179
			c-0.7-0.12-1.391-0.313-2.075-0.58c-0.684-0.267-1.33-0.631-1.939-1.092c-0.61-0.461-1.122-1.033-1.539-1.718h-0.089v11.863
			h-3.791V33.85H125.686z M139.311,42.034c-0.283-1.025-0.713-1.94-1.294-2.742c-0.579-0.803-1.323-1.442-2.229-1.918
			c-0.907-0.475-1.971-0.713-3.188-0.713c-1.278,0-2.363,0.252-3.255,0.758c-0.893,0.506-1.621,1.167-2.186,1.984
			c-0.565,0.818-0.975,1.747-1.227,2.787c-0.253,1.042-0.379,2.097-0.379,3.167c0,1.13,0.134,2.223,0.4,3.277
			c0.268,1.056,0.692,1.985,1.271,2.788c0.58,0.803,1.33,1.449,2.252,1.94c0.922,0.489,2.036,0.735,3.345,0.735
			s2.401-0.253,3.278-0.758c0.877-0.506,1.583-1.175,2.118-2.007c0.535-0.833,0.922-1.784,1.16-2.854
			c0.237-1.07,0.356-2.17,0.356-3.301C139.734,44.108,139.593,43.06,139.311,42.034z"/>
		<path fill="#F7931E" d="M163.639,55.436c-1.725,1.309-3.896,1.963-6.512,1.963c-1.844,0-3.441-0.299-4.794-0.893
			c-1.354-0.595-2.49-1.427-3.412-2.498c-0.922-1.07-1.612-2.348-2.073-3.835c-0.462-1.486-0.722-3.106-0.781-4.861
			c0-1.754,0.268-3.359,0.803-4.816s1.286-2.722,2.253-3.791c0.966-1.07,2.11-1.902,3.434-2.498
			c1.323-0.594,2.771-0.892,4.349-0.892c2.051,0,3.754,0.423,5.106,1.271s2.438,1.925,3.256,3.233
			c0.817,1.31,1.382,2.736,1.695,4.281c0.312,1.547,0.438,3.019,0.379,4.416h-17.26c-0.03,1.012,0.09,1.97,0.356,2.877
			c0.268,0.906,0.699,1.71,1.294,2.408c0.594,0.698,1.353,1.257,2.273,1.672c0.923,0.417,2.008,0.624,3.257,0.624
			c1.605,0,2.92-0.371,3.947-1.114c1.025-0.743,1.701-1.873,2.028-3.39h3.747C166.478,52.18,165.361,54.128,163.639,55.436z
			 M162.725,40.629c-0.342-0.803-0.803-1.494-1.384-2.074c-0.579-0.579-1.264-1.04-2.051-1.382
			c-0.788-0.342-1.657-0.513-2.608-0.513c-0.981,0-1.867,0.17-2.653,0.513c-0.788,0.342-1.466,0.811-2.03,1.404
			c-0.565,0.595-1.011,1.286-1.338,2.074s-0.521,1.627-0.579,2.52h13.245C163.267,42.28,163.066,41.432,162.725,40.629z"/>
		<path fill="#F7931E" d="M173.495,33.85v3.657h0.088c1.576-2.794,4.073-4.192,7.493-4.192c1.517,0,2.78,0.208,3.791,0.625
			c1.011,0.416,1.828,0.996,2.453,1.739c0.624,0.744,1.063,1.627,1.315,2.654c0.252,1.026,0.379,2.163,0.379,3.412v15.163h-3.791
			V41.298c0-1.428-0.416-2.557-1.248-3.389c-0.833-0.833-1.979-1.249-3.436-1.249c-1.158,0-2.163,0.178-3.01,0.534
			c-0.847,0.357-1.554,0.862-2.118,1.517s-0.989,1.421-1.271,2.297c-0.283,0.877-0.424,1.837-0.424,2.876v13.023h-3.791V33.85
			H173.495z"/>
		<path fill="#F7931E" d="M198.871,25.064v31.843h-4.684V25.064H198.871z"/>
		<path fill="#F7931E" d="M214.702,25.064c4.906,0,8.682,1.249,11.329,3.747c2.646,2.498,3.969,6.304,3.969,11.417
			c0,2.676-0.298,5.048-0.893,7.113c-0.595,2.067-1.516,3.807-2.765,5.218c-1.249,1.413-2.84,2.491-4.772,3.233
			c-1.933,0.744-4.222,1.115-6.868,1.115h-10.927V25.064H214.702z M215.059,53.34c0.477,0,1.071-0.038,1.784-0.112
			c0.714-0.073,1.473-0.252,2.275-0.535c0.802-0.281,1.598-0.691,2.386-1.226c0.787-0.535,1.494-1.265,2.117-2.186
			c0.626-0.921,1.139-2.074,1.54-3.456c0.401-1.383,0.602-3.056,0.602-5.018c0-1.902-0.187-3.604-0.557-5.107
			c-0.372-1.501-0.981-2.78-1.829-3.835c-0.848-1.055-1.939-1.857-3.278-2.408c-1.338-0.55-2.988-0.825-4.95-0.825h-7.136V53.34
			H215.059L215.059,53.34z"/>
	</g>
</g>
</svg>
