<?xml version="1.0" encoding="utf-8"?>
<!-- Generator: Adobe Illustrator 16.0.0, SVG Export Plug-In . SVG Version: 6.00 Build 0)  -->
<!DOCTYPE svg PUBLIC "-//W3C//DTD SVG 1.1//EN" "http://www.w3.org/Graphics/SVG/1.1/DTD/svg11.dtd">
<svg version="1.1" id="Layer_1" xmlns="http://www.w3.org/2000/svg" xmlns:xlink="http://www.w3.org/1999/xlink" x="0px" y="0px"
	 width="230px" height="90px" viewBox="0 0 230 90" enable-background="new 0 0 230 90" xml:space="preserve">
<g>
	<path fill="#00749A" d="M107.781,75.391h-7.473v0.793c2.338,0,2.713,0.502,2.713,3.467v5.342c0,2.965-0.375,3.508-2.713,3.508
		c-1.794-0.252-3.005-1.213-4.675-3.047l-1.92-2.088c2.588-0.459,3.965-2.086,3.965-3.924c0-2.295-1.961-4.049-5.635-4.049h-7.347
		v0.793c2.336,0,2.713,0.5,2.713,3.465v5.344c0,2.965-0.375,3.506-2.713,3.506v0.793h8.307V88.5c-2.338,0-2.713-0.541-2.713-3.506
		v-1.502h0.708l4.634,5.801h12.146c5.97,0,8.558-3.17,8.558-6.971C116.338,78.521,113.75,75.391,107.781,75.391z M90.29,82.193
		v-5.551h1.711c1.878,0,2.713,1.295,2.713,2.797c0,1.461-0.835,2.754-2.713,2.754H90.29L90.29,82.193z M107.906,87.996h-0.293
		c-1.502,0-1.711-0.375-1.711-2.295v-9.059c0,0,1.838,0,2.004,0c4.342,0,5.136,3.172,5.136,5.635
		C113.04,84.824,112.247,87.996,107.906,87.996z"/>
	<path fill="#00749A" d="M61.445,83.738l2.881-8.516c0.834-2.463,0.459-3.174-2.211-3.174v-0.834h7.848v0.834
		c-2.629,0-3.255,0.627-4.301,3.676L60.904,90h-0.543l-4.258-13.066l-4.34,13.064h-0.545l-4.634-14.275
		c-1.002-3.047-1.67-3.674-4.091-3.674v-0.836h9.268v0.836c-2.463,0-3.132,0.584-2.254,3.172l2.796,8.518l4.216-12.525h0.795
		L61.445,83.738z"/>
	<path fill="#00749A" d="M75.638,89.832c-4.592,0-8.349-3.381-8.349-7.514c0-4.09,3.757-7.473,8.349-7.473
		c4.593,0,8.349,3.383,8.349,7.473C83.986,86.451,80.23,89.832,75.638,89.832z M75.638,76.143c-3.84,0-5.176,3.465-5.176,6.178
		c0,2.756,1.336,6.178,5.176,6.178c3.882,0,5.218-3.422,5.218-6.178C80.855,79.605,79.52,76.143,75.638,76.143z"/>
	<path fill="#464342" d="M126.648,88.455v0.834h-9.56v-0.834c2.797,0,3.297-0.709,3.297-4.883v-6.68c0-4.176-0.5-4.844-3.297-4.844
		v-0.834h8.642c4.299,0,6.678,2.213,6.678,5.178c0,2.881-2.379,5.135-6.678,5.135h-2.381v2.045
		C123.35,87.746,123.851,88.455,126.648,88.455z M125.73,72.719h-2.381v7.264h2.381c2.338,0,3.422-1.629,3.422-3.588
		C129.152,74.391,128.068,72.719,125.73,72.719z"/>
	<path fill="#464342" d="M161.085,85.365l-0.208,0.754c-0.376,1.377-0.835,1.877-3.799,1.877h-0.586c-2.17,0-2.545-0.5-2.545-3.465
		v-1.92c3.254,0,3.506,0.291,3.506,2.463h0.794v-6.221h-0.794c0,2.172-0.252,2.463-3.506,2.463v-4.674h2.295
		c2.964,0,3.423,0.5,3.799,1.877l0.209,0.793h0.668l-0.292-3.924h-12.272v0.795c2.338,0,2.713,0.5,2.713,3.465v5.344
		c0,2.711-0.317,3.393-2.162,3.492c-1.752-0.27-2.955-1.225-4.601-3.033l-1.92-2.088c2.589-0.459,3.967-2.086,3.967-3.924
		c0-2.295-1.962-4.049-5.636-4.049h-7.348v0.793c2.339,0,2.715,0.5,2.715,3.467v5.342c0,2.965-0.375,3.508-2.715,3.508v0.793h8.308
		V88.5c-2.337,0-2.713-0.543-2.713-3.508V83.49h0.709l4.633,5.803h17.157l0.251-3.924h-0.627V85.365z M138.962,82.193v-5.551h1.711
		c1.878,0,2.714,1.295,2.714,2.797c0,1.461-0.835,2.754-2.714,2.754H138.962L138.962,82.193z"/>
	<path fill="#464342" d="M169.561,89.832c-1.671,0-3.133-0.875-3.758-1.418c-0.209,0.209-0.585,0.834-0.668,1.418h-0.794v-5.76
		h0.834c0.334,2.756,2.255,4.383,4.718,4.383c1.336,0,2.422-0.75,2.422-2.004c0-1.086-0.961-1.92-2.672-2.713l-2.38-1.127
		c-1.67-0.793-2.923-2.17-2.923-4.006c0-2.004,1.878-3.717,4.467-3.717c1.378,0,2.547,0.502,3.256,1.086
		c0.209-0.166,0.416-0.627,0.543-1.127h0.793v4.926h-0.877c-0.291-1.961-1.377-3.59-3.59-3.59c-1.169,0-2.255,0.67-2.255,1.713
		c0,1.086,0.877,1.668,2.881,2.588l2.296,1.127c2.004,0.959,2.797,2.504,2.797,3.756C174.652,87.996,172.355,89.832,169.561,89.832z
		"/>
	<path fill="#464342" d="M182.416,89.832c-1.67,0-3.133-0.875-3.758-1.418c-0.209,0.209-0.586,0.834-0.668,1.418h-0.795v-5.76h0.836
		c0.334,2.756,2.254,4.383,4.718,4.383c1.335,0,2.421-0.75,2.421-2.004c0-1.086-0.96-1.92-2.672-2.713l-2.381-1.127
		c-1.668-0.793-2.922-2.17-2.922-4.006c0-2.004,1.879-3.717,4.467-3.717c1.378,0,2.546,0.502,3.257,1.086
		c0.208-0.166,0.417-0.627,0.542-1.127h0.794v4.926h-0.878c-0.291-1.961-1.377-3.59-3.59-3.59c-1.168,0-2.254,0.67-2.254,1.713
		c0,1.086,0.877,1.668,2.882,2.588l2.295,1.127c2.004,0.959,2.797,2.504,2.797,3.756C187.508,87.996,185.213,89.832,182.416,89.832z
		"/>
	<g>
		<path fill="#464342" d="M87.889,31.438c0,10.676,6.204,19.9,15.2,24.271L90.224,20.461C88.729,23.816,87.889,27.527,87.889,31.438
			z"/>
		<path fill="#464342" d="M133.064,30.076c0-3.332-1.197-5.641-2.224-7.438c-1.367-2.221-2.649-4.104-2.649-6.324
			c0-2.48,1.881-4.787,4.528-4.787c0.12,0,0.231,0.014,0.351,0.02c-4.799-4.395-11.19-7.08-18.213-7.08
			c-9.422,0-17.711,4.834-22.533,12.156c0.634,0.021,1.229,0.033,1.736,0.033c2.82,0,7.188-0.342,7.188-0.342
			c1.453-0.086,1.625,2.049,0.173,2.221c0,0-1.462,0.172-3.087,0.256l9.82,29.213l5.903-17.701l-4.202-11.512
			c-1.451-0.084-2.828-0.256-2.828-0.256c-1.453-0.086-1.283-2.307,0.17-2.221c0,0,4.455,0.342,7.104,0.342
			c2.821,0,7.188-0.342,7.188-0.342c1.453-0.086,1.625,2.049,0.172,2.221c0,0-1.463,0.172-3.086,0.256l9.746,28.992l2.688-8.99
			C132.177,35.064,133.064,32.385,133.064,30.076z"/>
		<path fill="#464342" d="M115.332,33.797l-8.092,23.516c2.414,0.709,4.971,1.098,7.617,1.098c3.141,0,6.153-0.543,8.957-1.529
			c-0.072-0.113-0.139-0.236-0.192-0.371L115.332,33.797z"/>
		<path fill="#464342" d="M138.523,18.5c0.115,0.859,0.182,1.781,0.182,2.773c0,2.734-0.512,5.813-2.051,9.66l-8.237,23.816
			c8.018-4.676,13.411-13.363,13.411-23.311C141.828,26.75,140.63,22.34,138.523,18.5z"/>
		<path fill="#464342" d="M114.857,0C97.523,0,83.42,14.104,83.42,31.438c0,17.338,14.104,31.439,31.438,31.439
			s31.44-14.102,31.44-31.439C146.298,14.104,132.191,0,114.857,0z M114.857,61.438c-16.539,0-29.996-13.457-29.996-30
			c0-16.539,13.457-29.996,29.996-29.996c16.541,0,29.996,13.457,29.996,29.996C144.854,47.98,131.398,61.438,114.857,61.438z"/>
	</g>
</g>
</svg>
