<?xml version="1.0" encoding="utf-8"?>
<!-- Generator: Adobe Illustrator 16.0.0, SVG Export Plug-In . SVG Version: 6.00 Build 0)  -->
<!DOCTYPE svg PUBLIC "-//W3C//DTD SVG 1.1//EN" "http://www.w3.org/Graphics/SVG/1.1/DTD/svg11.dtd">
<svg version="1.1" id="Layer_1" xmlns="http://www.w3.org/2000/svg" xmlns:xlink="http://www.w3.org/1999/xlink" x="0px" y="0px"
	 width="230px" height="90px" viewBox="0 0 230 90" enable-background="new 0 0 230 90" xml:space="preserve">
<g>
	<g>
		<path fill="#7B0099" d="M62.75,34.344c-1.125,0.111-5.812,1.16-7.385,1.496c-1.687,0.451-17.089,12.35-18.101,15.273
			c-0.225,1.014-0.337,2.568-0.337,4.03l-0.113,2.36c0,1.687,0.468,4.401,0.694,5.863c1.01,0.226,8.341,0.028,9.69,0.254
			l-0.168,3.021c-1.315-0.094-10.623-0.073-15.941-0.073c-2.698,0-11.375,0.298-14.04,0.218l0.503-2.875
			c1.461-0.11,7.515,0.262,8.845-1.143c0.66-0.695,0.45-1.443,0.45-5.489v-1.911c0-0.901,0-2.586-0.226-4.162
			c-0.562-1.688-14.13-18.625-17.615-21.324c-1.009-0.338-7.353-0.973-8.925-1.309L0,25.983c0.786-0.394,7.838,0.097,14.681-0.157
			c4.498-0.166,14.759,0,16.026,0.15l-0.323,2.283c-1.35,0.337-7.849,0.461-9.534,0.91c4.385,6.521,11.319,14.918,13.569,18.179
			c1.236-1.8,12.104-9.279,12.442-11.863c-1.687-0.337-7.272-1.144-8.171-1.144l-0.534-2.943c1.529-0.238,9.58,0,13.581,0
			c3.455,0,10.833,0,12.931,0.172L62.75,34.344z"/>
		<path fill="#7B0099" d="M85.983,65.383c-0.497-0.069-6.129-0.066-8.186-0.066c-1.203,0-7.341-0.038-8.402-0.038l0.318-2.634
			c1.417-0.068,4.057-0.643,5.26-0.783c-0.778-1.771-3.351-7.396-3.918-8.458c-1.488,0-6.84,0.165-8.328,0.45
			c-0.285,0.497-2.316,2.491-2.67,5.182c0.994,0.217,2.896,0.623,4.029,0.764l-0.419,2.69c-1.203-0.069-6.008,0.071-7.144,0
			c-1.063,0-6.001,0.013-6.921,0.154l0.878-2.845c1.134-0.143,3.747-0.954,4.737-1.166c1.488-2.127,8.381-15.598,8.947-16.872
			c-0.922-0.216-2.486-0.954-3.479-1.097l-0.139-1.945c1.206,0.07,7.194,0.25,7.833,0.219c1.423-0.068,6.714-0.043,7.917-0.113
			l-0.445,1.912c-1.063,0.071-2.791,0.588-3.787,0.801c0.498,1.487,2.472,6.284,3.959,9.827c1.135,2.552,3.017,7.552,4.787,10.46
			c1.207,0.211,3.971,1.022,5.244,1.094l0.071,0.709L85.983,65.383z M67.449,42.843l-0.071-0.446
			c-1.275,2.975-3.441,7.652-3.865,8.789l6.979-0.004C69.639,48.982,68.086,44.686,67.449,42.843z"/>
		<path fill="#7B0099" d="M127.492,58.093c-0.976-0.076-5.681-0.067-8.084,0c-1.931,0.055-6.511-0.175-8.69-0.081l-0.168-2.672
			c0.752-0.076,5.441-0.396,6.346-0.545c0.301-1.43,0.158-3.455,0.158-5.183l-0.119-3.146c-2.405,0-18.307,0.826-18.982,0.902
			l-1.162,0.149c0,4.284,0.225,5.64,0.525,7.219c1.277,0.226,5.865,0.523,6.843,0.677l-0.06,2.912c-1.129-0.074-8.184,0-10.362,0
			c-2.632,0-9.031-0.057-10.533,0.021l0.203-3.009c1.204-0.076,5.752-0.522,6.729-0.676c0.15-1.951,0.227-5.037,0.227-8.269V42.41
			c0-1.354-0.075-5.264-0.148-6.617c-0.979-0.15-5.525-0.455-6.88-0.527l-0.239-2.277c0.899,0.076,7.178-0.096,10.485-0.096
			c3.083,0,10.071,0.061,10.899-0.016l-0.244,2.39c-1.43,0.073-6.168,0.45-6.994,0.601c-0.227,1.127-0.45,2.105-0.45,5.715
			l-0.112,1.881c1.354,0,18.127-0.066,20.217-0.364v-2.591c0-3.309,0.512-6.883,0.139-7.862c-0.827-0.228-5.309-0.856-6.738-0.931
			l0.2-2.401c0.901,0.076,5.127,0.05,8.284,0.125c3.308,0,8.115,0.138,9.093-0.013l-0.222,1.976
			c-0.979,0.076-5.338,1.179-5.338,1.179s-0.299,2.06-0.08,5.023c0.182,2.461,0.236,7.301,0.236,7.301
			c0.125,5.391,0.457,9.746,0.156,9.971c-0.361,0.271,3.452,0.504,4.505,0.652l0.413,0.717L127.492,58.093z"/>
		<path fill="#7B0099" d="M166.274,45.53c0.356,9.183-8.027,13.738-18.92,13.738c-4.532,0-10.047-0.863-14.758-3.69
			c-3.677-2.205-4.283-5.064-4.283-8.643c0-7.395,8.052-13.523,20.373-13.443c4.689,0,9.213,0.713,12.867,3.563
			c3.26,2.543,3.813,3.806,4.406,6.591L166.274,45.53z M160.229,46.158c0.271-7.6-5.678-9.623-13.189-9.106
			c-3.93,0.271-11.932,2.35-11.932,9.106c0,6.68,6.137,10.295,14.326,9.582c6.336-0.552,9.664-2.885,10.479-6.128L160.229,46.158z"
			/>
		<path fill="#7B0099" d="M221.239,51.018l-4.868-0.473c0.509-2.461,0.065-21.359,0.024-23.377l-0.248-3.969
			c1.354,0.269,1.147,0.127,6.869,0.729c3.486,0.366,3.938,0.521,5.086,0.565l-1.496,4.709
			C225.33,32.968,221.627,49.76,221.239,51.018z M217.876,60.998l-2.606-0.225l-0.027-5.65l3.303,0.414l2.958,0.139l-0.821,5.531
			L217.876,60.998z"/>
		<path fill="#7B0099" d="M211.934,41.799c0.645,8.599-9.281,15.744-21.717,15.744c-5.175,0-9.578-0.629-14.683-4.004
			c-4.195-2.776-6.2-5.183-6.724-9.92c-0.928-8.39,9.19-15.438,23.259-15.349c5.354,0,10.517,0.813,14.69,4.069
			c3.723,2.904,4.373,5.656,5.053,8.834L211.934,41.799z M205.449,43.02c0.516-8.258-7.438-11.266-16.017-10.677
			c-4.488,0.307-12.875,2.962-12.875,10.677c0,7.622,7.018,11.467,16.369,10.652c7.232-0.633,10.246-3.353,11.891-7.041
			C204.818,46.631,205.292,45.53,205.449,43.02z"/>
		<path fill="#7B0099" d="M227.241,55.724c1.497,0,2.76,1.187,2.76,2.761c0,1.569-1.263,2.755-2.76,2.755
			c-1.505,0-2.76-1.185-2.76-2.755C224.481,56.91,225.736,55.724,227.241,55.724z M227.241,60.84c1.26,0,2.27-1.022,2.27-2.355
			c0-1.337-1.01-2.359-2.27-2.359c-1.27,0-2.27,1.022-2.27,2.359C224.971,59.816,225.971,60.84,227.241,60.84z M226.186,56.863
			h1.217c0.766,0,1.127,0.305,1.127,0.922c0,0.586-0.37,0.829-0.854,0.881l0.928,1.424h-0.525l-0.876-1.385h-0.526v1.385h-0.488
			v-3.227H226.186z M226.676,58.304h0.504c0.438,0,0.861-0.021,0.861-0.542c0-0.443-0.388-0.496-0.721-0.496h-0.646v1.038H226.676z"
			/>
	</g>
</g>
</svg>
