<?xml version="1.0" encoding="utf-8"?>
<!-- Generator: Adobe Illustrator 16.0.0, SVG Export Plug-In . SVG Version: 6.00 Build 0)  -->
<!DOCTYPE svg PUBLIC "-//W3C//DTD SVG 1.1//EN" "http://www.w3.org/Graphics/SVG/1.1/DTD/svg11.dtd">
<svg version="1.1" id="Layer_1" xmlns="http://www.w3.org/2000/svg" xmlns:xlink="http://www.w3.org/1999/xlink" x="0px" y="0px"
	 width="230px" height="90px" viewBox="0 0 230 90" enable-background="new 0 0 230 90" xml:space="preserve">
<g>
	<path fill="#6D6E71" d="M223.832,24.396h1.43c0.01,0.018,0.016,0.035,0.021,0.054c0.234,0.509,0.469,1.016,0.684,1.53
		c0.234,0.575,0.441,1.159,0.691,1.727c0.014,0.017,0.02,0.036,0.025,0.054c0.184-0.419,0.469-1.094,0.656-1.513
		c0.174-0.387,0.346-0.782,0.518-1.171c0.07-0.15,0.08-0.18,0.08-0.233c0-0.13-0.133-0.13-0.25-0.13l-0.523,0.024l0.523-0.34h1.918
		l-0.139,0.132c-0.139,0.125-0.211,0.215-0.211,0.461c0,0.083,0.008,0.167,0.02,0.255c0.033,0.377,0.066,0.753,0.096,1.13
		c0.043,0.495,0.088,0.991,0.182,1.482c0.076,0.399,0.16,0.544,0.447,0.758c-0.316,0.061-0.531,0.09-0.852,0.09
		c-0.131,0-0.357,0-0.566-0.155c-0.246-0.19-0.279-0.496-0.32-1.04c-0.035-0.371-0.072-0.741-0.104-1.112
		c-0.025-0.352-0.035-0.705-0.07-1.057l-0.008-0.071l-0.033,0.077c-0.211,0.454-0.402,0.92-0.605,1.374
		c-0.471,1.088-0.506,1.159-0.602,1.452l0.066,0.18c-0.176,0.04-0.855,0.268-1.107,0.362c-0.191-0.531-0.865-2.263-1.404-3.445
		c-0.053,0.501-0.102,1.003-0.146,1.504c-0.018,0.167-0.113,1.285-0.113,1.387c0,0.132,0.027,0.166,0.262,0.192l0.525,0.076
		l-0.307,0.186h-1.111l0.156-0.186c0.029-0.042,0.059-0.076,0.08-0.13c0.031-0.095,0.051-0.264,0.076-0.501
		c0.041-0.365,0.092-0.724,0.133-1.087c0.023-0.227,0.137-1.34,0.166-1.595c0.01-0.059,0.012-0.125,0.012-0.187
		c0-0.153-0.059-0.232-0.238-0.232c-0.084,0-0.469,0.01-0.555,0.01L223.832,24.396L223.832,24.396z"/>
	<path fill="#6D6E71" d="M223.566,24.396l-0.258,0.608l-0.27,0.12c0.018-0.059,0.066-0.281,0.066-0.304
		c0-0.137-0.162-0.143-0.33-0.143l-0.83,0.006c-0.072,2.33-0.072,2.534-0.072,2.849c0,0.168,0,0.304,0.012,0.508
		c0.02,0.258,0.104,0.312,0.379,0.329l0.504,0.054l-0.387,0.191h-1.99l0.133-0.191c0.133-0.197,0.15-0.227,0.15-0.358
		c0.004-0.132,0-0.747,0-0.885c0-0.25,0-0.506,0.004-0.758c0.02-0.514,0.049-1.029,0.049-1.537c0-0.085-0.008-0.18-0.008-0.202
		h-0.727c-0.365,0.011-0.371,0.022-0.568,0.322l-0.316,0.12l0.316-0.729h4.145l0,0H223.566z"/>
	<path fill="#EF3E35" d="M215.834,58.496c-0.84,0.459-1.682,0.996-2.521,1.377c-2.525,1.146-5.125,1.453-7.418,1.453
		c-2.447,0-6.271-0.153-10.172-2.981c-5.428-3.822-7.799-10.399-7.799-16.136c0-11.852,9.637-17.666,17.514-17.666
		c2.75,0,5.582,0.688,7.875,2.143c3.822,2.522,4.818,5.811,5.354,7.57l-17.969,7.263l-5.891,0.46
		c1.912,9.71,8.49,15.37,15.754,15.37c3.898,0,6.73-1.374,9.33-2.676L215.834,58.496L215.834,58.496z M208.646,35.709
		c1.451-0.535,2.219-0.994,2.219-2.065c0-3.059-3.441-6.576-7.57-6.576c-3.061,0-8.795,2.371-8.795,10.63
		c0,1.299,0.152,2.674,0.229,4.051L208.646,35.709L208.646,35.709z"/>
	<path fill="#2FB457" d="M186.086,60.177h-13.533c1.758-2.291,2.064-2.521,2.064-4.049V43.663c0-5.964,0.076-14.453,0.305-22.405
		c0.076-3.901,0.383-8.795,0.459-12.313h-5.963l5.736-2.753h10.932c-2.369,1.376-3.135,1.835-3.438,4.513
		c-0.611,5.887-0.689,15.215-0.689,26.075v17.664c0,2.983,0.537,3.442,3.061,3.672c1.301,0.152,2.602,0.229,3.898,0.381
		L186.086,60.177L186.086,60.177z"/>
	<path fill="#0075BF" d="M161.008,28.292c1.756,1.452,5.426,4.511,5.426,10.322c0,5.659-3.211,8.334-6.422,10.859
		c-0.99,0.993-2.141,2.063-2.141,3.746s1.148,2.601,1.986,3.29l2.754,2.139c3.365,2.831,6.424,5.432,6.424,10.705
		c0,7.189-6.959,14.455-20.111,14.455c-11.086,0-16.44-5.277-16.44-10.936c0-2.756,1.377-6.654,5.892-9.332
		c4.738-2.904,11.164-3.286,14.602-3.517c-1.07-1.377-2.293-2.829-2.293-5.198c0-1.302,0.383-2.066,0.768-2.981
		c-0.844,0.075-1.684,0.151-2.447,0.151c-8.105,0-12.692-6.043-12.692-12.006c0-3.518,1.604-7.418,4.894-10.246
		c4.357-3.594,9.559-4.205,13.688-4.205h15.752l-4.895,2.752h-4.74v0.002H161.008z M155.578,62.242
		c-0.613-0.074-0.996-0.074-1.76-0.074c-0.688,0-4.816,0.149-8.029,1.224c-1.684,0.611-6.576,2.444-6.576,7.876
		c0,5.428,5.277,9.327,13.459,9.327c7.34,0,11.242-3.517,11.242-8.259C163.914,68.438,161.389,66.373,155.578,62.242L155.578,62.242
		z M157.797,47.715c1.756-1.762,1.91-4.208,1.91-5.584c0-5.505-3.287-14.07-9.635-14.07c-1.99,0-4.131,0.994-5.355,2.523
		c-1.299,1.606-1.682,3.671-1.682,5.659c0,5.123,2.982,13.612,9.559,13.612C154.506,49.855,156.572,48.937,157.797,47.715
		L157.797,47.715z"/>
	<path fill="#FFDF1C" d="M113.597,61.172c-12.158,0-18.658-9.482-18.658-18.045c0-10.016,8.182-18.583,19.804-18.583
		c11.242,0,18.277,8.794,18.277,18.048C133.02,51.617,126.062,61.172,113.597,61.172L113.597,61.172z M123.156,54.979
		c1.836-2.448,2.293-5.507,2.293-8.489c0-6.729-3.214-19.576-12.696-19.576c-2.522,0-5.046,0.994-6.881,2.6
		c-2.98,2.676-3.518,6.042-3.518,9.329c0,7.57,3.748,20.034,12.999,20.034C118.334,58.879,121.397,57.426,123.156,54.979
		L123.156,54.979z"/>
	<path fill="#EF3E35" d="M72.916,61.172c-12.16,0-18.66-9.482-18.66-18.045c0-10.016,8.183-18.583,19.807-18.583
		c11.24,0,18.274,8.794,18.274,18.048C92.337,51.617,85.38,61.172,72.916,61.172L72.916,61.172z M82.473,54.979
		c1.836-2.448,2.294-5.507,2.294-8.489c0-6.729-3.211-19.576-12.692-19.576c-2.524,0-5.047,0.994-6.883,2.6
		c-2.982,2.676-3.517,6.042-3.517,9.329c0,7.57,3.747,20.034,13.001,20.034C77.657,58.879,80.713,57.426,82.473,54.979
		L82.473,54.979z"/>
	<path fill="#0075BF" d="M49.395,58.504l-10.252,2.363c-4.157,0.647-7.886,1.221-11.829,1.221C7.528,62.088,0,47.535,0,36.137
		C0,22.229,10.683,9.326,28.963,9.326c3.872,0,7.601,0.575,10.969,1.505c5.376,1.506,7.887,3.37,9.462,4.447l-5.95,5.663
		l-2.508,0.574l1.791-2.868c-2.437-2.368-6.884-6.74-15.34-6.74c-11.329,0-19.859,8.603-19.859,21.148
		c0,13.477,9.751,26.167,25.378,26.167c4.589,0,6.955-0.931,9.104-1.792V45.89l-10.824,0.573l5.735-3.083H52.12l-1.863,1.793
		c-0.502,0.427-0.574,0.571-0.718,1.144c-0.071,0.646-0.143,2.725-0.143,3.441L49.395,58.504L49.395,58.504z"/>
</g>
</svg>
