<?xml version="1.0" encoding="utf-8"?>
<!-- Generator: Adobe Illustrator 16.0.0, SVG Export Plug-In . SVG Version: 6.00 Build 0)  -->
<!DOCTYPE svg PUBLIC "-//W3C//DTD SVG 1.1//EN" "http://www.w3.org/Graphics/SVG/1.1/DTD/svg11.dtd">
<svg version="1.1" id="Layer_1" xmlns="http://www.w3.org/2000/svg" xmlns:xlink="http://www.w3.org/1999/xlink" x="0px" y="0px"
	 width="230px" height="90px" viewBox="0 0 230 90" enable-background="new 0 0 230 90" xml:space="preserve">
<path fill="#2CAAE1" d="M170.372,10.654c-4.074,1.807-8.453,3.027-13.049,3.578c4.69-2.813,8.293-7.266,9.989-12.57
	c-4.391,2.604-9.252,4.495-14.429,5.514C148.74,2.759,142.835,0,136.301,0c-12.548,0-22.721,10.172-22.721,22.721
	c0,1.78,0.201,3.514,0.588,5.178C95.285,26.95,78.543,17.904,67.337,4.159c-1.956,3.354-3.075,7.258-3.075,11.422
	c0,7.883,4.01,14.837,10.107,18.912c-3.725-0.118-7.229-1.14-10.291-2.843c-0.002,0.096-0.002,0.189-0.002,0.287
	c0,11.008,7.832,20.19,18.226,22.278c-1.905,0.519-3.913,0.798-5.985,0.798c-1.465,0-2.887-0.144-4.274-0.408
	c2.89,9.024,11.281,15.595,21.224,15.777c-7.777,6.094-17.572,9.727-28.219,9.727c-1.833,0-3.643-0.107-5.419-0.317
	C69.684,86.238,81.625,90,94.456,90c41.791,0,64.646-34.622,64.646-64.646c0-0.984-0.021-1.965-0.065-2.938
	C163.475,19.211,167.326,15.21,170.372,10.654z"/>
</svg>
