<?xml version="1.0" encoding="utf-8"?>
<!-- Generator: Adobe Illustrator 16.0.0, SVG Export Plug-In . SVG Version: 6.00 Build 0)  -->
<!DOCTYPE svg PUBLIC "-//W3C//DTD SVG 1.1//EN" "http://www.w3.org/Graphics/SVG/1.1/DTD/svg11.dtd">
<svg version="1.1" id="Layer_1" xmlns="http://www.w3.org/2000/svg" xmlns:xlink="http://www.w3.org/1999/xlink" x="0px" y="0px"
	 width="230px" height="90px" viewBox="0 0 230 90" enable-background="new 0 0 230 90" xml:space="preserve">
<g>
	<path fill="#0063DB" d="M9.21,43.202H0v-11.34h9.471v-2.88c0-13.949,6.343-18.811,18.855-18.811c3.389,0,5.996,0.541,7.994,0.9
		l-0.956,11.16c-1.303-0.45-2.606-0.722-4.952-0.722c-3.997,0-5.562,2.881-5.562,7.472v2.879h11.122v11.34H24.851v35.548H9.21
		V43.202z"/>
	<rect x="44.14" y="11.252" fill="#0063DB" width="15.64" height="67.497"/>
	<rect x="73.162" y="12.332" fill="#0063DB" width="15.64" height="11.879"/>
	<rect x="73.162" y="31.862" fill="#0063DB" width="15.64" height="46.888"/>
	<path fill="#0063DB" d="M135.811,45.271c-2.867-1.8-5.735-2.609-9.472-2.609c-6.778,0-11.991,4.859-11.991,12.959
		c0,7.472,6.082,12.328,12.86,12.328c3.562,0,7.124-0.81,9.731-2.25l0.349,12.06c-3.911,1.352-8.603,2.07-12.772,2.07
		c-14.947,0-26.33-9.001-26.33-24.479c0-15.568,11.382-24.569,26.33-24.569c4.69,0,8.861,0.81,12.426,2.609L135.811,45.271z"/>
	<polygon fill="#0063DB" points="143.807,11.252 159.445,11.252 159.445,51.572 159.62,51.572 172.652,31.862 189.77,31.862 
		174.042,53.371 191.074,78.749 172.13,78.749 159.62,55.531 159.445,55.531 159.445,78.749 143.807,78.749 	"/>
	<path fill="#FF0084" d="M229.217,44.821c-1.736-0.54-3.476-0.54-5.3-0.54c-7.299,0-11.382,5.491-11.382,14.669v19.799h-15.641
		V31.862h14.248v8.64h0.176c2.692-5.939,6.604-9.72,13.382-9.72c1.821,0,3.733,0.27,5.3,0.541L229.217,44.821z"/>
</g>
</svg>
