<?xml version="1.0" encoding="utf-8"?>
<!-- Generator: Adobe Illustrator 16.0.0, SVG Export Plug-In . SVG Version: 6.00 Build 0)  -->
<!DOCTYPE svg PUBLIC "-//W3C//DTD SVG 1.1//EN" "http://www.w3.org/Graphics/SVG/1.1/DTD/svg11.dtd">
<svg version="1.1" xmlns="http://www.w3.org/2000/svg" xmlns:xlink="http://www.w3.org/1999/xlink" x="0px" y="0px" width="32px"
	 height="32px" viewBox="0 0 32 32" enable-background="new 0 0 32 32" xml:space="preserve">
<g id="Layer_1">
	<ellipse fill="#553E31" stroke="#553E31" stroke-miterlimit="10" cx="16" cy="17.103" rx="12.677" ry="9.103"/>
	<path fill="#EBE0D5" stroke="#553E31" stroke-miterlimit="10" d="M16,5.795c-8.546,0-15.5,4.195-15.5,9.35
		C0.5,20.303,7.454,24.5,16,24.5c8.547,0,15.5-4.197,15.5-9.355C31.5,9.99,24.547,5.795,16,5.795z"/>
	<g>
		<path fill="#EBE0D5" d="M16.001,21.801c-6.587,0-11.746-2.934-11.746-6.679c0-3.747,5.159-6.682,11.746-6.682
			c6.586,0,11.744,2.935,11.744,6.682C27.745,18.867,22.587,21.801,16.001,21.801z"/>
		<path fill="#CDB8AB" d="M16.001,8.94c6.21,0,11.244,2.769,11.244,6.182s-5.034,6.179-11.244,6.179S4.755,18.535,4.755,15.122
			S9.791,8.94,16.001,8.94 M16.001,7.94c-6.867,0-12.246,3.154-12.246,7.182c0,4.025,5.379,7.179,12.246,7.179
			c6.866,0,12.244-3.153,12.244-7.179C28.245,11.095,22.867,7.94,16.001,7.94L16.001,7.94z"/>
	</g>
	<g>
		<defs>
			<ellipse id="SVGID_19_" cx="16" cy="15.122" rx="11.245" ry="6.179"/>
		</defs>
		<clipPath id="SVGID_4_">
			<use xlink:href="#SVGID_19_"  overflow="visible"/>
		</clipPath>
		
			<ellipse clip-path="url(#SVGID_4_)" fill="#EBE0D5" stroke="#CDB8AB" stroke-miterlimit="10" cx="16" cy="17.139" rx="9.837" ry="5.519"/>
	</g>
</g>
<g id="Layer_3">
</g>
</svg>
