<?xml version="1.0" encoding="utf-8"?>
<!-- Generator: Adobe Illustrator 16.0.0, SVG Export Plug-In . SVG Version: 6.00 Build 0)  -->
<!DOCTYPE svg PUBLIC "-//W3C//DTD SVG 1.1//EN" "http://www.w3.org/Graphics/SVG/1.1/DTD/svg11.dtd">
<svg version="1.1" id="Layer_1" xmlns="http://www.w3.org/2000/svg" xmlns:xlink="http://www.w3.org/1999/xlink" x="0px" y="0px"
	 width="30px" height="50px" viewBox="75.209 0 30 50" enable-background="new 75.209 0 30 50" xml:space="preserve">
<g>
	<path fill="#553E31" d="M76.937,28.502v-3.84h0.917l2.121,2.344l-0.038-2.414h0.999v3.961h-0.935l-2.104-2.313l0.038,2.262H76.937z
		"/>
	<path fill="#553E31" d="M79.611,23.903v-0.945c0.197,0.001,0.324-0.03,0.381-0.096c0.037-0.047,0.06-0.107,0.066-0.182
		s0.012-0.308,0.016-0.702c-0.002-0.413-0.005-0.66-0.01-0.743c-0.005-0.083-0.021-0.148-0.046-0.197
		c-0.037-0.072-0.138-0.108-0.302-0.108c-0.119,0-0.198,0.025-0.238,0.076s-0.063,0.154-0.066,0.311
		c0,0.121-0.012,0.375-0.035,0.764c-0.023,0.398-0.037,0.658-0.041,0.778c-0.01,0.234-0.037,0.414-0.084,0.54
		c-0.045,0.126-0.12,0.224-0.224,0.294c-0.172,0.121-0.459,0.181-0.861,0.181c-0.451,0-0.77-0.069-0.955-0.206
		c-0.145-0.105-0.236-0.266-0.276-0.483s-0.061-0.659-0.061-1.324c0-0.47,0.017-0.801,0.05-0.992
		c0.051-0.293,0.153-0.495,0.306-0.604c0.154-0.109,0.412-0.164,0.775-0.164c0.033,0,0.096,0.001,0.188,0.002v0.944
		c-0.111,0.003-0.188,0.011-0.229,0.022s-0.074,0.035-0.1,0.069c-0.031,0.042-0.051,0.117-0.061,0.223
		c-0.008,0.106-0.013,0.332-0.013,0.675c0,0.414,0.017,0.667,0.048,0.757c0.033,0.091,0.122,0.136,0.269,0.136
		c0.141,0,0.227-0.045,0.258-0.136c0.025-0.075,0.05-0.419,0.073-1.034c0.02-0.517,0.043-0.863,0.068-1.037
		c0.027-0.174,0.077-0.313,0.151-0.416c0.088-0.117,0.209-0.2,0.362-0.248c0.153-0.049,0.373-0.073,0.66-0.073
		c0.377,0,0.657,0.041,0.841,0.122c0.135,0.061,0.235,0.146,0.302,0.254c0.066,0.109,0.111,0.261,0.135,0.458
		c0.023,0.211,0.035,0.604,0.035,1.179c0,0.481-0.016,0.837-0.047,1.066s-0.087,0.402-0.167,0.518
		c-0.086,0.12-0.199,0.204-0.34,0.25s-0.354,0.069-0.642,0.069H79.611z"/>
	<path fill="#553E31" d="M75.059,18.044l0.814-0.48l0.858,1.224l-0.41,0.253L75.059,18.044z M76.937,19.169v-1.024h3.999v1.024
		H76.937z"/>
	<path fill="#553E31" d="M80.936,17.217h-3.999v-2.355c0.002-0.553,0.01-0.884,0.022-0.994s0.058-0.215,0.136-0.316
		c0.092-0.122,0.218-0.206,0.38-0.251c0.16-0.045,0.414-0.068,0.76-0.068c0.291,0,0.505,0.015,0.642,0.043s0.246,0.083,0.328,0.163
		c0.088,0.086,0.148,0.215,0.182,0.389c0.02-0.205,0.093-0.352,0.22-0.44c0.076-0.052,0.168-0.084,0.277-0.099
		c0.107-0.014,0.335-0.021,0.681-0.021h0.372v0.961h-0.214c-0.223,0-0.381,0.007-0.476,0.02s-0.168,0.038-0.219,0.074
		c-0.047,0.036-0.076,0.085-0.09,0.149c-0.012,0.063-0.019,0.196-0.019,0.397v1.373h1.017V17.217z M78.92,16.242v-1.371
		c-0.006-0.239-0.011-0.381-0.016-0.428c-0.005-0.046-0.021-0.085-0.046-0.118c-0.033-0.042-0.082-0.072-0.147-0.089
		c-0.065-0.018-0.165-0.026-0.298-0.026c-0.131,0-0.229,0.01-0.293,0.029s-0.111,0.053-0.141,0.102
		c-0.02,0.034-0.031,0.075-0.035,0.123c-0.004,0.047-0.007,0.184-0.009,0.409v1.369H78.92z"/>
</g>
</svg>
