<?xml version="1.0" encoding="utf-8"?>
<!-- Generator: Adobe Illustrator 16.0.0, SVG Export Plug-In . SVG Version: 6.00 Build 0)  -->
<!DOCTYPE svg PUBLIC "-//W3C//DTD SVG 1.1//EN" "http://www.w3.org/Graphics/SVG/1.1/DTD/svg11.dtd">
<svg version="1.1" id="Layer_1" xmlns="http://www.w3.org/2000/svg" xmlns:xlink="http://www.w3.org/1999/xlink" x="0px" y="0px"
	 width="30px" height="50px" viewBox="37.625 55.67 30 50" enable-background="new 37.625 55.67 30 50" xml:space="preserve">
<g>
	<path fill="#553E31" d="M41.809,84.664v-1.097c0.195-0.007,0.321-0.011,0.378-0.011c0.309,0,0.55,0.042,0.724,0.124
		c0.195,0.092,0.328,0.27,0.398,0.535s0.105,0.725,0.105,1.377c0,0.686-0.015,1.174-0.044,1.464
		c-0.029,0.291-0.086,0.511-0.17,0.658c-0.076,0.132-0.179,0.23-0.308,0.296c-0.129,0.064-0.306,0.106-0.53,0.126
		c-0.182,0.016-0.51,0.023-0.984,0.023c-0.463,0-0.797-0.008-1.002-0.023s-0.364-0.047-0.478-0.092
		c-0.254-0.101-0.418-0.304-0.493-0.609s-0.113-0.923-0.113-1.851c0-0.465,0.012-0.802,0.035-1.013s0.067-0.379,0.132-0.504
		c0.086-0.163,0.214-0.278,0.382-0.346c0.17-0.066,0.418-0.1,0.746-0.1c0.018,0,0.084,0.001,0.199,0.002v1.098
		c-0.133,0.005-0.222,0.013-0.267,0.022c-0.045,0.009-0.082,0.029-0.111,0.059c-0.041,0.043-0.07,0.148-0.089,0.319
		s-0.028,0.429-0.028,0.775c0,0.343,0.009,0.58,0.024,0.712c0.018,0.132,0.05,0.225,0.099,0.279c0.059,0.065,0.157,0.11,0.296,0.136
		s0.359,0.038,0.662,0.038s0.517-0.011,0.641-0.034c0.124-0.022,0.213-0.066,0.268-0.132c0.053-0.062,0.088-0.159,0.105-0.294
		s0.026-0.372,0.026-0.713c0-0.42-0.008-0.7-0.023-0.84s-0.05-0.234-0.103-0.283C42.218,84.702,42.059,84.668,41.809,84.664z"/>
	<path fill="#553E31" d="M43.353,78.729l-0.677,0.309v2.381l0.677,0.309v1.252l-3.999-1.909v-1.703l3.999-1.883V78.729z
		 M41.8,79.423l-1.515,0.693v0.219l1.515,0.693V79.423z"/>
	<path fill="#553E31" d="M43.353,76.781h-3.999v-2.649c0.002-0.623,0.01-0.995,0.022-1.118s0.058-0.242,0.136-0.356
		c0.092-0.137,0.218-0.23,0.38-0.282c0.16-0.051,0.414-0.076,0.76-0.076c0.291,0,0.505,0.017,0.642,0.049s0.246,0.094,0.328,0.184
		c0.088,0.097,0.148,0.242,0.182,0.438c0.02-0.23,0.093-0.396,0.22-0.496c0.076-0.058,0.168-0.095,0.277-0.11
		c0.107-0.016,0.335-0.023,0.681-0.023h0.372v1.081h-0.214c-0.223,0-0.381,0.007-0.476,0.022c-0.095,0.015-0.168,0.042-0.219,0.083
		c-0.047,0.04-0.076,0.096-0.09,0.167c-0.012,0.071-0.019,0.22-0.019,0.447v1.545h1.017V76.781z M41.337,75.685v-1.543
		c-0.006-0.269-0.011-0.429-0.016-0.48s-0.021-0.097-0.046-0.134c-0.033-0.047-0.082-0.081-0.147-0.1
		c-0.065-0.02-0.165-0.029-0.298-0.029c-0.131,0-0.229,0.011-0.293,0.033c-0.064,0.021-0.111,0.06-0.141,0.114
		c-0.02,0.039-0.031,0.085-0.035,0.139s-0.007,0.207-0.009,0.46v1.54H41.337z"/>
	<path fill="#553E31" d="M43.353,71.382h-3.999v-2.587c0.002-0.55,0.007-0.877,0.015-0.98c0.016-0.235,0.063-0.409,0.141-0.52
		c0.074-0.107,0.18-0.184,0.318-0.23c0.137-0.047,0.326-0.07,0.566-0.07c0.287,0,0.498,0.036,0.633,0.107s0.231,0.197,0.29,0.378
		c0.031-0.16,0.076-0.278,0.135-0.355c0.131-0.176,0.406-0.264,0.826-0.264c0.326,0,0.567,0.045,0.724,0.137
		c0.105,0.062,0.184,0.145,0.232,0.25c0.051,0.105,0.083,0.255,0.099,0.446c0.01,0.125,0.017,0.489,0.021,1.094V71.382z
		 M40.93,70.338v-1.545c0-0.34-0.015-0.542-0.044-0.606c-0.037-0.087-0.133-0.13-0.287-0.13c-0.158,0-0.253,0.052-0.284,0.156
		c-0.012,0.04-0.019,0.233-0.021,0.58v1.545H40.93z M42.392,70.338v-1.551c-0.002-0.321-0.005-0.512-0.009-0.572
		c-0.004-0.06-0.015-0.109-0.032-0.15c-0.041-0.095-0.143-0.142-0.305-0.142c-0.168,0-0.267,0.054-0.296,0.163
		c-0.012,0.039-0.019,0.272-0.021,0.701v1.551H42.392z"/>
	<path fill="#553E31" d="M42.029,66.066v-1.063c0.197,0.002,0.324-0.034,0.381-0.108c0.037-0.053,0.06-0.12,0.066-0.204
		c0.007-0.083,0.012-0.347,0.016-0.79c-0.002-0.464-0.005-0.742-0.01-0.835c-0.005-0.094-0.021-0.167-0.046-0.222
		c-0.037-0.081-0.138-0.121-0.302-0.121c-0.119,0-0.198,0.028-0.238,0.085c-0.04,0.058-0.063,0.174-0.066,0.35
		c0,0.136-0.012,0.422-0.035,0.859c-0.023,0.448-0.037,0.74-0.041,0.876c-0.01,0.264-0.037,0.466-0.084,0.607
		c-0.045,0.142-0.12,0.252-0.224,0.331c-0.172,0.135-0.459,0.203-0.861,0.203c-0.451,0-0.77-0.077-0.955-0.232
		c-0.145-0.117-0.236-0.299-0.276-0.543s-0.061-0.741-0.061-1.49c0-0.528,0.017-0.9,0.05-1.115c0.051-0.33,0.153-0.557,0.306-0.68
		c0.154-0.123,0.412-0.185,0.775-0.185c0.033,0,0.096,0.001,0.188,0.002v1.063c-0.111,0.003-0.188,0.012-0.229,0.024
		c-0.041,0.014-0.074,0.039-0.1,0.078c-0.031,0.047-0.051,0.131-0.061,0.25c-0.008,0.12-0.013,0.373-0.013,0.76
		c0,0.466,0.017,0.75,0.048,0.852c0.033,0.102,0.122,0.153,0.269,0.153c0.141,0,0.227-0.052,0.258-0.153
		c0.025-0.084,0.05-0.472,0.073-1.163c0.02-0.581,0.043-0.971,0.068-1.166c0.027-0.196,0.077-0.353,0.151-0.469
		c0.088-0.132,0.209-0.225,0.362-0.279s0.373-0.082,0.66-0.082c0.377,0,0.657,0.046,0.841,0.138
		c0.135,0.068,0.235,0.164,0.302,0.286s0.111,0.294,0.135,0.516c0.023,0.237,0.035,0.679,0.035,1.326
		c0,0.541-0.016,0.941-0.047,1.199c-0.031,0.259-0.087,0.453-0.167,0.583c-0.086,0.136-0.199,0.229-0.34,0.281
		c-0.141,0.052-0.354,0.077-0.642,0.077H42.029z"/>
</g>
</svg>
