<?xml version="1.0" encoding="utf-8"?>
<!-- Generator: Adobe Illustrator 15.0.0, SVG Export Plug-In . SVG Version: 6.00 Build 0)  -->
<!DOCTYPE svg PUBLIC "-//W3C//DTD SVG 1.1//EN" "http://www.w3.org/Graphics/SVG/1.1/DTD/svg11.dtd">
<svg version="1.1" id="Layer_1" xmlns="http://www.w3.org/2000/svg" xmlns:xlink="http://www.w3.org/1999/xlink" x="0px" y="0px"
	 width="28.347px" height="41.776px" viewBox="0 0 28.347 41.776" enable-background="new 0 0 28.347 41.776" xml:space="preserve">
<path fill="#CDB8AB" d="M28.347,13.722c0,2.13-0.354,4.238-1.396,5.944c-2.911,4.766-5.554,8.628-5.554,9.994
	c0,0.111,0,0.222,0,0.332h-7.86c-0.973,0-1.761,0.789-1.761,1.761c0,0.973,0.788,1.761,1.761,1.761h7.86c0,1.184,0,2.049,0,2.335
	c0,1.362-4.985,5.928-5.742,5.928c-0.333,0-0.903,0-1.438,0c-0.03,0-0.059,0-0.089,0c-0.535,0-1.104,0-1.438,0
	c-0.756,0-5.742-4.565-5.742-5.928c0-0.547,0-3.205,0-6.188c0-1.366-2.643-5.229-5.554-9.994C0.354,17.96,0,15.852,0,13.722
	C0,6.144,6.346,0,14.173,0C22.001,0,28.347,6.144,28.347,13.722z M23.759,10.427l0.009-0.003c-0.013-0.035-0.028-0.067-0.041-0.101
	c-0.006-0.016-0.012-0.03-0.019-0.045c-1.068-2.715-3.266-4.861-6.016-5.856l-0.002,0.006c-0.199-0.074-0.41-0.12-0.635-0.12
	c-0.998,0-1.806,0.808-1.806,1.806c0,0.773,0.488,1.428,1.172,1.686l-0.005,0.012c1.786,0.634,3.219,2.014,3.919,3.768l0.014-0.005
	c0.241,0.715,0.909,1.232,1.704,1.232c0.998,0,1.807-0.809,1.807-1.806C23.861,10.799,23.82,10.607,23.759,10.427z"/>
</svg>
