<?xml version="1.0" encoding="utf-8"?>
<!-- Generator: Adobe Illustrator 16.0.0, SVG Export Plug-In . SVG Version: 6.00 Build 0)  -->
<!DOCTYPE svg PUBLIC "-//W3C//DTD SVG 1.1//EN" "http://www.w3.org/Graphics/SVG/1.1/DTD/svg11.dtd">
<svg version="1.1" id="Layer_1" xmlns="http://www.w3.org/2000/svg" xmlns:xlink="http://www.w3.org/1999/xlink" x="0px" y="0px"
	 width="45px" height="30px" viewBox="1.905 -1.451 45 30" enable-background="new 1.905 -1.451 45 30" xml:space="preserve">
<g>
	<path fill="#553e31" d="M46.37,27.053c0,1.063-1.104,1.495-1.104,1.495h-41.7c0,0-1.125-0.108-1.125-1.438
		c0-1.331,1.125-1.501,1.125-1.501H6.41C6.598,16.591,13.378,9.208,22.132,8.07c-0.496-0.536-0.805-1.246-0.805-2.032
		c0-1.658,1.345-3.002,3.002-3.002c1.658,0,3,1.345,3,3.002c0,0.767-0.296,1.46-0.769,1.99c8.884,1.02,15.801,8.469,15.989,17.582
		h2.719C45.266,25.609,46.37,25.988,46.37,27.053z M11.775,25.609c-0.005-0.166-0.023-0.329-0.023-0.495
		c0-7.71,5.815-14.054,13.298-14.906c-0.191-0.008-0.376-0.029-0.568-0.029c-8.417,0-15.238,6.823-15.238,15.237
		c0,0.064,0.009,0.127,0.009,0.191L11.775,25.609L11.775,25.609z"/>
</g>
</svg>
