<?xml version="1.0" encoding="utf-8"?>
<!-- Generator: Adobe Illustrator 15.0.0, SVG Export Plug-In . SVG Version: 6.00 Build 0)  -->
<!DOCTYPE svg PUBLIC "-//W3C//DTD SVG 1.1//EN" "http://www.w3.org/Graphics/SVG/1.1/DTD/svg11.dtd">
<svg version="1.1" id="Layer_1" xmlns="http://www.w3.org/2000/svg" xmlns:xlink="http://www.w3.org/1999/xlink" x="0px" y="0px"
	 width="20px" height="20px" viewBox="0 0 20 20" enable-background="new 0 0 20 20" xml:space="preserve">
<g>
	<g>
		<circle fill-rule="evenodd" clip-rule="evenodd" fill="#CDB8AB" cx="10" cy="10" r="9.506"/>
		<path fill="#553E31" d="M10,20C4.486,20,0,15.514,0,10S4.486,0,10,0c5.514,0,10,4.486,10,10S15.514,20,10,20z M10,0.987
			c-4.97,0-9.012,4.044-9.012,9.013S5.03,19.013,10,19.013s9.012-4.044,9.012-9.013S14.97,0.987,10,0.987z"/>
	</g>
	<g>
		<path fill-rule="evenodd" clip-rule="evenodd" fill="#553E31" d="M18.943,0c0,0-4.039,1.737-9.695,11.052
			C8.068,8.67,8.397,9.173,7.933,8.495C7.467,7.818,7.003,7.334,6.17,7.334c-0.833,0-2.13,1.354-2.459,1.704
			c0.833,0.405,1.413,0.639,2.149,2.109c0.736,1.474,1.646,3.446,2.13,4.997c1.355-1.105,2.246-1.665,2.807-2.11
			c0.931-1.918,2.6-7.63,9.203-12.897C19.613,0.595,18.943,0,18.943,0z"/>
	</g>
</g>
</svg>
