<?xml version="1.0" encoding="utf-8"?>
<!-- Generator: Adobe Illustrator 15.0.0, SVG Export Plug-In . SVG Version: 6.00 Build 0)  -->
<!DOCTYPE svg PUBLIC "-//W3C//DTD SVG 1.1//EN" "http://www.w3.org/Graphics/SVG/1.1/DTD/svg11.dtd">
<svg version="1.1" id="Layer_1" xmlns="http://www.w3.org/2000/svg" xmlns:xlink="http://www.w3.org/1999/xlink" x="0px" y="0px"
	 width="40px" height="40px" viewBox="0 0 40 40" enable-background="new 0 0 40 40" xml:space="preserve">
<g>
	<g>
		<path fill="#cdb8ab" d="M20,2c9.925,0,18,8.075,18,18c0,9.925-8.075,18-18,18c-9.925,0-18-8.075-18-18C2,10.075,10.075,2,20,2
			 M20,0C8.973,0,0,8.972,0,20s8.973,20,20,20c11.028,0,20-8.972,20-20S31.028,0,20,0L20,0z"/>
	</g>
	<path fill="#cdb8ab" d="M15.009,14.715l4.977,1.883v2.095c0.063,0.056,0.125,0.111,0.188,0.167l1.093,0.967
		c0.074,0.065,0.145,0.132,0.219,0.197v-3.466l4.869-2.268v10.161c0.533,0.44,1.037,0.81,1.5,1.08V13.113
		c0-0.111-0.024-0.219-0.07-0.317l-2.869-6.189V4.322c0-0.243-0.118-0.472-0.316-0.612c-0.199-0.141-0.451-0.178-0.684-0.095
		l-6.859,2.422c-0.3,0.105-0.5,0.389-0.5,0.707v2.114l-4.156,3.693c-0.16,0.142-0.253,0.346-0.253,0.562v0.307
		C13.1,13.659,14.052,14.113,15.009,14.715z M26.109,12.749l-5.028,2.343L18.355,9.62l5.416-1.914L26.109,12.749z M18.056,7.274
		l5.359-1.892v0.858l-5.359,1.894V7.274z M17.071,10.407l2.14,4.294l-4.89-1.851L17.071,10.407z M27.854,30.419v2.292
		c0,0.292-0.169,0.557-0.434,0.68l-6.369,2.967c-0.1,0.047-0.208,0.07-0.316,0.07c-0.09,0-0.18-0.017-0.266-0.049l-7.839-2.967
		c-0.292-0.11-0.484-0.39-0.484-0.701V18.587c0.478,0.291,0.98,0.636,1.5,1.022v12.583l6.339,2.399v-9.508
		c0.213,0.206,0.431,0.413,0.64,0.616c0.291,0.283,0.577,0.56,0.86,0.832v7.969l4.869-2.268V30.1
		C26.843,30.28,27.343,30.382,27.854,30.419z M5.371,18.306c0.135-0.25,1.892-3.866,5.046-4.07c3.155-0.204,6.51,3.11,10.189,6.342
		c3.681,3.231,6.639,6.758,8.921,6.412c2.086-0.316,2.928-1.755,3.247-2.131c0.476-0.627,1.056-0.185,0.727,0.52
		c-0.147,0.279-1.892,3.864-5.047,4.069c-3.156,0.204-6.031-3.654-9.711-6.886c-3.68-3.232-7.118-6.214-9.399-5.868
		c-2.085,0.315-3.059,1.775-3.248,2.131C5.639,19.58,4.991,19.004,5.371,18.306z"/>
</g>
</svg>
