<?xml version="1.0" encoding="utf-8"?>
<!-- Generator: Adobe Illustrator 15.0.0, SVG Export Plug-In . SVG Version: 6.00 Build 0)  -->
<!DOCTYPE svg PUBLIC "-//W3C//DTD SVG 1.1//EN" "http://www.w3.org/Graphics/SVG/1.1/DTD/svg11.dtd">
<svg version="1.1" id="Layer_1" xmlns="http://www.w3.org/2000/svg" xmlns:xlink="http://www.w3.org/1999/xlink" x="0px" y="0px"
	 width="50px" height="50px" viewBox="0 0 50 50" enable-background="new 0 0 50 50" xml:space="preserve">
<g>
	<path fill="#553E31" d="M40.404,36.298c-0.414,1.538-1.996,2.451-3.534,2.038l-22.735-6.101c-1.539-0.412-2.451-1.995-2.039-3.533
		l7.05-26.273c0.414-1.539,1.996-2.451,3.534-2.038l22.735,6.1c1.538,0.413,2.451,1.995,2.038,3.534L40.404,36.298z"/>
	<path fill="#fffcf5" d="M39.786,31.532L45.684,9.55c0.151-0.561-0.183-1.139-0.743-1.29L22.206,2.16
		c-0.561-0.15-1.139,0.183-1.29,0.744l-5.898,21.982L39.786,31.532z"/>
	<path fill-rule="evenodd" clip-rule="evenodd" fill="#CDB8AB" d="M32.771,14.006c-0.002-0.001-0.002-0.001-0.003-0.002
		c0.656,0.143,1.392,0.266,2.139,0.321c2.359,0.177,2.627-0.081,2.901-0.027c0.305,0.06,0.502,0.045,0.829-0.061
		c0.326-0.105,0.586-0.65,1-0.557c0.415,0.093,0.127,0.275,0.31,0.716c0.184,0.44,0.521,0.832-0.138,0.874
		c-0.391,0.024-0.583-0.126-0.75-0.226c-0.166-0.099-0.279-0.11-0.782,0.117c-0.125,0.057-0.3,0.258-0.465,0.301
		c-0.187,0.049-1.258,0.447-2.262,0.842c-0.211-0.036-0.433-0.08-0.669-0.133c-0.002-0.003-0.004-0.005-0.006-0.008
		c-0.298-0.379-0.626-0.723-0.949-1.045c-0.014-0.014-0.027-0.027-0.04-0.041c-0.031-0.03-0.061-0.06-0.091-0.089
		c-0.031-0.031-0.063-0.062-0.093-0.091c-0.007-0.007-0.014-0.014-0.02-0.021c-0.011-0.01-0.021-0.02-0.031-0.03
		c-0.06-0.059-0.12-0.117-0.18-0.175c-0.021-0.02-0.041-0.04-0.063-0.061c-0.054-0.052-0.106-0.104-0.16-0.154
		c-0.018-0.016-0.034-0.033-0.051-0.048C33.054,14.271,32.911,14.137,32.771,14.006z M27.288,22.308
		c1.315,0.348,2.952,0.78,4.078,1.083c0.494,0.132,1.104,0.144,1.547,0.153c0.656,0.013,1.195-0.071,1.648-0.254
		c1.038-0.42,1.578-1.48,1.446-2.834l-0.003-0.022c-0.013-0.133-0.033-0.271-0.061-0.418c-0.319,0.185-0.619,0.378-0.892,0.576
		c-1.901,1.376-3.239,1.618-4.027,1.577c-0.003,0-0.005,0-0.007-0.001c-0.003,0-0.006,0-0.008,0l-0.01,0
		c-0.004,0-0.009-0.001-0.013-0.002c-0.021-0.006-0.04-0.022-0.048-0.043c-0.008-0.022-0.004-0.046,0.011-0.064
		c0.014-0.019,0.036-0.028,0.06-0.026c0,0,0.019,0.002,0.02,0.002c0.023,0,0.045-0.003,0.062-0.01
		c0.152-0.058,0.301-0.11,0.458-0.165c0.741-0.255,1.58-0.546,3.184-1.707c1.823-1.321,4.057-1.967,4.791-2.18
		c0.104-0.03,0.18-0.052,0.207-0.062c0.074-0.029,0.117-0.06,0.173-0.1c0.084-0.061,0.189-0.137,0.444-0.235
		c0.223-0.085,0.392-0.108,0.533-0.071c0.128,0.035,0.22,0.117,0.293,0.192c0.065,0.068,0.166,0.124,0.273,0.152l0,0
		c0.12,0.033,0.354,0.058,0.577-0.129c0.223-0.187,0.117-0.439-0.021-0.703c-0.027-0.052-0.05-0.097-0.064-0.135
		c-0.038-0.102-0.033-0.223-0.028-0.34c0.005-0.105,0.009-0.215-0.023-0.276c-0.069-0.132-0.161-0.214-0.274-0.244
		c-0.231-0.063-0.489,0.111-0.595,0.307c-0.196,0.365-0.688,0.465-0.95,0.519l-0.023,0.004c-0.153,0.031-0.282,0.007-0.398-0.024
		c-0.022-0.006-0.044-0.012-0.065-0.018c-0.021-0.006-0.04-0.012-0.061-0.017c-0.046-0.012-0.08-0.02-0.11-0.023l-0.04-0.006
		c-0.115-0.015-0.127-0.017-1.074,0.079c-1.07,0.108-2.188,0.163-4.082-0.346c-0.245-0.066-0.501-0.141-0.76-0.223
		c-0.122-0.039-0.247-0.075-0.37-0.108c-2.209-0.593-3.89-0.094-3.907-0.089c-0.086,0.025-0.169,0.056-0.246,0.09
		c-0.015,0.006-0.03,0.007-0.045,0.003c-0.005-0.001-0.01-0.003-0.014-0.005c-0.019-0.01-0.031-0.027-0.035-0.047
		c-0.006-0.029,0.008-0.058,0.033-0.072c0.619-0.344,1.906-1.061,4.354-0.404c0.131,0.035,0.263,0.073,0.393,0.115
		c0.124,0.039,0.249,0.077,0.374,0.114c-0.214-0.229-0.434-0.447-0.643-0.652c-1.883-1.845-3.378-3.076-5.014-3.515
		c-0.805-0.215-2.332-0.198-3.785,0.353c-1.231,0.466-2.82,1.476-3.401,3.64c-0.448,1.671,0.045,3.175,1.467,4.467
		c1.166,1.059,2.541,1.581,2.844,1.662C25.764,21.904,26.452,22.086,27.288,22.308z"/>
</g>
<g>
	<path fill="#553E31" d="M36.519,39.077c-0.119,1.589-1.504,2.779-3.093,2.66l-23.473-1.76c-1.588-0.119-2.78-1.504-2.661-3.092
		L9.326,9.759c0.12-1.588,1.504-2.78,3.092-2.661l23.473,1.76c1.589,0.119,2.78,1.503,2.661,3.092L36.519,39.077z"/>
	<path fill="#fffcf5" d="M35.024,34.51l1.701-22.696c0.044-0.579-0.392-1.085-0.971-1.128l-23.473-1.76
		c-0.579-0.043-1.085,0.392-1.128,0.971L9.451,32.593L35.024,34.51z"/>
	<path fill-rule="evenodd" clip-rule="evenodd" fill="#CDB8AB" d="M24.867,18.597c-0.001,0-0.001-0.001-0.002-0.001
		c0.671,0.018,1.417,0.001,2.161-0.083c2.351-0.266,2.565-0.569,2.846-0.567c0.311,0.002,0.502-0.049,0.803-0.214
		c0.302-0.164,0.455-0.748,0.88-0.733c0.424,0.015,0.176,0.247,0.438,0.646c0.262,0.398,0.666,0.721,0.027,0.884
		c-0.38,0.097-0.597-0.015-0.779-0.082c-0.182-0.067-0.295-0.056-0.747,0.261c-0.112,0.08-0.246,0.31-0.4,0.383
		c-0.174,0.083-1.152,0.673-2.065,1.248c-0.214,0.004-0.439,0.002-0.682-0.006c-0.003-0.002-0.005-0.004-0.008-0.007
		c-0.363-0.316-0.75-0.593-1.127-0.85c-0.016-0.011-0.032-0.021-0.047-0.032c-0.036-0.023-0.071-0.047-0.106-0.071
		c-0.036-0.025-0.073-0.049-0.107-0.073c-0.008-0.005-0.016-0.01-0.024-0.016c-0.012-0.008-0.023-0.015-0.036-0.023
		c-0.07-0.047-0.14-0.093-0.208-0.139c-0.024-0.016-0.049-0.032-0.073-0.048c-0.063-0.041-0.125-0.082-0.187-0.122
		c-0.02-0.013-0.04-0.026-0.059-0.038C25.195,18.804,25.03,18.699,24.867,18.597z M21.027,27.774
		c1.357,0.097,3.046,0.217,4.208,0.304c0.511,0.038,1.111-0.063,1.549-0.138c0.646-0.109,1.16-0.292,1.571-0.557
		c0.942-0.606,1.275-1.749,0.894-3.054l-0.006-0.021c-0.038-0.128-0.084-0.26-0.138-0.4c-0.28,0.241-0.538,0.487-0.77,0.732
		c-1.611,1.707-2.881,2.192-3.663,2.299c-0.002,0-0.005,0.001-0.007,0.001c-0.002,0.001-0.005,0.001-0.007,0.001l-0.009,0.001
		c-0.004,0.001-0.009,0.001-0.013,0.001c-0.022-0.002-0.043-0.015-0.055-0.034c-0.012-0.021-0.012-0.045-0.002-0.065
		c0.011-0.021,0.031-0.034,0.054-0.036l0.019-0.002c0.024-0.005,0.044-0.012,0.06-0.021c0.138-0.085,0.274-0.163,0.419-0.246
		c0.68-0.39,1.45-0.831,2.81-2.271c1.546-1.637,3.62-2.688,4.302-3.034c0.097-0.049,0.167-0.084,0.191-0.1
		c0.067-0.042,0.104-0.081,0.151-0.13c0.071-0.076,0.161-0.17,0.393-0.314c0.203-0.126,0.365-0.18,0.511-0.169
		c0.132,0.01,0.237,0.073,0.324,0.134c0.076,0.055,0.186,0.09,0.297,0.099l0,0c0.124,0.009,0.358-0.009,0.542-0.234
		c0.185-0.226,0.034-0.454-0.15-0.687c-0.036-0.046-0.067-0.086-0.089-0.121c-0.056-0.092-0.073-0.212-0.091-0.329
		c-0.015-0.104-0.031-0.212-0.074-0.267c-0.093-0.117-0.198-0.18-0.314-0.188c-0.24-0.018-0.461,0.2-0.528,0.412
		c-0.124,0.396-0.588,0.585-0.837,0.687l-0.022,0.009c-0.144,0.06-0.275,0.06-0.396,0.05c-0.023-0.001-0.046-0.004-0.068-0.006
		c-0.021-0.002-0.041-0.004-0.062-0.005c-0.048-0.003-0.082-0.004-0.113-0.002l-0.04,0.002c-0.116,0.006-0.128,0.007-1.041,0.277
		c-1.031,0.305-2.119,0.567-4.075,0.42c-0.253-0.019-0.519-0.045-0.788-0.077c-0.127-0.016-0.256-0.028-0.383-0.038
		c-2.281-0.171-3.839,0.632-3.855,0.64c-0.081,0.041-0.156,0.086-0.226,0.134c-0.013,0.009-0.028,0.013-0.043,0.012
		c-0.005,0-0.01-0.001-0.015-0.002c-0.02-0.006-0.036-0.021-0.043-0.04c-0.011-0.027-0.003-0.059,0.019-0.077
		c0.544-0.454,1.675-1.397,4.204-1.208c0.135,0.01,0.271,0.023,0.407,0.04c0.129,0.016,0.259,0.03,0.389,0.042
		c-0.253-0.185-0.509-0.359-0.753-0.521c-2.193-1.462-3.892-2.393-5.58-2.52c-0.831-0.063-2.328,0.24-3.653,1.051
		c-1.123,0.687-2.496,1.975-2.663,4.21c-0.13,1.726,0.635,3.11,2.273,4.116c1.343,0.823,2.791,1.08,3.104,1.104
		C19.454,27.662,20.164,27.712,21.027,27.774z"/>
</g>
<g>
	<path fill="#553E31" d="M34.584,43.97c0.207,1.58-0.905,3.028-2.485,3.235L8.76,50.267c-1.58,0.207-3.028-0.905-3.235-2.484
		L1.987,20.81c-0.208-1.579,0.905-3.028,2.485-3.235l23.339-3.062c1.579-0.207,3.028,0.905,3.235,2.485L34.584,43.97z"/>
	<path fill="#fffcf5" d="M32.189,39.804l-2.96-22.567c-0.075-0.576-0.605-0.982-1.181-0.907L4.71,19.392
		c-0.576,0.075-0.982,0.605-0.907,1.181l2.96,22.566L32.189,39.804z"/>
	<path fill-rule="evenodd" clip-rule="evenodd" fill="#CDB8AB" d="M19.002,26.295c-0.001,0-0.001-0.001-0.003-0.001
		c0.661-0.12,1.388-0.287,2.098-0.521c2.248-0.74,2.396-1.08,2.671-1.135c0.304-0.061,0.481-0.151,0.742-0.374
		c0.262-0.223,0.293-0.825,0.712-0.897c0.418-0.072,0.222,0.206,0.56,0.543c0.338,0.337,0.8,0.57,0.207,0.86
		c-0.352,0.172-0.587,0.107-0.779,0.078c-0.192-0.028-0.301,0.006-0.678,0.408c-0.094,0.1-0.179,0.353-0.314,0.457
		c-0.154,0.116-0.991,0.894-1.767,1.642c-0.208,0.048-0.431,0.093-0.669,0.133c-0.002-0.001-0.005-0.003-0.008-0.005
		c-0.42-0.235-0.855-0.428-1.277-0.603c-0.018-0.007-0.036-0.015-0.053-0.021c-0.04-0.017-0.079-0.032-0.118-0.048
		c-0.041-0.018-0.081-0.033-0.121-0.05c-0.008-0.003-0.018-0.007-0.026-0.011c-0.014-0.005-0.026-0.01-0.04-0.015
		c-0.078-0.032-0.156-0.063-0.232-0.094c-0.027-0.011-0.054-0.021-0.081-0.031c-0.07-0.028-0.139-0.055-0.208-0.082
		c-0.022-0.008-0.044-0.017-0.065-0.025C19.366,26.431,19.183,26.361,19.002,26.295z M17.114,36.063
		c1.348-0.183,3.026-0.409,4.182-0.561c0.507-0.066,1.074-0.288,1.488-0.45c0.61-0.239,1.076-0.522,1.425-0.865
		c0.798-0.786,0.892-1.972,0.252-3.172l-0.01-0.02c-0.063-0.118-0.135-0.237-0.216-0.363c-0.225,0.293-0.428,0.587-0.604,0.873
		c-1.229,2-2.374,2.734-3.117,2.998c-0.002,0.001-0.005,0.002-0.007,0.002c-0.002,0.001-0.005,0.002-0.007,0.003l-0.009,0.003
		c-0.004,0.002-0.009,0.003-0.013,0.003c-0.022,0.003-0.045-0.005-0.061-0.021c-0.016-0.018-0.021-0.041-0.015-0.063
		c0.006-0.022,0.023-0.04,0.045-0.047c0,0,0.018-0.006,0.018-0.006c0.022-0.009,0.041-0.021,0.054-0.032
		c0.118-0.112,0.235-0.217,0.36-0.327c0.586-0.52,1.251-1.109,2.288-2.796c1.18-1.918,2.996-3.369,3.592-3.847
		c0.086-0.067,0.147-0.117,0.168-0.137c0.058-0.055,0.085-0.101,0.121-0.158c0.055-0.089,0.123-0.199,0.32-0.388
		c0.174-0.164,0.321-0.25,0.466-0.27c0.131-0.017,0.248,0.024,0.345,0.066c0.086,0.037,0.199,0.05,0.312,0.035l0,0
		c0.123-0.016,0.349-0.081,0.482-0.34c0.135-0.258-0.06-0.451-0.287-0.642c-0.045-0.038-0.084-0.07-0.111-0.1
		c-0.074-0.079-0.116-0.193-0.156-0.303c-0.036-0.099-0.074-0.202-0.128-0.247c-0.113-0.095-0.23-0.136-0.346-0.121
		c-0.238,0.032-0.41,0.29-0.433,0.511c-0.042,0.413-0.457,0.693-0.68,0.843l-0.021,0.014c-0.128,0.087-0.257,0.114-0.377,0.13
		c-0.023,0.003-0.045,0.005-0.067,0.008c-0.021,0.003-0.042,0.005-0.062,0.007c-0.048,0.007-0.082,0.013-0.112,0.021l-0.038,0.011
		c-0.112,0.029-0.124,0.032-0.963,0.483c-0.948,0.51-1.959,0.987-3.904,1.242c-0.252,0.033-0.517,0.062-0.787,0.085
		c-0.128,0.011-0.256,0.025-0.383,0.042c-2.268,0.297-3.63,1.4-3.644,1.412c-0.07,0.056-0.135,0.115-0.193,0.177
		c-0.011,0.012-0.025,0.019-0.04,0.021c-0.005,0.001-0.01,0.001-0.015,0.001c-0.021-0.002-0.039-0.013-0.05-0.03
		c-0.017-0.024-0.015-0.057,0.003-0.08c0.44-0.555,1.355-1.709,3.869-2.039c0.134-0.018,0.271-0.032,0.407-0.044
		c0.129-0.012,0.259-0.023,0.389-0.038c-0.285-0.13-0.571-0.247-0.843-0.356c-2.445-0.983-4.298-1.549-5.977-1.329
		c-0.826,0.108-2.229,0.709-3.362,1.773c-0.959,0.901-2.041,2.442-1.75,4.664c0.225,1.716,1.256,2.916,3.064,3.565
		c1.482,0.533,2.952,0.489,3.264,0.448C15.551,36.272,16.256,36.178,17.114,36.063z"/>
</g>
</svg>
