<?xml version="1.0" encoding="utf-8"?>
<!-- Generator: Adobe Illustrator 16.0.0, SVG Export Plug-In . SVG Version: 6.00 Build 0)  -->
<!DOCTYPE svg PUBLIC "-//W3C//DTD SVG 1.1//EN" "http://www.w3.org/Graphics/SVG/1.1/DTD/svg11.dtd">
<svg version="1.1" id="Layer_1" xmlns="http://www.w3.org/2000/svg" xmlns:xlink="http://www.w3.org/1999/xlink" x="0px" y="0px"
	 width="302.94px" height="114.147px" viewBox="0 0 302.94 114.147" enable-background="new 0 0 302.94 114.147"
	 xml:space="preserve">
<polyline fill="none" points="0.55,113.532 301.991,113.532 301.991,0.616 0.55,0.616 "/>
<polyline fill="none" points="0.55,0.616 301.991,0.616 301.991,113.532 0.55,113.532 "/>
<polyline fill="none" points="0.55,0.616 301.991,0.616 301.991,113.532 0.55,113.532 "/>
<polyline fill="none" points="0,0 301.991,0 301.991,113.53 0,113.53 "/>
<polyline fill="#00549E" points="0.55,0.616 302.94,0.616 302.94,114.147 0.55,114.147 "/>
<polyline fill="none" points="0,0 301.991,0 301.991,113.53 0,113.53 "/>
<path fill="#FFFFFF" d="M159.726,56.925c-2.029,0-3.49,0.664-4.973,1.34v15.309c1.422,0.139,2.232,0.139,3.582,0.139
	c4.869,0,5.535-2.229,5.535-5.336v-7.314C163.87,58.769,163.108,56.925,159.726,56.925 M127.397,56.089
	c-3.378,0-4.147,1.852-4.147,4.145v1.287h8.292v-1.287C131.542,57.94,130.771,56.089,127.397,56.089 M64.771,72.026
	c0,1.813,0.856,2.754,2.748,2.754c2.03,0,3.23-0.66,4.712-1.34v-3.629h-4.438C65.693,69.812,64.771,70.2,64.771,72.026
	 M191.175,56.925c-3.383,0-4.555,1.844-4.555,4.137v8.379c0,2.301,1.172,4.148,4.555,4.148c3.373,0,4.555-1.848,4.555-4.148v-8.379
	C195.729,58.769,194.548,56.925,191.175,56.925 M48.191,81.417h-9.943V57.38h-4.971v-8.285h4.971v-4.973
	c0-6.758,2.806-10.777,10.775-10.777h6.637v8.285h-4.146c-3.104,0-3.31,1.158-3.31,3.318l-0.013,4.146h7.517l-0.88,8.285h-6.637
	V81.417z M82.18,81.479h-8.288l-0.357-2.094c-3.786,2.094-7.164,2.434-9.391,2.434c-6.08,0-9.315-4.055-9.315-9.664
	c0-6.615,3.775-8.977,10.529-8.977h6.874v-1.43c0-3.379-0.388-4.369-5.588-4.369H58.14l0.832-8.285h9.294
	c11.412,0,13.914,3.602,13.914,12.721V81.479z M110.364,57.987c-5.158-0.883-6.639-1.078-9.12-1.078
	c-4.458,0-5.805,0.984-5.805,4.762v7.152c0,3.781,1.347,4.766,5.805,4.766c2.481,0,3.962-0.195,9.12-1.082v8.078
	c-4.519,1.014-7.461,1.279-9.948,1.279c-10.678,0-14.92-5.607-14.92-13.709v-5.803c0-8.107,4.242-13.725,14.92-13.725
	c2.487,0,5.43,0.269,9.948,1.282V57.987z M141.485,68.155H123.25v0.668c0,3.781,1.348,4.766,5.804,4.766
	c4.008,0,6.452-0.195,11.6-1.082v8.078c-4.964,1.014-7.55,1.279-12.424,1.279c-10.678,0-14.924-5.607-14.924-13.709v-6.635
	c0-7.086,3.152-12.893,14.092-12.893c10.942,0,14.088,5.738,14.088,12.893V68.155z M173.813,68.308
	c0,7.83-2.24,13.541-15.814,13.541c-4.898,0-7.777-0.432-13.188-1.264V35.832l9.941-1.655V49.83c2.148-0.798,4.93-1.202,7.461-1.202
	c9.945,0,11.6,4.453,11.6,11.605V68.308z M205.683,68.479c0,6.754-2.793,13.305-14.475,13.305c-11.689,0-14.533-6.551-14.533-13.305
	v-6.521c0-6.756,2.844-13.308,14.533-13.308c11.682,0,14.475,6.552,14.475,13.308V68.479z M237.526,68.479
	c0,6.754-2.795,13.305-14.473,13.305c-11.689,0-14.535-6.551-14.535-13.305v-6.521c0-6.756,2.846-13.308,14.535-13.308
	c11.678,0,14.473,6.552,14.473,13.308V68.479z M270.212,81.417h-10.779l-9.113-15.191v15.191h-9.943V35.832l9.943-1.655v29.346
	l9.113-14.428h10.779l-9.951,15.744L270.212,81.417z M223.019,56.925c-3.377,0-4.549,1.844-4.549,4.137v8.379
	c0,2.301,1.172,4.148,4.549,4.148c3.373,0,4.566-1.848,4.566-4.148v-8.379C227.585,58.769,226.392,56.925,223.019,56.925"/>
<path fill="#FFFFFF" d="M275.888,75.749c1.674,0,3.008,1.363,3.008,3.066c0,1.729-1.334,3.078-3.023,3.078
	c-1.674,0-3.037-1.35-3.037-3.078c0-1.703,1.363-3.066,3.037-3.066H275.888z M275.872,76.226c-1.346,0-2.451,1.158-2.451,2.59
	c0,1.457,1.105,2.602,2.467,2.602c1.361,0.014,2.451-1.145,2.451-2.59c0-1.443-1.09-2.602-2.451-2.602H275.872z M275.3,80.601
	h-0.543v-3.422c0.285-0.041,0.557-0.08,0.965-0.08c0.52,0,0.859,0.107,1.064,0.258s0.311,0.381,0.311,0.709
	c0,0.449-0.297,0.721-0.664,0.832v0.027c0.299,0.055,0.504,0.324,0.57,0.828c0.082,0.533,0.164,0.738,0.219,0.848h-0.572
	c-0.082-0.109-0.166-0.424-0.232-0.871c-0.082-0.438-0.299-0.602-0.738-0.602H275.3V80.601z M275.3,78.706h0.396
	c0.447,0,0.83-0.164,0.83-0.586c0-0.301-0.219-0.6-0.83-0.6c-0.178,0-0.303,0.014-0.396,0.027V78.706z"/>
</svg>
