<?xml version="1.0" encoding="utf-8"?>
<!-- Generator: Adobe Illustrator 16.0.0, SVG Export Plug-In . SVG Version: 6.00 Build 0)  -->
<!DOCTYPE svg PUBLIC "-//W3C//DTD SVG 1.1//EN" "http://www.w3.org/Graphics/SVG/1.1/DTD/svg11.dtd">
<svg version="1.1" id="Layer_1" xmlns="http://www.w3.org/2000/svg" xmlns:xlink="http://www.w3.org/1999/xlink" x="0px" y="0px"
	 width="257.083px" height="77.859px" viewBox="0 0 257.083 77.859" enable-background="new 0 0 257.083 77.859"
	 xml:space="preserve">
<g>
	<path fill="#0063DB" d="M10.295,36.918H0V24.243h10.586v-3.219C10.586,5.433,17.676,0,31.662,0c3.788,0,6.702,0.604,8.935,1.006
		l-1.068,12.474c-1.457-0.503-2.914-0.805-5.536-0.805c-4.467,0-6.216,3.219-6.216,8.35v3.219h12.432v12.675H27.777v39.733H10.295
		V36.918z"/>
	<rect x="49.337" y="1.207" fill="#0063DB" width="17.482" height="75.444"/>
	<rect x="81.776" y="2.414" fill="#0063DB" width="17.482" height="13.278"/>
	<rect x="81.776" y="24.243" fill="#0063DB" width="17.482" height="52.408"/>
	<path fill="#0063DB" d="M151.801,39.23c-3.205-2.011-6.41-2.916-10.586-2.916c-7.576,0-13.403,5.432-13.403,14.485
		c0,8.35,6.799,13.78,14.375,13.78c3.98,0,7.963-0.904,10.877-2.515l0.389,13.479c-4.371,1.51-9.615,2.314-14.277,2.314
		c-16.706,0-29.429-10.06-29.429-27.361c0-17.402,12.723-27.462,29.429-27.462c5.244,0,9.906,0.905,13.889,2.917L151.801,39.23z"/>
	<polygon fill="#0063DB" points="160.739,1.207 178.219,1.207 178.219,46.273 178.415,46.273 192.983,24.243 212.116,24.243 
		194.536,48.284 213.573,76.651 192.399,76.651 178.415,50.699 178.219,50.699 178.219,76.651 160.739,76.651 	"/>
	<path fill="#FF0084" d="M256.208,38.728c-1.941-0.603-3.885-0.603-5.924-0.603c-8.158,0-12.723,6.136-12.723,16.396v22.13h-17.482
		V24.243h15.928V33.9h0.195c3.01-6.64,7.381-10.864,14.957-10.864c2.037,0,4.174,0.302,5.924,0.604L256.208,38.728z"/>
</g>
</svg>
