<?xml version="1.0" encoding="utf-8"?>
<!-- Generator: Adobe Illustrator 16.0.0, SVG Export Plug-In . SVG Version: 6.00 Build 0)  -->
<!DOCTYPE svg PUBLIC "-//W3C//DTD SVG 1.1//EN" "http://www.w3.org/Graphics/SVG/1.1/DTD/svg11.dtd">
<svg version="1.1" id="Layer_1" xmlns="http://www.w3.org/2000/svg" xmlns:xlink="http://www.w3.org/1999/xlink" x="0px" y="0px"
	 width="357.593px" height="67.792px" viewBox="0 0 357.593 67.792" enable-background="new 0 0 357.593 67.792"
	 xml:space="preserve">
<g>
	<g>
		<path fill="#7B0099" d="M97.559,17.329c-1.749,0.174-9.034,1.805-11.481,2.328c-2.622,0.699-26.569,19.2-28.143,23.745
			c-0.349,1.574-0.524,3.993-0.524,6.265l-0.176,3.67c0,2.623,0.728,6.845,1.079,9.117c1.571,0.351,12.969,0.046,15.066,0.396
			l-0.262,4.697c-2.045-0.146-16.516-0.114-24.784-0.114c-4.196,0-17.686,0.462-21.829,0.338l0.782-4.471
			c2.271-0.171,11.684,0.409,13.752-1.775c1.026-1.083,0.7-2.245,0.7-8.535v-2.972c0-1.401,0-4.021-0.351-6.469
			c-0.874-2.625-21.968-28.96-27.386-33.156C12.432,9.867,2.57,8.882,0.125,8.359L0,4.331c1.221-0.61,12.186,0.149,22.825-0.244
			c6.993-0.259,22.946,0,24.916,0.234L47.238,7.87C45.14,8.394,35.035,8.587,32.415,9.286c6.817,10.138,17.598,23.192,21.096,28.263
			c1.921-2.798,18.82-14.426,19.344-18.444c-2.623-0.524-11.306-1.776-12.704-1.776l-0.83-4.578c2.378-0.372,14.895,0,21.114,0
			c5.372,0,16.844,0,20.105,0.268L97.559,17.329z"/>
		<path fill="#7B0099" d="M133.682,65.587c-0.773-0.109-9.529-0.104-12.727-0.104c-1.872,0-11.414-0.059-13.066-0.059l0.496-4.095
			c2.205-0.107,6.306-0.998,8.178-1.218c-1.211-2.755-5.21-11.501-6.092-13.151c-2.314,0-10.634,0.258-12.948,0.702
			c-0.442,0.771-3.601,3.872-4.151,8.055c1.543,0.335,4.501,0.968,6.264,1.188l-0.651,4.182c-1.871-0.107-9.342,0.111-11.105,0
			c-1.653,0-9.331,0.021-10.763,0.24l1.365-4.422c1.763-0.22,5.823-1.484,7.365-1.814c2.314-3.305,13.03-24.25,13.912-26.23
			c-1.434-0.335-3.868-1.483-5.411-1.704l-0.213-3.026c1.875,0.11,11.185,0.389,12.177,0.34c2.211-0.107,10.438-0.067,12.309-0.177
			l-0.692,2.974c-1.654,0.11-4.34,0.914-5.886,1.244c0.773,2.313,3.842,9.773,6.154,15.281c1.765,3.967,4.69,11.74,7.443,16.26
			c1.874,0.329,6.172,1.592,8.153,1.701l0.111,1.102L133.682,65.587z M104.865,30.542l-0.11-0.693
			c-1.983,4.625-5.352,11.898-6.011,13.664l10.851-0.006C108.272,40.089,105.857,33.408,104.865,30.542z"/>
		<path fill="#7B0099" d="M198.218,54.252c-1.518-0.118-8.833-0.105-12.57,0c-2.999,0.085-10.122-0.272-13.513-0.125l-0.26-4.156
			c1.17-0.118,8.461-0.612,9.867-0.845c0.467-2.222,0.244-5.372,0.244-8.058l-0.183-4.892c-3.741,0-28.463,1.284-29.514,1.404
			l-1.807,0.234c0,6.66,0.35,8.765,0.817,11.223c1.987,0.349,9.119,0.814,10.639,1.05l-0.092,4.529c-1.755-0.117-12.723,0-16.112,0
			c-4.092,0-14.041-0.088-16.377,0.031l0.316-4.678c1.871-0.118,8.942-0.812,10.461-1.049c0.234-3.036,0.352-7.832,0.352-12.856
			V29.87c0-2.104-0.117-8.183-0.231-10.288c-1.522-0.233-8.592-0.707-10.697-0.82l-0.373-3.541c1.4,0.118,11.161-0.149,16.304-0.149
			c4.794,0,15.66,0.093,16.946-0.025l-0.379,3.715c-2.223,0.114-9.588,0.7-10.873,0.933c-0.351,1.754-0.7,3.274-0.7,8.885
			l-0.174,2.927c2.104,0,28.183-0.104,31.433-0.568v-4.027c0-5.146,0.795-10.703,0.214-12.225
			c-1.286-0.352-8.254-1.331-10.476-1.447l0.311-3.733c1.401,0.118,7.971,0.077,12.881,0.194c5.141,0,12.616,0.213,14.136-0.021
			l-0.345,3.072c-1.521,0.118-8.299,1.833-8.299,1.833s-0.462,3.201-0.122,7.81c0.28,3.826,0.366,11.351,0.366,11.351
			c0.193,8.38,0.711,15.153,0.244,15.503c-0.564,0.42,5.366,0.782,7.004,1.015l0.642,1.112L198.218,54.252z"/>
		<path fill="#7B0099" d="M258.515,34.722c0.555,14.276-12.481,21.359-29.417,21.359c-7.046,0-15.621-1.341-22.944-5.738
			c-5.715-3.427-6.66-7.875-6.66-13.436c0-11.496,12.518-21.026,31.676-20.903c7.292,0,14.323,1.11,20.006,5.542
			c5.068,3.954,5.926,5.918,6.851,10.247L258.515,34.722z M249.116,35.698c0.422-11.815-8.826-14.961-20.507-14.159
			c-6.109,0.421-18.55,3.654-18.55,14.159c0,10.383,9.54,16.006,22.274,14.898c9.851-0.858,15.024-4.485,16.295-9.528
			L249.116,35.698z"/>
		<path fill="#7B0099" d="M343.97,43.251l-7.568-0.733c0.792-3.827,0.102-33.209,0.039-36.345L336.055,0
			c2.104,0.418,1.785,0.199,10.681,1.135c5.42,0.569,6.121,0.811,7.907,0.88l-2.327,7.319
			C350.332,15.189,344.575,41.296,343.97,43.251z M338.744,58.769l-4.054-0.348l-0.043-8.785l5.135,0.643l4.598,0.214l-1.276,8.6
			L338.744,58.769z"/>
		<path fill="#7B0099" d="M329.506,28.921c1,13.368-14.432,24.477-33.765,24.477c-8.045,0-14.893-0.979-22.827-6.227
			c-6.523-4.316-9.64-8.055-10.454-15.42c-1.443-13.045,14.291-24.005,36.162-23.864c8.327,0,16.35,1.267,22.84,6.327
			c5.788,4.515,6.8,8.794,7.856,13.737L329.506,28.921z M319.421,30.817c0.802-12.839-11.566-17.516-24.9-16.6
			c-6.979,0.478-20.019,4.605-20.019,16.6c0,11.851,10.911,17.828,25.45,16.561c11.247-0.982,15.931-5.211,18.489-10.945
			C318.441,36.433,319.177,34.722,319.421,30.817z"/>
		<path fill="#7B0099" d="M353.302,50.569c2.328,0,4.291,1.844,4.291,4.292c0,2.44-1.963,4.283-4.291,4.283
			c-2.339,0-4.289-1.842-4.289-4.283C349.013,52.413,350.963,50.569,353.302,50.569z M353.302,58.523c1.959,0,3.53-1.59,3.53-3.662
			c0-2.079-1.571-3.669-3.53-3.669c-1.971,0-3.526,1.59-3.526,3.669C349.775,56.933,351.331,58.523,353.302,58.523z M351.664,52.342
			h1.891c1.19,0,1.752,0.474,1.752,1.433c0,0.909-0.576,1.289-1.326,1.37l1.442,2.214h-0.818l-1.361-2.154h-0.819v2.154h-0.76
			V52.342z M352.424,54.58h0.786c0.68,0,1.338-0.033,1.338-0.842c0-0.69-0.602-0.771-1.119-0.771h-1.005V54.58z"/>
	</g>
</g>
</svg>
