<?xml version="1.0" encoding="utf-8"?>
<!-- Generator: Adobe Illustrator 16.0.0, SVG Export Plug-In . SVG Version: 6.00 Build 0)  -->
<!DOCTYPE svg PUBLIC "-//W3C//DTD SVG 1.1//EN" "http://www.w3.org/Graphics/SVG/1.1/DTD/svg11.dtd">
<svg version="1.1" id="Layer_1" xmlns="http://www.w3.org/2000/svg" xmlns:xlink="http://www.w3.org/1999/xlink" x="0px" y="0px"
	 width="174.252px" height="58.805px" viewBox="0 0 174.252 58.805" enable-background="new 0 0 174.252 58.805"
	 xml:space="preserve">
<g>
	<path fill-rule="evenodd" clip-rule="evenodd" fill="#6D6E71" d="M169.58,13.792h1.083c0.009,0.014,0.013,0.027,0.018,0.041
		c0.177,0.386,0.354,0.77,0.517,1.159c0.177,0.436,0.334,0.878,0.524,1.309c0.009,0.013,0.015,0.027,0.019,0.041
		c0.14-0.317,0.356-0.829,0.498-1.146c0.131-0.293,0.262-0.593,0.393-0.887c0.052-0.114,0.06-0.137,0.06-0.177
		c0-0.099-0.101-0.099-0.19-0.099l-0.397,0.018l0.397-0.258h1.453l-0.104,0.1c-0.105,0.095-0.16,0.163-0.16,0.349
		c0,0.063,0.006,0.126,0.015,0.194c0.026,0.286,0.05,0.57,0.072,0.856c0.031,0.375,0.067,0.751,0.137,1.123
		c0.058,0.303,0.121,0.412,0.339,0.575c-0.24,0.045-0.402,0.068-0.644,0.068c-0.099,0-0.271,0-0.43-0.117
		c-0.186-0.145-0.212-0.376-0.244-0.788c-0.026-0.282-0.054-0.562-0.077-0.843c-0.019-0.267-0.027-0.534-0.053-0.801l-0.006-0.054
		l-0.026,0.059c-0.159,0.344-0.305,0.697-0.458,1.041c-0.357,0.824-0.384,0.878-0.456,1.1l0.05,0.136
		c-0.132,0.031-0.647,0.203-0.839,0.275c-0.145-0.403-0.655-1.715-1.063-2.611c-0.04,0.38-0.077,0.76-0.113,1.14
		c-0.011,0.127-0.086,0.974-0.086,1.051c0,0.099,0.022,0.126,0.199,0.145l0.398,0.058l-0.232,0.141h-0.842l0.119-0.141
		c0.022-0.032,0.044-0.058,0.059-0.099c0.025-0.072,0.04-0.2,0.059-0.38c0.031-0.276,0.068-0.548,0.101-0.824
		c0.018-0.172,0.103-1.014,0.125-1.208c0.006-0.045,0.009-0.095,0.009-0.141c0-0.117-0.044-0.176-0.181-0.176
		c-0.063,0-0.354,0.008-0.42,0.008L169.58,13.792L169.58,13.792z"/>
	<path fill-rule="evenodd" clip-rule="evenodd" fill="#6D6E71" d="M169.381,13.792l-0.197,0.461l-0.204,0.091
		c0.013-0.045,0.05-0.213,0.05-0.23c0-0.104-0.122-0.109-0.249-0.109l-0.63,0.005c-0.055,1.765-0.055,1.919-0.055,2.158
		c0,0.127,0,0.231,0.009,0.385c0.015,0.195,0.078,0.236,0.287,0.249l0.383,0.041l-0.294,0.145h-1.508l0.101-0.145
		c0.1-0.149,0.114-0.172,0.114-0.271c0.003-0.1,0-0.566,0-0.67c0-0.19,0-0.384,0.003-0.575c0.014-0.389,0.037-0.779,0.037-1.164
		c0-0.064-0.006-0.136-0.006-0.153h-0.551c-0.276,0.009-0.281,0.017-0.43,0.244l-0.24,0.091l0.24-0.552H169.381L169.381,13.792z"/>
	<path fill-rule="evenodd" clip-rule="evenodd" fill="#EF3E35" d="M163.521,39.627c-0.636,0.348-1.274,0.754-1.911,1.043
		c-1.913,0.869-3.883,1.102-5.62,1.102c-1.854,0-4.751-0.117-7.705-2.26c-4.113-2.896-5.909-7.879-5.909-12.225
		c0-8.979,7.3-13.383,13.268-13.383c2.084,0,4.229,0.521,5.967,1.623c2.896,1.911,3.649,4.402,4.054,5.735l-13.613,5.503
		l-4.461,0.349c1.448,7.356,6.431,11.644,11.935,11.644c2.954,0,5.099-1.041,7.068-2.027L163.521,39.627L163.521,39.627z
		 M158.076,22.364c1.1-0.406,1.68-0.753,1.68-1.565c0-2.317-2.606-4.982-5.735-4.982c-2.318,0-6.662,1.796-6.662,8.053
		c0,0.985,0.114,2.027,0.173,3.07L158.076,22.364L158.076,22.364z"/>
	<path fill-rule="evenodd" clip-rule="evenodd" fill="#2FB457" d="M140.984,40.901h-10.255c1.333-1.736,1.565-1.91,1.565-3.068
		v-9.444c0-4.519,0.058-10.95,0.231-16.975c0.058-2.955,0.29-6.663,0.348-9.328h-4.519L132.701,0h8.283
		c-1.795,1.043-2.375,1.391-2.605,3.419c-0.464,4.46-0.522,11.528-0.522,19.755v13.383c0,2.26,0.405,2.607,2.318,2.781
		c0.984,0.115,1.97,0.174,2.954,0.289L140.984,40.901L140.984,40.901z"/>
	<path fill-rule="evenodd" clip-rule="evenodd" fill="#0075BF" d="M121.983,16.744c1.331,1.101,4.112,3.418,4.112,7.821
		c0,4.287-2.434,6.314-4.866,8.227c-0.752,0.752-1.622,1.564-1.622,2.838c0,1.275,0.87,1.971,1.506,2.492l2.086,1.621
		c2.55,2.145,4.866,4.115,4.866,8.111c0,5.447-5.272,10.951-15.237,10.951c-8.4,0-12.456-3.998-12.456-8.285
		c0-2.088,1.043-5.041,4.463-7.07c3.591-2.201,8.458-2.49,11.063-2.664c-0.811-1.043-1.737-2.143-1.737-3.938
		c0-0.986,0.29-1.566,0.58-2.26c-0.639,0.057-1.274,0.115-1.854,0.115c-6.141,0-9.617-4.578-9.617-9.096
		c0-2.665,1.217-5.62,3.708-7.763c3.303-2.723,7.242-3.186,10.37-3.186h11.934l-3.707,2.085H121.983L121.983,16.744z
		 M117.869,42.465c-0.464-0.057-0.754-0.057-1.332-0.057c-0.521,0-3.65,0.115-6.084,0.928c-1.274,0.463-4.982,1.852-4.982,5.967
		c0,4.111,3.998,7.066,10.197,7.066c5.562,0,8.517-2.664,8.517-6.256C124.185,47.159,122.273,45.594,117.869,42.465L117.869,42.465z
		 M119.551,31.459c1.331-1.334,1.447-3.187,1.447-4.23c0-4.171-2.491-10.66-7.3-10.66c-1.507,0-3.128,0.753-4.056,1.912
		c-0.985,1.217-1.275,2.781-1.275,4.287c0,3.881,2.26,10.312,7.242,10.312C117.058,33.081,118.622,32.385,119.551,31.459
		L119.551,31.459z"/>
	<path fill-rule="evenodd" clip-rule="evenodd" fill="#FFDF1C" d="M86.063,41.655c-9.211,0-14.136-7.184-14.136-13.671
		c0-7.589,6.199-14.079,15.004-14.079c8.517,0,13.848,6.663,13.848,13.673C100.779,34.415,95.507,41.655,86.063,41.655
		L86.063,41.655z M93.305,36.963c1.391-1.855,1.738-4.172,1.738-6.432c0-5.098-2.435-14.831-9.618-14.831
		c-1.911,0-3.823,0.753-5.213,1.97c-2.258,2.028-2.665,4.577-2.665,7.068c0,5.736,2.839,15.178,9.848,15.178
		C89.654,39.917,91.973,38.817,93.305,36.963L93.305,36.963z"/>
	<path fill-rule="evenodd" clip-rule="evenodd" fill="#EF3E35" d="M55.242,41.655c-9.212,0-14.137-7.184-14.137-13.671
		c0-7.589,6.199-14.079,15.006-14.079c8.516,0,13.845,6.663,13.845,13.673C69.957,34.415,64.686,41.655,55.242,41.655L55.242,41.655
		z M62.483,36.963c1.391-1.855,1.738-4.172,1.738-6.432c0-5.098-2.433-14.831-9.616-14.831c-1.912,0-3.824,0.753-5.215,1.97
		c-2.259,2.028-2.665,4.577-2.665,7.068c0,5.736,2.839,15.178,9.85,15.178C58.834,39.917,61.151,38.817,62.483,36.963L62.483,36.963
		z"/>
	<path fill-rule="evenodd" clip-rule="evenodd" fill="#0075BF" d="M37.422,39.633l-7.767,1.791c-3.15,0.49-5.975,0.924-8.962,0.924
		C5.703,42.348,0,31.323,0,22.687C0,12.15,8.093,2.374,21.943,2.374c2.933,0,5.758,0.436,8.31,1.141
		c4.073,1.141,5.975,2.553,7.169,3.369l-4.508,4.29l-1.9,0.435l1.357-2.173C30.525,7.643,27.156,4.33,20.749,4.33
		c-8.583,0-15.046,6.518-15.046,16.023c0,10.21,7.388,19.824,19.227,19.824c3.477,0,5.269-0.705,6.898-1.357v-8.744l-8.201,0.434
		l4.345-2.335h11.515l-1.412,1.358c-0.38,0.324-0.435,0.434-0.544,0.867c-0.054,0.49-0.108,2.064-0.108,2.607V39.633L37.422,39.633z
		"/>
</g>
</svg>
