<?xml version="1.0" encoding="utf-8"?>
<!-- Generator: Adobe Illustrator 16.0.0, SVG Export Plug-In . SVG Version: 6.00 Build 0)  -->
<!DOCTYPE svg PUBLIC "-//W3C//DTD SVG 1.1//EN" "http://www.w3.org/Graphics/SVG/1.1/DTD/svg11.dtd">
<svg version="1.1" id="Layer_1" xmlns="http://www.w3.org/2000/svg" xmlns:xlink="http://www.w3.org/1999/xlink" x="0px" y="0px"
	 width="230px" height="90px" viewBox="36.47 12.073 230 90" enable-background="new 36.47 12.073 230 90" xml:space="preserve">
<polyline fill="none" points="36.887,99.938 265.749,99.938 265.749,14.21 36.887,14.21 "/>
<polyline fill="none" points="36.887,14.21 265.749,14.21 265.749,99.938 36.887,99.938 "/>
<polyline fill="none" points="36.887,14.21 265.749,14.21 265.749,99.938 36.887,99.938 "/>
<polyline fill="none" points="36.47,13.742 265.749,13.742 265.749,99.937 36.47,99.937 "/>
<polyline fill="#00549E" points="36.887,14.21 266.47,14.21 266.47,100.406 36.887,100.406 "/>
<polyline fill="none" points="36.47,13.742 265.749,13.742 265.749,99.937 36.47,99.937 "/>
<path fill="#FFFFFF" d="M157.739,56.961c-1.541,0-2.65,0.504-3.775,1.017v11.623c1.079,0.105,1.693,0.105,2.719,0.105
	c3.697,0,4.203-1.692,4.203-4.051v-5.554C160.885,58.361,160.306,56.961,157.739,56.961 M133.193,56.326
	c-2.565,0-3.148,1.406-3.148,3.147v0.978h6.295v-0.978C136.34,57.731,135.755,56.326,133.193,56.326 M85.646,68.426
	c0,1.376,0.65,2.091,2.086,2.091c1.542,0,2.453-0.501,3.578-1.018v-2.755H87.94C86.345,66.744,85.646,67.04,85.646,68.426
	 M181.615,56.961c-2.568,0-3.458,1.4-3.458,3.141v6.361c0,1.747,0.89,3.149,3.458,3.149c2.561,0,3.458-1.402,3.458-3.149v-6.361
	C185.073,58.361,184.176,56.961,181.615,56.961 M73.057,75.556h-7.548v-18.25h-3.775v-6.291h3.775V47.24
	c0-5.131,2.13-8.182,8.18-8.182h5.04v6.29h-3.148c-2.356,0-2.513,0.879-2.513,2.519l-0.01,3.148h5.708l-0.668,6.29h-5.04V75.556z
	 M98.863,75.603h-6.292l-0.271-1.59c-2.875,1.59-5.439,1.848-7.13,1.848c-4.616,0-7.072-3.078-7.072-7.337
	c0-5.021,2.865-6.815,7.993-6.815h5.219v-1.086c0-2.565-0.294-3.317-4.243-3.317h-6.457l0.632-6.29h7.056
	c8.665,0,10.564,2.734,10.564,9.658V75.603z M120.261,57.767c-3.916-0.67-5.041-0.818-6.924-0.818c-3.384,0-4.408,0.747-4.408,3.615
	v5.43c0,2.871,1.023,3.619,4.408,3.619c1.883,0,3.008-0.148,6.924-0.821v6.133c-3.431,0.77-5.665,0.971-7.552,0.971
	c-8.108,0-11.328-4.257-11.328-10.408v-4.405c0-6.155,3.22-10.42,11.328-10.42c1.888,0,4.122,0.204,7.552,0.974V57.767z
	 M143.889,65.487h-13.844v0.507c0,2.871,1.023,3.619,4.406,3.619c3.043,0,4.899-0.148,8.807-0.821v6.133
	c-3.769,0.77-5.732,0.971-9.433,0.971c-8.107,0-11.331-4.257-11.331-10.408v-5.037c0-5.38,2.393-9.789,10.699-9.789
	c8.308,0,10.696,4.356,10.696,9.789L143.889,65.487L143.889,65.487z M168.433,65.603c0,5.945-1.7,10.281-12.006,10.281
	c-3.719,0-5.905-0.328-10.013-0.96V40.947l7.548-1.257v11.885c1.63-0.606,3.742-0.913,5.664-0.913c7.551,0,8.807,3.381,8.807,8.811
	V65.603z M192.63,65.733c0,5.128-2.121,10.103-10.99,10.103c-8.874,0-11.033-4.975-11.033-10.103v-4.95
	c0-5.129,2.159-10.104,11.033-10.104c8.869,0,10.99,4.975,10.99,10.104V65.733z M216.806,65.733c0,5.128-2.122,10.103-10.988,10.103
	c-8.875,0-11.035-4.975-11.035-10.103v-4.95c0-5.129,2.16-10.104,11.035-10.104c8.866,0,10.988,4.975,10.988,10.104V65.733z
	 M241.622,75.556h-8.184l-6.919-11.534v11.534h-7.549V40.947l7.549-1.257v22.28l6.919-10.954h8.184l-7.556,11.953L241.622,75.556z
	 M205.792,56.961c-2.564,0-3.454,1.4-3.454,3.141v6.361c0,1.747,0.89,3.149,3.454,3.149c2.561,0,3.467-1.402,3.467-3.149v-6.361
	C209.259,58.361,208.353,56.961,205.792,56.961"/>
<path fill="#FFFFFF" d="M245.932,71.252c1.271,0,2.283,1.035,2.283,2.328c0,1.313-1.013,2.337-2.295,2.337
	c-1.271,0-2.306-1.024-2.306-2.337c0-1.293,1.035-2.328,2.306-2.328H245.932z M245.919,71.615c-1.021,0-1.86,0.879-1.86,1.966
	c0,1.106,0.839,1.977,1.873,1.977c1.033,0.01,1.86-0.87,1.86-1.967c0-1.096-0.827-1.976-1.86-1.976H245.919z M245.486,74.936h-0.413
	v-2.598c0.217-0.031,0.423-0.061,0.733-0.061c0.395,0,0.652,0.081,0.808,0.195c0.155,0.115,0.236,0.289,0.236,0.538
	c0,0.342-0.226,0.548-0.505,0.632v0.021c0.228,0.042,0.383,0.247,0.434,0.629c0.062,0.405,0.124,0.561,0.166,0.644h-0.435
	c-0.063-0.082-0.126-0.321-0.176-0.661c-0.063-0.332-0.227-0.457-0.561-0.457h-0.288V74.936z M245.486,73.497h0.3
	c0.34,0,0.63-0.124,0.63-0.444c0-0.229-0.166-0.456-0.63-0.456c-0.135,0-0.229,0.011-0.3,0.021V73.497z"/>
</svg>
