<?xml version="1.0" encoding="utf-8"?>
<!-- Generator: Adobe Illustrator 15.0.0, SVG Export Plug-In . SVG Version: 6.00 Build 0)  -->
<!DOCTYPE svg PUBLIC "-//W3C//DTD SVG 1.1//EN" "http://www.w3.org/Graphics/SVG/1.1/DTD/svg11.dtd">
<svg version="1.1" id="Layer_1" xmlns="http://www.w3.org/2000/svg" xmlns:xlink="http://www.w3.org/1999/xlink" x="0px" y="0px"
	 width="258.493px" height="92.96px" viewBox="0 0 258.493 92.96" enable-background="new 0 0 258.493 92.96" xml:space="preserve">
<path fill="#72C7C3" stroke="#000000" stroke-width="3.3746" stroke-miterlimit="10" d="M56.355,63.939V29.022
	c0-15.097-12.237-27.334-27.334-27.334c-15.096,0-27.334,12.238-27.334,27.334v34.917"/>
<path fill="#FFFFFF" stroke="#000000" stroke-width="3.3746" stroke-miterlimit="10" d="M1.688,63.939
	c0,15.097,12.238,27.334,27.334,27.334c15.097,0,27.334-12.237,27.334-27.334"/>
<line fill="#FFFFFF" stroke="#000000" stroke-width="3.3746" stroke-miterlimit="10" x1="56.355" y1="63.939" x2="1.688" y2="63.939"/>
<g>
	<path d="M19.461,82.16h-2.16v-8.14c-0.79,0.737-1.72,1.283-2.791,1.636v-1.959c0.563-0.186,1.176-0.534,1.837-1.05
		c0.661-0.515,1.114-1.115,1.36-1.803h1.752V82.16z"/>
	<path d="M22.721,79.262l2.152-0.223c0.062,0.486,0.243,0.871,0.545,1.156c0.303,0.284,0.651,0.427,1.046,0.427
		c0.451,0,0.833-0.183,1.146-0.55c0.313-0.366,0.469-0.919,0.469-1.656c0-0.691-0.155-1.211-0.465-1.557
		c-0.31-0.347-0.714-0.519-1.211-0.519c-0.62,0-1.176,0.273-1.668,0.822l-1.753-0.254l1.107-5.865h5.712v2.021h-4.075l-0.338,1.914
		c0.482-0.241,0.974-0.361,1.476-0.361c0.958,0,1.771,0.349,2.437,1.045c0.667,0.697,1,1.603,1,2.714
		c0,0.928-0.269,1.756-0.807,2.483c-0.733,0.994-1.75,1.491-3.052,1.491c-1.041,0-1.889-0.278-2.544-0.838
		C23.241,80.956,22.849,80.206,22.721,79.262z"/>
	<path d="M31.462,73.673c0-1.01,0.222-1.758,0.665-2.245s1.044-0.73,1.803-0.73c0.784,0,1.398,0.242,1.841,0.727
		s0.665,1.234,0.665,2.249c0,1.01-0.222,1.758-0.665,2.244c-0.443,0.487-1.044,0.731-1.803,0.731c-0.784,0-1.398-0.242-1.841-0.728
		C31.684,75.437,31.462,74.688,31.462,73.673z M33.146,73.658c0,0.733,0.085,1.225,0.253,1.476c0.128,0.186,0.306,0.277,0.531,0.277
		c0.231,0,0.41-0.092,0.538-0.277c0.164-0.251,0.246-0.742,0.246-1.476c0-0.732-0.082-1.223-0.246-1.469
		C34.34,72,34.161,71.905,33.93,71.905c-0.225,0-0.402,0.093-0.531,0.276C33.23,72.433,33.146,72.925,33.146,73.658z M35.575,82.59
		h-1.599l6.004-11.893h1.552L35.575,82.59z M39.065,79.63c0-1.009,0.221-1.757,0.665-2.244c0.443-0.487,1.049-0.73,1.818-0.73
		c0.774,0,1.382,0.243,1.826,0.73s0.665,1.235,0.665,2.244c0,1.016-0.222,1.766-0.665,2.253s-1.044,0.73-1.803,0.73
		c-0.784,0-1.397-0.243-1.841-0.73C39.286,81.396,39.065,80.646,39.065,79.63z M40.749,79.624c0,0.733,0.084,1.222,0.253,1.468
		c0.128,0.19,0.305,0.285,0.53,0.285c0.231,0,0.408-0.093,0.531-0.277c0.169-0.251,0.253-0.742,0.253-1.476
		c0-0.732-0.082-1.226-0.246-1.477c-0.128-0.184-0.308-0.276-0.539-0.276c-0.23,0-0.407,0.093-0.53,0.276
		C40.833,78.398,40.749,78.891,40.749,79.624z"/>
</g>
<path fill="#E6B0D1" stroke="#000000" stroke-width="3.3746" stroke-miterlimit="10" d="M123.172,63.939V29.022
	c0-15.097-12.238-27.334-27.334-27.334c-15.096,0-27.334,12.238-27.334,27.334v34.917"/>
<path fill="#FFFFFF" stroke="#000000" stroke-width="3.3746" stroke-miterlimit="10" d="M68.504,63.939
	c0,15.097,12.238,27.334,27.334,27.334c15.097,0,27.334-12.237,27.334-27.334"/>
<line fill="#FFFFFF" stroke="#000000" stroke-width="3.3746" stroke-miterlimit="10" x1="123.172" y1="63.939" x2="68.504" y2="63.939"/>
<g>
	<path d="M85.16,79.262l2.153-0.223c0.061,0.486,0.243,0.871,0.545,1.156c0.302,0.284,0.651,0.427,1.046,0.427
		c0.451,0,0.833-0.183,1.145-0.55c0.313-0.366,0.469-0.919,0.469-1.656c0-0.691-0.155-1.211-0.465-1.557
		c-0.31-0.347-0.714-0.519-1.211-0.519c-0.62,0-1.176,0.273-1.668,0.822l-1.753-0.254l1.107-5.865h5.712v2.021h-4.074l-0.338,1.914
		c0.482-0.241,0.974-0.361,1.476-0.361c0.958,0,1.771,0.349,2.437,1.045c0.667,0.697,1,1.603,1,2.714
		c0,0.928-0.269,1.756-0.807,2.483c-0.733,0.994-1.75,1.491-3.052,1.491c-1.041,0-1.889-0.278-2.544-0.838
		C85.68,80.956,85.288,80.206,85.16,79.262z"/>
	<path d="M93.9,73.673c0-1.01,0.222-1.758,0.665-2.245s1.044-0.73,1.803-0.73c0.784,0,1.398,0.242,1.841,0.727
		s0.665,1.234,0.665,2.249c0,1.01-0.222,1.758-0.665,2.244c-0.443,0.487-1.044,0.731-1.803,0.731c-0.784,0-1.398-0.242-1.841-0.728
		C94.122,75.437,93.9,74.688,93.9,73.673z M95.583,73.658c0,0.733,0.085,1.225,0.254,1.476c0.128,0.186,0.305,0.277,0.53,0.277
		c0.231,0,0.41-0.092,0.538-0.277c0.164-0.251,0.246-0.742,0.246-1.476c0-0.732-0.082-1.223-0.246-1.469
		c-0.128-0.188-0.307-0.284-0.538-0.284c-0.225,0-0.402,0.093-0.53,0.276C95.668,72.433,95.583,72.925,95.583,73.658z M98.013,82.59
		h-1.599l6.004-11.893h1.553L98.013,82.59z M101.503,79.63c0-1.009,0.222-1.757,0.665-2.244s1.049-0.73,1.818-0.73
		c0.774,0,1.382,0.243,1.826,0.73c0.444,0.487,0.665,1.235,0.665,2.244c0,1.016-0.221,1.766-0.665,2.253
		c-0.443,0.487-1.044,0.73-1.802,0.73c-0.784,0-1.398-0.243-1.841-0.73S101.503,80.646,101.503,79.63z M103.187,79.624
		c0,0.733,0.085,1.222,0.253,1.468c0.128,0.19,0.305,0.285,0.531,0.285c0.231,0,0.407-0.093,0.53-0.277
		c0.169-0.251,0.253-0.742,0.253-1.476c0-0.732-0.082-1.226-0.246-1.477c-0.128-0.184-0.307-0.276-0.538-0.276
		s-0.408,0.093-0.531,0.276C103.271,78.398,103.187,78.891,103.187,79.624z"/>
</g>
<g>
	<path d="M81.602,24.887h-3.006v-0.922c0-0.431-0.038-0.705-0.115-0.823c-0.077-0.117-0.205-0.176-0.384-0.176
		c-0.195,0-0.342,0.079-0.442,0.238c-0.1,0.159-0.15,0.4-0.15,0.723c0,0.415,0.056,0.728,0.168,0.938
		c0.107,0.21,0.413,0.464,0.915,0.761c1.44,0.855,2.348,1.557,2.722,2.105c0.374,0.548,0.561,1.433,0.561,2.652
		c0,0.887-0.104,1.54-0.312,1.96c-0.208,0.42-0.608,0.772-1.203,1.057c-0.595,0.284-1.287,0.427-2.075,0.427
		c-0.867,0-1.606-0.164-2.218-0.492c-0.612-0.328-1.014-0.746-1.203-1.253s-0.285-1.228-0.285-2.161v-0.815h3.006v1.515
		c0,0.466,0.042,0.767,0.127,0.899c0.084,0.134,0.234,0.2,0.45,0.2c0.215,0,0.375-0.085,0.48-0.253
		c0.105-0.169,0.157-0.421,0.157-0.754c0-0.732-0.1-1.212-0.3-1.438c-0.205-0.225-0.71-0.602-1.515-1.13
		c-0.804-0.533-1.337-0.92-1.599-1.161c-0.262-0.241-0.478-0.574-0.65-0.999c-0.171-0.425-0.257-0.969-0.257-1.63
		c0-0.953,0.122-1.65,0.365-2.091s0.637-0.786,1.18-1.034c0.543-0.249,1.199-0.374,1.968-0.374c0.841,0,1.557,0.136,2.149,0.408
		c0.592,0.272,0.983,0.614,1.176,1.026c0.192,0.413,0.289,1.114,0.289,2.103V24.887z"/>
	<path d="M90.636,21.121v8.318c0,0.943-0.031,1.605-0.092,1.987c-0.062,0.382-0.244,0.774-0.546,1.176
		c-0.303,0.403-0.701,0.708-1.195,0.915c-0.495,0.208-1.078,0.312-1.749,0.312c-0.743,0-1.399-0.123-1.968-0.369
		c-0.569-0.246-0.994-0.566-1.276-0.961c-0.282-0.395-0.448-0.811-0.5-1.25c-0.051-0.438-0.077-1.359-0.077-2.763v-7.365h3.236
		v9.333c0,0.543,0.03,0.891,0.089,1.042c0.059,0.151,0.178,0.227,0.357,0.227c0.205,0,0.337-0.083,0.396-0.25
		c0.059-0.167,0.088-0.56,0.088-1.18v-9.171H90.636z"/>
	<path d="M99.708,25.702h-3.236v-1.129c0-0.713-0.031-1.159-0.093-1.338c-0.061-0.179-0.207-0.269-0.438-0.269
		c-0.2,0-0.336,0.077-0.408,0.23c-0.072,0.154-0.107,0.548-0.107,1.184v5.973c0,0.559,0.036,0.926,0.107,1.104
		c0.071,0.177,0.215,0.265,0.431,0.265c0.235,0,0.396-0.1,0.48-0.3c0.084-0.2,0.127-0.589,0.127-1.168v-1.476h-0.654v-1.891h3.79
		v6.68h-2.034l-0.299-0.892c-0.221,0.384-0.499,0.673-0.835,0.865c-0.336,0.192-0.732,0.289-1.188,0.289
		c-0.544,0-1.053-0.132-1.527-0.396c-0.474-0.264-0.834-0.591-1.081-0.98c-0.246-0.389-0.399-0.798-0.461-1.226
		c-0.061-0.428-0.092-1.07-0.092-1.926v-3.698c0-1.189,0.064-2.053,0.192-2.591s0.496-1.032,1.103-1.48
		c0.608-0.448,1.393-0.673,2.356-0.673c0.949,0,1.735,0.195,2.36,0.584s1.033,0.852,1.223,1.388
		c0.189,0.535,0.284,1.313,0.284,2.333V25.702z"/>
	<path d="M106.95,21.121l1.851,12.446h-3.308l-0.173-2.237h-1.158l-0.194,2.237h-3.346l1.65-12.446H106.95z M105.234,29.123
		c-0.164-1.41-0.329-3.152-0.493-5.227c-0.33,2.383-0.537,4.126-0.621,5.227H105.234z"/>
	<path d="M109.744,21.121h2.291c1.527,0,2.561,0.059,3.102,0.177c0.541,0.118,0.981,0.419,1.322,0.903
		c0.34,0.484,0.511,1.257,0.511,2.318c0,0.969-0.121,1.62-0.361,1.953s-0.715,0.533-1.422,0.6c0.641,0.159,1.071,0.371,1.292,0.638
		c0.22,0.267,0.357,0.511,0.411,0.734c0.054,0.223,0.081,0.837,0.081,1.841v3.282h-3.006v-4.136c0-0.666-0.053-1.079-0.157-1.238
		c-0.105-0.159-0.381-0.238-0.827-0.238v5.612h-3.236V21.121z M112.98,23.25v2.768c0.364,0,0.619-0.05,0.765-0.15
		c0.146-0.1,0.219-0.424,0.219-0.973v-0.684c0-0.395-0.071-0.653-0.211-0.776S113.354,23.25,112.98,23.25z"/>
	<path d="M88.729,40.013v1.991h-3.852v2.114c0.482-0.569,1.102-0.854,1.86-0.854c0.856,0,1.503,0.24,1.941,0.719
		c0.438,0.479,0.657,1.4,0.657,2.764v1.776c0,0.881-0.042,1.529-0.126,1.941c-0.084,0.413-0.266,0.795-0.542,1.146
		c-0.277,0.351-0.662,0.62-1.157,0.807c-0.495,0.187-1.098,0.28-1.81,0.28c-0.799,0-1.504-0.139-2.114-0.419
		c-0.61-0.279-1.043-0.695-1.3-1.249c-0.256-0.554-0.384-1.41-0.384-2.568v-0.677h3.106v0.776c0,0.805,0.028,1.376,0.084,1.714
		c0.056,0.338,0.251,0.508,0.584,0.508c0.154,0,0.278-0.049,0.373-0.146c0.095-0.098,0.146-0.203,0.154-0.315
		s0.017-0.603,0.027-1.468v-2.468c0-0.466-0.048-0.784-0.146-0.953c-0.097-0.169-0.259-0.253-0.484-0.253
		c-0.144,0-0.264,0.043-0.361,0.13c-0.097,0.087-0.16,0.181-0.188,0.281c-0.028,0.1-0.042,0.332-0.042,0.695h-3.075l0.131-6.273
		H88.729z"/>
	<path d="M92.597,50.022v1.115c0,0.584-0.069,1.063-0.208,1.438c-0.138,0.374-0.378,0.692-0.719,0.953s-0.726,0.436-1.157,0.523
		v-0.892c0.308-0.175,0.481-0.408,0.522-0.7h-0.522v-2.437H92.597z"/>
	<path d="M100.608,40.013v1.991h-3.851v2.114c0.481-0.569,1.102-0.854,1.86-0.854c0.856,0,1.503,0.24,1.941,0.719
		c0.438,0.479,0.657,1.4,0.657,2.764v1.776c0,0.881-0.042,1.529-0.127,1.941c-0.084,0.413-0.265,0.795-0.542,1.146
		s-0.662,0.62-1.157,0.807s-1.098,0.28-1.811,0.28c-0.799,0-1.504-0.139-2.114-0.419c-0.61-0.279-1.043-0.695-1.299-1.249
		c-0.256-0.554-0.384-1.41-0.384-2.568v-0.677h3.105v0.776c0,0.805,0.028,1.376,0.084,1.714c0.057,0.338,0.251,0.508,0.584,0.508
		c0.154,0,0.278-0.049,0.373-0.146c0.095-0.098,0.146-0.203,0.154-0.315c0.007-0.113,0.016-0.603,0.027-1.468v-2.468
		c0-0.466-0.049-0.784-0.146-0.953c-0.098-0.169-0.259-0.253-0.485-0.253c-0.143,0-0.264,0.043-0.361,0.13
		c-0.097,0.087-0.16,0.181-0.188,0.281c-0.028,0.1-0.042,0.332-0.042,0.695h-3.075l0.13-6.273H100.608z"/>
	<path d="M109.728,42.258v7.856c0,1.061-0.024,1.746-0.073,2.056s-0.221,0.638-0.519,0.984c-0.297,0.346-0.71,0.609-1.241,0.792
		c-0.53,0.182-1.198,0.273-2.002,0.273c-0.99,0-1.784-0.167-2.383-0.503s-0.91-0.996-0.93-1.98h3.014
		c0,0.452,0.164,0.677,0.492,0.677c0.236,0,0.392-0.069,0.469-0.208c0.077-0.138,0.115-0.428,0.115-0.869v-0.77
		c-0.267,0.242-0.547,0.425-0.842,0.547c-0.295,0.124-0.604,0.186-0.926,0.186c-0.559,0-1.019-0.113-1.38-0.339
		c-0.361-0.225-0.608-0.521-0.742-0.888c-0.133-0.366-0.2-0.888-0.2-1.564v-3.706c0-0.968,0.174-1.666,0.523-2.091
		c0.348-0.425,0.878-0.638,1.591-0.638c0.389,0,0.744,0.08,1.064,0.239c0.32,0.159,0.606,0.398,0.857,0.716l0.224-0.771H109.728z
		 M106.614,44.964c0-0.466-0.027-0.763-0.081-0.892s-0.173-0.192-0.357-0.192c-0.18,0-0.307,0.073-0.381,0.219
		c-0.074,0.146-0.111,0.434-0.111,0.865v3.429c0,0.456,0.029,0.751,0.085,0.888c0.056,0.136,0.174,0.203,0.354,0.203
		c0.205,0,0.338-0.082,0.4-0.246c0.061-0.164,0.092-0.535,0.092-1.114V44.964z"/>
</g>
<path fill="#9BC3E8" stroke="#000000" stroke-width="3.3746" stroke-miterlimit="10" d="M256.805,63.939V29.022
	c0-15.097-12.238-27.334-27.334-27.334s-27.334,12.238-27.334,27.334v34.917"/>
<path fill="#FFCF78" stroke="#000000" stroke-width="3.3746" stroke-miterlimit="10" d="M189.989,63.939V29.022
	c0-15.097-12.237-27.334-27.334-27.334c-15.096,0-27.334,12.238-27.334,27.334v34.917"/>
<path fill="#FFFFFF" stroke="#000000" stroke-width="3.3746" stroke-miterlimit="10" d="M135.321,63.939
	c0,15.097,12.238,27.334,27.334,27.334c15.097,0,27.334-12.237,27.334-27.334"/>
<line fill="#FFFFFF" stroke="#000000" stroke-width="3.3746" stroke-miterlimit="10" x1="189.989" y1="63.939" x2="135.321" y2="63.939"/>
<g>
	<path d="M161.507,80.154v2.006h-7.572c0.081-0.758,0.328-1.477,0.738-2.156c0.41-0.679,1.219-1.579,2.429-2.702
		c0.974-0.906,1.57-1.521,1.791-1.845c0.297-0.445,0.446-0.887,0.446-1.322c0-0.481-0.13-0.852-0.388-1.111
		c-0.26-0.258-0.616-0.388-1.073-0.388c-0.451,0-0.81,0.137-1.076,0.407c-0.267,0.272-0.42,0.724-0.462,1.354l-2.151-0.216
		c0.127-1.188,0.53-2.042,1.206-2.56c0.678-0.518,1.522-0.776,2.538-0.776c1.111,0,1.985,0.3,2.621,0.899s0.953,1.346,0.953,2.237
		c0,0.507-0.091,0.99-0.273,1.448c-0.183,0.459-0.47,0.939-0.865,1.442c-0.261,0.332-0.732,0.812-1.413,1.437
		c-0.683,0.626-1.114,1.041-1.296,1.246c-0.182,0.204-0.33,0.405-0.442,0.6H161.507z"/>
	<path d="M162.983,73.673c0-1.01,0.222-1.758,0.665-2.245s1.044-0.73,1.803-0.73c0.784,0,1.398,0.242,1.841,0.727
		c0.443,0.484,0.665,1.234,0.665,2.249c0,1.01-0.222,1.758-0.665,2.244c-0.442,0.487-1.045,0.731-1.803,0.731
		c-0.784,0-1.397-0.242-1.841-0.728C163.205,75.437,162.983,74.688,162.983,73.673z M164.667,73.658
		c0,0.733,0.085,1.225,0.254,1.476c0.128,0.186,0.305,0.277,0.53,0.277c0.23,0,0.409-0.092,0.538-0.277
		c0.164-0.251,0.246-0.742,0.246-1.476c0-0.732-0.082-1.223-0.246-1.469c-0.129-0.188-0.308-0.284-0.538-0.284
		c-0.226,0-0.402,0.093-0.53,0.276C164.751,72.433,164.667,72.925,164.667,73.658z M167.095,82.59h-1.599l6.004-11.893h1.554
		L167.095,82.59z M170.585,79.63c0-1.009,0.223-1.757,0.665-2.244c0.443-0.487,1.049-0.73,1.818-0.73
		c0.773,0,1.382,0.243,1.826,0.73c0.442,0.487,0.664,1.235,0.664,2.244c0,1.016-0.222,1.766-0.664,2.253
		c-0.444,0.487-1.045,0.73-1.804,0.73c-0.784,0-1.397-0.243-1.841-0.73C170.808,81.396,170.585,80.646,170.585,79.63z
		 M172.27,79.624c0,0.733,0.084,1.222,0.253,1.468c0.128,0.19,0.305,0.285,0.531,0.285c0.23,0,0.406-0.093,0.53-0.277
		c0.169-0.251,0.253-0.742,0.253-1.476c0-0.732-0.082-1.226-0.245-1.477c-0.129-0.184-0.308-0.276-0.538-0.276
		s-0.408,0.093-0.531,0.276C172.354,78.398,172.27,78.891,172.27,79.624z"/>
</g>
<g>
	<path d="M222.062,24.887h-3.006v-0.922c0-0.431-0.039-0.705-0.115-0.823c-0.077-0.117-0.205-0.176-0.385-0.176
		c-0.194,0-0.342,0.079-0.441,0.238c-0.101,0.159-0.15,0.4-0.15,0.723c0,0.415,0.056,0.728,0.169,0.938
		c0.106,0.21,0.411,0.464,0.914,0.761c1.44,0.855,2.349,1.557,2.723,2.105s0.561,1.433,0.561,2.652c0,0.887-0.104,1.54-0.312,1.96
		c-0.207,0.42-0.608,0.772-1.202,1.057c-0.595,0.284-1.286,0.427-2.076,0.427c-0.866,0-1.604-0.164-2.218-0.492
		c-0.612-0.328-1.013-0.746-1.203-1.253s-0.284-1.228-0.284-2.161v-0.815h3.006v1.515c0,0.466,0.042,0.767,0.126,0.899
		c0.085,0.134,0.235,0.2,0.45,0.2c0.216,0,0.376-0.085,0.48-0.253c0.105-0.169,0.157-0.421,0.157-0.754c0-0.732-0.1-1.212-0.3-1.438
		c-0.204-0.225-0.71-0.602-1.514-1.13c-0.805-0.533-1.338-0.92-1.6-1.161c-0.261-0.241-0.478-0.574-0.648-0.999
		c-0.172-0.425-0.258-0.969-0.258-1.63c0-0.953,0.121-1.65,0.364-2.091c0.244-0.441,0.637-0.786,1.181-1.034
		c0.543-0.249,1.199-0.374,1.968-0.374c0.841,0,1.557,0.136,2.148,0.408c0.592,0.272,0.984,0.614,1.177,1.026
		c0.191,0.413,0.288,1.114,0.288,2.103V24.887z"/>
	<path d="M229.334,21.121l1.851,12.446h-3.308l-0.174-2.237h-1.157l-0.194,2.237h-3.347l1.65-12.446H229.334z M227.619,29.123
		c-0.164-1.41-0.328-3.152-0.492-5.227c-0.33,2.383-0.537,4.126-0.621,5.227H227.619z"/>
	<path d="M235.364,21.121v9.956h1.969v2.49h-5.204V21.121H235.364z"/>
	<path d="M243.899,21.121v2.491h-1.922v9.955h-3.236v-9.955h-1.914v-2.491H243.899z"/>
	<path d="M222.715,44.226v4.151c0,0.943-0.052,1.629-0.153,2.06c-0.103,0.431-0.315,0.833-0.639,1.207
		c-0.322,0.374-0.712,0.643-1.168,0.807s-0.967,0.246-1.529,0.246c-0.744,0-1.361-0.085-1.854-0.257
		c-0.491-0.171-0.883-0.439-1.175-0.803c-0.293-0.364-0.5-0.747-0.623-1.149c-0.123-0.402-0.185-1.042-0.185-1.918v-4.343
		c0-1.143,0.099-1.999,0.296-2.568c0.197-0.569,0.59-1.024,1.176-1.368c0.588-0.343,1.298-0.515,2.134-0.515
		c0.682,0,1.292,0.119,1.83,0.358c0.538,0.238,0.94,0.529,1.206,0.872c0.267,0.343,0.448,0.73,0.542,1.161
		C222.667,42.596,222.715,43.283,222.715,44.226z M219.61,43.181c0-0.661-0.032-1.075-0.097-1.242
		c-0.063-0.166-0.214-0.25-0.449-0.25c-0.23,0-0.383,0.088-0.457,0.265c-0.074,0.177-0.112,0.585-0.112,1.226v6.073
		c0,0.723,0.035,1.158,0.104,1.307s0.219,0.223,0.449,0.223s0.382-0.087,0.453-0.261c0.072-0.175,0.108-0.567,0.108-1.177V43.181z"
		/>
	<path d="M226.03,50.022v1.115c0,0.584-0.069,1.063-0.208,1.438c-0.139,0.374-0.378,0.692-0.718,0.953
		c-0.342,0.261-0.728,0.436-1.157,0.523v-0.892c0.308-0.175,0.48-0.408,0.522-0.7h-0.522v-2.437H226.03z"/>
	<path d="M234.042,40.013v1.991h-3.851v2.114c0.481-0.569,1.102-0.854,1.86-0.854c0.855,0,1.503,0.24,1.941,0.719
		c0.438,0.479,0.656,1.4,0.656,2.764v1.776c0,0.881-0.042,1.529-0.126,1.941c-0.085,0.413-0.265,0.795-0.542,1.146
		c-0.276,0.351-0.662,0.62-1.157,0.807s-1.099,0.28-1.811,0.28c-0.799,0-1.504-0.139-2.113-0.419c-0.61-0.279-1.044-0.695-1.3-1.249
		c-0.256-0.554-0.385-1.41-0.385-2.568v-0.677h3.105v0.776c0,0.805,0.029,1.376,0.085,1.714c0.057,0.338,0.251,0.508,0.585,0.508
		c0.153,0,0.277-0.049,0.373-0.146c0.095-0.098,0.146-0.203,0.153-0.315s0.017-0.603,0.027-1.468v-2.468
		c0-0.466-0.05-0.784-0.147-0.953c-0.097-0.169-0.258-0.253-0.483-0.253c-0.144,0-0.265,0.043-0.361,0.13s-0.161,0.181-0.188,0.281
		c-0.028,0.1-0.043,0.332-0.043,0.695h-3.074l0.13-6.273H234.042z"/>
	<path d="M243.161,42.258v7.856c0,1.061-0.024,1.746-0.072,2.056c-0.05,0.31-0.223,0.638-0.52,0.984
		c-0.298,0.346-0.712,0.609-1.242,0.792s-1.197,0.273-2.002,0.273c-0.989,0-1.783-0.167-2.383-0.503s-0.91-0.996-0.931-1.98h3.014
		c0,0.452,0.164,0.677,0.492,0.677c0.235,0,0.393-0.069,0.469-0.208c0.077-0.138,0.115-0.428,0.115-0.869v-0.77
		c-0.266,0.242-0.547,0.425-0.842,0.547c-0.295,0.124-0.604,0.186-0.926,0.186c-0.56,0-1.02-0.113-1.38-0.339
		c-0.362-0.225-0.608-0.521-0.742-0.888c-0.134-0.366-0.2-0.888-0.2-1.564v-3.706c0-0.968,0.175-1.666,0.522-2.091
		c0.35-0.425,0.88-0.638,1.592-0.638c0.39,0,0.744,0.08,1.064,0.239c0.32,0.159,0.606,0.398,0.857,0.716l0.223-0.771H243.161z
		 M240.047,44.964c0-0.466-0.027-0.763-0.081-0.892c-0.053-0.128-0.173-0.192-0.357-0.192c-0.179,0-0.307,0.073-0.381,0.219
		c-0.074,0.146-0.11,0.434-0.11,0.865v3.429c0,0.456,0.027,0.751,0.084,0.888c0.057,0.136,0.174,0.203,0.354,0.203
		c0.204,0,0.339-0.082,0.399-0.246c0.062-0.164,0.093-0.535,0.093-1.114V44.964z"/>
</g>
<path fill="#FFFFFF" stroke="#000000" stroke-width="3.3746" stroke-miterlimit="10" d="M202.137,63.939
	c0,15.097,12.238,27.334,27.334,27.334s27.334-12.237,27.334-27.334"/>
<line fill="#FFFFFF" stroke="#000000" stroke-width="3.3746" stroke-miterlimit="10" x1="256.805" y1="63.939" x2="202.137" y2="63.939"/>
<g>
	<path d="M222.25,80.154v2.006h-7.572c0.081-0.758,0.328-1.477,0.738-2.156c0.409-0.679,1.219-1.579,2.429-2.702
		c0.974-0.906,1.57-1.521,1.791-1.845c0.297-0.445,0.446-0.887,0.446-1.322c0-0.481-0.13-0.852-0.388-1.111
		c-0.26-0.258-0.617-0.388-1.073-0.388c-0.451,0-0.81,0.137-1.076,0.407c-0.267,0.272-0.42,0.724-0.462,1.354l-2.151-0.216
		c0.127-1.188,0.53-2.042,1.206-2.56c0.678-0.518,1.522-0.776,2.538-0.776c1.111,0,1.985,0.3,2.621,0.899s0.953,1.346,0.953,2.237
		c0,0.507-0.091,0.99-0.273,1.448c-0.183,0.459-0.47,0.939-0.865,1.442c-0.261,0.332-0.732,0.812-1.414,1.437
		c-0.682,0.626-1.113,1.041-1.295,1.246c-0.182,0.204-0.33,0.405-0.442,0.6H222.25z"/>
	<path d="M223.74,79.262l2.152-0.223c0.063,0.486,0.244,0.871,0.546,1.156c0.304,0.284,0.651,0.427,1.046,0.427
		c0.451,0,0.833-0.183,1.146-0.55c0.313-0.366,0.469-0.919,0.469-1.656c0-0.691-0.155-1.211-0.465-1.557
		c-0.311-0.347-0.714-0.519-1.21-0.519c-0.62,0-1.177,0.273-1.669,0.822l-1.753-0.254l1.107-5.865h5.712v2.021h-4.075l-0.338,1.914
		c0.482-0.241,0.974-0.361,1.477-0.361c0.957,0,1.771,0.349,2.437,1.045c0.666,0.697,0.999,1.603,0.999,2.714
		c0,0.928-0.269,1.756-0.807,2.483c-0.733,0.994-1.751,1.491-3.053,1.491c-1.039,0-1.888-0.278-2.544-0.838
		C224.261,80.956,223.869,80.206,223.74,79.262z"/>
	<path d="M232.48,73.673c0-1.01,0.223-1.758,0.666-2.245s1.044-0.73,1.803-0.73c0.783,0,1.398,0.242,1.841,0.727
		c0.443,0.484,0.665,1.234,0.665,2.249c0,1.01-0.222,1.758-0.665,2.244c-0.442,0.487-1.045,0.731-1.803,0.731
		c-0.784,0-1.397-0.242-1.841-0.728C232.703,75.437,232.48,74.688,232.48,73.673z M234.165,73.658c0,0.733,0.085,1.225,0.253,1.476
		c0.129,0.186,0.306,0.277,0.531,0.277c0.23,0,0.409-0.092,0.538-0.277c0.164-0.251,0.245-0.742,0.245-1.476
		c0-0.732-0.081-1.223-0.245-1.469c-0.129-0.188-0.308-0.284-0.538-0.284c-0.226,0-0.402,0.093-0.531,0.276
		C234.25,72.433,234.165,72.925,234.165,73.658z M236.593,82.59h-1.599l6.004-11.893h1.553L236.593,82.59z M240.083,79.63
		c0-1.009,0.222-1.757,0.665-2.244s1.049-0.73,1.818-0.73c0.773,0,1.382,0.243,1.826,0.73c0.442,0.487,0.664,1.235,0.664,2.244
		c0,1.016-0.222,1.766-0.664,2.253c-0.444,0.487-1.045,0.73-1.804,0.73c-0.784,0-1.397-0.243-1.841-0.73
		S240.083,80.646,240.083,79.63z M241.768,79.624c0,0.733,0.083,1.222,0.253,1.468c0.128,0.19,0.305,0.285,0.53,0.285
		c0.231,0,0.407-0.093,0.531-0.277c0.168-0.251,0.253-0.742,0.253-1.476c0-0.732-0.082-1.226-0.245-1.477
		c-0.129-0.184-0.308-0.276-0.539-0.276c-0.23,0-0.407,0.093-0.53,0.276C241.851,78.398,241.768,78.891,241.768,79.624z"/>
</g>
<g>
	<path d="M21.069,26.541h-3.237v-2.163c0-0.629-0.035-1.022-0.103-1.178c-0.069-0.156-0.222-0.234-0.458-0.234
		c-0.266,0-0.435,0.095-0.507,0.284c-0.071,0.19-0.107,0.6-0.107,1.23v5.781c0,0.604,0.036,0.999,0.107,1.184
		c0.072,0.185,0.233,0.277,0.485,0.277c0.24,0,0.398-0.093,0.473-0.277c0.074-0.185,0.111-0.619,0.111-1.302v-1.565h3.237v0.485
		c0,1.288-0.091,2.202-0.273,2.741c-0.182,0.539-0.584,1.011-1.207,1.417c-0.623,0.406-1.391,0.608-2.303,0.608
		c-0.948,0-1.729-0.172-2.344-0.515c-0.614-0.343-1.022-0.819-1.222-1.426c-0.199-0.608-0.3-1.521-0.3-2.741V25.51
		c0-0.896,0.031-1.569,0.093-2.018c0.061-0.448,0.244-0.88,0.55-1.295c0.305-0.415,0.727-0.742,1.268-0.98
		c0.54-0.239,1.162-0.358,1.864-0.358c0.953,0,1.74,0.185,2.36,0.553s1.027,0.828,1.222,1.378c0.195,0.55,0.292,1.406,0.292,2.567
		V26.541z"/>
	<path d="M28.218,21.121l1.851,12.446h-3.308l-0.174-2.237H25.43l-0.195,2.237h-3.346l1.651-12.446H28.218z M26.502,29.123
		c-0.164-1.41-0.328-3.152-0.493-5.227c-0.33,2.383-0.537,4.126-0.621,5.227H26.502z"/>
	<path d="M34.249,21.121v9.956h1.969v2.49h-5.204V21.121H34.249z"/>
	<path d="M44.145,24.887h-3.006v-0.922c0-0.431-0.039-0.705-0.115-0.823c-0.077-0.117-0.206-0.176-0.385-0.176
		c-0.194,0-0.342,0.079-0.441,0.238c-0.101,0.159-0.15,0.4-0.15,0.723c0,0.415,0.056,0.728,0.168,0.938
		c0.107,0.21,0.412,0.464,0.915,0.761c1.441,0.855,2.348,1.557,2.723,2.105c0.374,0.548,0.561,1.433,0.561,2.652
		c0,0.887-0.104,1.54-0.312,1.96c-0.208,0.42-0.608,0.772-1.203,1.057c-0.595,0.284-1.287,0.427-2.076,0.427
		c-0.866,0-1.605-0.164-2.217-0.492c-0.612-0.328-1.014-0.746-1.204-1.253s-0.285-1.228-0.285-2.161v-0.815h3.006v1.515
		c0,0.466,0.042,0.767,0.126,0.899c0.084,0.134,0.235,0.2,0.45,0.2c0.215,0,0.375-0.085,0.48-0.253
		c0.105-0.169,0.157-0.421,0.157-0.754c0-0.732-0.099-1.212-0.3-1.438c-0.205-0.225-0.709-0.602-1.514-1.13
		c-0.804-0.533-1.337-0.92-1.599-1.161c-0.262-0.241-0.478-0.574-0.649-0.999c-0.171-0.425-0.257-0.969-0.257-1.63
		c0-0.953,0.122-1.65,0.365-2.091c0.244-0.441,0.636-0.786,1.18-1.034c0.543-0.249,1.199-0.374,1.967-0.374
		c0.841,0,1.558,0.136,2.149,0.408c0.592,0.272,0.984,0.614,1.176,1.026s0.289,1.114,0.289,2.103V24.887z"/>
	<path d="M22.941,40.013v8.133h0.885v2.122h-0.885v2.191h-3.105v-2.191h-3.69v-2.122l2.683-8.133H22.941z M19.836,48.146V42.85
		l-1.373,5.296H19.836z"/>
	<path d="M31.645,40.013v1.991h-3.851v2.114c0.481-0.569,1.102-0.854,1.86-0.854c0.855,0,1.502,0.24,1.941,0.719
		c0.438,0.479,0.657,1.4,0.657,2.764v1.776c0,0.881-0.042,1.529-0.126,1.941c-0.085,0.413-0.265,0.795-0.542,1.146
		s-0.663,0.62-1.157,0.807s-1.099,0.28-1.81,0.28c-0.8,0-1.504-0.139-2.114-0.419c-0.61-0.279-1.043-0.695-1.299-1.249
		c-0.256-0.554-0.385-1.41-0.385-2.568v-0.677h3.105v0.776c0,0.805,0.029,1.376,0.085,1.714c0.057,0.338,0.25,0.508,0.584,0.508
		c0.153,0,0.278-0.049,0.374-0.146c0.094-0.098,0.146-0.203,0.153-0.315s0.016-0.603,0.027-1.468v-2.468
		c0-0.466-0.049-0.784-0.146-0.953c-0.098-0.169-0.258-0.253-0.484-0.253c-0.144,0-0.264,0.043-0.36,0.13
		c-0.098,0.087-0.161,0.181-0.189,0.281c-0.028,0.1-0.042,0.332-0.042,0.695H24.85l0.13-6.273H31.645z"/>
	<path d="M41.032,44.226v4.151c0,0.943-0.051,1.629-0.153,2.06c-0.102,0.431-0.315,0.833-0.638,1.207
		c-0.322,0.374-0.712,0.643-1.168,0.807s-0.966,0.246-1.53,0.246c-0.743,0-1.36-0.085-1.854-0.257
		c-0.492-0.171-0.883-0.439-1.175-0.803c-0.292-0.364-0.5-0.747-0.623-1.149c-0.123-0.402-0.185-1.042-0.185-1.918v-4.343
		c0-1.143,0.099-1.999,0.296-2.568c0.197-0.569,0.589-1.024,1.175-1.368c0.587-0.343,1.298-0.515,2.133-0.515
		c0.682,0,1.292,0.119,1.831,0.358c0.538,0.238,0.94,0.529,1.207,0.872s0.447,0.73,0.542,1.161S41.032,43.283,41.032,44.226z
		 M37.927,43.181c0-0.661-0.032-1.075-0.097-1.242c-0.063-0.166-0.214-0.25-0.449-0.25c-0.23,0-0.383,0.088-0.458,0.265
		c-0.074,0.177-0.112,0.585-0.112,1.226v6.073c0,0.723,0.035,1.158,0.104,1.307c0.069,0.149,0.219,0.223,0.449,0.223
		s0.382-0.087,0.453-0.261c0.072-0.175,0.108-0.567,0.108-1.177V43.181z"/>
</g>
<g>
	<path d="M152.542,21.121h5.481v2.491h-2.244v2.36h1.999v2.368h-1.999v5.228h-3.237V21.121z"/>
	<path d="M164.481,21.121l1.851,12.446h-3.307l-0.174-2.237h-1.158l-0.193,2.237h-3.347l1.651-12.446H164.481z M162.766,29.123
		c-0.164-1.41-0.328-3.152-0.493-5.227c-0.33,2.383-0.536,4.126-0.621,5.227H162.766z"/>
	<path d="M172.925,21.121v2.491h-1.922v9.955h-3.236v-9.955h-1.914v-2.491H172.925z"/>
	<path d="M150.166,40.013v12.446h-3.105v-6.673c0-0.963-0.023-1.542-0.069-1.737s-0.173-0.342-0.38-0.442
		c-0.208-0.1-0.67-0.149-1.388-0.149h-0.308v-1.452c1.501-0.323,2.643-0.987,3.422-1.993H150.166z"/>
	<path d="M159.092,44.226v4.151c0,0.943-0.052,1.629-0.153,2.06c-0.104,0.431-0.315,0.833-0.638,1.207
		c-0.324,0.374-0.714,0.643-1.169,0.807c-0.457,0.164-0.966,0.246-1.529,0.246c-0.744,0-1.362-0.085-1.854-0.257
		c-0.492-0.171-0.884-0.439-1.176-0.803s-0.5-0.747-0.623-1.149c-0.122-0.402-0.185-1.042-0.185-1.918v-4.343
		c0-1.143,0.099-1.999,0.296-2.568c0.198-0.569,0.59-1.024,1.176-1.368c0.588-0.343,1.299-0.515,2.134-0.515
		c0.682,0,1.292,0.119,1.83,0.358c0.538,0.238,0.939,0.529,1.207,0.872c0.266,0.343,0.446,0.73,0.542,1.161
		C159.044,42.596,159.092,43.283,159.092,44.226z M155.987,43.181c0-0.661-0.032-1.075-0.097-1.242
		c-0.063-0.166-0.214-0.25-0.449-0.25c-0.23,0-0.383,0.088-0.457,0.265c-0.074,0.177-0.112,0.585-0.112,1.226v6.073
		c0,0.723,0.035,1.158,0.104,1.307s0.219,0.223,0.449,0.223c0.231,0,0.382-0.087,0.453-0.261c0.072-0.175,0.108-0.567,0.108-1.177
		V43.181z"/>
	<path d="M162.408,50.022v1.115c0,0.584-0.069,1.063-0.208,1.438c-0.139,0.374-0.378,0.692-0.719,0.953s-0.727,0.436-1.156,0.523
		v-0.892c0.307-0.175,0.481-0.408,0.522-0.7h-0.522v-2.437H162.408z"/>
	<path d="M170.419,40.013v1.991h-3.852v2.114c0.481-0.569,1.102-0.854,1.859-0.854c0.856,0,1.504,0.24,1.941,0.719
		c0.439,0.479,0.657,1.4,0.657,2.764v1.776c0,0.881-0.042,1.529-0.127,1.941c-0.084,0.413-0.265,0.795-0.542,1.146
		c-0.276,0.351-0.662,0.62-1.156,0.807c-0.495,0.187-1.099,0.28-1.811,0.28c-0.799,0-1.505-0.139-2.114-0.419
		c-0.609-0.279-1.043-0.695-1.299-1.249c-0.256-0.554-0.385-1.41-0.385-2.568v-0.677h3.106v0.776c0,0.805,0.027,1.376,0.084,1.714
		c0.057,0.338,0.251,0.508,0.584,0.508c0.154,0,0.277-0.049,0.373-0.146c0.096-0.098,0.146-0.203,0.153-0.315
		s0.018-0.603,0.027-1.468v-2.468c0-0.466-0.049-0.784-0.146-0.953c-0.098-0.169-0.26-0.253-0.485-0.253
		c-0.143,0-0.264,0.043-0.36,0.13c-0.098,0.087-0.16,0.181-0.188,0.281c-0.028,0.1-0.042,0.332-0.042,0.695h-3.076l0.132-6.273
		H170.419z"/>
	<path d="M179.538,42.258v7.856c0,1.061-0.024,1.746-0.073,2.056s-0.221,0.638-0.52,0.984c-0.297,0.346-0.709,0.609-1.24,0.792
		c-0.53,0.182-1.198,0.273-2.003,0.273c-0.989,0-1.783-0.167-2.383-0.503s-0.91-0.996-0.93-1.98h3.013
		c0,0.452,0.164,0.677,0.492,0.677c0.235,0,0.392-0.069,0.469-0.208c0.077-0.138,0.115-0.428,0.115-0.869v-0.77
		c-0.266,0.242-0.548,0.425-0.842,0.547c-0.294,0.124-0.603,0.186-0.927,0.186c-0.558,0-1.019-0.113-1.379-0.339
		c-0.361-0.225-0.609-0.521-0.742-0.888c-0.134-0.366-0.199-0.888-0.199-1.564v-3.706c0-0.968,0.174-1.666,0.522-2.091
		c0.348-0.425,0.878-0.638,1.592-0.638c0.389,0,0.743,0.08,1.064,0.239c0.32,0.159,0.605,0.398,0.856,0.716l0.224-0.771H179.538z
		 M176.424,44.964c0-0.466-0.027-0.763-0.081-0.892s-0.173-0.192-0.356-0.192c-0.18,0-0.307,0.073-0.381,0.219
		c-0.074,0.146-0.111,0.434-0.111,0.865v3.429c0,0.456,0.028,0.751,0.085,0.888c0.056,0.136,0.174,0.203,0.353,0.203
		c0.205,0,0.338-0.082,0.399-0.246s0.093-0.535,0.093-1.114V44.964z"/>
</g>
</svg>
