<?xml version="1.0" encoding="utf-8"?>
<!-- Generator: Adobe Illustrator 15.0.0, SVG Export Plug-In . SVG Version: 6.00 Build 0)  -->
<!DOCTYPE svg PUBLIC "-//W3C//DTD SVG 1.1//EN" "http://www.w3.org/Graphics/SVG/1.1/DTD/svg11.dtd">
<svg version="1.1" id="Layer_1" xmlns="http://www.w3.org/2000/svg" xmlns:xlink="http://www.w3.org/1999/xlink" x="0px" y="0px"
	 width="155px" height="50px" viewBox="0 0 155 50" enable-background="new 0 0 155 50" xml:space="preserve">
<rect opacity="0.85" fill="#FFFCF6" width="155" height="50"/>
<g>
	<g>
		<g>
			<ellipse fill="#CDB8AB" cx="98.25" cy="42.593" rx="14.875" ry="5.556"/>
			<path fill="#563F32" d="M98.25,48.148c-8.216,0-14.876-2.488-14.876-5.556v1.852c0,3.067,6.66,5.556,14.876,5.556
				c8.215,0,14.875-2.488,14.875-5.556v-1.852C113.125,45.66,106.465,48.148,98.25,48.148z"/>
		</g>
		<path fill="#EBDFD5" d="M90.813,2.778v38.425c0,1.535,3.329,2.779,7.438,2.779c4.107,0,7.438-1.244,7.438-2.779V2.778H90.813z"/>
		<path fill="#563F32" d="M98.25,27.747c-4.108,0-7.438-1.244-7.438-2.778v16.234c0,1.535,3.329,2.779,7.438,2.779
			c4.107,0,7.438-1.244,7.438-2.779V24.969C105.688,26.503,102.357,27.747,98.25,27.747z"/>
		<ellipse fill="#CDB8AB" cx="98.25" cy="2.778" rx="7.438" ry="2.777"/>
		<path fill="#CDB8AB" d="M105.688,9.962c-0.033,0.067-0.052,0.144-0.052,0.224c0,0.945-2.633,2.264-6.921,2.264
			c-0.285,0-0.517,0.229-0.517,0.514c0,0.284,0.231,0.515,0.517,0.515c2.047,0,3.979-0.302,5.439-0.847
			c0.622-0.23,1.135-0.502,1.533-0.803V9.962z"/>
		<path fill="#CDB8AB" d="M105.688,17.369c-0.033,0.067-0.052,0.143-0.052,0.224c0,0.944-2.633,2.263-6.921,2.263
			c-0.285,0-0.517,0.231-0.517,0.516c0,0.283,0.231,0.514,0.517,0.514c2.047,0,3.979-0.3,5.439-0.846
			c0.622-0.232,1.135-0.503,1.533-0.803V17.369z"/>
		<path fill="#CDB8AB" d="M105.688,24.776c-0.033,0.067-0.052,0.144-0.052,0.224c0,0.945-2.633,2.264-6.921,2.264
			c-0.285,0-0.517,0.23-0.517,0.515c0,0.283,0.231,0.514,0.517,0.514c2.047,0,3.979-0.3,5.439-0.846
			c0.622-0.231,1.135-0.503,1.533-0.804V24.776z"/>
		<path fill="#CDB8AB" d="M105.688,32.184c-0.033,0.068-0.052,0.145-0.052,0.224c0,0.944-2.633,2.263-6.921,2.263
			c-0.285,0-0.517,0.231-0.517,0.516c0,0.283,0.231,0.514,0.517,0.514c2.047,0,3.979-0.3,5.439-0.846
			c0.622-0.232,1.135-0.503,1.533-0.803V32.184z"/>
		<g>
			<path fill="#563F32" d="M83.374,27.692v-5.081h1.304v3.616h1.049v-3.439h1.277v3.439h1.918v1.465H83.374z"/>
			<path fill="#563F32" d="M88.922,16.743l-0.939,0.412v3.18l0.939,0.412v1.673l-5.548-2.55v-2.274l5.548-2.515V16.743z
				 M86.768,17.669l-2.102,0.927v0.292l2.102,0.926V17.669z"/>
			<path fill="#563F32" d="M83.374,15.305V9.487h1.414v2.138h4.134v1.539h-4.134v2.141H83.374z"/>
		</g>
	</g>
	<g>
		<g>
			<ellipse fill="#CDB8AB" cx="135.999" cy="42.593" rx="14.876" ry="5.556"/>
			<path fill="#563F32" d="M135.999,48.148c-8.216,0-14.876-2.488-14.876-5.556v1.852c0,3.067,6.66,5.556,14.876,5.556
				s14.876-2.488,14.876-5.556v-1.852C150.875,45.66,144.215,48.148,135.999,48.148z"/>
		</g>
		<path fill="#EBDFD5" d="M128.561,2.778v38.425c0,1.535,3.33,2.779,7.438,2.779s7.438-1.244,7.438-2.779V2.778H128.561z"/>
		<ellipse fill="#CDB8AB" cx="135.999" cy="2.778" rx="7.438" ry="2.777"/>
		<path fill="#563F32" d="M135.999,13.107c-4.108,0-7.438-1.244-7.438-2.779v30.875c0,1.535,3.33,2.779,7.438,2.779
			s7.438-1.244,7.438-2.779V10.328C143.437,11.863,140.107,13.107,135.999,13.107z"/>
		<path fill="#CDB8AB" d="M143.437,17.369c-0.032,0.067-0.052,0.143-0.052,0.224c0,0.944-2.633,2.263-6.921,2.263
			c-0.285,0-0.517,0.231-0.517,0.516c0,0.283,0.231,0.514,0.517,0.514c2.048,0,3.979-0.3,5.44-0.846
			c0.621-0.232,1.135-0.503,1.532-0.803V17.369z"/>
		<path fill="#CDB8AB" d="M143.437,24.776c-0.032,0.067-0.052,0.144-0.052,0.224c0,0.945-2.633,2.264-6.921,2.264
			c-0.285,0-0.517,0.23-0.517,0.515c0,0.283,0.231,0.514,0.517,0.514c2.048,0,3.979-0.3,5.44-0.846
			c0.621-0.231,1.135-0.503,1.532-0.804V24.776z"/>
		<path fill="#CDB8AB" d="M143.437,32.184c-0.032,0.068-0.052,0.145-0.052,0.224c0,0.944-2.633,2.263-6.921,2.263
			c-0.285,0-0.517,0.231-0.517,0.516c0,0.283,0.231,0.514,0.517,0.514c2.048,0,3.979-0.3,5.44-0.846
			c0.621-0.232,1.135-0.503,1.532-0.803V32.184z"/>
		<g>
			<path fill="#563F32" d="M124.92,31.909V30.49c0.273,0.003,0.449-0.046,0.527-0.145c0.039-0.051,0.064-0.11,0.078-0.176
				s0.022-0.181,0.027-0.345c0.004-0.082,0.006-0.352,0.009-0.807c-0.003-0.624-0.007-0.986-0.013-1.085
				c-0.016-0.185-0.044-0.307-0.085-0.365c-0.06-0.083-0.192-0.124-0.398-0.124c-0.141,0-0.239,0.026-0.296,0.078
				c-0.079,0.07-0.121,0.238-0.127,0.503c0,0.184-0.016,0.566-0.049,1.148c-0.032,0.601-0.051,0.99-0.057,1.169
				c-0.016,0.465-0.078,0.792-0.188,0.982c-0.137,0.244-0.373,0.403-0.707,0.479c-0.184,0.042-0.425,0.063-0.723,0.063
				c-0.629,0-1.072-0.104-1.33-0.31c-0.194-0.155-0.323-0.39-0.385-0.704c-0.055-0.284-0.082-0.961-0.082-2.028
				c0-0.695,0.023-1.186,0.069-1.472c0.062-0.379,0.171-0.65,0.325-0.817c0.214-0.226,0.598-0.338,1.15-0.338
				c0.06,0,0.154,0.001,0.284,0.003v1.42c-0.133,0.004-0.225,0.013-0.276,0.024c-0.152,0.032-0.237,0.141-0.256,0.323
				c-0.017,0.162-0.024,0.557-0.024,1.184c0,0.62,0.021,0.987,0.061,1.103c0.05,0.129,0.175,0.193,0.378,0.193
				c0.195,0,0.314-0.068,0.358-0.204c0.035-0.115,0.069-0.633,0.101-1.553c0.027-0.834,0.062-1.365,0.102-1.596
				c0.041-0.232,0.102-0.417,0.184-0.555c0.081-0.137,0.196-0.247,0.346-0.329c0.22-0.124,0.572-0.187,1.061-0.187
				c0.545,0,0.944,0.062,1.199,0.184c0.252,0.122,0.424,0.321,0.516,0.599c0.093,0.272,0.139,1.022,0.139,2.25
				c0,0.746-0.023,1.285-0.069,1.616c-0.054,0.403-0.159,0.693-0.317,0.869c-0.168,0.19-0.404,0.303-0.711,0.338
				c-0.148,0.02-0.325,0.028-0.528,0.028H124.92z"/>
			<path fill="#563F32" d="M126.756,19.763l-0.938,0.412v3.18l0.938,0.412v1.673l-5.547-2.55v-2.274l5.547-2.515V19.763z
				 M124.602,20.688l-2.101,0.927v0.292l2.101,0.926V20.688z"/>
			<path fill="#563F32" d="M121.209,17.342v-1.539h4.133v-3.419h1.414v4.958H121.209z"/>
			<path fill="#563F32" d="M121.209,12.674V6.856h1.414v2.138h4.133v1.539h-4.133v2.141H121.209z"/>
		</g>
		<path fill="#CDB8AB" d="M143.437,9.962c-0.032,0.067-0.052,0.144-0.052,0.224c0,0.945-2.633,2.264-6.921,2.264
			c-0.285,0-0.517,0.229-0.517,0.514c0,0.284,0.231,0.515,0.517,0.515c2.048,0,3.979-0.302,5.44-0.847
			c0.621-0.23,1.135-0.502,1.532-0.803V9.962z"/>
	</g>
	<g>
		<g>
			<ellipse fill="#CDB8AB" cx="22.751" cy="42.593" rx="14.876" ry="5.556"/>
			<path fill="#563F32" d="M22.751,48.148c-8.215,0-14.876-2.488-14.876-5.556v1.852c0,3.067,6.661,5.556,14.876,5.556
				s14.876-2.488,14.876-5.556v-1.852C37.627,45.66,30.966,48.148,22.751,48.148z"/>
		</g>
		<path fill="#EBDFD5" d="M15.313,2.778v38.425c0,1.535,3.33,2.779,7.438,2.779s7.438-1.244,7.438-2.779V2.778H15.313z"/>
		<path fill="#563F32" d="M22.751,27.747c-4.108,0-7.438-1.244-7.438-2.778v16.234c0,1.535,3.33,2.779,7.438,2.779
			s7.438-1.244,7.438-2.779V24.969C30.189,26.503,26.859,27.747,22.751,27.747z"/>
		<ellipse fill="#CDB8AB" cx="22.751" cy="2.778" rx="7.438" ry="2.777"/>
		<path fill="#CDB8AB" d="M30.189,9.962c-0.033,0.067-0.052,0.144-0.052,0.224c0,0.945-2.633,2.264-6.921,2.264
			c-0.285,0-0.516,0.229-0.516,0.514c0,0.284,0.231,0.515,0.516,0.515c2.047,0,3.98-0.302,5.441-0.847
			c0.621-0.23,1.134-0.502,1.532-0.803V9.962z"/>
		<path fill="#CDB8AB" d="M30.189,17.369c-0.033,0.067-0.052,0.143-0.052,0.224c0,0.944-2.633,2.263-6.921,2.263
			c-0.285,0-0.516,0.231-0.516,0.516c0,0.283,0.231,0.514,0.516,0.514c2.047,0,3.98-0.3,5.441-0.846
			c0.621-0.232,1.134-0.503,1.532-0.803V17.369z"/>
		<path fill="#CDB8AB" d="M30.189,24.776c-0.033,0.067-0.052,0.144-0.052,0.224c0,0.945-2.633,2.264-6.921,2.264
			c-0.285,0-0.516,0.23-0.516,0.515c0,0.283,0.231,0.514,0.516,0.514c2.047,0,3.98-0.3,5.441-0.846
			c0.621-0.231,1.134-0.503,1.532-0.804V24.776z"/>
		<path fill="#CDB8AB" d="M30.189,32.184c-0.033,0.068-0.052,0.145-0.052,0.224c0,0.944-2.633,2.263-6.921,2.263
			c-0.285,0-0.516,0.231-0.516,0.516c0,0.283,0.231,0.514,0.516,0.514c2.047,0,3.98-0.3,5.441-0.846
			c0.621-0.232,1.134-0.503,1.532-0.803V32.184z"/>
		<g>
			<path fill="#563F32" d="M11.367,27.246v-1.465c0.271-0.009,0.457-0.014,0.557-0.014c0.404,0,0.728,0.056,0.972,0.166
				c0.254,0.114,0.432,0.334,0.533,0.658c0.11,0.354,0.166,0.967,0.166,1.838c0,0.96-0.018,1.607-0.053,1.94
				c-0.03,0.31-0.077,0.554-0.143,0.732c-0.064,0.179-0.16,0.326-0.284,0.443c-0.168,0.157-0.39,0.257-0.667,0.3
				c-0.29,0.047-0.848,0.07-1.675,0.07c-0.793,0-1.329-0.018-1.605-0.053c-0.415-0.052-0.715-0.191-0.903-0.42
				c-0.141-0.173-0.241-0.45-0.3-0.83c-0.06-0.395-0.09-1.103-0.09-2.124c0-0.607,0.015-1.041,0.045-1.299
				c0.043-0.39,0.13-0.674,0.26-0.853c0.16-0.221,0.392-0.36,0.695-0.419c0.217-0.042,0.467-0.063,0.752-0.063
				c0.049,0,0.156,0.002,0.321,0.004v1.465c-0.135,0.005-0.227,0.01-0.276,0.014c-0.165,0.02-0.269,0.084-0.313,0.193
				c-0.064,0.167-0.097,0.623-0.097,1.367c0,0.507,0.016,0.856,0.049,1.049c0.038,0.234,0.186,0.381,0.443,0.437
				c0.209,0.045,0.544,0.067,1.008,0.067c0.477,0,0.807-0.022,0.988-0.067c0.236-0.056,0.373-0.211,0.411-0.465
				c0.03-0.206,0.044-0.569,0.044-1.088c0-0.561-0.013-0.943-0.041-1.147c-0.024-0.193-0.104-0.314-0.24-0.366
				C11.81,27.274,11.624,27.251,11.367,27.246z"/>
			<path fill="#563F32" d="M13.508,19.501l-0.939,0.412v3.18l0.939,0.412v1.673l-5.548-2.55v-2.274l5.548-2.515V19.501z
				 M11.354,20.428l-2.102,0.926v0.292l2.102,0.927V20.428z"/>
			<path fill="#563F32" d="M7.96,17.08v-1.539h4.133v-3.419h1.415v4.958H7.96z"/>
			<path fill="#563F32" d="M11.671,11.416V9.997c0.274,0.002,0.45-0.046,0.528-0.145c0.038-0.052,0.064-0.11,0.077-0.176
				c0.014-0.066,0.023-0.181,0.028-0.346c0.003-0.082,0.006-0.351,0.008-0.806C12.311,7.9,12.307,7.539,12.301,7.44
				c-0.016-0.186-0.044-0.308-0.085-0.366c-0.059-0.082-0.192-0.123-0.398-0.123c-0.141,0-0.24,0.025-0.297,0.077
				c-0.078,0.07-0.12,0.238-0.125,0.504c0,0.183-0.017,0.565-0.049,1.147c-0.032,0.602-0.051,0.991-0.057,1.169
				c-0.016,0.465-0.079,0.793-0.187,0.982c-0.138,0.244-0.374,0.404-0.708,0.479c-0.184,0.042-0.425,0.063-0.724,0.063
				c-0.628,0-1.071-0.104-1.329-0.311c-0.195-0.154-0.324-0.39-0.386-0.704c-0.054-0.284-0.082-0.96-0.082-2.028
				c0-0.694,0.023-1.186,0.069-1.472c0.062-0.378,0.171-0.65,0.325-0.816C8.483,5.817,8.867,5.705,9.42,5.705
				c0.06,0,0.154,0.001,0.284,0.003v1.419C9.571,7.132,9.479,7.14,9.428,7.151C9.276,7.185,9.191,7.293,9.172,7.476
				C9.156,7.638,9.147,8.032,9.147,8.659c0,0.619,0.021,0.987,0.061,1.102c0.049,0.13,0.175,0.194,0.377,0.194
				c0.195,0,0.315-0.068,0.358-0.205c0.036-0.114,0.069-0.632,0.102-1.553c0.027-0.833,0.062-1.365,0.102-1.595
				c0.041-0.232,0.102-0.417,0.184-0.555c0.081-0.138,0.196-0.247,0.345-0.329c0.219-0.125,0.573-0.187,1.061-0.187
				c0.545,0,0.944,0.061,1.199,0.183c0.252,0.122,0.424,0.322,0.516,0.599c0.092,0.272,0.138,1.022,0.138,2.25
				c0,0.747-0.023,1.285-0.069,1.616c-0.054,0.404-0.16,0.694-0.316,0.87c-0.168,0.19-0.406,0.303-0.711,0.338
				c-0.149,0.019-0.325,0.028-0.529,0.028H11.671z"/>
		</g>
	</g>
	<g>
		<g>
			<ellipse fill="#CDB8AB" cx="60.5" cy="42.593" rx="14.876" ry="5.556"/>
			<path fill="#563F32" d="M60.5,48.148c-8.215,0-14.876-2.488-14.876-5.556v1.852C45.625,47.512,52.285,50,60.5,50
				s14.876-2.488,14.876-5.556v-1.852C75.376,45.66,68.716,48.148,60.5,48.148z"/>
		</g>
		<path fill="#EBDFD5" d="M53.063,2.778v38.425c0,1.535,3.33,2.779,7.438,2.779s7.438-1.244,7.438-2.779V2.778H53.063z"/>
		<ellipse fill="#CDB8AB" cx="60.5" cy="2.778" rx="7.438" ry="2.777"/>
		<path fill="#CDB8AB" d="M67.938,9.962c-0.033,0.067-0.051,0.144-0.051,0.224c0,0.945-2.633,2.264-6.921,2.264
			c-0.285,0-0.516,0.229-0.516,0.514c0,0.284,0.231,0.515,0.516,0.515c2.047,0,3.979-0.302,5.441-0.847
			c0.621-0.23,1.134-0.502,1.532-0.803V9.962z"/>
		<path fill="#CDB8AB" d="M67.938,17.369c-0.033,0.067-0.051,0.143-0.051,0.224c0,0.944-2.633,2.263-6.921,2.263
			c-0.285,0-0.516,0.231-0.516,0.516c0,0.283,0.231,0.514,0.516,0.514c2.047,0,3.979-0.3,5.441-0.846
			c0.621-0.232,1.134-0.503,1.532-0.803V17.369z"/>
		<path fill="#CDB8AB" d="M67.938,24.776c-0.033,0.067-0.051,0.144-0.051,0.224c0,0.945-2.633,2.264-6.921,2.264
			c-0.285,0-0.516,0.23-0.516,0.515c0,0.283,0.231,0.514,0.516,0.514c2.047,0,3.979-0.3,5.441-0.846
			c0.621-0.231,1.134-0.503,1.532-0.804V24.776z"/>
		<g>
			<path fill="#563F32" d="M49.421,37.824v-1.42c0.273,0.003,0.45-0.045,0.528-0.144c0.038-0.052,0.063-0.11,0.078-0.177
				c0.013-0.065,0.022-0.181,0.028-0.345c0.002-0.082,0.005-0.351,0.008-0.807c-0.002-0.624-0.007-0.985-0.012-1.084
				c-0.016-0.186-0.045-0.308-0.085-0.366c-0.059-0.082-0.192-0.123-0.398-0.123c-0.142,0-0.24,0.025-0.297,0.077
				c-0.079,0.07-0.121,0.238-0.126,0.503c0,0.184-0.016,0.566-0.048,1.148c-0.032,0.601-0.052,0.99-0.057,1.169
				c-0.016,0.465-0.078,0.792-0.187,0.982c-0.138,0.244-0.374,0.403-0.708,0.479c-0.185,0.043-0.425,0.063-0.723,0.063
				c-0.629,0-1.072-0.104-1.329-0.31c-0.195-0.155-0.324-0.39-0.387-0.704c-0.054-0.284-0.081-0.96-0.081-2.028
				c0-0.695,0.023-1.186,0.069-1.472c0.063-0.378,0.171-0.65,0.326-0.817c0.214-0.226,0.597-0.338,1.15-0.338
				c0.059,0,0.154,0.001,0.284,0.004v1.419c-0.133,0.005-0.225,0.013-0.276,0.024c-0.152,0.033-0.237,0.141-0.256,0.324
				c-0.016,0.162-0.025,0.556-0.025,1.183c0,0.62,0.021,0.987,0.061,1.103c0.049,0.129,0.175,0.193,0.378,0.193
				c0.195,0,0.314-0.067,0.357-0.204c0.035-0.115,0.069-0.633,0.102-1.553c0.027-0.833,0.061-1.365,0.102-1.596
				c0.04-0.232,0.102-0.417,0.182-0.554c0.082-0.138,0.197-0.247,0.346-0.329c0.22-0.125,0.573-0.188,1.061-0.188
				c0.545,0,0.944,0.062,1.199,0.184c0.252,0.122,0.425,0.321,0.516,0.599c0.092,0.272,0.138,1.022,0.138,2.25
				c0,0.746-0.023,1.285-0.069,1.616c-0.054,0.403-0.16,0.693-0.317,0.869c-0.168,0.19-0.405,0.304-0.711,0.339
				c-0.149,0.019-0.325,0.028-0.528,0.028H49.421z"/>
			<path fill="#563F32" d="M45.71,30.917v-1.465h2.548c0.585-0.008,0.956-0.025,1.109-0.054c0.263-0.047,0.417-0.206,0.464-0.479
				c0.043-0.249,0.065-0.625,0.065-1.13c0-0.521-0.018-0.888-0.053-1.099c-0.054-0.308-0.257-0.479-0.609-0.515
				c-0.285-0.028-0.61-0.042-0.976-0.042H45.71V24.67h2.548c0.889,0.017,1.47,0.041,1.744,0.074c0.46,0.059,0.801,0.251,1.02,0.577
				c0.16,0.242,0.258,0.647,0.292,1.219c0.017,0.263,0.024,0.674,0.024,1.232c0,0.823-0.027,1.409-0.081,1.757
				c-0.041,0.263-0.097,0.472-0.169,0.627c-0.071,0.154-0.174,0.286-0.307,0.395c-0.182,0.147-0.409,0.242-0.683,0.285
				c-0.312,0.047-0.688,0.071-1.13,0.073l-0.711,0.008H45.71z"/>
			<path fill="#563F32" d="M48.112,20.559V17.21c0.122-0.005,0.2-0.007,0.235-0.007c0.727,0,1.287,0.018,1.683,0.053
				c0.639,0.057,1.026,0.371,1.162,0.943c0.068,0.296,0.108,0.62,0.122,0.972c0.017,0.374,0.024,0.816,0.024,1.328
				c0,0.908-0.038,1.558-0.113,1.947c-0.103,0.54-0.391,0.874-0.862,1.003c-0.23,0.063-0.495,0.1-0.792,0.109
				c-0.374,0.012-0.772,0.018-1.195,0.018c-0.715,0-1.218-0.029-1.508-0.088c-0.403-0.085-0.688-0.23-0.854-0.437
				c-0.089-0.108-0.158-0.243-0.206-0.407c-0.047-0.163-0.085-0.394-0.116-0.691c-0.043-0.42-0.064-0.988-0.064-1.704
				c0-0.921,0.042-1.572,0.126-1.954c0.084-0.388,0.233-0.66,0.447-0.817c0.192-0.139,0.496-0.223,0.911-0.254
				c0.111-0.007,0.281-0.011,0.512-0.011v1.465c-0.151,0.003-0.254,0.01-0.309,0.021c-0.138,0.033-0.221,0.138-0.248,0.313
				c-0.035,0.232-0.053,0.69-0.053,1.373c0,0.608,0.024,1.029,0.07,1.265c0.046,0.223,0.187,0.357,0.423,0.404
				c0.178,0.038,0.497,0.057,0.955,0.057c0.525,0,0.884-0.02,1.077-0.06c0.257-0.052,0.401-0.212,0.43-0.479
				c0.014-0.131,0.026-0.527,0.037-1.189c-0.005-0.724-0.021-1.189-0.049-1.398c-0.035-0.189-0.131-0.299-0.288-0.327
				c-0.098-0.017-0.247-0.024-0.447-0.024v1.926H48.112z"/>
			<path fill="#563F32" d="M51.258,10.933l-0.939,0.412v3.18l0.939,0.412v1.673l-5.548-2.55v-2.274l5.548-2.514V10.933z
				 M49.104,11.859l-2.102,0.926v0.292l2.102,0.927V11.859z"/>
			<path fill="#563F32" d="M51.258,8.512H45.71V4.973c0.003-0.835,0.012-1.328,0.029-1.479c0.019-0.172,0.076-0.327,0.172-0.467
				s0.219-0.248,0.368-0.325c0.16-0.08,0.327-0.128,0.5-0.145c0.203-0.021,0.448-0.032,0.736-0.032c0.452,0,0.768,0.027,0.947,0.081
				c0.266,0.083,0.449,0.237,0.552,0.465c0.035,0.078,0.067,0.194,0.094,0.349c0.027-0.308,0.128-0.528,0.305-0.662
				c0.079-0.059,0.169-0.1,0.271-0.125c0.101-0.024,0.25-0.041,0.445-0.051c0.1-0.002,0.305-0.004,0.613-0.004h0.517v1.444h-0.297
				c-0.33,0-0.567,0.013-0.711,0.038c-0.205,0.038-0.327,0.133-0.366,0.285c-0.024,0.102-0.036,0.314-0.036,0.638v2.063h1.41V8.512z
				 M48.462,7.047v-2.06c-0.006-0.308-0.011-0.489-0.017-0.546c-0.014-0.207-0.086-0.337-0.22-0.391
				c-0.092-0.038-0.248-0.057-0.467-0.057c-0.19,0-0.331,0.017-0.423,0.049c-0.136,0.05-0.212,0.168-0.228,0.356
				c-0.005,0.065-0.009,0.263-0.012,0.591v2.057H48.462z"/>
		</g>
		<path fill="#563F32" d="M60.5,35.375c-4.108,0-7.438-1.244-7.438-2.778v8.606c0,1.535,3.33,2.779,7.438,2.779
			s7.438-1.244,7.438-2.779v-8.606C67.938,34.131,64.608,35.375,60.5,35.375z"/>
		<path fill="#CDB8AB" d="M67.938,32.184c-0.033,0.068-0.051,0.145-0.051,0.224c0,0.944-2.633,2.263-6.921,2.263
			c-0.285,0-0.516,0.231-0.516,0.516c0,0.283,0.231,0.514,0.516,0.514c2.047,0,3.979-0.3,5.441-0.846
			c0.621-0.232,1.134-0.503,1.532-0.803V32.184z"/>
	</g>
</g>
</svg>
