<?xml version="1.0" encoding="utf-8"?>
<!-- Generator: Adobe Illustrator 15.0.0, SVG Export Plug-In . SVG Version: 6.00 Build 0)  -->
<!DOCTYPE svg PUBLIC "-//W3C//DTD SVG 1.1//EN" "http://www.w3.org/Graphics/SVG/1.1/DTD/svg11.dtd">
<svg version="1.1" id="Layer_1" xmlns="http://www.w3.org/2000/svg" xmlns:xlink="http://www.w3.org/1999/xlink" x="0px" y="0px"
	 width="27.642px" height="26.768px" viewBox="0 0 27.642 26.768" enable-background="new 0 0 27.642 26.768" xml:space="preserve">
<rect x="0.563" y="10.269" fill-rule="evenodd" clip-rule="evenodd" fill="#CDB8AB" stroke="#553E31" stroke-miterlimit="10" width="15.999" height="15.999"/>
<g>
	<path fill-rule="evenodd" clip-rule="evenodd" fill="#553E31" d="M6.919,25.708c-0.06,0-0.121-0.009-0.18-0.026
		c-0.199-0.06-0.354-0.214-0.417-0.412c-0.692-2.215-2.041-5.04-2.784-6.526c-0.839-1.677-1.436-1.967-2.424-2.446l-0.139-0.067
		c-0.179-0.087-0.305-0.254-0.341-0.449c-0.036-0.196,0.024-0.396,0.16-0.541c1.537-1.628,2.786-2.454,3.713-2.454
		c1.413,0,2.205,0.87,2.85,1.811l0.06,0.087c0.334,0.488,0.353,0.519,0.638,1.125c0.124,0.262,0.303,0.644,0.595,1.241
		C16.044,5.411,24.983,0.882,25.37,0.69c0.088-0.043,0.183-0.065,0.276-0.065c0.184,0,0.363,0.081,0.485,0.229
		c0,0,0.238,0.291,0.769,1.033c0.193,0.271,0.141,0.645-0.119,0.852c-7.698,6.14-13.557,15.649-15.58,19.819
		c-0.041,0.085-0.101,0.158-0.174,0.217c-0.278,0.221-0.615,0.463-1.021,0.754c-0.698,0.5-1.566,1.121-2.692,2.038
		C7.201,25.659,7.062,25.708,6.919,25.708z"/>
	<path fill="#E4D7CD" d="M25.647,1.25c0,0,0.23,0.282,0.744,1.001c-8.748,6.978-14.521,17.496-15.752,20.035
		c-0.744,0.591-1.924,1.334-3.72,2.797c-0.641-2.053-1.847-4.669-2.822-6.619c-0.975-1.949-1.745-2.258-2.848-2.796
		c0.436-0.462,2.155-2.258,3.258-2.258c1.103,0,1.719,0.642,2.334,1.539c0.615,0.898,0.179,0.231,1.744,3.387
		C16.079,5.996,25.647,1.25,25.647,1.25 M25.646,0c-0.188,0-0.377,0.042-0.555,0.13c-0.383,0.189-8.998,4.553-16.36,15.646
		c-0.042-0.088-0.078-0.166-0.111-0.235c-0.3-0.637-0.333-0.693-0.688-1.211l-0.06-0.086C7.41,13.566,6.445,12.16,4.508,12.16
		c-0.412,0-1.666,0-4.167,2.65c-0.273,0.289-0.392,0.691-0.321,1.082c0.071,0.392,0.325,0.726,0.682,0.899l0.14,0.068
		c0.928,0.45,1.394,0.677,2.138,2.164c0.734,1.469,2.068,4.259,2.747,6.433c0.124,0.396,0.436,0.704,0.833,0.824
		c0.119,0.035,0.24,0.053,0.36,0.053c0.284,0,0.563-0.097,0.79-0.281c1.11-0.904,1.97-1.52,2.661-2.015
		c0.416-0.298,0.762-0.546,1.046-0.772c0.147-0.116,0.266-0.265,0.347-0.433c2.001-4.127,7.797-13.534,15.407-19.604
		c0.52-0.415,0.624-1.163,0.237-1.704c-0.521-0.73-0.767-1.033-0.793-1.065C26.372,0.161,26.013,0,25.646,0L25.646,0z"/>
</g>
</svg>
