<?xml version="1.0" encoding="utf-8"?>
<!-- Generator: Adobe Illustrator 16.0.0, SVG Export Plug-In . SVG Version: 6.00 Build 0)  -->
<!DOCTYPE svg PUBLIC "-//W3C//DTD SVG 1.1//EN" "http://www.w3.org/Graphics/SVG/1.1/DTD/svg11.dtd">
<svg version="1.1" id="Layer_1" xmlns="http://www.w3.org/2000/svg" xmlns:xlink="http://www.w3.org/1999/xlink" x="0px" y="0px"
	 width="125.209px" height="112.689px" viewBox="0 -10.345 125.209 112.689" enable-background="new 0 -10.345 125.209 112.689"
	 xml:space="preserve">
<path fill="#553E31" d="M80.97,96.771c0,0.875-0.906,1.229-0.906,1.229H45.771c0,0-0.928-0.089-0.928-1.184
	c0-1.094,0.928-1.232,0.928-1.232h2.338c0.154-7.417,5.729-13.488,12.928-14.424c-0.407-0.439-0.662-1.023-0.662-1.672
	c0-1.362,1.105-2.469,2.469-2.469c1.364,0,2.469,1.105,2.469,2.469c0,0.632-0.244,1.201-0.633,1.638
	c7.307,0.838,12.992,6.964,13.147,14.458h2.233C80.063,95.584,80.97,95.896,80.97,96.771z M52.521,95.584
	c-0.005-0.137-0.021-0.27-0.021-0.406c0-6.342,4.783-11.559,10.937-12.259c-0.156-0.006-0.31-0.022-0.467-0.022
	c-6.92,0-12.531,5.609-12.531,12.531c0,0.053,0.008,0.104,0.008,0.156H52.521z"/>
<path fill="#553E31" d="M125.209,96.771c0,0.875-0.905,1.229-0.905,1.229H90.011c0,0-0.927-0.089-0.927-1.184
	c0-1.094,0.927-1.232,0.927-1.232h2.34c0.153-7.417,5.729-13.488,12.928-14.424c-0.408-0.439-0.662-1.023-0.662-1.672
	c0-1.362,1.105-2.469,2.469-2.469c1.364,0,2.469,1.105,2.469,2.469c0,0.632-0.244,1.201-0.633,1.638
	c7.305,0.838,12.992,6.964,13.148,14.458h2.234C124.304,95.584,125.209,95.896,125.209,96.771z M96.761,95.584
	c-0.005-0.137-0.021-0.27-0.021-0.406c0-6.342,4.782-11.559,10.936-12.259c-0.155-0.006-0.309-0.022-0.467-0.022
	c-6.921,0-12.53,5.609-12.53,12.531c0,0.053,0.008,0.104,0.008,0.156H96.761z"/>
<path fill="#553E31" d="M36.125,96.771c0,0.875-0.906,1.229-0.906,1.229H0.928C0.928,98,0,97.911,0,96.816
	c0-1.094,0.928-1.232,0.928-1.232h2.338C3.42,88.167,8.994,82.096,16.193,81.16c-0.407-0.439-0.662-1.023-0.662-1.672
	c0-1.362,1.105-2.469,2.469-2.469s2.469,1.105,2.469,2.469c0,0.632-0.244,1.201-0.633,1.638c7.307,0.838,12.992,6.964,13.148,14.458
	h2.234C35.219,95.584,36.125,95.896,36.125,96.771z M7.678,95.584c-0.005-0.137-0.021-0.27-0.021-0.406
	c0-6.342,4.783-11.559,10.936-12.259c-0.156-0.006-0.309-0.022-0.467-0.022c-6.92,0-12.531,5.609-12.531,12.531
	c0,0.053,0.008,0.104,0.008,0.156H7.678z"/>
<path fill="#553E31" d="M108.125,62.725h-6.534v-2.012h6.534V62.725z M94.552,62.725h-7.039v-2.012h7.039V62.725z M80.474,62.725
	h-7.037v-2.012h7.037V62.725z M66.396,62.725h-7.039v-2.012h7.039V62.725z M52.319,62.725H45.28v-2.012h7.039V62.725z
	 M38.241,62.725h-7.039v-2.012h7.039V62.725z M24.164,62.725h-7.039v-2.012h7.039V62.725z"/>
<rect x="61.875" y="66" fill="#553E31" width="2" height="8"/>
<g>
	<path fill="#553E31" d="M68.119,42.695c0,1.625-1.685,2.284-1.685,2.284H2.721c0,0-1.721-0.165-1.721-2.197
		c0-2.032,1.721-2.292,1.721-2.292h4.346c0.287-13.78,10.644-25.059,24.019-26.799c-0.758-0.818-1.23-1.902-1.23-3.104
		C29.855,8.054,31.91,6,34.443,6c2.533,0,4.586,2.054,4.586,4.587c0,1.172-0.453,2.231-1.176,3.041
		c13.574,1.557,24.141,12.939,24.43,26.862h4.151C66.437,40.49,68.119,41.069,68.119,42.695z M15.263,40.49
		c-0.009-0.253-0.038-0.501-0.038-0.756c0-11.78,8.885-21.474,20.318-22.775c-0.291-0.011-0.574-0.043-0.867-0.043
		c-12.859,0-23.283,10.424-23.283,23.283c0,0.098,0.014,0.193,0.014,0.292h3.856V40.49z"/>
	<rect x="33.746" y="50" fill="#553E31" width="2" height="8"/>
</g>
<rect x="17.125" y="65.781" fill="#553E31" width="2" height="8"/>
<rect x="106.125" y="65.781" fill="#553E31" width="2" height="8"/>
</svg>
