<?xml version="1.0" encoding="utf-8"?>
<!-- Generator: Adobe Illustrator 16.0.0, SVG Export Plug-In . SVG Version: 6.00 Build 0)  -->
<!DOCTYPE svg PUBLIC "-//W3C//DTD SVG 1.1//EN" "http://www.w3.org/Graphics/SVG/1.1/DTD/svg11.dtd">
<svg version="1.1" id="Layer_1" xmlns="http://www.w3.org/2000/svg" xmlns:xlink="http://www.w3.org/1999/xlink" x="0px" y="0px"
	 width="29.752px" height="50px" viewBox="75.499 0 29.752 50" enable-background="new 75.499 0 29.752 50" xml:space="preserve">
<g>
	<ellipse fill="#CDB8AB" cx="90.375" cy="42.593" rx="14.875" ry="5.556"/>
	<path fill="#563F32" d="M90.375,48.148c-8.216,0-14.876-2.488-14.876-5.557v1.852c0,3.067,6.66,5.557,14.876,5.557
		c8.215,0,14.875-2.488,14.875-5.557v-1.852C105.25,45.66,98.59,48.148,90.375,48.148z"/>
</g>
<path fill="#EBDFD5" d="M82.938,2.778v38.425c0,1.535,3.33,2.779,7.438,2.779c4.106,0,7.438-1.244,7.438-2.779V2.778H82.938z"/>
<path fill="#563F32" d="M90.375,27.747c-4.107,0-7.438-1.244-7.438-2.778v16.234c0,1.535,3.328,2.779,7.438,2.779
	c4.107,0,7.438-1.244,7.438-2.779V24.969C97.813,26.503,94.482,27.747,90.375,27.747z"/>
<ellipse fill="#CDB8AB" cx="90.375" cy="2.778" rx="7.438" ry="2.777"/>
<path fill="#CDB8AB" d="M97.813,9.962c-0.033,0.067-0.051,0.144-0.051,0.224c0,0.945-2.634,2.264-6.922,2.264
	c-0.285,0-0.517,0.229-0.517,0.514c0,0.284,0.231,0.515,0.517,0.515c2.047,0,3.979-0.302,5.439-0.847
	c0.621-0.23,1.135-0.502,1.533-0.803V9.962L97.813,9.962z"/>
<path fill="#CDB8AB" d="M97.813,17.369c-0.033,0.067-0.051,0.143-0.051,0.224c0,0.944-2.634,2.263-6.922,2.263
	c-0.285,0-0.517,0.231-0.517,0.516c0,0.283,0.231,0.514,0.517,0.514c2.047,0,3.979-0.3,5.439-0.846
	c0.621-0.232,1.135-0.503,1.533-0.803V17.369L97.813,17.369z"/>
<path fill="#CDB8AB" d="M97.813,24.776c-0.033,0.067-0.051,0.144-0.051,0.224c0,0.945-2.634,2.264-6.922,2.264
	c-0.285,0-0.517,0.23-0.517,0.516c0,0.283,0.231,0.514,0.517,0.514c2.047,0,3.979-0.3,5.439-0.846
	c0.621-0.231,1.135-0.504,1.533-0.805V24.776L97.813,24.776z"/>
<path fill="#CDB8AB" d="M97.813,32.184c-0.033,0.068-0.051,0.146-0.051,0.225c0,0.943-2.634,2.263-6.922,2.263
	c-0.285,0-0.517,0.231-0.517,0.517c0,0.283,0.231,0.514,0.517,0.514c2.047,0,3.979-0.301,5.439-0.846
	c0.621-0.232,1.135-0.504,1.533-0.804V32.184L97.813,32.184z"/>
</svg>
