<?xml version="1.0" encoding="utf-8"?>
<!-- Generator: Adobe Illustrator 16.0.0, SVG Export Plug-In . SVG Version: 6.00 Build 0)  -->
<!DOCTYPE svg PUBLIC "-//W3C//DTD SVG 1.1//EN" "http://www.w3.org/Graphics/SVG/1.1/DTD/svg11.dtd">
<svg version="1.1" id="Layer_1" xmlns="http://www.w3.org/2000/svg" xmlns:xlink="http://www.w3.org/1999/xlink" x="0px" y="0px"
	 width="29.752px" height="50px" viewBox="75.499 0 29.752 50" enable-background="new 75.499 0 29.752 50" xml:space="preserve">
<g>
	<path fill="#553E31" d="M77.674,30.015v-4.831h1.015l2.349,2.949l-0.042-3.038h1.106v4.984h-1.035l-2.329-2.91l0.042,2.846H77.674z
		"/>
	<path fill="#553E31" d="M80.635,24.531v-1.188c0.219,0.002,0.359-0.038,0.422-0.121c0.03-0.043,0.051-0.093,0.062-0.147
		c0.012-0.055,0.019-0.151,0.023-0.289c0.002-0.069,0.004-0.294,0.006-0.675c-0.002-0.523-0.005-0.826-0.01-0.909
		c-0.013-0.155-0.035-0.257-0.067-0.307c-0.048-0.069-0.154-0.103-0.318-0.103c-0.112,0-0.191,0.021-0.236,0.065
		c-0.063,0.059-0.097,0.199-0.101,0.421c0,0.153-0.014,0.474-0.039,0.961c-0.026,0.503-0.041,0.83-0.046,0.979
		c-0.013,0.39-0.063,0.664-0.149,0.823c-0.11,0.204-0.298,0.338-0.564,0.401c-0.146,0.035-0.339,0.053-0.577,0.053
		c-0.502,0-0.855-0.087-1.061-0.26c-0.156-0.13-0.259-0.326-0.309-0.59c-0.043-0.238-0.064-0.804-0.064-1.699
		c0-0.582,0.019-0.993,0.055-1.232c0.05-0.316,0.137-0.544,0.26-0.684c0.171-0.189,0.477-0.283,0.918-0.283
		c0.048,0,0.123,0.001,0.228,0.003v1.188c-0.106,0.004-0.18,0.011-0.221,0.021c-0.121,0.028-0.189,0.118-0.205,0.271
		c-0.013,0.136-0.019,0.466-0.019,0.991c0,0.519,0.016,0.827,0.048,0.923c0.039,0.108,0.14,0.163,0.302,0.163
		c0.156,0,0.251-0.057,0.286-0.171c0.027-0.096,0.055-0.53,0.081-1.3c0.021-0.698,0.049-1.143,0.081-1.336
		c0.032-0.195,0.081-0.35,0.146-0.464c0.065-0.115,0.157-0.207,0.276-0.276c0.175-0.104,0.457-0.156,0.847-0.156
		c0.435,0,0.753,0.051,0.957,0.153c0.201,0.102,0.338,0.27,0.411,0.501c0.074,0.228,0.11,0.856,0.11,1.884
		c0,0.625-0.018,1.076-0.055,1.354c-0.043,0.338-0.128,0.581-0.253,0.729c-0.134,0.159-0.323,0.253-0.567,0.283
		c-0.119,0.016-0.26,0.023-0.422,0.023H80.635z"/>
	<path fill="#553E31" d="M75.594,17.461l0.902-0.604l0.95,1.54l-0.454,0.318L75.594,17.461z M77.674,18.876v-1.289h4.428v1.289
		H77.674z"/>
	<path fill="#553E31" d="M82.102,16.723h-4.428v-2.964c0.002-0.7,0.009-1.112,0.022-1.238c0.015-0.144,0.061-0.274,0.138-0.391
		c0.077-0.117,0.175-0.208,0.294-0.273c0.127-0.067,0.261-0.107,0.398-0.121c0.162-0.018,0.358-0.026,0.587-0.026
		c0.361,0,0.613,0.022,0.756,0.068c0.213,0.069,0.359,0.199,0.441,0.389c0.028,0.065,0.054,0.162,0.075,0.292
		c0.021-0.257,0.103-0.442,0.243-0.554c0.063-0.049,0.135-0.084,0.216-0.105s0.199-0.035,0.354-0.042
		c0.08-0.002,0.244-0.003,0.49-0.003h0.412v1.209h-0.237c-0.264,0-0.452,0.011-0.567,0.032c-0.164,0.032-0.262,0.111-0.292,0.239
		c-0.02,0.085-0.029,0.263-0.029,0.534v1.728h1.126V16.723z M79.869,15.496v-1.725c-0.004-0.258-0.008-0.41-0.013-0.458
		c-0.011-0.173-0.069-0.282-0.175-0.327c-0.073-0.031-0.198-0.047-0.373-0.047c-0.151,0-0.264,0.014-0.338,0.042
		c-0.107,0.042-0.168,0.141-0.182,0.298c-0.004,0.055-0.007,0.22-0.01,0.496v1.722H79.869z"/>
</g>
</svg>
