<?xml version="1.0" encoding="utf-8"?>
<!-- Generator: Adobe Illustrator 16.0.0, SVG Export Plug-In . SVG Version: 6.00 Build 0)  -->
<!DOCTYPE svg PUBLIC "-//W3C//DTD SVG 1.1//EN" "http://www.w3.org/Graphics/SVG/1.1/DTD/svg11.dtd">
<svg version="1.1" id="Layer_1" xmlns="http://www.w3.org/2000/svg" xmlns:xlink="http://www.w3.org/1999/xlink" x="0px" y="0px"
	 width="29.752px" height="50px" viewBox="37.749 55.67 29.752 50" enable-background="new 37.749 55.67 29.752 50"
	 xml:space="preserve">
<g>
	<path fill="#553E31" d="M41.61,93.203v-1.437c0.264,0.002,0.434-0.047,0.51-0.146c0.037-0.053,0.062-0.111,0.074-0.179
		c0.013-0.066,0.022-0.183,0.028-0.349c0.002-0.084,0.005-0.355,0.008-0.816c-0.003-0.633-0.007-0.998-0.012-1.099
		c-0.016-0.188-0.043-0.311-0.083-0.37c-0.058-0.084-0.186-0.125-0.384-0.125c-0.136,0-0.231,0.026-0.286,0.078
		c-0.076,0.071-0.117,0.241-0.122,0.51c0,0.186-0.016,0.573-0.047,1.162c-0.031,0.608-0.049,1.003-0.055,1.184
		c-0.016,0.471-0.076,0.803-0.181,0.995c-0.133,0.247-0.361,0.408-0.682,0.484c-0.178,0.043-0.411,0.064-0.698,0.064
		c-0.606,0-1.034-0.104-1.282-0.313c-0.188-0.157-0.313-0.395-0.373-0.713c-0.052-0.288-0.079-0.973-0.079-2.054
		c0-0.703,0.022-1.2,0.067-1.49c0.06-0.383,0.165-0.658,0.313-0.827c0.207-0.229,0.577-0.342,1.11-0.342
		c0.058,0,0.149,0.001,0.274,0.003v1.437c-0.128,0.005-0.217,0.014-0.267,0.025c-0.146,0.033-0.229,0.143-0.247,0.328
		c-0.016,0.164-0.023,0.563-0.023,1.197c0,0.628,0.02,1,0.059,1.116c0.047,0.131,0.168,0.196,0.364,0.196
		c0.188,0,0.304-0.069,0.345-0.207c0.034-0.116,0.067-0.641,0.098-1.572c0.026-0.844,0.059-1.382,0.098-1.615
		c0.039-0.234,0.098-0.422,0.176-0.561c0.079-0.14,0.19-0.251,0.333-0.334c0.212-0.126,0.553-0.188,1.023-0.188
		c0.525,0,0.911,0.062,1.157,0.186c0.243,0.123,0.409,0.325,0.498,0.605c0.089,0.275,0.133,1.035,0.133,2.278
		c0,0.756-0.022,1.301-0.067,1.636c-0.052,0.409-0.154,0.703-0.306,0.881c-0.162,0.192-0.391,0.307-0.687,0.343
		c-0.144,0.019-0.313,0.028-0.51,0.028H41.61z"/>
	<path fill="#553E31" d="M38.029,86.392v-1.483h2.459c0.564-0.007,0.921-0.024,1.07-0.053c0.254-0.048,0.403-0.209,0.447-0.485
		c0.042-0.252,0.063-0.633,0.063-1.145c0-0.527-0.017-0.898-0.051-1.112c-0.052-0.311-0.249-0.484-0.588-0.521
		c-0.274-0.028-0.588-0.042-0.941-0.042h-2.459v-1.483h2.459c0.857,0.017,1.418,0.042,1.682,0.075
		c0.445,0.059,0.772,0.254,0.984,0.584c0.154,0.245,0.249,0.656,0.282,1.233c0.016,0.267,0.024,0.683,0.024,1.248
		c0,0.834-0.026,1.428-0.079,1.779c-0.039,0.266-0.093,0.478-0.163,0.635c-0.069,0.156-0.168,0.29-0.296,0.398
		c-0.175,0.15-0.395,0.246-0.659,0.289c-0.301,0.048-0.664,0.072-1.09,0.075l-0.686,0.007H38.029z"/>
	<path fill="#553E31" d="M40.347,76.088v-3.391c0.117-0.005,0.193-0.007,0.227-0.007c0.701,0,1.242,0.018,1.624,0.054
		c0.617,0.057,0.991,0.375,1.122,0.955c0.065,0.299,0.105,0.627,0.118,0.984c0.016,0.377,0.024,0.825,0.024,1.344
		c0,0.92-0.037,1.576-0.11,1.971c-0.1,0.547-0.376,0.886-0.832,1.017c-0.222,0.063-0.477,0.101-0.765,0.11
		c-0.361,0.012-0.745,0.018-1.153,0.018c-0.69,0-1.175-0.029-1.455-0.089c-0.39-0.085-0.664-0.233-0.824-0.442
		c-0.086-0.109-0.152-0.246-0.198-0.412c-0.046-0.164-0.083-0.398-0.112-0.699c-0.042-0.426-0.063-1.001-0.063-1.727
		c0-0.932,0.041-1.591,0.122-1.979c0.081-0.392,0.225-0.668,0.432-0.826c0.186-0.141,0.478-0.227,0.878-0.258
		c0.107-0.006,0.272-0.01,0.494-0.01v1.482c-0.146,0.003-0.246,0.01-0.298,0.021c-0.133,0.033-0.213,0.139-0.239,0.317
		c-0.034,0.235-0.051,0.698-0.051,1.391c0,0.615,0.022,1.042,0.066,1.28c0.045,0.225,0.181,0.361,0.408,0.409
		c0.172,0.038,0.479,0.058,0.921,0.058c0.507,0,0.854-0.021,1.04-0.061c0.248-0.053,0.387-0.215,0.416-0.485
		c0.013-0.133,0.025-0.534,0.035-1.205c-0.005-0.731-0.021-1.204-0.047-1.415c-0.034-0.192-0.127-0.303-0.278-0.332
		c-0.094-0.016-0.238-0.024-0.432-0.024v1.95H40.347z"/>
	<path fill="#553E31" d="M43.382,66.525l-0.906,0.416v3.22l0.906,0.417v1.693l-5.353-2.581v-2.303l5.353-2.546V66.525z
		 M41.304,67.463L39.276,68.4v0.295l2.027,0.938V67.463z"/>
	<path fill="#553E31" d="M43.382,64.256h-5.353v-3.582c0.002-0.846,0.012-1.346,0.027-1.498c0.019-0.173,0.074-0.33,0.167-0.472
		s0.211-0.251,0.355-0.33c0.154-0.081,0.315-0.13,0.482-0.146c0.196-0.021,0.433-0.033,0.71-0.033c0.437,0,0.741,0.027,0.914,0.082
		c0.256,0.084,0.434,0.24,0.534,0.471c0.034,0.079,0.064,0.196,0.09,0.354c0.026-0.312,0.125-0.535,0.294-0.67
		c0.076-0.06,0.163-0.102,0.261-0.127s0.241-0.042,0.429-0.052c0.097-0.003,0.294-0.003,0.592-0.003h0.498v1.461h-0.286
		c-0.319,0-0.548,0.014-0.687,0.039c-0.199,0.038-0.316,0.135-0.353,0.289c-0.023,0.102-0.035,0.317-0.035,0.645v2.09h1.361V64.256z
		 M40.684,62.773v-2.086c-0.005-0.311-0.01-0.495-0.016-0.553c-0.013-0.209-0.083-0.34-0.212-0.395
		c-0.089-0.039-0.239-0.058-0.451-0.058c-0.183,0-0.319,0.017-0.408,0.05c-0.13,0.05-0.204,0.17-0.219,0.359
		c-0.005,0.067-0.009,0.268-0.012,0.6v2.082H40.684z"/>
</g>
</svg>
