<?xml version="1.0" encoding="utf-8"?>
<!-- Generator: Adobe Illustrator 16.0.0, SVG Export Plug-In . SVG Version: 6.00 Build 0)  -->
<!DOCTYPE svg PUBLIC "-//W3C//DTD SVG 1.1//EN" "http://www.w3.org/Graphics/SVG/1.1/DTD/svg11.dtd">
<svg version="1.1" id="Layer_1" xmlns="http://www.w3.org/2000/svg" xmlns:xlink="http://www.w3.org/1999/xlink" x="0px" y="0px"
	 width="29.752px" height="50px" viewBox="0 0 29.752 50" enable-background="new 0 0 29.752 50" xml:space="preserve">
<g>
	<path fill="#553E31" d="M2.176,28.919v-1.227h1.605v-0.672l-1.635-1.593v-1.875l2.202,2.327l2.255-2.524v1.864l-1.693,1.802v0.672
		h1.693v1.227H2.176z"/>
	<path fill="#553E31" d="M5.342,20.189v-1.088c0.24,0.008,0.429,0.03,0.567,0.065c0.151,0.038,0.284,0.107,0.399,0.209
		c0.114,0.102,0.196,0.224,0.246,0.366c0.061,0.181,0.098,0.381,0.11,0.602c0.013,0.24,0.02,0.5,0.02,0.778
		c0,0.527-0.037,0.917-0.11,1.168c-0.084,0.297-0.249,0.495-0.493,0.593c-0.212,0.086-0.569,0.13-1.073,0.13
		c-0.468,0-0.806-0.043-1.016-0.13C3.74,22.777,3.572,22.583,3.49,22.3c-0.073-0.257-0.11-0.671-0.11-1.241
		c0-0.588,0.043-1.02,0.13-1.295c0.086-0.283,0.257-0.471,0.513-0.563c0.164-0.059,0.403-0.094,0.717-0.104v1.088
		C4.596,20.2,4.495,20.24,4.434,20.307c-0.113,0.122-0.169,0.374-0.169,0.755c0,0.316,0.032,0.538,0.098,0.664
		c0.045,0.083,0.123,0.14,0.233,0.174c0.105,0.029,0.257,0.044,0.454,0.044c0.235,0,0.401-0.024,0.496-0.073
		c0.106-0.055,0.178-0.174,0.214-0.357c0.026-0.124,0.039-0.279,0.039-0.466c0-0.387-0.054-0.635-0.162-0.743
		C5.577,20.245,5.478,20.207,5.342,20.189z"/>
	<path fill="#553E31" d="M4.447,17.318v1.064c-0.244-0.014-0.43-0.061-0.555-0.141c-0.188-0.12-0.315-0.284-0.383-0.493
		c-0.089-0.275-0.133-0.756-0.133-1.442c0-0.531,0.027-0.89,0.084-1.077c0.05-0.171,0.163-0.313,0.341-0.425
		c0.169-0.108,0.473-0.162,0.911-0.162h1.892v1.026H6.176v0.05c0.182,0.079,0.313,0.203,0.396,0.375
		c0.05,0.102,0.082,0.248,0.097,0.437c0.011,0.149,0.017,0.392,0.017,0.728c0,0.374-0.034,0.64-0.104,0.799
		c-0.085,0.191-0.223,0.317-0.415,0.38c-0.124,0.04-0.276,0.059-0.458,0.059c-0.365,0-0.629-0.082-0.791-0.245
		c-0.176-0.179-0.272-0.462-0.292-0.85c-0.011-0.226-0.017-0.515-0.017-0.867c0-0.252,0.023-0.438,0.071-0.558
		c0.032-0.077,0.091-0.15,0.175-0.221v-0.047H4.69c-0.212,0-0.351,0.027-0.415,0.083c-0.071,0.059-0.116,0.168-0.133,0.327
		c-0.007,0.063-0.01,0.165-0.01,0.307c0,0.427,0.021,0.681,0.064,0.764C4.232,17.26,4.315,17.303,4.447,17.318z M5.277,16.605
		c0,0.359,0.024,0.583,0.071,0.669c0.057,0.104,0.145,0.156,0.263,0.156c0.141,0,0.231-0.067,0.273-0.201
		c0.032-0.106,0.048-0.286,0.048-0.54c0-0.331-0.018-0.566-0.055-0.708c-0.043-0.167-0.144-0.25-0.302-0.25
		c-0.125,0-0.212,0.058-0.26,0.174C5.291,15.967,5.277,16.2,5.277,16.605z"/>
	<path fill="#553E31" d="M2.176,13.878v-1.068h4.428v1.068H2.176z"/>
</g>
</svg>
