<?xml version="1.0" encoding="utf-8"?>
<!-- Generator: Adobe Illustrator 16.0.0, SVG Export Plug-In . SVG Version: 6.00 Build 0)  -->
<!DOCTYPE svg PUBLIC "-//W3C//DTD SVG 1.1//EN" "http://www.w3.org/Graphics/SVG/1.1/DTD/svg11.dtd">
<svg version="1.1" id="Layer_1" xmlns="http://www.w3.org/2000/svg" xmlns:xlink="http://www.w3.org/1999/xlink" x="0px" y="0px"
	 width="32px" height="32px" viewBox="0 0 32 32" enable-background="new 0 0 32 32" xml:space="preserve">
<g>
	<path fill="#EBE0D5" d="M26.24,31.547c-0.162,0-0.353-0.003-0.579-0.011c-1.306-0.044-1.801-0.771-2.373-1.611
		c-0.175-0.256-0.368-0.54-0.609-0.841c-0.455-0.569-1.089-1.581-1.822-2.753c-0.303-0.485-0.625-0.999-0.958-1.521
		c-0.601-0.939-1.512-2.265-2.392-3.547c-0.815-1.187-1.612-2.346-2.139-3.163c-1.107-1.718-3.381-4.342-3.813-4.789
		c-0.172-0.178-0.369-0.248-0.704-0.248c-0.152,0-0.306,0.013-0.457,0.026l-0.144,0.012c-0.365,0.028-0.863,0.063-1.316,0.063
		c-0.383,0-0.678-0.024-0.904-0.075c-0.608-0.137-1.16-0.538-1.79-1.3c-0.446-0.541-0.693-1.223-0.979-2.014
		C5.164,9.508,5.06,9.221,4.94,8.918C4.402,7.554,3.39,2.561,3.38,2.511C3.302,2.124,3.356,1.792,3.533,1.576
		c0.104-0.127,0.334-0.241,0.498-0.241c0.148,0,0.381,0.052,0.574,0.322c0.011-0.197,0.065-0.354,0.165-0.478
		C4.875,1.049,5.084,0.947,5.25,0.947c0.177,0,0.332,0.066,0.466,0.198C5.739,1.044,5.78,0.957,5.837,0.883
		c0.104-0.134,0.306-0.235,0.476-0.235c0.298,0,0.499,0.205,0.632,0.416C6.959,0.94,6.998,0.816,7.078,0.706
		c0.104-0.141,0.32-0.253,0.495-0.253c0.474,0,0.695,0.495,0.778,0.681c0.268,0.597,2.46,5.042,3.262,6.634
		c0.553,1.097,1.336,2.167,1.757,2.742c0.177,0.242,0.299,0.413,0.34,0.488c0.269,0.484-0.064,0.899-0.248,1.096
		c0.105,0.124,0.271,0.296,0.424,0.454c0.456,0.471,1.612,1.958,2.731,3.396c0.418,0.537,0.811,1.042,1.117,1.43
		c1.08,1.371,5.918,6.959,7.509,8.537c1.019,1.011,3.02,3.072,3.306,3.639c0.298,0.59-0.027,1.243-0.83,1.663l-0.096,0.053
		C27.269,31.462,27.03,31.547,26.24,31.547z"/>
	<path fill="#553E31" d="M7.573,1C7.64,1,7.738,1.102,7.853,1.357c0.274,0.613,2.494,5.111,3.272,6.656s1.968,2.998,2.105,3.248
		c0.139,0.25-0.229,0.478-0.366,0.682s0.16,0.499,0.687,1.045c0.527,0.545,2.678,3.362,3.754,4.725
		c1.074,1.363,5.949,6.996,7.553,8.587c1.602,1.59,3.02,3.134,3.203,3.497s-0.206,0.728-0.596,0.932
		C27.138,30.901,27.069,31,26.24,31c-0.157,0-0.342-0.004-0.561-0.011c-1.373-0.046-1.572-0.999-2.574-2.248
		c-0.617-0.771-1.613-2.453-2.746-4.226c-1.16-1.814-3.434-5.009-4.531-6.712c-1.099-1.704-3.375-4.351-3.879-4.872
		c-0.325-0.337-0.708-0.415-1.098-0.415c-0.215,0-0.432,0.023-0.643,0.04c-0.354,0.027-0.836,0.062-1.274,0.062
		c-0.301,0-0.58-0.016-0.785-0.062c-0.503-0.113-0.961-0.478-1.487-1.114c-0.525-0.637-0.755-1.566-1.213-2.726
		C4.992,7.559,4.111,3.378,3.916,2.403C3.853,2.086,3.924,1.882,4.031,1.882c0.085,0,0.192,0.128,0.273,0.43
		c0.184,0.683,2.221,6.02,2.586,6.769c0.14,0.284,0.316,0.41,0.441,0.41c0.15,0,0.228-0.178,0.085-0.479
		c-0.709-1.498-2.06-6.2-2.22-6.927C5.111,1.694,5.157,1.494,5.25,1.494c0.08,0,0.195,0.15,0.291,0.456
		c0.205,0.66,2.356,6.2,2.608,6.928c0.079,0.228,0.259,0.333,0.417,0.333c0.221,0,0.398-0.204,0.201-0.561
		C7.875,7.037,6.456,2.38,6.296,1.767C6.204,1.418,6.224,1.195,6.313,1.195c0.067,0,0.176,0.13,0.305,0.435
		c0.297,0.704,2.448,5.952,2.837,6.838c0.127,0.289,0.278,0.41,0.397,0.41c0.188,0,0.293-0.305,0.083-0.729
		c-0.823-1.657-2.266-6.27-2.403-6.7C7.451,1.198,7.48,1,7.573,1 M7.573-0.094L7.573-0.094c-0.287,0-0.563,0.109-0.775,0.299
		C6.658,0.14,6.497,0.1,6.313,0.1l0,0c-0.286,0-0.588,0.128-0.8,0.329C5.416,0.407,5.326,0.399,5.25,0.399l0,0
		c-0.351,0-0.679,0.157-0.901,0.432C4.223,0.796,4.111,0.788,4.031,0.788c-0.356,0-0.692,0.161-0.922,0.441
		c-0.282,0.345-0.377,0.839-0.267,1.39c0.011,0.049,1.023,5.068,1.589,6.5c0.117,0.298,0.219,0.58,0.315,0.845
		c0.303,0.838,0.564,1.562,1.071,2.176c0.479,0.581,1.15,1.273,2.091,1.485c0.268,0.06,0.603,0.088,1.025,0.088
		c0.454,0,0.941-0.033,1.358-0.065l0.147-0.012c0.137-0.011,0.274-0.024,0.411-0.024c0.232,0,0.272,0.041,0.31,0.08
		c0.518,0.535,2.729,3.127,3.747,4.705c0.533,0.827,1.317,1.969,2.147,3.178c0.878,1.277,1.786,2.599,2.382,3.531
		c0.332,0.52,0.653,1.032,0.955,1.516c0.743,1.187,1.384,2.211,1.858,2.804c0.226,0.281,0.408,0.549,0.585,0.809
		c0.573,0.842,1.224,1.797,2.808,1.85c0.232,0.008,0.43,0.012,0.597,0.012c0.873,0,1.2-0.104,1.647-0.351l0.088-0.048
		c1.056-0.553,1.494-1.538,1.062-2.393c-0.382-0.757-2.906-3.282-3.408-3.78c-1.541-1.528-6.418-7.16-7.465-8.488
		c-0.306-0.387-0.698-0.892-1.115-1.427c-1.343-1.727-2.323-2.979-2.712-3.381l-0.058-0.06c-0.036-0.037-0.074-0.077-0.112-0.116
		c0.305-0.544,0.196-1.004,0.021-1.32c-0.066-0.12-0.157-0.246-0.376-0.544c-0.411-0.562-1.177-1.609-1.709-2.665
		c-0.78-1.548-2.993-6.034-3.251-6.611C8.553,0.244,8.123-0.094,7.573-0.094L7.573-0.094z"/>
</g>
</svg>
