<?xml version="1.0" encoding="utf-8"?>
<!-- Generator: Adobe Illustrator 16.0.0, SVG Export Plug-In . SVG Version: 6.00 Build 0)  -->
<!DOCTYPE svg PUBLIC "-//W3C//DTD SVG 1.1//EN" "http://www.w3.org/Graphics/SVG/1.1/DTD/svg11.dtd">
<svg version="1.1" id="Layer_1" xmlns="http://www.w3.org/2000/svg" xmlns:xlink="http://www.w3.org/1999/xlink" x="0px" y="0px"
	 width="32px" height="32px" viewBox="0 0 32 32" enable-background="new 0 0 32 32" xml:space="preserve">
<g>
	<defs>
		<path id="XMLID_1_" d="M11.066,12.276c1.06,1.051,4.397,4.673,6.125,7.009c1.728,2.337,5.143,6.679,6.281,8.354
			s2.553,3.446,4.28,3.758s2.412-0.139,2.865-0.545c0.609-0.545,0.569-1.83,0.334-2.298c-0.235-0.467-2.729-2.804-5.673-5.49
			c-2.945-2.688-9.188-9.113-10.091-10.203c-0.059-0.818-0.196-0.604,0.118-0.856c0.314-0.254,0.824-0.585,0.373-1.149
			c-0.452-0.564-4.81-4.926-7.558-6.971C5.373,1.84,4.333,1.217,3.194,0.827s-1.649-0.39-1.963-0.215
			c-0.314,0.176-0.472,0.39-0.216,0.74C1.016,1.353,10.006,11.225,11.066,12.276z"/>
	</defs>
	<use xlink:href="#XMLID_1_"  overflow="visible" fill="#EBE0D5"/>
	<clipPath id="XMLID_3_">
		<use xlink:href="#XMLID_1_"  overflow="visible"/>
	</clipPath>
	<polygon clip-path="url(#XMLID_3_)" fill="#EBE0D5" stroke="#553E31" stroke-width="1.2512" stroke-miterlimit="10" points="
		15.404,12.133 11.184,13.612 15.738,13.184 	"/>
	<path clip-path="url(#XMLID_3_)" fill="#553E31" d="M11.42,12.977c0,0,2.159,1.052,3.553,2.688s2.849,3.438,4.417,5.315
		c1.609,1.928,3.526,4.347,4.319,5.452c0.824,1.148,2.002,2.843,2.865,3.135c0.864,0.292,1.728,0.429,2.493,0.37
		s1.119-0.195,1.414-0.643c0.294-0.448,0.313-1.032-0.02-1.558c-0.334-0.526,0.274-0.448,0.274-0.448l1.473,1.344l-0.629,2.629
		c0,0-2.12,0.369-2.1,0.428c0.02,0.059-2.258,0.137-2.258,0.137l-9.737-10.709L11.42,12.977z"/>
	<use xlink:href="#XMLID_1_"  overflow="visible" fill="none" stroke="#553E31" stroke-width="1.2512" stroke-miterlimit="10"/>
</g>
</svg>
