<?xml version="1.0" encoding="utf-8"?>
<!-- Generator: Adobe Illustrator 16.0.0, SVG Export Plug-In . SVG Version: 6.00 Build 0)  -->
<!DOCTYPE svg PUBLIC "-//W3C//DTD SVG 1.1//EN" "http://www.w3.org/Graphics/SVG/1.1/DTD/svg11.dtd">
<svg version="1.1" id="Layer_1" xmlns="http://www.w3.org/2000/svg" xmlns:xlink="http://www.w3.org/1999/xlink" x="0px" y="0px"
	 width="32px" height="32px" viewBox="0 0 32 32" enable-background="new 0 0 32 32" xml:space="preserve">
<g>
	<path fill="#EBE0D5" stroke="#553E31" stroke-width="1.042" stroke-miterlimit="10" d="M14.088,12.011c0,0,1.229-1.771,1.172-3.238
		c-0.058-1.459-1.038-3.758-2.132-5.063c-1.33-1.584-2.65-2.855-4.148-3.123c-1.498-0.27-3.264,0.076-4.032,1.15
		c-0.813,1.133-0.998,3.066-0.5,4.6C5.075,8.263,5.823,9.835,7.193,10.9c1.037,0.805,2.478,1.688,3.438,1.688
		c0.959,0,1.497-0.154,1.958,0.344c0.461,0.5,3.343,5.198,4.264,6.788c1.421,2.453,3.533,6.518,4.455,8.088
		c0.738,1.26,1.306,2.762,2.15,3.26s1.536,0.537,2.573,0.27c1.037-0.27,1.651-0.422,1.767-0.92c0.115-0.5-0.115-0.807-0.614-1.381
		c-0.5-0.574-5.3-6.402-6.684-8.359C19.119,18.721,14.663,12.892,14.088,12.011z"/>
	<path fill="#553E31" d="M8.598,2.89c0.9,0.498,1.622,1.184,2.305,2.338s1.108,2.477,1.051,3.322
		c-0.056,0.846,1.195,1.52,1.424,0.535c0.228-0.986-0.059-2.703-0.825-3.746c-0.769-1.041-2.162-2.506-3.47-2.871
		C8.483,2.3,7.888,2.496,8.598,2.89z"/>
</g>
</svg>
