<?xml version="1.0" encoding="utf-8"?>
<!-- Generator: Adobe Illustrator 16.0.0, SVG Export Plug-In . SVG Version: 6.00 Build 0)  -->
<!DOCTYPE svg PUBLIC "-//W3C//DTD SVG 1.1//EN" "http://www.w3.org/Graphics/SVG/1.1/DTD/svg11.dtd">
<svg version="1.1" id="Layer_2" xmlns="http://www.w3.org/2000/svg" xmlns:xlink="http://www.w3.org/1999/xlink" x="0px" y="0px"
	 width="32px" height="32px" viewBox="0 0 32 32" enable-background="new 0 0 32 32" display="none" xml:space="preserve">
<g display="inline">
	
		<path fill="#EBE0D5" stroke="#553E31" stroke-width="1.8774" stroke-linecap="round" stroke-linejoin="round" stroke-miterlimit="10" d="
		M6.03,5.891v20.113c0,2.778,4.464,5.029,9.97,5.029s9.97-2.251,9.97-5.029V5.891H6.03z"/>
	<ellipse fill="#EBE0D5" stroke="#553E31" stroke-width="1.8774" stroke-miterlimit="10" cx="16" cy="5.996" rx="9.97" ry="5.027"/>
	<path fill="none" stroke="#553E31" stroke-width="1.8774" stroke-miterlimit="10" d="M25.97,10.552c0,2.777-4.464,4.38-9.97,4.38
		s-9.97-1.603-9.97-4.38"/>
	<ellipse fill="#553E31" cx="13.265" cy="3.725" rx="1.519" ry="0.891"/>
	<ellipse fill="#553E31" cx="20.807" cy="4.428" rx="1.52" ry="0.891"/>
	<ellipse fill="#553E31" cx="10.83" cy="7.033" rx="1.52" ry="0.892"/>
	<ellipse fill="#553E31" cx="16.125" cy="5.709" rx="1.52" ry="0.892"/>
	<ellipse fill="#553E31" cx="19.526" cy="7.763" rx="1.519" ry="0.891"/>
	<g>
		<path fill="#553E31" d="M10.734,27.317v-9.271h6.295c1.248,0,2.052,0.024,2.411,0.075c0.987,0.131,1.643,0.486,1.965,1.066
			c0.243,0.434,0.364,1.21,0.364,2.329c0,1.146-0.133,1.948-0.397,2.411c-0.251,0.434-0.666,0.735-1.245,0.902
			c-0.427,0.123-0.999,0.193-1.717,0.211c-0.323,0.004-0.774,0.007-1.354,0.007h-3.521v2.269H10.734z M13.535,22.733h3.502
			c0.568-0.005,0.912-0.012,1.029-0.021c0.412-0.028,0.676-0.161,0.787-0.401c0.072-0.148,0.108-0.417,0.108-0.801
			c0-0.362-0.041-0.616-0.121-0.761c-0.121-0.218-0.375-0.337-0.761-0.36c-0.121-0.009-0.47-0.018-1.043-0.027h-3.502V22.733z"/>
	</g>
</g>
</svg>
