<?xml version="1.0" encoding="utf-8"?>
<!-- Generator: Adobe Illustrator 16.0.0, SVG Export Plug-In . SVG Version: 6.00 Build 0)  -->
<!DOCTYPE svg PUBLIC "-//W3C//DTD SVG 1.1//EN" "http://www.w3.org/Graphics/SVG/1.1/DTD/svg11.dtd">
<svg version="1.1" id="Layer_2" xmlns="http://www.w3.org/2000/svg" xmlns:xlink="http://www.w3.org/1999/xlink" x="0px" y="0px"
	 width="32px" height="32px" viewBox="0 0 32 32" enable-background="new 0 0 32 32" display="none" xml:space="preserve">
<g display="inline">
	
		<path fill="#EBE0D5" stroke="#553E31" stroke-width="1.8842" stroke-linecap="round" stroke-linejoin="round" stroke-miterlimit="10" d="
		M5.978,5.87v20.154c0,2.783,4.487,5.039,10.022,5.039s10.022-2.256,10.022-5.039V5.87H5.978z"/>
	
		<ellipse fill="#EBE0D5" stroke="#553E31" stroke-width="1.8842" stroke-miterlimit="10" cx="16" cy="5.976" rx="10.022" ry="5.037"/>
	<ellipse fill="#553E31" cx="12.729" cy="4.292" rx="1.527" ry="0.893"/>
	<ellipse fill="#553E31" cx="19.892" cy="4.66" rx="1.528" ry="0.894"/>
	<ellipse fill="#553E31" cx="15.796" cy="7.45" rx="1.527" ry="0.894"/>
	<g>
		<path fill="#553E31" d="M10.384,24.264h2.727c-0.004,0.458,0.089,0.753,0.278,0.885c0.099,0.063,0.212,0.106,0.338,0.129
			c0.127,0.022,0.348,0.039,0.663,0.048c0.158,0.004,0.675,0.009,1.551,0.014c1.199-0.005,1.894-0.012,2.084-0.021
			c0.356-0.027,0.59-0.074,0.703-0.144c0.158-0.099,0.236-0.322,0.236-0.666c0-0.236-0.049-0.402-0.147-0.497
			c-0.136-0.132-0.458-0.201-0.968-0.211c-0.353,0-1.088-0.027-2.207-0.082c-1.154-0.054-1.903-0.085-2.246-0.096
			c-0.894-0.026-1.523-0.131-1.889-0.312c-0.47-0.232-0.776-0.627-0.921-1.185c-0.08-0.309-0.122-0.712-0.122-1.212
			c0-1.052,0.199-1.794,0.596-2.226c0.298-0.326,0.75-0.542,1.354-0.646c0.546-0.091,1.845-0.137,3.897-0.137
			c1.336,0,2.278,0.039,2.829,0.116c0.727,0.104,1.249,0.285,1.569,0.545c0.434,0.358,0.65,0.999,0.65,1.926
			c0,0.099-0.003,0.258-0.007,0.476h-2.728c-0.009-0.223-0.024-0.377-0.047-0.462c-0.063-0.255-0.271-0.398-0.623-0.43
			c-0.312-0.027-1.068-0.041-2.273-0.041c-1.19,0-1.897,0.034-2.118,0.103c-0.249,0.082-0.373,0.292-0.373,0.633
			c0,0.326,0.131,0.526,0.394,0.6c0.22,0.059,1.216,0.114,2.984,0.17c1.602,0.045,2.623,0.102,3.065,0.17
			c0.446,0.067,0.802,0.17,1.065,0.306c0.265,0.137,0.475,0.329,0.633,0.579c0.239,0.367,0.358,0.959,0.358,1.776
			c0,0.911-0.116,1.581-0.352,2.007c-0.234,0.423-0.618,0.71-1.15,0.864c-0.523,0.154-1.965,0.231-4.324,0.231
			c-1.435,0-2.47-0.039-3.106-0.115c-0.776-0.092-1.334-0.269-1.672-0.531c-0.365-0.281-0.581-0.678-0.649-1.19
			c-0.036-0.249-0.054-0.545-0.054-0.885V24.264z"/>
	</g>
	<path fill="none" stroke="#553E31" stroke-width="1.8842" stroke-miterlimit="10" d="M26.022,10.541
		c0,2.782-4.487,4.389-10.022,4.389S5.978,13.323,5.978,10.541"/>
</g>
</svg>
