<?xml version="1.0" encoding="utf-8"?>
<!-- Generator: Adobe Illustrator 16.0.0, SVG Export Plug-In . SVG Version: 6.00 Build 0)  -->
<!DOCTYPE svg PUBLIC "-//W3C//DTD SVG 1.1//EN" "http://www.w3.org/Graphics/SVG/1.1/DTD/svg11.dtd">
<svg version="1.1" id="Layer_2" xmlns="http://www.w3.org/2000/svg" xmlns:xlink="http://www.w3.org/1999/xlink" x="0px" y="0px"
	 width="32px" height="32px" viewBox="0 0 32 32" enable-background="new 0 0 32 32" display="none" xml:space="preserve">
<g display="inline">
	<path fill="#EBE0D5" stroke="#553E31" stroke-width="1.5" stroke-miterlimit="10" d="M5.995,6.621
		c1.899-1.785,6.846-5.836,9.77-5.869s4.287,0.299,5.881,1.957c1.596,1.656,5.85,7.559,6.613,9.018
		c0.765,1.459,1.861,4.143,0.997,5.039c-0.863,0.895-3.522,2.354-8.872,2.553c-5.351,0.199-10.966-0.365-12.694-0.861
		c-1.728-0.498-3.921-1.262-4.784-3.084C2.04,13.549,1.975,10.4,5.995,6.621z"/>
	<path fill="#553E31" d="M4.922,13.438c0,0-0.166-0.963,1.429-1.658c1.595-0.697,4.104-1.389,7.41-1.027
		c3.999,0.438,7.643,1.924,9.471,2.717c1.828,0.797,2.658,2.355,2.228,3.051c-0.434,0.697-3.855,1.492-7.013,1.492
		c-3.201,0-9.006-0.994-10.401-1.689C6.649,15.625,4.822,15.063,4.922,13.438z"/>
	<path fill="#EBE0D5" stroke="#553E31" stroke-width="1.5" stroke-miterlimit="10" d="M11.644,13.584
		c-0.126,0.852,1.23,4.508,1.163,6.729c-0.066,2.223-0.997,5.006-1.694,6.299c-0.698,1.293-0.997,2.885,0.232,3.549
		c1.229,0.662,3.423,1.391,5.55,0.961c2.127-0.432,3.822-1.16,3.854-2.322c0.033-1.158-1.496-4.275-1.628-5.668
		c-0.133-1.393,0.398-5.039-0.2-6.166c-0.598-1.127-3.09-3.779-4.452-3.945C13.105,12.854,11.777,12.688,11.644,13.584z"/>
</g>
</svg>
