<?xml version="1.0" encoding="utf-8"?>
<!-- Generator: Adobe Illustrator 16.0.0, SVG Export Plug-In . SVG Version: 6.00 Build 0)  -->
<!DOCTYPE svg PUBLIC "-//W3C//DTD SVG 1.1//EN" "http://www.w3.org/Graphics/SVG/1.1/DTD/svg11.dtd">
<svg version="1.1" id="Layer_2" xmlns="http://www.w3.org/2000/svg" xmlns:xlink="http://www.w3.org/1999/xlink" x="0px" y="0px"
	 width="32px" height="32px" viewBox="0 0 32 32" enable-background="new 0 0 32 32" display="none" xml:space="preserve">
<g display="inline">
	
		<path fill="#EBE0D5" stroke="#553E31" stroke-width="0.9695" stroke-linecap="round" stroke-linejoin="round" stroke-miterlimit="10" d="
		M17.2,19.117c0,0,0.376-4.149,3.891-6.37c2.064-1.304,5.293-1.656,10.425,1.403c-1.56,0.318-1.911,0.445-3.059,2.261
		c-1.146,1.814-3.272,4.2-5.735,4.681C20.408,21.542,18.443,20.742,17.2,19.117z"/>
	
		<path fill="#EBE0D5" stroke="#553E31" stroke-width="0.9695" stroke-linecap="round" stroke-linejoin="round" stroke-miterlimit="10" d="
		M13.675,16.347c0,0,1.204-4.612-1.594-6.871C9.771,7.61,6.156,6.54,0.485,7.814c1.307,0.35,1.784,0.668,2.198,1.783
		c0.414,1.115,0.573,4.999,3.728,6.687C9.564,17.972,12.018,17.334,13.675,16.347z"/>
	
		<path fill="#EBE0D5" stroke="#553E31" stroke-width="1.0361" stroke-linecap="round" stroke-linejoin="round" stroke-miterlimit="10" d="
		M17.909,10.087c0,0-2.348,0.458-3.534-1.197c-1.186-1.655-1.328-3.358-1.239-4.433c0.089-1.075,0.032-1.736-0.692-2.062
		c0,0,2.606-0.389,4.41,0.809C18.291,4.159,20.125,6.719,17.909,10.087z"/>
	
		<path fill="#553E31" stroke="#553E31" stroke-width="0.4847" stroke-linecap="round" stroke-linejoin="round" stroke-miterlimit="15" d="
		M13.952,28.338c0,0,1.235-4.419,0.845-7.313c-0.39-2.89-1.17-5.848-4.682-8.545C6.604,9.784,3.107,7.876,1.189,7.909
		c2.796,0.032,4.505,0.738,7.074,2.427c2.568,1.69,5.007,4.16,6.047,6.336c1.041,2.177,1.235,3.088,1.235,3.088
		s1.454-4.197,1.91-6.327c0.442-2.077,0.561-4.407-1.007-6.674c-1.813-2.623-2.584-3.517-3.66-4.334
		c1.53,0.53,3.021,2.676,3.924,3.892c1.052,1.413,1.284,2.597,1.409,3.467c0.364,2.529-0.496,6.921-1.959,10.235
		c2.406-2.663,4.17-3.953,6.135-4.797c1.862-0.802,5.018-1.863,9.211-1.213c-1.138,0.098-5.431,0.195-7.933,1.235
		c-2.504,1.04-7.076,4.019-7.629,6.911c-0.553,2.89-0.336,4.853-0.563,5.438C15.058,27.849,13.952,28.338,13.952,28.338z"/>
	<path fill="#553E31" d="M24.317,32.016H7.02c0.258-0.446,1.109-1.791,2.188-2.245c1.297-0.553,1.465-0.494,2.761-1.138
		c1.307-0.651,2.701-1.721,4.166-1.435c1.456,0.297,2.662,1.009,3.997,0.94c1.327-0.059,2.444,0.326,3.247,0.979
		C24.811,30.285,24.466,31.61,24.317,32.016z"/>
</g>
</svg>
