<?xml version="1.0" encoding="utf-8"?>
<!-- Generator: Adobe Illustrator 16.0.0, SVG Export Plug-In . SVG Version: 6.00 Build 0)  -->
<!DOCTYPE svg PUBLIC "-//W3C//DTD SVG 1.1//EN" "http://www.w3.org/Graphics/SVG/1.1/DTD/svg11.dtd">
<svg version="1.1" id="Layer_1" xmlns="http://www.w3.org/2000/svg" xmlns:xlink="http://www.w3.org/1999/xlink" x="0px" y="0px"
	 width="35px" height="35px" viewBox="0 0 35 35" enable-background="new 0 0 35 35" xml:space="preserve">
<g>
	<g>
		<path fill="#553E31" d="M17.5,1.75c8.685,0,15.75,7.065,15.75,15.75S26.185,33.25,17.5,33.25S1.75,26.184,1.75,17.5
			S8.815,1.75,17.5,1.75 M17.5,0C7.852,0,0,7.849,0,17.5C0,27.148,7.852,35,17.5,35C27.15,35,35,27.148,35,17.5
			C35,7.849,27.15,0,17.5,0L17.5,0z"/>
	</g>
	<path fill="#553E31" stroke="#553E31" stroke-width="0.0791" stroke-miterlimit="10" d="M16.355,21.642
		c0.251,0.303,0.171,1.304-0.526,2.979c-0.441,1.058-0.238,2.555-0.594,3.542c-0.355,0.99-1.265,1.292-1.119,0.593
		c0.144-0.699,0.316-1.766,0.422-3.201c0.104-1.436-0.844-1.74-0.844-1.74s-2.661,3.861-3.281,4.729
		c-0.619,0.87-1.436,0.569-0.843-0.434c0.458-0.772,4.359-6.405,6.109-8.928c0.218,0.189,0.433,0.379,0.645,0.565
		c0.024,0.019,0.045,0.041,0.066,0.062l-1.276,1.793C15.114,21.603,16.105,21.34,16.355,21.642z M5.837,15.821
		c0.166-0.311,1.017-1.589,2.841-1.865c1.996-0.302,5.005,2.306,8.225,5.134c3.22,2.828,5.735,6.204,8.497,6.026
		c2.762-0.18,4.287-3.317,4.416-3.562c0.288-0.615-0.219-1.003-0.636-0.455c-0.279,0.33-1.016,1.587-2.841,1.864
		c-1.998,0.303-4.585-2.782-7.807-5.611c-3.22-2.827-6.154-5.727-8.916-5.549c-2.759,0.179-4.296,3.343-4.415,3.562
		C4.869,15.979,5.437,16.482,5.837,15.821z M18.562,15.71l1.222-1.047c0.089-0.077,0.139-0.19,0.139-0.306l-0.019-1.367
		c-0.002-0.128-0.065-0.246-0.171-0.319c-0.067-0.046-0.146-0.07-0.225-0.07c-0.046,0-0.09,0.009-0.135,0.024
		c-0.08,0.027-0.159,0.068-0.239,0.12c-0.563,0.357-1.21,0.906-1.239,1.976c-0.007,0.321-0.003,0.556,0.016,0.733
		c0.018,0.147,0.111,0.271,0.248,0.325c0.046,0.021,0.098,0.029,0.146,0.029C18.397,15.806,18.488,15.773,18.562,15.71z
		 M20.968,13.142l1.224-1.048c0.089-0.077,0.139-0.188,0.137-0.306l-0.019-1.367c0-0.128-0.065-0.248-0.17-0.32
		c-0.066-0.046-0.145-0.07-0.226-0.07c-0.046,0-0.092,0.008-0.135,0.024c-0.078,0.027-0.16,0.068-0.239,0.12
		c-0.563,0.357-1.212,0.907-1.239,1.976c-0.007,0.321-0.001,0.555,0.018,0.733c0.016,0.147,0.111,0.272,0.246,0.327
		c0.048,0.019,0.098,0.027,0.146,0.027C20.804,13.237,20.896,13.203,20.968,13.142z M23.388,10.607l1.222-1.047
		c0.089-0.079,0.139-0.19,0.139-0.308l-0.019-1.367c-0.002-0.126-0.065-0.246-0.171-0.32c-0.067-0.046-0.146-0.068-0.226-0.068
		c-0.045,0-0.091,0.007-0.134,0.022c-0.078,0.029-0.16,0.07-0.241,0.121c-0.562,0.357-1.21,0.908-1.237,1.974
		c-0.008,0.323-0.003,0.557,0.018,0.735c0.016,0.145,0.109,0.27,0.246,0.325c0.048,0.019,0.098,0.027,0.146,0.027
		C23.224,10.701,23.315,10.668,23.388,10.607z M18.947,16.445c0,0.048,0.007,0.098,0.024,0.146c0.048,0.138,0.169,0.239,0.314,0.261
		c0.176,0.026,0.41,0.041,0.731,0.044c1.068,0.016,1.644-0.608,2.025-1.155c0.053-0.079,0.097-0.157,0.13-0.234
		c0.017-0.044,0.025-0.089,0.028-0.135c0.002-0.079-0.019-0.157-0.062-0.227c-0.068-0.108-0.185-0.176-0.313-0.183l-1.365-0.075
		c-0.116-0.007-0.229,0.04-0.312,0.126l-1.097,1.178C18.988,16.26,18.951,16.351,18.947,16.445z M21.166,14.145
		c-0.002,0.048,0.005,0.098,0.022,0.146c0.046,0.138,0.169,0.239,0.314,0.261c0.178,0.026,0.408,0.041,0.731,0.044
		c1.067,0.017,1.646-0.608,2.024-1.155c0.055-0.077,0.098-0.157,0.13-0.236c0.018-0.042,0.027-0.087,0.029-0.131
		c0.004-0.081-0.019-0.161-0.062-0.228c-0.068-0.109-0.185-0.178-0.313-0.185l-1.365-0.075c-0.116-0.005-0.229,0.04-0.31,0.126
		l-1.098,1.178C21.205,13.96,21.171,14.051,21.166,14.145z M23.349,11.831c-0.002,0.05,0.007,0.099,0.021,0.147
		c0.05,0.139,0.17,0.239,0.314,0.26c0.18,0.027,0.412,0.041,0.733,0.046c1.07,0.015,1.645-0.61,2.025-1.157
		c0.055-0.077,0.096-0.155,0.13-0.234c0.017-0.044,0.027-0.089,0.029-0.133c0.003-0.081-0.02-0.159-0.063-0.228
		c-0.065-0.109-0.182-0.176-0.31-0.185l-1.367-0.073c-0.116-0.007-0.23,0.039-0.31,0.125l-1.097,1.179
		C23.39,11.648,23.354,11.738,23.349,11.831z M25.582,9.625c0.306-0.003,0.851-0.022,1.073-0.106
		c0.036-0.012,0.068-0.031,0.096-0.05c0.248-0.181,0.636-0.769,0.706-1.07c0.066-0.295-0.02-0.702-0.093-0.902
		c-0.019-0.046-0.039-0.09-0.064-0.133c-0.074-0.116-0.202-0.181-0.335-0.181c-0.033,0-0.067,0.003-0.102,0.012
		C26.515,7.287,25.86,7.64,25.57,7.939c-0.273,0.282-0.353,0.709-0.387,1.265c-0.009,0.111,0.032,0.217,0.107,0.297
		c0.075,0.079,0.178,0.123,0.286,0.123C25.578,9.625,25.58,9.625,25.582,9.625z"/>
</g>
</svg>
