<?xml version="1.0" encoding="utf-8"?>
<!-- Generator: Adobe Illustrator 16.0.0, SVG Export Plug-In . SVG Version: 6.00 Build 0)  -->
<!DOCTYPE svg PUBLIC "-//W3C//DTD SVG 1.1//EN" "http://www.w3.org/Graphics/SVG/1.1/DTD/svg11.dtd">
<svg version="1.1" id="Layer_1" xmlns="http://www.w3.org/2000/svg" xmlns:xlink="http://www.w3.org/1999/xlink" x="0px" y="0px"
	 width="34.999px" height="34.999px" viewBox="0 0 34.999 34.999" enable-background="new 0 0 34.999 34.999" xml:space="preserve">
<g>
	<path fill="#553E31" d="M20.477,13.569c-0.796-0.811-1.214-1.518-1.149-2.319c0.115-1.391,0.813-1.948,1.578-2.507
		c0.676-0.496,1.645-1.483,2.285-2.333c0.228-0.303,0.358-0.713,0.435-1.114c0.101-0.725,0.265-0.602,0.35,0
		c0.61,3.743,0.385,5.657,0.144,6.901c-0.271,1.391-0.797,1.846-1.611,2.056s-1.427-0.2-1.427-0.2
		c0.414-0.781,1.127-2.857,1.35-3.346c0.222-0.484-0.177-0.662-0.384-0.077C21.833,11.214,20.477,13.569,20.477,13.569z
		 M28.338,13.854c-4.651,0.631-9.528,5.926-10.116,8.052c0.328-4.334,0.738-5.842,0.071-8.489c-1.163-4.607-5.626-5.055-7.661-4.765
		C8.767,8.923,7.754,9.279,6.3,9.743c-0.383,0.137-0.373,0.383,0.127,0.26c1.387-0.287,3.487-0.485,5,0.449
		c2.369,1.459,3.941,3.268,4.822,10.837c0.604,5.193-0.273,9.135-0.118,9.741c0.156,0.604,0.885,0.602,0.969,0.215
		c0.083-0.384,0.009-3.76,2.213-8.415c2.207-4.653,6.299-7.495,9.485-8.75C29.189,13.809,28.858,13.749,28.338,13.854z"/>
	<g>
		<path fill="#553E31" d="M17.5,1.75c8.685,0,15.75,7.065,15.75,15.75S26.184,33.25,17.5,33.25S1.75,26.185,1.75,17.5
			S8.815,1.75,17.5,1.75 M17.5,0C7.851,0,0,7.85,0,17.5C0,27.149,7.851,35,17.5,35c9.65,0,17.5-7.851,17.5-17.5
			C35,7.85,27.149,0,17.5,0L17.5,0z"/>
	</g>
</g>
</svg>
