<?xml version="1.0" encoding="utf-8"?>
<!-- Generator: Adobe Illustrator 16.0.0, SVG Export Plug-In . SVG Version: 6.00 Build 0)  -->
<!DOCTYPE svg PUBLIC "-//W3C//DTD SVG 1.1//EN" "http://www.w3.org/Graphics/SVG/1.1/DTD/svg11.dtd">
<svg version="1.1" id="Layer_1" xmlns="http://www.w3.org/2000/svg" xmlns:xlink="http://www.w3.org/1999/xlink" x="0px" y="0px"
	 width="91px" height="31px" viewBox="0 0 91 31" enable-background="new 0 0 91 31" xml:space="preserve">
<polyline fill="none" stroke="#CDB8AB" stroke-width="2" stroke-miterlimit="10" points="1,0 1,30 91,30 "/>
<rect x="1" fill="#EBDFD5" width="90" height="30"/>
<g>
	<g id="XMLID_3_">
		<g>
			<path fill="#EBDFD5" d="M63.317,5.127c-0.18,1.422-2.836,14.655-2.755,17.324c-1.41,0.097-1.883,0.281-4.14-0.58
				c-2.258-0.852-3.513-1.589-5.974-1.589s-5.061,0.729-6.047,2.045c0.416-2.607,2.307-13.96,3.187-16.41
				c0.929-0.94,2.429-1.229,3.904-1.212c2.274,0.035,5.224,1.15,8.362,1.177C61.768,5.9,63.04,5.303,63.317,5.127z"/>
			<path fill="#CDB8AB" d="M64.816,7.797c-0.302,1.519-2.494,14.742-2.551,15.348c-0.049,0.615-0.081,1.027-0.456,1.291
				c-0.399-0.5-0.791-1.247-1.247-1.984C60.48,19.782,63.137,6.55,63.317,5.127C63.537,5.602,64.531,7.305,64.816,7.797z"/>
			<path fill="#CDB8AB" d="M60.562,22.451c0.457,0.738,0.848,1.484,1.247,1.984c-0.269,0.176-2.934-0.079-4.597-0.544
				c-1.785-0.492-4.466-2.002-7.816-2.002c-1.907,0-2.869,0.755-3.398,1.186c-0.416-0.316-0.995-0.536-1.598-0.536
				c-0.049,0-0.098,0-0.138,0.009l-0.017-0.421c0.057,0.07,0.106,0.141,0.155,0.202c0.986-1.317,3.586-2.045,6.047-2.045
				s3.716,0.737,5.974,1.589C58.679,22.732,59.152,22.548,60.562,22.451z"/>
			<path fill="#CDB8AB" d="M42.754,23.083c-0.783-0.816-1.752-1.501-3.953-1.589c-2.2-0.079-4.556,1.299-7.441,1.695
				c-1.426,0.193-3.007-0.114-4.099-0.465c-0.587-0.185-0.367-1.721-0.236-2.116c3.456,1.738,4.955,0.887,7.212,0.228
				c2.258-0.658,3.219-1.097,5.697-1.097c2.314,0,3.521,1.37,4.311,2.388l0.017,0.421C43.749,22.548,43.463,22.636,42.754,23.083z"
				/>
			<path fill="#EBDFD5" d="M44.246,22.126c-0.791-1.019-1.997-2.388-4.311-2.388c-2.478,0-3.439,0.439-5.697,1.097
				c-2.257,0.659-3.757,1.51-7.212-0.228l-0.171-0.079c0.017-0.044,0.033-0.088,0.049-0.132c0.457-1.15,3.358-14.022,3.651-15.023
				c1.288,0.272,2.176,0.632,6.479-0.369c4.295-1.001,4.287-1.088,6.064-0.957c1.833,0.132,3.855,1.115,4.491,1.871
				c-0.88,2.45-2.771,13.803-3.187,16.41C44.352,22.267,44.303,22.197,44.246,22.126z"/>
			<path fill="#CDB8AB" d="M63.463,24.234c-0.196,1.141-0.473,1.466-1.638,1.686c-3.276,0.624-9.405-2.59-11.663-2.494
				c-1.5,0.07-2.95,1.027-3.896,1.08c-0.938,0.053-1.264-0.316-2.144-0.369c-0.889-0.044-1.386,0.86-2.127,0.316
				c-1.279-0.922-2.869-1.545-4.979-1.054c-1.329,0.308-1.891,0.755-5.143,1.133c-2.869,0.333-4.678-0.369-5.403-0.834
				c-0.726-0.465-0.432-0.852-0.293-1.221c0.122-0.342,0.448-1.37,0.676-1.949l0.171,0.079c-0.13,0.395-0.351,1.932,0.236,2.116
				c1.092,0.351,2.673,0.658,4.099,0.465c2.885-0.396,5.241-1.774,7.441-1.695c2.201,0.088,3.17,0.773,3.953,1.589
				c0.709-0.448,0.994-0.536,1.508-0.536c0.041-0.009,0.089-0.009,0.138-0.009c0.603,0,1.182,0.22,1.598,0.536
				c0.53-0.43,1.491-1.186,3.398-1.186c3.35,0,6.031,1.51,7.816,2.002c1.663,0.465,4.328,0.72,4.597,0.544
				c0.375-0.263,0.407-0.676,0.456-1.291c0.057-0.606,2.25-13.829,2.551-15.348c0.383,0.009,1.125,0.009,1.182,0.834
				c0.049,0.825-0.921,5.628-1.214,7.244C64.49,17.49,63.651,23.163,63.463,24.234z"/>
		</g>
		<g>
			
				<path fill="none" stroke="#563F32" stroke-width="0.8459" stroke-linecap="round" stroke-linejoin="round" stroke-miterlimit="10" d="
				M47.587,5.918c-0.636-0.755-2.657-1.739-4.491-1.871c-1.777-0.131-1.769-0.044-6.064,0.957c-4.303,1.001-5.191,0.641-6.479,0.369
				c-0.293,1.001-3.195,13.873-3.651,15.023c-0.016,0.044-0.032,0.088-0.049,0.132c-0.228,0.58-0.554,1.607-0.676,1.949
				c-0.139,0.369-0.432,0.755,0.293,1.221c0.725,0.465,2.535,1.167,5.403,0.834c3.252-0.377,3.814-0.825,5.143-1.133
				c2.111-0.492,3.7,0.132,4.979,1.054c0.742,0.544,1.239-0.36,2.127-0.316c0.88,0.053,1.206,0.421,2.144,0.369
				c0.945-0.053,2.396-1.01,3.896-1.08c2.257-0.097,8.386,3.117,11.663,2.494c1.166-0.219,1.442-0.544,1.638-1.686
				c0.188-1.071,1.027-6.744,1.32-8.359c0.293-1.615,1.263-6.418,1.214-7.244c-0.057-0.825-0.799-0.825-1.182-0.834
				c-0.285-0.492-1.28-2.195-1.5-2.669C63.04,5.303,61.768,5.9,59.853,5.883c-3.138-0.026-6.088-1.142-8.362-1.177
				C50.016,4.688,48.516,4.978,47.587,5.918z"/>
			
				<path fill="none" stroke="#563F32" stroke-width="0.8459" stroke-linecap="round" stroke-linejoin="round" stroke-miterlimit="10" d="
				M64.816,7.797c-0.302,1.519-2.494,14.742-2.551,15.348c-0.049,0.615-0.081,1.027-0.456,1.291
				c-0.269,0.176-2.934-0.079-4.597-0.544c-1.785-0.492-4.466-2.002-7.816-2.002c-1.907,0-2.869,0.755-3.398,1.186
				c-0.416-0.316-0.995-0.536-1.598-0.536c-0.049,0-0.098,0-0.138,0.009c-0.514,0-0.799,0.088-1.508,0.536
				c-0.783-0.816-1.752-1.501-3.953-1.589c-2.2-0.079-4.556,1.299-7.441,1.695c-1.426,0.193-3.007-0.114-4.099-0.465
				c-0.587-0.185-0.367-1.721-0.236-2.116"/>
			
				<path fill="none" stroke="#563F32" stroke-width="0.8459" stroke-linecap="round" stroke-linejoin="round" stroke-miterlimit="10" d="
				M63.317,5.127c-0.18,1.422-2.836,14.655-2.755,17.324c-1.41,0.097-1.883,0.281-4.14-0.58c-2.258-0.852-3.513-1.589-5.974-1.589
				s-5.061,0.729-6.047,2.045c-0.049-0.061-0.098-0.131-0.155-0.202c-0.791-1.019-1.997-2.388-4.311-2.388
				c-2.478,0-3.439,0.439-5.697,1.097c-2.257,0.659-3.757,1.51-7.212-0.228"/>
			
				<path fill="none" stroke="#563F32" stroke-width="0.8459" stroke-linecap="round" stroke-linejoin="round" stroke-miterlimit="10" d="
				M44.4,22.328c0.416-2.607,2.307-13.96,3.187-16.41"/>
			
				<path fill="none" stroke="#563F32" stroke-width="0.8459" stroke-linecap="round" stroke-linejoin="round" stroke-miterlimit="10" d="
				M60.562,22.451c0.457,0.738,0.848,1.484,1.247,1.984"/>
		</g>
	</g>
</g>
</svg>
