<?xml version="1.0" encoding="utf-8"?>
<!-- Generator: Adobe Illustrator 16.0.0, SVG Export Plug-In . SVG Version: 6.00 Build 0)  -->
<!DOCTYPE svg PUBLIC "-//W3C//DTD SVG 1.1//EN" "http://www.w3.org/Graphics/SVG/1.1/DTD/svg11.dtd">
<svg version="1.1" id="Layer_1" xmlns="http://www.w3.org/2000/svg" xmlns:xlink="http://www.w3.org/1999/xlink" x="0px" y="0px"
	 width="60px" height="60px" viewBox="0 0 60 60" enable-background="new 0 0 60 60" xml:space="preserve">
<g>
	<defs>
		<path id="SVGID_53_" d="M29.999,53.5C17.041,53.5,6.5,42.958,6.5,30c0-12.96,10.541-23.5,23.499-23.5
			C42.958,6.5,53.5,17.04,53.5,30C53.5,42.958,42.958,53.5,29.999,53.5z"/>
	</defs>
	<clipPath id="SVGID_2_">
		<use xlink:href="#SVGID_53_"  overflow="visible"/>
	</clipPath>
	<rect x="0.625" y="0.625" clip-path="url(#SVGID_2_)" fill="#FFFCF5" width="58.75" height="58.75"/>
	<polygon clip-path="url(#SVGID_2_)" fill="#EBE0D5" stroke="#553E31" stroke-miterlimit="10" points="34.596,23.375 -3.904,32.125 
		20.846,61.125 69.596,42.375 	"/>
	<g clip-path="url(#SVGID_2_)">
		<path fill="#553E31" d="M25.712,50.365c1.472-0.47,25.343-9.355,26.897-10.018c2.618-1.112,0-2.641-0.739-3.029
			c-0.625-0.33-15.933-8.921-16.704-9.33c-0.851-0.451-1.776-0.287-2.616-0.076c-0.838,0.215-22.74,5.874-23.769,6.225
			c-1.025,0.35-1.926,1.302-1.127,2.304c0.801,1.002,11.522,11.997,13.05,13.35C22.231,51.142,23.356,51.119,25.712,50.365z"/>
		<path fill="#EBE0D5" d="M51.833,39.384c-0.962,0.403-22.726,8.471-26.221,9.705c-2.556,0.901-3.031,0.275-4.032-0.477
			c-1.002-0.751-12.3-12.105-12.64-12.489c-0.341-0.382-0.215-0.639,0.167-0.768c3.917-1.323,23.129-6.23,23.768-6.391
			c1.29-0.388,1.61-0.201,2.691,0.451c0.852,0.514,15.084,8.498,15.767,8.942C52.013,38.801,52.371,39.16,51.833,39.384z"/>
		<path fill="#CDB8AB" d="M38.914,39.346c0,2.445-3.892,4.429-8.696,4.429c-4.799,0-8.691-1.983-8.691-4.429
			s3.893-4.428,8.691-4.428C35.022,34.918,38.914,36.9,38.914,39.346z"/>
		<path fill="#EBE0D5" d="M37.223,38.497c0,1.886-3.144,3.41-7.019,3.41c-3.88,0-7.021-1.524-7.021-3.41
			c0-1.879,3.142-3.405,7.021-3.405C34.079,35.092,37.223,36.618,37.223,38.497z"/>
		<ellipse fill="#553E31" cx="30.121" cy="37.054" rx="7.087" ry="3.594"/>
		<path fill="#553E31" d="M13.641,41.801c0,0-0.499-1.979-0.225-2.08c0.273-0.1,10.368-3.08,10.744-3.181
			c0.375-0.1,0.627,0.303,0.075,0.603s-2.655,1.554-4.008,1.954s-2.605,0.501-3.456,1.828
			C16.046,41.224,14.341,41.675,13.641,41.801z"/>
		<path fill="#553E31" d="M21.313,30.936c0,0-0.075-1.327,0.2-1.452c0.277-0.125,0.402-0.151,0.852,0.175
			c0.451,0.326,4.184,2.905,4.358,3.255c0.175,0.352-0.127,0.476-0.45,0.376c-0.326-0.1-1.704-0.525-2.329-1.003
			c-0.627-0.475-1.654-1.213-1.954-1.177C21.784,31.136,21.313,30.936,21.313,30.936z"/>
		<path fill="#553E31" d="M41.815,31.011c-1.812,0.546-7.235,2.181-7.444,2.264c-0.25,0.099-0.1,0.413,0.188,0.552
			c0.179,0.085,2.498-0.098,3.369-0.275c0.613-0.125,1.827-0.64,2.203-0.602c0.376,0.037,0.426,0.325,0.764,0.3
			c0.339-0.025,1.217-0.338,1.554-0.426c0.253-0.063,0.099-1.15,0.005-1.689C42.423,30.953,42.18,30.9,41.815,31.011z"/>
		<path fill="#553E31" d="M34.384,37.894c0.393,0.23,5.923,3.957,6.285,4.194c0.364,0.239,0.415,0.715,0.4,1.04
			c-0.012,0.324-0.051,1.266-0.051,1.266s-1.251-0.302-1.488-0.64c-0.238-0.338-0.278-0.647-0.751-1.076
			c-0.402-0.363-2.127-1.603-2.643-2.116c-0.514-0.513-1.632-1.712-1.93-2.042C33.869,38.144,33.957,37.645,34.384,37.894z"/>
	</g>
	<g clip-path="url(#SVGID_2_)">
		
			<path fill="#EBE0D5" stroke="#553E31" stroke-width="0.8" stroke-linecap="round" stroke-linejoin="round" stroke-miterlimit="10" d="
			M17.815,19.833c0,7.536,5.441,10.356,12.156,10.356c6.712,0,12.154-2.82,12.154-10.356"/>
		
			<path fill="#EBE0D5" stroke="#553E31" stroke-width="0.8" stroke-linecap="round" stroke-linejoin="round" stroke-miterlimit="10" d="
			M27.776,15.419c0,0-3.615-3.46-4.443-4.716c-0.796-1.212-3.447-5.811-6.062-8.504c-0.623-0.638-0.746-0.865-1.316-0.938
			c-0.563-0.07-1.08,0-1.444,0.237c-0.479,0.309-0.633,0.698-0.619,1.052c0.013,0.297-0.066,0.501,0.637,1.292
			c0,0,3.64,4.456,4.38,5.288c0.745,0.834,1.354,1.698,1.579,2.345c0.231,0.638,0.121,2.105,0.293,3.302
			c0.173,1.197,0.834,1.952,1.632,2.625l0.536,0.214L27.776,15.419z"/>
		<path fill="#553E31" d="M17.448,4.118c0,0-0.319-0.435-0.595-0.772c-0.266-0.345-0.638-0.851-0.896-0.971
			C15.702,2.264,15.41,2.38,15.345,2.44c-0.063,0.064-0.161,0.386-0.003,0.632c0.159,0.244,0.637,0.853,0.824,1.07
			c0.188,0.215,0.24,0.367,0.588,0.557C17.104,4.891,17.609,4.39,17.448,4.118z"/>
		<g>
			<defs>
				<ellipse id="XMLID_34_" cx="29.971" cy="19.833" rx="12.155" ry="6.887"/>
			</defs>
			<use xlink:href="#XMLID_34_"  overflow="visible" fill="#CDB8AB"/>
			<clipPath id="XMLID_6_">
				<use xlink:href="#XMLID_34_"  overflow="visible"/>
			</clipPath>
			
				<ellipse clip-path="url(#XMLID_6_)" fill="none" stroke="#553E31" stroke-width="0.75" stroke-linecap="round" stroke-linejoin="round" stroke-miterlimit="10" cx="29.971" cy="22.624" rx="10.57" ry="6.05"/>
			
				<use xlink:href="#XMLID_34_"  overflow="visible" fill="none" stroke="#553E31" stroke-width="0.8" stroke-linecap="round" stroke-linejoin="round" stroke-miterlimit="10"/>
		</g>
	</g>
	<g clip-path="url(#SVGID_2_)">
		<g>
			<path fill="#553E31" d="M48.489,23.177c-0.206,0.528-0.472,1.02-0.83,1.491c-0.36,0.461-0.825,0.919-1.509,1.182
				c-0.242,0.096-0.513,0.017-0.673-0.17c-0.3-0.354-0.418-0.631-0.558-0.958c-0.126-0.317-0.212-0.64-0.266-0.962
				c-0.101-0.646-0.073-1.283,0.047-1.882c0.023-0.118,0.139-0.195,0.257-0.171c0.096,0.019,0.165,0.102,0.175,0.194
				c0.061,0.564,0.212,1.104,0.444,1.574c0.12,0.234,0.261,0.452,0.419,0.644c0.145,0.18,0.361,0.389,0.479,0.441l-0.673-0.17
				c0.354,0.014,0.795-0.152,1.199-0.415c0.406-0.263,0.8-0.614,1.132-0.998l0.008-0.01c0.074-0.086,0.205-0.096,0.291-0.021
				C48.5,23.005,48.521,23.098,48.489,23.177z"/>
		</g>
		<g>
			<path fill="#553E31" d="M45.454,24.941c-0.067-0.599,0.129-0.992,0.241-1.487c0.116-0.475,0.197-0.957,0.243-1.444
				c0.089-0.975,0.056-1.972-0.095-2.969c-0.08-0.513-0.169-0.977-0.281-1.49c-0.104-0.457-0.275-0.947-0.474-1.404
				c-0.403-0.914-0.959-1.819-1.652-2.533l-0.017-0.017c-0.067-0.069-0.065-0.181,0.004-0.248c0.063-0.062,0.162-0.065,0.229-0.013
				c0.877,0.677,1.553,1.513,2.142,2.438c0.29,0.47,0.543,0.942,0.756,1.484c0.202,0.486,0.342,1.046,0.466,1.562
				c0.231,1.062,0.384,2.169,0.32,3.286c-0.026,0.559-0.095,1.116-0.203,1.664c-0.11,0.528-0.213,1.142-0.635,1.529l-0.025,0.023
				c-0.248,0.228-0.634,0.211-0.862-0.037C45.521,25.186,45.469,25.065,45.454,24.941z"/>
		</g>
	</g>
</g>
</svg>
