<?xml version="1.0" encoding="utf-8"?>
<!-- Generator: Adobe Illustrator 16.0.0, SVG Export Plug-In . SVG Version: 6.00 Build 0)  -->
<!DOCTYPE svg PUBLIC "-//W3C//DTD SVG 1.1//EN" "http://www.w3.org/Graphics/SVG/1.1/DTD/svg11.dtd">
<svg version="1.1" id="Layer_1" xmlns="http://www.w3.org/2000/svg" xmlns:xlink="http://www.w3.org/1999/xlink" x="0px" y="0px"
	 width="60px" height="60px" viewBox="0 0 60 60" enable-background="new 0 0 60 60" xml:space="preserve">
<g>
	<defs>
		<path id="SVGID_61_" d="M29.999,53.5C17.041,53.5,6.5,42.958,6.5,30c0-12.96,10.541-23.5,23.499-23.5
			C42.958,6.5,53.5,17.04,53.5,30C53.5,42.958,42.958,53.5,29.999,53.5z"/>
	</defs>
	<clipPath id="SVGID_2_">
		<use xlink:href="#SVGID_61_"  overflow="visible"/>
	</clipPath>
	<rect x="0.625" y="0.625" clip-path="url(#SVGID_2_)" fill="#FFFCF5" width="58.75" height="58.75"/>
	<polygon clip-path="url(#SVGID_2_)" fill="#EBE0D5" stroke="#553E31" stroke-miterlimit="10" points="-9.127,19.827 72.97,6.792 
		84.848,52.77 -2.729,60.354 	"/>
	<path clip-path="url(#SVGID_2_)" fill="#CDB8AB" stroke="#553E31" stroke-miterlimit="10" d="M78.637,11.317
		c-3.622,2.535-12.269,7.924-14.217,8.783c-1.945,0.859-4.798,2.083-6.564,1.63c-1.765-0.452-2.156-1.146-3.301-0.211
		c-1.146,0.937-3.445,1.209-3.847,1.035c-1.369-0.593-4.488-1.759-6.029-1.827c-1.019-0.045-1.752,0.229-2.223,0.513
		c-0.319,0.192-1.305,0.829-1.893,1.531c-0.59,0.702-2.242,5.931-2.242,5.931s-1.746,1.337-1.983,2.332
		c-0.235,0.996-0.619,2.284-0.235,2.919c0.521,0.86,1.132,1.631,1.63,2.038c0.498,0.406,0.725,0.995,1.2,1.313
		c0.476,0.316,0.701,0.452,1.517,0.18c0.634,0.204,1.244,0.407,2.783,0.453c1.54,0.045,3.352-0.498,4.551-0.316
		s3.237,1.063,4.007,0.746c0.77-0.316,1.585-0.928,2.49-1.268c0.905-0.339,4.401-1.245,9.053-4.617
		c1.812-1.313,4.777-2.467,5.954-3.237c1.178-0.77,9.893-4.687,14.147-6.746C87.69,20.439,78.637,11.317,78.637,11.317z"/>
	
		<path clip-path="url(#SVGID_2_)" fill="#EBE0D5" stroke="#553E31" stroke-linecap="round" stroke-linejoin="round" stroke-miterlimit="10" d="
		M46.07,25.397c-0.761-0.586-5.116-3.531-6.591-3.823c-3.078-0.609-5.449,0.232-6.415,0.94c-0.966,0.71-1.493,3.015-0.799,4.677
		c0.61,1.457,3.055,4.254,5.928,5.103c0.799,0.287,1.208,0.634,1.389,0.77c0.347-0.302,1.721-0.98,3.032-1.388
		c0.831-0.876,2.611-2.234,3.064-2.929c0.452-0.693,0.755-1.207,0.979-1.584C46.886,26.786,46.658,25.851,46.07,25.397z"/>
	
		<path clip-path="url(#SVGID_2_)" fill="none" stroke="#553E31" stroke-linecap="round" stroke-linejoin="round" stroke-miterlimit="10" d="
		M40.449,37.484c0,0,5.685-1.759,6.771-2.527"/>
	
		<path clip-path="url(#SVGID_2_)" fill="none" stroke="#553E31" stroke-linecap="round" stroke-linejoin="round" stroke-miterlimit="10" d="
		M47.783,37.621c0,0,1.595-0.284,2.532-0.878"/>
	<g clip-path="url(#SVGID_2_)">
		<path fill="#EBE0D5" stroke="#553E31" stroke-linecap="round" stroke-linejoin="round" stroke-miterlimit="10" d="M24.486,20.677
			c0,0,9.749,2.544,14.259,3.916c4.506,1.372,5.623,2.017,6.759,2.731c-2.022,0.158-3.551,0.192-5.908-0.23
			c-2.361-0.425-15.006-2.858-15.006-2.858L24.486,20.677z"/>
		<path fill="#CDB8AB" stroke="#553E31" stroke-miterlimit="10" d="M12.477,0.44c-0.228,1.526-1.071,5.731-1.627,7.615
			c-0.557,1.885-2.815,5.918-3.365,7.774c-0.551,1.855-0.453,1.567-0.253,2.853c0.199,1.284,0.507,3.182,0.986,4.067
			c0.478,0.883,0.994,2.272,1.739,2.535c0.743,0.265,1.213,0.246,1.707,0.113c0.263,0.34,0.627,1.321,1.179,1.479
			c0.551,0.157,1.541,0.168,2.105-0.134c0.378,0.611,0.947,1.068,1.637,0.994c0.691-0.074,1.617-0.465,1.892-0.75
			c0.28,0.296,0.851,0.544,1.592,0.552s1.22,0.048,1.944-0.272c0.724-0.322,1.07-0.684,1.157-1.268
			c0.089-0.582-0.039-1.434-0.112-2.069c-0.104-0.891-0.178-1.412-0.329-2.074c-0.148-0.661-0.351-1.435-0.482-2.277
			c0.803,0.044,2.001-0.114,2.886,0.275c0.887,0.389,3.063,1.634,3.985,1.96c0.924,0.329,4.611,0.757,5.284,0.355
			c0.674-0.403,1.113-0.805,1.074-1.34c-0.037-0.511-0.434-1.145-1.189-1.055c-0.611,0.071-1.665-0.267-2.605-0.926
			c-0.94-0.656-2.648-1.814-3.863-3c-1.214-1.184-3.879-3.842-4.754-5.087c-0.874-1.246-1.373-0.99-1.085-3.061
			c0.291-2.069,1.168-6.699,2.016-8.872c0.849-2.175-10.939-4.35-10.939-4.35L12.477,0.44z"/>
		<path fill="none" stroke="#553E31" stroke-linecap="round" stroke-linejoin="round" stroke-miterlimit="10" d="M11.664,25.398
			c0,0-1.011-1.935-1.511-4.202"/>
		<path fill="none" stroke="#553E31" stroke-linecap="round" stroke-linejoin="round" stroke-miterlimit="10" d="M14.948,26.743
			c0,0-1.416-2.664-1.636-4.944"/>
		<path fill="none" stroke="#553E31" stroke-linecap="round" stroke-linejoin="round" stroke-miterlimit="10" d="M18.477,26.987
			c0,0-1.11-2.618-1.078-5.922"/>
		<path fill="#553E31" d="M22.134,19.278c0,0,1.612,0.505,2.294,0.546s0.853,0.318,0.755,0.781
			c-0.099,0.461-0.479,2.401-0.184,3.381c0.298,0.984-0.037,1.385-1.103,1.014c-1.067-0.372-1.324-0.53-1.324-0.53L22.134,19.278z"
			/>
	</g>
	<g clip-path="url(#SVGID_2_)">
		<path fill="#EBE0D5" stroke="#553E31" stroke-linecap="round" stroke-linejoin="round" stroke-miterlimit="10" d="M32.88,31.045
			c-0.202-0.009-0.4-0.035-0.596-0.089c-0.734-0.212-1.238-0.927-1.351-1.916c-0.081-0.483-0.144-0.71-0.645-1.321
			c-0.584-0.713-1.146-1.016-2.605-1.101c-0.937-0.058-1.571,0.258-1.733,1.035c-0.213,1.023,0.324,1.524,1.232,2.107
			C28.335,30.502,29.371,31.108,32.88,31.045z"/>
		<path fill="#EBE0D5" stroke="#553E31" stroke-linecap="round" stroke-linejoin="round" stroke-miterlimit="10" d="M30.934,29.04
			c0.112,0.989,0.616,1.704,1.351,1.916c1.819,0.523,4.212-0.279,5.806-1.913c0.854-0.88,1.922-1.653,2.396-3.857l-3.196-0.952
			c-0.82,2.291-2.821,3.811-3.884,4.214C32.615,28.746,31.672,28.776,30.934,29.04z"/>
	</g>
	<g clip-path="url(#SVGID_2_)">
		<path fill="#EBE0D5" stroke="#553E31" stroke-linecap="round" stroke-linejoin="round" stroke-miterlimit="10" d="M35.545,45.106
			c0.193-0.003,0.388-0.022,0.576-0.069c0.717-0.183,1.225-0.856,1.362-1.807c0.094-0.466,0.104-0.868,0.096-1.135
			c-0.032-1.225-0.695-1.744-1.559-1.532c0,0,1.151-0.669,2.563-0.707c0.909-0.026,1.175,0.008,1.842,0.979
			c0.681,0.993,0.567,2.082-0.134,2.783C40.291,43.618,38.931,45.272,35.545,45.106z"/>
		<path fill="#EBE0D5" stroke="#553E31" stroke-linecap="round" stroke-linejoin="round" stroke-miterlimit="10" d="M37.483,43.23
			c-0.138,0.95-0.646,1.624-1.362,1.807c-1.772,0.451-4.057-0.396-5.545-2.022c-0.8-0.877-1.806-1.656-2.196-3.8l3.115-0.819
			c0.724,2.235,2.607,3.765,3.62,4.186C35.871,42.893,36.78,42.953,37.483,43.23z"/>
	</g>
	
		<path clip-path="url(#SVGID_2_)" fill="#EBE0D5" stroke="#553E31" stroke-linecap="round" stroke-linejoin="round" stroke-miterlimit="10" d="
		M29.828,40.564c-2.736,0.419-3.348,0.837-5.84,0.463c-2.494-0.371-3.146-0.286-4.677-0.752c-1.53-0.464-1.428,0.206-1.451,0.958
		c-0.024,0.75,0.181,2.301,0.881,2.573c0.701,0.273,4.451,0.519,6.636,0.168c2.182-0.349,4.137-0.078,4.754-1.102
		C30.747,41.849,30.96,40.394,29.828,40.564z"/>
	
		<path clip-path="url(#SVGID_2_)" fill="#EBE0D5" stroke="#553E31" stroke-linecap="round" stroke-linejoin="round" stroke-miterlimit="10" d="
		M25.423,46.504c1.822,0.229,4.711,0.965,6.975,0.682c2.265-0.284,4.488,0.017,3.152,0.662c-1.337,0.646-2.958,1.097-4.313,1.053
		c-1.357-0.042-5.846-0.1-7.055-0.808C22.972,47.389,22.739,46.168,25.423,46.504z"/>
</g>
</svg>
