<?xml version="1.0" encoding="utf-8"?>
<!-- Generator: Adobe Illustrator 16.0.0, SVG Export Plug-In . SVG Version: 6.00 Build 0)  -->
<!DOCTYPE svg PUBLIC "-//W3C//DTD SVG 1.1//EN" "http://www.w3.org/Graphics/SVG/1.1/DTD/svg11.dtd">
<svg version="1.1" id="Layer_1" xmlns="http://www.w3.org/2000/svg" xmlns:xlink="http://www.w3.org/1999/xlink" x="0px" y="0px"
	 width="60px" height="60px" viewBox="0 0 60 60" enable-background="new 0 0 60 60" xml:space="preserve">
<g>
	<path fill="#553E31" d="M60,30c0,16.541-13.458,30-30,30S0,46.541,0,30C0,13.458,13.458,0,30,0S60,13.458,60,30z"/>
	<path fill="#FFFCF5" d="M47.104,11.464c-4.081-3.768-9.404-6.205-15.278-6.627V1.686c6.739,0.431,12.845,3.222,17.499,7.557
		L47.104,11.464z"/>
	<path fill="#FFFCF5" d="M28.175,4.837c-5.874,0.422-11.197,2.859-15.277,6.627l-2.221-2.221c4.653-4.335,10.759-7.126,17.499-7.557
		V4.837z"/>
	<path fill="#FFFCF5" d="M11.464,12.897c-3.768,4.081-6.206,9.404-6.627,15.277h-3.15c0.43-6.738,3.222-12.844,7.557-17.499
		L11.464,12.897z"/>
	<path fill="#FFFCF5" d="M4.836,31.824c0.422,5.875,2.859,11.197,6.627,15.279l-2.22,2.221c-4.335-4.654-7.127-10.76-7.557-17.5
		H4.836z"/>
	<path fill="#FFFCF5" d="M12.898,48.536c4.081,3.769,9.404,6.205,15.277,6.628v3.15c-6.74-0.431-12.845-3.223-17.499-7.557
		L12.898,48.536z"/>
	<path fill="#FFFCF5" d="M31.825,55.164c5.874-0.423,11.197-2.859,15.278-6.628l2.221,2.222c-4.654,4.334-10.76,7.126-17.499,7.557
		V55.164z"/>
	<path fill="#FFFCF5" d="M48.536,47.104c3.769-4.082,6.205-9.404,6.628-15.279h3.15c-0.431,6.74-3.222,12.846-7.557,17.5
		L48.536,47.104z"/>
	<path fill="#FFFCF5" d="M55.164,28.175c-0.423-5.873-2.859-11.197-6.628-15.277l2.222-2.221c4.335,4.654,7.126,10.76,7.557,17.499
		H55.164z"/>
</g>
</svg>
