<?xml version="1.0" encoding="utf-8"?>
<!-- Generator: Adobe Illustrator 16.0.0, SVG Export Plug-In . SVG Version: 6.00 Build 0)  -->
<!DOCTYPE svg PUBLIC "-//W3C//DTD SVG 1.1//EN" "http://www.w3.org/Graphics/SVG/1.1/DTD/svg11.dtd">
<svg version="1.1" id="Layer_1" xmlns="http://www.w3.org/2000/svg" xmlns:xlink="http://www.w3.org/1999/xlink" x="0px" y="0px"
	 width="60px" height="60px" viewBox="0 0 60 60" enable-background="new 0 0 60 60" xml:space="preserve">
<g>
	<defs>
		<path id="SVGID_71_" d="M29.999,53.5C17.041,53.5,6.5,42.958,6.5,30c0-12.96,10.541-23.5,23.499-23.5
			C42.958,6.5,53.5,17.04,53.5,30C53.5,42.958,42.958,53.5,29.999,53.5z"/>
	</defs>
	<clipPath id="SVGID_2_">
		<use xlink:href="#SVGID_71_"  overflow="visible"/>
	</clipPath>
	<rect x="0.625" y="0.625" clip-path="url(#SVGID_2_)" fill="#FFFCF5" width="58.75" height="58.75"/>
	<polygon clip-path="url(#SVGID_2_)" fill="#EBE0D5" stroke="#553E31" stroke-miterlimit="10" points="-5.787,24.953 59.97,12.835 
		69.278,54.281 -0.841,61.503 	"/>
	<g clip-path="url(#SVGID_2_)">
		
			<rect x="15.11" y="22.109" fill="#CDB8AB" stroke="#553E31" stroke-linecap="round" stroke-linejoin="round" stroke-miterlimit="10" width="4.003" height="4.087"/>
		<path fill="#CDB8AB" stroke="#553E31" stroke-linecap="round" stroke-linejoin="round" stroke-miterlimit="10" d="M23.188,5.708
			c0,0-5.362,10.292-5.884,10.703c-1.016,0.33-2.855,0.797-3.569,1.208c-0.714,0.412-1.675,0.879-1.867,1.62
			s0.082,1.264-0.138,1.538s-0.741,1.407-0.569,2.361c0.117,0.649-0.089,0.914-0.144,1.408c-0.059,0.523,0.296,1.026,0.766,2.016
			c0.297,0.625,0.729,1.499,1.375,2.172c0.645,0.673,1.223,1.405,2.156,1.625s1.805,0.434,2.567,0.303
			c0.48-0.082,2.294-0.236,2.651-0.318c0.356-0.082,0.687-0.154,0.797-0.484c0.109-0.329,0.091-0.766-0.156-1.109
			c-0.247-0.343-0.972-0.806-1.576-0.916c-0.604-0.109-1.208-0.027-1.606-0.014c-0.096-0.395-0.398-1.153-0.755-1.702
			c-0.357-0.55-0.852-1.208-0.893-1.592c-0.041-0.385-0.227-0.989-0.254-1.278c0.261,0.09,0.666,0.275,0.954-0.014
			c0.288-0.288,0.577-0.796,0.728-1.125c0.138,0.137,1.003,0.975,1.112,1.235c-0.261,0.302-0.769,0.879-0.769,1.565
			c0,0.686,0.247,1.016,0.535,1.317s1.332,1.058,2.101,0.92c0.769-0.137,1.085-0.741,1.414-1.249s0.673-0.865,1.085-1.044
			c0.411-0.178,1.387-0.728,1.634-1.111c0.247-0.385,0.7-1.071,0.563-1.854c-0.138-0.783-0.59-1.785-0.659-2.197
			c-0.068-0.411,0.357-0.728,1.003-1.29C26.434,17.839,36.082,5.61,36.082,5.61L23.188,5.708z"/>
		<path fill="none" stroke="#553E31" stroke-linecap="round" stroke-linejoin="round" stroke-miterlimit="10" d="M17.99,27.82
			c0.083,0.508,0.007,1.126-0.35,1.387c-0.357,0.261-0.443,0.21-0.718,0.121c-0.274-0.09-0.579-0.348-0.984-0.656
			s-1.35-1.479-1.734-2.063c-0.385-0.583-1.63-2.635-1.891-3.219c-0.261-0.583-0.294-1.032-0.078-1.797
			c0.203-0.719,0.266-0.719,0.469-1.25"/>
		<path fill="#EBE0D5" stroke="#553E31" stroke-linecap="round" stroke-linejoin="round" stroke-miterlimit="10" d="M16.089,23.248
			c0.261-0.254,1.078-1.476,1.078-2.423"/>
		<path fill="#EBE0D5" stroke="#553E31" stroke-linecap="round" stroke-linejoin="round" stroke-miterlimit="10" d="M17.771,22.109
			c0.344-0.192,0.673-0.618,0.77-1.229"/>
		<path fill="#EBE0D5" stroke="#553E31" stroke-linecap="round" stroke-linejoin="round" stroke-miterlimit="10" d="M18.883,23.345
			c0.521-0.433,0.611-0.433,0.906-0.693s0.714-0.639,0.886-1.074"/>
		<path fill="#CDB8AB" stroke="#553E31" stroke-linecap="round" stroke-linejoin="round" stroke-miterlimit="10" d="M62.761,12.75
			c-2.673,1.392-9.024,5.565-10.142,5.931c-1.116,0.366-6.694,2.287-7.67,2.6c-0.485,0.155-1.153,0.385-1.712,1.318
			c-0.558,0.934-2.399,3.019-2.987,3.675c-0.394,0.439-0.313,2.484-0.453,3.328c-0.101,0.604-0.704,2.284-0.612,2.641
			c0.091,0.357,0.465,0.415,0.841,0.415c0.375,0,1.309-0.183,1.775-0.769s1.281-1.831,1.428-2.398s0.027-0.769,0.385-1.062
			c0.356-0.293,0.833-0.787,0.988-1.29c0.155-0.504,0.339-1.172,0.366-0.897s0.146,0.458-0.11,1.016
			c-0.256,0.559-0.32,1.41-0.54,1.84c-0.219,0.431-1.107,1.804-1.391,2.398c-0.284,0.595-0.567,1.474-0.632,1.913
			c-0.256,0.338-0.439,0.494-0.53,0.521c-0.092,0.027-1.703,0.092-1.73,0.101s0.073,0.76,0.257,1.162
			c0.183,0.403,0.832,1.145,1.812,1.181c0.979,0.037,1.419,0.101,2.014,0.019c0.439,0.092,0.751,0.247,1.474-0.055
			c0.724-0.302,1.867-0.988,2.233-1.272c0.357-0.019,3.012-0.76,3.816-1.089c0.852,0,1.703,0.302,2.463-0.01
			c0.76-0.311,1.116-1.024,1.721-1.528c0.604-0.503,2.764-2.233,3.56-3.881c0.797-1.647,1.429-3.533,4.064-4.878
			c2.636-1.346,6.068-2.828,7.936-3.57c1.867-0.741-4.961-9.116-4.961-9.116L62.761,12.75z"/>
		<path fill="#EBE0D5" stroke="#553E31" stroke-linecap="round" stroke-linejoin="round" stroke-miterlimit="10" d="M44.116,36.392
			c0.641-0.119,0.806-0.183,1.162-0.604c0.357-0.422,1.913-2.901,2.16-3.506"/>
		<path fill="#EBE0D5" stroke="#553E31" stroke-linecap="round" stroke-linejoin="round" stroke-miterlimit="10" d="M47.86,35.062
			c0.503-0.445,1.602-1.681,2.114-2.12"/>
		<path fill="#EBE0D5" stroke="#553E31" stroke-linecap="round" stroke-linejoin="round" stroke-miterlimit="10" d="M17.256,25.505
			c-0.149-0.172,0.889-0.246,1.239-0.109c0.35,0.138,0.687,0.337,1.153,0.467c0.467,0.131,1.009,0.131,1.256,0.124
			s0.439,1.634,0.439,1.634c-0.46-0.056-1.162-0.238-1.695-0.076c-0.247,0.076-1.58,0.32-1.58,0.32S18.1,26.474,17.256,25.505z"/>
		<path fill="#EBE0D5" stroke="#553E31" stroke-linecap="round" stroke-linejoin="round" stroke-miterlimit="10" d="M28.481,29.431
			c-1.538-0.576-4.552-2.06-5.046-2.348s-0.487-0.281-0.583-0.535c-0.097-0.254-0.577-1.119-1.669-0.728
			c-1.091,0.392-1.002,1.833-0.686,2.162c0.315,0.33,0.597,0.666,1.372,0.728c0.412,0.405,3.494,3.357,4.126,4.188
			c0.632,0.831,1.641,2.019,1.97,2.602c0.196,0.923,0.718,1.983,1.524,2.355s1.91,0.387,2.755-0.06
			c0.597,0.109,1.549,0.217,1.872,0.348c0.268,0.261,0.956,0.972,2.227,0.912c1.011-0.047,2.101-0.612,2.563-1.438
			c0.535-0.957,0.674-1.35,0.766-2.031c0.093-0.688,0.156-1.016,0.156-1.016s1.366-0.354,1.792-0.554s0.63-0.524,0.668-0.615
			c0.039-0.092,0.645-1.866,0.809-2.23c-0.508,0.186-4.065,1.111-4.065,1.111s-0.116-0.167-0.219-0.291
			c0-0.309,0.055-2.406,0.055-2.406c0.48-0.042,5.42-1.113,5.653-1.127c0.089-0.288,0.518-1.602,0.504-1.786
			c-0.014-0.186-0.062-0.57-0.096-0.625s-6.014,0.913-6.014,0.913l0.014-0.872c0,0,0.446-0.007,0.516-0.048
			c0.068-0.041-0.172-0.419-0.756-0.515c-0.583-0.097-4.208-0.543-4.208-0.543s-6.452,0.92-6.679,0.988
			c-0.199,0.056,0.377,0.241,0.549,0.262C28.378,26.802,28.481,29.431,28.481,29.431z"/>
		<path fill="#EBE0D5" stroke="#553E31" stroke-linecap="round" stroke-linejoin="round" stroke-miterlimit="10" d="M28.351,26.232
			c1.03,0.22,4.188,0.7,4.188,0.7s5.341-0.728,6.391-0.845"/>
		<path fill="#EBE0D5" stroke="#553E31" stroke-linecap="round" stroke-linejoin="round" stroke-miterlimit="10" d="M32.538,26.933
			c0,0,0.186,7.805,0.233,8.43c0.068,0.178,0.027,1.428,1.346,2.78"/>
		<path fill="#EBE0D5" stroke="#553E31" stroke-linecap="round" stroke-linejoin="round" stroke-miterlimit="10" d="M27.966,35.499
			c-0.083-1.162-0.06-2.147,0.618-2.962"/>
		<path fill="#EBE0D5" stroke="#553E31" stroke-linecap="round" stroke-linejoin="round" stroke-miterlimit="10" d="M28.481,29.431
			c0.062,0.92,0.034,2.13,0.103,2.733"/>
		
			<ellipse fill="#EBE0D5" stroke="#553E31" stroke-linecap="round" stroke-linejoin="round" stroke-miterlimit="10" cx="36.254" cy="34.914" rx="3.056" ry="3.773"/>
		<path fill="#EBE0D5" stroke="#553E31" stroke-linecap="round" stroke-linejoin="round" stroke-miterlimit="10" d="M32.018,40.031
			c-0.159,0.419-0.291,0.809-0.186,1.188"/>
		<path fill="#EBE0D5" stroke="#553E31" stroke-linecap="round" stroke-linejoin="round" stroke-miterlimit="10" d="M34.117,40.278
			c0.416,0.375,0.041,1,0.458,1.167"/>
		<path fill="#EBE0D5" stroke="#553E31" stroke-linecap="round" stroke-linejoin="round" stroke-miterlimit="10" d="M33.172,43.487
			c-0.083,0.297,0.042,1.013,0,1.25"/>
		<path fill="#EBE0D5" stroke="#553E31" stroke-linecap="round" stroke-linejoin="round" stroke-miterlimit="10" d="M35.308,43.777
			c-0.103,0.25,0.064,0.542-0.186,1.042"/>
		<path fill="#EBE0D5" stroke="#553E31" stroke-linecap="round" stroke-linejoin="round" stroke-miterlimit="10" d="M31.914,46.81
			c-0.138,0.428-0.762,1.177-0.554,1.719"/>
		<path fill="#EBE0D5" stroke="#553E31" stroke-linecap="round" stroke-linejoin="round" stroke-miterlimit="10" d="M30.818,42.153
			c-0.208,0.549-0.209,1.099-0.167,1.667"/>
		<path fill="#EBE0D5" stroke="#553E31" stroke-linecap="round" stroke-linejoin="round" stroke-miterlimit="10" d="M34.214,48.404
			c-0.104,0.234-0.062-0.024,0,1.331"/>
		<polygon fill="#CDB8AB" stroke="#553E31" stroke-linecap="round" stroke-linejoin="round" stroke-miterlimit="10" points="
			29.563,26.188 29.521,23.146 33.083,20.417 38.812,21.583 37.62,25.906 32.854,26.668 		"/>
		<g>
			<g>
				<path fill="#553E31" d="M20.557,47.805c0,0-0.311,0.004-0.744-0.169c-0.43-0.178-0.999-0.551-1.703-0.994
					c-0.692-0.46-1.514-1.026-2.273-1.803c-0.754-0.775-1.468-1.741-1.884-2.839c-0.055-0.146-0.103-0.248-0.162-0.432l-0.106-0.385
					c-0.072-0.253-0.144-0.508-0.194-0.803c-0.12-0.567-0.18-1.109-0.185-1.647c-0.014-0.534,0.036-1.055,0.137-1.535
					c0.089-0.482,0.246-0.922,0.407-1.313c0.349-0.778,0.781-1.337,1.094-1.699c0.307-0.343,0.481-0.538,0.481-0.538l0.021-0.024
					c0.079-0.088,0.216-0.096,0.304-0.017c0.083,0.074,0.095,0.197,0.032,0.285c0,0-0.157,0.222-0.433,0.608
					c-0.256,0.373-0.59,0.926-0.82,1.643c-0.103,0.361-0.198,0.757-0.228,1.184c-0.041,0.424-0.03,0.876,0.036,1.338
					c0.057,0.459,0.171,0.941,0.321,1.387c0.126,0.414,0.38,1.035,0.563,1.388c0.422,0.871,1.051,1.615,1.735,2.222
					c0.694,0.6,1.425,1.09,2.086,1.477c0.656,0.398,1.259,0.661,1.643,0.94c0.383,0.28,0.535,0.548,0.535,0.548l0.005,0.008
					c0.215,0.376,0.084,0.854-0.291,1.068C20.815,47.77,20.684,47.803,20.557,47.805z"/>
			</g>
			<g>
				<path fill="#553E31" d="M17.48,46.958c0.566,0.086,1.158,0.098,1.696,0.026c0.54-0.071,1.03-0.257,1.324-0.521l-0.451,0.639l0,0
					c0.011,0.007,0.03-0.077,0.04-0.129c0.014-0.06,0.021-0.125,0.03-0.189c0.013-0.132,0.022-0.27,0.018-0.408
					c-0.006-0.279-0.045-0.567-0.114-0.855c-0.146-0.573-0.41-1.144-0.772-1.67c-0.079-0.111-0.053-0.266,0.059-0.345
					c0.09-0.063,0.211-0.056,0.295,0.007c0.541,0.424,1.031,0.947,1.419,1.572c0.19,0.314,0.354,0.653,0.479,1.016
					c0.064,0.182,0.113,0.37,0.156,0.564c0.019,0.099,0.038,0.197,0.05,0.302c0.013,0.112,0.025,0.192,0.02,0.361l0,0l-0.03,0.155
					c-0.046,0.232-0.212,0.412-0.421,0.484c-0.779,0.271-1.51,0.226-2.155,0.093c-0.65-0.143-1.237-0.368-1.797-0.668
					c-0.113-0.061-0.156-0.202-0.096-0.315c0.048-0.089,0.145-0.134,0.239-0.12L17.48,46.958z"/>
			</g>
		</g>
		<g>
			<g>
				<path fill="#553E31" d="M19.71,33.097c0,0,0.311-0.004,0.744,0.169c0.43,0.178,0.999,0.551,1.703,0.994
					c0.692,0.459,1.514,1.026,2.273,1.803c0.754,0.775,1.468,1.741,1.884,2.839c0.055,0.146,0.103,0.248,0.162,0.432l0.106,0.385
					c0.072,0.253,0.144,0.508,0.194,0.803c0.12,0.567,0.18,1.109,0.185,1.647c0.014,0.534-0.036,1.055-0.137,1.535
					c-0.089,0.482-0.246,0.922-0.407,1.313c-0.349,0.778-0.781,1.337-1.094,1.699c-0.307,0.343-0.481,0.538-0.481,0.538
					l-0.021,0.024c-0.079,0.088-0.215,0.096-0.304,0.017c-0.083-0.074-0.095-0.197-0.032-0.285c0,0,0.157-0.222,0.433-0.608
					c0.256-0.373,0.59-0.926,0.82-1.643c0.103-0.361,0.198-0.757,0.228-1.184c0.041-0.424,0.03-0.876-0.036-1.338
					c-0.057-0.459-0.171-0.941-0.321-1.387c-0.126-0.414-0.38-1.035-0.563-1.388c-0.422-0.871-1.051-1.615-1.735-2.222
					c-0.694-0.6-1.424-1.09-2.086-1.477c-0.656-0.399-1.26-0.661-1.643-0.94c-0.383-0.28-0.535-0.548-0.535-0.548l-0.005-0.008
					c-0.215-0.376-0.084-0.854,0.291-1.068C19.451,33.133,19.583,33.099,19.71,33.097z"/>
			</g>
			<g>
				<path fill="#553E31" d="M22.786,33.943c-0.566-0.086-1.158-0.098-1.696-0.026c-0.54,0.071-1.03,0.257-1.324,0.521l0.451-0.639
					l0,0c-0.011-0.007-0.03,0.077-0.04,0.13c-0.014,0.059-0.021,0.124-0.03,0.188c-0.013,0.132-0.022,0.269-0.018,0.408
					c0.006,0.279,0.045,0.567,0.114,0.855c0.146,0.573,0.41,1.144,0.772,1.67c0.079,0.111,0.053,0.266-0.059,0.345
					c-0.09,0.063-0.211,0.056-0.295-0.007c-0.54-0.424-1.031-0.947-1.419-1.572c-0.19-0.314-0.354-0.653-0.479-1.017
					c-0.064-0.181-0.113-0.369-0.156-0.563c-0.019-0.099-0.038-0.197-0.05-0.302c-0.013-0.112-0.025-0.192-0.02-0.361l0,0
					l0.03-0.155c0.046-0.232,0.212-0.411,0.421-0.485c0.779-0.271,1.51-0.225,2.155-0.092c0.65,0.143,1.237,0.368,1.797,0.668
					c0.113,0.061,0.156,0.202,0.096,0.315c-0.048,0.089-0.145,0.134-0.239,0.12L22.786,33.943z"/>
			</g>
		</g>
	</g>
</g>
</svg>
