<?xml version="1.0" encoding="utf-8"?>
<!-- Generator: Adobe Illustrator 16.0.0, SVG Export Plug-In . SVG Version: 6.00 Build 0)  -->
<!DOCTYPE svg PUBLIC "-//W3C//DTD SVG 1.1//EN" "http://www.w3.org/Graphics/SVG/1.1/DTD/svg11.dtd">
<svg version="1.1" id="Layer_1" xmlns="http://www.w3.org/2000/svg" xmlns:xlink="http://www.w3.org/1999/xlink" x="0px" y="0px"
	 width="60px" height="60px" viewBox="0 0 60 60" enable-background="new 0 0 60 60" xml:space="preserve">
<g>
	<defs>
		<path id="SVGID_13_" d="M30,53.5c-12.958,0-23.5-10.54-23.5-23.499C6.5,17.042,17.042,6.5,30,6.5s23.5,10.542,23.5,23.501
			C53.5,42.96,42.958,53.5,30,53.5z"/>
	</defs>
	<clipPath id="SVGID_2_">
		<use xlink:href="#SVGID_13_"  overflow="visible"/>
	</clipPath>
	<rect x="0.625" y="0.625" clip-path="url(#SVGID_2_)" fill="#FFFCF5" width="58.75" height="58.75"/>
	<polygon clip-path="url(#SVGID_2_)" fill="#EBE0D5" stroke="#553E31" stroke-miterlimit="10" points="53.989,16.619 2.019,27.164 
		11.079,56.701 55.872,51.806 	"/>
	<g clip-path="url(#SVGID_2_)">
		<polygon fill="#EBE0D5" stroke="#553E31" stroke-linecap="round" stroke-linejoin="round" stroke-miterlimit="10" points="
			25.035,45.645 24.166,10.986 54.268,18.472 54.361,55.147 		"/>
		<polygon fill="#553E31" stroke="#553E31" stroke-linecap="round" stroke-linejoin="round" stroke-miterlimit="10" points="
			28.435,17.752 50.135,23.657 50.135,46.927 29.083,40.534 		"/>
		<path fill="#EBE0D5" stroke="#553E31" stroke-linecap="round" stroke-linejoin="round" stroke-miterlimit="10" d="M15.848,31.919
			c1.17-3.442,7.283-6.085,14.051-6.085c8.001,0,14.487,3.381,14.487,7.551c0,4.171-6.486,7.552-14.487,7.552
			c-3.879,0-7.284-1.024-9.885-2.318"/>
		<path fill="#CDB8AB" stroke="#553E31" stroke-linecap="round" stroke-linejoin="round" stroke-miterlimit="10" d="M0.953,24.177
			c0,0,7.248,4.836,8.687,5.771c1.442,0.936,3.1,2.141,4.112,2.018c1.013-0.122,3.238-0.038,4.374,0.669
			c1.137,0.704,2.511,2.071,3.523,2.531s2.828,1.146,3.382,1.45c0.509,0.275,0.98,0.924,0.692,1.428
			c-0.277,0.483-0.667,0.837-1.588,0.713c-0.921-0.122-3.216-0.499-3.891-1.082c-0.131-0.11-0.703-0.502-0.829-0.598
			c-0.534-0.399-1.122-0.473-1.52-0.646c0.384,0.121,1.253,0.771,1.382,0.943c0.21,0.288,0.306,0.502,0.332,0.761
			c0.035,0.323,0.325,0.428,0.681,0.621c0.338,0.185,2.094,1.13,4.834,1.68c1.939,0.394,2.688,0.478,3.361,0.509
			c-0.023,0.366-1.313,0.506-2.027,0.574c-0.712,0.069-1.112,0.3-1.642,0.323s-1.503-0.186-2.102-0.201
			c-0.954-0.022-1.275,0-1.781,0.063c-0.943,0.113-1.45,0.268-2.463,0.758c-1.013,0.492-2.349,0.714-3.315,0.046
			c-0.646-0.444-4.104-3.567-4.995-4.213c-0.89-0.645-3.653-2.333-4.911-3.099c-1.259-0.767-5.371-3.193-6.109-3.438
			C-1.595,31.513,0.953,24.177,0.953,24.177z"/>
		
			<ellipse fill="#CDB8AB" stroke="#553E31" stroke-linecap="round" stroke-linejoin="round" stroke-miterlimit="10" cx="30.128" cy="33.399" rx="7.842" ry="3.607"/>
		<path fill="#EBE0D5" stroke="#553E31" stroke-linecap="round" stroke-linejoin="round" stroke-miterlimit="10" d="M14.306,41.15"
			/>
		<g>
			<g>
				<path fill="#CDB8AB" d="M38.24,41.284c0.588-0.249,1.064-0.186,1.61-0.236c0.528-0.041,1.052-0.12,1.568-0.238
					c1.032-0.237,2.046-0.61,3.018-1.102c0.98-0.507,1.906-1.011,2.713-1.759c0.799-0.726,1.538-1.601,2.032-2.556l0.011-0.021
					c0.045-0.087,0.15-0.12,0.236-0.076c0.08,0.041,0.114,0.135,0.085,0.216c-0.403,1.119-1.039,2.085-1.79,2.992
					c-0.744,0.904-1.713,1.676-2.712,2.25c-1.009,0.588-2.089,1.108-3.251,1.414c-0.577,0.158-1.169,0.273-1.764,0.345
					c-0.577,0.063-1.232,0.156-1.772-0.126l-0.028-0.015c-0.295-0.154-0.409-0.519-0.255-0.813
					C38.009,41.432,38.116,41.337,38.24,41.284z"/>
			</g>
			<g>
				<path fill="#CDB8AB" d="M41.064,43.745c-0.605-0.041-1.194-0.155-1.79-0.369c-0.586-0.219-1.199-0.545-1.683-1.149l-0.004-0.005
					c-0.161-0.202-0.17-0.478-0.042-0.687c0.254-0.416,0.493-0.632,0.777-0.883c0.277-0.235,0.575-0.432,0.883-0.597
					c0.621-0.321,1.277-0.511,1.928-0.595c0.119-0.016,0.229,0.069,0.244,0.188c0.013,0.099-0.046,0.191-0.133,0.229
					c-0.563,0.244-1.069,0.574-1.482,0.968c-0.204,0.199-0.385,0.415-0.533,0.642c-0.141,0.21-0.286,0.5-0.311,0.648l-0.046-0.691
					c0.117,0.375,0.444,0.77,0.856,1.092c0.411,0.323,0.906,0.603,1.415,0.808l0.011,0.005c0.105,0.042,0.156,0.162,0.114,0.268
					C41.235,43.701,41.151,43.751,41.064,43.745z"/>
			</g>
		</g>
	</g>
	
		<polyline clip-path="url(#SVGID_2_)" fill="#CDB8AB" stroke="#553E31" stroke-linecap="round" stroke-linejoin="round" stroke-miterlimit="10" points="
		48.243,4.781 24.166,10.986 54.268,18.472 	"/>
</g>
</svg>
