<?xml version="1.0" encoding="utf-8"?>
<!-- Generator: Adobe Illustrator 16.0.0, SVG Export Plug-In . SVG Version: 6.00 Build 0)  -->
<!DOCTYPE svg PUBLIC "-//W3C//DTD SVG 1.1//EN" "http://www.w3.org/Graphics/SVG/1.1/DTD/svg11.dtd">
<svg version="1.1" id="Layer_1" xmlns="http://www.w3.org/2000/svg" xmlns:xlink="http://www.w3.org/1999/xlink" x="0px" y="0px"
	 width="60px" height="60px" viewBox="0 0 60 60" enable-background="new 0 0 60 60" xml:space="preserve">
<g>
	<defs>
		<path id="SVGID_77_" d="M-58.016-38.667c-12.958,0-23.499-10.542-23.499-23.5c0-12.96,10.541-23.5,23.499-23.5
			s23.501,10.54,23.501,23.5C-34.515-49.209-45.058-38.667-58.016-38.667z"/>
	</defs>
	<clipPath id="SVGID_2_">
		<use xlink:href="#SVGID_77_"  overflow="visible"/>
	</clipPath>
</g>
<g>
	<defs>
		<path id="SVGID_89_" d="M29.999,53.5C17.041,53.5,6.5,42.958,6.5,30c0-12.96,10.541-23.5,23.499-23.5
			C42.958,6.5,53.5,17.04,53.5,30C53.5,42.958,42.958,53.5,29.999,53.5z"/>
	</defs>
	<clipPath id="SVGID_4_">
		<use xlink:href="#SVGID_89_"  overflow="visible"/>
	</clipPath>
	<rect x="0.625" y="0.625" clip-path="url(#SVGID_4_)" fill="#FFFCF5" width="58.75" height="58.75"/>
	<polygon clip-path="url(#SVGID_4_)" fill="#EBE0D5" stroke="#553E31" stroke-miterlimit="10" points="-14.436,29.998 
		58.274,20.156 69.003,56.188 -8.588,61.741 	"/>
	<g clip-path="url(#SVGID_4_)">
		<path fill="#EBE0D5" stroke="#553E31" stroke-linecap="round" stroke-linejoin="round" stroke-miterlimit="10" d="M42.384,31.391
			c-2.477-0.027-9.949,0.974-13.396,1.722c-3.446,0.75-9.535-0.854-10.282-0.069c0.436,2.011,1.019,3.923,1.307,4.81
			c0.286,0.887,4.437,3.809,5.352,3.64c0.912-0.167,5.792-1.168,9.739-1.938c3.95-0.77,10.321-1.026,10.492-0.977
			c0.168,0.055,2.357-3.415,2.357-3.415L42.384,31.391z"/>
		<path fill="#EBE0D5" stroke="#553E31" stroke-linecap="round" stroke-linejoin="round" stroke-miterlimit="10" d="M41.327,27.259
			c-2.48-0.051-9.961,0.921-13.409,1.67c-3.445,0.749-8.015,2.301-8.757,3.115c-0.741,0.814-0.484,0.822-0.188,1.75
			c0.297,0.933,4.486,4.032,5.397,3.865c0.914-0.168,5.794-1.165,9.743-1.93c3.95-0.764,10.331-0.971,10.503-0.914
			c0.172,0.056,2.329-3.554,2.329-3.554L41.327,27.259z"/>
		<path fill="none" stroke="#553E31" stroke-linecap="round" stroke-linejoin="round" stroke-miterlimit="10" d="M24.371,37.659
			c0,0,0.221,2.623,0.636,3.796"/>
		<path fill="#CDB8AB" stroke="#553E31" stroke-linecap="round" stroke-linejoin="round" stroke-miterlimit="10" d="M15.621,3.652
			c0,0,1.056,8.297,1.166,9.799c0.107,1.502,0.242,1.506,0.791,2.175c0.548,0.67,1.581,1.804,1.983,2.42
			c0,0,1.221,1.529,1.487,2.292c0.12,0.343-0.009,0.572,0.553,1.306s1.182,2.274,1.289,2.536s0.625,0.485,0.974,0.93
			c0.348,0.443,0.308,0.872,0.021,1.185c-0.283,0.314-1.169,0.259-2.055-0.059c-0.959-0.342-2.261,1.953-2.38,2.18
			c-0.117,0.228-0.237,0.371-0.916,0.719c-0.68,0.349-1.271,0.176-1.866-0.331c-1.274,0.545-1.868,0.204-2.259,0.104
			c-0.391-0.101-0.849-0.051-1.443-0.006c-0.593,0.046-1.448-0.725-1.671-1.062c-0.282-0.139-0.938-0.449-1.75-0.944
			c-0.81-0.493-1.761-1.545-1.954-1.974c-0.192-0.427-0.904-1.076-1.146-1.493c-0.241-0.419-0.178-0.657-0.204-1.821
			s1.053-4.529,1.363-5.88c0.311-1.349,0.332-7.504,0.332-7.504L15.621,3.652z"/>
		<path fill="none" stroke="#553E31" stroke-linecap="round" stroke-linejoin="round" stroke-miterlimit="10" d="M8.771,24.097
			c0.172,0.248,1.739,2.757,2.016,3.101c0.275,0.342,0.51,0.643,0.51,0.643"/>
		<path fill="none" stroke="#553E31" stroke-linecap="round" stroke-linejoin="round" stroke-miterlimit="10" d="M10.879,23.388
			c0.224,0.706,0.759,2.484,1.101,3.281c0.341,0.798,0.806,1.702,1.134,1.899s0.583,0.284,0.583,0.284"/>
		<path fill="none" stroke="#553E31" stroke-linecap="round" stroke-linejoin="round" stroke-miterlimit="10" d="M13.755,22.108
			c0.202,0.693,0.694,2.731,0.906,3.323c0.213,0.591,0.922,1.695,1.298,2.267c0.376,0.573,0.71,1.104,0.71,1.104"/>
		<path fill="none" stroke="#553E31" stroke-linecap="round" stroke-linejoin="round" stroke-miterlimit="10" d="M17.873,20.609
			c-0.106,0.325-0.229,0.527-0.079,0.989c0.151,0.462,0.812,1.771,0.836,2.342"/>
		<path fill="#CDB8AB" stroke="#553E31" stroke-linecap="round" stroke-linejoin="round" stroke-miterlimit="10" d="M65.938,26.751
			c-2.482,0.71-6.809,2.689-8.784,2.628c-1.977-0.063-3.443-0.448-5.31-0.821c-1.867-0.374-3.421-0.747-4.452-0.69
			c-0.633,0.034-1.259,0.51-1.919,0.54c-0.66,0.031-3.359,0.165-3.991,0.326c-0.631,0.163-1.705,1.063-2.377,1.385
			c-0.674,0.322-1.892,0.901-2.257,1.019c-0.364,0.116-0.7,0.541-0.335,1.116c0.363,0.575,0.712,0.853,1.425,0.886
			c0.711,0.033,2.933,0.243,4.351-0.632c0.179,0.062,0.916,0.217,1.579,0.085c0.663-0.131,1.125-0.144,1.414-0.32
			c0.364,0.11,0.322,0.148,0.59,0.225c0.107,0.407,0.445,0.722-0.22,1.192c-0.663,0.472-1.856,1.12-2.374,1.283
			c-0.519,0.163-3.032,0.569-4.141,1.553c-0.774,0.132-2.071,0.3-3.458,1.041c-0.797,0.147-2.037,0.518-2.909,0.96
			c-0.873,0.439-1.18,0.646-1.262,1.082c-0.064,0.352,0.07,0.781,0.19,0.798c0.257,0.033,0.154,0.092,1.711,0.081
			c1.557-0.012,4.453-0.402,5.069-0.285c0.473,0.324,1.427,0.835,2.536,1.022c0.429,0.358,1.335,0.702,2.683,1.001
			c1.346,0.298,2.886,0.667,3.745,0.972c0.857,0.304,1.257,0.581,2.387,0.224c1.13-0.359,3.447-0.398,5.951-1.835
			c2.505-1.437,4.986-2.756,9.236-3.565c4.251-0.811,5.077-1.116,5.077-1.116L67.869,26.37C67.869,26.37,67.04,26.437,65.938,26.751
			z"/>
		<path fill="none" stroke="#553E31" stroke-linecap="round" stroke-linejoin="round" stroke-miterlimit="10" d="M45.565,38.784
			c-1.692,0.619-4.104,1.26-5.138,1.434c-1.035,0.176-1.232-0.004-1.948-0.017"/>
		<path fill="none" stroke="#553E31" stroke-linecap="round" stroke-linejoin="round" stroke-miterlimit="10" d="M50.158,41.323
			c-0.379,0.266-0.771,0.62-1.889,0.41c-1.119-0.209-5.253-0.25-7.254-0.51"/>
		<path fill="#553E31" stroke="#553E31" stroke-linecap="round" stroke-linejoin="round" stroke-miterlimit="10" d="M19.096,23.999
			c0.666,0.379,0.548,0.45,1.46,0.854c0.953,0.423,1.233,0.533,1.673,0.771c0.316,0.172,0.797,0.558,0.797,0.558
			s-0.52-0.041-0.768,0.089s-1.006,0.478-1.68,1.153c-0.675,0.675,0.494,0.667-0.104,0.896c-0.786,0.303-0.776-0.459-0.906-0.757
			c-0.132-0.299-0.28-0.659-0.419-1.057c-0.151-0.438-0.258-1.62-0.372-1.872c-0.11-0.251-0.136-0.488-0.147-0.695
			C18.764,23.938,18.913,23.896,19.096,23.999z"/>
		<path fill="#CDB8AB" stroke="#553E31" stroke-linecap="round" stroke-linejoin="round" stroke-miterlimit="10" d="M27.11,30.563
			c-0.603,0.697-0.529,0.754-1.61,1.03c-1.083,0.278-2.908,0.254-3.436,1.031c-0.524,0.781,0.586,1.914,1.627,2.527
			c1.037,0.611,1.485-0.678,3.35-0.931c1.867-0.254,3.373,0.386,3.94-0.21c0.565-0.597,3.348-0.954,1.923-1.393"/>
		<path fill="#CDB8AB" stroke="#553E31" stroke-linecap="round" stroke-linejoin="round" stroke-miterlimit="10" d="M20.235,28.092
			c1.277,0.425,5.229,2.044,7.688,2.811c2.456,0.767,4.498,1.536,5.239,1.716c0.903,0.215,2.354-0.903,0.869-1.673
			c-1.486-0.769-11.218-4.51-11.218-4.51l-1.011,0.182l-1.993,1.339L20.235,28.092z"/>
	</g>
</g>
</svg>
