<?xml version="1.0" encoding="utf-8"?>
<!-- Generator: Adobe Illustrator 16.0.0, SVG Export Plug-In . SVG Version: 6.00 Build 0)  -->
<!DOCTYPE svg PUBLIC "-//W3C//DTD SVG 1.1//EN" "http://www.w3.org/Graphics/SVG/1.1/DTD/svg11.dtd">
<svg version="1.1" id="Layer_1" xmlns="http://www.w3.org/2000/svg" xmlns:xlink="http://www.w3.org/1999/xlink" x="0px" y="0px"
	 width="60px" height="60px" viewBox="0 0 60 60" enable-background="new 0 0 60 60" xml:space="preserve">
<g>
	<defs>
		<path id="SVGID_91_" d="M29.999,53.5C17.041,53.5,6.5,42.958,6.5,30c0-12.96,10.541-23.5,23.499-23.5
			C42.958,6.5,53.5,17.04,53.5,30C53.5,42.958,42.958,53.5,29.999,53.5z"/>
	</defs>
	<clipPath id="SVGID_2_">
		<use xlink:href="#SVGID_91_"  overflow="visible"/>
	</clipPath>
	<rect x="0.625" y="0.625" clip-path="url(#SVGID_2_)" fill="#FFFCF5" width="58.75" height="58.75"/>
	<polygon clip-path="url(#SVGID_2_)" fill="#EBE0D5" stroke="#553E31" stroke-miterlimit="10" points="-14.436,25.998 
		58.274,16.156 69.003,52.188 -8.588,57.741 	"/>
	
		<path clip-path="url(#SVGID_2_)" fill="#EBE0D5" stroke="#553E31" stroke-linecap="round" stroke-linejoin="round" stroke-miterlimit="10" d="
		M24.298,25.337c0.702-0.977,2.219-1.034,3.506-1.292c0.819-0.166,1.329,0.033,2.131,0.923c0.306,0.922,0.763,1.071,0.832,1.969
		c0.232-0.993,0.292-1.201,1.226-1.69c-0.204-2.511,2.564-0.436,3.063-0.521c1.396-0.241,1.125-0.613,2.453,0.544
		c1.327,1.158,2.009,2.248,1.668,4.086s-1.465,3.983-2.384,5.55c-0.919,1.565-1.371,2.556-2.997,2.109
		c-2.859-0.781-4.73-0.1-5.992-0.407c-1.469-0.357-3.131-3.982-3.78-5.142C23.377,30.308,22.629,27.653,24.298,25.337z"/>
	<g clip-path="url(#SVGID_2_)">
		<path fill="#CDB8AB" stroke="#553E31" stroke-linecap="round" stroke-linejoin="round" stroke-miterlimit="10" d="M63.665,31.547
			c-3.208-1.171-8.077-2.378-9.172-3.32c-1.096-0.943-3.173-3.286-4.153-4.04c-0.982-0.755-1.492-0.924-1.943-1.321
			c-0.453-0.397-0.907-0.831-2.001-0.943c-1.096-0.114-2.624-0.644-3.682-1.132c-1.058-0.491-2.377-0.813-3.207-0.36
			c-0.832,0.454-3.493,1.982-4.152,2.775c-0.66,0.792-1.283,1.926-1.53,2.623c-0.244,0.699-0.226,1.039,0.038,1.208
			c0.265,0.17,0.753,0.397,1.227,0.17c0.473-0.226,1.642-0.812,2.435-1.944c0.795-0.377,1.605-0.49,2.358-1.207
			c0.285,0.188,0.115,0.132,0.511,0.435c-0.511,0.131-1.662,0.811-2.642,1.472c-0.982,0.66-3.076,1.925-3.568,2.643
			c-0.49,0.718-0.51,0.887-0.51,0.887s-0.431,1.08-0.056,1.567c0.51,0.661,1.113,0.848,1.662,0.528
			c0.547-0.322,1.944-1.418,2.623-1.755c0.678-0.341,2.565-1.211,3.943-1.491c-1.754,0.734-2.699,1.434-3.378,1.812
			c-0.679,0.377-2.34,1.51-2.869,1.98c-0.528,0.472-0.868,1.001-0.904,1.398c-0.04,0.396-0.135,0.847,0.3,1.151
			c0.436,0.302,0.813,0.376,1.434,0.019c0.623-0.359,0.775-0.473,1.077-0.604c-0.113,0.281,0.073,0.698,0.282,0.748
			c0.393,0.093,1.588,0.498,5.021-0.162c2.85,0.019,2.625,0.074,3.322,0.056c0.529,0.356,2.169,2,4.474,2.871
			c2.303,0.867,3.718,0.337,6.153,0.696c2.436,0.357,8.021,2.772,8.021,2.772l0.604-8.927L63.665,31.547z"/>
		<path fill="none" stroke="#553E31" stroke-linecap="round" stroke-linejoin="round" stroke-miterlimit="10" d="M46.641,31.189
			c-0.756,0.113-2.171,0.754-3.19,0.905c-1.019,0.151-3.472,0.659-5.945,2.001"/>
		<path fill="none" stroke="#553E31" stroke-linecap="round" stroke-linejoin="round" stroke-miterlimit="10" d="M45.716,27.547
			c-0.736,0.131-2.69,0.462-3.87,0.793"/>
		<path fill="none" stroke="#553E31" stroke-linecap="round" stroke-linejoin="round" stroke-miterlimit="10" d="M43.904,23.903
			c-0.717,0.076-2.284,0-3.512,0.586"/>
	</g>
	<g clip-path="url(#SVGID_2_)">
		<path fill="#CDB8AB" stroke="#553E31" stroke-linecap="round" stroke-linejoin="round" stroke-miterlimit="10" d="M-0.829,24.903
			c1.378,0.077,5.285,0.077,6.928,0.037c1.64-0.037,2.772-0.15,3.98-0.999c1.209-0.851,3.908-2.869,4.832-3.096
			c0.927-0.227,2.945-0.718,3.833-1.113c0.887-0.396,3.453-1.624,4.284-1.849c0.831-0.229,0.868-0.135,1.265,0.111
			c0.397,0.246,2.039,1.643,2.605,2.323c0.564,0.679,1.111,1.867,1.245,3.057c0.132,1.189,0.151,2.285-0.151,2.548
			c-0.302,0.265-0.585,0.454-0.905,0.284c0.206,0.357,0.585,1.303,0.717,1.925c0.131,0.622,0.169,1.32,0.02,1.755
			c-0.151,0.434-0.807,1.054-1.435,0.698C25.52,30.094,24.952,29.34,24.218,28c-0.793-0.528-1.851-1.246-2.396-2.039
			c-0.548,0-1.588-0.169-2.322-0.397c0.849,0.359,1.386,0.624,2.227,1.304c0.911,0.736,2.261,1.897,3.016,3.028
			c0.754,1.133,1.044,2.313,1.1,2.881c0.058,0.563-0.038,1.168-0.623,1.375c-0.66,0.236-1.227-0.018-1.586-0.282
			c-0.48-0.354-0.604-0.775-0.981-1.208c0.152,0.528,0.358,1.15,0.283,1.435c-0.075,0.281-0.377,0.717-0.867,0.66
			c-0.491-0.056-0.962-0.34-1.926-1.037c-0.961-0.698-3.04-1.566-3.868-1.643c-0.833-0.075-2.795,0.056-3.795,0.624
			c-1,0.564-2.869,1.244-4.68,1.055c-1.813-0.187-1.9-0.305-2.513-0.187c-1.284,0.243-5.057,1.489-6.756,1.83
			C-3.17,35.736-2.773,24.94-2.773,24.94L-0.829,24.903z"/>
		<path fill="none" stroke="#553E31" stroke-linecap="round" stroke-linejoin="round" stroke-miterlimit="10" d="M25.407,24.371
			c0.604,0.683,1.245,1.391,1.68,1.836"/>
		<path fill="none" stroke="#553E31" stroke-linecap="round" stroke-linejoin="round" stroke-miterlimit="10" d="M19.404,21.354
			c0.698-0.019,1.794,0.133,2.435,0.322c0.346,0.101,0.811,0.255,1.272,0.497"/>
		<path fill="#EBE0D5" stroke="#553E31" stroke-linecap="round" stroke-linejoin="round" stroke-miterlimit="10" d="M25.407,24.371
			c-0.36-0.663-0.322-0.958-0.416-1.468c-0.395-0.094-1.076-0.643-1.283-0.925c-0.45,0.273-0.597,0.195-0.597,0.195l0,0
			c0.397,0.208,0.792,0.482,1.106,0.842C24.529,23.377,24.958,23.868,25.407,24.371L25.407,24.371z"/>
		<path fill="none" stroke="#553E31" stroke-linecap="round" stroke-linejoin="round" stroke-miterlimit="10" d="M16.348,28.451
			c0.772,0.266,2.094,0.757,3.207,1.416c1.113,0.661,2.039,1.379,3.096,2.794"/>
	</g>
	
		<path clip-path="url(#SVGID_2_)" fill="none" stroke="#553E31" stroke-linecap="round" stroke-linejoin="round" stroke-miterlimit="10" d="
		M30.971,32.396c0.203-0.425-0.438-1.5-0.438-1.5l0.846-1.269c0,0-1.055-1.304-0.612-2.69"/>
	
		<path clip-path="url(#SVGID_2_)" fill="#EBE0D5" stroke="#553E31" stroke-linecap="round" stroke-linejoin="round" stroke-miterlimit="10" d="
		M25.137,42.002c-1.167,0.916-1.916,1.167-1.75,2s-0.333,1.417-0.5,2.25s0.416,1.999,0.833,1.916s1.584-0.25,1.917-0.583
		s1.416-1.917,0.666-2.25s0.666-1.5,0.5-2S25.137,42.002,25.137,42.002z"/>
	
		<path clip-path="url(#SVGID_2_)" fill="#EBE0D5" stroke="#553E31" stroke-linecap="round" stroke-linejoin="round" stroke-miterlimit="10" d="
		M34.091,40.315c-0.396-0.774-0.455-0.268-2.25,0.084c-1.796,0.353-2.918,0.336-2.981,1.276c-0.062,0.94-0.313,1.161-0.087,2.18
		c0.226,1.02,0.831,1.71,1.756,1.122s1.059-0.813,1.239-1.747c0.181-0.933,1.662-0.124,1.992-0.634
		C34.089,42.087,34.717,41.539,34.091,40.315z"/>
	
		<path clip-path="url(#SVGID_2_)" fill="#EBE0D5" stroke="#553E31" stroke-linecap="round" stroke-linejoin="round" stroke-miterlimit="10" d="
		M38.754,47.641c-0.041-0.806,0.145-1.925-0.601-2.78c-0.744-0.855-1.622-1.297-2.742-1.044c-1.121,0.254-1.26,2.868-2.537,2.789
		c-1.276-0.078-2.823,1.113-2.792,2.107c0.03,0.996,0.459,2.067,1.048,2.15c0.589,0.086,0.952,0.484,1.883-0.219
		c0.932-0.703,1.288-0.552,2.009-0.441c0.722,0.109,1.087,0.067,1.47-0.354c0.382-0.421,0.125-0.224,1.121-0.693
		S38.754,47.641,38.754,47.641z"/>
	<g clip-path="url(#SVGID_2_)">
		<g>
			<path fill="#553E31" d="M19.845,11.35c0-0.001,0.211-0.116,0.562-0.144c0.352-0.023,0.841,0.071,1.459,0.161
				c0.308,0.045,0.644,0.109,1.003,0.2c0.358,0.07,0.731,0.21,1.113,0.338c0.367,0.168,0.762,0.319,1.12,0.534
				c0.362,0.211,0.734,0.416,1.063,0.674l0.505,0.366c0.2,0.163,0.304,0.266,0.467,0.42c0.321,0.326,0.588,0.637,0.812,0.968
				c0.459,0.653,0.771,1.314,0.993,1.891c0.44,1.154,0.538,1.969,0.538,1.969l0.001,0.011c0.014,0.11-0.065,0.21-0.175,0.223
				c-0.1,0.012-0.191-0.052-0.217-0.146c0,0-0.207-0.757-0.772-1.765c-0.279-0.501-0.656-1.056-1.141-1.555
				c-0.234-0.255-0.516-0.486-0.773-0.682c-0.313-0.228-0.611-0.395-0.95-0.591c-0.319-0.204-0.656-0.354-0.984-0.509
				c-0.325-0.16-0.665-0.252-0.982-0.368c-0.334-0.071-0.638-0.185-0.954-0.224c-0.306-0.061-0.604-0.102-0.888-0.127
				c-0.56-0.076-1.06-0.057-1.397-0.153c-0.34-0.094-0.523-0.247-0.523-0.247c-0.32-0.27-0.362-0.747-0.094-1.067
				C19.688,11.454,19.766,11.393,19.845,11.35z"/>
		</g>
		<g>
			<path fill="#553E31" d="M22.78,10.959c-0.506,0.159-1.005,0.391-1.417,0.668c-0.413,0.277-0.73,0.63-0.837,0.946l0.175-0.866l0,0
				c-0.019-0.017-0.007,0.063,0,0.106c0.006,0.052,0.021,0.108,0.033,0.165c0.03,0.112,0.066,0.23,0.116,0.346
				c0.095,0.232,0.222,0.463,0.375,0.685c0.313,0.438,0.732,0.838,1.226,1.166l0.004,0.004c0.129,0.085,0.163,0.259,0.077,0.388
				c-0.065,0.099-0.185,0.142-0.294,0.118c-0.629-0.142-1.26-0.39-1.848-0.771c-0.291-0.193-0.57-0.42-0.826-0.685
				c-0.13-0.131-0.249-0.275-0.365-0.429c-0.058-0.078-0.114-0.156-0.168-0.245c-0.057-0.095-0.101-0.156-0.166-0.317v-0.001
				l-0.043-0.194c-0.055-0.255,0.037-0.509,0.219-0.672c0.604-0.541,1.273-0.765,1.891-0.88c0.625-0.106,1.217-0.115,1.813-0.051
				c0.145,0.016,0.25,0.146,0.234,0.291c-0.012,0.107-0.087,0.192-0.184,0.224L22.78,10.959z"/>
		</g>
	</g>
	<g clip-path="url(#SVGID_2_)">
		<g>
			<path fill="#553E31" d="M39.782,12.594c0,0-0.184,0.154-0.523,0.248c-0.338,0.097-0.838,0.077-1.397,0.153
				c-0.283,0.025-0.582,0.066-0.888,0.127c-0.316,0.039-0.62,0.152-0.954,0.224c-0.317,0.116-0.657,0.208-0.982,0.368
				c-0.328,0.155-0.665,0.305-0.984,0.509c-0.339,0.196-0.637,0.363-0.95,0.591c-0.258,0.195-0.539,0.427-0.773,0.682
				c-0.484,0.499-0.861,1.054-1.141,1.555c-0.565,1.008-0.772,1.765-0.772,1.765c-0.029,0.106-0.14,0.169-0.246,0.14
				c-0.097-0.026-0.157-0.119-0.146-0.217l0.001-0.011c0,0,0.098-0.814,0.538-1.969c0.222-0.576,0.534-1.237,0.993-1.891
				c0.224-0.331,0.49-0.642,0.812-0.968c0.163-0.154,0.267-0.257,0.467-0.42l0.505-0.366c0.328-0.258,0.7-0.463,1.063-0.674
				c0.358-0.215,0.753-0.366,1.12-0.534c0.382-0.128,0.755-0.268,1.113-0.338c0.359-0.091,0.695-0.155,1.003-0.2
				c0.618-0.09,1.107-0.185,1.459-0.161c0.351,0.027,0.562,0.143,0.562,0.144c0.367,0.2,0.502,0.66,0.301,1.027
				C39.914,12.461,39.851,12.536,39.782,12.594z"/>
		</g>
		<g>
			<path fill="#553E31" d="M36.759,10.439c0.597-0.064,1.188-0.056,1.813,0.051c0.617,0.115,1.286,0.339,1.891,0.88
				c0.195,0.174,0.27,0.433,0.219,0.671l-0.043,0.195v0.001c-0.065,0.161-0.109,0.223-0.166,0.317
				c-0.054,0.089-0.11,0.167-0.168,0.245c-0.116,0.153-0.235,0.298-0.365,0.429c-0.256,0.265-0.535,0.491-0.826,0.685
				c-0.588,0.382-1.219,0.63-1.848,0.771c-0.151,0.033-0.301-0.062-0.335-0.212c-0.025-0.116,0.024-0.231,0.117-0.294l0.005-0.004
				c0.493-0.328,0.912-0.729,1.226-1.166c0.153-0.222,0.28-0.452,0.375-0.685c0.05-0.115,0.086-0.233,0.116-0.346
				c0.013-0.057,0.027-0.113,0.033-0.165c0.007-0.043,0.019-0.123,0-0.106l0,0l0.175,0.866c-0.106-0.316-0.424-0.669-0.837-0.946
				c-0.412-0.277-0.911-0.509-1.417-0.668l-0.016-0.005c-0.139-0.044-0.217-0.192-0.173-0.331
				C36.567,10.52,36.658,10.45,36.759,10.439z"/>
		</g>
	</g>
</g>
</svg>
