<?xml version="1.0" encoding="utf-8"?>
<!-- Generator: Adobe Illustrator 16.0.0, SVG Export Plug-In . SVG Version: 6.00 Build 0)  -->
<!DOCTYPE svg PUBLIC "-//W3C//DTD SVG 1.1//EN" "http://www.w3.org/Graphics/SVG/1.1/DTD/svg11.dtd">
<svg version="1.1" id="Layer_1" xmlns="http://www.w3.org/2000/svg" xmlns:xlink="http://www.w3.org/1999/xlink" x="0px" y="0px"
	 width="60px" height="60px" viewBox="0 0 60 60" enable-background="new 0 0 60 60" xml:space="preserve">
<g>
	<defs>
		<path id="SVGID_29_" d="M29.999,53.5C17.041,53.5,6.5,42.958,6.5,30c0-12.959,10.541-23.5,23.499-23.5
			C42.958,6.5,53.5,17.041,53.5,30C53.5,42.958,42.958,53.5,29.999,53.5z"/>
	</defs>
	<clipPath id="SVGID_2_">
		<use xlink:href="#SVGID_29_"  overflow="visible"/>
	</clipPath>
	<rect x="0.625" y="0.625" clip-path="url(#SVGID_2_)" fill="#FFFCF5" width="58.75" height="58.75"/>
	<g clip-path="url(#SVGID_2_)">
		<g>
			<path fill="#553E31" d="M21.753,26.62c-0.369-0.617-0.297-1.373-0.261-2.042c0.042-0.689,0.122-1.375,0.234-2.052
				c0.217-1.356,0.606-2.662,1.038-3.931c0.429-1.276,0.959-2.482,1.578-3.69c0.613-1.206,1.394-2.346,2.319-3.309
				c0.086-0.09,0.228-0.094,0.318-0.008c0.081,0.077,0.091,0.203,0.029,0.292c-0.749,1.063-1.313,2.212-1.709,3.432
				c-0.391,1.217-0.716,2.499-1.068,3.73c-0.335,1.242-0.581,2.494-0.739,3.739c-0.075,0.624-0.119,1.247-0.13,1.87
				c-0.017,0.643,0.074,1.202-0.21,1.896c-0.162,0.396-0.614,0.585-1.01,0.423c-0.162-0.066-0.289-0.18-0.371-0.319L21.753,26.62z"
				/>
		</g>
		<g>
			<path fill="#553E31" d="M20.521,23.166c0.264,0.601,0.616,1.184,1.02,1.664c0.401,0.481,0.885,0.86,1.342,0.99l-0.81-0.025
				c0.18-0.037,0.52-0.226,0.767-0.403c0.265-0.189,0.514-0.417,0.743-0.671c0.457-0.51,0.822-1.136,1.088-1.82
				c0.049-0.132,0.196-0.199,0.328-0.15c0.109,0.041,0.174,0.152,0.164,0.263c-0.074,0.779-0.27,1.573-0.634,2.324
				c-0.184,0.375-0.405,0.738-0.675,1.078c-0.29,0.347-0.537,0.641-1.021,0.959c-0.253,0.167-0.574,0.149-0.804-0.021l-0.007-0.005
				c-0.741-0.548-1.156-1.264-1.444-1.953c-0.282-0.701-0.445-1.398-0.522-2.12c-0.014-0.132,0.082-0.25,0.214-0.265
				c0.106-0.011,0.204,0.049,0.245,0.142L20.521,23.166z"/>
		</g>
	</g>
	
		<polygon clip-path="url(#SVGID_2_)" fill="#EBE0D5" stroke="#553E31" stroke-width="0.917" stroke-linecap="round" stroke-linejoin="round" stroke-miterlimit="10" points="
		-6.679,34.688 56.024,25.101 77.837,55.213 2.741,67.548 	"/>
	
		<path clip-path="url(#SVGID_2_)" fill="#CDB8AB" stroke="#553E31" stroke-width="0.917" stroke-linecap="round" stroke-linejoin="round" stroke-miterlimit="10" d="
		M53.73,45.388c-0.701-1-1.382-1.999-1.908-3.107c-0.535-1.128-1.208-2.224-2.478-2.679l-0.337-0.225
		c-1.035-1.145-2.744-1.611-4.201-1.976c-0.712-0.179-1.426-0.33-2.115-0.59c-0.357-0.135-0.974-0.415-1.046,0.197
		c-0.042,0.361,0.226,0.716,0.259,1.07c0.099,1.104-1.399,1.637-2.235,1.861c-0.642,0.173-1.325,0.246-1.987,0.246
		c-2.014,0-3.689-0.688-4.147-1.61c-0.015,0.006-0.029,0.014-0.045,0.021c-1.623,0.688-3.325,0.788-5.045,1.058
		c-0.665,0.105-1.357-0.099-2.029,0.031c-1.177,0.227-0.239,1.228-0.239,1.941c0,1.166-1.916,2.111-4.279,2.111
		c-0.813,0-1.643-0.109-2.418-0.359c-0.478-0.155-0.994-0.352-1.367-0.703c-0.448-0.422-0.568-1.129-1.315-1.154
		c-0.777-0.024-1.428,0.643-2.063,1c-0.691,0.389-1.37,0.776-2.016,1.239c-1.347,0.966-3.035,2.286-3.267,4.051
		c-0.059,0.448-0.014,0.9,0.086,1.34c0.098,0.43,0.214,1.004,0.443,1.386c1.269,2.107,3.86,2.264,6.102,2.09
		c1.341-0.104,2.636-0.245,3.951,0.081c1.232,0.306,2.421,0.847,3.681,1.027c4.232,0.606,8.675,0.891,12.944,0.785
		c2.65-0.066,5.294-0.461,7.915-0.846c2.227-0.324,4.539-0.167,6.669-0.991c1.525-0.591,2.804-1.813,3.325-3.384
		C55.044,47.855,54.57,46.588,53.73,45.388z"/>
	
		<ellipse clip-path="url(#SVGID_2_)" fill="#EBE0D5" stroke="#553E31" stroke-width="0.917" stroke-linecap="round" stroke-linejoin="round" stroke-miterlimit="10" cx="31.55" cy="42.722" rx="4.281" ry="2.111"/>
	
		<path clip-path="url(#SVGID_2_)" fill="#EBE0D5" stroke="#553E31" stroke-width="0.917" stroke-linecap="round" stroke-linejoin="round" stroke-miterlimit="10" d="
		M27.386,43.102c0.447-0.931,2.142-1.623,4.165-1.623c2.038,0,3.744,0.703,4.174,1.644"/>
	
		<ellipse clip-path="url(#SVGID_2_)" fill="#CDB8AB" stroke="#553E31" stroke-width="0.9635" stroke-linecap="round" stroke-linejoin="round" stroke-miterlimit="10" cx="31.963" cy="36.253" rx="4.281" ry="2.33"/>
	
		<polyline clip-path="url(#SVGID_2_)" fill="#CDB8AB" stroke="#553E31" stroke-width="0.9635" stroke-linecap="round" stroke-linejoin="round" stroke-miterlimit="10" points="
		27.683,36.253 27.683,30.31 36.244,30.31 36.244,36.253 	"/>
	
		<ellipse clip-path="url(#SVGID_2_)" fill="#EBE0D5" stroke="#553E31" stroke-width="0.9635" stroke-linecap="round" stroke-linejoin="round" stroke-miterlimit="10" cx="31.963" cy="30.31" rx="4.281" ry="2.332"/>
	
		<path clip-path="url(#SVGID_2_)" fill="#CDB8AB" stroke="#553E31" stroke-width="0.917" stroke-linecap="round" stroke-linejoin="round" stroke-miterlimit="10" d="
		M40.953-5.655c0,0-3.401,9.346-4.262,11.028c-0.857,1.679-1.563,3.417-2.609,4.994c-0.793,1.194-1.688,2.315-2.501,3.495
		c-1.004,1.453-1.837,2.959-2.973,4.321c-0.637,0.765-0.637,1.773-0.79,2.71c-0.166,1.006-0.404,2.006-0.509,3.021
		c-0.113,1.085-0.785,2.356-0.935,2.878c-0.15,0.524-0.226,1.46-0.226,2.281c0,0.823-0.298,1.907,0.112,2.692
		c0.411,0.785,0.563,1.568,0.973,1.831c0,0,0.823,0.356,0.86-0.224c0.037-0.579,0.019-1.046-0.056-1.606
		c-0.076-0.561-0.001-1.831,0.187-2.243c0.187-0.411,0.374-1.066,0.71-1.478c0.337-0.411,1.326-2.018,1.589-3.027
		c-0.299,1.028-0.598,2.244-0.804,2.86c-0.206,0.618-0.431,1.587-0.374,2.111c0.056,0.524-0.111,1.196-0.242,1.758
		c-0.132,0.561-0.319,1.661,0.13,2.409c0.448,0.749,0.673,0.767,1.141,0.843c0,0,0.879-0.15,1.103-1.084
		c0.225-0.936,1.047-3.514,1.271-4.131c0.224-0.617,0.747-2.223,0.878-2.69c0.132-0.469,0.449-1.367,0.636-1.703
		c0.186-0.337,0.431-0.729,0.616-0.897c0.188-0.167,0.879-0.392,1.178-0.056c0.3,0.336,0.467,0.991,0.448,1.478
		c-0.018,0.485-0.279,1.907-0.336,2.374c-0.056,0.467-0.447,1.779-0.402,2.361c0.036,0.458,0.029,1.083,0.347,1.325
		c0.317,0.245,0.709,0.406,0.915,0.146c0.206-0.262,0.531-1.178,0.654-1.532c0.143-0.408,0.323-0.934,0.592-1.304
		c0.326-0.449,0.604-1.445,0.548-1.875c-0.055-0.429,0.3-2.375,0.505-2.86c0.206-0.485,0.617-2.392,0.823-2.953
		c0.205-0.561,0.786-2.634,0.842-3.849s0.953-3.98,1.457-5.233c0.505-1.254,3.55-7.402,4.523-9.29
		c0.973-1.888,5.495-7.533,6.204-8.543L40.953-5.655z"/>
	
		<path clip-path="url(#SVGID_2_)" fill="#CDB8AB" stroke="#553E31" stroke-width="0.8839" stroke-linecap="round" stroke-linejoin="round" stroke-miterlimit="10" d="
		M21.494,35.93c-0.055-0.019-0.112-0.035-0.17-0.051c-0.588-0.152-1.185-0.119-1.776-0.024c-0.481,0.078-0.957,0.197-1.439,0.265
		c-0.533,0.072-1.072,0.22-1.56,0.52c-0.261,0.163-0.506,0.371-0.709,0.641c-1.453,1.938,3.575,2.588,4.208,2.609
		c0.994,0.033,1.986-0.042,2.924-0.499c0.437-0.213,1.21-0.739,1.263-1.434c0.052-0.667-0.563-0.935-0.946-1.14
		C22.698,36.498,22.118,36.127,21.494,35.93z"/>
	
		<path clip-path="url(#SVGID_2_)" fill="#CDB8AB" stroke="#553E31" stroke-width="0.8839" stroke-linecap="round" stroke-linejoin="round" stroke-miterlimit="10" d="
		M21.494,34.724c-0.055-0.018-0.112-0.034-0.17-0.049c-0.588-0.153-1.185-0.12-1.776-0.025c-0.481,0.078-0.957,0.197-1.439,0.264
		c-0.533,0.074-1.072,0.221-1.56,0.521c-0.261,0.162-0.506,0.37-0.709,0.643c-1.453,1.935,3.575,2.585,4.208,2.606
		c0.994,0.032,1.986-0.039,2.924-0.498c0.437-0.214,1.21-0.74,1.263-1.435c0.052-0.667-0.563-0.936-0.946-1.141
		C22.698,35.294,22.118,34.922,21.494,34.724z"/>
	
		<path clip-path="url(#SVGID_2_)" fill="#CDB8AB" stroke="#553E31" stroke-width="0.7749" stroke-linecap="round" stroke-linejoin="round" stroke-miterlimit="10" d="
		M40.835,31.694c0.05-0.016,0.101-0.03,0.15-0.044c0.516-0.128,1.038-0.096,1.557-0.009c0.422,0.072,0.839,0.178,1.26,0.24
		c0.469,0.068,0.938,0.202,1.364,0.469c0.229,0.145,0.441,0.329,0.619,0.565c1.259,1.708-3.153,2.244-3.708,2.258
		c-0.873,0.023-1.741-0.051-2.561-0.456c-0.38-0.19-1.055-0.656-1.097-1.266c-0.041-0.583,0.499-0.815,0.836-0.993
		C39.776,32.185,40.288,31.862,40.835,31.694z"/>
	
		<path clip-path="url(#SVGID_2_)" fill="#CDB8AB" stroke="#553E31" stroke-width="0.7749" stroke-linecap="round" stroke-linejoin="round" stroke-miterlimit="10" d="
		M40.844,30.637c0.049-0.016,0.1-0.029,0.149-0.042c0.517-0.131,1.04-0.098,1.558-0.011c0.421,0.073,0.838,0.182,1.26,0.242
		c0.469,0.069,0.938,0.2,1.363,0.468c0.229,0.145,0.442,0.327,0.618,0.567c1.26,1.707-3.152,2.244-3.707,2.256
		c-0.873,0.021-1.74-0.048-2.561-0.456c-0.379-0.189-1.056-0.656-1.097-1.266c-0.041-0.585,0.499-0.815,0.837-0.994
		C39.785,31.128,40.297,30.806,40.844,30.637z"/>
</g>
</svg>
