<?xml version="1.0" encoding="utf-8"?>
<!-- Generator: Adobe Illustrator 15.0.0, SVG Export Plug-In . SVG Version: 6.00 Build 0)  -->
<!DOCTYPE svg PUBLIC "-//W3C//DTD SVG 1.1//EN" "http://www.w3.org/Graphics/SVG/1.1/DTD/svg11.dtd">
<svg version="1.1" id="Layer_1" xmlns="http://www.w3.org/2000/svg" xmlns:xlink="http://www.w3.org/1999/xlink" x="0px" y="0px"
	 width="45px" height="30px" viewBox="0 0 45 30" enable-background="new 0 0 45 30" xml:space="preserve">
<g>
	<path fill="#553e31" d="M5.017,16.229c-0.234-2.042,0.154-5.282,1.304-7.004c1.149-1.722,2.992-3.023,4.653-2.574
		c1.661,0.448,2.649,1.749,2.962,3.686c0.313,1.937,1.308,5.124,2.504,5.992c1.195,0.869,3.228,1.553,3.491,3.624
		c0.264,2.071-3.11,4.032-6.375,4.179C10.292,24.278,6.028,25.056,5.017,16.229z M9.906,13.836
		c-1.058,0.124-1.789,1.303-1.633,2.633c0.155,1.331,1.139,2.309,2.197,2.185s1.79-1.302,1.633-2.633
		C11.947,14.692,10.963,13.712,9.906,13.836z"/>
	<g>
		<path fill="none" stroke="#553e31" stroke-width="1.3531" stroke-miterlimit="10" d="M10.572,2.941
			c-0.403,0.023-0.778,0.068-1.11,0.141C7.104,3.596,1.958,7.059,2.546,14.996c0,0,0.564,9.835,5.705,11.195
			c0.792,0.21,2.193,0.469,3.973,0.653"/>
		<path fill="#553e31" stroke="#553e31" stroke-width="1.3531" stroke-miterlimit="10" d="M34.099,18.896
			c-0.738-1.651-1.367-2.666-2.588-2.899c-1.219-0.232-2.781,0.087-5.123-3.623c-2.343-3.711-4.813-7.065-7.483-8.049
			c-2.215-0.813-5.63-1.484-8.077-1.396c0.812-0.004,3.35,0.202,4.561,2.785c1.453,3.1,1.653,5.393,2.101,6.883
			c0.447,1.492,1.953,2.134,3.91,3.924c1.958,1.792,2.721,7.335-0.186,8.878c-2.907,1.544-4.828,1.117-8.99,1.444
			c3.168,0.328,7.542,0.419,11.855-0.44c6.045-1.203,9.79-2.1,10.5-3.409C35.03,22.161,34.837,20.547,34.099,18.896z"/>
		<polygon fill="none" stroke="#553e31" stroke-width="1.3531" stroke-miterlimit="10" points="12.224,26.844 12.224,26.844 
			12.224,26.844 		"/>
		<path fill="none" stroke="#553e31" stroke-width="1.3531" stroke-miterlimit="10" d="M10.571,2.938l0.001,0.003
			c0.083-0.006,0.17-0.01,0.256-0.012C10.666,2.93,10.571,2.938,10.571,2.938z"/>
	</g>
	<path fill="none" stroke="#553e31" stroke-width="1.3531" stroke-miterlimit="10" d="M32.756,16.969l5.952-0.141
		c0,0-0.637-3.05,1.818-3.108c1.669-0.04,2.226,3.375,0.926,4.736c2.749,2.71-0.537,5.877-2.689,1.643l-5.614,0.133L32.756,16.969z"
		/>
</g>
</svg>
