<?xml version="1.0" encoding="utf-8"?>
<!-- Generator: Adobe Illustrator 15.0.0, SVG Export Plug-In . SVG Version: 6.00 Build 0)  -->
<!DOCTYPE svg PUBLIC "-//W3C//DTD SVG 1.1//EN" "http://www.w3.org/Graphics/SVG/1.1/DTD/svg11.dtd">
<svg version="1.1" id="Layer_1" xmlns="http://www.w3.org/2000/svg" xmlns:xlink="http://www.w3.org/1999/xlink" x="0px" y="0px"
	 width="45px" height="30px" viewBox="0 0 45 30" enable-background="new 0 0 45 30" xml:space="preserve">
<g>
	<path fill="#553e31" stroke="#553e31" stroke-width="0.0537" stroke-miterlimit="10" d="M16.337,14.745
		c0,0-2.083-1.586-1.977-3.458c0.106-1.872,1.523-3.638,2.577-5.065c0.949-1.289,2.02-3.622-1.106-5.897
		c0,0-0.343-0.235-0.288-0.306c0.075-0.082,0.434,0.127,0.434,0.127c4.522,2.493,3.325,5.205,2.271,6.632
		c-1.053,1.427-2.471,3.193-2.577,5.065c-0.058,1.013,0.655,2.107,1.074,2.582C17.216,14.961,17.019,15.32,16.337,14.745z"/>
	<path fill="#553e31" stroke="#553e31" stroke-width="0.0537" stroke-miterlimit="10" d="M22.604,14.745
		c0,0-2.082-1.586-1.976-3.458c0.106-1.872,1.523-3.638,2.577-5.065c0.949-1.289,2.018-3.622-1.107-5.897
		c0,0-0.343-0.235-0.287-0.306c0.075-0.082,0.433,0.127,0.433,0.127c4.522,2.493,3.325,5.205,2.272,6.632
		c-1.055,1.427-2.472,3.193-2.578,5.065c-0.058,1.013,0.656,2.107,1.074,2.582C23.482,14.961,23.285,15.32,22.604,14.745z"/>
	<path fill="#553e31" stroke="#553e31" stroke-width="0.0537" stroke-miterlimit="10" d="M28.871,14.745
		c0,0-2.084-1.586-1.977-3.458C27,9.415,28.418,7.649,29.471,6.222c0.949-1.289,2.02-3.622-1.105-5.897c0,0-0.344-0.235-0.289-0.306
		c0.076-0.082,0.434,0.127,0.434,0.127c4.523,2.493,3.326,5.205,2.271,6.632c-1.053,1.427-2.471,3.193-2.576,5.065
		c-0.059,1.013,0.654,2.107,1.074,2.582C29.75,14.961,29.551,15.32,28.871,14.745z"/>
	<path fill="#553e31" stroke="#553e31" stroke-width="0.082" stroke-miterlimit="10" d="M22.501,11.068
		c-8.326,0-15.076,1.811-15.076,4.046c0,2.232,6.75,4.044,15.076,4.044c8.325,0,15.075-1.812,15.075-4.044
		C37.576,12.878,30.826,11.068,22.501,11.068z M37.217,17.984c-0.938,0.78-2.238,2.018-3.158,3.175
		c-2.148,2.705-2.938,3.903-4.814,4.964c-1.832,1.034-4.252,1.587-6.784,1.587c-2.534,0-4.973-0.663-6.785-1.587
		c-1.819-0.928-2.665-2.259-4.815-4.964c-0.961-1.21-2.339-2.508-3.283-3.279c-1.953-0.999-3.092-2.204-3.092-3.502
		c0-3.453,8.066-6.251,18.017-6.251s18.015,2.799,18.015,6.251C40.516,15.722,39.295,16.965,37.217,17.984z M23.51,26.579
		c-0.849-0.087-1.117-0.088-2.259-0.239c-1.071-0.142-2.364-0.505-3.372-0.923c-1.079-0.448-2.432-1.562-3.488-2.564
		c-0.729-0.691-1.626-1.668-2.349-2.358c-0.327-0.312-0.441-0.107-0.252,0.152c0.188,0.259,0,0,1.29,1.767
		c0.295,0.404,0.614,0.789,0.961,1.145c1.303,1.339,2.354,2.104,3.974,2.6c1.54,0.471,3.767,0.707,5.364,0.694
		C24.133,26.845,24.195,26.649,23.51,26.579z M5.488,14.1"/>
</g>
</svg>
