<?xml version="1.0" encoding="utf-8"?>
<!-- Generator: Adobe Illustrator 15.0.0, SVG Export Plug-In . SVG Version: 6.00 Build 0)  -->
<!DOCTYPE svg PUBLIC "-//W3C//DTD SVG 1.1//EN" "http://www.w3.org/Graphics/SVG/1.1/DTD/svg11.dtd">
<svg version="1.1" id="Layer_1" xmlns="http://www.w3.org/2000/svg" xmlns:xlink="http://www.w3.org/1999/xlink" x="0px" y="0px"
	 width="45px" height="30px" viewBox="0 0 45 30" enable-background="new 0 0 45 30" xml:space="preserve">
<g>
	<path fill="#553e31" d="M36.049,6.174C32.629,1.897,27.787,1,24.328,1c-2.791,0-4.831,0.573-4.916,0.599
		c-0.155,0.044-0.292,0.136-0.39,0.264L8.944,14.819c-0.104,0.133-0.16,0.297-0.16,0.465v12.957c0,0.245,0.117,0.474,0.315,0.616
		C9.23,28.952,9.386,29,9.543,29c0.081,0,0.162-0.013,0.24-0.038l25.915-8.638c0.31-0.104,0.519-0.395,0.519-0.72V6.646
		C36.216,6.476,36.156,6.308,36.049,6.174z M34.698,14.695l-24.396,8.132v-2.633l24.396-8.133V14.695z M34.698,10.375l-24.396,8.133
		v-2.633l24.396-8.132V10.375z M10.302,27.188v-2.676l24.396-8.132v2.676L10.302,27.188z M22.027,8.67
		c0.104,0.376-0.242,0.799-0.773,0.945c-0.53,0.146-1.044-0.04-1.148-0.417c-0.103-0.375,0.243-0.799,0.774-0.945
		C21.41,8.107,21.924,8.294,22.027,8.67z M18.347,8.978c0.104,0.376-0.243,0.8-0.772,0.944c-0.531,0.147-1.045-0.04-1.149-0.415
		c-0.104-0.377,0.243-0.799,0.773-0.945C17.73,8.416,18.244,8.602,18.347,8.978z M15.613,11.33c0.103,0.376-0.242,0.8-0.774,0.945
		c-0.53,0.147-1.044-0.039-1.148-0.414c-0.103-0.377,0.243-0.801,0.774-0.946C14.995,10.769,15.509,10.955,15.613,11.33z
		 M20.07,6.055c0.103,0.376-0.243,0.8-0.773,0.944c-0.531,0.146-1.045-0.04-1.148-0.415c-0.104-0.376,0.242-0.799,0.773-0.945
		C19.452,5.492,19.966,5.679,20.07,6.055z M21.19,3.381c0.104,0.375-0.243,0.8-0.773,0.945c-0.532,0.146-1.045-0.04-1.149-0.416
		c-0.104-0.376,0.243-0.799,0.773-0.945C20.573,2.819,21.087,3.005,21.19,3.381z M24.806,2.65c0.104,0.376-0.243,0.8-0.773,0.945
		s-1.045-0.04-1.149-0.416c-0.103-0.376,0.243-0.8,0.775-0.945C24.188,2.088,24.703,2.275,24.806,2.65z M28.57,3.03
		c0.104,0.376-0.242,0.8-0.773,0.944c-0.53,0.148-1.044-0.04-1.148-0.415c-0.104-0.376,0.244-0.799,0.773-0.945
		C27.953,2.469,28.467,2.654,28.57,3.03z M32.385,5.12c0.104,0.375-0.242,0.799-0.773,0.945c-0.531,0.146-1.045-0.041-1.148-0.417
		s0.242-0.799,0.773-0.944C31.766,4.558,32.281,4.743,32.385,5.12z M26.028,8.099c0.103,0.376-0.243,0.8-0.774,0.946
		c-0.53,0.146-1.044-0.04-1.148-0.417c-0.104-0.375,0.244-0.799,0.773-0.945C25.41,7.537,25.924,7.723,26.028,8.099z M29.039,5.851
		c0.104,0.376-0.242,0.8-0.773,0.945s-1.045-0.04-1.148-0.416s0.243-0.799,0.773-0.945C28.422,5.288,28.936,5.475,29.039,5.851z
		 M24.414,5.324c0.104,0.375-0.242,0.8-0.773,0.945c-0.531,0.146-1.045-0.04-1.148-0.416c-0.104-0.376,0.242-0.8,0.773-0.945
		C23.796,4.762,24.311,4.948,24.414,5.324z"/>
</g>
</svg>
