<?xml version="1.0" encoding="utf-8"?>
<!-- Generator: Adobe Illustrator 15.0.0, SVG Export Plug-In . SVG Version: 6.00 Build 0)  -->
<!DOCTYPE svg PUBLIC "-//W3C//DTD SVG 1.1//EN" "http://www.w3.org/Graphics/SVG/1.1/DTD/svg11.dtd">
<svg version="1.1" id="Layer_1" xmlns="http://www.w3.org/2000/svg" xmlns:xlink="http://www.w3.org/1999/xlink" x="0px" y="0px"
	 width="45px" height="30px" viewBox="0 0 45 30" enable-background="new 0 0 45 30" xml:space="preserve">
<symbol  id="New_Symbol" viewBox="-14.78 -7.287 29.561 14.574">
	<g>
		<g>
			<g>
				<g>
					<path fill="#cdb8ab" d="M-14.655-1.556c1.007-0.774,2.172-1.201,3.351-1.53c1.185-0.318,2.397-0.526,3.618-0.662
						c2.44-0.273,4.907-0.297,7.333-0.146c2.419,0.163,4.837,0.499,7.016,1.169C7.738-2.39,8.77-1.959,9.518-1.429
						c0.372,0.262,0.667,0.542,0.834,0.794c0.177,0.256,0.24,0.454,0.259,0.703c0.016,0.25-0.018,0.38-0.142,0.614
						c-0.128,0.225-0.384,0.505-0.741,0.769C9.012,1.987,7.991,2.44,6.918,2.785C4.748,3.477,2.33,3.833-0.09,4.007
						c-2.429,0.168-4.899,0.144-7.357-0.11C-8.677,3.77-9.903,3.579-11.12,3.305c-1.216-0.279-2.418-0.648-3.598-1.171
						c0.927,0.902,2.038,1.631,3.202,2.236c1.167,0.608,2.398,1.091,3.653,1.493C-5.344,6.646-2.725,7.1-0.073,7.242
						C2.582,7.373,5.272,7.243,8,6.556c1.361-0.36,2.747-0.842,4.112-1.775c0.675-0.472,1.359-1.084,1.896-1.947
						c0.541-0.847,0.843-2.006,0.758-3.024c-0.049-1.019-0.446-2.063-1.01-2.835c-0.561-0.794-1.24-1.362-1.914-1.817
						C10.48-5.741,9.096-6.21,7.734-6.566c-2.729-0.677-5.42-0.803-8.076-0.677C-2.996-7.098-5.621-6.66-8.149-5.858
						c-1.26,0.411-2.5,0.911-3.66,1.575c-1.147,0.659-2.269,1.492-2.971,2.618L-14.655-1.556z"/>
				</g>
			</g>
		</g>
	</g>
</symbol>
<g>
	<path fill="#cdb8ab" d="M20.559,17.361c0.064,1.635-0.125,3.467-1.046,4.865c-0.66,1.002-1.676,1.537-2.841,1.726
		c-0.757,0.123-1.53,0.123-2.294,0.157c-1.059,0.048-2.12,0.013-3.178-0.04c-1.564-0.077-3.165-0.125-4.692-0.498
		c-0.564-0.138-1.156-0.308-1.682-0.558c-2.706-1.285-3.881-3.545-3.881-5.738c0-2.245,1.407-4.398,3.305-5.522
		c0.512-0.304,1.076-0.556,1.639-0.746c0.829-0.28,1.66-0.524,2.528-0.641c1.047-0.139,2.077-0.029,3.123,0.042
		c0.886,0.062,1.77,0.172,2.633,0.386c1.423,0.353,2.829,1.093,3.961,2.013c1.227,0.996,2.182,2.262,2.371,3.868
		C20.532,16.897,20.549,17.128,20.559,17.361z M39.053,7.033c-1.887-0.872-5.662-1.754-9.908-2.05
		c0.215,0.104,0.443,0.225,0.686,0.361c3.701,2.088,4.135,4.389,3.672,4.903c-2.025-3.859-7.862-5.275-7.862-5.275
		s-0.309-0.074-0.601-0.074C23.716,4.916,23.07,4.982,21.86,5.13c-0.521,0.064-1.029,0.13-1.53,0.195
		c7.678,4.118,5.59,5.199,5.59,5.199c-4.499-4.045-10.627-4.218-13.07-3.896C10.065,7.293,7.67,8.15,5.568,9.369
		C2.238,11.3,0,14.478,0,17.275c0,2.813,1.652,5.278,4.42,6.592c1.75,0.831,4.353,1.234,7.959,1.234c0,0,0,0,0,0
		c2.222,0,4.859-0.159,7.836-0.473c8.722-0.92,15.928-3.018,19.2-4.689c3.326-1.698,5.411-4.146,5.576-6.549
		C45.172,10.808,41.904,8.352,39.053,7.033z"/>
	<g>
		
			<use xlink:href="#New_Symbol"  width="29.561" height="14.574" x="-14.78" y="-7.287" transform="matrix(0.0474 0 0 -0.058 13.1626 11.7695)" overflow="visible"/>
		
			<use xlink:href="#New_Symbol"  width="29.561" height="14.574" x="-14.78" y="-7.287" transform="matrix(0.0702 0 0 -0.0959 12.6187 14.9902)" overflow="visible"/>
		
			<use xlink:href="#New_Symbol"  width="29.561" height="14.574" x="-14.78" y="-7.287" transform="matrix(0.0527 0 0 -0.072 4.9868 19.4551)" overflow="visible"/>
		
			<use xlink:href="#New_Symbol"  width="29.561" height="14.574" x="-14.78" y="-7.287" transform="matrix(0.0488 0 0 -0.0667 2.1743 16.7783)" overflow="visible"/>
		
			<use xlink:href="#New_Symbol"  width="29.561" height="14.574" x="-14.78" y="-7.287" transform="matrix(0.0579 0 0 -0.0667 5.167 12.6104)" overflow="visible"/>
		
			<use xlink:href="#New_Symbol"  width="29.561" height="14.574" x="-14.78" y="-7.287" transform="matrix(0.0614 0 0 -0.0839 9.4282 12.1436)" overflow="visible"/>
		
			<use xlink:href="#New_Symbol"  width="29.561" height="14.574" x="-14.78" y="-7.287" transform="matrix(0.043 0 0 -0.0587 17.1187 19.4521)" overflow="visible"/>
		
			<use xlink:href="#New_Symbol"  width="29.561" height="14.574" x="-14.78" y="-7.287" transform="matrix(0.0702 0 0 -0.096 9.3662 16.9375)" overflow="visible"/>
		
			<use xlink:href="#New_Symbol"  width="29.561" height="14.574" x="-14.78" y="-7.287" transform="matrix(0.05 0 0 -0.0684 18.563 16.9346)" overflow="visible"/>
		
			<use xlink:href="#New_Symbol"  width="29.561" height="14.574" x="-14.78" y="-7.287" transform="matrix(0.05 0 0 -0.0684 6.0737 21.8877)" overflow="visible"/>
		
			<use xlink:href="#New_Symbol"  width="29.561" height="14.574" x="-14.78" y="-7.287" transform="matrix(0.0441 0 0 -0.0603 14.5601 21.6836)" overflow="visible"/>
		
			<use xlink:href="#New_Symbol"  width="29.561" height="14.574" x="-14.78" y="-7.287" transform="matrix(0.0577 0 0 -0.0788 13.0576 18.5469)" overflow="visible"/>
		
			<use xlink:href="#New_Symbol"  width="29.561" height="14.574" x="-14.78" y="-7.287" transform="matrix(0.0577 0 0 -0.0788 11.6978 22.2559)" overflow="visible"/>
		
			<use xlink:href="#New_Symbol"  width="29.561" height="14.574" x="-14.78" y="-7.287" transform="matrix(0.0643 0 0 -0.0879 5.5957 15.4785)" overflow="visible"/>
		
			<use xlink:href="#New_Symbol"  width="29.561" height="14.574" x="-14.78" y="-7.287" transform="matrix(0.0643 0 0 -0.0879 16.5483 14.9834)" overflow="visible"/>
		
			<use xlink:href="#New_Symbol"  width="29.561" height="14.574" x="-14.78" y="-7.287" transform="matrix(0.0456 0 0 -0.0623 8.6919 20.7012)" overflow="visible"/>
	</g>
</g>
</svg>
