<?xml version="1.0" encoding="utf-8"?>
<!-- Generator: Adobe Illustrator 15.0.0, SVG Export Plug-In . SVG Version: 6.00 Build 0)  -->
<!DOCTYPE svg PUBLIC "-//W3C//DTD SVG 1.1//EN" "http://www.w3.org/Graphics/SVG/1.1/DTD/svg11.dtd">
<svg version="1.1" id="Layer_1" xmlns="http://www.w3.org/2000/svg" xmlns:xlink="http://www.w3.org/1999/xlink" x="0px" y="0px"
	 width="45px" height="30px" viewBox="0 0 45 30" enable-background="new 0 0 45 30" xml:space="preserve">
<g>
	
		<ellipse fill="#cdb8ab" stroke="#cdb8ab" stroke-width="0.0768" stroke-miterlimit="10" cx="22.356" cy="17.454" rx="21.617" ry="8.206"/>
	<ellipse fill="#cdb8ab" cx="22.5" cy="16.242" rx="22.257" ry="8.206"/>
	<path fill="#FFFCF6" d="M22.5,24.691C10.094,24.691,0,20.9,0,16.242c0-4.658,10.094-8.447,22.5-8.447S45,11.584,45,16.242
		C45,20.9,34.907,24.691,22.5,24.691z M22.5,8.28c-12.14,0-22.016,3.572-22.016,7.962c0,4.392,9.876,7.965,22.016,7.965
		c12.139,0,22.015-3.573,22.015-7.965C44.516,11.852,34.64,8.28,22.5,8.28z"/>
	
		<ellipse fill="none" stroke="#FFFCF6" stroke-width="0.4845" stroke-miterlimit="10" cx="22.778" cy="16.08" rx="17.485" ry="5.007"/>
	<g>
		<g>
			<path fill="#FFFCF6" d="M34.473,18.877c-0.166-0.029-0.304-0.117-0.395-0.248c-0.091-0.13-0.125-0.286-0.097-0.44l0.05-0.267
				c0.128-0.661,0.192-0.992-0.181-1.465c-0.214-0.27-0.444-0.391-0.749-0.391c-0.408,0-0.926,0.212-1.512,0.468l-0.182,0.078
				c-0.407,0.178-0.829,0.416-1.275,0.668c-0.912,0.52-1.8,1.025-2.766,1.206c-0.114,0.021-0.225,0.031-0.33,0.031
				c-0.498,0-0.909-0.222-1.157-0.622c-0.453-0.736-0.225-1.832,0.246-2.424c1.085-1.364,2.642-1.582,4.016-1.775
				c0.117-0.016,0.243-0.029,0.373-0.042c0.581-0.059,1.07-0.128,1.173-0.386c0.265-0.663-0.648-1.149-0.834-1.239
				c-0.384-0.187-0.831-0.293-1.228-0.293c-0.418,0-0.731,0.121-0.861,0.333c-0.106,0.176-0.301,0.285-0.507,0.285
				c-0.26-0.014-0.453-0.147-0.544-0.347c-0.052-0.111-0.116-0.223-0.178-0.33c-0.265-0.46-0.661-1.151-0.014-1.96
				c0.14-0.173,0.306-0.317,0.468-0.456c0.071-0.061,0.217-0.187,0.281-0.262c-0.018-0.014-0.046-0.047-0.091-0.09
				c-0.249-0.239-0.616-0.322-1.041-0.417c-0.447-0.1-0.948-0.212-1.387-0.536c-0.224-0.165-0.412-0.354-0.593-0.537
				c-0.403-0.404-0.599-0.569-0.914-0.569l-0.139,0.006c-0.31,0-0.564-0.231-0.593-0.537c-0.028-0.326,0.214-0.613,0.54-0.642
				c0.065-0.006,0.129-0.008,0.19-0.008c0.845,0,1.354,0.51,1.762,0.919c0.155,0.157,0.3,0.302,0.459,0.42
				c0.234,0.173,0.573,0.249,0.932,0.33c0.501,0.112,1.123,0.25,1.613,0.722c0.326,0.313,0.48,0.633,0.471,0.978
				c-0.015,0.519-0.399,0.849-0.708,1.114c-0.126,0.108-0.239,0.203-0.318,0.301c-0.097,0.121-0.131,0.164-0.027,0.375
				c0.337-0.177,0.749-0.27,1.209-0.27c0.576,0,1.195,0.146,1.742,0.412c1.276,0.621,1.833,1.694,1.417,2.734
				c-0.377,0.946-1.45,1.055-2.16,1.126l-0.326,0.037c-1.209,0.17-2.459,0.345-3.248,1.336c-0.235,0.297-0.293,0.868-0.164,1.077
				c0.019,0.03,0.035,0.057,0.127,0.057c0.035,0,0.075-0.004,0.12-0.013c0.765-0.14,1.566-0.597,2.341-1.038
				c0.496-0.28,0.975-0.55,1.445-0.754l0.18-0.077c0.573-0.251,1.289-0.564,2.002-0.564c0.673,0,1.237,0.282,1.677,0.84
				c0.708,0.896,0.558,1.667,0.413,2.413l-0.037,0.198c-0.062,0.338-0.308,0.543-0.597,0.543L34.473,18.877z"/>
			<path fill="#cdb8ab" d="M24.245,5.892c0.754,0,1.204,0.453,1.606,0.855c0.161,0.163,0.313,0.315,0.481,0.44
				c0.272,0.201,0.634,0.282,1.017,0.368c0.497,0.111,1.063,0.237,1.507,0.665c0.279,0.268,0.41,0.534,0.402,0.811
				c-0.012,0.422-0.343,0.705-0.634,0.955c-0.132,0.113-0.256,0.219-0.343,0.326c-0.219,0.274-0.166,0.428,0.061,0.827
				c0.349-0.248,0.807-0.359,1.294-0.359c0.548,0,1.134,0.142,1.645,0.39c1.164,0.566,1.677,1.528,1.308,2.451
				c-0.327,0.821-1.28,0.917-1.976,0.988c-0.118,0.013-0.23,0.023-0.334,0.037c-1.251,0.176-2.547,0.357-3.392,1.418
				c-0.278,0.352-0.37,1.024-0.18,1.333c0.049,0.079,0.129,0.162,0.316,0.162c0.047,0,0.101-0.005,0.162-0.017
				c0.799-0.146,1.617-0.612,2.409-1.063c0.469-0.265,0.952-0.539,1.424-0.744l0.179-0.077c0.565-0.248,1.248-0.546,1.914-0.546
				c0.534,0,1.058,0.191,1.502,0.755c0.646,0.816,0.511,1.506,0.369,2.235c-0.015,0.084-0.031,0.168-0.048,0.255
				c-0.032,0.179-0.189,0.304-0.367,0.304c-0.021,0-0.044-0.002-0.065-0.005c-0.204-0.036-0.339-0.229-0.303-0.429
				c0.017-0.09,0.033-0.178,0.05-0.263c0.132-0.682,0.212-1.093-0.225-1.646c-0.269-0.34-0.569-0.475-0.924-0.475
				c-0.437,0-0.955,0.204-1.601,0.486l-0.181,0.078c-0.436,0.189-0.879,0.442-1.351,0.709c-0.846,0.481-1.722,0.978-2.644,1.15
				c-0.1,0.019-0.196,0.027-0.289,0.027c-0.417,0-0.76-0.181-0.968-0.517c-0.39-0.634-0.195-1.633,0.23-2.169
				c1.03-1.294,2.542-1.506,3.875-1.693c0.111-0.015,0.234-0.028,0.362-0.041c0.678-0.068,1.208-0.15,1.357-0.525
				c0.262-0.655-0.316-1.216-0.943-1.522c-0.412-0.2-0.896-0.316-1.325-0.316c-0.463,0-0.864,0.134-1.051,0.439
				c-0.067,0.111-0.188,0.179-0.317,0.179c-0.008,0-0.017,0-0.024-0.001c-0.138-0.008-0.261-0.091-0.317-0.216
				c-0.055-0.119-0.123-0.238-0.188-0.352c-0.261-0.454-0.584-1.017-0.031-1.707c0.13-0.161,0.286-0.296,0.438-0.425
				c0.157-0.135,0.375-0.322,0.377-0.42c0.001-0.043-0.044-0.135-0.177-0.262c-0.295-0.283-0.711-0.376-1.151-0.475
				c-0.441-0.099-0.898-0.201-1.299-0.497c-0.214-0.158-0.394-0.338-0.566-0.514c-0.397-0.398-0.654-0.635-1.072-0.635
				c-0.033,0-0.068,0.002-0.104,0.005c-0.012,0.001-0.022,0.001-0.034,0.001c-0.191,0-0.354-0.144-0.371-0.335
				c-0.018-0.203,0.133-0.381,0.338-0.399C24.133,5.895,24.189,5.892,24.245,5.892 M24.245,5.447c-0.067,0-0.138,0.003-0.209,0.009
				c-0.449,0.04-0.782,0.435-0.743,0.881c0.039,0.423,0.389,0.741,0.814,0.741l0.073-0.003c0.022-0.002,0.044-0.003,0.065-0.003
				c0.221,0,0.367,0.113,0.757,0.504c0.164,0.166,0.37,0.375,0.618,0.558c0.477,0.352,1.002,0.469,1.466,0.573
				c0.349,0.079,0.653,0.147,0.86,0.296c-0.037,0.033-0.073,0.064-0.099,0.086c-0.186,0.157-0.35,0.301-0.499,0.487
				c-0.743,0.928-0.283,1.729-0.008,2.208c0.06,0.104,0.121,0.209,0.17,0.315c0.124,0.274,0.391,0.456,0.695,0.475l0.051,0.001
				c0.283,0,0.551-0.151,0.698-0.394c0.085-0.14,0.336-0.224,0.67-0.224c0.364,0,0.776,0.099,1.131,0.271
				c0.094,0.046,0.92,0.466,0.725,0.957c-0.062,0.154-0.735,0.222-0.989,0.247c-0.133,0.013-0.261,0.026-0.377,0.042
				c-1.35,0.189-3.023,0.424-4.164,1.856c-0.517,0.652-0.764,1.861-0.261,2.68c0.286,0.463,0.776,0.728,1.347,0.728
				c0.119,0,0.242-0.011,0.369-0.034c1.004-0.188,1.949-0.727,2.783-1.201l0.053-0.029c0.441-0.25,0.858-0.485,1.256-0.658
				l0.18-0.078c0.543-0.237,1.06-0.449,1.424-0.449c0.236,0,0.402,0.089,0.575,0.307c0.296,0.375,0.271,0.591,0.137,1.282
				l-0.051,0.269c-0.039,0.216,0.008,0.432,0.133,0.609c0.125,0.18,0.313,0.3,0.53,0.339c0.059,0.008,0.102,0.012,0.143,0.012
				c0.396,0,0.735-0.282,0.805-0.67l0.011-0.053l0.038-0.205c0.146-0.752,0.313-1.612-0.459-2.587
				c-0.483-0.613-1.106-0.924-1.851-0.924c-0.76,0-1.499,0.324-2.093,0.583l-0.176,0.075c-0.483,0.21-0.967,0.483-1.435,0.747
				c-0.793,0.452-1.577,0.899-2.303,1.032c-0.015,0.003-0.027,0.005-0.039,0.006c-0.041-0.165,0-0.558,0.169-0.771
				c0.733-0.92,1.885-1.082,3.104-1.253c0.07-0.01,0.145-0.017,0.223-0.025l0.099-0.01c0.714-0.072,1.914-0.193,2.341-1.266
				c0.456-1.138-0.157-2.351-1.526-3.016c-0.576-0.28-1.229-0.434-1.839-0.434c-0.312,0-0.604,0.04-0.87,0.118
				c0.045-0.041,0.095-0.083,0.146-0.126c0.33-0.284,0.774-0.665,0.792-1.282c0.011-0.405-0.17-0.79-0.539-1.145
				c-0.535-0.514-1.191-0.661-1.719-0.778c-0.335-0.075-0.652-0.146-0.849-0.292c-0.144-0.106-0.289-0.253-0.43-0.396
				C25.75,6.016,25.183,5.447,24.245,5.447L24.245,5.447z"/>
		</g>
	</g>
	<g>
		<g>
			<path fill="#FFFCF6" d="M13.136,19.048c-0.962,0-1.939-0.19-2.802-0.358l-0.249-0.049c-1.65-0.317-1.865-1.078-1.755-1.66
				c0.125-0.661,0.802-1.038,1.25-1.287c0.088-0.049,0.163-0.091,0.225-0.13c0.202-0.125,0.448-0.252,0.709-0.387
				c0.326-0.167,0.743-0.38,1.022-0.587c-0.114-0.056-0.254-0.12-0.412-0.192c-1.04-0.475-2.451-1.12-2.697-2.209
				c-0.112-0.5,0.034-0.99,0.432-1.457c0.474-0.556,1.216-0.914,2.207-1.063c0.064-0.009,0.133-0.014,0.208-0.014
				c0.227,0,0.505,0.042,0.903,0.104c0.261,0.041,0.746,0.118,1.039,0.118c0.005,0,0.01,0,0.015,0
				c-0.016-0.154-0.061-0.384-0.081-0.489c-0.098-0.505-0.198-1.016,0.019-1.422c0.497-0.938,1.292-1.544,2.302-1.755
				c0.211-0.043,0.418-0.066,0.616-0.066c1.076,0,1.742,0.624,2.331,1.173c0.411,0.383,0.794,0.741,1.298,0.909
				c0.14,0.047,0.42,0.125,0.718,0.125c0.388,0,0.651-0.128,0.805-0.393c0.089-0.151,0.168-0.3,0.246-0.445
				c0.326-0.611,0.663-1.242,1.47-1.723c0.538-0.321,1.233-0.498,1.958-0.498c1.148,0,2.151,0.426,2.75,1.168
				c0.1,0.123,0.145,0.277,0.127,0.434c-0.019,0.158-0.097,0.299-0.222,0.397c-0.105,0.083-0.237,0.128-0.37,0.128
				c-0.183,0-0.353-0.081-0.466-0.222c-0.369-0.457-1.046-0.73-1.811-0.73c-0.503,0-0.996,0.122-1.353,0.334
				c-0.521,0.311-0.734,0.71-1.029,1.263c-0.083,0.156-0.169,0.316-0.267,0.483c-0.371,0.635-1.027,0.985-1.849,0.985
				c-0.348,0-0.714-0.063-1.089-0.189c-0.755-0.253-1.298-0.761-1.734-1.169c-0.529-0.494-0.911-0.851-1.515-0.851
				c-0.116,0-0.24,0.014-0.37,0.04c-0.659,0.137-1.161,0.523-1.492,1.147c-0.005,0.046,0.023,0.268,0.095,0.638
				c0.112,0.576,0.238,1.225-0.209,1.626c-0.21,0.189-0.502,0.278-0.916,0.278c-0.349,0-0.77-0.062-1.206-0.13
				c-0.277-0.043-0.563-0.09-0.713-0.09c-0.728,0.106-1.225,0.327-1.507,0.659c-0.219,0.256-0.189,0.391-0.179,0.436
				c0.117,0.52,1.406,1.108,2.025,1.391c0.264,0.121,0.431,0.197,0.565,0.27l0.092,0.046c0.325,0.165,0.617,0.313,0.696,0.668
				c0.082,0.368-0.145,0.652-0.267,0.805c-0.371,0.466-1.046,0.812-1.642,1.116c-0.234,0.119-0.456,0.232-0.618,0.335
				c-0.081,0.051-0.176,0.104-0.28,0.162c-0.412,0.23-0.635,0.391-0.663,0.477c0.005,0.004,0.117,0.147,0.812,0.281l0.25,0.049
				c0.806,0.158,1.72,0.337,2.571,0.337c0.651,0,1.17-0.104,1.586-0.319c0.085-0.043,0.18-0.065,0.274-0.065
				c0.223,0,0.425,0.12,0.529,0.315c0.074,0.14,0.089,0.3,0.042,0.45c-0.047,0.152-0.152,0.276-0.294,0.35
				C14.681,18.9,13.982,19.048,13.136,19.048z"/>
			<path fill="#cdb8ab" d="M24.914,5.516c0.976,0,1.977,0.341,2.577,1.086c0.128,0.159,0.101,0.391-0.06,0.517
				c-0.069,0.054-0.151,0.08-0.232,0.08c-0.11,0-0.22-0.047-0.293-0.139c-0.449-0.558-1.225-0.813-1.983-0.813
				c-0.537,0-1.066,0.127-1.467,0.366c-0.574,0.342-0.811,0.786-1.111,1.349c-0.082,0.153-0.167,0.311-0.263,0.476
				c-0.333,0.571-0.93,0.874-1.657,0.874c-0.318,0-0.662-0.058-1.018-0.177c-0.706-0.237-1.209-0.706-1.653-1.121
				c-0.535-0.5-0.975-0.911-1.667-0.911c-0.129,0-0.266,0.014-0.415,0.045c-0.727,0.151-1.28,0.575-1.644,1.261
				c-0.058,0.109,0.028,0.549,0.074,0.785c0.105,0.541,0.214,1.1-0.139,1.417c-0.179,0.161-0.435,0.221-0.768,0.221
				c-0.319,0-0.709-0.055-1.171-0.127c-0.264-0.042-0.583-0.093-0.748-0.093c-0.025,0-0.047,0.001-0.064,0.004
				c-0.75,0.113-1.293,0.359-1.612,0.733c-0.292,0.342-0.243,0.558-0.227,0.629c0.142,0.629,1.401,1.203,2.154,1.547
				c0.215,0.099,0.402,0.183,0.549,0.261c0.059,0.03,0.113,0.057,0.161,0.082c0.246,0.125,0.458,0.231,0.515,0.485
				c0.054,0.244-0.086,0.446-0.223,0.618c-0.339,0.426-0.993,0.762-1.569,1.057c-0.241,0.123-0.468,0.239-0.635,0.345
				c-0.078,0.05-0.169,0.101-0.269,0.155c-0.274,0.153-0.732,0.409-0.774,0.628c-0.016,0.085-0.064,0.341,0.988,0.544l0.25,0.049
				c0.813,0.159,1.744,0.34,2.613,0.34c0.614,0,1.198-0.09,1.688-0.343c0.055-0.028,0.114-0.042,0.172-0.042
				c0.135,0,0.266,0.072,0.333,0.198c0.096,0.181,0.024,0.403-0.158,0.497c-0.615,0.316-1.315,0.427-2.033,0.427
				c-0.938,0-1.908-0.188-2.76-0.354l-0.248-0.049c-1.18-0.227-1.712-0.698-1.579-1.4c0.104-0.556,0.703-0.891,1.14-1.134
				c0.086-0.048,0.168-0.094,0.236-0.137c0.195-0.122,0.437-0.246,0.692-0.376c0.474-0.243,1.06-0.543,1.309-0.837
				c-0.009-0.004-0.018-0.009-0.026-0.013c-0.052-0.026-0.109-0.055-0.173-0.089c-0.129-0.068-0.306-0.148-0.512-0.242
				c-0.99-0.452-2.347-1.07-2.569-2.054c-0.096-0.427,0.033-0.852,0.384-1.264c0.438-0.514,1.135-0.846,2.071-0.987
				c0.054-0.008,0.112-0.012,0.175-0.012c0.212,0,0.486,0.041,0.869,0.102c0.273,0.043,0.763,0.121,1.074,0.121
				c0.101,0,0.183-0.008,0.232-0.028c0.037-0.127-0.037-0.506-0.082-0.737c-0.093-0.477-0.18-0.928-0.001-1.264
				c0.465-0.878,1.209-1.445,2.151-1.642c0.203-0.042,0.393-0.061,0.571-0.061c0.987,0,1.615,0.586,2.179,1.113
				c0.426,0.397,0.828,0.773,1.379,0.958c0.146,0.049,0.457,0.137,0.789,0.137c0.37,0,0.768-0.109,0.997-0.504
				c0.09-0.153,0.171-0.305,0.25-0.452c0.326-0.611,0.635-1.188,1.387-1.636C23.58,5.678,24.241,5.516,24.914,5.516 M24.914,5.071
				c-0.764,0-1.5,0.188-2.072,0.529c-0.859,0.513-1.211,1.171-1.552,1.809c-0.076,0.142-0.154,0.289-0.241,0.436
				c-0.071,0.123-0.212,0.284-0.613,0.284c-0.276,0-0.545-0.08-0.648-0.114c-0.458-0.153-0.808-0.479-1.212-0.856
				c-0.592-0.554-1.324-1.237-2.487-1.237c-0.213,0-0.435,0.023-0.661,0.07c-1.077,0.225-1.925,0.871-2.454,1.869
				c-0.253,0.475-0.146,1.025-0.042,1.557c0.01,0.053,0.026,0.136,0.042,0.223c-0.26-0.023-0.57-0.072-0.76-0.102
				c-0.409-0.065-0.695-0.107-0.938-0.107c-0.087,0-0.167,0.005-0.241,0.017c-1.045,0.157-1.834,0.54-2.344,1.138
				c-0.556,0.651-0.568,1.256-0.479,1.649c0.271,1.198,1.739,1.869,2.812,2.359c0.019,0.008,0.038,0.017,0.056,0.025
				c-0.222,0.13-0.469,0.257-0.667,0.358c-0.25,0.128-0.509,0.261-0.724,0.395c-0.062,0.04-0.133,0.079-0.208,0.121
				c-0.494,0.275-1.226,0.682-1.37,1.446c-0.105,0.558,0.005,1.55,1.933,1.92l0.246,0.048c0.874,0.17,1.862,0.363,2.846,0.363
				c0.883,0,1.614-0.156,2.237-0.477c0.195-0.101,0.339-0.271,0.405-0.479c0.065-0.208,0.045-0.429-0.057-0.621
				c-0.143-0.269-0.42-0.435-0.726-0.435c-0.129,0-0.259,0.031-0.375,0.09c-0.385,0.198-0.871,0.295-1.486,0.295
				c-0.83,0-1.732-0.177-2.528-0.332l-0.25-0.049c-0.213-0.041-0.363-0.082-0.467-0.117c0.138-0.092,0.307-0.187,0.383-0.229
				c0.108-0.06,0.207-0.115,0.292-0.17c0.156-0.098,0.371-0.207,0.599-0.323c0.616-0.315,1.314-0.672,1.715-1.176
				c0.124-0.155,0.415-0.52,0.31-0.992c-0.102-0.458-0.473-0.646-0.744-0.784l-0.068-0.035l-0.094-0.048
				c-0.132-0.071-0.304-0.149-0.5-0.239l-0.067-0.031c-0.499-0.228-1.812-0.828-1.905-1.24c-0.003-0.028,0.02-0.111,0.131-0.242
				c0.244-0.286,0.707-0.487,1.339-0.582c0.121,0.001,0.424,0.049,0.645,0.083c0.477,0.075,0.907,0.138,1.272,0.138
				c0.297,0,0.731-0.035,1.065-0.335c0.54-0.485,0.396-1.231,0.279-1.831c-0.021-0.11-0.081-0.417-0.085-0.553
				c0.3-0.535,0.729-0.854,1.309-0.975c0.114-0.023,0.223-0.035,0.324-0.035c0.493,0,0.806,0.271,1.363,0.791
				c0.452,0.422,1.014,0.949,1.815,1.217c0.398,0.133,0.788,0.201,1.16,0.201c0.891,0,1.635-0.399,2.041-1.095
				c0.099-0.171,0.187-0.333,0.271-0.491c0.288-0.541,0.479-0.898,0.946-1.177c0.324-0.193,0.775-0.304,1.239-0.304
				c0.698,0,1.311,0.242,1.637,0.647c0.156,0.193,0.389,0.305,0.64,0.305c0.183,0,0.363-0.062,0.507-0.175
				c0.173-0.136,0.281-0.33,0.306-0.547c0.024-0.217-0.037-0.429-0.174-0.599C27.196,5.527,26.131,5.071,24.914,5.071L24.914,5.071z
				"/>
		</g>
	</g>
	<g>
		<g>
			<path fill="#FFFCF6" d="M19.52,19.789c-0.792-0.091-1.887-0.331-2.367-1.371c-0.129-0.279-0.197-0.559-0.257-0.805
				c-0.142-0.58-0.215-0.739-0.555-0.855c-0.171-0.059-0.356-0.088-0.551-0.088c-0.826,0-1.708,0.521-2.298,0.913l-0.13,0.088
				c-0.427,0.297-0.906,0.633-1.453,0.633c-0.371,0-0.715-0.156-1.022-0.463c-0.409-0.405-0.595-0.873-0.552-1.391
				c0.105-1.26,1.601-2.326,2.494-2.962c0,0,0.294-0.208,0.369-0.257c0.14-0.092,0.238-0.16,0.307-0.212
				c-0.083-0.029-0.202-0.068-0.371-0.118c-0.168-0.051-0.301-0.091-0.405-0.135c-0.286-0.121-0.432-0.442-0.334-0.732
				c0.25-0.737,1.116-1.136,1.953-1.522c0.352-0.162,0.708-0.326,0.881-0.462c0.468-0.369,0.923-1.011,0.666-1.605
				c-0.072-0.167-0.064-0.354,0.022-0.512c0.085-0.158,0.236-0.268,0.415-0.301c0.108-0.02,0.221-0.03,0.338-0.03
				c0.961,0,2.197,0.66,2.792,1.271c0.244,0.25,0.434,0.564,0.619,0.868c0.358,0.591,0.565,0.868,0.788,0.868
				c0.076,0,0.168-0.026,0.283-0.081c0.794-0.379,1.502-1.578,1.167-2.332c-0.103-0.229-0.295-0.311-0.743-0.455
				c-0.385-0.125-0.858-0.28-1.181-0.699c-0.181-0.234-0.158-0.567,0.052-0.776c0.35-0.348,0.843-0.388,1.169-0.415
				c0.605-0.051,1.223-0.074,1.882-0.074c0.427,0,0.815,0.01,1.136,0.022c0.158,0.006,0.305,0.073,0.412,0.188
				c0.108,0.116,0.165,0.267,0.159,0.425c-0.011,0.318-0.275,0.568-0.602,0.568c-0.322-0.012-0.693-0.021-1.101-0.021
				c-0.255,0-0.503,0.003-0.743,0.011c0.261,0.166,0.492,0.398,0.648,0.749c0.619,1.391-0.445,3.256-1.74,3.874
				c-0.277,0.132-0.547,0.199-0.802,0.199c-0.931,0-1.455-0.862-1.801-1.433c-0.159-0.262-0.308-0.509-0.46-0.666
				c-0.285-0.293-0.899-0.665-1.442-0.828c-0.026,0.877-0.608,1.651-1.191,2.11c-0.283,0.223-0.685,0.409-1.111,0.605
				c-0.253,0.116-0.545,0.25-0.795,0.391c0.213,0.092,0.411,0.213,0.547,0.39c0.229,0.296,0.238,0.581,0.206,0.767
				c-0.088,0.516-0.58,0.838-0.938,1.073l-0.187,0.126l-0.167,0.12c-0.584,0.417-1.943,1.387-2.002,2.102
				c-0.009,0.109,0.006,0.26,0.208,0.459c0.101,0.101,0.154,0.114,0.193,0.114c0.129,0,0.363-0.146,0.674-0.363l0.229-0.157
				c0.723-0.479,1.813-1.113,2.962-1.113c0.327,0,0.644,0.052,0.941,0.154c0.993,0.341,1.184,1.122,1.323,1.691
				c0.056,0.225,0.102,0.416,0.185,0.596c0.177,0.383,0.611,0.595,1.409,0.686c0.159,0.018,0.301,0.097,0.4,0.222
				c0.098,0.123,0.142,0.277,0.124,0.434c-0.037,0.299-0.291,0.522-0.592,0.522L19.52,19.789z"/>
			<path fill="#cdb8ab" d="M23.497,5.999c0.424,0,0.81,0.01,1.127,0.022c0.205,0.008,0.365,0.179,0.357,0.382
				c-0.007,0.2-0.178,0.354-0.379,0.354c-0.003,0-0.006,0-0.009,0c-0.308-0.012-0.682-0.021-1.092-0.021
				c-0.533,0-1.127,0.016-1.717,0.063c0.03,0.01,0.06,0.02,0.091,0.029c0.464,0.15,1.042,0.336,1.329,0.98
				c0.57,1.281-0.426,3.007-1.633,3.583c-0.261,0.125-0.496,0.178-0.707,0.178c-0.807,0-1.277-0.776-1.611-1.328
				c-0.165-0.272-0.321-0.53-0.491-0.704C18.4,9.164,17.566,8.686,16.926,8.58c0.112,0.901-0.475,1.732-1.093,2.22
				c-0.263,0.208-0.654,0.388-1.069,0.579c-0.396,0.182-0.894,0.411-1.195,0.652c0.337,0.104,0.686,0.231,0.867,0.466
				c0.179,0.231,0.188,0.449,0.163,0.593c-0.072,0.421-0.499,0.701-0.842,0.926c-0.069,0.046-0.136,0.089-0.193,0.13l-0.168,0.121
				c-0.657,0.469-2.026,1.445-2.094,2.264c-0.019,0.229,0.067,0.433,0.273,0.636c0.119,0.119,0.225,0.178,0.35,0.178
				c0.188,0,0.418-0.134,0.801-0.402c0.076-0.053,0.151-0.104,0.226-0.155c0.741-0.49,1.771-1.075,2.837-1.075
				c0.289,0,0.58,0.042,0.869,0.142c0.879,0.302,1.045,0.986,1.179,1.536c0.056,0.224,0.107,0.436,0.198,0.634
				c0.212,0.461,0.702,0.713,1.585,0.813c0.205,0.023,0.352,0.207,0.328,0.409c-0.023,0.188-0.184,0.325-0.371,0.325
				c-0.014,0-0.029-0.001-0.044-0.002c-0.728-0.084-1.747-0.305-2.179-1.242c-0.12-0.261-0.186-0.529-0.243-0.766
				c-0.136-0.555-0.228-0.852-0.699-1.013c-0.203-0.069-0.412-0.1-0.623-0.1c-0.87,0-1.771,0.519-2.421,0.95
				c-0.07,0.046-0.141,0.096-0.211,0.144c-0.333,0.232-0.772,0.54-1.248,0.54c-0.281,0-0.574-0.106-0.865-0.397
				c-0.36-0.357-0.524-0.767-0.487-1.215c0.096-1.156,1.539-2.185,2.401-2.8l0.165-0.118c0.065-0.047,0.141-0.097,0.221-0.149
				c0.147-0.097,0.49-0.321,0.517-0.432c-0.001,0-0.006-0.01-0.019-0.027c-0.077-0.086-0.46-0.2-0.645-0.254
				c-0.142-0.043-0.277-0.083-0.383-0.127c-0.179-0.076-0.27-0.274-0.208-0.456c0.22-0.648,1.044-1.027,1.842-1.395
				c0.373-0.171,0.726-0.334,0.918-0.486c0.53-0.418,1.04-1.158,0.732-1.869c-0.044-0.103-0.04-0.22,0.014-0.318
				c0.053-0.099,0.149-0.167,0.26-0.188c0.095-0.018,0.194-0.026,0.297-0.026c0.913,0,2.099,0.655,2.632,1.203
				c0.229,0.234,0.414,0.541,0.593,0.836c0.389,0.642,0.626,0.967,0.973,0.967c0.112,0,0.235-0.034,0.378-0.103
				c0.889-0.424,1.666-1.744,1.274-2.623c-0.146-0.326-0.429-0.432-0.877-0.576c-0.37-0.121-0.791-0.256-1.073-0.623
				c-0.113-0.146-0.099-0.352,0.032-0.482c0.294-0.292,0.722-0.326,1.035-0.352l0.042-0.004C22.304,6.016,22.934,5.999,23.497,5.999
				 M23.497,5.554c-0.666,0-1.29,0.023-1.854,0.07c-0.405,0.034-0.946,0.079-1.354,0.483c-0.29,0.288-0.32,0.748-0.071,1.07
				c0.365,0.474,0.874,0.639,1.282,0.772c0.447,0.144,0.555,0.203,0.614,0.336c0.279,0.628-0.381,1.716-1.06,2.04
				c-0.108,0.052-0.164,0.059-0.187,0.059c-0.136,0-0.444-0.508-0.592-0.752c-0.196-0.323-0.393-0.648-0.655-0.917
				c-0.626-0.643-1.932-1.338-2.951-1.338c-0.132,0-0.26,0.011-0.379,0.034c-0.245,0.046-0.453,0.197-0.57,0.415
				c-0.119,0.218-0.13,0.476-0.031,0.706c0.222,0.512-0.272,1.085-0.599,1.343c-0.151,0.12-0.496,0.278-0.829,0.431
				c-0.887,0.41-1.797,0.829-2.078,1.656c-0.136,0.4,0.065,0.843,0.457,1.009c0.103,0.042,0.228,0.082,0.361,0.123
				c-0.055,0.037-0.1,0.067-0.14,0.097l-0.164,0.117c-0.923,0.658-2.472,1.761-2.585,3.124c-0.048,0.578,0.166,1.12,0.617,1.568
				c0.35,0.349,0.747,0.526,1.179,0.526c0.616,0,1.129-0.358,1.503-0.62l0.076-0.052l0.124-0.084
				c0.57-0.378,1.413-0.879,2.178-0.879c0.17,0,0.331,0.026,0.479,0.076c0.223,0.076,0.273,0.135,0.411,0.697
				c0.059,0.244,0.133,0.547,0.271,0.847c0.588,1.273,2.051,1.442,2.533,1.498l0.095,0.005c0.414,0,0.763-0.309,0.813-0.717
				c0.025-0.218-0.036-0.431-0.17-0.601c-0.136-0.172-0.331-0.279-0.549-0.305c-0.912-0.104-1.138-0.353-1.232-0.558
				c-0.071-0.153-0.115-0.329-0.165-0.532c-0.148-0.607-0.364-1.491-1.472-1.872c-0.321-0.11-0.663-0.166-1.013-0.166
				c-1.209,0-2.339,0.656-3.083,1.149l-0.235,0.161c-0.278,0.194-0.458,0.302-0.535,0.32c-0.004-0.006-0.021-0.02-0.047-0.046
				c-0.155-0.152-0.147-0.237-0.144-0.283c0.051-0.612,1.447-1.608,1.906-1.936l0.173-0.124c0.044-0.032,0.097-0.066,0.152-0.103
				c0.419-0.275,0.958-0.628,1.062-1.24c0.056-0.325-0.032-0.659-0.25-0.94c-0.073-0.094-0.16-0.175-0.256-0.245
				c0.145-0.071,0.29-0.137,0.417-0.196c0.441-0.203,0.855-0.394,1.159-0.634c0.557-0.439,1.115-1.152,1.247-1.979
				c0.429,0.174,0.869,0.452,1.088,0.678c0.135,0.139,0.285,0.386,0.429,0.625c0.351,0.578,0.936,1.542,1.992,1.542
				c0.288,0,0.59-0.074,0.898-0.221c1.412-0.673,2.527-2.64,1.848-4.166c-0.076-0.173-0.17-0.32-0.274-0.446c0.056,0,0.11,0,0.166,0
				c0.403,0,0.771,0.009,1.075,0.021c0,0,0,0,0.001,0c0.472,0,0.833-0.344,0.848-0.783c0.009-0.216-0.069-0.424-0.218-0.584
				c-0.148-0.158-0.35-0.25-0.567-0.258C24.319,5.563,23.928,5.554,23.497,5.554L23.497,5.554z"/>
		</g>
	</g>
	<g>
		<g>
			<path fill="#FFFCF6" d="M23.398,19.87c-1.477,0-2.573-0.35-3.351-1.068c-0.816-0.756-0.83-1.701-0.841-2.46
				c-0.004-0.334-0.008-0.645-0.065-0.937c-0.049-0.246-0.136-0.45-0.258-0.609c-0.794,0.192-1.648,0.363-2.547,0.363
				c-0.131,0-0.263-0.003-0.396-0.011c-0.147,0.105-0.294,0.216-0.443,0.329c-0.609,0.459-1.238,0.935-2.052,1.176
				c-0.491,0.145-1.051,0.215-1.712,0.215c-0.754,0-1.505-0.092-2.169-0.173c-0.174-0.022-0.353-0.039-0.555-0.059
				c-1.571-0.154-4.186-0.411-4.738-1.911c-0.114-0.309-0.22-0.712-0.02-1.083c0.216-0.399,0.64-0.503,1.05-0.604l0.12-0.029
				c1.223-0.3,2.489-0.611,3.773-0.611c0.563,0,1.082,0.058,1.586,0.178c0.688,0.163,1.363,0.386,2.017,0.602
				c0.853,0.283,1.697,0.563,2.54,0.712c0.094,0.018,0.188,0.031,0.28,0.043c0.239-0.154,0.466-0.28,0.692-0.382
				c0.523-0.236,1.066-0.361,1.571-0.361c0.44,0,0.844,0.091,1.199,0.271c0.029,0.015,0.058,0.03,0.085,0.045l0.276-0.071
				c0.255-0.065,0.514-0.132,0.775-0.194c0.453-0.107,0.819-0.157,1.152-0.157c0.687,0,1.276,0.206,2.103,0.734
				c0.831,0.532,1.628,0.556,2.551,0.583c0.405,0.012,0.821,0.025,1.271,0.076c0.971,0.111,1.623,0.593,2.255,1.06
				c0.469,0.345,0.905,0.666,1.437,0.795c0.158,0.038,0.34,0.058,0.54,0.058c1.4,0,3.389-0.945,4.354-1.615
				c0.276-0.192,0.593-0.478,0.534-0.752c-0.163-0.765-2.203-1.729-3.447-1.98c-0.282-0.057-0.482-0.306-0.477-0.592
				c0.007-0.285,0.218-0.524,0.502-0.571c0.256-0.04,0.652-0.462,0.674-0.718c0.023-0.299-0.304-0.463-1.046-0.718l-0.278-0.098
				c-1.111-0.408-2.289-0.785-3.367-0.785c-0.466,0-0.895,0.071-1.274,0.212c-0.22,0.082-0.458,0.181-0.711,0.286
				c-0.883,0.366-1.979,0.82-3.04,0.82c-0.801,0-1.485-0.264-2.034-0.783c-0.452-0.429-0.539-0.9-0.609-1.279
				c-0.041-0.219-0.072-0.392-0.166-0.543c-0.078-0.125-0.183-0.192-0.353-0.226c-0.071-0.014-0.147-0.021-0.228-0.021
				c-0.729,0-1.849,0.513-2.532,0.996c-0.102,0.072-0.222,0.11-0.346,0.11c-0.191,0-0.372-0.091-0.483-0.245
				c-0.094-0.129-0.131-0.286-0.105-0.441c0.026-0.156,0.111-0.292,0.242-0.385c0.639-0.452,2.037-1.215,3.224-1.215
				c0.16,0,0.315,0.014,0.463,0.043c0.491,0.098,0.883,0.362,1.133,0.766c0.211,0.338,0.274,0.676,0.324,0.948
				c0.053,0.286,0.087,0.475,0.26,0.638c0.327,0.31,0.728,0.46,1.228,0.46c0.796,0,1.692-0.373,2.56-0.733
				c0.294-0.121,0.529-0.218,0.755-0.302c0.516-0.192,1.085-0.289,1.692-0.289c1.263,0,2.564,0.414,3.782,0.86l0.191,0.068
				c0.79,0.271,2.006,0.689,1.904,1.951c-0.025,0.325-0.182,0.68-0.43,0.993c0.953,0.356,2.882,1.229,3.157,2.531
				c0.106,0.498,0.018,1.244-1.016,1.961c-0.909,0.633-3.132,1.828-5.034,1.828c-0.298,0-0.576-0.03-0.827-0.092
				c-0.765-0.183-1.321-0.593-1.859-0.989c-0.561-0.413-1.035-0.763-1.685-0.837c-0.391-0.045-0.766-0.056-1.128-0.067
				c-1.099-0.033-2.095-0.063-3.206-0.773c-0.566-0.362-0.946-0.546-1.45-0.546c-0.239,0-0.519,0.04-0.881,0.126l-0.41,0.102
				c0.101,0.208,0.176,0.438,0.226,0.686c0.078,0.396,0.083,0.774,0.088,1.14c0.009,0.678,0.017,1.208,0.462,1.619
				c0.549,0.508,1.372,0.754,2.518,0.754c0.738,0,1.517-0.1,2.203-0.188l1.284-0.158c1.378-0.172,2.77-0.345,4.189-0.35
				c0.328,0,0.596,0.265,0.598,0.589c0.001,0.157-0.061,0.305-0.172,0.417c-0.112,0.113-0.263,0.176-0.423,0.176
				c-1.361,0.006-2.664,0.168-4.043,0.34l-1.28,0.159C24.99,19.771,24.2,19.87,23.398,19.87z M5.393,14.321
				c0.297,0.806,2.793,1.049,3.733,1.14c0.226,0.022,0.409,0.041,0.559,0.06c0.653,0.08,1.375,0.168,2.051,0.168
				c0.538,0,0.986-0.055,1.37-0.168c0.439-0.129,0.842-0.379,1.21-0.643c-0.638-0.161-1.257-0.367-1.859-0.567
				c-0.648-0.214-1.307-0.432-1.952-0.585c-0.409-0.097-0.836-0.144-1.305-0.144c-1.152,0-2.341,0.292-3.491,0.575
				c0,0-0.26,0.063-0.343,0.086C5.373,14.266,5.382,14.292,5.393,14.321z"/>
			<path fill="#cdb8ab" d="M20.561,6.068c0.145,0,0.285,0.012,0.42,0.039c0.429,0.085,0.771,0.315,0.987,0.665
				c0.189,0.302,0.245,0.605,0.294,0.872c0.056,0.305,0.101,0.546,0.326,0.759c0.399,0.378,0.873,0.521,1.381,0.521
				c0.841,0,1.779-0.39,2.646-0.75c0.263-0.108,0.51-0.211,0.746-0.299C27.886,7.68,28.429,7.6,28.977,7.6
				c1.256,0,2.542,0.42,3.705,0.847c0.082,0.03,0.169,0.06,0.258,0.09c0.709,0.244,1.781,0.611,1.693,1.701
				c-0.03,0.384-0.271,0.797-0.598,1.108c1.262,0.425,3.081,1.308,3.329,2.479c0.093,0.433,0.007,1.085-0.925,1.733
				c-1.094,0.761-3.222,1.789-4.907,1.789c-0.271,0-0.532-0.027-0.774-0.086c-0.725-0.174-1.264-0.572-1.786-0.957
				c-0.554-0.408-1.075-0.794-1.785-0.875c-0.412-0.047-0.808-0.058-1.189-0.07c-1.024-0.031-1.991-0.06-3.049-0.737
				c-0.612-0.391-1.021-0.581-1.57-0.581c-0.266,0-0.563,0.044-0.933,0.132c-0.234,0.056-0.466,0.115-0.695,0.173
				c0.162,0.25,0.278,0.543,0.344,0.875c0.074,0.376,0.079,0.745,0.083,1.103c0.01,0.697,0.017,1.3,0.534,1.776
				c0.683,0.632,1.653,0.813,2.668,0.813c0.752,0,1.528-0.1,2.231-0.189c0.162-0.021,0.321-0.041,0.475-0.06
				c0.271-0.032,0.54-0.065,0.809-0.099c1.351-0.168,2.745-0.343,4.163-0.348h0.001c0.205,0,0.372,0.164,0.373,0.367
				s-0.166,0.369-0.372,0.369c-1.371,0.006-2.684,0.169-4.07,0.342c-0.27,0.033-0.541,0.067-0.813,0.1
				c-0.151,0.018-0.309,0.038-0.47,0.06c-0.698,0.088-1.502,0.191-2.308,0.191c-1.17,0-2.343-0.218-3.2-1.009
				c-0.748-0.692-0.758-1.549-0.769-2.305c-0.004-0.34-0.009-0.661-0.069-0.972c-0.068-0.342-0.201-0.614-0.398-0.815
				c-0.867,0.214-1.72,0.389-2.626,0.389c-0.152,0-0.305-0.005-0.46-0.015c-0.17,0.12-0.34,0.248-0.513,0.379
				c-0.594,0.448-1.208,0.911-1.98,1.139c-0.518,0.153-1.082,0.206-1.649,0.206c-0.744,0-1.494-0.092-2.152-0.172l-0.016-0.003
				c-0.148-0.019-0.33-0.036-0.534-0.056c-1.513-0.148-4.045-0.395-4.55-1.766c-0.099-0.267-0.19-0.608-0.033-0.9
				c0.169-0.313,0.512-0.396,0.909-0.494l0.118-0.029c1.217-0.299,2.463-0.605,3.721-0.605c0.51,0,1.022,0.05,1.535,0.172
				c0.69,0.164,1.373,0.39,2.034,0.608c0.828,0.275,1.684,0.558,2.535,0.708c0.125,0.023,0.25,0.041,0.373,0.054
				c0.23-0.152,0.472-0.293,0.73-0.41c0.502-0.227,1.009-0.341,1.479-0.341c0.399,0,0.772,0.082,1.098,0.247
				c0.053,0.027,0.104,0.055,0.153,0.085c0.083-0.021,0.167-0.043,0.25-0.064c0.292-0.075,0.586-0.151,0.886-0.222
				c0.417-0.099,0.772-0.151,1.101-0.151c0.665,0,1.226,0.215,1.983,0.699c0.883,0.565,1.709,0.59,2.664,0.618
				c0.399,0.012,0.81,0.024,1.254,0.074c0.909,0.104,1.539,0.568,2.147,1.018c0.483,0.355,0.938,0.691,1.516,0.832
				c0.182,0.044,0.381,0.064,0.593,0.064c1.429,0,3.425-0.921,4.48-1.655c0.482-0.335,0.692-0.665,0.625-0.981
				c-0.204-0.959-2.498-1.925-3.621-2.152c-0.177-0.036-0.302-0.191-0.298-0.369s0.137-0.327,0.314-0.356
				c0.357-0.055,0.83-0.563,0.86-0.918c0.038-0.487-0.448-0.691-1.195-0.947C32.6,9.2,32.508,9.169,32.421,9.137
				c-1.095-0.402-2.305-0.799-3.444-0.799c-0.466,0-0.921,0.066-1.352,0.227c-0.223,0.083-0.464,0.183-0.719,0.289
				c-0.871,0.361-1.937,0.803-2.955,0.803c-0.67,0-1.32-0.191-1.881-0.722c-0.398-0.378-0.476-0.792-0.543-1.158
				c-0.043-0.233-0.081-0.434-0.196-0.62c-0.11-0.177-0.269-0.281-0.498-0.327c-0.084-0.017-0.176-0.025-0.271-0.025
				c-0.82,0-2.005,0.574-2.66,1.037c-0.066,0.047-0.143,0.069-0.218,0.069c-0.116,0-0.231-0.053-0.304-0.153
				c-0.12-0.166-0.082-0.395,0.085-0.514C18.087,6.804,19.442,6.068,20.561,6.068 M11.736,15.912c0.503,0,0.991-0.047,1.433-0.178
				c0.613-0.181,1.128-0.558,1.667-0.963c-0.79-0.167-1.56-0.422-2.309-0.67c-0.645-0.213-1.313-0.435-1.971-0.59
				c-0.447-0.105-0.9-0.15-1.356-0.15c-1.177,0-2.375,0.294-3.544,0.581L5.538,13.97c-0.154,0.037-0.36,0.088-0.427,0.129
				c-0.001,0.03,0.005,0.115,0.073,0.298c0.344,0.936,2.76,1.172,3.92,1.285c0.211,0.021,0.399,0.04,0.553,0.059l0.016,0.001
				C10.336,15.824,11.05,15.912,11.736,15.912 M20.561,5.623c-1.242,0-2.691,0.79-3.352,1.256c-0.179,0.127-0.297,0.315-0.333,0.53
				c-0.035,0.215,0.016,0.431,0.144,0.608c0.154,0.212,0.402,0.338,0.664,0.338c0.17,0,0.334-0.052,0.474-0.15
				c0.665-0.47,1.745-0.955,2.403-0.955c0.065,0,0.127,0.004,0.185,0.016c0.136,0.027,0.175,0.075,0.207,0.126
				c0.068,0.109,0.096,0.248,0.136,0.465c0.071,0.389,0.169,0.922,0.674,1.4c0.592,0.561,1.328,0.845,2.187,0.845
				c1.105,0,2.224-0.463,3.122-0.836c0.253-0.105,0.489-0.204,0.707-0.285c0.359-0.134,0.751-0.199,1.196-0.199
				c1.044,0,2.198,0.371,3.291,0.772c0.076,0.028,0.156,0.056,0.24,0.084c0.604,0.207,0.95,0.356,0.938,0.506
				c-0.014,0.152-0.33,0.489-0.485,0.513c-0.393,0.064-0.683,0.394-0.691,0.786c-0.008,0.394,0.268,0.737,0.655,0.815
				c1.29,0.261,3.145,1.203,3.273,1.809c0.019,0.086-0.087,0.274-0.443,0.523c-0.94,0.654-2.874,1.575-4.227,1.575
				c-0.183,0-0.347-0.018-0.488-0.052c-0.487-0.119-0.887-0.413-1.35-0.753c-0.631-0.466-1.339-0.989-2.367-1.106
				c-0.472-0.053-0.907-0.065-1.292-0.077c-0.926-0.027-1.657-0.049-2.437-0.548c-0.867-0.554-1.49-0.77-2.223-0.77
				c-0.351,0-0.733,0.052-1.204,0.164c-0.263,0.062-0.522,0.129-0.779,0.195l-0.115,0.029l-0.078,0.02
				c-0.004-0.002-0.008-0.004-0.012-0.006c-0.388-0.196-0.825-0.295-1.3-0.295c-0.536,0-1.111,0.132-1.663,0.381
				c-0.214,0.098-0.429,0.214-0.652,0.354c-0.062-0.008-0.125-0.019-0.187-0.03c-0.83-0.146-1.667-0.424-2.476-0.693
				c-0.694-0.229-1.375-0.454-2.072-0.619c-0.522-0.124-1.058-0.184-1.638-0.184c-1.312,0-2.59,0.314-3.827,0.618l-0.118,0.029
				c-0.438,0.107-0.932,0.228-1.195,0.714c-0.246,0.455-0.114,0.94,0.007,1.266c0.6,1.63,3.302,1.896,4.916,2.054
				c0.208,0.02,0.385,0.037,0.53,0.055c0.697,0.086,1.457,0.179,2.224,0.179c0.683,0,1.264-0.073,1.775-0.225
				c0.852-0.252,1.527-0.762,2.122-1.211c0.127-0.096,0.252-0.19,0.376-0.281c0.11,0.005,0.22,0.007,0.329,0.007
				c0.864,0,1.684-0.153,2.448-0.333c0.062,0.112,0.109,0.246,0.14,0.401c0.053,0.271,0.057,0.572,0.061,0.891
				c0.011,0.807,0.025,1.805,0.912,2.625c0.821,0.759,1.967,1.128,3.502,1.128c0.815,0,1.613-0.101,2.316-0.189l0.05-0.006
				c0.159-0.021,0.313-0.042,0.463-0.059l0.593-0.073l0.223-0.027c1.373-0.171,2.669-0.332,4.018-0.338
				c0.218,0,0.424-0.086,0.579-0.241c0.153-0.154,0.237-0.358,0.236-0.575c-0.002-0.447-0.369-0.811-0.818-0.811
				c-1.437,0.005-2.835,0.179-4.188,0.348l-0.838,0.102c-0.155,0.02-0.316,0.039-0.48,0.061c-0.678,0.087-1.449,0.186-2.173,0.186
				c-1.087,0-1.861-0.227-2.366-0.694c-0.358-0.331-0.381-0.746-0.391-1.452c-0.005-0.383-0.01-0.771-0.092-1.186
				c-0.034-0.172-0.08-0.336-0.138-0.491c0.052-0.013,0.104-0.025,0.156-0.038c0.345-0.082,0.608-0.12,0.83-0.12
				c0.407,0,0.718,0.12,1.331,0.511c1.162,0.743,2.236,0.775,3.275,0.807c0.402,0.012,0.774,0.023,1.152,0.067
				c0.59,0.067,1.043,0.401,1.567,0.787c0.541,0.398,1.142,0.841,1.951,1.035c0.267,0.064,0.563,0.098,0.878,0.098
				c1.957,0,4.232-1.222,5.161-1.868c1.193-0.829,1.205-1.729,1.106-2.191c-0.272-1.283-1.917-2.145-3.027-2.588
				c0.175-0.282,0.281-0.582,0.304-0.871c0.116-1.433-1.254-1.903-1.989-2.156l-0.064-0.022l-0.187-0.066
				c-1.238-0.455-2.562-0.875-3.859-0.875c-0.634,0-1.229,0.102-1.771,0.303c-0.228,0.084-0.466,0.183-0.717,0.287
				c-0.892,0.37-1.768,0.734-2.52,0.734c-0.446,0-0.788-0.126-1.075-0.399c-0.115-0.109-0.141-0.23-0.194-0.517
				c-0.054-0.291-0.121-0.652-0.354-1.027c-0.283-0.456-0.725-0.755-1.278-0.865C20.909,5.639,20.738,5.623,20.561,5.623
				L20.561,5.623z M5.695,14.39l0.068-0.017c1.137-0.279,2.313-0.568,3.438-0.568c0.451,0,0.861,0.045,1.253,0.138
				c0.635,0.15,1.29,0.367,1.922,0.576c0.463,0.154,0.931,0.31,1.409,0.446c-0.245,0.15-0.483,0.266-0.742,0.342
				c-0.363,0.107-0.791,0.159-1.307,0.159c-0.662,0-1.376-0.088-2.008-0.166c-0.167-0.02-0.353-0.039-0.56-0.059
				C7.206,15.051,6.045,14.765,5.695,14.39L5.695,14.39z"/>
		</g>
	</g>
	<g>
		<g>
			<path fill="#FFFCF6" d="M11.527,19.984c-1.187,0-2.143-0.201-2.841-0.597c-0.674-0.382-1.102-0.934-1.274-1.64
				c-0.295-1.214,0.464-3.157,1.659-4.242c0.547-0.497,1.145-0.759,1.73-0.759c0.2,0,0.398,0.031,0.588,0.092
				c0.409,0.133,0.756,0.313,1.092,0.486c0.483,0.249,0.899,0.463,1.365,0.463c0.141,0,0.279-0.019,0.424-0.057
				c0.815-0.218,1.604-1.161,2.027-1.667c0.183-0.218,0.346-0.43,0.503-0.635c0.597-0.777,1.161-1.51,2.315-2.008
				c0.924-0.398,1.924-0.609,2.893-0.609c0.436,0,0.866,0.042,1.277,0.126c1.797,0.365,3.358,1.231,4.254,2.346
				c0.243-0.388,0.492-0.757,0.917-1.119c1.148-0.979,2.03-1.029,3.375-1.03c0.329,0,0.598,0.265,0.598,0.591
				c0,0.325-0.268,0.59-0.597,0.591c-1.23,0-1.763,0.029-2.599,0.743c-0.333,0.284-0.512,0.573-0.739,0.939
				c-0.093,0.149-0.187,0.301-0.295,0.458c0.037,0.107,0.069,0.216,0.096,0.327c0.121-0.008,0.243-0.011,0.365-0.011
				c1.934,0,3.94,0.914,5.071,1.696c0.788,0.545,1.263,1.269,1.721,1.969c0.108,0.167,0.383,0.579,0.419,0.637
				c0.189,0.309,0.281,0.449,0.379,0.476c0.153,0.043,0.281,0.143,0.36,0.28c0.077,0.138,0.097,0.296,0.054,0.447
				c-0.07,0.255-0.308,0.434-0.575,0.434l-0.155-0.021c-0.562-0.154-0.834-0.598-1.032-0.922c-0.056-0.092-0.089-0.146-0.125-0.198
				c-0.108-0.159-0.214-0.319-0.316-0.479c-0.417-0.637-0.812-1.238-1.412-1.654c-1.065-0.738-2.838-1.482-4.394-1.482
				c-0.266,0-0.517,0.022-0.745,0.067l-0.115,0.011c-0.129,0-0.258-0.043-0.362-0.122c-0.116-0.088-0.194-0.213-0.221-0.352
				c-0.618,0.56-1.449,1.157-2.133,1.319c-0.146,0.035-0.295,0.053-0.444,0.053c-0.504,0-0.919-0.196-1.253-0.354
				c-0.285-0.132-0.486-0.22-0.655-0.22c-0.075,0-0.146,0.017-0.223,0.052c-0.563,0.259-1.092,0.945-1.603,1.608
				c-0.432,0.562-0.879,1.142-1.404,1.546c-1.22,0.937-2.768,1.439-4.379,1.914C14.482,19.666,13.011,19.984,11.527,19.984z
				 M10.796,13.928c-0.351,0-0.694,0.244-0.919,0.449c-0.851,0.773-1.498,2.305-1.306,3.093c0.094,0.389,0.319,0.672,0.708,0.894
				c0.509,0.289,1.292,0.442,2.262,0.442c1.233,0,2.481-0.237,3.237-0.46c1.497-0.439,2.929-0.902,3.987-1.718
				c0.402-0.307,0.784-0.802,1.188-1.327c0.598-0.776,1.216-1.58,2.049-1.962c0.233-0.107,0.475-0.161,0.72-0.161
				c0.457,0,0.852,0.185,1.169,0.333c0.275,0.129,0.512,0.239,0.741,0.239c0.057,0,0.111-0.006,0.167-0.02
				c0.535-0.127,1.433-0.816,2.004-1.427c-0.651-1.015-2.104-1.873-3.757-2.209c-0.325-0.066-0.669-0.099-1.023-0.099
				c-0.821,0-1.661,0.175-2.431,0.507c-0.869,0.375-1.276,0.906-1.841,1.639c-0.167,0.217-0.338,0.44-0.532,0.672
				c-0.509,0.608-1.456,1.741-2.64,2.056c-0.249,0.067-0.499,0.101-0.742,0.101c-0.747,0-1.337-0.305-1.907-0.599
				c-0.306-0.157-0.604-0.31-0.911-0.409C10.946,13.939,10.872,13.928,10.796,13.928z"/>
			<path fill="#cdb8ab" d="M22.009,9.034c0.419,0,0.833,0.04,1.233,0.122c1.689,0.343,3.42,1.214,4.314,2.523
				c0.037-0.061,0.074-0.12,0.111-0.18c0.238-0.384,0.484-0.783,0.934-1.165c1.09-0.93,1.896-0.976,3.23-0.977
				c0.207,0,0.375,0.164,0.375,0.368c0,0.203-0.168,0.368-0.375,0.369c-1.254,0-1.848,0.033-2.742,0.797
				c-0.359,0.307-0.557,0.625-0.785,0.992c-0.107,0.174-0.219,0.354-0.354,0.542c0.074,0.192,0.131,0.391,0.168,0.597
				c0.178-0.019,0.358-0.027,0.542-0.027c1.745,0,3.698,0.794,4.944,1.657c0.758,0.524,1.221,1.235,1.67,1.921
				c0.1,0.154,0.201,0.309,0.305,0.462c0.055,0.076,0.102,0.158,0.152,0.237c0.168,0.274,0.279,0.443,0.459,0.493
				c0.199,0.055,0.314,0.258,0.26,0.453c-0.046,0.164-0.197,0.271-0.361,0.271c-0.032,0-0.065-0.004-0.098-0.013
				c-0.475-0.131-0.711-0.515-0.9-0.823c-0.043-0.07-0.084-0.14-0.131-0.208c-0.107-0.157-0.211-0.315-0.313-0.474
				c-0.43-0.655-0.836-1.275-1.473-1.717c-1.181-0.817-2.994-1.522-4.521-1.522c-0.273,0-0.538,0.022-0.788,0.071
				c-0.023,0.005-0.048,0.007-0.072,0.007c-0.081,0-0.162-0.027-0.229-0.078c-0.086-0.065-0.139-0.163-0.143-0.27
				c-0.008-0.124-0.025-0.245-0.051-0.365c-0.66,0.665-1.623,1.393-2.346,1.564c-0.136,0.032-0.267,0.046-0.393,0.046
				c-0.451,0-0.837-0.181-1.158-0.332c-0.308-0.143-0.532-0.241-0.75-0.241c-0.104,0-0.207,0.022-0.316,0.073
				c-0.613,0.282-1.159,0.99-1.687,1.674c-0.424,0.551-0.864,1.12-1.363,1.505c-1.192,0.915-2.717,1.409-4.307,1.877
				c-0.664,0.196-2.094,0.497-3.528,0.497c-0.993,0-1.987-0.146-2.731-0.567c-0.618-0.351-1.011-0.854-1.167-1.499
				C7.354,16.57,8.098,14.69,9.22,13.67c0.509-0.462,1.055-0.701,1.581-0.701c0.176,0,0.351,0.027,0.52,0.082
				c0.389,0.126,0.729,0.302,1.059,0.472c0.5,0.257,0.946,0.488,1.467,0.488c0.153,0,0.313-0.02,0.481-0.065
				c0.885-0.236,1.703-1.216,2.143-1.742c0.183-0.218,0.348-0.433,0.507-0.64c0.579-0.753,1.126-1.464,2.227-1.939
				C20.11,9.234,21.074,9.034,22.009,9.034 M13.838,14.749c-0.692,0-1.256-0.291-1.805-0.574c-0.302-0.155-0.614-0.316-0.944-0.423
				c-0.099-0.032-0.196-0.046-0.292-0.046c-0.414,0-0.798,0.261-1.069,0.507c-0.917,0.833-1.584,2.441-1.373,3.311
				c0.109,0.447,0.375,0.784,0.814,1.034c0.605,0.344,1.469,0.472,2.373,0.472c1.203,0,2.475-0.227,3.3-0.469
				c1.518-0.446,2.971-0.916,4.061-1.755c0.423-0.323,0.814-0.83,1.228-1.368c0.582-0.756,1.185-1.537,1.965-1.896
				c0.22-0.101,0.429-0.141,0.627-0.141c0.407,0,0.766,0.168,1.075,0.313c0.294,0.137,0.556,0.26,0.836,0.26
				c0.071,0,0.145-0.008,0.219-0.026c0.621-0.148,1.639-0.945,2.229-1.616c-0.715-1.268-2.414-2.134-3.989-2.454
				c-0.342-0.069-0.701-0.104-1.068-0.104c-0.839,0-1.716,0.179-2.519,0.525c-0.922,0.398-1.368,0.978-1.931,1.709
				c-0.164,0.214-0.333,0.435-0.525,0.664c-0.493,0.59-1.41,1.687-2.526,1.984C14.28,14.721,14.052,14.749,13.838,14.749
				 M22.009,8.589c-0.999,0-2.029,0.217-2.981,0.627c-1.208,0.521-1.815,1.312-2.403,2.077c-0.156,0.203-0.317,0.412-0.495,0.625
				c-0.41,0.49-1.169,1.398-1.917,1.597c-0.125,0.034-0.246,0.05-0.367,0.05c-0.412,0-0.787-0.193-1.261-0.437
				c-0.33-0.17-0.702-0.362-1.127-0.5c-0.213-0.069-0.435-0.104-0.658-0.104c-0.641,0-1.291,0.283-1.88,0.817
				c-1.248,1.134-2.038,3.176-1.725,4.46c0.187,0.768,0.651,1.367,1.38,1.78c0.732,0.415,1.725,0.626,2.951,0.626
				c1.509,0,3.007-0.324,3.654-0.516c1.632-0.48,3.201-0.991,4.451-1.95c0.548-0.423,1.004-1.015,1.445-1.587
				c0.495-0.642,1.007-1.306,1.52-1.542c0.062-0.028,0.102-0.032,0.13-0.032c0.123,0,0.31,0.083,0.562,0.2
				c0.333,0.157,0.792,0.373,1.346,0.373c0.166,0,0.333-0.02,0.496-0.058c0.645-0.153,1.388-0.646,2.004-1.171
				c0.046,0.061,0.101,0.117,0.163,0.164c0.143,0.108,0.319,0.167,0.497,0.167c0.053,0,0.106-0.005,0.159-0.016
				c0.213-0.042,0.45-0.063,0.701-0.063c1.508,0,3.229,0.725,4.268,1.443c0.564,0.392,0.93,0.949,1.352,1.593
				c0.104,0.16,0.209,0.321,0.319,0.482c0.034,0.051,0.064,0.101,0.096,0.151c0.229,0.374,0.54,0.88,1.185,1.058
				c0.072,0.02,0.145,0.029,0.216,0.029c0.367,0,0.692-0.245,0.79-0.597c0.059-0.208,0.031-0.428-0.075-0.616
				c-0.107-0.19-0.283-0.327-0.495-0.385c-0.032-0.026-0.144-0.209-0.197-0.297l-0.051-0.081c-0.039-0.063-0.077-0.124-0.12-0.184
				c-0.095-0.14-0.194-0.292-0.292-0.443c-0.48-0.733-0.966-1.476-1.791-2.046c-1.157-0.8-3.213-1.735-5.197-1.735
				c-0.065,0-0.131,0.001-0.196,0.003c-0.007-0.021-0.013-0.041-0.02-0.062c0.086-0.128,0.163-0.252,0.238-0.375
				c0.218-0.35,0.389-0.626,0.695-0.888c0.769-0.656,1.23-0.69,2.453-0.69c0.453-0.001,0.82-0.366,0.82-0.813
				c0-0.448-0.368-0.813-0.82-0.813c-1.396,0-2.312,0.053-3.52,1.083c-0.356,0.304-0.6,0.618-0.799,0.916
				c-0.949-1.042-2.463-1.843-4.183-2.192C22.905,8.633,22.46,8.589,22.009,8.589L22.009,8.589z M13.838,15.194
				c0.262,0,0.531-0.037,0.799-0.108c1.252-0.334,2.228-1.501,2.752-2.128c0.196-0.235,0.37-0.46,0.537-0.679
				c0.545-0.708,0.938-1.219,1.754-1.571c0.742-0.32,1.552-0.489,2.343-0.489c0.339,0,0.669,0.032,0.979,0.095
				c1.519,0.309,2.855,1.064,3.517,1.968c-0.584,0.589-1.356,1.135-1.771,1.233c-0.038,0.009-0.076,0.014-0.115,0.014
				c-0.18,0-0.385-0.096-0.645-0.217c-0.34-0.159-0.76-0.355-1.266-0.355c-0.277,0-0.55,0.061-0.813,0.181
				c-0.883,0.406-1.518,1.231-2.132,2.029c-0.395,0.513-0.768,0.997-1.146,1.286c-1.029,0.792-2.439,1.247-3.916,1.682
				c-0.741,0.218-1.964,0.45-3.174,0.45c-0.932,0-1.677-0.144-2.153-0.413c-0.332-0.189-0.523-0.428-0.602-0.753
				c-0.157-0.645,0.384-2.099,1.239-2.876c0.278-0.252,0.551-0.391,0.77-0.391c0.053,0,0.104,0.008,0.156,0.025
				c0.289,0.093,0.579,0.242,0.859,0.386C12.395,14.862,13.037,15.194,13.838,15.194L13.838,15.194z"/>
		</g>
	</g>
	<g>
		<g>
			<path fill="#FFFCF6" d="M8.04,18.788c-0.866,0-1.634-0.316-2.221-0.914c-1.161-1.181-1.461-3.254-1.244-4.785
				c0.018-0.123,0.073-0.235,0.159-0.325c0.748-0.775,1.52-0.881,2.084-0.959c0.575-0.078,0.92-0.125,1.309-0.707
				c0.265-0.395,0.455-0.749,0.637-1.091c0.533-0.995,0.994-1.854,2.696-2.472c0.708-0.257,1.429-0.388,2.065-0.503
				c0.801-0.147,1.557-0.285,2.181-0.627c0.349-0.191,0.623-0.47,0.912-0.765c0.457-0.464,0.929-0.943,1.731-1.209
				c0.643-0.212,1.34-0.315,2.133-0.315c0.548,0,1.068,0.051,1.411,0.089c1.963,0.218,4.081,0.786,4.907,3.337
				c0.176,0.545,0.21,0.596,0.293,0.596c0.101,0,0.272-0.046,0.523-0.116c0.923-0.256,1.839-0.485,2.904-0.485
				c0.437,0,0.874,0.037,1.34,0.112l0.129,0.021c1.554,0.253,2.579,0.419,3.319,2.091c0.516,1.164,1.462,1.775,2.558,2.483
				c0.292,0.188,0.591,0.383,0.888,0.591c0.131,0.091,0.217,0.228,0.243,0.385c0.026,0.156-0.01,0.313-0.103,0.441
				c-0.11,0.154-0.292,0.247-0.484,0.247c-0.124,0-0.243-0.038-0.344-0.108c-0.252-0.177-0.51-0.344-0.761-0.507l-0.09-0.059
				c-1.203-0.779-2.338-1.513-2.997-2.999c-0.48-1.084-0.931-1.157-2.42-1.399l-0.133-0.021c-0.408-0.066-0.782-0.099-1.144-0.099
				c-0.821,0-1.598,0.169-2.584,0.443c-0.347,0.097-0.63,0.144-0.866,0.144c-0.881,0-1.169-0.663-1.408-1.4
				c-0.499-1.541-1.63-2.271-3.904-2.524c-0.519-0.058-0.916-0.084-1.29-0.084c-0.653,0-1.224,0.084-1.745,0.256
				c-0.527,0.174-0.863,0.515-1.252,0.91c-0.344,0.349-0.693,0.704-1.192,0.977c-0.797,0.437-1.645,0.591-2.542,0.754
				c-0.625,0.115-1.267,0.232-1.871,0.451c-1.273,0.462-1.566,1.009-2.051,1.916c-0.199,0.37-0.41,0.761-0.698,1.192
				c-0.688,1.027-1.492,1.136-2.138,1.223c-0.469,0.064-0.845,0.116-1.251,0.474c-0.12,1.167,0.12,2.764,0.941,3.6
				c0.363,0.369,0.821,0.557,1.362,0.557c0.091,0,0.183-0.005,0.278-0.016c0.003,0,0.005,0,0.008,0c0.364,0,0.616,0.226,0.649,0.523
				c0.017,0.157-0.028,0.311-0.127,0.434c-0.1,0.124-0.243,0.202-0.401,0.219C8.306,18.78,8.171,18.788,8.04,18.788z"/>
			<path fill="#cdb8ab" d="M20.483,4.339c0.485,0,0.952,0.04,1.387,0.088c1.893,0.21,3.933,0.753,4.72,3.185
				c0.181,0.557,0.243,0.75,0.505,0.75c0.131,0,0.313-0.048,0.583-0.124c0.961-0.266,1.826-0.477,2.845-0.477
				c0.405,0,0.835,0.034,1.304,0.11l0.13,0.021c1.534,0.25,2.46,0.4,3.151,1.961c0.543,1.225,1.516,1.853,2.642,2.581
				c0.288,0.186,0.585,0.378,0.879,0.585c0.168,0.118,0.208,0.347,0.088,0.514c-0.072,0.101-0.187,0.154-0.304,0.154
				c-0.075,0-0.151-0.022-0.217-0.068c-0.283-0.199-0.575-0.387-0.856-0.569c-1.174-0.76-2.282-1.477-2.915-2.902
				c-0.529-1.194-1.09-1.285-2.589-1.529l-0.131-0.021c-0.424-0.069-0.808-0.102-1.18-0.102c-0.834,0-1.608,0.164-2.644,0.452
				c-0.322,0.09-0.586,0.135-0.807,0.135c-0.653,0-0.923-0.402-1.196-1.247c-0.53-1.637-1.716-2.413-4.091-2.676
				c-0.428-0.048-0.868-0.085-1.314-0.085c-0.599,0-1.209,0.067-1.815,0.268c-0.579,0.191-0.95,0.569-1.343,0.968
				c-0.328,0.333-0.666,0.677-1.138,0.935c-0.762,0.417-1.595,0.57-2.475,0.73c-0.631,0.116-1.283,0.235-1.907,0.46
				c-1.354,0.492-1.68,1.101-2.172,2.021c-0.187,0.347-0.396,0.739-0.687,1.172c-0.63,0.942-1.349,1.041-1.982,1.126
				c-0.509,0.07-0.952,0.13-1.433,0.587c-0.149,1.248,0.096,2.949,0.995,3.864c0.407,0.414,0.918,0.623,1.521,0.623
				c0.098,0,0.199-0.006,0.302-0.017c0.014-0.001,0.027-0.002,0.04-0.002c0.188,0,0.351,0.14,0.372,0.328
				c0.022,0.202-0.126,0.385-0.331,0.406c-0.128,0.014-0.255,0.021-0.378,0.021c-0.807,0-1.514-0.289-2.062-0.848
				c-1.109-1.127-1.392-3.121-1.183-4.598c0.011-0.076,0.046-0.146,0.1-0.202c0.694-0.72,1.394-0.815,1.956-0.893
				c0.59-0.08,1.017-0.138,1.462-0.803c0.27-0.402,0.462-0.762,0.648-1.11c0.532-0.993,0.953-1.778,2.576-2.368
				c0.683-0.248,1.367-0.374,2.028-0.494c0.819-0.15,1.593-0.292,2.249-0.65c0.375-0.206,0.661-0.496,0.964-0.804
				c0.438-0.445,0.891-0.905,1.643-1.153C19.114,4.415,19.815,4.339,20.483,4.339 M20.483,3.895c-0.817,0-1.538,0.106-2.203,0.327
				c-0.854,0.282-1.367,0.803-1.819,1.263C16.182,5.768,15.92,6.036,15.6,6.211c-0.592,0.324-1.332,0.459-2.114,0.603
				c-0.645,0.117-1.375,0.25-2.101,0.513C9.602,7.974,9.123,8.867,8.569,9.902c-0.18,0.336-0.365,0.683-0.626,1.073
				c-0.334,0.499-0.59,0.533-1.151,0.609c-0.6,0.082-1.417,0.194-2.217,1.024c-0.119,0.125-0.195,0.278-0.22,0.446
				c-0.225,1.588,0.091,3.741,1.306,4.976c0.629,0.641,1.452,0.98,2.379,0.98c0.139,0,0.281-0.008,0.426-0.023
				c0.217-0.022,0.413-0.129,0.55-0.3c0.137-0.169,0.199-0.381,0.176-0.597c-0.046-0.414-0.396-0.726-0.814-0.726L8.291,17.37
				c-0.088,0.009-0.172,0.014-0.255,0.014c-0.486,0-0.88-0.16-1.204-0.489c-0.75-0.765-0.982-2.227-0.887-3.333
				c0.329-0.264,0.633-0.306,1.068-0.365c0.653-0.088,1.549-0.209,2.292-1.32c0.295-0.441,0.509-0.837,0.697-1.187
				c0.488-0.912,0.75-1.401,1.944-1.835c0.586-0.212,1.218-0.328,1.83-0.44c0.88-0.16,1.786-0.325,2.614-0.779
				c0.527-0.289,0.904-0.671,1.237-1.009c0.375-0.38,0.693-0.704,1.169-0.861C19.296,5.6,19.844,5.52,20.472,5.52
				c0.365,0,0.755,0.025,1.265,0.083c2.202,0.244,3.245,0.909,3.717,2.371c0.244,0.752,0.591,1.555,1.62,1.555
				c0.26,0,0.554-0.048,0.926-0.152c0.968-0.269,1.729-0.436,2.524-0.436c0.35,0,0.712,0.032,1.108,0.096l0.13,0.021
				c1.474,0.24,1.822,0.296,2.254,1.27c0.687,1.546,1.902,2.333,3.078,3.094l0.092,0.06c0.249,0.161,0.504,0.327,0.753,0.501
				c0.14,0.098,0.303,0.149,0.473,0.149c0.265,0,0.514-0.127,0.666-0.341c0.127-0.176,0.177-0.392,0.141-0.607
				c-0.036-0.216-0.155-0.404-0.336-0.53c-0.298-0.21-0.6-0.406-0.893-0.595c-1.11-0.718-1.987-1.285-2.476-2.387
				c-0.789-1.782-1.921-1.966-3.486-2.22l-0.133-0.021c-0.475-0.078-0.925-0.115-1.373-0.115c-1.094,0-2.025,0.233-2.964,0.493
				c-0.134,0.037-0.294,0.082-0.395,0.1c-0.041-0.096-0.097-0.267-0.15-0.434c-0.87-2.688-3.18-3.277-5.094-3.49
				C21.57,3.946,21.042,3.895,20.483,3.895L20.483,3.895z"/>
		</g>
	</g>
	<g>
		<g>
			<path fill="#FFFCF6" d="M26.729,19.043c-0.499-0.065-0.953-0.193-1.391-0.391c-0.313,0.065-0.588,0.112-0.81,0.134
				c-0.206,0.019-0.403,0.027-0.594,0.027c-1.53,0-2.591-0.563-3.618-1.109c-0.727-0.385-1.414-0.749-2.256-0.906
				c-0.157-0.03-0.292-0.118-0.382-0.248c-0.045-0.065-0.076-0.138-0.092-0.213c-0.798,0.158-3.016,0.563-4.883,0.563
				c-1.441,0-2.353-0.232-2.788-0.711c-0.312-0.342-0.392-0.794-0.226-1.275c0.306-0.881,1.566-1.132,2.486-1.314
				c0.133-0.026,0.251-0.05,0.345-0.072c1.66-0.394,3.304-0.73,4.886-1.002c0.987-0.169,1.959-0.384,2.974-0.655
				c0.163-0.043,0.329-0.095,0.504-0.149c0.571-0.177,1.235-0.382,1.89-0.382l0.136,0.003c0.649,0.03,1.131,0.261,1.598,0.483
				c0.37,0.178,0.711,0.341,1.094,0.369l0.125,0.004c0.298,0,0.65-0.064,1.023-0.133c0.431-0.08,0.872-0.161,1.31-0.161
				c0.428,0,0.792,0.08,1.113,0.243c0.421,0.214,0.711,0.549,0.967,0.845c0.209,0.24,0.399,0.458,0.617,0.582
				c0.689,0.388,1.783,0.871,2.592,0.955c0.099,0.01,0.196,0.015,0.294,0.015c0.575,0,1.147-0.162,1.754-0.334
				c0.669-0.19,1.343-0.382,2.081-0.382c1.239,0.013,2.243,0.551,2.669,1.404c0.368,0.738,0.254,1.589-0.316,2.335
				c-0.637,0.835-1.657,1.258-3.034,1.258c-1.056,0-2.099-0.239-2.859-0.414c-0.461-0.104-0.905-0.262-1.335-0.414
				c-0.708-0.25-1.376-0.486-2.03-0.486c-0.765,0.021-2.077,0.355-3.25,0.656c0.064,0.111,0.09,0.24,0.072,0.37
				c-0.04,0.291-0.294,0.511-0.59,0.511L26.729,19.043z M30.567,16.329c0.864,0,1.662,0.282,2.435,0.555
				c0.421,0.148,0.814,0.287,1.201,0.377c0.707,0.162,1.667,0.382,2.587,0.382c1.002,0,1.687-0.258,2.091-0.788
				c0.206-0.271,0.407-0.68,0.198-1.097c-0.227-0.454-0.825-0.74-1.563-0.748c-0.001,0-0.001,0-0.001,0
				c-0.602,0-1.174,0.162-1.78,0.334c-0.663,0.188-1.344,0.382-2.088,0.382c-0.139,0-0.279-0.007-0.422-0.022
				c-0.99-0.103-2.228-0.637-3.056-1.103c-0.406-0.229-0.698-0.567-0.933-0.84c-0.206-0.238-0.397-0.457-0.605-0.562
				c-0.146-0.075-0.334-0.111-0.573-0.111c-0.332,0-0.715,0.07-1.085,0.139c-0.415,0.077-0.835,0.154-1.242,0.154
				c-0.072,0-0.144-0.002-0.215-0.008c-0.608-0.043-1.092-0.275-1.519-0.479c-0.377-0.181-0.733-0.353-1.141-0.371
				c-0.003,0-0.007,0-0.01,0c-0.543,0-1.056,0.157-1.552,0.31c-0.208,0.065-0.408,0.126-0.602,0.178
				c-1.051,0.281-2.059,0.503-3.081,0.679c-1.582,0.271-3.201,0.604-4.813,0.987c-0.094,0.023-0.209,0.046-0.338,0.072
				c-1.403,0.28-1.614,0.478-1.642,0.55c-0.025,0.074-0.02,0.102-0.02,0.102c0.088,0.092,0.433,0.311,1.774,0.311
				c1.651,0,3.894-0.331,4.958-0.566l0.345-0.078c0.805-0.182,1.717-0.388,2.604-0.388c0.839,0,1.548,0.181,2.168,0.554
				c0.592,0.358,1.083,0.785,1.516,1.161c0.44,0.383,0.858,0.745,1.33,1.015c0.426-0.1,0.907-0.224,1.403-0.351
				c1.344-0.346,2.717-0.699,3.551-0.726L30.567,16.329z M19.407,15.959c0.525,0.202,0.998,0.453,1.46,0.698
				c0.917,0.485,1.767,0.936,2.918,0.972c-0.129-0.108-0.256-0.218-0.382-0.327c-0.444-0.385-0.876-0.76-1.375-1.061
				c-0.423-0.255-0.933-0.378-1.557-0.378C20.124,15.863,19.764,15.901,19.407,15.959z"/>
			<path fill="#cdb8ab" d="M22.775,11.562c0.042,0,0.084,0.001,0.126,0.003c0.607,0.028,1.07,0.251,1.521,0.466
				c0.381,0.183,0.741,0.355,1.164,0.386c0.046,0.003,0.093,0.005,0.142,0.005c0.319,0,0.684-0.067,1.067-0.138
				c0.421-0.078,0.851-0.157,1.266-0.157c0.352,0,0.694,0.057,1.013,0.218c0.38,0.193,0.644,0.497,0.898,0.792
				c0.218,0.25,0.422,0.486,0.677,0.63c0.709,0.398,1.835,0.895,2.678,0.982c0.106,0.011,0.213,0.016,0.317,0.016
				c0.608,0,1.201-0.168,1.823-0.345c0.641-0.183,1.302-0.372,2.012-0.372c0.016,0,0.032,0,0.048,0
				c1.104,0.012,2.033,0.502,2.422,1.281c0.33,0.66,0.222,1.425-0.294,2.101c-0.688,0.902-1.767,1.17-2.857,1.17
				c-1.033,0-2.078-0.24-2.814-0.409c-0.441-0.101-0.881-0.256-1.306-0.406c-0.725-0.256-1.411-0.499-2.104-0.499
				c-0.031,0-0.063,0.001-0.094,0.002c-0.726,0.021-2.106,0.378-3.324,0.69c-0.131,0.033-0.26,0.067-0.387,0.101
				c0.028,0.003,0.057,0.007,0.086,0.012c0.205,0.027,0.348,0.213,0.32,0.414c-0.025,0.185-0.186,0.318-0.369,0.318
				c-0.018,0-0.034-0.001-0.052-0.003c-0.53-0.07-0.985-0.214-1.389-0.403c-0.333,0.071-0.625,0.123-0.857,0.146
				c-0.198,0.019-0.389,0.026-0.572,0.026c-1.474,0-2.509-0.549-3.514-1.083c-0.742-0.394-1.444-0.766-2.32-0.929
				c-0.203-0.039-0.336-0.232-0.297-0.432c0.005-0.031,0.016-0.062,0.029-0.089c-0.031,0.008-0.062,0.014-0.092,0.021
				c-0.042,0.01-2.796,0.598-5.037,0.598c-1.163,0-2.187-0.158-2.623-0.638c-0.18-0.198-0.357-0.541-0.18-1.053
				c0.263-0.759,1.451-0.997,2.319-1.169c0.136-0.027,0.256-0.051,0.352-0.074c1.639-0.389,3.279-0.726,4.873-1
				c0.999-0.171,1.979-0.388,2.994-0.659c0.177-0.047,0.357-0.104,0.549-0.163C21.539,11.752,22.161,11.562,22.775,11.562
				 M12.572,15.933c1.667,0,3.924-0.333,5.006-0.572c0.114-0.025,0.229-0.052,0.346-0.078c0.817-0.185,1.695-0.383,2.556-0.383
				c0.71,0,1.409,0.134,2.054,0.522c0.569,0.344,1.035,0.747,1.484,1.138c0.479,0.415,0.92,0.798,1.443,1.083
				c0.45-0.104,0.97-0.237,1.505-0.375c1.317-0.339,2.68-0.689,3.489-0.715c0.037-0.002,0.076-0.002,0.112-0.002
				c0.826,0,1.606,0.275,2.362,0.542c0.423,0.149,0.823,0.291,1.224,0.384c0.691,0.158,1.688,0.388,2.637,0.388
				c0.9,0,1.757-0.207,2.268-0.876c0.345-0.452,0.424-0.925,0.221-1.332c-0.264-0.528-0.938-0.862-1.761-0.871
				c-0.009,0-0.018,0-0.026,0c-0.604,0-1.194,0.166-1.817,0.343c-0.647,0.184-1.313,0.374-2.027,0.374
				c-0.131,0-0.264-0.006-0.398-0.021c-0.957-0.099-2.161-0.62-2.97-1.075c-0.368-0.207-0.638-0.518-0.873-0.791
				c-0.219-0.251-0.425-0.49-0.674-0.616c-0.194-0.099-0.424-0.135-0.674-0.135c-0.353,0-0.743,0.072-1.126,0.143
				c-0.4,0.074-0.812,0.15-1.201,0.15c-0.067,0-0.133-0.002-0.198-0.007c-0.565-0.041-1.01-0.253-1.438-0.458
				c-0.398-0.191-0.775-0.372-1.228-0.393c-0.033-0.001-0.065-0.002-0.099-0.002c-0.498,0-1.036,0.167-1.557,0.327
				c-0.189,0.059-0.386,0.12-0.576,0.17c-1.039,0.278-2.039,0.499-3.062,0.675c-1.579,0.271-3.203,0.604-4.826,0.99
				c-0.104,0.025-0.233,0.05-0.379,0.08c-0.489,0.098-1.635,0.326-1.76,0.685c-0.073,0.211-0.007,0.285,0.028,0.324
				C10.893,15.83,11.641,15.933,12.572,15.933 M23.934,17.854c0.15,0,0.306-0.007,0.467-0.021c-0.309-0.229-0.594-0.477-0.877-0.722
				c-0.426-0.369-0.865-0.75-1.379-1.061c-0.504-0.303-1.076-0.411-1.672-0.411c-0.648,0-1.324,0.127-1.973,0.269
				c0.871,0.204,1.584,0.584,2.276,0.951C21.734,17.368,22.647,17.854,23.934,17.854 M22.775,11.117
				c-0.688,0-1.371,0.211-1.918,0.38c-0.209,0.064-0.373,0.115-0.533,0.158c-1.007,0.269-1.974,0.482-2.954,0.65
				c-1.587,0.272-3.236,0.61-4.9,1.005c-0.091,0.021-0.206,0.044-0.336,0.07c-0.973,0.193-2.306,0.458-2.653,1.459
				c-0.194,0.562-0.098,1.093,0.271,1.499c0.479,0.526,1.445,0.783,2.952,0.783c1.784,0,3.882-0.364,4.741-0.529
				c0.015,0.028,0.032,0.056,0.051,0.083c0.123,0.179,0.308,0.299,0.521,0.34c0.812,0.151,1.484,0.508,2.196,0.886
				c1.001,0.531,2.137,1.135,3.722,1.135c0.196,0,0.4-0.009,0.613-0.028c0.206-0.021,0.457-0.061,0.766-0.124
				c0.437,0.19,0.89,0.314,1.381,0.38c0.044,0.005,0.076,0.007,0.11,0.007c0.406,0,0.755-0.303,0.81-0.703
				c0.012-0.082,0.011-0.165-0.003-0.244c1.122-0.287,2.276-0.57,2.88-0.588l0.081-0.002c0.616,0,1.267,0.229,1.955,0.473
				c0.437,0.155,0.887,0.314,1.356,0.421c0.775,0.179,1.832,0.421,2.913,0.421c1.449,0,2.53-0.453,3.211-1.346
				c0.623-0.816,0.747-1.753,0.339-2.57c-0.464-0.928-1.542-1.513-2.815-1.526l-0.053,0c-0.77,0-1.458,0.196-2.125,0.386
				c-0.607,0.172-1.166,0.33-1.71,0.33c-0.09,0-0.181-0.004-0.271-0.014c-0.725-0.075-1.781-0.52-2.506-0.928
				c-0.184-0.104-0.354-0.298-0.55-0.524c-0.276-0.32-0.581-0.673-1.042-0.907c-0.354-0.179-0.75-0.266-1.214-0.266
				c-0.458,0-0.91,0.083-1.347,0.164c-0.366,0.067-0.709,0.13-0.986,0.13c-0.038,0-0.074-0.001-0.11-0.003
				c-0.34-0.025-0.646-0.172-1.003-0.343c-0.474-0.227-1-0.478-1.693-0.51C22.872,11.118,22.824,11.117,22.775,11.117L22.775,11.117
				z M11.138,15.336c0.177-0.084,0.546-0.207,1.315-0.36l0.05-0.01c0.133-0.026,0.251-0.05,0.348-0.074
				c1.606-0.382,3.221-0.713,4.798-0.984c1.029-0.177,2.043-0.4,3.102-0.684c0.196-0.052,0.398-0.114,0.593-0.175
				c0.499-0.153,0.999-0.306,1.424-0.306l0.078,0.001c0.362,0.017,0.684,0.171,1.056,0.35c0.444,0.213,0.947,0.454,1.599,0.501
				c0.075,0.006,0.152,0.008,0.23,0.008c0.428,0,0.857-0.079,1.273-0.156c0.37-0.068,0.742-0.137,1.054-0.137
				c0.203,0,0.357,0.028,0.472,0.086c0.17,0.086,0.348,0.29,0.534,0.505c0.25,0.29,0.556,0.646,0.997,0.893
				c0.847,0.477,2.117,1.024,3.142,1.13c0.15,0.016,0.298,0.022,0.444,0.022c0.774,0,1.472-0.198,2.146-0.389
				c0.595-0.168,1.152-0.327,1.699-0.327c0.666,0.007,1.203,0.252,1.389,0.625c0.158,0.315-0.009,0.644-0.176,0.863
				c-0.359,0.471-0.985,0.7-1.914,0.7c-0.896,0-1.841-0.217-2.531-0.375c-0.38-0.088-0.768-0.225-1.178-0.37
				c-0.795-0.28-1.612-0.568-2.514-0.568c-0.044,0-0.091,0-0.136,0.003c-0.849,0.026-2.233,0.383-3.573,0.728
				c-0.477,0.122-0.927,0.238-1.328,0.333c-0.421-0.252-0.795-0.576-1.221-0.945c-0.439-0.382-0.938-0.815-1.546-1.183
				c-0.657-0.395-1.403-0.587-2.284-0.587c-0.912,0-1.837,0.209-2.654,0.394l-0.142,0.032l-0.203,0.045
				c-1.054,0.233-3.274,0.562-4.909,0.562C11.746,15.488,11.335,15.405,11.138,15.336L11.138,15.336z M20.254,16.09
				c0.073-0.003,0.146-0.005,0.218-0.005c0.582,0,1.054,0.113,1.442,0.348c0.428,0.258,0.812,0.578,1.181,0.897
				c-0.762-0.148-1.397-0.484-2.104-0.858C20.749,16.343,20.505,16.213,20.254,16.09L20.254,16.09z"/>
		</g>
	</g>
	<g>
		<g>
			<path fill="#FFFCF6" d="M36.713,17.55c-0.736,0-1.501-0.278-2.116-0.502c-0.198-0.072-0.387-0.14-0.551-0.189
				c-0.153-0.047-0.278-0.15-0.353-0.291c-0.074-0.14-0.089-0.299-0.041-0.449c0.078-0.249,0.307-0.415,0.568-0.415
				c0.061,0,0.119,0.009,0.177,0.027c0.188,0.057,0.393,0.131,0.608,0.209c0.562,0.202,1.188,0.427,1.708,0.427
				c0.206,0,0.373-0.035,0.513-0.106c0.075-0.129,0.056-0.292-0.042-0.472c-0.203-0.374-0.712-0.575-1.25-0.788
				c-0.313-0.124-0.668-0.263-0.972-0.452c-0.349-0.217-0.654-0.468-0.949-0.71c-0.364-0.299-0.689-0.567-1.049-0.749
				c-0.348-0.177-0.676-0.191-1.102-0.191c-0.011,0-0.021,0-0.031,0c-0.351,0-0.662-0.002-1.007-0.057
				c-1.161-0.184-1.735-0.941-2.143-1.658c-0.066-0.117-0.126-0.24-0.184-0.359c-0.237-0.493-0.366-0.714-0.597-0.775
				c-0.004,0-0.008,0-0.012,0c-0.278,0-0.585,0.278-0.832,0.502l-0.151,0.135c-0.057,0.05-0.126,0.118-0.205,0.196
				c-0.507,0.498-1.149,1.13-1.883,1.13c-0.209,0-0.411-0.053-0.6-0.157c-0.263-0.146-0.417-0.361-0.53-0.519
				c-0.057-0.078-0.127-0.176-0.161-0.186c-0.006,0-0.012,0-0.018,0c-0.163,0-0.341,0.082-0.514,0.162
				c-0.157,0.073-0.296,0.136-0.44,0.183l-0.424,0.142c-0.768,0.26-1.639,0.555-2.52,0.556c-0.269,0-0.53-0.028-0.775-0.084
				c-0.208-0.047-0.417-0.085-0.639-0.125c-0.998-0.182-2-0.364-2.775-1.171c-0.15-0.156-0.284-0.343-0.424-0.541
				c-0.294-0.413-0.509-0.669-0.675-0.669c-0.05,0-0.111,0.019-0.185,0.057c-0.274,0.14-0.466,0.525-0.668,0.932
				c-0.262,0.523-0.558,1.115-1.148,1.48c-0.497,0.305-1.035,0.438-1.509,0.554c-0.481,0.119-0.934,0.231-1.28,0.494
				c-0.855,0.647-2.027,1.645-2.324,2.827c-0.066,0.264-0.304,0.448-0.579,0.448l-0.14-0.017c-0.157-0.039-0.289-0.135-0.371-0.271
				c-0.081-0.135-0.105-0.292-0.066-0.445c0.387-1.543,1.758-2.726,2.756-3.48c0.544-0.411,1.14-0.559,1.715-0.701
				c0.428-0.105,0.833-0.205,1.167-0.412c0.302-0.186,0.499-0.58,0.708-0.997c0.269-0.538,0.57-1.143,1.19-1.461
				c0.249-0.128,0.497-0.192,0.736-0.192c0.814,0,1.335,0.734,1.647,1.173c0.11,0.156,0.214,0.304,0.313,0.407
				c0.507,0.529,1.28,0.669,2.098,0.818c0.238,0.043,0.481,0.088,0.717,0.141c0.16,0.037,0.333,0.055,0.515,0.055
				c0.677,0,1.415-0.25,2.129-0.492l0.44-0.146c0.088-0.03,0.191-0.078,0.301-0.128c0.27-0.125,0.605-0.281,0.993-0.281
				c0.134,0,0.267,0.02,0.393,0.057c0.424,0.126,0.643,0.431,0.787,0.632c0.048,0.067,0.113,0.157,0.144,0.174l0,0
				c0.262,0,0.813-0.542,1.021-0.746c0.13-0.127,0.215-0.21,0.293-0.279l0.079-0.07c0.44-0.398,0.965-0.873,1.639-0.873
				c0.126,0,0.254,0.017,0.378,0.051c0.784,0.211,1.106,0.88,1.341,1.368c0.057,0.118,0.109,0.228,0.166,0.327
				c0.352,0.618,0.661,0.972,1.294,1.072c0.242,0.038,0.468,0.041,0.703,0.041c0.594,0.001,1.162,0.002,1.79,0.321
				c0.479,0.243,0.875,0.568,1.258,0.882c0.282,0.233,0.545,0.45,0.83,0.628c0.209,0.13,0.482,0.238,0.773,0.353
				c0.688,0.272,1.456,0.577,1.864,1.326c0.242,0.445,0.31,0.931,0.183,1.331c-0.103,0.329-0.325,0.59-0.643,0.752
				C37.466,17.469,37.108,17.55,36.713,17.55z"/>
			<path fill="#cdb8ab" d="M14.327,8.639c0.699,0,1.163,0.653,1.466,1.08c0.118,0.166,0.229,0.322,0.334,0.432
				c0.557,0.581,1.365,0.728,2.219,0.883c0.232,0.042,0.473,0.086,0.708,0.139c0.184,0.042,0.373,0.06,0.563,0.06
				c0.714,0,1.468-0.255,2.202-0.504c0.146-0.05,0.292-0.099,0.435-0.145c0.099-0.033,0.209-0.084,0.327-0.138
				c0.257-0.12,0.563-0.261,0.899-0.261c0.107,0,0.217,0.014,0.329,0.048c0.351,0.104,0.535,0.361,0.67,0.548
				c0.076,0.105,0.142,0.196,0.213,0.237c0.038,0.021,0.08,0.03,0.126,0.03c0.338,0,0.863-0.517,1.163-0.811
				c0.103-0.1,0.198-0.195,0.284-0.271c0.044-0.038,0.09-0.081,0.138-0.123c0.365-0.331,0.845-0.764,1.433-0.764
				c0.104,0,0.21,0.013,0.32,0.043c0.685,0.185,0.97,0.775,1.198,1.25c0.059,0.123,0.114,0.237,0.174,0.341
				c0.376,0.662,0.734,1.067,1.451,1.181c0.255,0.04,0.492,0.044,0.739,0.044c0.025,0,0.051,0,0.077,0
				c0.505,0.001,1.024-0.001,1.611,0.297c0.459,0.233,0.846,0.551,1.22,0.858c0.285,0.235,0.554,0.457,0.852,0.643
				c0.227,0.141,0.512,0.253,0.813,0.373c0.644,0.255,1.375,0.543,1.746,1.223c0.213,0.391,0.274,0.813,0.166,1.157
				c-0.085,0.271-0.269,0.486-0.532,0.621c-0.301,0.156-0.626,0.217-0.959,0.217c-0.692,0-1.417-0.262-2.04-0.488
				c-0.202-0.074-0.395-0.143-0.563-0.193c-0.197-0.061-0.307-0.268-0.246-0.461c0.05-0.158,0.198-0.259,0.356-0.259
				c0.037,0,0.074,0.005,0.111,0.017c0.186,0.057,0.386,0.129,0.598,0.206c0.562,0.202,1.221,0.44,1.784,0.44
				c0.225,0,0.433-0.038,0.614-0.131c0.085-0.043,0.137-0.104,0.162-0.186c0.048-0.153,0.005-0.379-0.11-0.591
				c-0.241-0.445-0.788-0.661-1.365-0.889c-0.32-0.126-0.65-0.256-0.935-0.433c-0.339-0.211-0.642-0.46-0.933-0.7
				c-0.359-0.295-0.696-0.574-1.082-0.769c-0.403-0.206-0.778-0.215-1.202-0.215c-0.022,0-0.045,0-0.067,0c-0.005,0-0.011,0-0.016,0
				c-0.288,0-0.585,0-0.92-0.054c-1.066-0.169-1.584-0.844-1.984-1.548c-0.071-0.125-0.134-0.257-0.195-0.385
				c-0.228-0.473-0.39-0.767-0.721-0.855c-0.039-0.011-0.078-0.016-0.117-0.016c-0.308,0-0.639,0.3-0.935,0.568
				c-0.049,0.045-0.099,0.09-0.146,0.131c-0.069,0.061-0.154,0.145-0.253,0.241c-0.436,0.428-1.049,1.031-1.689,1.031
				c-0.163,0-0.328-0.039-0.492-0.13c-0.218-0.121-0.351-0.305-0.457-0.454c-0.109-0.151-0.177-0.239-0.278-0.27
				c-0.035-0.011-0.072-0.016-0.111-0.016c-0.171,0-0.372,0.094-0.583,0.191c-0.132,0.061-0.268,0.125-0.41,0.17
				c-0.14,0.045-0.281,0.094-0.426,0.142c-0.763,0.259-1.604,0.544-2.449,0.544c-0.242,0-0.485-0.023-0.726-0.078
				c-0.22-0.05-0.441-0.09-0.677-0.133c-0.934-0.17-1.901-0.346-2.626-1.101c-0.143-0.149-0.27-0.327-0.404-0.516
				c-0.37-0.521-0.594-0.762-0.856-0.762c-0.089,0-0.182,0.028-0.287,0.082c-0.337,0.172-0.546,0.589-0.766,1.031
				c-0.249,0.497-0.53,1.058-1.066,1.39c-0.463,0.285-0.962,0.409-1.445,0.528c-0.503,0.125-0.978,0.242-1.361,0.533
				c-0.882,0.667-2.091,1.699-2.405,2.95c-0.042,0.167-0.195,0.28-0.363,0.28c-0.029,0-0.059-0.004-0.088-0.011
				c-0.201-0.049-0.323-0.248-0.273-0.445c0.37-1.475,1.704-2.623,2.674-3.358c0.507-0.383,1.081-0.525,1.635-0.663
				c0.447-0.11,0.868-0.214,1.23-0.438c0.357-0.22,0.568-0.644,0.793-1.091c0.264-0.528,0.537-1.074,1.091-1.358
				C13.923,8.688,14.134,8.639,14.327,8.639 M14.327,8.194c-0.275,0-0.557,0.073-0.837,0.217c-0.686,0.353-1.004,0.992-1.286,1.556
				c-0.197,0.392-0.38,0.758-0.629,0.911c-0.305,0.188-0.692,0.284-1.103,0.385c-0.57,0.141-1.216,0.301-1.796,0.74
				c-1.025,0.775-2.434,1.993-2.838,3.604c-0.053,0.21-0.021,0.428,0.092,0.614c0.113,0.188,0.293,0.319,0.508,0.372
				c0.064,0.016,0.129,0.022,0.193,0.022c0.377,0,0.704-0.253,0.795-0.616c0.28-1.114,1.414-2.076,2.242-2.703
				c0.311-0.235,0.722-0.337,1.197-0.455c0.492-0.122,1.048-0.258,1.574-0.581c0.645-0.399,0.97-1.048,1.231-1.57
				c0.178-0.358,0.362-0.727,0.571-0.834c0.06-0.031,0.084-0.032,0.084-0.032c0.046,0.015,0.176,0.128,0.493,0.575
				c0.145,0.203,0.281,0.394,0.446,0.566c0.825,0.859,1.91,1.057,2.867,1.231c0.247,0.045,0.453,0.083,0.658,0.129
				c0.262,0.059,0.539,0.089,0.825,0.089c0.917,0,1.807-0.301,2.592-0.567l0.129-0.043l0.291-0.097
				c0.152-0.049,0.299-0.116,0.442-0.182c0.126-0.058,0.282-0.13,0.371-0.151c0.024,0.031,0.053,0.071,0.07,0.095
				c0.117,0.164,0.296,0.413,0.602,0.582c0.223,0.123,0.461,0.186,0.708,0.186c0.824,0,1.533-0.697,2.002-1.158l0.036-0.036
				c0.076-0.074,0.143-0.14,0.198-0.188c0.049-0.042,0.103-0.09,0.155-0.14c0.171-0.155,0.496-0.449,0.632-0.449
				c0.137,0.036,0.245,0.22,0.437,0.618c0.079,0.163,0.141,0.291,0.21,0.412c0.434,0.762,1.047,1.568,2.302,1.767
				c0.372,0.06,0.7,0.06,0.989,0.06h0.083c0.406,0,0.696,0.012,1,0.167c0.339,0.171,0.655,0.432,0.989,0.707
				c0.32,0.263,0.632,0.519,0.992,0.744c0.321,0.2,0.686,0.343,1.007,0.469c0.501,0.198,0.974,0.384,1.137,0.687
				c0.046,0.083,0.064,0.152,0.072,0.197c-0.097,0.036-0.212,0.054-0.347,0.054c-0.482,0-1.088-0.218-1.623-0.41
				c-0.229-0.083-0.437-0.158-0.629-0.217c-0.077-0.024-0.159-0.036-0.241-0.036c-0.359,0-0.673,0.229-0.78,0.569
				c-0.065,0.209-0.046,0.429,0.056,0.621c0.102,0.193,0.273,0.336,0.483,0.4c0.163,0.049,0.347,0.114,0.54,0.186
				c0.632,0.229,1.418,0.516,2.193,0.516c0.432,0,0.823-0.09,1.164-0.268c0.369-0.188,0.63-0.494,0.752-0.883
				c0.144-0.457,0.071-1.005-0.2-1.503c-0.447-0.82-1.29-1.153-1.967-1.422c-0.292-0.115-0.557-0.22-0.748-0.339
				c-0.272-0.169-0.53-0.382-0.803-0.607c-0.396-0.325-0.801-0.658-1.303-0.912c-0.676-0.343-1.271-0.344-1.797-0.345h-0.093
				c-0.225,0-0.444-0.003-0.67-0.039c-0.489-0.078-0.765-0.312-1.134-0.961c-0.056-0.097-0.105-0.201-0.159-0.313
				c-0.24-0.499-0.602-1.25-1.483-1.488c-0.144-0.039-0.291-0.059-0.437-0.059c-0.759,0-1.344,0.529-1.73,0.879l-0.057,0.051
				l-0.074,0.066c-0.084,0.073-0.173,0.16-0.267,0.252l-0.037,0.036c-0.374,0.367-0.639,0.588-0.79,0.66
				c-0.011-0.017-0.025-0.037-0.04-0.058c-0.152-0.212-0.407-0.567-0.904-0.715c-0.146-0.044-0.3-0.066-0.456-0.066
				c-0.437,0-0.813,0.174-1.087,0.302c-0.101,0.046-0.196,0.091-0.281,0.12c-0.138,0.044-0.287,0.094-0.436,0.145
				c-0.698,0.237-1.419,0.48-2.059,0.48c-0.165,0-0.321-0.016-0.465-0.049c-0.24-0.054-0.485-0.099-0.722-0.142
				c-0.82-0.149-1.524-0.277-1.981-0.754c-0.085-0.088-0.19-0.237-0.292-0.381C15.819,8.987,15.256,8.194,14.327,8.194L14.327,8.194
				z"/>
		</g>
	</g>
</g>
</svg>
