<?xml version="1.0" encoding="utf-8"?>
<!-- Generator: Adobe Illustrator 16.0.0, SVG Export Plug-In . SVG Version: 6.00 Build 0)  -->
<!DOCTYPE svg PUBLIC "-//W3C//DTD SVG 1.1//EN" "http://www.w3.org/Graphics/SVG/1.1/DTD/svg11.dtd">
<svg version="1.1" id="Layer_1" xmlns="http://www.w3.org/2000/svg" xmlns:xlink="http://www.w3.org/1999/xlink" x="0px" y="0px"
	 width="32px" height="32px" viewBox="0 0 32 32" enable-background="new 0 0 32 32" xml:space="preserve">
<g>
	
		<path fill="#CDB8AB" stroke="#553E31" stroke-width="1.6829" stroke-linecap="round" stroke-linejoin="round" stroke-miterlimit="10" d="
		M31.25,7.796c0,10.608-6.828,19.209-15.25,19.209c-8.424,0-15.25-8.601-15.25-19.209"/>
	
		<ellipse fill="#EBE0D5" stroke="#553E31" stroke-width="1.6829" stroke-linecap="round" stroke-linejoin="round" stroke-miterlimit="10" cx="16" cy="7.587" rx="15.25" ry="4.529"/>
</g>
<g>
	<path fill="#553E31" d="M14.811,24.512h-1.922v-7.239c-0.701,0.656-1.528,1.142-2.48,1.456v-1.743
		c0.501-0.164,1.045-0.475,1.633-0.933s0.992-0.992,1.211-1.603h1.559V24.512z"/>
	<path fill="#553E31" d="M20.424,24.512h-1.921v-7.239c-0.702,0.656-1.528,1.142-2.481,1.456v-1.743
		c0.502-0.164,1.046-0.475,1.634-0.933s0.991-0.992,1.21-1.603h1.559V24.512z"/>
</g>
</svg>
