<?xml version="1.0" encoding="utf-8"?>
<!-- Generator: Adobe Illustrator 16.0.0, SVG Export Plug-In . SVG Version: 6.00 Build 0)  -->
<!DOCTYPE svg PUBLIC "-//W3C//DTD SVG 1.1//EN" "http://www.w3.org/Graphics/SVG/1.1/DTD/svg11.dtd">
<svg version="1.1" id="Layer_1" xmlns="http://www.w3.org/2000/svg" xmlns:xlink="http://www.w3.org/1999/xlink" x="0px" y="0px"
	 width="32px" height="32px" viewBox="0 0 32 32" enable-background="new 0 0 32 32" xml:space="preserve">
<g>
	
		<path fill="#CDB8AB" stroke="#553E31" stroke-width="1.6829" stroke-linecap="round" stroke-linejoin="round" stroke-miterlimit="10" d="
		M31.25,7.796c0,10.608-6.828,19.209-15.25,19.209c-8.424,0-15.25-8.601-15.25-19.209"/>
	
		<ellipse fill="#EBE0D5" stroke="#553E31" stroke-width="1.6829" stroke-linecap="round" stroke-linejoin="round" stroke-miterlimit="10" cx="16" cy="7.587" rx="15.25" ry="4.529"/>
</g>
<g>
	<path fill="#553E31" d="M19.209,16.944l-1.859,0.205c-0.045-0.383-0.164-0.666-0.355-0.848s-0.44-0.273-0.745-0.273
		c-0.406,0-0.749,0.182-1.029,0.547s-0.457,1.124-0.53,2.276c0.479-0.565,1.073-0.848,1.784-0.848c0.802,0,1.489,0.305,2.061,0.916
		s0.858,1.399,0.858,2.365c0,1.025-0.301,1.848-0.902,2.468s-1.374,0.93-2.317,0.93c-1.012,0-1.843-0.393-2.495-1.179
		s-0.978-2.075-0.978-3.866c0-1.836,0.339-3.161,1.019-3.972s1.561-1.217,2.646-1.217c0.761,0,1.391,0.213,1.89,0.639
		S19.073,16.133,19.209,16.944z M14.855,21.135c0,0.625,0.144,1.106,0.431,1.446s0.615,0.509,0.984,0.509
		c0.355,0,0.652-0.139,0.889-0.417s0.355-0.734,0.355-1.367c0-0.652-0.127-1.129-0.383-1.432s-0.574-0.455-0.957-0.455
		c-0.369,0-0.681,0.145-0.937,0.434S14.855,20.57,14.855,21.135z"/>
</g>
</svg>
