<?xml version="1.0" encoding="utf-8"?>
<!-- Generator: Adobe Illustrator 16.0.0, SVG Export Plug-In . SVG Version: 6.00 Build 0)  -->
<!DOCTYPE svg PUBLIC "-//W3C//DTD SVG 1.1//EN" "http://www.w3.org/Graphics/SVG/1.1/DTD/svg11.dtd">
<svg version="1.1" id="Layer_1" xmlns="http://www.w3.org/2000/svg" xmlns:xlink="http://www.w3.org/1999/xlink" x="0px" y="0px"
	 width="32px" height="32px" viewBox="0 0 32 32" enable-background="new 0 0 32 32" xml:space="preserve">
<g>
	
		<path fill="#CDB8AB" stroke="#553E31" stroke-width="1.6829" stroke-linecap="round" stroke-linejoin="round" stroke-miterlimit="10" d="
		M31.25,7.796c0,10.608-6.828,19.209-15.25,19.209c-8.423,0-15.25-8.601-15.25-19.209"/>
	
		<ellipse fill="#EBE0D5" stroke="#553E31" stroke-width="1.6829" stroke-linecap="round" stroke-linejoin="round" stroke-miterlimit="10" cx="16" cy="7.587" rx="15.25" ry="4.529"/>
</g>
<g>
	<path fill="#553E31" d="M12.729,21.935l1.914-0.198c0.055,0.433,0.216,0.776,0.485,1.029s0.579,0.379,0.93,0.379
		c0.401,0,0.741-0.163,1.019-0.489s0.417-0.817,0.417-1.473c0-0.615-0.138-1.077-0.414-1.384s-0.635-0.461-1.077-0.461
		c-0.551,0-1.046,0.244-1.483,0.731l-1.559-0.226l0.984-5.216h5.079v1.798h-3.623l-0.301,1.702c0.428-0.214,0.866-0.321,1.313-0.321
		c0.852,0,1.575,0.31,2.167,0.93s0.889,1.424,0.889,2.413c0,0.825-0.239,1.561-0.718,2.208c-0.652,0.884-1.556,1.326-2.714,1.326
		c-0.925,0-1.679-0.249-2.263-0.745S12.843,22.773,12.729,21.935z"/>
</g>
</svg>
