<?xml version="1.0" encoding="utf-8"?>
<!-- Generator: Adobe Illustrator 16.0.0, SVG Export Plug-In . SVG Version: 6.00 Build 0)  -->
<!DOCTYPE svg PUBLIC "-//W3C//DTD SVG 1.1//EN" "http://www.w3.org/Graphics/SVG/1.1/DTD/svg11.dtd">
<svg version="1.1" id="Layer_1" xmlns="http://www.w3.org/2000/svg" xmlns:xlink="http://www.w3.org/1999/xlink" x="0px" y="0px"
	 width="32px" height="32px" viewBox="0 0 32 32" enable-background="new 0 0 32 32" xml:space="preserve">
<g>
	
		<path fill="#CDB8AB" stroke="#553E31" stroke-width="1.6829" stroke-linecap="round" stroke-linejoin="round" stroke-miterlimit="10" d="
		M31.25,7.796c0,10.608-6.828,19.209-15.25,19.209c-8.424,0-15.25-8.601-15.25-19.209"/>
	
		<ellipse fill="#EBE0D5" stroke="#553E31" stroke-width="1.6829" stroke-linecap="round" stroke-linejoin="round" stroke-miterlimit="10" cx="16" cy="7.587" rx="15.25" ry="4.529"/>
</g>
<g>
	<path fill="#553E31" d="M14.424,24.512h-1.921v-7.239c-0.702,0.656-1.529,1.142-2.481,1.456v-1.743
		c0.501-0.164,1.046-0.475,1.634-0.933s0.991-0.992,1.21-1.603h1.559V24.512z"/>
	<path fill="#553E31" d="M19.142,14.449c0.971,0,1.729,0.346,2.276,1.039c0.652,0.82,0.978,2.181,0.978,4.081
		c0,1.896-0.328,3.259-0.984,4.088c-0.542,0.684-1.299,1.025-2.27,1.025c-0.975,0-1.761-0.375-2.358-1.124
		c-0.597-0.75-0.896-2.086-0.896-4.01c0-1.887,0.328-3.245,0.984-4.074C17.415,14.791,18.171,14.449,19.142,14.449z M19.142,16.042
		c-0.232,0-0.44,0.074-0.622,0.222s-0.324,0.414-0.424,0.796c-0.132,0.496-0.198,1.333-0.198,2.509s0.059,1.983,0.178,2.423
		c0.119,0.44,0.268,0.732,0.448,0.879s0.386,0.219,0.619,0.219s0.44-0.074,0.622-0.223c0.182-0.147,0.324-0.413,0.424-0.796
		c0.132-0.492,0.198-1.326,0.198-2.502s-0.059-1.983-0.178-2.423c-0.119-0.44-0.268-0.734-0.448-0.882S19.375,16.042,19.142,16.042z
		"/>
</g>
</svg>
