<?xml version="1.0" encoding="utf-8"?>
<!-- Generator: Adobe Illustrator 16.0.0, SVG Export Plug-In . SVG Version: 6.00 Build 0)  -->
<!DOCTYPE svg PUBLIC "-//W3C//DTD SVG 1.1//EN" "http://www.w3.org/Graphics/SVG/1.1/DTD/svg11.dtd">
<svg version="1.1" id="Layer_1" xmlns="http://www.w3.org/2000/svg" xmlns:xlink="http://www.w3.org/1999/xlink" x="0px" y="0px"
	 width="30px" height="30px" viewBox="0 0 30 30" enable-background="new 0 0 30 30" xml:space="preserve">
<pattern  x="-5" y="44" width="30.001" height="30" patternUnits="userSpaceOnUse" id="New_Pattern_Swatch_18" viewBox="26.14 -56.141 30.001 30" overflow="visible">
	<g>
		<polygon fill="none" points="56.141,-56.141 56.14,-26.141 26.14,-26.141 26.14,-56.141 		"/>
		
			<line fill="none" stroke="#EBE0D5" stroke-width="1.5" stroke-miterlimit="10" x1="30.531" y1="-0.53" x2="101.241" y2="-71.243"/>
		
			<line fill="none" stroke="#EBE0D5" stroke-width="1.5" stroke-miterlimit="10" x1="28.388" y1="-2.674" x2="99.099" y2="-73.387"/>
		
			<line fill="none" stroke="#EBE0D5" stroke-width="1.5" stroke-miterlimit="10" x1="26.246" y1="-4.816" x2="96.956" y2="-75.528"/>
		<line fill="none" stroke="#EBE0D5" stroke-width="1.5" stroke-miterlimit="10" x1="24.103" y1="-6.96" x2="94.813" y2="-77.672"/>
		<line fill="none" stroke="#EBE0D5" stroke-width="1.5" stroke-miterlimit="10" x1="21.959" y1="-9.103" x2="92.67" y2="-79.815"/>
		
			<line fill="none" stroke="#EBE0D5" stroke-width="1.5" stroke-miterlimit="10" x1="19.816" y1="-11.246" x2="90.526" y2="-81.958"/>
		
			<line fill="none" stroke="#EBE0D5" stroke-width="1.5" stroke-miterlimit="10" x1="17.675" y1="-13.389" x2="88.385" y2="-84.102"/>
		
			<line fill="none" stroke="#EBE0D5" stroke-width="1.5" stroke-miterlimit="10" x1="15.531" y1="-15.532" x2="86.241" y2="-86.243"/>
		
			<line fill="none" stroke="#EBE0D5" stroke-width="1.5" stroke-miterlimit="10" x1="13.388" y1="-17.674" x2="84.099" y2="-88.386"/>
		
			<line fill="none" stroke="#EBE0D5" stroke-width="1.5" stroke-miterlimit="10" x1="11.244" y1="-19.817" x2="81.954" y2="-90.53"/>
		
			<line fill="none" stroke="#EBE0D5" stroke-width="1.5" stroke-miterlimit="10" x1="9.102" y1="-21.961" x2="79.813" y2="-92.673"/>
		<line fill="none" stroke="#EBE0D5" stroke-width="1.5" stroke-miterlimit="10" x1="6.96" y1="-24.104" x2="77.67" y2="-94.814"/>
		
			<line fill="none" stroke="#EBE0D5" stroke-width="1.5" stroke-miterlimit="10" x1="4.816" y1="-26.245" x2="75.527" y2="-96.957"/>
		
			<line fill="none" stroke="#EBE0D5" stroke-width="1.5" stroke-miterlimit="10" x1="2.673" y1="-28.389" x2="73.384" y2="-99.101"/>
		
			<line fill="none" stroke="#EBE0D5" stroke-width="1.5" stroke-miterlimit="10" x1="0.53" y1="-30.531" x2="71.242" y2="-101.243"/>
	</g>
</pattern>
<g>
	<defs>
		<path id="XMLID_9_" d="M-27.268,119.012c0,1.656-1.343,3-3,3h-266c-1.656,0-3-1.344-3-3V-74.989c0-1.656,1.344-3,3-3h266
			c1.657,0,3,1.344,3,3V119.012z"/>
	</defs>
	<pattern  id="XMLID_2_" xlink:href="#New_Pattern_Swatch_18" patternTransform="matrix(1 0 0 1 -372.5728 -198.8301)">
	</pattern>
	<use xlink:href="#XMLID_9_"  overflow="visible" fill="url(#XMLID_2_)"/>
	<clipPath id="XMLID_3_">
		<use xlink:href="#XMLID_9_"  overflow="visible"/>
	</clipPath>
	<use xlink:href="#XMLID_9_"  overflow="visible" fill="none" stroke="#CDB8AB" stroke-miterlimit="10"/>
</g>
<g id="BackgroundPattern">
	<defs>
		<rect id="SVGID_1_" width="30" height="30"/>
	</defs>
	<clipPath id="SVGID_2_">
		<use xlink:href="#SVGID_1_"  overflow="visible"/>
	</clipPath>
	<g clip-path="url(#SVGID_2_)">
		
			<rect x="38.996" y="-29.747" transform="matrix(0.7071 0.7071 -0.7071 0.7071 25.963 -22.1725)" fill="#EBE0D5" width="1.5" height="100.001"/>
	</g>
	<g clip-path="url(#SVGID_2_)">
		
			<rect x="36.853" y="-31.891" transform="matrix(0.7071 0.7071 -0.7071 0.7071 23.8196 -21.285)" fill="#EBE0D5" width="1.5" height="100.002"/>
	</g>
	<g clip-path="url(#SVGID_2_)">
		
			<rect x="34.711" y="-34.032" transform="matrix(0.7071 0.7071 -0.7071 0.7071 21.6775 -20.3977)" fill="#EBE0D5" width="1.5" height="100"/>
	</g>
	<g clip-path="url(#SVGID_2_)">
		
			<rect x="32.567" y="-36.175" transform="matrix(0.7071 0.7071 -0.7071 0.7071 19.534 -19.5098)" fill="#EBE0D5" width="1.5" height="100"/>
	</g>
	<g clip-path="url(#SVGID_2_)">
		
			<rect x="30.424" y="-38.319" transform="matrix(0.7071 0.7071 -0.7071 0.7071 17.3909 -18.6221)" fill="#EBE0D5" width="1.5" height="100.002"/>
	</g>
	<g clip-path="url(#SVGID_2_)">
		
			<rect x="28.281" y="-40.462" transform="matrix(0.7071 0.7071 -0.7071 0.7071 15.2478 -17.7344)" fill="#EBE0D5" width="1.5" height="100"/>
	</g>
	<g clip-path="url(#SVGID_2_)">
		
			<rect x="26.14" y="-42.605" transform="matrix(0.7071 0.7071 -0.7071 0.7071 13.1052 -16.8478)" fill="#EBE0D5" width="1.5" height="100.001"/>
	</g>
	<g clip-path="url(#SVGID_2_)">
		
			<rect x="23.996" y="-44.747" transform="matrix(0.7071 0.7071 -0.7071 0.7071 10.9623 -15.9596)" fill="#EBE0D5" width="1.5" height="100"/>
	</g>
	<g clip-path="url(#SVGID_2_)">
		
			<rect x="21.853" y="-46.89" transform="matrix(0.7071 0.7071 -0.7071 0.7071 8.82 -15.0716)" fill="#EBE0D5" width="1.5" height="100.001"/>
	</g>
	<g clip-path="url(#SVGID_2_)">
		
			<rect x="19.709" y="-49.034" transform="matrix(0.7071 0.7071 -0.7071 0.7071 6.6759 -14.1835)" fill="#EBE0D5" width="1.5" height="100.001"/>
	</g>
	<g clip-path="url(#SVGID_2_)">
		
			<rect x="17.567" y="-51.177" transform="matrix(0.7071 0.7071 -0.7071 0.7071 4.5333 -13.2969)" fill="#EBE0D5" width="1.5" height="100.002"/>
	</g>
	<g clip-path="url(#SVGID_2_)">
		
			<rect x="15.425" y="-53.318" transform="matrix(0.7071 0.7071 -0.7071 0.7071 2.3911 -12.4092)" fill="#EBE0D5" width="1.5" height="100"/>
	</g>
	<g clip-path="url(#SVGID_2_)">
		
			<rect x="13.282" y="-55.461" transform="matrix(0.7071 0.7071 -0.7071 0.7071 0.2487 -11.5213)" fill="#EBE0D5" width="1.5" height="100.001"/>
	</g>
	<g clip-path="url(#SVGID_2_)">
		
			<rect x="11.138" y="-57.605" transform="matrix(0.7071 0.7071 -0.7071 0.7071 -1.8949 -10.6334)" fill="#EBE0D5" width="1.5" height="100.001"/>
	</g>
	<g clip-path="url(#SVGID_2_)">
		
			<rect x="8.996" y="-59.747" transform="matrix(0.7071 0.7071 -0.7071 0.7071 -4.0373 -9.7462)" fill="#EBE0D5" width="1.5" height="100.002"/>
	</g>
</g>
</svg>
