<?xml version="1.0" encoding="utf-8"?>
<!-- Generator: Adobe Illustrator 16.0.0, SVG Export Plug-In . SVG Version: 6.00 Build 0)  -->
<!DOCTYPE svg PUBLIC "-//W3C//DTD SVG 1.1//EN" "http://www.w3.org/Graphics/SVG/1.1/DTD/svg11.dtd">
<svg version="1.1" xmlns="http://www.w3.org/2000/svg" xmlns:xlink="http://www.w3.org/1999/xlink" x="0px" y="0px" width="32px"
	 height="32px" viewBox="0 0 32 32" enable-background="new 0 0 32 32" xml:space="preserve">
<g id="Layer_1">
	
		<polygon fill="#EBE0D5" stroke="#CDB8AB" stroke-width="0.75" stroke-linecap="round" stroke-linejoin="round" stroke-miterlimit="10" points="
		17.542,4.236 0.375,10.861 10.893,27.764 31.625,15.727 	"/>
	<g>
		<path fill="#553E31" d="M12.895,24.16c0.792-0.381,13.634-7.563,14.471-8.096c1.409-0.9,0-2.137-0.397-2.449
			c-0.337-0.268-8.571-7.211-8.987-7.543c-0.458-0.363-0.956-0.23-1.407-0.061C16.122,6.186,4.339,10.76,3.786,11.043
			s-1.037,1.053-0.606,1.863c0.431,0.809,6.199,9.697,7.021,10.789S11.627,24.77,12.895,24.16z"/>
		<path fill="#EBE0D5" d="M26.948,15.285c-0.519,0.324-12.227,6.844-14.107,7.844c-1.375,0.727-1.631,0.221-2.17-0.387
			c-0.538-0.605-6.617-9.781-6.799-10.094c-0.185-0.309-0.116-0.518,0.089-0.621c2.108-1.07,12.443-5.033,12.787-5.164
			c0.694-0.314,0.866-0.162,1.448,0.365c0.458,0.414,8.114,6.867,8.481,7.227C27.044,14.814,27.237,15.104,26.948,15.285z"/>
		<path fill="#CDB8AB" d="M19.997,15.254c0,1.977-2.093,3.578-4.679,3.578c-2.582,0-4.676-1.602-4.676-3.578
			c0-1.979,2.094-3.58,4.676-3.58C17.904,11.674,19.997,13.275,19.997,15.254z"/>
		<ellipse fill="#EBE0D5" cx="15.31" cy="14.568" rx="3.777" ry="2.754"/>
		<ellipse fill="#553E31" cx="15.266" cy="13.4" rx="3.813" ry="2.906"/>
		<path fill="#553E31" d="M6.399,17.236c0,0-0.268-1.6-0.12-1.682c0.147-0.078,5.578-2.488,5.78-2.57
			c0.201-0.078,0.337,0.246,0.04,0.488c-0.296,0.242-1.429,1.256-2.156,1.58c-0.728,0.322-1.401,0.404-1.859,1.477
			C7.694,16.773,6.776,17.137,6.399,17.236z"/>
		<path fill="#553E31" d="M10.527,8.455c0,0-0.04-1.072,0.107-1.174c0.149-0.102,0.217-0.121,0.459,0.141
			c0.242,0.266,2.25,2.348,2.345,2.633c0.094,0.283-0.069,0.385-0.242,0.303c-0.176-0.08-0.917-0.426-1.253-0.811
			c-0.338-0.383-0.891-0.98-1.052-0.951C10.781,8.617,10.527,8.455,10.527,8.455z"/>
		<path fill="#553E31" d="M21.559,8.516c-0.975,0.443-3.893,1.764-4.005,1.83c-0.135,0.08-0.055,0.334,0.102,0.445
			c0.095,0.07,1.344-0.078,1.812-0.223c0.33-0.102,0.982-0.516,1.186-0.484c0.202,0.029,0.229,0.262,0.41,0.244
			c0.183-0.023,0.655-0.275,0.836-0.348c0.137-0.049,0.054-0.93,0.003-1.365C21.885,8.469,21.754,8.428,21.559,8.516z"/>
		<path fill="#553E31" d="M17.561,14.08c0.211,0.186,3.186,3.195,3.38,3.389c0.196,0.193,0.224,0.576,0.216,0.84
			c-0.006,0.262-0.027,1.023-0.027,1.023s-0.672-0.244-0.801-0.516c-0.128-0.275-0.149-0.523-0.403-0.871
			c-0.217-0.293-1.145-1.293-1.421-1.709c-0.277-0.416-0.879-1.383-1.039-1.65C17.283,14.281,17.33,13.879,17.561,14.08z"/>
	</g>
</g>
<g id="Layer_3">
</g>
</svg>
