<?xml version="1.0" encoding="utf-8"?>
<!-- Generator: Adobe Illustrator 16.0.0, SVG Export Plug-In . SVG Version: 6.00 Build 0)  -->
<!DOCTYPE svg PUBLIC "-//W3C//DTD SVG 1.1//EN" "http://www.w3.org/Graphics/SVG/1.1/DTD/svg11.dtd">
<svg version="1.1" xmlns="http://www.w3.org/2000/svg" xmlns:xlink="http://www.w3.org/1999/xlink" x="0px" y="0px" width="32px"
	 height="32px" viewBox="0 0 32 32" enable-background="new 0 0 32 32" xml:space="preserve">
<g id="Layer_1">
	<g>
		<path fill="#EBE0D5" d="M26.183,31.456c-0.163,0-0.354-0.004-0.583-0.012c-1.455-0.048-2.088-1.05-2.698-2.02
			c-0.095-0.15-0.191-0.304-0.293-0.457c-0.546-0.817-1.607-2.441-2.735-4.209c-0.595-0.93-1.495-2.241-2.365-3.509
			c-0.814-1.186-1.61-2.346-2.136-3.162c-1.102-1.709-3.36-4.316-3.788-4.76c-0.171-0.178-0.367-0.247-0.7-0.247
			c-0.151,0-0.304,0.013-0.454,0.026l-0.142,0.012c-0.362,0.028-0.857,0.063-1.308,0.063c-0.38,0-0.674-0.024-0.899-0.074
			c-0.605-0.136-1.153-0.535-1.778-1.292c-0.443-0.537-0.688-1.214-0.972-1.998C5.233,9.549,5.13,9.262,5.01,8.96
			C4.479,7.611,3.47,2.639,3.46,2.589C3.383,2.205,3.438,1.875,3.613,1.66c0.103-0.126,0.331-0.239,0.494-0.239
			c0.148,0,0.379,0.051,0.57,0.319c0.011-0.196,0.065-0.351,0.164-0.475c0.104-0.128,0.312-0.23,0.477-0.23
			c0.176,0,0.33,0.066,0.462,0.197c0.024-0.101,0.064-0.187,0.122-0.261c0.103-0.133,0.303-0.234,0.472-0.234
			c0.296,0,0.496,0.205,0.628,0.415c0.015-0.123,0.054-0.246,0.133-0.355c0.103-0.14,0.318-0.252,0.492-0.252
			c0.472,0,0.691,0.493,0.773,0.678c0.255,0.57,2.436,4.995,3.24,6.595c0.552,1.094,1.331,2.159,1.75,2.731
			c0.173,0.236,0.292,0.404,0.333,0.478c0.269,0.482-0.063,0.895-0.246,1.091c0.105,0.125,0.273,0.298,0.427,0.457
			c0.447,0.462,1.594,1.937,2.702,3.363c0.418,0.538,0.811,1.043,1.117,1.431c1.076,1.365,5.884,6.923,7.461,8.488
			c1.087,1.08,3.002,3.057,3.284,3.618c0.296,0.585-0.027,1.233-0.825,1.651l-0.096,0.052
			C27.196,31.371,26.961,31.456,26.183,31.456z"/>
		<path fill="#553E31" d="M7.627,1.088c0.065,0,0.164,0.101,0.277,0.355c0.272,0.609,2.479,5.081,3.251,6.617
			c0.774,1.536,1.955,2.98,2.093,3.229c0.139,0.249-0.228,0.476-0.364,0.678c-0.137,0.203,0.159,0.497,0.683,1.039
			c0.524,0.542,2.66,3.343,3.73,4.698c1.066,1.354,5.911,6.955,7.505,8.537c1.591,1.58,2.999,3.113,3.182,3.477
			c0.183,0.361-0.204,0.723-0.592,0.926c-0.323,0.17-0.392,0.27-1.209,0.27c-0.157,0-0.344-0.004-0.564-0.012
			c-1.364-0.045-1.834-1.146-2.558-2.234c-0.545-0.816-1.604-2.438-2.729-4.201c-1.152-1.803-3.412-4.979-4.502-6.672
			c-1.092-1.694-3.354-4.325-3.854-4.844c-0.323-0.335-0.703-0.413-1.091-0.413c-0.213,0-0.428,0.023-0.638,0.04
			c-0.351,0.027-0.829,0.062-1.266,0.062c-0.299,0-0.577-0.016-0.781-0.062C7.7,12.465,7.244,12.103,6.722,11.47
			c-0.522-0.634-0.75-1.558-1.206-2.71C5.062,7.608,4.188,3.452,3.993,2.482C3.93,2.167,4.001,1.965,4.107,1.965
			c0.085,0,0.191,0.127,0.271,0.428c0.183,0.679,2.207,5.984,2.569,6.729C7.087,9.404,7.263,9.53,7.388,9.53
			c0.148,0,0.226-0.177,0.083-0.477C6.767,7.563,5.425,2.889,5.266,2.167c-0.085-0.389-0.04-0.588,0.053-0.588
			c0.079,0,0.193,0.149,0.289,0.453c0.204,0.656,2.342,6.164,2.592,6.888C8.278,9.146,8.456,9.25,8.613,9.25
			c0.219,0,0.396-0.203,0.2-0.558C7.927,7.09,6.517,2.46,6.357,1.85C6.267,1.503,6.286,1.281,6.374,1.281
			c0.067,0,0.174,0.129,0.303,0.433c0.295,0.7,2.433,5.918,2.819,6.798C9.622,8.799,9.772,8.92,9.891,8.92
			c0.188,0,0.291-0.304,0.083-0.725C9.154,6.548,7.723,1.962,7.586,1.534C7.506,1.284,7.535,1.088,7.627,1.088 M7.627,0L7.627,0
			c-0.285,0-0.56,0.108-0.771,0.297C6.718,0.233,6.558,0.194,6.374,0.194c-0.284,0-0.584,0.127-0.795,0.327
			C5.482,0.499,5.394,0.492,5.318,0.492c-0.349,0-0.675,0.156-0.896,0.428C4.298,0.886,4.188,0.878,4.107,0.878
			c-0.354,0-0.688,0.159-0.915,0.438C2.911,1.658,2.817,2.149,2.927,2.696c0.011,0.05,1.02,5.049,1.577,6.462
			c0.118,0.298,0.22,0.58,0.316,0.845c0.301,0.831,0.561,1.548,1.063,2.158c0.477,0.578,1.143,1.266,2.078,1.477
			c0.267,0.06,0.6,0.088,1.02,0.088c0.456,0,0.938-0.033,1.35-0.064l0.146-0.012c0.135-0.012,0.272-0.024,0.408-0.024
			c0.231,0,0.27,0.04,0.308,0.079c0.515,0.532,2.712,3.109,3.724,4.679c0.532,0.826,1.315,1.967,2.145,3.175
			c0.868,1.264,1.766,2.571,2.355,3.494c1.137,1.781,2.196,3.402,2.741,4.219c0.099,0.147,0.192,0.297,0.285,0.444
			c0.622,0.987,1.396,2.216,3.141,2.273C25.816,31.996,26.015,32,26.183,32c0.861,0,1.186-0.103,1.628-0.347l0.088-0.048
			c1.05-0.55,1.484-1.528,1.056-2.378c-0.377-0.75-2.887-3.262-3.386-3.758c-1.567-1.556-6.348-7.081-7.417-8.438
			c-0.307-0.388-0.699-0.893-1.116-1.429c-1.331-1.712-2.302-2.954-2.688-3.352l-0.053-0.055c-0.037-0.039-0.077-0.08-0.116-0.121
			c0.304-0.542,0.194-1,0.02-1.314c-0.066-0.119-0.155-0.242-0.369-0.533c-0.409-0.56-1.172-1.602-1.703-2.656
			C11.323,5.976,9.149,1.565,8.896,1C8.601,0.337,8.174,0,7.627,0L7.627,0z"/>
	</g>
</g>
<g id="Layer_3">
</g>
</svg>
