<?xml version="1.0" encoding="utf-8"?>
<!-- Generator: Adobe Illustrator 16.0.0, SVG Export Plug-In . SVG Version: 6.00 Build 0)  -->
<!DOCTYPE svg PUBLIC "-//W3C//DTD SVG 1.1//EN" "http://www.w3.org/Graphics/SVG/1.1/DTD/svg11.dtd">
<svg version="1.1" xmlns="http://www.w3.org/2000/svg" xmlns:xlink="http://www.w3.org/1999/xlink" x="0px" y="0px" width="32px"
	 height="32px" viewBox="0 0 32 32" enable-background="new 0 0 32 32" xml:space="preserve">
<g id="Layer_1">
	<g>
		<path fill="#CDB8AB" d="M16,17.543"/>
		
			<path fill="#EBE0D5" stroke="#553E31" stroke-width="0.9658" stroke-linecap="round" stroke-linejoin="round" stroke-miterlimit="10" d="
			M23.075,10.116c0,0,1.285-1.855,3.923-1.855C28.909,8.295,31.5,9.706,31.5,13.16c0,3.453-1.893,6.216-5.293,7.905
			c-2.678,1.33-4.955,2.256-7.125,2.465l1.389-2.395c0,0,1.052,0.273,3.361-0.854c2.31-1.13,4.063-2.229,4.93-3.721
			c0.868-1.492,1.182-2.89,0.887-4.104c-0.296-1.215-1.086-1.993-1.92-2.236c-0.835-0.243-2.206-0.381-3.125,1.007
			c-0.921,1.388-0.591,1.908-1.512,2.325C23.109,13.535,23.075,10.116,23.075,10.116z"/>
		
			<path fill="#EBE0D5" stroke="#553E31" stroke-width="0.9658" stroke-linecap="round" stroke-linejoin="round" stroke-miterlimit="10" d="
			M23.473,6.941c0,0,0.174,6.768-0.694,10.064c-0.867,3.296-2.881,7.669-4.34,8.953c-1.458,1.284-4.063,1.545-6.876,1.596
			c-2.711,0.049-5.275-0.607-6.266-1.525c-0.891-0.828-3.229-4.142-4.115-8.747C0.442,13.439,0.346,9.883,0.694,6.941
			C1.911,6.977,23.473,6.941,23.473,6.941z"/>
		
			<ellipse fill="#CDB8AB" stroke="#553E31" stroke-width="0.9658" stroke-linecap="round" stroke-linejoin="round" stroke-miterlimit="10" cx="12.083" cy="6.941" rx="11.389" ry="2.498"/>
		
			<ellipse fill="#CDB8AB" stroke="#553E31" stroke-width="0.9658" stroke-linecap="round" stroke-linejoin="round" stroke-miterlimit="10" cx="12.083" cy="6.941" rx="11.389" ry="2.498"/>
		<path fill="#CDB8AB" d="M2.128,10.826c-0.061,0.724,0.26,5.4,1.53,8.75c0.885,2.332,2.095,5.157,4.468,5.69
			c2.676,0.604,4.045,0.725,6.942,0.182c1.604-0.302,2.617-1.226,2.779-1.549c0.161-0.32-0.003-0.681-0.746-0.582
			c-1.561,0.205-4.351,0.833-6.179,0.683c-2.237-0.183-3.702-1.268-4.951-3.923c-0.491-1.046-2.055-6.453-2.857-9.131
			C2.829,9.996,2.188,10.102,2.128,10.826z"/>
	</g>
</g>
<g id="Layer_3">
</g>
</svg>
