<?xml version="1.0" encoding="utf-8"?>
<!-- Generator: Adobe Illustrator 16.0.0, SVG Export Plug-In . SVG Version: 6.00 Build 0)  -->
<!DOCTYPE svg PUBLIC "-//W3C//DTD SVG 1.1//EN" "http://www.w3.org/Graphics/SVG/1.1/DTD/svg11.dtd">
<svg version="1.1" xmlns="http://www.w3.org/2000/svg" xmlns:xlink="http://www.w3.org/1999/xlink" x="0px" y="0px" width="32px"
	 height="32px" viewBox="0 0 32 32" enable-background="new 0 0 32 32" xml:space="preserve">
<g id="Layer_1">
	<g>
		
			<polygon fill="#EBE0D5" stroke="#553E31" stroke-width="0.5804" stroke-linecap="round" stroke-linejoin="round" stroke-miterlimit="10" points="
			31.622,18.826 10.938,25.449 0.368,13.602 0.253,12.008 31.747,17.506 		"/>
		
			<polygon fill="#CDB8AB" stroke="#553E31" stroke-width="0.5804" stroke-linecap="round" stroke-linejoin="round" stroke-miterlimit="10" points="
			31.747,17.506 11.063,24.127 0.253,12.008 19.779,7.875 		"/>
		
			<path fill="#CDB8AB" stroke="#553E31" stroke-width="0.5804" stroke-linecap="round" stroke-linejoin="round" stroke-miterlimit="10" d="
			M9.675,6.717c0.244,0.289,0.042,0.848-0.452,1.25C8.73,8.369,8.134,8.465,7.891,8.178c-0.244-0.287-0.039-0.846,0.451-1.25
			C8.835,6.525,9.432,6.432,9.675,6.717z"/>
		
			<path fill="#EBE0D5" stroke="#553E31" stroke-width="0.5804" stroke-linecap="round" stroke-linejoin="round" stroke-miterlimit="10" d="
			M10.77,7.025c0.37,0.436,0.063,1.289-0.688,1.9C9.333,9.541,8.424,9.684,8.054,9.248C7.683,8.809,7.992,7.959,8.741,7.346
			C9.492,6.732,10.4,6.59,10.77,7.025z"/>
		
			<polyline fill="#EBE0D5" stroke="#553E31" stroke-width="0.5804" stroke-linecap="round" stroke-linejoin="round" stroke-miterlimit="10" points="
			10.77,7.025 25.733,19.879 23.018,22.102 8.054,9.248 		"/>
		
			<path fill="#CDB8AB" stroke="#553E31" stroke-width="0.5804" stroke-linecap="round" stroke-linejoin="round" stroke-miterlimit="10" d="
			M25.733,19.879c0.37,0.436,0.063,1.287-0.687,1.9c-0.75,0.613-1.659,0.756-2.029,0.322c-0.37-0.438-0.061-1.289,0.687-1.904
			C24.456,19.584,25.365,19.443,25.733,19.879z"/>
		
			<path fill="#CDB8AB" stroke="#553E31" stroke-width="0.5804" stroke-linecap="round" stroke-linejoin="round" stroke-miterlimit="10" d="
			M25.842,20.814c0.242,0.287,0.04,0.846-0.452,1.25c-0.492,0.402-1.089,0.496-1.333,0.209c-0.242-0.287-0.04-0.846,0.45-1.25
			C25.002,20.621,25.599,20.527,25.842,20.814z"/>
		
			<path fill="#CDB8AB" stroke="#553E31" stroke-width="0.5804" stroke-linecap="round" stroke-linejoin="round" stroke-miterlimit="10" d="
			M22.243,17.779"/>
		
			<line fill="none" stroke="#553E31" stroke-width="0.6288" stroke-miterlimit="10" x1="11.063" y1="24.127" x2="10.938" y2="25.449"/>
	</g>
</g>
<g id="Layer_3">
</g>
</svg>
