<?xml version="1.0" encoding="utf-8"?>
<!-- Generator: Adobe Illustrator 16.0.0, SVG Export Plug-In . SVG Version: 6.00 Build 0)  -->
<!DOCTYPE svg PUBLIC "-//W3C//DTD SVG 1.1//EN" "http://www.w3.org/Graphics/SVG/1.1/DTD/svg11.dtd">
<svg version="1.1" xmlns="http://www.w3.org/2000/svg" xmlns:xlink="http://www.w3.org/1999/xlink" x="0px" y="0px" width="32px"
	 height="32px" viewBox="0 0 32 32" enable-background="new 0 0 32 32" xml:space="preserve">
<g id="Layer_1">
	<g>
		<path fill="#EBE0D5" stroke="#553E31" stroke-width="1.042" stroke-miterlimit="10" d="M14.091,12.016c0,0,1.228-1.769,1.17-3.233
			c-0.058-1.457-1.036-3.753-2.129-5.057c-1.328-1.581-2.646-2.852-4.143-3.118C7.494,0.339,5.73,0.684,4.963,1.757
			C4.151,2.888,3.967,4.819,4.464,6.35c0.627,1.923,1.542,3.258,2.767,4.483c0.708,0.708,2.063,1.625,3.409,1.758
			c0.953,0.094,1.495-0.154,1.955,0.344c0.46,0.499,3.338,5.19,4.258,6.778c1.419,2.449,3.528,6.51,4.448,8.078
			c0.737,1.258,1.304,2.758,2.147,3.254c0.844,0.498,1.534,0.537,2.569,0.27c1.036-0.27,1.649-0.422,1.765-0.918
			c0.115-0.5-0.115-0.807-0.613-1.379c-0.5-0.574-5.293-6.395-6.675-8.35C19.114,18.717,14.665,12.896,14.091,12.016z"/>
		<path fill="#553E31" d="M8.607,2.908c0.9,0.497,1.621,1.182,2.303,2.334c0.682,1.153,1.106,2.474,1.049,3.318
			c-0.056,0.844,1.193,1.518,1.422,0.534c0.227-0.985-0.059-2.699-0.824-3.741c-0.768-1.039-2.159-2.502-3.465-2.867
			C8.494,2.318,7.899,2.513,8.607,2.908z"/>
	</g>
</g>
<g id="Layer_3">
</g>
</svg>
