<?xml version="1.0" encoding="utf-8"?>
<!-- Generator: Adobe Illustrator 15.0.0, SVG Export Plug-In . SVG Version: 6.00 Build 0)  -->
<!DOCTYPE svg PUBLIC "-//W3C//DTD SVG 1.1//EN" "http://www.w3.org/Graphics/SVG/1.1/DTD/svg11.dtd">
<svg version="1.1" id="Layer_1" xmlns="http://www.w3.org/2000/svg" xmlns:xlink="http://www.w3.org/1999/xlink" x="0px" y="0px"
	 width="160px" height="160px" viewBox="12.283 -168.156 160 160" enable-background="new 12.283 -168.156 160 160"
	 xml:space="preserve">
<symbol  id="bal_also" viewBox="-20 -20 40 40">
	<g>
		<g>
			<path fill="#EBE0D5" d="M-5.688-13.517c-1.502,1.503-2.288,3.445-2.355,5.473c-2.027,0.066-3.97,0.853-5.472,2.355
				c-0.163,0.162-0.309,0.336-0.447,0.514v-8.787h8.787C-5.353-13.824-5.526-13.678-5.688-13.517z"/>
			<path fill="#EBE0D5" d="M-11.456,11.806c1.103,0.001,1.998-0.892,2-1.994c0-0.001,0-0.002,0-0.003
				c0-0.533-0.208-1.017-0.549-1.375c1.349,0.203,1.975,1.693,2.264,2.958c0.188,0.828,0.54,3.792-2.871,7.195
				c-0.457,0.456-0.876,0.929-1.261,1.413h-2.088v-9.464C-13.392,11.304-12.482,11.804-11.456,11.806z"/>
			<path fill="#EBE0D5" d="M11.806-11.455c0,0,0-0.001,0-0.002c-0.001-1.026-0.502-1.936-1.269-2.506H20v2.088
				c-0.484,0.386-0.958,0.805-1.414,1.262c-3.403,3.411-6.367,3.06-7.194,2.871c-1.265-0.289-2.756-0.915-2.958-2.265
				c0.359,0.341,0.844,0.55,1.378,0.549C10.913-9.459,11.806-10.353,11.806-11.455z"/>
			<path fill="#EBE0D5" d="M-3.628,12.479c0-0.672-0.072-1.333-0.219-1.977c-0.87-3.808-3.288-6.083-6.468-6.087
				c-1.545-0.002-2.898,0.827-3.646,2.061V1.455c0.138,0.178,0.284,0.351,0.447,0.515c1.522,1.522,4,1.522,5.524-0.001
				c0.936-0.936,0.936-2.452,0-3.389c-0.621-0.62-1.496-0.829-2.289-0.627c0.029-0.093,0.081-0.18,0.154-0.253
				c0.967-0.968,2.185-1.14,3.334-0.849c0.268,0.469,0.576,0.926,0.928,1.365c0.343,0.428,0.69,0.815,1.039,1.167
				C-5.46-0.01-5.74,0.923-5.464,1.82c0.363,1.184,1.561,1.881,2.75,1.648C-2.948,4.657-2.25,5.854-1.065,6.218
				c0.896,0.275,1.829-0.004,2.436-0.64c0.351,0.35,0.738,0.695,1.167,1.039c0.439,0.353,0.896,0.66,1.365,0.928
				c0.292,1.149,0.119,2.368-0.849,3.336C2.972,10.963,2.883,11.01,2.8,11.035c0.203-0.794-0.006-1.67-0.626-2.29
				c-0.937-0.937-2.453-0.937-3.389,0c-1.522,1.522-1.523,4,0,5.523c2.111,2.112,5.547,2.112,7.659,0.001
				c1.502-1.503,2.288-3.445,2.355-5.473c2.026-0.067,3.968-0.854,5.471-2.355c1.023-1.022,1.586-2.383,1.586-3.829
				c0-1.447-0.563-2.807-1.586-3.829c-1.523-1.522-4.001-1.522-5.524,0c-0.935,0.936-0.935,2.452,0,3.389
				c0.621,0.621,1.497,0.83,2.29,0.627c-0.026,0.083-0.072,0.172-0.154,0.254C9.915,4.02,8.697,4.192,7.547,3.901
				C7.28,3.433,6.971,2.976,6.619,2.535C6.276,2.107,5.929,1.72,5.582,1.369C6.05,0.921,6.326,0.295,6.326-0.363
				c0-0.233-0.034-0.471-0.106-0.705c-0.363-1.184-1.56-1.88-2.749-1.647c0.233-1.189-0.465-2.386-1.648-2.749
				C0.925-5.741-0.009-5.461-0.616-4.824c-0.351-0.35-0.736-0.696-1.165-1.04C-2.22-6.217-2.678-6.525-3.146-6.792
				c-0.292-1.149-0.119-2.368,0.848-3.336c0.073-0.073,0.161-0.124,0.253-0.153c-0.203,0.793,0.007,1.669,0.627,2.289
				c0.937,0.936,2.453,0.936,3.389,0c1.522-1.522,1.523-4.001,0-5.523c-0.163-0.162-0.336-0.309-0.514-0.447h5.02
				c-1.233,0.748-2.061,2.099-2.061,3.643c0,0.001,0,0.002,0,0.004c0.004,3.18,2.28,5.598,6.085,6.469
				C13.565-3.149,17.011-4.146,20-6.529v16.718h-9.812V20H-6.528C-4.647,17.641-3.628,14.995-3.628,12.479z"/>
		</g>
		<g>
			<polygon fill="#EBE0D5" points="-20,-20 20,-20 20,-16.98 -16.981,-16.98 -16.981,20 -20,20 			"/>
			<polygon fill="#EBE0D5" points="13.208,13.206 20,13.206 20,16.227 16.226,16.227 16.226,20 13.208,20 			"/>
		</g>
	</g>
</symbol>
<symbol  id="bal_felso" viewBox="-20 -20 39.999 40">
	<g>
		<g>
			<path fill="#EBE0D5" d="M-13.516,5.689c1.503,1.502,3.445,2.287,5.472,2.354c0.067,2.027,0.853,3.971,2.355,5.473
				c0.163,0.163,0.336,0.309,0.515,0.447h-8.788V5.176C-13.824,5.354-13.677,5.526-13.516,5.689z"/>
			<path fill="#EBE0D5" d="M11.805,11.456c0.001-1.104-0.892-1.998-1.994-1.999c-0.001,0-0.002,0-0.002,0
				c-0.533,0-1.017,0.207-1.375,0.549c0.203-1.35,1.694-1.976,2.958-2.265c0.827-0.188,3.792-0.54,7.194,2.87
				c0.456,0.458,0.929,0.877,1.413,1.262v2.089l-9.463,0.001C11.303,13.393,11.804,12.482,11.805,11.456z"/>
			<path fill="#EBE0D5" d="M-11.454-11.805c0,0-0.001,0-0.002,0c-1.026,0.001-1.936,0.501-2.506,1.269V-20h2.089
				c0.386,0.484,0.804,0.958,1.261,1.414c3.412,3.403,3.06,6.367,2.871,7.194c-0.289,1.265-0.915,2.756-2.264,2.958
				c0.34-0.359,0.55-0.844,0.548-1.377C-9.458-10.913-10.352-11.805-11.454-11.805z"/>
			<path fill="#EBE0D5" d="M12.479,3.629c-0.671,0-1.332,0.072-1.977,0.219c-3.807,0.87-6.082,3.288-6.086,6.468
				c-0.002,1.546,0.827,2.897,2.06,3.647H1.456c0.178-0.139,0.351-0.285,0.514-0.447c1.523-1.523,1.523-4.002,0-5.525
				c-0.936-0.936-2.453-0.936-3.389,0c-0.621,0.621-0.83,1.496-0.627,2.289c-0.093-0.028-0.18-0.08-0.253-0.152
				c-0.967-0.968-1.14-2.186-0.848-3.336c0.468-0.267,0.926-0.575,1.365-0.928c0.428-0.344,0.816-0.689,1.167-1.038
				c0.607,0.636,1.54,0.915,2.437,0.64c1.184-0.364,1.881-1.561,1.648-2.75C4.658,2.947,5.854,2.25,6.218,1.066
				c0.275-0.897-0.003-1.83-0.639-2.438c0.349-0.35,0.695-0.738,1.039-1.166C6.97-2.977,7.278-3.434,7.545-3.902
				c1.149-0.292,2.368-0.119,3.335,0.848c0.082,0.083,0.129,0.171,0.154,0.254c-0.794-0.203-1.669,0.007-2.29,0.626
				c-0.936,0.937-0.936,2.453,0,3.39c1.522,1.522,4,1.522,5.523,0.001c2.112-2.112,2.112-5.547,0-7.66
				c-1.502-1.502-3.445-2.288-5.472-2.356c-0.067-2.026-0.853-3.968-2.355-5.471c-1.023-1.023-2.382-1.586-3.829-1.586
				c-1.447,0-2.807,0.563-3.83,1.586c-1.522,1.523-1.522,4.001,0,5.524c0.937,0.936,2.453,0.936,3.389,0
				c0.621-0.621,0.83-1.497,0.627-2.29c0.083,0.025,0.172,0.072,0.254,0.154c0.967,0.967,1.14,2.186,0.848,3.335
				C3.433-7.28,2.976-6.971,2.536-6.618C2.108-6.275,1.72-5.928,1.37-5.582C0.921-6.05,0.295-6.326-0.363-6.326
				c-0.233,0-0.47,0.034-0.705,0.106c-1.184,0.363-1.88,1.56-1.647,2.749c-1.189-0.233-2.386,0.465-2.75,1.648
				C-5.74-0.925-5.46,0.009-4.824,0.615c-0.349,0.352-0.696,0.736-1.04,1.166c-0.353,0.439-0.661,0.896-0.928,1.365
				c-1.149,0.291-2.368,0.119-3.335-0.849c-0.073-0.073-0.124-0.161-0.153-0.253c0.793,0.203,1.668-0.008,2.289-0.627
				c0.936-0.937,0.936-2.453,0-3.389c-1.523-1.522-4.001-1.523-5.524-0.001c-0.162,0.162-0.308,0.335-0.447,0.515v-5.021
				c0.748,1.233,2.099,2.061,3.642,2.061c0.001,0,0.002,0,0.004,0c3.18-0.004,5.598-2.279,6.469-6.085
				c0.699-3.063-0.299-6.508-2.682-9.498h16.718v9.812H20V6.528C17.641,4.646,14.995,3.629,12.479,3.629z"/>
		</g>
		<g>
			<polygon fill="#EBE0D5" points="-19.999,20 -20,-20 -16.98,-20 -16.98,16.98 20,16.98 20,20 			"/>
			<polygon fill="#EBE0D5" points="13.207,-13.208 13.207,-20 16.226,-20 16.226,-16.226 20,-16.226 20,-13.208 			"/>
		</g>
	</g>
</symbol>
<symbol  id="felso_keret" viewBox="-39.246 -18.113 78.491 36.226">
	<g>
		<g>
			<path fill="#EBE0D5" d="M6.226,12.076H-6.459c2.811-1.492,4.574-4.254,4.574-7.549c0-3.132-2.549-5.681-5.681-5.681
				c-2.301,0-4.172,1.872-4.172,4.173c0,1.469,1.192,2.662,2.662,2.662c0.716,0,1.367-0.283,1.845-0.743
				c-0.257,2.449-2.807,2.897-3.616,2.979c-1.872,0.185-3.23-0.132-4.154-0.97C-16.296,5.775-16.98,3.372-16.98,0
				c0-5.03-1.27-8.719-3.773-10.962c-0.48-0.432-1-0.801-1.553-1.113h11.335c-2.925,1.104-4.63,3.286-4.63,6.038
				c0,2.35,1.911,4.26,4.261,4.26c1.725,0,3.128-1.403,3.128-3.128c0-1.104-0.894-1.997-1.997-1.997
				c-0.534,0-1.019,0.209-1.376,0.549c0.201-1.349,1.691-1.978,2.956-2.268c0.827-0.19,3.791-0.545,7.198,2.862
				c0.78,0.779,2.044,0.779,2.824,0c3.407-3.407,6.371-3.052,7.197-2.862c1.265,0.29,2.755,0.918,2.956,2.268
				c-0.358-0.34-0.843-0.549-1.376-0.549c-1.103,0-1.997,0.893-1.997,1.997c0,1.725,1.403,3.128,3.129,3.128
				c2.349,0,4.261-1.911,4.261-4.26c0-2.752-1.705-4.933-4.63-6.038h11.98C19.593-10.509,16.938-7.055,16.938,0
				c0,6.581-2.446,7.902-6.395,7.902c-1.721,0-3.145-1.293-3.35-2.961C7.672,5.4,8.32,5.681,9.035,5.681
				c1.47,0,2.662-1.192,2.662-2.662c0-2.301-1.871-4.173-4.172-4.173c-3.132,0-5.682,2.549-5.682,5.682
				C1.845,7.755,3.61,10.574,6.226,12.076z"/>
			<path fill="#EBE0D5" d="M39.245,9.986v2.09h-3.539C36.92,11.589,38.115,10.889,39.245,9.986z"/>
			<path fill="#EBE0D5" d="M3.909-12.075C2.56-11.588,1.229-10.836-0.02-9.84c-1.251-0.996-2.581-1.748-3.929-2.235H3.909z"/>
			<path fill="#EBE0D5" d="M37.831,5.904c-3.403,3.412-6.368,3.061-7.194,2.871c-1.265-0.289-2.756-0.914-2.958-2.264
				c0.358,0.34,0.842,0.549,1.375,0.549c0,0,0.002,0,0.003,0c1.103-0.001,1.995-0.896,1.994-1.999
				c-0.002-1.724-1.406-3.125-3.129-3.125c-0.001,0-0.001,0-0.002,0c-2.35,0.003-4.259,1.916-4.257,4.265
				c0.003,2.627,1.559,4.732,4.245,5.875H16.292c3.318-1.566,5.973-5.021,5.973-12.075c0-6.582,2.446-7.904,6.395-7.904
				c1.722,0,3.146,1.294,3.351,2.96C31.531-5.4,30.883-5.68,30.168-5.68c-1.47,0-2.663,1.192-2.663,2.662
				c0,2.301,1.872,4.172,4.172,4.172c3.133,0,5.681-2.549,5.681-5.682c0-3.226-1.766-6.045-4.38-7.547h6.266V4.643
				C38.76,5.028,38.288,5.447,37.831,5.904z"/>
			<path fill="#EBE0D5" d="M-37.399-4.527c0,3.133,2.549,5.682,5.682,5.682c2.3,0,4.172-1.872,4.172-4.173
				c0-1.47-1.192-2.662-2.663-2.662c-0.714,0-1.362,0.281-1.841,0.738c0.229-1.802,1.941-2.79,3.641-2.977
				c1.842-0.204,3.183,0.099,4.101,0.922c1.31,1.174,2.002,3.594,2.002,6.998c0,4.986,1.254,8.652,3.728,10.893
				c0.508,0.461,1.06,0.854,1.651,1.182h-10.981c2.686-1.144,4.243-3.246,4.245-5.873c0.002-2.35-1.906-4.263-4.255-4.266
				c-0.001,0-0.002,0-0.003,0c-1.725,0-3.128,1.401-3.13,3.125c-0.001,1.104,0.891,1.998,1.994,1.999c0.001,0,0.001,0,0.002,0
				c0.533,0,1.017-0.208,1.375-0.549c-0.203,1.349-1.694,1.976-2.958,2.265c-0.827,0.188-3.791,0.54-7.194-2.871
				c-0.456-0.457-0.929-0.877-1.414-1.262v-16.718h6.517C-35.569-10.56-37.399-7.763-37.399-4.527z"/>
			<path fill="#EBE0D5" d="M-35.706,12.076h-3.54v-2.09C-38.115,10.889-36.921,11.589-35.706,12.076z"/>
		</g>
		<polygon fill="#EBE0D5" points="-39.246,18.113 39.245,18.113 39.245,15.095 -39.246,15.095 		"/>
		<polygon fill="#EBE0D5" points="-39.246,-15.094 39.245,-15.094 39.245,-18.113 -39.246,-18.113 		"/>
	</g>
</symbol>
<symbol  id="jobb_also" viewBox="-20 -20 40 40">
	<g>
		<g>
			<path fill="#EBE0D5" d="M13.516-5.689c-1.503-1.502-3.445-2.287-5.472-2.354c-0.067-2.027-0.854-3.97-2.355-5.473
				c-0.163-0.162-0.337-0.309-0.515-0.446h8.788v8.787C13.824-5.354,13.678-5.527,13.516-5.689z"/>
			<path fill="#EBE0D5" d="M-11.806-11.457c-0.001,1.104,0.892,1.999,1.994,2c0.001,0,0.002,0,0.003,0
				c0.533,0,1.017-0.208,1.375-0.549c-0.203,1.349-1.694,1.975-2.959,2.264c-0.827,0.188-3.791,0.541-7.194-2.87
				c-0.456-0.458-0.929-0.876-1.413-1.262v-2.088l9.463-0.001C-11.304-13.393-11.804-12.483-11.806-11.457z"/>
			<path fill="#EBE0D5" d="M11.454,11.806c0.001,0,0.002,0,0.003,0c1.026-0.002,1.936-0.502,2.506-1.27V20h-2.089
				c-0.386-0.484-0.804-0.958-1.262-1.414c-3.411-3.403-3.06-6.367-2.87-7.194c0.289-1.265,0.914-2.756,2.264-2.958
				c-0.341,0.358-0.55,0.844-0.549,1.377C9.458,10.913,10.352,11.806,11.454,11.806z"/>
			<path fill="#EBE0D5" d="M-12.479-3.629c0.671,0,1.332-0.072,1.977-0.22c3.808-0.87,6.083-3.287,6.087-6.468
				c0.001-1.545-0.827-2.897-2.061-3.646h5.021c-0.178,0.139-0.351,0.284-0.514,0.447c-1.522,1.523-1.522,4.001,0,5.524
				c0.937,0.936,2.453,0.936,3.389,0c0.621-0.621,0.83-1.496,0.628-2.289c0.092,0.029,0.18,0.08,0.253,0.153
				c0.967,0.968,1.14,2.186,0.848,3.335C2.68-6.524,2.222-6.216,1.783-5.864c-0.429,0.344-0.816,0.69-1.167,1.039
				C0.009-5.461-0.924-5.74-1.82-5.465c-1.184,0.363-1.882,1.561-1.648,2.75c-1.189-0.233-2.386,0.464-2.749,1.648
				C-6.493-0.169-6.215,0.763-5.579,1.37c-0.349,0.351-0.694,0.738-1.038,1.167C-6.97,2.977-7.278,3.434-7.546,3.901
				c-1.149,0.293-2.368,0.119-3.335-0.848c-0.082-0.083-0.129-0.171-0.154-0.254c0.794,0.203,1.67-0.007,2.29-0.627
				c0.937-0.937,0.937-2.452,0-3.389c-1.522-1.522-4-1.523-5.523-0.001c-2.112,2.112-2.112,5.547-0.001,7.659
				c1.503,1.503,3.445,2.288,5.473,2.356c0.067,2.025,0.853,3.968,2.354,5.471c1.023,1.022,2.383,1.586,3.829,1.586
				c1.447,0,2.807-0.563,3.83-1.586c1.522-1.523,1.522-4.001,0-5.523c-0.937-0.936-2.453-0.936-3.39,0
				c-0.62,0.62-0.829,1.496-0.627,2.289c-0.083-0.025-0.171-0.072-0.254-0.154c-0.966-0.967-1.14-2.185-0.848-3.334
				c0.469-0.268,0.926-0.576,1.365-0.929c0.428-0.343,0.815-0.69,1.166-1.037c0.448,0.469,1.074,0.744,1.733,0.744
				c0.232,0,0.47-0.034,0.704-0.106c1.184-0.363,1.881-1.56,1.647-2.749c1.189,0.234,2.387-0.465,2.75-1.648
				C5.74,0.924,5.46-0.009,4.824-0.616c0.35-0.351,0.696-0.736,1.04-1.165c0.352-0.439,0.66-0.897,0.928-1.366
				C7.94-3.438,9.16-3.266,10.127-2.299c0.073,0.073,0.125,0.161,0.153,0.254C9.487-2.248,8.612-2.038,7.991-1.418
				c-0.936,0.936-0.936,2.453,0,3.389c1.523,1.522,4.001,1.523,5.523,0.001c0.162-0.162,0.309-0.336,0.447-0.515v5.021
				c-0.748-1.233-2.099-2.061-3.642-2.061c-0.002,0-0.003,0-0.005,0c-3.18,0.004-5.598,2.278-6.468,6.085
				C3.148,13.564,4.146,17.011,6.529,20h-16.718v-9.813L-20,10.188V-6.528C-17.641-4.647-14.995-3.629-12.479-3.629z"/>
		</g>
		<g>
			<polygon fill="#EBE0D5" points="19.999,-20 20,20 16.98,20 16.98,-16.981 -20,-16.981 -20,-20 			"/>
			<polygon fill="#EBE0D5" points="-13.207,13.207 -13.207,20 -16.227,20 -16.227,16.226 -20,16.226 -20,13.207 			"/>
		</g>
	</g>
</symbol>
<symbol  id="jobb_felso" viewBox="-20 -20 40 40">
	<g>
		<g>
			<path fill="#EBE0D5" d="M5.688,13.516c1.502-1.502,2.287-3.444,2.354-5.472c2.027-0.067,3.97-0.853,5.473-2.355
				c0.162-0.162,0.309-0.337,0.447-0.515v8.788H5.176C5.354,13.824,5.526,13.678,5.688,13.516z"/>
			<path fill="#EBE0D5" d="M11.456-11.805c-1.104-0.001-1.998,0.892-2,1.994c0,0.001,0,0.002,0,0.002
				c0,0.533,0.209,1.017,0.549,1.375c-1.349-0.203-1.975-1.694-2.264-2.958c-0.188-0.827-0.54-3.792,2.871-7.194
				c0.457-0.456,0.876-0.929,1.261-1.414h2.089v9.463C13.393-11.303,12.482-11.804,11.456-11.805z"/>
			<path fill="#EBE0D5" d="M-11.806,11.455c0,0,0,0.001,0,0.002c0.002,1.026,0.502,1.936,1.269,2.506H-20v-2.088
				c0.484-0.387,0.958-0.805,1.414-1.262c3.402-3.412,6.366-3.061,7.193-2.871c1.265,0.289,2.756,0.914,2.959,2.264
				c-0.359-0.34-0.844-0.549-1.378-0.549C-10.913,9.459-11.806,10.353-11.806,11.455z"/>
			<path fill="#EBE0D5" d="M3.628-12.479c0,0.671,0.072,1.332,0.22,1.977c0.87,3.808,3.288,6.083,6.468,6.086
				c1.545,0.001,2.897-0.827,3.646-2.06v5.021c-0.138-0.178-0.284-0.352-0.447-0.515C11.992-3.492,9.514-3.492,7.99-1.969
				c-0.936,0.936-0.936,2.453,0,3.389c0.621,0.62,1.496,0.83,2.289,0.627c-0.029,0.093-0.08,0.18-0.153,0.253
				C9.159,3.268,7.94,3.439,6.791,3.148C6.523,2.68,6.216,2.223,5.863,1.783C5.52,1.355,5.173,0.967,4.824,0.616
				C5.46,0.01,5.739-0.924,5.464-1.82c-0.363-1.183-1.561-1.881-2.75-1.648C2.947-4.657,2.25-5.854,1.065-6.218
				C0.169-6.493-0.764-6.214-1.37-5.578c-0.352-0.349-0.739-0.695-1.168-1.039C-2.977-6.97-3.434-7.278-3.902-7.545
				c-0.293-1.149-0.119-2.368,0.848-3.335c0.083-0.082,0.172-0.129,0.254-0.154c-0.203,0.794,0.007,1.669,0.627,2.29
				c0.937,0.937,2.453,0.937,3.389,0c1.522-1.522,1.523-4,0.001-5.523c-2.111-2.112-5.547-2.112-7.659,0
				c-1.502,1.502-2.288,3.445-2.355,5.473c-2.026,0.067-3.969,0.853-5.471,2.354c-1.023,1.023-1.587,2.383-1.587,3.83
				c0,1.446,0.563,2.807,1.587,3.829c1.522,1.523,4,1.523,5.523,0c0.936-0.936,0.936-2.453,0-3.389
				c-0.621-0.621-1.497-0.83-2.29-0.626c0.025-0.083,0.072-0.172,0.154-0.254c0.967-0.967,2.186-1.14,3.334-0.849
				c0.268,0.469,0.576,0.926,0.929,1.366c0.344,0.427,0.69,0.814,1.037,1.166c-0.469,0.448-0.744,1.074-0.744,1.732
				c0,0.233,0.034,0.471,0.106,0.705c0.363,1.184,1.56,1.881,2.749,1.647c-0.234,1.188,0.465,2.386,1.648,2.749
				c0.897,0.275,1.831-0.004,2.438-0.641c0.351,0.35,0.736,0.696,1.166,1.04C2.22,6.217,2.678,6.525,3.146,6.793
				c0.291,1.148,0.118,2.367-0.849,3.335c-0.073,0.073-0.161,0.124-0.254,0.153c0.203-0.793-0.007-1.668-0.627-2.289
				c-0.936-0.936-2.453-0.936-3.389,0c-1.522,1.523-1.523,4-0.001,5.523c0.163,0.162,0.336,0.309,0.515,0.447h-5.021
				c1.234-0.748,2.062-2.1,2.062-3.643c0-0.002,0-0.002,0-0.004c-0.005-3.18-2.28-5.598-6.086-6.469
				C-13.564,3.148-17.012,4.146-20,6.529v-16.718h9.812V-20H6.528C4.647-17.641,3.628-14.995,3.628-12.479z"/>
		</g>
		<g>
			<polygon fill="#EBE0D5" points="20,20 -20,20 -20,16.98 16.981,16.98 16.98,-20 20,-20 			"/>
			<polygon fill="#EBE0D5" points="-13.208,-13.207 -20,-13.207 -20,-16.226 -16.226,-16.226 -16.226,-20 -13.208,-20 			"/>
		</g>
	</g>
</symbol>
<use xlink:href="#felso_keret"  width="78.491" height="36.226" x="-39.246" y="-18.113" transform="matrix(1.0192 0 0 -1 92.2825 -150.0427)" overflow="visible"/>
<g>
	<g>
		<path fill="#EBE0D5" d="M85.937-14.194h12.929c-2.864-1.493-4.662-4.254-4.662-7.549c0-3.132,2.598-5.681,5.791-5.681
			c2.345,0,4.252,1.871,4.252,4.172c0,1.47-1.215,2.662-2.713,2.662c-0.73,0-1.393-0.282-1.88-0.742
			c0.262,2.449,2.86,2.897,3.686,2.979c1.908,0.184,3.292-0.133,4.234-0.97c1.319-1.173,2.017-3.575,2.017-6.947
			c0-5.03,1.294-8.719,3.846-10.963c0.49-0.432,1.019-0.801,1.583-1.113h-11.553c2.981,1.104,4.719,3.286,4.719,6.038
			c0,2.35-1.948,4.261-4.343,4.261c-1.758,0-3.188-1.403-3.188-3.129c0-1.104,0.911-1.996,2.035-1.996
			c0.544,0,1.038,0.209,1.403,0.549c-0.205-1.349-1.724-1.978-3.012-2.268c-0.843-0.189-3.863-0.545-7.336,2.862
			c-0.794,0.779-2.083,0.779-2.878,0c-3.472-3.407-6.493-3.052-7.335-2.862c-1.289,0.29-2.809,0.918-3.013,2.268
			c0.365-0.34,0.859-0.549,1.403-0.549c1.124,0,2.035,0.893,2.035,1.996c0,1.726-1.43,3.129-3.189,3.129
			c-2.394,0-4.343-1.911-4.343-4.261c0-2.752,1.738-4.933,4.72-6.038H68.931c3.382,1.566,6.087,5.021,6.087,12.075
			c0,6.582,2.493,7.903,6.518,7.903c1.754,0,3.206-1.294,3.414-2.961c-0.488,0.458-1.148,0.739-1.876,0.739
			c-1.499,0-2.713-1.192-2.713-2.662c0-2.301,1.906-4.173,4.252-4.173c3.192,0,5.791,2.549,5.791,5.682
			C90.402-18.515,88.603-15.697,85.937-14.194z"/>
		<path fill="#EBE0D5" d="M52.283-16.284v2.09h3.606C54.653-14.681,53.434-15.383,52.283-16.284z"/>
		<path fill="#EBE0D5" d="M88.299-38.345c1.375,0.486,2.731,1.239,4.004,2.235c1.275-0.996,2.63-1.748,4.004-2.235H88.299z"/>
		<path fill="#EBE0D5" d="M53.724-20.366c3.469,3.412,6.49,3.06,7.332,2.871c1.289-0.289,2.809-0.914,3.015-2.264
			c-0.365,0.34-0.858,0.549-1.401,0.549c0,0-0.002,0-0.003,0c-1.124-0.001-2.033-0.896-2.032-1.999
			c0.002-1.724,1.433-3.125,3.189-3.125c0.001,0,0.001,0,0.002,0c2.395,0.003,4.341,1.916,4.338,4.265
			c-0.003,2.627-1.589,4.731-4.327,5.875h11.839c-3.382-1.566-6.087-5.021-6.087-12.075c0-6.582-2.494-7.904-6.518-7.904
			c-1.755,0-3.206,1.294-3.415,2.961c0.488-0.458,1.148-0.738,1.876-0.738c1.499,0,2.714,1.192,2.714,2.662
			c0,2.301-1.908,4.173-4.252,4.173c-3.193,0-5.791-2.549-5.791-5.682c0-3.226,1.8-6.045,4.464-7.548h-6.387v16.718
			C52.777-21.242,53.259-20.823,53.724-20.366z"/>
		<path fill="#EBE0D5" d="M130.401-30.798c0,3.132-2.598,5.681-5.791,5.681c-2.345,0-4.252-1.871-4.252-4.172
			c0-1.47,1.215-2.662,2.714-2.662c0.728,0,1.389,0.281,1.876,0.738c-0.233-1.802-1.979-2.79-3.711-2.978
			c-1.877-0.203-3.244,0.1-4.179,0.922c-1.335,1.175-2.041,3.594-2.041,6.997c0,4.987-1.278,8.652-3.8,10.894
			c-0.518,0.46-1.08,0.854-1.683,1.182h11.192c-2.738-1.144-4.324-3.246-4.327-5.873c-0.003-2.35,1.943-4.263,4.337-4.267
			c0.001,0,0.002,0,0.003,0c1.758,0,3.188,1.402,3.19,3.126c0.001,1.104-0.908,1.997-2.032,1.999c-0.001,0-0.001,0-0.002,0
			c-0.543,0-1.036-0.208-1.401-0.549c0.207,1.349,1.726,1.975,3.015,2.264c0.843,0.188,3.864,0.541,7.333-2.871
			c0.465-0.457,0.947-0.876,1.441-1.262v-16.717h-6.643C128.535-36.831,130.401-34.033,130.401-30.798z"/>
		<path fill="#EBE0D5" d="M128.675-14.194h3.607v-2.09C131.131-15.383,129.913-14.681,128.675-14.194z"/>
	</g>
	<rect x="52.283" y="-11.176" fill="#EBE0D5" width="79.999" height="3.019"/>
	<rect x="52.283" y="-44.384" fill="#EBE0D5" width="79.999" height="3.02"/>
</g>
<g>
	<g>
		<path fill="#EBE0D5" d="M18.322-94.502v12.93c1.492-2.865,4.253-4.662,7.548-4.662c3.133,0,5.681,2.598,5.681,5.791
			c0,2.345-1.872,4.253-4.172,4.253c-1.47,0-2.663-1.217-2.663-2.715c0-0.73,0.283-1.394,0.743-1.881
			c-2.449,0.262-2.897,2.86-2.979,3.686c-0.184,1.908,0.132,3.293,0.97,4.235c1.172,1.317,3.575,2.017,6.947,2.017
			c5.031,0,8.719,1.295,10.963,3.846c0.431,0.491,0.8,1.02,1.113,1.584v-11.554c-1.104,2.98-3.285,4.72-6.038,4.72
			c-2.349,0-4.261-1.948-4.261-4.343c0-1.759,1.404-3.189,3.129-3.189c1.104,0,1.997,0.91,1.997,2.036
			c0,0.543-0.209,1.037-0.549,1.402c1.349-0.205,1.977-1.725,2.267-3.013c0.19-0.844,0.545-3.863-2.862-7.336
			c-0.78-0.795-0.78-2.084,0-2.879c3.407-3.472,3.052-6.492,2.862-7.335c-0.29-1.289-0.917-2.808-2.267-3.012
			c0.34,0.364,0.549,0.858,0.549,1.402c0,1.124-0.893,2.035-1.997,2.035c-1.725,0-3.129-1.431-3.129-3.189
			c0-2.395,1.912-4.342,4.261-4.342c2.752,0,4.933,1.736,6.038,4.719v-12.212c-1.566,3.382-5.021,6.087-12.075,6.087
			c-6.582,0-7.903,2.495-7.903,6.518c0,1.754,1.294,3.206,2.961,3.415c-0.458-0.487-0.739-1.148-0.739-1.876
			c0-1.499,1.192-2.714,2.663-2.714c2.301,0,4.172,1.906,4.172,4.252c0,3.193-2.548,5.791-5.681,5.791
			C22.643-90.037,19.824-91.836,18.322-94.502z"/>
		<path fill="#EBE0D5" d="M20.41-128.155h-2.089v3.606C18.809-125.787,19.509-127.004,20.41-128.155z"/>
		<path fill="#EBE0D5" d="M42.472-92.14c-0.487,1.374-1.239,2.731-2.235,4.005c0.995,1.274,1.748,2.631,2.235,4.004V-92.14z"/>
		<path fill="#EBE0D5" d="M24.492-126.716c-3.412,3.47-3.059,6.491-2.871,7.334c0.289,1.289,0.915,2.809,2.264,3.014
			c-0.34-0.365-0.548-0.857-0.548-1.4c0-0.001,0-0.003,0-0.004c0.001-1.124,0.896-2.033,1.999-2.031
			c1.724,0.002,3.125,1.432,3.125,3.189c0,0.001,0,0.001,0,0.002c-0.003,2.396-1.916,4.342-4.266,4.339
			c-2.626-0.004-4.73-1.589-5.874-4.326v11.839c1.566-3.383,5.021-6.088,12.075-6.088c6.582,0,7.904-2.494,7.904-6.518
			c0-1.755-1.293-3.206-2.96-3.415c0.458,0.487,0.738,1.148,0.738,1.876c0,1.498-1.192,2.713-2.663,2.713
			c-2.301,0-4.172-1.906-4.172-4.252c0-3.192,2.548-5.79,5.681-5.79c3.226,0,6.045,1.8,7.547,4.465v-6.386H25.755
			C25.369-127.662,24.949-127.18,24.492-126.716z"/>
		<path fill="#EBE0D5" d="M34.925-50.037c-3.133,0-5.681-2.598-5.681-5.792c0-2.345,1.872-4.252,4.172-4.252
			c1.47,0,2.663,1.215,2.663,2.713c0,0.729-0.281,1.389-0.738,1.876c1.802-0.231,2.79-1.979,2.978-3.71
			c0.203-1.878-0.1-3.244-0.922-4.18c-1.174-1.335-3.594-2.04-6.997-2.04c-4.987,0-8.652-1.278-10.893-3.801
			c-0.46-0.518-0.854-1.08-1.182-1.682v11.191c1.144-2.737,3.248-4.324,5.874-4.327c2.35-0.002,4.263,1.944,4.266,4.338
			c0,0.001,0,0.002,0,0.003c0,1.758-1.402,3.188-3.125,3.19c-1.104,0.002-1.998-0.909-2-2.031c0-0.003,0-0.004,0-0.005
			c0-0.542,0.208-1.035,0.549-1.401c-1.349,0.208-1.975,1.728-2.264,3.017c-0.188,0.843-0.54,3.863,2.871,7.332
			c0.458,0.465,0.877,0.946,1.263,1.441h16.717v-6.642C40.957-51.902,38.16-50.037,34.925-50.037z"/>
		<path fill="#EBE0D5" d="M18.322-51.764v3.608h2.089C19.509-49.307,18.809-50.525,18.322-51.764z"/>
	</g>
	<rect x="12.284" y="-128.155" fill="#EBE0D5" width="3.019" height="79.999"/>
	<rect x="45.491" y="-128.155" fill="#EBE0D5" width="3.019" height="79.999"/>
</g>
<use xlink:href="#bal_also"  width="40" height="40" x="-20" y="-20" transform="matrix(1 0 0 -1 32.2834 -28.156)" overflow="visible"/>
<use xlink:href="#bal_felso"  width="39.999" height="40" x="-20" y="-20" transform="matrix(1 0 0 -1 32.283 -148.156)" overflow="visible"/>
<g>
	<g>
		<path fill="#EBE0D5" d="M166.244-81.811V-94.74c-1.492,2.865-4.252,4.662-7.547,4.662c-3.133,0-5.682-2.598-5.682-5.791
			c0-2.345,1.871-4.253,4.172-4.253c1.471,0,2.662,1.216,2.662,2.714c0,0.73-0.283,1.394-0.742,1.882
			c2.449-0.263,2.898-2.86,2.979-3.687c0.184-1.907-0.133-3.292-0.971-4.234c-1.172-1.318-3.574-2.017-6.947-2.017
			c-5.029,0-8.718-1.295-10.962-3.847c-0.431-0.49-0.8-1.019-1.112-1.583v11.554c1.104-2.981,3.285-4.72,6.038-4.72
			c2.35,0,4.262,1.948,4.262,4.343c0,1.758-1.404,3.189-3.129,3.189c-1.104,0-1.998-0.91-1.998-2.036
			c0-0.543,0.209-1.037,0.55-1.402c-1.35,0.205-1.978,1.725-2.268,3.013c-0.19,0.843-0.546,3.862,2.862,7.336
			c0.779,0.795,0.779,2.084,0,2.878c-3.408,3.473-3.052,6.492-2.862,7.336c0.29,1.289,0.917,2.808,2.268,3.013
			c-0.341-0.365-0.55-0.859-0.55-1.403c0-1.124,0.894-2.036,1.998-2.036c1.725,0,3.129,1.432,3.129,3.189
			c0,2.395-1.912,4.343-4.262,4.343c-2.752,0-4.933-1.736-6.038-4.719v12.212c1.566-3.383,5.021-6.088,12.075-6.088
			c6.582,0,7.904-2.494,7.904-6.518c0-1.754-1.295-3.206-2.961-3.415c0.457,0.488,0.738,1.148,0.738,1.877
			c0,1.498-1.193,2.714-2.662,2.714c-2.301,0-4.172-1.907-4.172-4.252c0-3.193,2.549-5.791,5.682-5.791
			C161.924-86.276,164.742-84.476,166.244-81.811z"/>
		<path fill="#EBE0D5" d="M164.156-48.158h2.088v-3.606C165.758-50.526,165.056-49.308,164.156-48.158z"/>
		<path fill="#EBE0D5" d="M142.094-84.172c0.486-1.375,1.238-2.731,2.235-4.005c-0.995-1.274-1.748-2.63-2.235-4.005V-84.172z"/>
		<path fill="#EBE0D5" d="M160.074-49.597c3.41-3.469,3.059-6.49,2.869-7.332c-0.289-1.289-0.914-2.811-2.264-3.016
			c0.34,0.365,0.549,0.858,0.549,1.401c0,0,0,0.002,0,0.004c0,1.123-0.895,2.033-1.998,2.031c-1.725-0.002-3.125-1.433-3.125-3.19
			c0-0.001,0-0.001,0-0.002c0.002-2.396,1.916-4.341,4.266-4.339c2.625,0.004,4.73,1.589,5.873,4.326v-11.839
			c-1.566,3.384-5.02,6.089-12.074,6.089c-6.583,0-7.905,2.493-7.905,6.519c0,1.754,1.294,3.205,2.959,3.414
			c-0.457-0.487-0.736-1.149-0.736-1.877c0-1.498,1.191-2.713,2.662-2.713c2.301,0,4.172,1.907,4.172,4.252
			c0,3.193-2.549,5.791-5.682,5.791c-3.225,0-6.044-1.801-7.547-4.465v6.386h16.717C159.197-48.651,159.617-49.133,160.074-49.597z"
			/>
		<path fill="#EBE0D5" d="M149.64-126.275c3.133,0,5.682,2.598,5.682,5.792c0,2.345-1.871,4.252-4.172,4.252
			c-1.471,0-2.662-1.216-2.662-2.714c0-0.728,0.281-1.388,0.738-1.875c-1.802,0.232-2.791,1.979-2.978,3.71
			c-0.203,1.877,0.1,3.244,0.923,4.179c1.174,1.336,3.594,2.041,6.997,2.041c4.986,0,8.652,1.278,10.895,3.8
			c0.459,0.518,0.854,1.08,1.182,1.683v-11.191c-1.145,2.736-3.248,4.323-5.875,4.326c-2.35,0.002-4.264-1.943-4.266-4.337
			c0-0.001,0-0.002,0-0.004c0-1.758,1.402-3.188,3.125-3.189c1.104-0.002,1.998,0.909,2,2.031c0,0.003,0,0.003,0,0.004
			c0,0.543-0.209,1.036-0.549,1.401c1.348-0.207,1.975-1.726,2.264-3.016c0.188-0.843,0.539-3.863-2.871-7.332
			c-0.457-0.466-0.877-0.946-1.264-1.441h-16.715v6.643C143.609-124.41,146.406-126.275,149.64-126.275z"/>
		<path fill="#EBE0D5" d="M166.244-124.549v-3.606h-2.088C165.056-127.005,165.758-125.787,166.244-124.549z"/>
	</g>
	<rect x="169.263" y="-128.156" fill="#EBE0D5" width="3.02" height="79.998"/>
	<rect x="136.056" y="-128.156" fill="#EBE0D5" width="3.019" height="79.998"/>
</g>
<use xlink:href="#jobb_felso"  width="40" height="40" x="-20" y="-20" transform="matrix(1 0 0 -1 152.281 -148.156)" overflow="visible"/>
<use xlink:href="#jobb_also"  width="40" height="40" x="-20" y="-20" transform="matrix(1 0 0 -1 152.283 -28.158)" overflow="visible"/>
</svg>
