<?xml version="1.0" encoding="utf-8"?>
<!-- Generator: Adobe Illustrator 16.0.0, SVG Export Plug-In . SVG Version: 6.00 Build 0)  -->
<!DOCTYPE svg PUBLIC "-//W3C//DTD SVG 1.1//EN" "http://www.w3.org/Graphics/SVG/1.1/DTD/svg11.dtd">
<svg version="1.1" xmlns="http://www.w3.org/2000/svg" xmlns:xlink="http://www.w3.org/1999/xlink" x="0px" y="0px" width="32px"
	 height="32px" viewBox="0 0 32 32" enable-background="new 0 0 32 32" xml:space="preserve">
<g id="Layer_1">
	<g>
		<path fill="#CDB8AB" stroke="#553E31" stroke-linecap="round" stroke-linejoin="round" stroke-miterlimit="10" d="M31.283,14.27
			c0.306,1.791,0.255,3.347,0.056,4.481c-0.296,1.696-0.385,2.995-3.994,3.607c-3.608,0.614-7.987,1.877-11.479,4.187
			c-3.491,2.309-5.946,2.452-7.455,0.216c-1.509-2.237-3.521-5.448-5.267-7.686s-3.019-3.897-2.544-5.845
			c0.473-1.948,0.799-2.707,1.449-3.428c-0.813,1.421,1.214,4.222,3.018,6.314c1.806,2.093,2.692,3.609,3.491,4.871
			s1.598,2.563,4.054,1.912c2.455-0.65,3.639-1.805,5.502-2.706c1.864-0.901,5.858-2.345,7.87-2.599
			C27.997,17.344,31.046,16.695,31.283,14.27L31.283,14.27z"/>
		<path fill="#EBE0D5" stroke="#553E31" stroke-linecap="round" stroke-linejoin="round" stroke-miterlimit="10" d="M31.283,14.27
			c-0.237,2.426-3.286,3.074-5.299,3.326c-2.012,0.254-6.006,1.697-7.87,2.599c-1.863,0.901-3.047,2.056-5.502,2.706
			c-2.456,0.65-3.255-0.65-4.054-1.912s-1.686-2.778-3.491-4.871c-1.804-2.093-3.83-4.894-3.018-6.314
			c0.898-0.996,3.136-1.731,4.585-3.031c1.45-1.299,2.989-3.644,6.421-3.03s2.455,0.758,4.408,0.687
			c1.952-0.073,3.462-0.361,5.651,1.082s6.361,2.995,7.426,5.953C30.894,12.442,31.132,13.385,31.283,14.27L31.283,14.27z"/>
		<path fill="#CDB8AB" d="M11.154,16.894c1.042-0.158,1.743-0.48,2.362-0.927c0.619-0.445,1.94-1.406,2.475-1.234
			c0.536,0.172,0.563,0.584,0.113,1.029c-0.451,0.444-1.744,1.233-2.728,1.509c-0.985,0.274-2.251,0.994-2.87,0.789
			C9.889,17.853,10.029,17.063,11.154,16.894z"/>
		<path fill="#CDB8AB" d="M9.298,15.213c1.143-0.279,2.446-0.344,3.094-1.097c0.647-0.755,2.307-2.848,3.065-3.089
			c0.761-0.239,1.209,0.377,0.619,1.133c-0.59,0.755-1.351,1.371-1.856,2.092c-0.506,0.722-1.885,1.75-3.01,1.853
			c-1.125,0.102-1.715,0.754-2.391,0.687C8.146,16.722,7.048,15.762,9.298,15.213z"/>
		<path fill="#CDB8AB" d="M12.532,18.471c1.887-0.319,4.106-0.755,5.204-1.612c1.096-0.856,3.008-3.122,4.499-2.949
			c1.491,0.171,2.982,0.172,4.304,0.137c1.322-0.034,2.84,0.755,1.294,1.098c-1.548,0.344-4.106,0.344-5.119,1.063
			c-1.012,0.722-2.588,1.682-3.967,2.024c-1.377,0.343-3.43,2.128-4.724,2.504c-1.295,0.378-3.46,0.138-3.46-0.995
			C10.563,18.607,11.52,18.643,12.532,18.471z"/>
		<path fill="#CDB8AB" d="M19.086,6.157c1.564,0.401,2.278,0.789,3.797,1.235s3.601,1.989,4.331,3.121s1.041,2.366-0.479,2.436
			c-1.518,0.068-4.021-0.995-5.176-0.24c-1.152,0.754-2.164,1.647-2.979,1.647c-0.816,0-2.082-0.413-1.154-2.163
			c0.929-1.748,1.743-2.263,1.35-3.43C18.382,7.598,17.482,5.745,19.086,6.157z"/>
		<path fill="#CDB8AB" d="M6.484,8.901C7.7,8.435,8.48,7.357,9.102,6.705c0.618-0.65,2.052-1.405,3.712-1.337
			c1.658,0.069,3.714,0.309,4.162,0.789c0.45,0.479,1.014,1.955,0.085,2.642c-0.928,0.686-3.318,1.165-4.049,2.161
			c-0.731,0.993-1.069,2.16-2.363,2.813c-1.294,0.651-2.841,1.782-3.826,0.856c-0.983-0.925-2.362-2.606-2.137-3.737
			C4.909,9.759,5.501,9.278,6.484,8.901z"/>
	</g>
</g>
<g id="Layer_3">
</g>
</svg>
