<?xml version="1.0" encoding="utf-8"?>
<!-- Generator: Adobe Illustrator 16.0.0, SVG Export Plug-In . SVG Version: 6.00 Build 0)  -->
<!DOCTYPE svg PUBLIC "-//W3C//DTD SVG 1.1//EN" "http://www.w3.org/Graphics/SVG/1.1/DTD/svg11.dtd">
<svg version="1.1" xmlns="http://www.w3.org/2000/svg" xmlns:xlink="http://www.w3.org/1999/xlink" x="0px" y="0px" width="32px"
	 height="32px" viewBox="0 0 32 32" enable-background="new 0 0 32 32" xml:space="preserve">
<g id="Layer_1">
	<g>
		<g>
			<g>
				<defs>
					<path id="XMLID_31_" d="M9.532,7.953c0.077-0.596,0.37-1.221,0.785-1.654c0.355-0.369,0.923-0.338,1.249-0.758
						c0.302-0.387,0.241-0.813,0.788-0.996c1.21-0.41,2.561-0.459,3.798-0.848c0.433-0.135,0.888,0.041,1.321-0.088
						c0.355-0.107,0.634-0.408,1.009-0.455c1.132-0.131,2.557-0.193,3.671,0.08c0.836,0.205,1.729,0.586,2.27,1.289
						c0.5,0.652,0.988,1.334,1.359,2.07c0.363,0.723,0.276,1.148,0.143,1.918c-0.089,0.51-0.032,0.982-0.219,1.473
						c-0.159,0.424-0.426,0.809-0.598,1.229c-0.149,0.361-1.115,1.418-1.564,1.693c-0.448,0.277-1.243,0.637-2.036,0.656
						c-0.791,0.021-2.909-0.486-3.672-0.316c-0.762,0.168-2.213-0.023-3.201-0.16c-0.989-0.137-1.289-0.504-2.167-0.67
						c-0.879-0.164-1.093-0.461-1.479-0.822C10.604,11.234,9.275,9.965,9.532,7.953z"/>
				</defs>
				<use xlink:href="#XMLID_31_"  overflow="visible" fill="#EBE0D5"/>
				<clipPath id="XMLID_35_">
					<use xlink:href="#XMLID_31_"  overflow="visible"/>
				</clipPath>
				<path clip-path="url(#XMLID_35_)" fill="#CDB8AB" d="M26.586,7.531c-0.449,0.189-0.917,0.379-1.325,0.656
					c-0.409,0.275-0.675,0.148-0.98,0.793c-0.308,0.645-0.521,1.334-0.736,1.414c-0.214,0.078-0.577,0.48-1.155,0.395
					c-0.579-0.084-1.8,0.234-2.701,0.107c-0.9-0.129-2.121-0.199-2.549-0.502c-0.43-0.303,0.381-0.713-0.56-0.793
					c-0.94-0.082-2.012-0.324-2.397-0.373c-0.386-0.047-0.667-0.492-0.913-0.904c-0.243-0.414-0.303-1.107-0.716-1.25
					c-0.411-0.145-0.76-0.303-1.119-0.613c-0.358-0.307-0.444-0.348-0.829-0.434c-0.387-0.086-2.679,1.047-2.679,1.047l3.257,7.293
					h9.041l4.542-1.08L26.586,7.531z"/>
				<use xlink:href="#XMLID_31_"  overflow="visible" fill="none" stroke="#553E31" stroke-miterlimit="10"/>
			</g>
			<path fill="#553E31" d="M21.296,4.25c0.27-0.314,0.471-0.043,0.771,0.125c0.3,0.172,0.649,0.338,0.229,0.531
				c-0.421,0.189-0.55,0.359-0.999,0.252c-0.451-0.104-0.472-0.283-0.344-0.459S21.037,4.547,21.296,4.25z"/>
			<path fill="#553E31" d="M18.834,7.57c0.321-0.135,0.557,0.211,0.579,0.4c0.022,0.193,0.092,0.34-0.329,0.701
				c-0.421,0.359-0.527,0.59-0.786,0.316c-0.255-0.275-0.171-0.398,0-0.652C18.47,8.078,18.534,7.695,18.834,7.57z"/>
			<path fill="#553E31" d="M25.259,6.854c-0.02-0.322-0.557-0.275-0.664-0.51c-0.107-0.23-0.259-0.148-0.463,0
				c-0.202,0.148-0.438,0.443-0.115,0.615c0.32,0.168,0.621,0.406,0.856,0.287C25.109,7.127,25.28,7.213,25.259,6.854z"/>
			<path fill="#553E31" d="M22.642,9.16c0.18-0.289-0.506-0.17-0.648,0c-0.142,0.17-0.151,0.041-0.307,0.275
				c-0.156,0.232-0.195,0.422,0.07,0.611c0.267,0.193,0.491,0.256,0.732,0c0.241-0.252,0.213-0.463,0.152-0.568
				C22.58,9.371,22.402,9.543,22.642,9.16z"/>
			<path fill="#553E31" d="M12.683,6.74c-0.261-0.137-0.407-0.227-0.515,0.092c-0.106,0.316,0,0.506,0.257,0.549
				c0.258,0.043,0.558,0.254,0.708,0.086c0.149-0.17,0.214-0.301,0-0.395C12.918,6.98,12.849,6.824,12.683,6.74z"/>
			<path fill="#553E31" d="M13.581,5.73c-0.189,0.301,0.129,0.43,0.365,0.471c0.235,0.037,0.472-0.129,0.472-0.234
				c0-0.109,0.063-0.15-0.193-0.236S13.688,5.561,13.581,5.73z"/>
			<path fill="#553E31" d="M24.702,8.986c-0.419,0.043-0.451,0.582-0.408,0.717c0.043,0.133,0.016,0.068,0.202,0.344
				c0.184,0.277,0.462,0.129,0.506-0.145c0.042-0.277-0.021-0.342,0-0.615C25.022,9.012,24.959,8.959,24.702,8.986z"/>
			<path fill="#553E31" d="M15.479,10.313c0.334,0.088,0.546,0.129,0.739,0c0.192-0.127,0.61-0.221,0.16-0.379
				c-0.45-0.16-0.387,0-0.899-0.16c-0.515-0.158-1.155-0.033-0.676,0.191C15.285,10.186,15.123,10.223,15.479,10.313z"/>
		</g>
		<g>
			<g>
				<defs>
					<path id="XMLID_30_" d="M9.158,8.08c0.335,0.051,0.668,0.115,0.998,0.146c0.802,0.074,1.612,0.02,2.417,0.02
						c0.593,0,3.019,0.637,3.165,0.928c0.147,0.293,0.578,0.268,1.117,0.375c0.537,0.105,1.75,0.744,1.965,1.248
						c0.216,0.508,0.996,1.121,1.104,1.785c0.108,0.664,0.229,1.729,0.021,2.289c-0.208,0.557-0.882,2.633-1.285,3.297
						c-0.404,0.666-1.777,1.248-2.397,1.477c-0.619,0.229-2.101,0.494-2.907,0.494c-1.383,0-2.687,0.596-4.085,0.436
						c-0.886-0.1-1.822-0.117-2.676-0.406c-0.877-0.301-1.311-1.078-2.109-1.479C4.009,18.449,3.457,18.41,3,18.123
						c-0.655-0.414-0.882-1.297-1.396-1.852c-0.53-0.574-1.247-1.125-1.078-2.004c0.068-0.355,0.271-0.67,0.31-1.033
						c0.046-0.434-0.095-0.822,0.155-1.215c0.224-0.352,0.664-0.506,0.887-0.865c0.573-0.92,1.681-1.367,2.578-1.904
						c0.511-0.305,1.093-0.396,1.662-0.539c0.541-0.135,0.995-0.396,1.515-0.574C8.132,7.967,8.645,8.006,9.158,8.08z"/>
				</defs>
				<use xlink:href="#XMLID_30_"  overflow="visible" fill="#EBE0D5"/>
				<clipPath id="XMLID_36_">
					<use xlink:href="#XMLID_30_"  overflow="visible"/>
				</clipPath>
				<path clip-path="url(#XMLID_36_)" fill="#CDB8AB" d="M20.382,13.715c-0.565-0.096-0.674-0.367-0.941,0.129
					c-0.27,0.494,0.106,0.439-0.513,0.734c-0.619,0.293-0.512,0.461-0.996,0.471c-0.483,0.006-0.161-0.264-0.619,0.271
					c-0.457,0.533-0.35,0.955-0.942,1.09s-0.741,0.479-1.179,0.359c-0.438-0.117-0.396-0.387-0.78,0
					c-0.384,0.389-0.839,0.549-1.487,0.734c-0.646,0.186-0.782,0.107-1.132,0.533c-0.351,0.426-0.323,0.754-0.943,0.588
					c-0.617-0.162-0.313-0.137-0.749-0.402c-0.435-0.268-0.709-0.055-0.909,0.293c-0.198,0.344-0.01,0.664-0.576,0.371
					c-0.565-0.293-0.485-0.158-0.889-0.529c-0.403-0.375-0.453-0.719-0.658-0.908c-0.204-0.186,0.202-0.236-0.58-0.398
					c-0.781-0.158-0.646-0.287-0.891-0.529c-0.241-0.24-0.155-0.219-0.537-0.111s-0.538,0.135-0.969-0.248
					c-0.432-0.389-0.458,0.061-0.728-0.404c-0.27-0.461-0.193-0.895-0.635-0.438c-0.443,0.453-0.686,0.016-1.197-0.242
					c-0.51-0.262-0.301-0.588-0.673-0.357c-0.372,0.229-0.35,0.438-0.552,0.6s3.515,4.047,3.515,4.047s6.396,1.729,6.361,1.729
					c-0.033,0,5.009-0.428,5.009-0.428l4.732-2.42L20.382,13.715z"/>
				<use xlink:href="#XMLID_30_"  overflow="visible" fill="none" stroke="#553E31" stroke-miterlimit="10"/>
			</g>
			<path fill="#553E31" d="M14.62,12.688c-0.033-0.354,0.457-0.398,0.674-0.344c0.215,0.051,0.594,0.502,0.444,0.824
				c-0.148,0.318-0.342,0.609-0.717,0.664c-0.376,0.053-0.376-0.105-0.401-0.426C14.593,13.086,14.646,12.98,14.62,12.688z"/>
			<path fill="#553E31" d="M6.621,11.385c-0.271,0.18-0.052,0.479,0,0.717c0.054,0.242,0.324,0.418,0.565,0.223
				c0.243-0.195,0.189-0.406,0.189-0.621c0-0.213-0.108-0.291-0.297-0.318S6.945,11.172,6.621,11.385z"/>
			<path fill="#553E31" d="M3.246,12.469c0.367,0.262,0.457,0.563,0.428,0.75s-0.431,0.664-0.711,1.053
				c-0.279,0.391-0.402,0.484-0.654,0.699c-0.251,0.211-0.156-0.051-0.166-0.33c-0.011-0.279-0.084,0.186-0.292-0.045
				c-0.21-0.23,0.063-0.404,0.356-0.547c0.296-0.143,0.249-0.367,0.299-0.682c0.051-0.316,0.271-0.852,0.634-0.914L3.246,12.469z"/>
			<path fill="#553E31" d="M13.488,9.521c0.281,0.072,0.458,0.107,0.62,0c0.16-0.107,0.512-0.186,0.135-0.32
				c-0.379-0.131-0.323,0-0.755-0.131c-0.431-0.133-0.967-0.027-0.564,0.158C13.327,9.414,13.19,9.443,13.488,9.521z"/>
			<path fill="#553E31" d="M8.776,16.813c0.215-0.016,0.241,0.293,0.269,0.506s-0.216,0.559,0,0.85
				c0.216,0.295,0.241,0.588-0.269,0.4c-0.512-0.188-0.97-0.451-1.077-0.639c-0.108-0.186-0.485-0.291-0.136-0.453
				c0.352-0.158,0.808-0.131,0.741-0.344c-0.067-0.213,0.175-0.213,0.256-0.32C8.641,16.707,8.426,16.84,8.776,16.813z"/>
			<path fill="#553E31" d="M18.739,13.193c0.062-0.281-0.625-0.186-0.635,0c-0.012,0.186-0.496,0.367-0.173,0.559
				c0.323,0.188,0.323,0.875,0.512,0.598c0.188-0.277,0.35-0.465,0.296-0.611C18.687,13.592,18.659,13.564,18.739,13.193z"/>
			<path fill="#553E31" d="M15.191,15.801c-0.047,0.555,0.209,0.713,0.451,0.609c0.243-0.104,0.351-0.254,0.377-0.51
				c0.027-0.26,0.323-0.365,0-0.512s-0.43-0.467-0.511-0.227S15.225,15.402,15.191,15.801z"/>
			<path fill="#553E31" d="M6.935,15.049c-0.666,0.006-0.528-0.186-1.175,0.271c-0.646,0.453-0.808,0.572-1.077,0.58
				c-0.269,0.006-0.243,0.934,0.242,0.51c0.484-0.422,0.304-0.529,0.798-0.742s0.444-0.188,0.765-0.279
				C6.81,15.297,7.31,15.043,6.935,15.049z"/>
			<path fill="#553E31" d="M14.054,17.699c0,0.408,0.081,0.365,0.404,0.441c0.322,0.082,0.239,0.027,0.563-0.104
				c0.325-0.135,0.578-0.281,0.298-0.338c-0.279-0.057-0.229-0.115-0.572-0.195S14.054,17.336,14.054,17.699z"/>
		</g>
		<g>
			<g>
				<defs>
					<path id="XMLID_29_" d="M19.157,15.141c0.057-0.064,0.106-0.141,0.153-0.225c0.652-1.176,2.522-2.082,3.78-2.418
						c1.036-0.277,2.208-0.34,3.245-0.035c0.488,0.143,0.873,0.492,1.322,0.715c0.549,0.277,1.159,0.404,1.676,0.744
						c0.922,0.613,1.53,1.229,1.644,2.332c0.045,0.424,0.2,0.707,0.358,1.096c0.443,1.084-0.109,2.203-0.5,3.217
						c-0.372,0.959-0.763,2.059-1.489,2.813c-0.801,0.83-2.801,2.338-3.417,2.633c-0.615,0.297-1.755,0.857-2.155,1.125
						c-0.399,0.266-1.815,0.533-2.585,0.711c-0.662,0.15-1.364,0.162-2.004,0.402c-0.445,0.168-0.813,0.469-1.279,0.592
						c-1.139,0.301-2.329-0.045-3.433-0.332c-0.425-0.113-0.768-0.375-1.153-0.568c-0.354-0.18-0.806-0.246-1.119-0.492
						c-0.762-0.6-0.451-1.822-1.169-2.355c-0.434-0.318-0.313-1.498-0.299-1.951c0.063-1.811,1.403-3.729,2.939-4.598
						c0.657-0.373,1.292-0.059,1.773-0.773c0.629-0.932,0.759-1.506,1.896-1.936C17.994,15.592,18.703,15.676,19.157,15.141z"/>
				</defs>
				<use xlink:href="#XMLID_29_"  overflow="visible" fill="#EBE0D5"/>
				<clipPath id="XMLID_37_">
					<use xlink:href="#XMLID_29_"  overflow="visible"/>
				</clipPath>
				<path clip-path="url(#XMLID_37_)" fill="#CDB8AB" d="M32.378,18.824c0,0-0.555-3.137-0.555-3.092s-0.862-0.975-0.862-0.975
					c-0.307,0.176-0.815,0.117-0.83,0.486c-0.016,0.369-0.186,0.355-0.308,0.635c-0.123,0.283-0.215,0.682,0,1.053
					c0.215,0.367,0.547,0.723,0.504,0.93c-0.042,0.209,0.012,0.756,0,0.949c-0.012,0.191,0.342,0.191,0.449,0.398
					c0.07,0.133,0.05,0.297,0.015,0.451c-0.124,0.002-0.241,0.014-0.368,0.053c-0.308,0.086-0.723,0.205-0.523,0.398
					c0.2,0.191,0.2,0.768-0.154,0.709c-0.353-0.059-0.575,0.223-0.488,0.459c0.09,0.238-0.312,0.799-0.511,0.563
					c-0.2-0.238-0.524,0.059-0.616-0.09c-0.093-0.148-0.246-0.105-0.308,0.146c-0.063,0.254-0.016,0.594-0.231,0.625
					c-0.215,0.029-0.322,0.248-0.492,0.102c-0.169-0.148-0.23-0.059-0.353-0.162c-0.124-0.104-0.647-0.059-0.71-0.355
					c-0.061-0.297,0.278-0.475,0-0.857c-0.277-0.385-0.753-0.318-0.984-0.619c-0.231-0.299-0.508-0.832-0.707-0.535
					c-0.2,0.297-0.231,0.342-0.124,0.711c0.108,0.369,0.524,1.67,0.124,1.553s-0.231,0.193-0.509-0.178
					c-0.276-0.371-0.831-0.859-0.953-0.871c-0.124-0.018-0.293,0.207,0,0.576c0.292,0.369,0.584,0.932,0.122,0.695
					c-0.462-0.238-0.291-0.076-0.553-0.268c-0.263-0.191-0.556,0.076-0.447,0.252c0.108,0.178-0.061,0.314,0.108,0.541
					c0.169,0.229,0.015,0.213,0.153,0.73c0.14,0.52,0.385,0.963,0.047,1.316c-0.339,0.355-0.463,0.754-0.463,0.266
					c0-0.486,0.031-0.648-0.168-0.709c-0.2-0.059-0.493-0.311-0.432,0.18c0.062,0.486,0.122,0.525-0.009,0.758
					c-0.13,0.232-0.223,0.539-0.531,0.133c-0.307-0.404-0.799-0.006-0.953-0.152c-0.153-0.148-0.214-0.297-0.492-0.268
					c-0.277,0.029-0.416-0.043-0.4,0.193c0.016,0.238-0.093,0.412-0.123,0.59c-0.031,0.178,0.092,0.932-0.107,0.979
					c-0.199,0.043-0.138-0.209-0.231-0.576c-0.092-0.373-0.076-0.563-0.153-0.682s-0.631-0.334-0.954-0.373
					c-0.323-0.043-0.385-0.131-0.57,0.123c-0.184,0.25-0.11,0.605-0.37,0.338c-0.26-0.266-0.26-0.65-0.337-0.813
					s0.016-0.09-0.338-0.504c-0.354-0.414-0.323-0.65-0.647-0.385s-0.154,0.459-0.477,0.607c-0.323,0.148-0.306,0.137-0.6,0.158
					c-0.292,0.018-0.247,0.123-0.509,0.58c-0.262,0.459-0.369,0.43-0.692,0.518c-0.323,0.09-0.523,0.402-0.646,0.551
					c-0.123,0.145-0.507,0.441-0.522,0.635c-0.016,0.191,3.063,1.834,3.063,1.834l5.709-0.193l4.54-1.42l5.309-4.414l1.037-2.971
					c0.156,0.023,0.288,0.033,0.288,0.033L32.378,18.824z"/>
				<use xlink:href="#XMLID_29_"  overflow="visible" fill="none" stroke="#553E31" stroke-miterlimit="10"/>
			</g>
			<path fill="#553E31" d="M19.823,23.129c-0.058,0.357-0.231,0.633,0,0.686c0.228,0.055,0.428,0.332,0.543,0
				c0.115-0.328,0.088-0.521,0-0.686C20.282,22.965,19.823,23.129,19.823,23.129z"/>
			<path fill="#553E31" d="M24.371,22.264c-0.202,0.074-0.348,0.188-0.323,0.393c0.023,0.207,0.031,0.492-0.002,0.717
				c-0.033,0.227-0.188,0.658,0.063,0.607c0.25-0.047,0.394-0.105,0.514-0.232c0.118-0.129,0.273-0.09,0.273-0.404
				c0-0.313-0.179-0.469-0.166-0.727c0.011-0.256,0.201-0.334-0.013-0.354C24.502,22.244,24.669,22.156,24.371,22.264z"/>
			<path fill="#553E31" d="M11.233,25.313c0.091-0.262,0.076-0.379,0.399-0.586c0.322-0.209,0.415-0.281,0.492,0
				s0.123,0.605,0.246,0.871c0.124,0.268,0.2,0.475-0.123,0.488c-0.323,0.016-0.385,0.045-0.478,0.223
				c-0.091,0.178-0.261,0.133-0.384,0.104C11.263,26.383,11.233,25.313,11.233,25.313"/>
			<path fill="#553E31" d="M28.469,18.633c0.278-0.004,0.491-0.029,0.661,0.191c0.171,0.221,0.171,0.443,0,0.695
				c-0.17,0.252-0.398,0.457-0.661,0.754c-0.262,0.295-0.709,0.207-0.462,0s0.386-0.162,0.277-0.416
				c-0.108-0.25-0.421-0.234-0.349-0.471c0.071-0.236,0.025-0.533,0.226-0.635C28.361,18.646,28.18,18.637,28.469,18.633z"/>
			<path fill="#553E31" d="M25.913,13.16c-0.229,0.072-0.507,0.146-0.507,0.383s0.139,0.313,0.254,0.266
				c0.115-0.043,0.27,0,0.331-0.234C26.052,13.336,26.02,13.127,25.913,13.16z"/>
			<path fill="#553E31" d="M23.112,14.092c0.339,0.061,0.493,0.072,0.602,0.221c0.107,0.148,0.184,0.355,0,0.576
				c-0.186,0.223-0.339,0.164-0.692,0c-0.354-0.162-0.77-0.621-0.985-0.695c-0.216-0.072,0.062-0.309,0.338-0.295
				C22.651,13.914,22.843,14.041,23.112,14.092z"/>
			<path fill="#553E31" d="M16.911,23.295c0.438-0.057,0.554-0.121,0.739,0.291c0.184,0.416,0.553,0.918,0.184,1.125
				c-0.369,0.209-0.554,0.443-0.769,0.209c-0.217-0.238-0.712-0.461-0.71-0.793C16.357,23.793,16.491,23.346,16.911,23.295z"/>
			<path fill="#553E31" d="M13.218,22.107c-0.524,0.119-0.801,0.207-0.769,0.592c0.03,0.385-0.156,0.621,0.382,0.594
				c0.541-0.029,1.156-0.266,1.125-0.592s-0.738-0.594-0.646-0.594H13.218z"/>
			<path fill="#553E31" d="M24.603,19.703c0.338-0.287-0.348-0.227-0.777-0.158c-0.431,0.07-0.141,0.158,0,0.266
				s0.004,0.242,0.323,0.143C24.469,19.85,24.301,19.961,24.603,19.703z"/>
			<path fill="#553E31" d="M17.528,16.613c0.429-0.002,0.658,0.219,1.071,0c0.412-0.219,0.96,0.107,0.926,0.33
				c-0.034,0.217-0.958,0.361-1.163,0.42c-0.204,0.061-0.834-0.107-0.834-0.107S17.159,16.615,17.528,16.613z"/>
		</g>
	</g>
</g>
<g id="Layer_3">
</g>
</svg>
