<?xml version="1.0" encoding="utf-8"?>
<!-- Generator: Adobe Illustrator 16.0.0, SVG Export Plug-In . SVG Version: 6.00 Build 0)  -->
<!DOCTYPE svg PUBLIC "-//W3C//DTD SVG 1.1//EN" "http://www.w3.org/Graphics/SVG/1.1/DTD/svg11.dtd">
<svg version="1.1" id="Layer_1" xmlns="http://www.w3.org/2000/svg" xmlns:xlink="http://www.w3.org/1999/xlink" x="0px" y="0px"
	 width="19px" height="22px" viewBox="0 0 19 22" enable-background="new 0 0 19 22" xml:space="preserve">
<g>
	<path fill="#EBE0D5" d="M3.089,21c-0.35,0-0.698-0.088-1.005-0.255C1.417,20.383,1,19.688,1,18.93V3.069
		c0-0.757,0.417-1.453,1.087-1.816C2.393,1.087,2.739,1,3.088,1C3.48,1,3.863,1.108,4.195,1.314l12.821,7.931
		C17.632,9.625,18,10.281,18,11c0,0.72-0.369,1.376-0.986,1.756l-12.818,7.93C3.861,20.892,3.479,21,3.089,21z"/>
	<path fill="#553E31" d="M3.088,2C3.291,2,3.493,2.055,3.67,2.165l12.82,7.931C16.808,10.291,17,10.632,17,11
		c0,0.367-0.192,0.709-0.51,0.904L3.67,19.835C3.492,19.944,3.291,20,3.089,20c-0.181,0-0.362-0.044-0.526-0.134
		C2.215,19.678,2,19.32,2,18.93V3.069c0-0.39,0.215-0.748,0.563-0.936C2.727,2.044,2.908,2,3.088,2 M3.088,0
		c-0.515,0-1.027,0.13-1.479,0.375C0.617,0.911,0,1.944,0,3.069V18.93c0,1.125,0.617,2.158,1.611,2.695
		C2.059,21.87,2.572,22,3.089,22c0.575,0,1.139-0.16,1.629-0.462l12.824-7.934C18.454,13.044,19,12.069,19,11
		c0-1.068-0.546-2.042-1.459-2.606L4.722,0.464C4.23,0.16,3.666,0,3.088,0L3.088,0z"/>
</g>
</svg>
