<?xml version="1.0" encoding="utf-8"?>
<!-- Generator: Adobe Illustrator 16.0.0, SVG Export Plug-In . SVG Version: 6.00 Build 0)  -->
<!DOCTYPE svg PUBLIC "-//W3C//DTD SVG 1.1//EN" "http://www.w3.org/Graphics/SVG/1.1/DTD/svg11.dtd">
<svg version="1.1" xmlns="http://www.w3.org/2000/svg" xmlns:xlink="http://www.w3.org/1999/xlink" x="0px" y="0px" width="18px"
	 height="35px" viewBox="0 0 18 35" enable-background="new 0 0 18 35" xml:space="preserve">
<g id="portionsetter_x5F_typeA">
</g>
<g id="portionsetter_x5F_typeB">
</g>
<g id="icons">
	<g>
		<circle fill-rule="evenodd" clip-rule="evenodd" fill="#553E31" cx="9" cy="3.17" r="3.17"/>
		<path fill-rule="evenodd" clip-rule="evenodd" fill="#553E31" d="M9,23.627c0,0-0.599-0.115-0.599,0.478c0,1.268,0,6.847,0,9.184
			s-3.839,2.189-3.839,0.115s0-0.889,0-3.231s-0.419-6.273-0.74-7.404c-0.32-1.132-1.037-1.955-1.078-3.746
			c-0.041-1.79,0.782-2.825,0.782-2.825c1.679,0.852,2.962,0.444,3.567-0.33c-3.173,0.473-3.964-1.524-4.448-1.934
			c0.243,0.55,0.597,1.215,0.167,2.24c-0.973,2.323-0.476,3.646-0.368,5.307c0.107,1.661-1.979,1.567-2.102,0.269
			c-0.123-1.298-0.21-2.453,0.023-5.461s1.398-5.333,2.688-6.982C4.408,7.57,7.355,7.453,9,7.453s4.592,0.117,5.946,1.852
			c1.289,1.649,2.454,3.975,2.688,6.982s0.146,4.163,0.023,5.461c-0.123,1.299-2.209,1.393-2.102-0.269
			c0.107-1.66,0.604-2.983-0.368-5.307c-0.43-1.025-0.076-1.69,0.167-2.24c-0.484,0.409-1.275,2.406-4.448,1.934
			c0.605,0.774,1.889,1.182,3.567,0.33c0,0,0.823,1.035,0.782,2.825c-0.041,1.791-0.758,2.614-1.078,3.746
			c-0.321,1.131-0.74,5.062-0.74,7.404s0,1.157,0,3.231s-3.839,2.222-3.839-0.115s0-7.916,0-9.184C9.599,23.512,9,23.627,9,23.627
			L9,23.627z"/>
	</g>
</g>
</svg>
