<?xml version="1.0" encoding="utf-8"?>
<!-- Generator: Adobe Illustrator 16.0.0, SVG Export Plug-In . SVG Version: 6.00 Build 0)  -->
<!DOCTYPE svg PUBLIC "-//W3C//DTD SVG 1.1//EN" "http://www.w3.org/Graphics/SVG/1.1/DTD/svg11.dtd">
<svg version="1.1" id="Layer_1" xmlns="http://www.w3.org/2000/svg" xmlns:xlink="http://www.w3.org/1999/xlink" x="0px" y="0px"
	 width="35px" height="35px" viewBox="0 0 35 35" enable-background="new 0 0 35 35" xml:space="preserve">
<g>
	<g>
		<path fill="#553E31" d="M17.499,1.749c8.685,0,15.751,7.065,15.751,15.75s-7.066,15.75-15.751,15.75S1.75,26.184,1.75,17.499
			S8.814,1.749,17.499,1.749 M17.499-0.001C7.85-0.001,0,7.848,0,17.499c0,9.649,7.85,17.5,17.499,17.5S35,27.148,35,17.499
			C35,7.848,27.148-0.001,17.499-0.001L17.499-0.001z"/>
	</g>
	<path fill="#553E31" d="M13.132,12.875l4.354,1.647v1.832c0.055,0.049,0.109,0.097,0.165,0.147l0.956,0.846
		c0.064,0.057,0.127,0.115,0.191,0.173v-3.034l4.26-1.984v8.892c0.467,0.384,0.908,0.708,1.313,0.945V11.473
		c0-0.098-0.021-0.191-0.061-0.279L21.8,5.779V3.781c0-0.213-0.104-0.414-0.276-0.537c-0.175-0.123-0.396-0.155-0.599-0.082
		l-6.002,2.119c-0.263,0.092-0.438,0.34-0.438,0.619v1.849l-3.637,3.232c-0.14,0.125-0.222,0.302-0.222,0.492v0.268
		C11.461,11.95,12.295,12.348,13.132,12.875z M22.845,11.153l-4.399,2.051l-2.385-4.789l4.738-1.675L22.845,11.153z M15.798,6.363
		l4.689-1.654v0.75l-4.689,1.658V6.363z M14.937,9.104l1.872,3.758l-4.278-1.62L14.937,9.104z M24.371,26.615v2.006
		c0,0.255-0.146,0.487-0.379,0.595l-5.572,2.596c-0.088,0.041-0.183,0.062-0.277,0.062c-0.078,0-0.157-0.016-0.232-0.043
		l-6.859-2.596c-0.255-0.098-0.424-0.342-0.424-0.614V16.262c0.418,0.254,0.857,0.557,1.313,0.896v11.009l5.547,2.101v-8.319
		c0.186,0.179,0.377,0.36,0.56,0.538c0.255,0.248,0.505,0.491,0.753,0.728v6.973l4.26-1.984v-1.866
		C23.486,26.494,23.924,26.583,24.371,26.615z M4.699,16.016c0.117-0.219,1.654-3.382,4.414-3.562
		c2.762-0.178,5.697,2.722,8.916,5.549c3.221,2.828,5.809,5.913,7.807,5.61c1.824-0.277,2.562-1.535,2.841-1.864
		c0.416-0.549,0.924-0.161,0.636,0.455c-0.129,0.244-1.655,3.382-4.416,3.562c-2.762,0.178-5.277-3.198-8.497-6.026
		c-3.22-2.829-6.228-5.437-8.224-5.134c-1.825,0.275-2.677,1.554-2.843,1.865C4.934,17.131,4.366,16.627,4.699,16.016z"/>
</g>
</svg>
