<?xml version="1.0" encoding="utf-8"?>
<!-- Generator: Adobe Illustrator 16.0.0, SVG Export Plug-In . SVG Version: 6.00 Build 0)  -->
<!DOCTYPE svg PUBLIC "-//W3C//DTD SVG 1.1//EN" "http://www.w3.org/Graphics/SVG/1.1/DTD/svg11.dtd">
<svg version="1.1" id="Layer_1" xmlns="http://www.w3.org/2000/svg" xmlns:xlink="http://www.w3.org/1999/xlink" x="0px" y="0px"
	 width="600px" height="157px" viewBox="0 0 600 157" enable-background="new 0 0 600 157" xml:space="preserve">
<g>
	<g>
		<path fill="#FFFFFF" stroke="#553E31" stroke-width="5.3401" stroke-miterlimit="10" d="M145.592,26.4
			c-1.582,0-3.124,0.162-4.615,0.463c-5.387-14.15-18.95-24.191-34.837-24.191c-14.146,0-26.453,7.963-32.779,19.691
			c-4.369-2.904-9.592-4.592-15.205-4.592c-15.312,0-27.722,12.557-27.722,28.043c0,15.49,12.41,28.049,27.722,28.049
			c1.449,0,2.875-0.117,4.267-0.328v69.996c0,0,5.327,10.797,35.188,10.797c29.858,0,37.318-10.797,37.318-10.797V71.273
			c3.199,1.654,6.824,2.59,10.664,2.59c12.955,0,23.46-10.627,23.46-23.729C169.052,37.025,158.547,26.4,145.592,26.4z"/>
		<path fill="#553E31" d="M45.873,48.467c-0.509-11.656,4.932-17.105,17.296-17.105c2.657,0,7.543,1.543,9.812,2.584
			c-3.293-4.389-8.505-7.232-14.369-7.232c-9.954,0-18.022,8.164-18.022,18.236c0,7.377,4.343,13.734,10.581,16.605
			C48.881,58.496,46.052,52.596,45.873,48.467z"/>
		<path fill="#553E31" d="M112.458,16.107c4.13,0,8.402,1.977,11.809,3.82c-4.45-5.205-11.022-8.504-18.356-8.504
			c-12.739,0-23.186,9.936-24.182,22.559c2.538,2.205,3.573,2.877,5.69,5.613C87.467,23.488,97.564,16.107,112.458,16.107z"/>
		<path fill="#553E31" d="M145.815,35.027c-3.291,0-6.341,1.063-8.833,2.857c1.644,2.854,2.382,3.223,3.041,6.428
			c2.77-3.877,6.284-5.277,11.376-5.277c1.995,0,5.24,1.992,6.988,2.693C155.638,37.684,151.035,35.027,145.815,35.027z"/>
		<g>
			<polygon fill="#553E31" points="77.426,122.174 73.085,122.535 73.085,68.414 77.426,65.232 			"/>
		</g>
		<path fill-rule="evenodd" clip-rule="evenodd" fill="#F9D438" stroke="#553E31" stroke-width="4.2721" stroke-miterlimit="10" d="
			M135.233,82.703c0.065,3.764-0.048,6.396,0.274,9.58c15.702,0.662,26.253,3.846,26.999,9.074
			c1.271,8.816-25.89,20.115-60.668,25.225c-34.771,5.111-63.986,2.113-65.254-6.703c-0.789-5.486,9.866-12.117,26.043-17.434
			c-0.067-3.354-0.333-7.52-0.201-11.746C26.784,99.35,0.6,113.451,2.207,124.637c2.005,13.959,44.272,19.305,94.398,11.926
			c50.129-7.373,89.137-24.66,87.133-38.631C182.38,88.496,163.393,82.988,135.233,82.703z"/>
	</g>
	<g>
		<g>
			<path fill="#553E31" d="M271.806,110.211c-2.354,0-4.674,0.025-6.957,0.068c-2.287,0.045-4.584,0-6.892-0.139
				c-0.272,0-0.487-0.076-0.646-0.24c-0.157-0.158-0.191-0.352-0.102-0.582c0.181-0.594,0.283-1.178,0.306-1.752
				c0.022-0.57,0.034-1.154,0.034-1.748c0-3.299-0.159-6.768-0.475-10.408c-0.317-3.637-0.681-7.105-1.087-10.402
				c-0.136-1.01-0.249-1.9-0.34-2.68s-0.182-1.545-0.269-2.303c-0.093-0.754-0.184-1.52-0.271-2.297
				c-0.094-0.779-0.185-1.672-0.272-2.68c-2.036,3.982-4.006,7.988-5.907,12.018c-1.901,4.031-3.803,8.08-5.703,12.156
				c-0.815,1.74-1.631,3.492-2.442,5.254c-0.814,1.764-1.655,3.535-2.513,5.322c-0.136,0.23-0.339,0.342-0.61,0.342
				c-0.272,0-0.521-0.092-0.747-0.273c-2.807-3.844-5.217-7.828-7.231-11.949s-3.97-8.309-5.871-12.568
				c-0.498-1.053-0.917-1.98-1.257-2.781c-0.339-0.803-0.667-1.568-0.984-2.301c-0.316-0.73-0.656-1.486-1.018-2.268
				c-0.362-0.775-0.814-1.668-1.358-2.676c-0.091,1.281-0.216,2.564-0.373,3.844c-0.159,1.281-0.329,2.541-0.51,3.777
				c-0.452,3.16-0.86,6.377-1.222,9.648c-0.362,3.275-0.544,6.492-0.544,9.652v1.99c0,0.779,0.012,1.375,0.034,1.787
				s0.091,0.732,0.204,0.959c0.113,0.232,0.283,0.412,0.509,0.549c0.227,0.139,0.566,0.301,1.019,0.48h-0.068
				c0.362,0.137,0.758,0.301,1.188,0.48c0.43,0.184,0.939,0.414,1.528,0.688c0.362,0.139,0.51,0.355,0.441,0.654
				s-0.328,0.445-0.78,0.445c-2.31,0-4.63,0.023-6.961,0.068s-4.648,0-6.957-0.137c-0.362-0.043-0.577-0.195-0.646-0.447
				c-0.068-0.248,0.012-0.469,0.238-0.652c0,0.047,0.237,0.025,0.713-0.068c0.476-0.092,0.825-0.16,1.053-0.207
				c0.497-0.092,0.938-0.193,1.323-0.309c0.382-0.111,0.714-0.467,0.984-1.064c0.136-0.318,0.329-1.199,0.578-2.643
				c0.245-1.441,0.509-3.262,0.78-5.461c0.271-2.197,0.563-4.66,0.883-7.381c0.313-2.725,0.62-5.506,0.914-8.346
				s0.589-5.641,0.883-8.412c0.294-2.77,0.555-5.322,0.781-7.658c0.227-2.061,0.418-3.855,0.576-5.389
				c0.159-1.535,0.283-2.646,0.374-3.334c0.046-0.273,0.203-0.457,0.476-0.549c0.271-0.09,0.543-0.021,0.814,0.207
				c0.453,0.412,1.041,1.225,1.766,2.438c0.724,1.215,1.539,2.668,2.444,4.359c0.905,1.695,1.879,3.596,2.92,5.701
				c1.038,2.107,2.105,4.283,3.188,6.527c1.086,2.24,2.173,4.484,3.26,6.729c1.086,2.242,2.104,4.373,3.055,6.387
				c1.133,2.381,2.016,4.268,2.648,5.666c0.634,1.395,1.197,2.551,1.698,3.469c1.174-2.428,2.308-4.811,3.392-7.145
				c1.087-2.332,2.174-4.715,3.259-7.143c0.906-2.061,1.834-4.096,2.784-6.111c0.951-2.014,1.902-4.074,2.853-6.18l1.357-3.023
				c0.905-1.924,1.834-3.869,2.784-5.84c0.948-1.965,2.035-3.889,3.257-5.766c0.227-0.229,0.51-0.32,0.849-0.275
				c0.34,0.047,0.532,0.23,0.578,0.549c0.361,3.023,0.713,6.057,1.053,9.1c0.339,3.045,0.667,6.078,0.983,9.102
				c0.045,0.504,0.102,1.18,0.17,2.023c0.068,0.85,0.147,1.777,0.238,2.781c0.09,1.33,0.203,2.783,0.34,4.363
				c0.135,1.58,0.293,3.182,0.475,4.809c0.182,1.625,0.362,3.225,0.543,4.805s0.385,3.045,0.611,4.396
				c0.226,1.352,0.464,2.529,0.713,3.537s0.509,1.74,0.781,2.199c0.543,0.916,1.143,1.5,1.799,1.748
				c0.653,0.256,1.344,0.445,2.071,0.584c0.407,0.094,0.847,0.197,1.321,0.309c0.475,0.115,0.962,0.287,1.46,0.516L271.806,110.211z
				"/>
			<path fill="#553E31" d="M312.878,107.326c-1.585,0-3.01-0.25-4.275-0.754c-1.267-0.502-2.422-1.168-3.463-1.992
				c-1.04-0.824-2.014-1.764-2.919-2.816s-1.788-2.129-2.648-3.229c-0.77-1.006-1.54-1.969-2.307-2.885
				c-0.772-0.916-1.587-1.736-2.444-2.473c-0.77-0.686-1.754-1.107-2.953-1.268c-1.2-0.16-2.298-0.24-3.294-0.24
				c-0.361,0-0.6-0.012-0.713-0.035s-0.35-0.012-0.713,0.035v9.064c0,0.182,0.034,0.469,0.103,0.857
				c0.067,0.391,0.146,0.803,0.237,1.236c0.091,0.436,0.192,0.826,0.306,1.17c0.113,0.342,0.215,0.537,0.306,0.582
				c0.136,0.092,0.34,0.139,0.61,0.139c0.317,0,0.59,0.021,0.815,0.068c0.407,0.045,0.826,0.102,1.256,0.172
				c0.43,0.068,0.826,0.24,1.188,0.516c0.362,0.182,0.476,0.412,0.34,0.686c-0.137,0.275-0.407,0.412-0.815,0.412
				c-2.308,0-4.606-0.012-6.892-0.033c-2.286-0.023-4.581-0.104-6.89-0.242c-0.407-0.045-0.622-0.238-0.645-0.582
				s0.169-0.563,0.577-0.654c0.724-0.09,1.301-0.193,1.731-0.309c0.43-0.115,0.755-0.309,0.984-0.582
				c0.227-0.275,0.373-0.676,0.441-1.203c0.067-0.527,0.102-1.225,0.102-2.096V72.988c0-1.1-0.238-1.764-0.713-1.992
				s-0.962-0.365-1.46-0.412c-0.498-0.045-0.928-0.115-1.29-0.205c-0.361-0.092-0.656-0.322-0.883-0.688
				c-0.182-0.229-0.204-0.436-0.068-0.619c0.137-0.182,0.386-0.273,0.747-0.273h1.019c0.499,0,1.019,0,1.562,0
				c0.544,0,1.087,0.021,1.631,0.068c0.721,0.045,1.4,0.068,2.036,0.068c0.632,0,1.311,0,2.035,0h1.425
				c0.453,0,0.895-0.012,1.325-0.035c0.43-0.021,0.894-0.033,1.392-0.033c1.675,0,3.429,0.092,5.263,0.275
				c1.833,0.182,3.494,0.596,4.987,1.236c1.495,0.641,2.728,1.578,3.701,2.816c0.974,1.236,1.459,2.906,1.459,5.01
				c0,1.057-0.191,2.107-0.576,3.16c-0.385,1.055-0.883,2.061-1.494,3.023c-0.611,0.961-1.29,1.865-2.037,2.713
				s-1.505,1.615-2.274,2.301c0.679,0.688,1.347,1.408,2.003,2.164c0.657,0.754,1.324,1.543,2.003,2.367
				c1.087,1.33,2.241,2.678,3.463,4.053c1.223,1.373,2.487,2.609,3.803,3.709c1.31,1.1,2.646,1.98,4.004,2.645
				s2.716,0.904,4.073,0.721l0.408,1.168C316.726,106.963,314.87,107.326,312.878,107.326z M298.111,77.076
				c-0.384-1.168-0.946-2.188-1.694-3.059c-0.747-0.869-1.641-1.566-2.683-2.094c-1.04-0.527-2.194-0.789-3.463-0.789
				c-1.085,0-2.127,0.137-3.123,0.412v16.551c0.77,0.092,1.573,0.16,2.41,0.207c0.838,0.045,1.642,0.068,2.411,0.068
				c2.218,0,3.894-0.688,5.025-2.061c1.128-1.375,1.694-3.229,1.694-5.564C298.689,79.469,298.497,78.24,298.111,77.076z"/>
			<path fill="#553E31" d="M329.817,103.895c-0.25,0.41-0.568,0.777-0.951,1.098c-0.385,0.32-0.814,0.574-1.29,0.756
				c-0.476,0.184-0.938,0.275-1.392,0.275c-1.042,0-1.846-0.447-2.411-1.34s-0.849-1.775-0.849-2.645
				c0-0.916,0.306-1.717,0.917-2.404c0.61-0.688,1.46-1.031,2.546-1.031c1.042,0,1.936,0.424,2.683,1.271s1.12,1.729,1.12,2.645
				C330.19,103.023,330.063,103.482,329.817,103.895z"/>
			<path fill="#553E31" d="M403.531,111.379c-2.128,0-4.267-0.584-6.417-1.752s-4.275-2.664-6.38-4.496
				c-2.105-1.832-4.176-3.859-6.213-6.08c-2.038-2.221-3.983-4.385-5.837-6.49c-1.178-1.326-2.264-2.574-3.26-3.74
				c-0.995-1.17-1.969-2.211-2.92-3.127v16.619c0,1.375,0.046,2.439,0.137,3.195c0.09,0.756,0.226,1.316,0.406,1.68
				c0.182,0.369,0.42,0.6,0.713,0.688c0.295,0.096,0.623,0.162,0.985,0.205c0.498,0.096,1.019,0.172,1.562,0.24
				c0.543,0.07,1.132,0.287,1.765,0.654c0.363,0.137,0.477,0.355,0.341,0.652c-0.137,0.299-0.385,0.445-0.747,0.445
				c-2.717,0-5.433,0.061-8.148,0.172c-2.714,0.115-5.429,0.127-8.146,0.035c-0.453,0-0.691-0.182-0.713-0.549
				c-0.023-0.367,0.191-0.594,0.646-0.688c0.95-0.18,1.697-0.387,2.24-0.619c0.544-0.227,0.95-0.557,1.223-0.996
				c0.271-0.432,0.44-1.004,0.509-1.713c0.067-0.711,0.102-1.615,0.102-2.715V64.814c0-0.775-0.082-1.383-0.237-1.818
				c-0.161-0.436-0.373-0.766-0.646-0.994c-0.271-0.23-0.576-0.379-0.916-0.447s-0.668-0.127-0.985-0.172
				c-0.543-0.092-1.03-0.195-1.459-0.309c-0.431-0.115-0.781-0.402-1.053-0.859c-0.182-0.229-0.204-0.424-0.068-0.584
				s0.385-0.24,0.747-0.24c2.625,0,5.248-0.035,7.874-0.104c2.625-0.068,5.251-0.012,7.876,0.172
				c0.453,0.047,0.679,0.252,0.679,0.619c0,0.365-0.226,0.572-0.679,0.617c-1.086,0.092-2.014,0.572-2.784,1.443
				c-0.769,0.869-1.153,1.852-1.153,2.951c-0.045,2.473-0.045,5.082,0,7.83c0.045,2.746,0.091,5.449,0.136,8.104
				c0.77-0.916,1.675-1.924,2.716-3.023c1.041-1.096,1.924-2.012,2.647-2.744c0.228-0.229,0.511-0.527,0.851-0.895
				c0.339-0.365,0.664-0.686,0.983-0.961c0.857-0.824,1.831-1.729,2.917-2.713c1.087-0.984,2.095-1.992,3.022-3.021
				c0.927-1.031,1.709-2.035,2.342-3.023c0.634-0.982,0.951-1.863,0.951-2.641c0-0.643-0.136-1.215-0.408-1.719
				c-0.136-0.229-0.136-0.434,0-0.617c0.137-0.184,0.386-0.252,0.747-0.207c1.132,0.092,2.253,0.127,3.361,0.104
				c1.106-0.023,2.25-0.035,3.427-0.035c1.041,0,2.06-0.045,3.056-0.137s2.015-0.092,3.055,0c0.45,0.045,0.68,0.252,0.68,0.619
				c0,0.365-0.229,0.57-0.68,0.617c-1.448,0.184-2.953,0.744-4.515,1.684c-1.562,0.938-3.136,2.105-4.717,3.5
				c-1.584,1.396-3.157,2.93-4.719,4.602c-1.563,1.672-3.067,3.311-4.516,4.912c-1.087,1.236-2.15,2.414-3.189,3.535
				c-1.043,1.123-2.014,2.121-2.919,2.986c0.814,0.779,1.706,1.74,2.683,2.887c0.971,1.145,2.021,2.313,3.154,3.502
				c1.901,2.107,3.972,4.352,6.213,6.729c2.24,2.383,4.49,4.58,6.753,6.596c2.265,2.016,4.482,3.686,6.654,5.014
				c2.174,1.328,4.117,1.967,5.838,1.92l0.406,1.17C407.647,110.807,405.656,111.379,403.531,111.379z"/>
			<path fill="#553E31" d="M444.978,70.996c-0.702,0.367-1.053,1.008-1.053,1.924v19.025c0,2.332-0.431,4.449-1.291,6.35
				c-0.859,1.9-2.024,3.527-3.496,4.877c-1.472,1.352-3.2,2.395-5.192,3.125c-1.991,0.734-4.097,1.098-6.315,1.098
				c-1.81,0-3.723-0.24-5.734-0.719c-2.015-0.48-3.87-1.213-5.568-2.199c-1.697-0.982-3.101-2.23-4.21-3.742
				c-1.108-1.512-1.663-3.297-1.663-5.359v0.07c0-0.412-0.034-0.799-0.103-1.168c-0.067-0.363-0.102-0.688-0.102-0.963V72.988
				c0-1.145-0.282-1.832-0.849-2.061c-0.565-0.229-1.117-0.367-1.661-0.412c-0.543-0.092-1.009-0.16-1.392-0.207
				c-0.385-0.045-0.622-0.32-0.712-0.822c-0.091-0.459,0.178-0.688,0.814-0.688h2.104c3.709,0,7.444,0.137,11.202,0.412
				c0.406,0.045,0.61,0.252,0.61,0.619c0,0.318-0.204,0.502-0.61,0.549c-0.906,0.09-1.677,0.285-2.31,0.584
				c-0.634,0.297-0.951,0.949-0.951,1.957v10.781c0,1.832-0.011,3.652-0.034,5.461c-0.022,1.809-0.033,3.604-0.033,5.391
				c0,1.602,0.317,3.01,0.95,4.223c0.635,1.215,1.472,2.232,2.513,3.059c1.041,0.822,2.227,1.441,3.564,1.854
				c1.333,0.412,2.725,0.617,4.173,0.617c1.449,0,2.864-0.217,4.245-0.65c1.381-0.436,2.603-1.078,3.666-1.924
				c1.062-0.848,1.91-1.889,2.544-3.127c0.634-1.236,0.95-2.678,0.95-4.326c0-1.736,0-3.5,0-5.287c0-1.785-0.022-3.572-0.067-5.357
				c-0.045-1.74-0.067-3.504-0.067-5.289c0-1.783,0-3.568,0-5.355c0-0.549-0.079-0.984-0.238-1.305
				c-0.158-0.32-0.351-0.561-0.577-0.721s-0.486-0.264-0.778-0.311c-0.297-0.045-0.577-0.092-0.849-0.137
				c-0.501-0.047-0.962-0.104-1.392-0.172c-0.434-0.068-0.69-0.355-0.781-0.857c-0.093-0.459,0.179-0.688,0.815-0.688
				c2.037,0,4.048,0.021,6.04,0.068c1.992,0.045,3.983,0.137,5.976,0.275l0.067,1.166C446.414,70.4,445.679,70.631,444.978,70.996z"
				/>
			<path fill="#553E31" d="M478.501,82.637c-0.679,1.488-1.584,2.781-2.713,3.881c-1.132,1.1-2.456,1.969-3.972,2.609
				c-1.518,0.643-3.091,0.963-4.72,0.963c-0.589,0-1.155-0.045-1.698-0.137s-1.063-0.184-1.562-0.275
				c-0.453-0.092-0.656-0.311-0.61-0.652c0.044-0.344,0.293-0.516,0.747-0.516h1.289c1.223,0,2.365-0.184,3.429-0.549
				c1.064-0.367,1.992-0.895,2.785-1.58c0.792-0.688,1.414-1.535,1.867-2.543c0.449-1.006,0.679-2.174,0.679-3.502
				c0-1.236-0.204-2.404-0.611-3.5c-0.407-1.1-0.973-2.061-1.697-2.887c-0.724-0.822-1.596-1.488-2.614-1.992
				c-1.019-0.502-2.14-0.754-3.361-0.754c-0.634,0-1.233,0.057-1.799,0.172c-0.566,0.113-1.121,0.264-1.661,0.445v28.844
				c0,0.139,0.034,0.402,0.103,0.791c0.066,0.389,0.154,0.791,0.268,1.201c0.113,0.414,0.216,0.803,0.306,1.17
				c0.091,0.365,0.182,0.594,0.272,0.686c0.226,0.092,0.521,0.148,0.883,0.172c0.361,0.023,0.656,0.057,0.882,0.104
				c0.544,0.092,1.029,0.172,1.46,0.24c0.43,0.068,0.735,0.285,0.917,0.652c0.136,0.229,0.136,0.436,0,0.617
				c-0.136,0.184-0.362,0.275-0.679,0.275c-2.31,0-4.606-0.023-6.891-0.068c-2.285-0.047-4.582-0.115-6.892-0.207
				c-0.452,0-0.69-0.182-0.713-0.549c-0.022-0.365,0.192-0.596,0.645-0.688c0.726-0.137,1.302-0.262,1.732-0.377
				c0.43-0.115,0.759-0.32,0.984-0.617c0.227-0.299,0.374-0.699,0.441-1.203c0.068-0.504,0.103-1.189,0.103-2.061v-28.09
				c0-0.961-0.238-1.545-0.713-1.75c-0.477-0.207-0.962-0.332-1.461-0.379c-0.452-0.045-0.883-0.115-1.289-0.205
				c-0.408-0.092-0.725-0.322-0.951-0.688c-0.182-0.229-0.204-0.436-0.068-0.619c0.137-0.182,0.385-0.273,0.747-0.273h1.154h4.347
				c0.497,0,0.962,0.012,1.391,0.033c0.431,0.023,0.892,0.035,1.394,0.035h2.102c0.453,0,0.883-0.012,1.29-0.035
				c0.407-0.021,0.86-0.033,1.357-0.033c1.675,0,3.35,0.092,5.024,0.273c1.676,0.184,3.192,0.596,4.55,1.236
				c1.358,0.643,2.453,1.557,3.291,2.748c0.837,1.191,1.256,2.816,1.256,4.875C479.52,79.58,479.18,81.152,478.501,82.637z"/>
			<path fill="#553E31" d="M501.607,106.572c-0.814-0.045-1.618-0.045-2.41,0c-0.792,0.047-1.618,0.047-2.479,0l-2.58-0.068
				c-0.362,0-0.814,0.023-1.357,0.068c-0.544,0.047-1.121,0.092-1.729,0.135c-0.612,0.049-1.203,0.061-1.766,0.035
				c-0.569-0.021-1.011-0.102-1.325-0.238c-0.406-0.137-0.52-0.424-0.34-0.857c0.179-0.436,0.477-0.607,0.883-0.516
				c0.227,0.092,0.417,0.102,0.578,0.033c0.158-0.068,0.279-0.104,0.373-0.104c0.359,0,0.665-0.148,0.917-0.445
				c0.246-0.299,0.441-0.676,0.577-1.133c0.135-0.459,0.237-0.918,0.303-1.375c0.067-0.457,0.102-0.869,0.102-1.236V72.92
				c0-0.916-0.37-1.568-1.118-1.957c-0.746-0.391-1.527-0.631-2.342-0.723c-0.452-0.045-0.668-0.24-0.646-0.582
				c0.023-0.344,0.261-0.539,0.713-0.586c1.087-0.09,2.174-0.09,3.257,0c1.086,0.092,2.15,0.139,3.191,0.139
				c1.042,0,2.06-0.047,3.056-0.139c0.996-0.09,2.015-0.09,3.056,0c0.407,0.047,0.622,0.23,0.646,0.551
				c0.022,0.32-0.17,0.525-0.577,0.617c-0.905,0.139-1.675,0.344-2.31,0.619c-0.634,0.275-0.95,0.961-0.95,2.061v27.744
				c0,0.184,0.033,0.459,0.102,0.826c0.068,0.365,0.147,0.756,0.238,1.166c0.09,0.414,0.203,0.803,0.34,1.17
				c0.135,0.365,0.248,0.617,0.339,0.754c0.136,0.047,0.34,0.092,0.61,0.139c0.272,0.045,0.521,0.068,0.748,0.068
				c0.497,0,0.938,0.033,1.323,0.102c0.386,0.07,0.759,0.264,1.121,0.586L501.607,106.572z"/>
			<path fill="#553E31" d="M548.428,96.475c-1.313,2.52-3.079,4.557-5.294,6.113c-2.219,1.559-4.799,2.68-7.741,3.367
				c-2.942,0.686-6.019,1.027-9.232,1.027c-1.313,0-2.637-0.035-3.972-0.104c-1.336-0.068-2.66-0.146-3.97-0.238
				c-1.451-0.092-2.965-0.184-4.549-0.273c-1.586-0.092-3.079-0.115-4.482-0.07c-0.453,0-0.702-0.182-0.746-0.549
				c-0.046-0.365,0.157-0.596,0.61-0.688c1.357-0.229,2.229-0.641,2.614-1.234c0.385-0.596,0.577-1.672,0.577-3.23V72.713
				c0-0.914-0.271-1.488-0.815-1.717c-0.542-0.229-1.086-0.389-1.629-0.48c-0.408-0.092-0.804-0.195-1.188-0.309
				c-0.385-0.115-0.646-0.309-0.781-0.584c-0.091-0.229-0.067-0.424,0.068-0.584s0.362-0.24,0.679-0.24
				c0.635,0,1.257,0.012,1.867,0.033c0.612,0.023,1.234,0.059,1.867,0.104c0.815,0.047,1.675,0.092,2.581,0.137
				c0.905,0.047,1.739,0.07,2.512,0.07c1.944,0,3.914-0.07,5.904-0.207c0.951-0.045,1.981-0.092,3.091-0.137
				c1.109-0.047,2.138-0.068,3.089-0.068c1.808,0,3.868,0.377,6.177,1.133s4.504,1.785,6.587,3.092
				c2.079,1.305,3.878,2.85,5.395,4.635c1.518,1.785,2.389,3.686,2.614,5.699c0.091,0.641,0.136,1.305,0.136,1.992
				c0,0.641,0,1.283,0,1.924C550.396,90.867,549.739,93.959,548.428,96.475z M542.556,81.4c-1.108-2.219-2.592-4.049-4.447-5.492
				s-4.006-2.529-6.447-3.264c-2.444-0.732-5.002-1.098-7.673-1.098c-0.906,0-1.812,0.045-2.717,0.137s-1.811,0.273-2.716,0.549
				v26.51c0,1.283,0.17,2.289,0.509,3.021c0.34,0.732,0.837,1.283,1.494,1.648c0.656,0.367,1.438,0.596,2.343,0.688
				s1.924,0.137,3.055,0.137c2.4,0,4.709-0.273,6.924-0.824c2.219-0.549,4.165-1.43,5.84-2.645c1.675-1.213,3.01-2.77,4.006-4.67
				c0.993-1.898,1.494-4.223,1.494-6.971C544.22,86.197,543.665,83.621,542.556,81.4z"/>
			<path fill="#553E31" d="M597.863,96.715c-1.336,2.313-3.079,4.248-5.229,5.805c-2.151,1.559-4.572,2.725-7.267,3.504
				c-2.693,0.777-5.396,1.164-8.111,1.164s-5.375-0.512-7.975-1.541c-2.606-1.031-4.901-2.439-6.893-4.225
				c-1.992-1.787-3.599-3.904-4.821-6.355c-1.223-2.445-1.831-5.092-1.831-7.932c0-3.113,0.665-5.881,2.001-8.311
				c1.335-2.424,3.077-4.473,5.229-6.145c2.149-1.672,4.592-2.941,7.33-3.813c2.738-0.869,5.534-1.305,8.387-1.305
				c2.807,0,5.485,0.572,8.044,1.717c2.558,1.145,4.809,2.678,6.756,4.602c1.943,1.924,3.497,4.168,4.65,6.73
				c1.152,2.564,1.729,5.266,1.729,8.105C599.862,91.738,599.195,94.406,597.863,96.715z M592.635,81.744
				c-0.792-2.174-1.901-4.086-3.327-5.734c-1.427-1.648-3.146-2.953-5.158-3.914c-2.015-0.961-4.244-1.443-6.688-1.443
				c-2.264,0-4.357,0.367-6.281,1.1s-3.573,1.775-4.954,3.125c-1.38,1.352-2.455,2.977-3.225,4.875
				c-0.77,1.9-1.155,4.041-1.155,6.422c0,2.428,0.408,4.74,1.223,6.936c0.815,2.197,1.958,4.133,3.43,5.805
				c1.468,1.67,3.225,3,5.259,3.984c2.037,0.984,4.301,1.477,6.791,1.477c2.308,0,4.399-0.377,6.278-1.135
				c1.878-0.756,3.485-1.83,4.82-3.227c1.336-1.398,2.365-3.07,3.09-5.016c0.725-1.943,1.086-4.084,1.086-6.42
				C593.822,86.197,593.427,83.918,592.635,81.744z"/>
		</g>
		<rect x="205.462" y="118.385" fill-rule="evenodd" clip-rule="evenodd" fill="#553E31" width="394.537" height="2.93"/>
		<rect x="205.462" y="48.08" fill-rule="evenodd" clip-rule="evenodd" fill="#553E31" width="394.537" height="2.93"/>
	</g>
</g>
</svg>
