<?xml version="1.0" encoding="utf-8"?>
<!-- Generator: Adobe Illustrator 16.0.0, SVG Export Plug-In . SVG Version: 6.00 Build 0)  -->
<!DOCTYPE svg PUBLIC "-//W3C//DTD SVG 1.1//EN" "http://www.w3.org/Graphics/SVG/1.1/DTD/svg11.dtd">
<svg version="1.1" id="Layer_1" xmlns="http://www.w3.org/2000/svg" xmlns:xlink="http://www.w3.org/1999/xlink" x="0px" y="0px"
	 width="91px" height="31px" viewBox="0 0 91 31" enable-background="new 0 0 91 31" xml:space="preserve">
<polyline fill="none" stroke="#CDB8AB" stroke-width="2" stroke-miterlimit="10" points="1,0 1,30 91,30 "/>
<rect x="1" fill="#EBDFD5" width="90" height="30"/>
<g>
	<path fill-rule="evenodd" clip-rule="evenodd" fill="#563F32" d="M31.178,27.5c0.145-1.289,1.697-1.768,3.109-2.271
		c0.584-0.21,2.291-0.418,2.875-0.631c0.42-0.152,0.768-0.409,1.129-0.662c0.291-0.204,0.736-0.599,1.115-0.599
		c-0.016,0,0.504-3.365-0.182-3.501c-0.227-0.046-1.5,0-1.863-0.819c-0.363-0.818-1.137-2.819-0.773-4.183
		c0.363-1.364,1.045-0.773,1.5-0.227c-0.182-1.591-0.363-2.591-0.363-4.365c0-1.713,0.506-3.639,1.668-4.937
		c1.5-1.676,3.822-2.836,6.094-2.804c1.83,0.026,3.564,0.682,5.016,1.784c0.4,0.303,0.77,0.646,1.104,1.02
		c1.162,1.298,1.668,3.224,1.668,4.937c0,1.773-0.182,2.773-0.363,4.365c0.455-0.546,1.137-1.137,1.5,0.227
		c0.365,1.364-0.408,3.365-0.771,4.183c-0.365,0.819-1.639,0.773-1.865,0.819c-0.684,0.136-0.166,3.5-0.182,3.5
		c0.379,0,0.824,0.394,1.115,0.599c0.363,0.253,0.711,0.51,1.129,0.662c0.584,0.213,2.162,0.421,2.748,0.631
		c1.41,0.504,2.318,0.854,3.238,2.271H31.178z"/>
</g>
</svg>
