<?xml version="1.0" encoding="utf-8"?>
<!-- Generator: Adobe Illustrator 16.0.0, SVG Export Plug-In . SVG Version: 6.00 Build 0)  -->
<!DOCTYPE svg PUBLIC "-//W3C//DTD SVG 1.1//EN" "http://www.w3.org/Graphics/SVG/1.1/DTD/svg11.dtd">
<svg version="1.1" xmlns="http://www.w3.org/2000/svg" xmlns:xlink="http://www.w3.org/1999/xlink" x="0px" y="0px" width="32px"
	 height="32px" viewBox="0 0 32 32" enable-background="new 0 0 32 32" xml:space="preserve">
<g id="Layer_1">
	<g>
		<path fill-rule="evenodd" clip-rule="evenodd" fill="#553E31" d="M27.363,3.442c-0.104,1.118-1.129,1.651-1.704,2.354
			c-0.347,0.422-0.546,0.889-0.933,1.339c-1.47,0.248-2.917,0.613-4.099,1.257c-1.294,0.709-2.439,2.333-1.299,3.979
			c0.585-0.301,1.149-0.736,1.786-1.137c1.153-0.729,2.416-1.391,3.813-1.948c0.692-0.276,1.549-0.541,2.272-0.607
			c0.365-0.034,0.613,0.082,0.933,0.122c0.207,0.024,0.448-0.037,0.608,0C29.18,8.895,29.599,9.295,30,9.528
			c-0.359,0.487-1.178,0.438-1.866,0.448c-1.926,0.023-3.544,0.756-4.868,1.541c-0.22,0.129-0.465,0.304-0.69,0.486
			c-0.403,0.329-1.084,0.842-0.689,1.379c0.591-0.184,1.185-1.004,2.149-0.973c0.555,0.017,1.211,0.407,1.624,0.771
			c0.287,0.253,0.462,0.762,0.771,1.096c0.175,0.188,0.436,0.264,0.528,0.404c0.446,0.694-0.052,1.909,0.364,2.557
			c0.111,0.174,0.314,0.172,0.486,0.326c0.125,0.495,0.063,1.889-0.526,1.784c-0.353-0.062-0.241-0.792-0.61-0.853
			c-0.471-0.076-0.887,0.612-0.891,0.934c-0.012,0.712,0.657,0.795,1.258,1.015c0.077,0.099,0.025,0.325,0.041,0.486
			c-0.629,0.241-1.674,0.271-2.436,0.245c-0.162-0.954-0.776-1.48-1.501-1.989c-0.358-0.252-0.597-0.377-1.177-0.405
			c-0.137-0.675-0.71-1.964-1.461-1.136c0.129,1.191,0.566,2.046,1.217,2.678c0.549,0.531,1.229,0.894,2.07,1.136
			c0.293,0.085,0.701,0.083,0.974,0.243c0.483,0.284,0.468,1.139,0.771,1.785c0.47,1.001,1.558,1.241,2.394,1.826
			c-0.044,0.225-0.178,0.362-0.325,0.486c-0.743,0.057-1.323-0.344-1.865-0.608c-0.2-0.097-0.463-0.097-0.609-0.202
			c-0.129-0.095-0.318-0.45-0.445-0.65c-0.353-0.55-0.627-0.967-1.137-1.379c-0.268-0.216-0.589-0.321-0.893-0.526
			c-0.379-0.259-0.785-0.636-1.299-0.894c-0.523-0.264-1.071-0.501-1.338-0.853c-0.145-0.19-0.211-0.464-0.365-0.688
			c-0.4-0.587-0.759-1.354-1.339-1.827c0.077,0.788,0.206,1.773,0.324,2.759c0.034,0.286,0.182,0.575,0.243,0.893
			c0.041,0.212,0.006,0.446,0.041,0.65c0.152,0.873,0.596,1.712,1.298,1.946c0.157,0.372,0.495,0.53,0.731,0.813
			c0.1,0.119,0.137,0.315,0.242,0.445c0.485,0.601,1.355,0.99,1.989,1.461c0.456,0.34,0.979,0.896,0.972,1.583
			c-0.519,0.001-0.745-0.495-1.095-0.73c-0.14-0.095-0.346-0.109-0.486-0.203c-0.367-0.245-0.663-0.639-1.056-0.934
			c-0.521-0.391-0.987-0.835-1.703-1.055c-0.228-0.676-1.938-0.714-2.11-1.501c-0.077-0.357,0.165-0.73,0.162-1.096
			c-0.002-0.446-0.202-1.053-0.324-1.542c-0.348-1.392-1.322-2.501-2.069-3.529c-0.645,0.571-1.625,0.779-2.149,1.46
			c-0.252,0.326-0.267,0.726-0.569,1.055c-2.412,0.512-4.543,1.421-5.842,3.085c-0.402,0.514-0.6,1.148-0.974,1.663
			c-0.365,0.5-0.681,1.102-1.096,1.501c-0.319,0.308-1.033,0.759-1.298,0.162c0.185-0.369,0.314-0.766,0.566-1.055
			c0.295-0.336,0.71-0.572,0.975-0.933c0.13-0.177,0.174-0.439,0.324-0.609c0.122-0.139,0.359-0.182,0.488-0.324
			c0.187-0.212,0.35-0.685,0.404-1.015c0.034-0.196-0.036-0.429,0.041-0.648c0.217-0.614,1.328-0.956,2.029-1.258
			c0.245-0.107,0.471-0.295,0.688-0.366c0.192-0.062,0.462-0.069,0.61-0.122c0.727-0.252,1.18-0.738,1.783-1.096
			c0.393-0.503,0.81-1.019,1.178-1.581c0.351-0.537,0.696-1.168,0.771-1.866c-0.524,0.172-0.886,0.634-1.299,0.973
			c-1.164,0.954-2.443,2.144-4.017,2.761c-1.026,0.4-2.762,0.738-3.978,0.202c-0.195-0.087-0.831-0.613-1.014-0.812
			c-0.603-0.652-1.047-1.914-1.095-2.921c-0.028-0.575,0.086-1.022,0.202-1.706c0.075-0.444,0.197-1.166,0.446-1.42
			c0.109-0.111,0.446-0.206,0.69-0.364c0.304-0.197,0.548-0.499,0.77-0.608c0.29-0.144,0.727-0.2,1.137-0.365
			c0.322-0.129,0.641-0.359,0.975-0.486c0.523-0.202,1.246-0.315,1.743-0.366c1.658-0.164,2.999,0.313,3.855,1.218
			c0.312,0.328,0.369,0.819,0.812,1.054c0.309-0.556-0.014-1.369-0.284-1.865c-1.461-2.68-4.321-4.469-7.183-5.884
			c-0.32-0.158-0.741-0.351-1.217-0.526c-0.507-0.189-1.554-0.22-1.217-0.934C3.777,4.12,4.494,4.74,5.412,5.026
			C6.5,5.362,7.666,5.355,8.658,5.958c0.758,0.46,1.403,1.202,2.07,1.867c0.652,0.652,1.169,1.188,2.189,1.339
			c0.478,0.792,0.776,1.905,1.299,2.88c0.163,0.304,0.391,0.809,0.649,0.934c0.32,0.154,0.795,0.099,1.177,0.203
			c0.228,0.063,0.355,0.229,0.607,0.202c0.695-1.93,1.016-4.231,1.787-6.086c1.821-0.166,2.899-0.852,4.624-1.013
			c0.255-0.025,0.565,0.053,0.853,0c0.25-0.048,0.637-0.306,0.853-0.529c0.754-0.775,1.294-1.943,1.987-2.394
			C26.903,3.265,27.216,3.213,27.363,3.442z M23.347,16.265c-0.185-0.037-0.599,0.079-0.731,0.162
			c-0.18,0.112-0.367,0.491-0.324,0.729c0.076,0.417,1.09,1.079,1.582,1.055C24.3,17.557,23.882,16.369,23.347,16.265z"/>
	</g>
</g>
<g id="Layer_3">
</g>
</svg>
