<?xml version="1.0" encoding="utf-8"?>
<!-- Generator: Adobe Illustrator 16.0.0, SVG Export Plug-In . SVG Version: 6.00 Build 0)  -->
<!DOCTYPE svg PUBLIC "-//W3C//DTD SVG 1.1//EN" "http://www.w3.org/Graphics/SVG/1.1/DTD/svg11.dtd">
<svg version="1.1" id="Layer_1" xmlns="http://www.w3.org/2000/svg" xmlns:xlink="http://www.w3.org/1999/xlink" x="0px" y="0px"
	 width="240px" height="120px" viewBox="0 0 240 120" enable-background="new 0 0 240 120" xml:space="preserve">
<rect fill="#FFFCF5" width="240" height="120"/>
<g>
	<defs>
		<path id="SVGID_7_" d="M119.998,117.5C88.292,117.5,62.5,91.706,62.5,60c0-31.71,25.792-57.5,57.498-57.5
			C151.706,2.5,177.5,28.29,177.5,60C177.5,91.706,151.706,117.5,119.998,117.5z"/>
	</defs>
	<clipPath id="SVGID_1_">
		<use xlink:href="#SVGID_7_"  overflow="visible"/>
	</clipPath>
	<polygon clip-path="url(#SVGID_1_)" fill="#EBE0D5" stroke="#553E31" stroke-width="2.1829" stroke-miterlimit="10" points="
		205.34,121.653 190.965,-5.347 62.399,2.433 43.991,128.425 	"/>
	<g clip-path="url(#SVGID_1_)">
		<g>
			<path fill="#CDB8AB" d="M162.129,88.859c-0.087,0-0.174-0.018-0.255-0.054c-2.084-0.927-3.498-2.538-3.602-4.104
				c-0.089-1.157-0.216-4.732-0.242-6.452c-0.02-1.667-0.267-8.001-0.306-8.643c-0.038-0.547-0.038-0.547-0.264-1.087
				c-0.274-0.661-0.558-1.522-1.051-3.584c-0.502-2.133-0.684-3.159-0.916-5.848c-0.253-2.918-0.15-4.674,0.421-7.226
				c0.595-2.706,2.105-3.371,2.275-3.438c0.076-0.029,0.697-0.257,1.374-0.257c1.077,0,1.755,0.623,1.77,1.625
				c0.013,2.079,0.351,5.023,0.677,7.871c0.113,0.991,0.227,1.977,0.326,2.923c0.405,3.849,0.531,6.625,0.398,8.738
				c-0.108,1.808,1.551,9.766,2.259,13.165c0.18,0.861,0.306,1.467,0.341,1.671c0.207,1.188-0.155,2.329-1.021,3.212
				c-0.737,0.739-1.824,1.376-1.87,1.403C162.348,88.83,162.238,88.859,162.129,88.859z"/>
			<path fill="#553E31" d="M159.564,48.792c0.57,0,1.131,0.207,1.143,1.007c0.017,2.827,0.616,7.14,1.006,10.851
				c0.339,3.219,0.545,6.279,0.396,8.633c-0.141,2.349,2.428,13.945,2.607,14.982c0.182,1.042-0.165,1.966-0.851,2.667
				c-0.684,0.686-1.737,1.3-1.737,1.3c-2.086-0.927-3.154-2.418-3.23-3.572c-0.089-1.161-0.216-4.774-0.241-6.42
				c-0.02-1.651-0.266-8.005-0.307-8.671c-0.045-0.655-0.045-0.655-0.311-1.291c-0.26-0.626-0.537-1.472-1.02-3.488
				c-0.5-2.122-0.672-3.102-0.901-5.756c-0.256-2.956-0.122-4.667,0.408-7.035c0.474-2.155,1.563-2.862,1.893-2.992
				C158.58,48.945,159.076,48.792,159.564,48.792 M159.564,47.538c-0.772,0-1.459,0.246-1.589,0.295
				c-0.345,0.135-2.022,0.932-2.674,3.896c-0.579,2.586-0.688,4.458-0.433,7.412c0.236,2.728,0.42,3.77,0.931,5.936
				c0.504,2.106,0.797,2.994,1.082,3.682c0.187,0.447,0.187,0.447,0.218,0.896c0.038,0.63,0.283,6.942,0.304,8.6
				c0.026,1.732,0.154,5.328,0.244,6.501c0.118,1.783,1.677,3.603,3.972,4.623c0.163,0.072,0.337,0.108,0.51,0.108
				c0.219,0,0.438-0.057,0.632-0.171c0.122-0.071,1.217-0.719,1.994-1.498c1.018-1.04,1.44-2.375,1.197-3.768
				c-0.035-0.205-0.162-0.818-0.344-1.69c-0.643-3.083-2.351-11.275-2.247-13.001c0.136-2.145,0.008-4.955-0.4-8.84
				c-0.1-0.948-0.213-1.936-0.327-2.929c-0.324-2.831-0.66-5.759-0.673-7.798C161.941,48.418,161.001,47.538,159.564,47.538
				L159.564,47.538z"/>
		</g>
		<path fill="#EBE0D5" d="M162.229,87.56c0,0,1.283-1.059,1.607-1.988c0.322-0.915,0.356-1.536,0.033-2.886
			c-0.322-1.345-1.226-6.088-1.591-8.206c-0.361-2.117-0.487-4.913-0.487-5.644c0-0.729-1.116-0.882-1.769-0.801
			c-0.657,0.072-0.943,0.743-0.509,0.781c0.433,0.039,1.744-0.249,1.802,0.371c0.167,1.513,0.459,4.255,1.397,10.838
			c0.172,1.195,0.368,3.646,0.11,4.318c-0.399,1.04-1.567,0.27-1.666,1.016C161.061,86.188,161.579,87.116,162.229,87.56z"/>
		<path fill="#EBE0D5" d="M160.396,49.52c0.141,0.344,0.246,4.368,0.611,7.486c0.361,3.116,0.733,9.276,0.806,10.272
			c0.023,0.358-0.444-0.069-1.066,0.014c-0.616,0.077-0.126-0.743,0.12-1.369c0.256-0.609-0.616-15.902-0.741-16.272
			C159.909,49.018,160.268,49.173,160.396,49.52z"/>
	</g>
	<g clip-path="url(#SVGID_1_)">
		<g>
			<path fill="#CDB8AB" d="M75.837,88.995c-0.979-0.016-2.17-0.777-2.746-1.504c-0.635-0.806-0.399-1.85-0.126-3.058l0.096-0.431
				c0.153-0.712,0.665-2.424,1.207-4.235c0.474-1.583,0.963-3.22,1.175-4.073c0.443-1.792,1.414-7.176,1.519-8.278
				c0.096-1.058,0.121-2.241,0.084-2.72c-0.173-0.126-0.64-0.281-0.826-0.343c-0.145-0.048-0.265-0.089-0.34-0.122
				c-0.369-0.177-0.948-0.456-0.967-1.411c-0.01-0.354,0.072-0.807,0.168-1.331c0.088-0.483,0.188-1.032,0.228-1.58
				c0.046-0.625,0.191-1.687,0.345-2.812c0.138-1.004,0.282-2.054,0.362-2.854l0.134-1.291c0.142-1.34,0.302-2.858,0.296-3.433
				c-0.005-0.381,0.125-0.726,0.365-0.97c0.206-0.208,0.475-0.324,0.756-0.324c0.237,0,0.483,0.085,0.685,0.265
				c0.206-0.335,0.522-0.469,0.805-0.469c0.314,0,0.608,0.157,0.829,0.412c0.039-0.064,0.084-0.123,0.135-0.176
				c0.174-0.182,0.408-0.281,0.66-0.281c0.333,0,0.658,0.176,0.89,0.444c0.056-0.137,0.14-0.268,0.247-0.381
				c0.213-0.223,0.495-0.351,0.774-0.351c0.41,0,0.894,0.277,1.02,1.055c0.171,0.983,0.291,5.28,0.291,7.23
				c0,1.453-0.052,3.577-0.155,6.312l-0.005,0.132c-0.024,0.854-0.348,1.212-0.734,1.561c-0.296,0.26-0.774,0.447-1.531,0.73
				c-0.223,0.083-0.454,0.17-0.678,0.26c-0.387,0.156-0.392,0.193-0.482,0.806l-0.041,0.27c-0.167,1.065-0.336,2.901-0.311,4.85
				c0.017,1.105,0.264,4.51,0.443,6.996c0.079,1.095,0.149,2.058,0.188,2.67c0.117,1.755,0.205,4.692-0.036,5.585
				c-0.251,0.911-1.253,1.765-1.806,2.127c-0.62,0.407-2.014,0.723-2.798,0.723C75.955,88.997,75.845,88.995,75.837,88.995z"/>
			<path fill="#553E31" d="M82.59,48.315c0.171,0,0.337,0.141,0.4,0.529c0.162,0.934,0.283,5.188,0.283,7.13
				c0,2.304-0.136,5.766-0.16,6.42c-0.019,0.646-0.23,0.851-0.527,1.119c-0.304,0.268-1.211,0.547-2.023,0.875
				c-0.811,0.327-0.774,0.731-0.908,1.558c-0.144,0.917-0.347,2.805-0.318,4.958c0.024,1.598,0.5,7.639,0.633,9.699
				c0.139,2.069,0.175,4.676-0.016,5.381c-0.193,0.703-1.055,1.446-1.544,1.766c-0.464,0.304-1.706,0.621-2.454,0.621
				c-0.032,0-0.063-0.001-0.094-0.002c-0.732-0.012-1.766-0.619-2.279-1.267c-0.506-0.643-0.193-1.656,0.092-2.965
				c0.283-1.319,1.926-6.473,2.377-8.291c0.449-1.814,1.426-7.219,1.534-8.371c0.104-1.147,0.132-2.504,0.071-2.963
				c-0.069-0.457-1.226-0.724-1.527-0.855c-0.291-0.141-0.578-0.253-0.59-0.848c-0.017-0.59,0.311-1.696,0.395-2.853
				s0.535-3.957,0.705-5.649c0.17-1.696,0.441-3.99,0.433-4.793c-0.005-0.414,0.244-0.659,0.494-0.659
				c0.226,0,0.452,0.201,0.49,0.659c0.081,0.963-0.309,4.375-0.38,5.694c-0.072,1.324-0.239,3.09-0.318,4.203
				c-0.039,0.562,0.115,0.818,0.294,0.818c0.175,0,0.374-0.245,0.442-0.689c0.139-1.04,0.215-2.194,0.281-3.979
				c0.072-1.788,0.252-4.987,0.275-6.177c0.014-0.523,0.197-0.735,0.404-0.735c0.26,0,0.555,0.333,0.595,0.802
				c0.064,0.832,0.021,5.125,0.03,6.456c0.006,1.341-0.064,2.946-0.095,3.792c-0.013,0.39,0.112,0.588,0.252,0.588
				c0.159,0,0.336-0.256,0.353-0.779c0.028-0.889,0.091-2.992,0.124-4.863c0.026-1.875,0.048-4.22,0.015-5.357
				c-0.021-0.5,0.149-0.685,0.351-0.685c0.257,0,0.563,0.298,0.593,0.623c0.053,0.587,0.158,4.647,0.225,6.019
				c0.069,1.364-0.01,3.188,0,4.229c0.003,0.443,0.078,0.605,0.176,0.605c0.131,0,0.302-0.292,0.396-0.59
				c0.157-0.523,0.185-1.372,0.182-3.295c0-1.911-0.114-6.91-0.134-7.35C82.103,48.59,82.351,48.315,82.59,48.315 M82.59,47.061
				c-0.418,0-0.834,0.172-1.156,0.474c-0.234-0.118-0.491-0.186-0.754-0.186h-0.001c-0.306,0-0.597,0.087-0.845,0.25
				c-0.238-0.131-0.503-0.205-0.779-0.205c-0.323,0-0.65,0.099-0.928,0.306c-0.185-0.068-0.377-0.101-0.562-0.101
				c-0.45,0-0.877,0.181-1.202,0.51c-0.359,0.363-0.553,0.868-0.546,1.419c0.006,0.537-0.153,2.036-0.292,3.358
				c-0.048,0.447-0.094,0.887-0.135,1.294c-0.079,0.784-0.222,1.825-0.359,2.832c-0.155,1.134-0.302,2.206-0.349,2.851
				c-0.037,0.514-0.134,1.044-0.22,1.513c-0.102,0.559-0.189,1.042-0.178,1.466c0.026,1.331,0.925,1.763,1.264,1.926
				c0.014,0.007,0.064,0.031,0.079,0.038c0.088,0.038,0.227,0.087,0.394,0.142c0.095,0.032,0.265,0.088,0.412,0.146
				c0.007,0.519-0.02,1.41-0.098,2.267c-0.103,1.083-1.063,6.407-1.503,8.183c-0.208,0.838-0.695,2.468-1.166,4.044
				c-0.546,1.824-1.062,3.547-1.22,4.285l-0.094,0.422c-0.283,1.25-0.575,2.543,0.243,3.583c0.66,0.833,2.02,1.726,3.244,1.745
				c0.018,0.001,0.065,0.002,0.114,0.002c0.891,0,2.401-0.339,3.143-0.826c0.28-0.184,1.704-1.17,2.064-2.482
				c0.354-1.308,0.07-5.615,0.059-5.798c-0.04-0.61-0.109-1.576-0.188-2.672c-0.18-2.479-0.426-5.874-0.442-6.962
				c-0.032-2.464,0.247-4.385,0.304-4.746l0.042-0.272c0.014-0.099,0.031-0.213,0.047-0.295c0.014-0.006,0.03-0.014,0.05-0.021
				c0.218-0.088,0.444-0.172,0.662-0.254c0.743-0.278,1.329-0.498,1.721-0.842c0.449-0.405,0.921-0.919,0.952-2.024l0.005-0.121
				c0.104-2.744,0.156-4.875,0.156-6.336c0-1.627-0.106-6.215-0.302-7.344C84.039,47.475,83.228,47.061,82.59,47.061L82.59,47.061z"
				/>
		</g>
		<path fill="#EBE0D5" d="M78.858,70.803c0,0,0.093,3.807,0.206,6.664c0.111,2.868,0.326,5.293,0.207,6.714
			c-0.119,1.427-0.035,2.02-1.034,2.712c-1.025,0.722-3.269,1.238-3.615-0.005c-0.259-0.939,1.892-0.891,2.717-2.523
			c0.938-1.89,0.664-4.851,0.755-6.898c0.094-1.952,0.137-3.806,0.291-5.742c0.031-0.368,0.064-0.954,0.213-1.307
			C78.598,70.418,78.923,70.076,78.858,70.803z"/>
		<path fill="#EBE0D5" d="M79.475,64.392c0,0,0.18-0.325,1.262-0.702c1.07-0.371,1.551-0.471,1.807-1.016
			c0.253-0.535,0.274-2.375,0.26-2.944c-0.009-1.419-0.246-0.323-0.324,0.368c-0.063,0.519-0.211,1.613-0.832,2.081
			c-0.613,0.473-1.338,0.571-1.825,1.001C79.336,63.613,79.422,63.899,79.475,64.392z"/>
	</g>
	<g clip-path="url(#SVGID_1_)">
		<g>
			<path fill="#EBE0D5" d="M138.158,50.063c-3.729-0.092-6.617-1.818-6.575-3.931c0.039-1.782,2.09-3.188,5.061-3.527
				c0.261-4.97,0.394-7.599,0.395-7.817c0-0.202-0.207-0.35-0.701-0.624c-0.23-0.128-0.449-0.254-0.616-0.392
				c-2.199-1.818-3.816-5.015-4.327-8.552c-0.213-1.411-0.219-2.989-0.018-4.822l0.022-0.177c0.473-3.802,0.568-4.109,1.277-4.109
				c0.041,0,9.226,0.117,13.173,0.167c0.182,0.002,0.41,0.107,0.535,0.239c0.686,0.722,0.598,5.751,0.597,5.802
				c-0.065,2.715-0.677,5.322-1.768,7.532c-0.588,1.175-1.31,2.16-2.146,2.93c-1.1,1.042-2.082,1.723-2.912,2.018l0.084,7.93
				c2.811,0.531,4.699,2.018,4.66,3.724c-0.04,2.059-2.803,3.614-6.426,3.614C138.473,50.067,138.158,50.063,138.158,50.063z"/>
			<path fill="#553E31" d="M132.676,16.784c0.041,0,13.164,0.167,13.164,0.167c0.438,0.009,0.482,4.879,0.468,5.347
				c-0.06,2.493-0.611,5.054-1.698,7.255c-0.517,1.032-1.171,1.971-1.998,2.733c-0.724,0.686-1.759,1.551-2.681,1.878
				c-0.482,0.167-0.435,0.674-0.435,0.674l0.076,8.463c2.695,0.368,4.688,1.659,4.654,3.135c-0.032,1.664-2.584,2.957-5.754,2.957
				c-0.099,0-0.198-0.001-0.298-0.004c-3.305-0.081-5.953-1.539-5.919-3.245c0.033-1.532,2.205-2.743,5.029-2.922
				c0.139-2.641,0.426-8.122,0.426-8.435c0-0.877-1.065-1.127-1.563-1.536c-2.284-1.888-3.651-5.097-4.089-8.129
				c-0.231-1.537-0.184-3.111-0.015-4.652C132.084,20.175,132.485,16.784,132.676,16.784 M132.676,15.438
				c-1.36,0-1.473,0.902-1.945,4.699l-0.02,0.158c-0.211,1.92-0.204,3.556,0.018,5.029c0.533,3.69,2.238,7.045,4.563,8.966
				c0.236,0.194,0.493,0.336,0.72,0.462c0.106,0.059,0.251,0.14,0.349,0.205c-0.027,0.659-0.147,3.028-0.358,7.059
				c-3.009,0.498-5.047,2.095-5.091,4.101c-0.051,2.532,3.059,4.517,7.231,4.619c0.11,0.003,0.222,0.004,0.331,0.004
				c4.065,0,7.052-1.799,7.1-4.277c0.045-1.954-1.787-3.597-4.664-4.281l-0.063-6.943c0.811-0.385,1.711-1.047,2.691-1.975
				c0.883-0.813,1.652-1.863,2.275-3.108c1.138-2.304,1.773-5.007,1.841-7.825c0.017-0.532,0.139-5.307-0.781-6.276
				c-0.267-0.281-0.623-0.44-1.004-0.448C137.144,15.495,132.709,15.438,132.676,15.438L132.676,15.438z"/>
		</g>
		<g>
			<path fill="#CDB8AB" d="M139.231,20.411c-3.521-0.03-7.257-1.275-7.242-3.523c0.02-2.228,3.616-3.393,7.159-3.393l0.143,0
				c3.524,0.035,7.259,1.281,7.24,3.524c-0.02,2.227-3.611,3.392-7.148,3.392L139.231,20.411z"/>
			<path fill="#553E31" d="M139.148,14.167c0.045,0,0.091,0,0.137,0c3.645,0.036,6.586,1.307,6.573,2.846
				c-0.014,1.523-2.898,2.725-6.476,2.725c-0.048,0-0.097,0-0.146,0c-3.639-0.031-6.585-1.305-6.575-2.846
				C132.676,15.375,135.567,14.167,139.148,14.167 M139.148,12.822L139.148,12.822c-3.755,0-7.808,1.27-7.832,4.058
				c-0.018,2.716,3.966,4.17,7.909,4.204l0.157,0c3.75,0,7.797-1.27,7.821-4.059c0.022-2.708-3.96-4.165-7.905-4.203L139.148,12.822
				L139.148,12.822z"/>
		</g>
		<path fill="#FFFCF5" d="M138.753,35.157c0.04,0.48,0.193,8.203,0.215,8.906c0.017,0.707-0.089,1.503-0.304,1.715
			c-0.532,0.516-1.661-0.351-1.627-0.177c0.053,0.28,0.7,0.867,1.159,0.949c0.659,0.124,1.784-0.069,2.15-0.724
			c0.205-0.363,0.05-1.142-0.251-0.684c-0.401,0.598-0.523,0.361-0.712-0.076c-0.187-0.43-0.208-3.639-0.208-4.973
			c0-1.331-0.043-4.416-0.017-5.097c0.021-0.435,0.19-0.447,0.157-0.645c-0.019-0.083-0.261,0.12-0.576,0.126
			c-0.37,0.002-0.776-0.215-0.795-0.119C137.914,34.55,138.719,34.681,138.753,35.157z"/>
		<path fill="#FFFCF5" d="M145.876,19.477c-0.555,0.643-0.806,0.872-1.924,1.161c0.076,4.225-0.741,7.809-1.602,9.642
			c-0.864,1.842-1.14,2.187-1.693,2.609c-0.082,0.064-1.047,0.91-0.989,0.982c0.167-0.043,0.712-0.311,1.037-0.487
			c0.611-0.334,1.477-1.195,2.083-1.861c0.607-0.665,1.676-2.328,2.115-3.718c0.435-1.395,0.643-2.079,0.816-3.998
			C145.888,21.897,145.876,19.477,145.876,19.477z"/>
		<path fill="#EBE0D5" d="M134.844,15.651c-0.777,0.335-1.501,0.889-1.511,1.563c-0.005,0.327,0,0.664,0.008,0.92
			c0.398,0.346,0.955,0.652,1.634,0.903c-0.017-0.318-0.04-0.741-0.043-1.083c-0.002-0.643,0.064-1.252,0.306-1.637
			c0.246-0.377,1.886-1.123,1.922-1.307C137.194,14.822,135.622,15.319,134.844,15.651z"/>
	</g>
	<g clip-path="url(#SVGID_1_)">
		<path fill="#553E31" stroke="#553E31" stroke-width="0.1557" stroke-miterlimit="10" d="M153.132,74.155
			c0.021,11.747-14.986,21.297-33.536,21.34c-18.549,0.043-33.609-9.446-33.636-21.188c-0.024-11.747,14.989-21.295,33.54-21.343
			C138.048,52.927,153.104,62.409,153.132,74.155z"/>
		<path fill="#FFFCF5" stroke="#553E31" stroke-width="2.2067" stroke-miterlimit="10" d="M119.544,51.991
			c-18.865,0.043-34.188,9.331-34.165,20.709c0.026,11.383,15.393,20.614,34.251,20.568c18.862-0.041,34.184-9.336,34.157-20.722
			C153.763,61.173,138.401,51.95,119.544,51.991z"/>
		<path fill="#FFFCF5" stroke="#CDB8AB" stroke-width="2.2067" stroke-miterlimit="10" d="M146.437,72.206
			c0.018,8.103-11.918,14.695-26.668,14.733c-14.751,0.031-26.72-6.511-26.738-14.617c-0.019-8.103,11.926-14.702,26.673-14.733
			C134.449,57.551,146.418,64.1,146.437,72.206z"/>
	</g>
	<g clip-path="url(#SVGID_1_)">
		
			<path fill="#CDB8AB" stroke="#553E31" stroke-width="1.7128" stroke-linecap="round" stroke-linejoin="round" stroke-miterlimit="10" d="
			M116.193,31.025c0,0-15.748,41.44-15.486,43.417c0.107,0.846,1.126,3.264,4.077,1.773c2.953-1.484,6.522-3.097,6.522-3.097
			L116.193,31.025z"/>
		
			<path fill="#CDB8AB" stroke="#553E31" stroke-width="1.7128" stroke-linecap="round" stroke-linejoin="round" stroke-miterlimit="10" d="
			M111.534,71.228c0,0,6.874,4.593,8.786,7.068c1.764-1.338,2.53-1.07,2.324-3.092c-0.197-2.029-6.451-44.179-6.451-44.179
			L111.534,71.228z"/>
		
			<path fill="#CDB8AB" stroke="#553E31" stroke-width="1.7128" stroke-linecap="round" stroke-linejoin="round" stroke-miterlimit="10" d="
			M122.438,73.62c0,0,8.296,2.843,10.695,5.515c-1.848-5.099-16.939-48.109-16.939-48.109S120.826,70.377,122.438,73.62z"/>
		
			<path fill="#CDB8AB" stroke="#553E31" stroke-width="1.7128" stroke-linecap="round" stroke-linejoin="round" stroke-miterlimit="10" d="
			M130.801,72.568c0,0,9.488,2.39,12.012,4.069c-11.209-20.377-26.619-45.612-26.619-45.612L130.801,72.568z"/>
	</g>
</g>
</svg>
