<?xml version="1.0" encoding="utf-8"?>
<!-- Generator: Adobe Illustrator 16.0.0, SVG Export Plug-In . SVG Version: 6.00 Build 0)  -->
<!DOCTYPE svg PUBLIC "-//W3C//DTD SVG 1.1//EN" "http://www.w3.org/Graphics/SVG/1.1/DTD/svg11.dtd">
<svg version="1.1" id="Layer_1" xmlns="http://www.w3.org/2000/svg" xmlns:xlink="http://www.w3.org/1999/xlink" x="0px" y="0px"
	 width="29.752px" height="50px" viewBox="-85.015 0 29.752 50" enable-background="new -85.015 0 29.752 50" xml:space="preserve">
<g>
	<g>
		<ellipse fill="#CDB8AB" cx="-70.29" cy="42.593" rx="14.876" ry="5.556"/>
		<path fill="#563F32" d="M-70.29,48.148c-8.215,0-14.876-2.488-14.876-5.557v1.854c0,3.066,6.661,5.555,14.876,5.555
			s14.876-2.488,14.876-5.557v-1.852C-55.414,45.66-62.075,48.148-70.29,48.148z"/>
	</g>
	<path fill="#EBDFD5" d="M-77.728,2.776v38.427c0,1.535,3.33,2.779,7.438,2.779s7.438-1.244,7.438-2.779V2.776H-77.728z"/>
	<ellipse fill="#CDB8AB" cx="-70.29" cy="2.777" rx="7.438" ry="2.777"/>
</g>
<g>
	<g>
		<path fill="#563F32" d="M-71.813,26.045l-0.038-0.502c-0.116-1.026,0.232-2.185,1.199-3.346c0.87-1.024,1.354-1.778,1.354-2.649
			c0-0.986-0.619-1.643-1.838-1.662c-0.695,0-1.469,0.231-1.952,0.599l-0.464-1.218c0.657-0.464,1.739-0.773,2.764-0.773
			c2.225,0,3.229,1.373,3.229,2.842c0,1.314-0.734,2.262-1.663,3.364c-0.851,1.005-1.159,1.875-1.101,2.862l0.038,0.482H-71.813z
			 M-72.219,28.771c0-0.715,0.483-1.217,1.141-1.217c0.696,0,1.141,0.502,1.141,1.217c0,0.678-0.444,1.199-1.16,1.199
			C-71.755,29.971-72.219,29.449-72.219,28.771z"/>
	</g>
</g>
</svg>
