<?xml version="1.0" encoding="utf-8"?>
<!-- Generator: Adobe Illustrator 16.0.0, SVG Export Plug-In . SVG Version: 6.00 Build 0)  -->
<!DOCTYPE svg PUBLIC "-//W3C//DTD SVG 1.1//EN" "http://www.w3.org/Graphics/SVG/1.1/DTD/svg11.dtd">
<svg version="1.1" id="Layer_1" xmlns="http://www.w3.org/2000/svg" xmlns:xlink="http://www.w3.org/1999/xlink" x="0px" y="0px"
	 width="30px" height="50px" viewBox="37.625 0 30 50" enable-background="new 37.625 0 30 50" xml:space="preserve">
<g>
	<path fill="#553E31" d="M42.139,37.654v-0.812c0.181,0.001,0.297-0.026,0.349-0.083c0.034-0.04,0.055-0.092,0.061-0.156
		c0.007-0.063,0.012-0.265,0.016-0.603c-0.002-0.354-0.006-0.567-0.01-0.639c-0.005-0.071-0.019-0.128-0.042-0.169
		c-0.034-0.063-0.126-0.093-0.276-0.093c-0.109,0-0.183,0.021-0.219,0.065c-0.037,0.043-0.057,0.133-0.061,0.267
		c0,0.104-0.011,0.322-0.032,0.656c-0.021,0.343-0.034,0.565-0.038,0.669c-0.009,0.201-0.034,0.356-0.076,0.465
		c-0.042,0.107-0.11,0.192-0.205,0.252c-0.158,0.104-0.421,0.155-0.79,0.155c-0.413,0-0.705-0.059-0.875-0.177
		c-0.133-0.09-0.218-0.229-0.254-0.415c-0.037-0.187-0.056-0.566-0.056-1.138c0-0.404,0.016-0.688,0.046-0.853
		c0.047-0.252,0.141-0.426,0.281-0.52s0.377-0.141,0.71-0.141c0.03,0,0.088,0,0.172,0.002v0.812
		c-0.102,0.003-0.172,0.009-0.209,0.019c-0.038,0.011-0.068,0.03-0.092,0.06c-0.028,0.036-0.047,0.101-0.055,0.191
		c-0.009,0.092-0.013,0.285-0.013,0.58c0,0.356,0.015,0.573,0.045,0.65c0.029,0.078,0.111,0.117,0.245,0.117
		c0.129,0,0.208-0.039,0.236-0.117c0.023-0.064,0.046-0.36,0.067-0.888c0.018-0.444,0.039-0.741,0.063-0.892
		c0.023-0.149,0.07-0.269,0.138-0.357c0.081-0.101,0.191-0.172,0.332-0.214c0.141-0.041,0.343-0.062,0.605-0.062
		c0.346,0,0.603,0.034,0.771,0.104c0.124,0.052,0.216,0.125,0.277,0.219c0.061,0.093,0.102,0.225,0.123,0.394
		c0.021,0.181,0.032,0.519,0.032,1.013c0,0.414-0.015,0.72-0.043,0.917s-0.08,0.346-0.153,0.444
		c-0.078,0.104-0.183,0.176-0.312,0.215c-0.129,0.04-0.325,0.06-0.588,0.06H42.139z"/>
	<path fill="#553E31" d="M39.687,33.756v-3.299h0.841l1.944,2.014l-0.035-2.074h0.916V33.8h-0.856l-1.929-1.987l0.035,1.943H39.687z
		"/>
	<path fill="#553E31" d="M38.031,27.712l0.859-0.32l0.545,1.172l-0.433,0.172L38.031,27.712z M39.687,29.811v-3.045h0.862v2.219
		h0.529v-2.106h0.806v2.106h0.588v-2.235h0.881v3.062H39.687z"/>
	<path fill="#553E31" d="M39.687,26.179V24.71l2.734-1.44v-0.087l-2.734,0.02v-0.852h3.666v1.457l-2.734,1.446v0.09l2.734-0.018
		v0.852H39.687z"/>
	<path fill="#553E31" d="M39.687,21.658v-0.88h1.311v-1.891h-1.311v-0.88h3.666v0.88h-1.329v1.891h1.329v0.88H39.687z"/>
	<path fill="#553E31" d="M39.687,17.312v-0.88h3.666v0.88H39.687z"/>
	<path fill="#553E31" d="M43.353,15.737h-3.666v-1.984c0-0.352,0.004-0.582,0.011-0.691c0.008-0.109,0.027-0.222,0.06-0.34
		c0.075-0.275,0.282-0.455,0.623-0.538c0.129-0.031,0.267-0.052,0.415-0.063c0.147-0.011,0.371-0.016,0.67-0.016
		c0.327,0,0.575,0.006,0.743,0.019c0.169,0.013,0.322,0.037,0.46,0.071c0.322,0.082,0.521,0.25,0.596,0.506
		c0.036,0.119,0.06,0.247,0.071,0.382c0.012,0.136,0.018,0.358,0.018,0.667V15.737z M42.418,14.912v-1.167
		c0-0.215-0.01-0.373-0.028-0.474s-0.052-0.173-0.098-0.214c-0.052-0.046-0.135-0.078-0.247-0.097
		c-0.113-0.019-0.283-0.028-0.511-0.028s-0.398,0.008-0.513,0.024S40.82,13,40.759,13.041c-0.066,0.045-0.109,0.112-0.128,0.198
		s-0.028,0.258-0.028,0.515v1.158H42.418z"/>
	<path fill="#553E31" d="M43.353,11.466h-3.666V9.442c0.002-0.475,0.009-0.76,0.021-0.854c0.012-0.094,0.053-0.185,0.125-0.272
		c0.084-0.104,0.2-0.176,0.348-0.215s0.38-0.058,0.696-0.058c0.268,0,0.463,0.012,0.589,0.037c0.125,0.025,0.226,0.071,0.301,0.14
		c0.08,0.074,0.136,0.186,0.166,0.334c0.019-0.176,0.085-0.302,0.202-0.378c0.069-0.044,0.154-0.073,0.253-0.085
		c0.1-0.012,0.308-0.018,0.625-0.018h0.341v0.826h-0.196c-0.204,0-0.35,0.005-0.437,0.017c-0.087,0.011-0.153,0.032-0.199,0.063
		c-0.043,0.031-0.07,0.073-0.082,0.128c-0.012,0.054-0.018,0.168-0.018,0.341v1.18h0.932V11.466z M41.505,10.628V9.45
		c-0.006-0.206-0.011-0.328-0.015-0.368c-0.005-0.04-0.019-0.073-0.042-0.102c-0.03-0.036-0.075-0.062-0.136-0.077
		c-0.06-0.015-0.15-0.022-0.272-0.022c-0.12,0-0.209,0.008-0.269,0.025c-0.059,0.017-0.102,0.046-0.129,0.088
		c-0.018,0.029-0.028,0.064-0.032,0.105c-0.003,0.041-0.006,0.158-0.008,0.352v1.176H41.505z"/>
	<path fill="#553E31" d="M38.031,4.978l0.859-0.32l0.545,1.172L39.002,6L38.031,4.978z M43.353,4.46l-0.62,0.235v1.819l0.62,0.236
		v0.957l-3.666-1.458V4.947l3.666-1.438V4.46z M41.929,4.99l-1.388,0.529v0.167l1.388,0.53V4.99z"/>
	<path fill="#553E31" d="M39.687,3.637V0.31h0.935v1.222h2.731v0.88h-2.731v1.225H39.687z"/>
</g>
</svg>
