<?xml version="1.0" encoding="utf-8"?>
<!-- Generator: Adobe Illustrator 16.0.0, SVG Export Plug-In . SVG Version: 6.00 Build 0)  -->
<!DOCTYPE svg PUBLIC "-//W3C//DTD SVG 1.1//EN" "http://www.w3.org/Graphics/SVG/1.1/DTD/svg11.dtd">
<svg version="1.1" id="Layer_1" xmlns="http://www.w3.org/2000/svg" xmlns:xlink="http://www.w3.org/1999/xlink" x="0px" y="0px"
	 width="30px" height="50px" viewBox="113.122 0 30 50" enable-background="new 113.122 0 30 50" xml:space="preserve">
<g>
	<path fill="#553E31" d="M114.852,36.013V32.63h0.94v2.407h0.756v-2.29h0.92v2.29h1.383v0.976H114.852z"/>
	<path fill="#553E31" d="M114.852,31.928v-3.544h0.94v2.583h0.577v-2.452h0.879v2.452h0.642v-2.602h0.961v3.563H114.852z"/>
	<path fill="#553E31" d="M114.852,27.58v-1.023h1.43v-2.201h-1.43v-1.024h3.999v1.024h-1.45v2.201h1.45v1.023H114.852z"/>
	<path fill="#553E31" d="M113.044,19.961l0.938-0.373l0.595,1.364l-0.472,0.199L113.044,19.961z M114.852,22.403V18.86h0.94v2.583
		h0.577v-2.452h0.879v2.452h0.642v-2.602h0.961v3.563H114.852z"/>
	<path fill="#553E31" d="M118.851,18.056h-3.999v-2.355c0.002-0.553,0.01-0.884,0.022-0.994s0.058-0.215,0.136-0.316
		c0.092-0.122,0.218-0.206,0.38-0.251c0.16-0.045,0.414-0.068,0.76-0.068c0.291,0,0.505,0.015,0.642,0.043s0.246,0.083,0.328,0.163
		c0.088,0.086,0.148,0.215,0.182,0.389c0.02-0.205,0.093-0.352,0.22-0.44c0.076-0.052,0.168-0.084,0.277-0.099
		c0.107-0.014,0.335-0.021,0.681-0.021h0.372v0.961h-0.214c-0.223,0-0.381,0.007-0.476,0.02s-0.168,0.038-0.219,0.074
		c-0.047,0.036-0.076,0.085-0.09,0.149c-0.012,0.063-0.019,0.196-0.019,0.397v1.373h1.017V18.056z M116.835,17.081V15.71
		c-0.006-0.239-0.011-0.381-0.016-0.428c-0.005-0.046-0.021-0.085-0.046-0.118c-0.033-0.042-0.082-0.072-0.147-0.089
		c-0.065-0.018-0.165-0.026-0.298-0.026c-0.131,0-0.229,0.01-0.293,0.029s-0.111,0.053-0.141,0.102
		c-0.02,0.034-0.031,0.075-0.035,0.123c-0.004,0.047-0.007,0.184-0.009,0.409v1.369H116.835z"/>
	<path fill="#553E31" d="M114.852,11.063v-0.975h2.391c0.377,0,0.654,0.014,0.832,0.043c0.178,0.029,0.325,0.084,0.442,0.166
		c0.15,0.104,0.254,0.258,0.309,0.459c0.057,0.201,0.084,0.525,0.084,0.973c0,0.539-0.036,0.929-0.108,1.169
		c-0.088,0.292-0.307,0.468-0.656,0.527c-0.15,0.026-0.352,0.04-0.604,0.04c-0.109,0-0.249-0.002-0.419-0.007v-0.975
		c0.219,0,0.366-0.005,0.441-0.015s0.133-0.032,0.174-0.064c0.088-0.073,0.132-0.275,0.132-0.604c0-0.347-0.045-0.563-0.135-0.647
		c-0.039-0.036-0.092-0.06-0.158-0.072s-0.187-0.018-0.36-0.018H114.852z"/>
	<path fill="#553E31" d="M114.852,9.177V5.633h0.94v2.583h0.577V5.764h0.879v2.452h0.642V5.614h0.961v3.563H114.852z"/>
</g>
</svg>
