<?xml version="1.0" encoding="utf-8"?>
<!-- Generator: Adobe Illustrator 16.0.0, SVG Export Plug-In . SVG Version: 6.00 Build 0)  -->
<!DOCTYPE svg PUBLIC "-//W3C//DTD SVG 1.1//EN" "http://www.w3.org/Graphics/SVG/1.1/DTD/svg11.dtd">
<svg version="1.1" xmlns="http://www.w3.org/2000/svg" xmlns:xlink="http://www.w3.org/1999/xlink" x="0px" y="0px" width="32px"
	 height="32px" viewBox="0 0 32 32" enable-background="new 0 0 32 32" xml:space="preserve">
<g id="Layer_1">
	<g>
		<path fill="#553E31" d="M2.066,23.746C2.09,23.742,2.12,23.73,2.15,23.717c-0.029,0.012-0.055,0.02-0.082,0.029H2.066z"/>
		<path fill="#553E31" d="M15.16,10.513c0.065-0.185,0.086-0.313,0.004-0.313l-0.14,0.156C15.07,10.406,15.116,10.458,15.16,10.513z
			"/>
		<g>
			<path fill="#CDB8AB" d="M1.282,25.512c-0.334,0-0.621-0.256-0.683-0.609l-0.186-1.01c-0.043-0.212,0.011-0.449,0.145-0.626
				c0.061-0.081,1.166-1.623,1.166-1.623c0.67-0.946,1.684-2.38,2.61-3.375c1.633-1.758,3.409-3.287,5.084-4.677
				c0.968-0.8,3.436-3.117,3.608-3.319c0.041-0.104,0.133-0.368,0.241-0.672c0.298-0.817,0.742-1.504,1.063-1.938
				c0.786-1.052,1.919-1.174,2.702-1.174c0.303,0,0.606,0.019,0.898,0.038l0.244,0.017c1.513,0.098,2.795,0.413,3.918,0.961
				c1.536,0.745,2.837,1.47,3.975,2.215c0.604,0.396,1.13,0.82,1.703,1.375c0.156,0.15,0.317,0.297,0.482,0.443
				c0.326,0.294,0.63,0.57,0.911,0.878c0.62,0.68,1.08,1.295,1.447,1.938c0.057,0.089,0.141,0.26,0.266,0.531
				c0,0,0.101,0.201,0.118,0.242c0.007,0.016,0.035,0.099,0.039,0.115c0.257,0.589,0.431,1.152,0.505,1.637
				c0.021,0.12,0.022,0.221,0.022,0.326c0.013,0.124,0.027,0.413,0.036,0.878c0.016,0.805-0.288,1.619-0.811,2.179
				c-0.446,0.478-1.022,0.765-1.813,0.905c-0.412,0.074-0.828,0.111-1.243,0.147c-0.221,0.018-0.43,0.035-0.636,0.06
				c-0.313,0.035-0.62,0.092-0.929,0.147l-0.563,0.101c-0.323,0.056-0.649,0.097-0.973,0.138l-0.512,0.066
				c-1.121,0.155-2.264,0.423-3.367,0.681c0,0-1.082,0.251-1.44,0.329c-2.057,0.448-3.771,0.795-5.393,1.093
				c-0.942,0.173-1.836,0.237-2.823,0.299c-0.4,0.021-0.795,0.078-1.188,0.135c-0.423,0.061-0.848,0.12-1.271,0.145
				c-0.682,0.044-1.375,0.172-2.046,0.297c-0.662,0.121-1.342,0.246-2.033,0.302c-0.527,0.04-1.037,0.125-1.577,0.214
				c0,0-0.129,0.021-0.13,0.021c-0.266,0.044-0.529,0.087-0.793,0.125c-0.249,0.038-0.769,0.046-0.769,0.046
				c-0.002,0-0.003,0-0.005,0H1.282z"/>
			<path fill="#553E31" d="M17.034,6.888c0.294,0,0.589,0.019,0.872,0.037l0.243,0.017c1.458,0.095,2.69,0.395,3.77,0.922
				c1.517,0.735,2.803,1.451,3.931,2.19c0.58,0.38,1.088,0.789,1.645,1.328c0.161,0.155,0.327,0.307,0.497,0.456
				c0.301,0.272,0.602,0.544,0.88,0.848c0.603,0.66,1.045,1.254,1.395,1.866c0.061,0.096,0.136,0.253,0.251,0.501
				c0.064,0.13,0.091,0.179,0.112,0.229c0.012,0.025,0.019,0.054,0.026,0.081c0.261,0.604,0.423,1.132,0.49,1.575
				c0.018,0.102,0.018,0.182,0.018,0.266c0.015,0.156,0.028,0.436,0.036,0.885c0.014,0.705-0.251,1.416-0.702,1.898
				c-0.384,0.41-0.888,0.66-1.591,0.785c-0.402,0.072-0.809,0.107-1.213,0.143c-0.215,0.018-0.431,0.035-0.644,0.061
				c-0.345,0.039-0.688,0.104-1.031,0.166l-0.483,0.086c-0.32,0.055-0.646,0.096-0.969,0.137l-0.497,0.064
				c-1.156,0.16-2.319,0.434-3.446,0.697c-0.466,0.107-0.929,0.217-1.395,0.318c-2.072,0.451-3.782,0.797-5.38,1.09
				c-0.917,0.168-1.801,0.232-2.775,0.293c-0.409,0.021-0.815,0.08-1.221,0.139c-0.41,0.059-0.824,0.117-1.236,0.141
				c-0.703,0.045-1.412,0.176-2.097,0.303C5.87,24.529,5.2,24.652,4.527,24.707c-0.564,0.043-1.119,0.137-1.675,0.229
				c-0.285,0.047-0.567,0.094-0.851,0.135c-0.233,0.035-0.716,0.041-0.716,0.041c-0.001,0-0.002,0-0.004,0
				c-0.141,0-0.261-0.115-0.289-0.277L0.808,23.82c-0.022-0.111,0.007-0.229,0.07-0.313c0.049-0.064,1.172-1.631,1.172-1.631
				c0.666-0.941,1.671-2.361,2.578-3.336c1.618-1.742,3.382-3.26,5.047-4.642c0.949-0.784,3.468-3.143,3.658-3.369
				c0.098-0.193,0.197-0.473,0.313-0.796C13.927,8.961,14.35,8.31,14.653,7.9C15.324,7.002,16.275,6.888,17.034,6.888 M17.034,6.088
				c-0.869,0-2.129,0.138-3.021,1.333c-0.339,0.458-0.806,1.18-1.119,2.039c-0.084,0.237-0.164,0.46-0.231,0.616
				c-0.424,0.427-2.601,2.466-3.497,3.207c-1.688,1.4-3.475,2.939-5.123,4.714c-0.944,1.016-1.968,2.462-2.646,3.419
				c0,0-1.084,1.512-1.159,1.613c-0.202,0.269-0.281,0.615-0.214,0.95l0.183,0.999c0.094,0.539,0.547,0.934,1.076,0.934
				c0.104-0.001,0.564-0.009,0.839-0.05c0.263-0.038,0.53-0.082,0.799-0.126l0.063-0.011l0.065-0.011
				c0.531-0.088,1.033-0.171,1.54-0.209c0.716-0.059,1.405-0.185,2.071-0.307c0.666-0.124,1.348-0.25,2.008-0.292
				c0.447-0.025,0.899-0.091,1.299-0.147c0.382-0.056,0.775-0.112,1.149-0.132c1.007-0.063,1.913-0.128,2.878-0.305
				c1.627-0.299,3.345-0.646,5.405-1.096c0.359-0.078,0.717-0.161,1.075-0.244l0.329-0.076c1.138-0.266,2.271-0.531,3.376-0.685
				l0.49-0.063c0.344-0.043,0.675-0.086,1.001-0.141l0.488-0.087l0.083-0.016c0.299-0.055,0.598-0.109,0.898-0.144
				c0.206-0.024,0.41-0.041,0.612-0.058c0.431-0.037,0.859-0.074,1.296-0.153c0.866-0.153,1.531-0.489,2.033-1.025
				c0.593-0.634,0.936-1.554,0.918-2.461c-0.007-0.398-0.02-0.703-0.036-0.905c0-0.094-0.003-0.216-0.029-0.366
				c-0.074-0.491-0.251-1.071-0.524-1.71c-0.016-0.053-0.033-0.101-0.054-0.146c-0.01-0.024-0.032-0.071-0.074-0.153l-0.048-0.097
				c-0.114-0.247-0.202-0.432-0.292-0.573c-0.363-0.638-0.839-1.276-1.479-1.978c-0.3-0.327-0.613-0.611-0.917-0.886
				c-0.187-0.164-0.343-0.307-0.496-0.454c-0.59-0.572-1.134-1.01-1.761-1.421c-1.151-0.754-2.467-1.488-4.021-2.241
				c-1.168-0.571-2.499-0.898-4.066-1l-0.24-0.017C17.658,6.107,17.346,6.088,17.034,6.088L17.034,6.088z"/>
		</g>
		
			<path fill="#EBE0D5" stroke="#553E31" stroke-width="0.75" stroke-linecap="round" stroke-linejoin="round" stroke-miterlimit="10" d="
			M28.57,16.12c-1.293,0.371-1.786,1.423-2.562,2.607c-0.53,0.811-2.753,0.602-3.909,0.402c-0.751-0.131-1.471-0.137-2.219,0.037
			c-0.736,0.174-1.443,0.457-2.139,0.789c-0.396,0.189-0.791,0.393-1.184,0.594l-0.36,0.184c-1.019,0.516-2.115,0.871-3.549,1.152
			c-0.769,0.15-1.536,0.164-2.279,0.178c-0.423,0.01-0.86,0.018-1.282,0.051c-1.084,0.084-2.132,0.418-3.24,0.77
			c-0.862,0.273-1.754,0.555-2.657,0.707c-0.271,0.045-0.669,0.072-1.079,0.096c0.586-0.822,2.656-3.559,3.243-4.189
			c1.578-1.697,3.309-3.185,4.94-4.54c0.924-0.764,2.665-2.402,3.56-3.271l0.975-1.104c0.52-0.077,1.014-0.145,1.399-0.188
			c2.858-0.324,5.054,0.125,6.533,1.333c0.124,0.101,0.245,0.204,0.367,0.308c0.374,0.315,0.761,0.641,1.157,0.884
			c0.171,0.108,0.348,0.211,0.52,0.314c0.394,0.233,0.456,0.345,0.854,0.617c0.388,0.265,0.802,1.182,1.001,1.928l0.067,0.182
			c2.28-1.034,2.986-0.079,3.101,0.108c0.011,0.046,0.034,0.092,0.047,0.137C29.469,16.003,29.003,15.995,28.57,16.12z"/>
		<g>
			<g>
				<path fill="#553E31" d="M18.039,15.768c-0.004-0.009-0.011-0.02-0.018-0.029c-0.005,0.207-0.067,0.414-0.195,0.6
					c-0.264,0.383-0.661,0.596-1.016,0.753c-0.436,0.191-0.912,0.33-1.505,0.434c-0.189,0.031-0.383,0.061-0.584,0.082
					c-0.342,0.037-0.696,0.063-1.077,0.068c-0.639,0.014-1.433,0.027-2.179-0.094c-0.337-0.055-0.593-0.18-0.787-0.383
					c-0.071-0.074-0.134-0.164-0.182-0.257c0.002,0.101,0.017,0.203,0.041,0.3c0.046,0.184,0.152,0.375,0.279,0.508
					c0.195,0.205,0.452,0.33,0.788,0.385c0.747,0.121,1.54,0.104,2.178,0.094c0.381-0.008,0.735-0.031,1.078-0.068
					c0.197-0.023,0.394-0.049,0.583-0.082c0.595-0.105,1.074-0.242,1.506-0.436c0.354-0.156,0.753-0.369,1.017-0.752
					C18.201,16.547,18.229,16.129,18.039,15.768z"/>
			</g>
			<path fill="#553E31" d="M11.014,15.371c0.064-0.064,0.132-0.126,0.198-0.183c0.099-0.085,0.202-0.162,0.307-0.236
				c0.21-0.15,0.433-0.288,0.664-0.389c0.63-0.271,1.333-0.361,1.999-0.412c0.415-0.03,0.83-0.014,1.243,0.05
				c0.488,0.074,0.978,0.203,1.431,0.43c0.305,0.152,0.65,0.362,0.831,0.707c0.136,0.262,0.105,0.549-0.057,0.785
				c-0.225,0.326-0.586,0.519-0.912,0.664c-0.467,0.206-0.961,0.331-1.453,0.418c-0.539,0.092-1.085,0.135-1.632,0.146
				c-0.707,0.014-1.437,0.023-2.139-0.09c-0.236-0.039-0.478-0.123-0.66-0.314c-0.091-0.096-0.173-0.239-0.206-0.375
				c-0.074-0.281-0.014-0.586,0.119-0.827C10.819,15.612,10.914,15.477,11.014,15.371z M11.373,15.87
				c0.072,0.03,0.217,0.002,0.294,0.002c0.382,0,0.766-0.072,1.143-0.107c-0.146-0.095-0.35-0.085-0.481-0.192
				c0.125-0.027,0.253-0.068,0.374-0.111c0.146-0.046,0.289-0.129,0.434-0.165c0.127-0.034,0.233,0.135,0.366,0.143
				c-0.013-0.069,0.019-0.131,0.039-0.193c0.042-0.131,0.08-0.267,0.133-0.39c0.036-0.087,0.101-0.252,0.201-0.245
				c-0.196,0.028-0.398,0.136-0.591,0.195c-0.294,0.089-0.589,0.191-0.88,0.297c-0.281,0.102-0.552,0.213-0.82,0.35
				c-0.11,0.053-0.227,0.118-0.311,0.218C11.263,15.724,11.289,15.834,11.373,15.87z M13.334,16.227
				c-0.55,0.062-1.11,0.06-1.655,0.177c0.19,0.146,0.42,0.239,0.639,0.311c0.314,0.104,0.67,0.188,0.991,0.221
				c-0.015-0.073,0.099-0.192,0.131-0.253c0.049-0.089,0.12-0.187,0.153-0.283c-0.101,0.052-0.22,0.097-0.328,0.119
				c-0.064,0.014-0.204,0.052-0.255-0.009c0.025-0.082,0.135-0.107,0.195-0.147C13.251,16.333,13.32,16.32,13.334,16.227z
				 M14.362,16.077c0.019,0.184,0.002,0.363-0.001,0.548c-0.002,0.035-0.005,0.196,0.016,0.227c0.029,0.043,0.044,0.016,0.085,0.002
				c0.333-0.122,0.68-0.197,1.019-0.303c0.188-0.059,0.379-0.127,0.572-0.179c0.113-0.033,0.288-0.056,0.385-0.137
				c0.133-0.11-0.187-0.078-0.235-0.072c-0.243,0.025-0.461,0.082-0.696,0.158c-0.251,0.077-0.507,0.049-0.731-0.098
				c-0.166-0.11-0.019-0.217-0.214-0.182C14.559,16.06,14.354,16.061,14.362,16.077z M14.261,15.556
				c0.175-0.044,0.348-0.114,0.528-0.144c0.133-0.021,0.33-0.088,0.458-0.018c-0.052,0.048-0.179,0.082-0.192,0.172
				c0.063,0.032,0.153,0,0.221-0.006c0.118-0.012,0.234-0.005,0.354-0.011c0.254-0.016,0.511-0.039,0.759-0.106
				c0.054-0.015,0.23-0.054,0.205-0.158c-0.016-0.064-0.222-0.159-0.269-0.183c-0.329-0.177-0.717-0.276-1.078-0.286
				c-0.166-0.006-0.336,0.114-0.474,0.213c-0.085,0.06-0.234,0.091-0.254,0.222C14.45,15.305,14.248,15.439,14.261,15.556z"/>
		</g>
		<g>
			<path fill="none" stroke="#553E31" stroke-width="0.7708" stroke-miterlimit="10" d="M23.871,15.216
				c-0.288-0.111-0.586-0.189-0.89-0.252c-0.172-0.035-0.341-0.069-0.515-0.106c-0.496-0.102-1.004-0.167-1.508-0.12
				c-0.144,0.016-0.287,0.038-0.43,0.073c-0.314,0.078-0.639,0.228-0.913,0.43c-0.446,0.323-0.646,0.771-0.35,1.317
				c0.344,0.645,1.139,0.834,1.729,0.905c0.911,0.111,1.819,0.086,2.722-0.09c0.338-0.064,0.685-0.148,1.009-0.279
				c0.156-0.061,0.441-0.157,0.514-0.363c0.045-0.133,0.022-0.335-0.022-0.459c-0.105-0.276-0.323-0.475-0.534-0.626
				C24.423,15.461,24.152,15.325,23.871,15.216z"/>
			<path fill="none" stroke="#553E31" stroke-width="0.7708" stroke-miterlimit="10" d="M20.061,15.47
				c-0.121,0.086-0.109,0.098-0.091,0.23c0.016,0.13,0.142,0.053,0.209,0.003c0.066-0.051,0.099-0.14,0.088-0.217
				C20.254,15.407,20.184,15.385,20.061,15.47z"/>
			<path fill="none" stroke="#553E31" stroke-width="0.7708" stroke-miterlimit="10" d="M21.79,16.081
				c-0.101,0.073-0.092,0.087-0.068,0.214c0.024,0.129,0.129,0.063,0.182,0.021c0.055-0.043,0.077-0.125,0.064-0.201
				C21.953,16.036,21.89,16.011,21.79,16.081z"/>
			<path fill="none" stroke="#553E31" stroke-width="0.7708" stroke-miterlimit="10" d="M24.428,16.289
				c-0.11,0.021-0.233,0.099-0.163,0.141c0.068,0.042,0.248,0.062,0.345,0.032C24.706,16.434,24.485,16.281,24.428,16.289z"/>
			<path fill="none" stroke="#553E31" stroke-width="0.7708" stroke-miterlimit="10" d="M21.693,15.194
				c-0.114,0.019-0.233,0.098-0.167,0.141c0.068,0.041,0.248,0.063,0.345,0.031C21.97,15.337,21.748,15.185,21.693,15.194z"/>
			<path fill="none" stroke="#553E31" stroke-width="0.7708" stroke-miterlimit="10" d="M20.664,16.789
				c0.065-0.011,0.206,0.024,0.242-0.057c0.035-0.084,0.095-0.185-0.059-0.185c-0.153-0.001-0.333,0.124-0.287,0.152
				C20.608,16.729,20.664,16.789,20.664,16.789z"/>
			<path fill="none" stroke="#553E31" stroke-width="0.7708" stroke-miterlimit="10" d="M22.866,17.014
				c0.1-0.022,0.369-0.048,0.375-0.089c0.007-0.044-0.188-0.224-0.212-0.22c-0.026,0.004-0.179,0.124-0.222,0.14
				C22.766,16.856,22.81,17.025,22.866,17.014z"/>
			<path fill="none" stroke="#553E31" stroke-width="0.7708" stroke-miterlimit="10" d="M23.135,15.622
				c0.066-0.031,0.205,0.07,0.226,0.068c0.022-0.002,0.01,0.192-0.162,0.164c-0.176-0.029-0.226-0.029-0.253-0.086
				C22.92,15.712,23.135,15.622,23.135,15.622z"/>
		</g>
		<g>
			<path fill="none" stroke="#553E31" stroke-width="0.6108" stroke-miterlimit="10" d="M6.843,19.477
				c0.225-0.104,0.456-0.184,0.693-0.252c0.134-0.037,0.271-0.072,0.403-0.111c0.386-0.109,0.788-0.189,1.188-0.18
				c0.113,0.002,0.227,0.012,0.342,0.029c0.255,0.045,0.515,0.145,0.743,0.289c0.364,0.23,0.54,0.572,0.327,1.021
				c-0.246,0.531-0.868,0.725-1.332,0.814c-0.714,0.141-1.435,0.174-2.155,0.086c-0.27-0.033-0.546-0.08-0.811-0.162
				c-0.125-0.041-0.354-0.1-0.419-0.26c-0.041-0.1-0.034-0.262,0-0.363c0.069-0.225,0.235-0.396,0.396-0.525
				C6.416,19.703,6.624,19.578,6.843,19.477z"/>
			<path fill="none" stroke="#553E31" stroke-width="0.6108" stroke-miterlimit="10" d="M9.867,19.459
				c0.099,0.061,0.091,0.07,0.082,0.176c-0.008,0.105-0.109,0.051-0.163,0.014c-0.055-0.033-0.085-0.104-0.08-0.166
				C9.71,19.42,9.766,19.398,9.867,19.459z"/>
			<path fill="none" stroke="#553E31" stroke-width="0.6108" stroke-miterlimit="10" d="M8.523,20.041
				c0.084,0.051,0.078,0.061,0.063,0.166c-0.013,0.102-0.098,0.057-0.142,0.025s-0.067-0.094-0.06-0.154
				C8.394,20.016,8.442,19.99,8.523,20.041z"/>
			<path fill="none" stroke="#553E31" stroke-width="0.6108" stroke-miterlimit="10" d="M6.446,20.355
				c0.088,0.012,0.188,0.064,0.136,0.102c-0.054,0.039-0.193,0.063-0.271,0.049C6.231,20.486,6.402,20.354,6.446,20.355z"/>
			<path fill="none" stroke="#553E31" stroke-width="0.6108" stroke-miterlimit="10" d="M8.566,19.334
				c0.088,0.008,0.188,0.064,0.137,0.102S8.509,19.498,8.43,19.48C8.354,19.465,8.521,19.33,8.566,19.334z"/>
			<path fill="none" stroke="#553E31" stroke-width="0.6108" stroke-miterlimit="10" d="M9.444,20.535
				c-0.052-0.004-0.16,0.033-0.192-0.029c-0.032-0.066-0.085-0.141,0.037-0.152c0.121-0.006,0.269,0.082,0.232,0.107
				C9.486,20.484,9.444,20.535,9.444,20.535z"/>
			<path fill="none" stroke="#553E31" stroke-width="0.6108" stroke-miterlimit="10" d="M7.711,20.84
				c-0.08-0.012-0.293-0.016-0.301-0.047c-0.006-0.035,0.14-0.188,0.159-0.188c0.021,0.002,0.146,0.088,0.181,0.098
				C7.783,20.711,7.756,20.846,7.711,20.84z"/>
			<path fill="none" stroke="#553E31" stroke-width="0.6108" stroke-miterlimit="10" d="M7.444,19.754
				c-0.055-0.02-0.161,0.07-0.178,0.068s0,0.154,0.137,0.119c0.135-0.031,0.177-0.035,0.194-0.082
				C7.615,19.814,7.444,19.754,7.444,19.754z"/>
		</g>
		<g>
			<path fill="#553E31" d="M17.599,13.791c-0.257,0-0.885-0.117-1.417-0.368c-0.645-0.301-0.875-0.947-0.906-1.247
				c-0.038-0.416,0.141-0.678,0.42-0.944c0.109-0.105,0.266-0.159,0.463-0.159c0.25,0,0.521,0.088,0.666,0.17
				c0.169,0.097,0.287,0.214,0.437,0.362l0.1,0.098c0.464-0.109,0.729-0.754,0.731-0.761c0.018-0.045,0.062-0.075,0.11-0.075
				c0.002,0,0.005,0,0.008,0c0.732,0.045,1.248,0.606,1.329,0.821c0.017,0.044,0.008,0.149-0.025,0.182
				c-0.185,0.209-0.888,0.483-1.263,0.612c0.203,0.231,0.446,0.628,0.281,0.925c-0.181,0.328-0.568,0.356-0.8,0.373
				C17.729,13.782,17.602,13.791,17.599,13.791z M16.172,11.421c-0.038,0-0.074,0.006-0.107,0.017
				c-0.189,0.065-0.418,0.224-0.425,0.616c-0.01,0.41,0.201,0.75,0.61,0.981c0.5,0.282,0.775,0.4,1.186,0.406c0,0,0,0,0.001,0
				c0.444,0,0.718-0.124,0.752-0.17c0.021-0.069,0.011-0.274-0.129-0.397c-0.08-0.069-0.156-0.124-0.214-0.16
				c0.001,0.042-0.006,0.085-0.034,0.122c-0.022,0.03-0.096,0.064-0.133,0.064c-0.136,0-0.296-0.143-0.298-0.144
				c-0.096-0.088-0.135-0.177-0.113-0.258c0.012-0.043,0.114-0.124,0.158-0.133c0.182-0.038,0.782-0.179,1.166-0.334
				c0.412-0.165,0.465-0.202,0.504-0.243c0.04-0.042,0.037-0.074-0.037-0.148c-0.179-0.181-0.374-0.378-0.678-0.45
				c-0.038,0.075-0.109,0.182-0.243,0.321c-0.157,0.161-0.563,0.539-0.952,0.573c-0.086,0.009-0.16,0.013-0.224,0.013
				c-0.16,0-0.273-0.025-0.364-0.08c-0.045-0.028-0.095-0.134-0.081-0.186c0.026-0.095,0.129-0.148,0.238-0.166
				C16.602,11.564,16.369,11.421,16.172,11.421z"/>
			<path fill="#553E31" d="M18.202,10.988c0.774,0.048,1.297,0.73,1.228,0.8c-0.196,0.222-1.13,0.565-1.401,0.643
				c0.157,0.129,0.569,0.616,0.399,0.921c-0.167,0.304-0.571,0.299-0.773,0.317c-0.016,0.001-0.034,0.002-0.056,0.002
				c-0.248,0-0.854-0.115-1.366-0.356c-0.558-0.261-0.805-0.828-0.839-1.151c-0.03-0.336,0.091-0.565,0.384-0.845
				c0.096-0.092,0.235-0.126,0.381-0.126c0.232,0,0.483,0.085,0.607,0.155c0.201,0.115,0.329,0.268,0.556,0.484
				C17.894,11.754,18.202,10.988,18.202,10.988 M16.962,11.977c-0.151,0-0.238-0.024-0.302-0.063
				c-0.084-0.05,0.021-0.137,0.181-0.137c0.007,0,0.015,0,0.022,0c0.17,0.011,0.257,0.071,0.257,0.071s-0.068-0.135-0.269-0.264
				c-0.167-0.109-0.433-0.283-0.679-0.283c-0.05,0-0.1,0.007-0.146,0.023c-0.278,0.095-0.499,0.324-0.506,0.727
				c-0.01,0.401,0.171,0.804,0.671,1.087c0.5,0.281,0.8,0.415,1.242,0.421c0.009,0,0.019,0,0.028,0c0.43,0,0.8-0.131,0.836-0.244
				c0.036-0.111,0.022-0.372-0.159-0.532c-0.123-0.107-0.306-0.236-0.389-0.236c-0.041,0-0.059,0.03-0.035,0.107
				c0.027,0.094,0.005,0.125-0.036,0.125c-0.065,0-0.177-0.077-0.218-0.114c-0.067-0.062-0.135-0.158-0.01-0.186
				c0.122-0.025,0.763-0.17,1.186-0.34c0.424-0.17,0.489-0.212,0.546-0.271c0.059-0.062,0.146-0.129-0.039-0.314
				c-0.183-0.184-0.425-0.443-0.839-0.501c0,0-0.013,0.124-0.253,0.374c-0.244,0.25-0.585,0.511-0.877,0.537
				C17.093,11.973,17.022,11.977,16.962,11.977 M18.202,10.749c-0.097,0-0.185,0.059-0.221,0.149
				c-0.065,0.16-0.287,0.558-0.588,0.671l-0.049-0.048c-0.149-0.148-0.279-0.276-0.461-0.38c-0.165-0.093-0.453-0.187-0.726-0.187
				c-0.227,0-0.415,0.066-0.546,0.192c-0.263,0.25-0.5,0.55-0.456,1.038c0.048,0.453,0.373,1.064,0.976,1.346
				c0.554,0.261,1.191,0.378,1.467,0.378c0.031,0,0.059-0.001,0.081-0.004l0.062-0.005c0.238-0.017,0.684-0.049,0.896-0.435
				c0.174-0.311,0.001-0.673-0.188-0.927c0.384-0.139,0.967-0.375,1.159-0.593c0.027-0.026,0.105-0.13,0.042-0.298
				c-0.092-0.244-0.636-0.849-1.434-0.898C18.212,10.75,18.207,10.749,18.202,10.749L18.202,10.749z M16.962,12.215
				c0.067,0,0.145-0.004,0.236-0.014c0.41-0.037,0.818-0.396,1.024-0.608c0.099-0.103,0.167-0.191,0.215-0.265
				c0.223,0.077,0.376,0.231,0.514,0.37c0.01,0.01,0.018,0.018,0.025,0.026c-0.066,0.042-0.182,0.094-0.429,0.193
				c-0.377,0.151-0.968,0.291-1.146,0.328c-0.184,0.04-0.235,0.167-0.25,0.219c-0.023,0.088-0.018,0.225,0.147,0.376
				c0.021,0.019,0.201,0.176,0.379,0.176c0.074,0,0.184-0.052,0.229-0.112c0.001-0.001,0.002-0.002,0.003-0.003
				c0.022,0.018,0.047,0.038,0.071,0.06c0.079,0.07,0.095,0.182,0.094,0.242c-0.083,0.044-0.312,0.116-0.613,0.116
				c-0.408-0.005-0.672-0.12-1.153-0.391c-0.373-0.211-0.559-0.505-0.55-0.873c0.005-0.26,0.12-0.43,0.345-0.506
				c0.021-0.007,0.043-0.011,0.069-0.011c0.1,0,0.219,0.05,0.328,0.109c-0.049,0.041-0.083,0.091-0.099,0.149
				c-0.035,0.124,0.019,0.25,0.135,0.32C16.646,12.185,16.778,12.215,16.962,12.215L16.962,12.215z"/>
		</g>
		<path fill="#553E31" d="M17.602,19.161c-0.115,0.4-0.563,0.582-1,0.408c-0.435-0.178-0.696-0.646-0.581-1.047
			c0.114-0.4,0.562-0.582,0.998-0.406C17.454,18.292,17.716,18.759,17.602,19.161z M16.741,18.251
			c-0.177-0.07-0.355,0.004-0.4,0.164s0.059,0.348,0.235,0.418c0.174,0.072,0.352-0.002,0.398-0.162
			C17.021,18.509,16.916,18.323,16.741,18.251z"/>
		<path fill="#553E31" d="M13.799,20.248c-0.133,0.463-0.648,0.674-1.151,0.471c-0.507-0.203-0.807-0.742-0.673-1.207
			c0.132-0.461,0.646-0.672,1.151-0.469C13.629,19.246,13.933,19.785,13.799,20.248z M12.807,19.199
			c-0.203-0.082-0.411,0.004-0.465,0.189c-0.052,0.184,0.071,0.4,0.271,0.482c0.201,0.082,0.409-0.004,0.461-0.188
			C13.127,19.498,13.008,19.279,12.807,19.199z"/>
		<path fill="#553E31" d="M21.974,12.827c-0.024,0.418-0.414,0.727-0.87,0.689c-0.453-0.039-0.804-0.408-0.777-0.827
			c0.023-0.417,0.41-0.727,0.865-0.686C21.65,12.04,21.997,12.41,21.974,12.827z M20.956,12.214
			c-0.183-0.014-0.339,0.108-0.348,0.276c-0.01,0.167,0.128,0.315,0.313,0.332c0.182,0.015,0.337-0.109,0.348-0.276
			C21.278,12.377,21.141,12.229,20.956,12.214z"/>
	</g>
</g>
<g id="Layer_3">
</g>
</svg>
