<?xml version="1.0" encoding="utf-8"?>
<!-- Generator: Adobe Illustrator 16.0.0, SVG Export Plug-In . SVG Version: 6.00 Build 0)  -->
<!DOCTYPE svg PUBLIC "-//W3C//DTD SVG 1.1//EN" "http://www.w3.org/Graphics/SVG/1.1/DTD/svg11.dtd">
<svg version="1.1" id="Layer_1" xmlns="http://www.w3.org/2000/svg" xmlns:xlink="http://www.w3.org/1999/xlink" x="0px" y="0px"
	 width="24px" height="32px" viewBox="0 0 24 32" enable-background="new 0 0 24 32" xml:space="preserve">
<g enable-background="new    ">
	<path fill="#CDB8AB" d="M8.735,21.117l-0.039-1.004c-0.116-1.971,0.541-3.979,2.279-6.066c1.236-1.468,2.241-2.704,2.241-4.018
		c0-1.353-0.889-2.241-2.82-2.318c-1.275,0-2.82,0.464-3.825,1.159L5.258,4.659c1.391-0.812,3.709-1.584,6.452-1.584
		c5.1,0,7.418,2.82,7.418,6.026c0,2.937-1.815,4.868-3.284,6.491c-1.43,1.584-2.009,3.091-1.971,4.829v0.695H8.735z M7.73,26.449
		c0-2.048,1.43-3.516,3.438-3.516c2.087,0,3.438,1.468,3.478,3.516c0,2.009-1.391,3.516-3.478,3.516
		C9.121,29.965,7.73,28.458,7.73,26.449z"/>
</g>
</svg>
