<?xml version="1.0" encoding="utf-8"?>
<!-- Generator: Adobe Illustrator 16.0.0, SVG Export Plug-In . SVG Version: 6.00 Build 0)  -->
<!DOCTYPE svg PUBLIC "-//W3C//DTD SVG 1.1//EN" "http://www.w3.org/Graphics/SVG/1.1/DTD/svg11.dtd">
<svg version="1.1" id="Layer_1" xmlns="http://www.w3.org/2000/svg" xmlns:xlink="http://www.w3.org/1999/xlink" x="0px" y="0px"
	 width="24px" height="32px" viewBox="0 0 24 32" enable-background="new 0 0 24 32" xml:space="preserve">
<path fill="#CDB8AB" d="M21.16,11.368c0,1.377-0.229,2.739-0.902,3.842c-1.882,3.08-3.59,5.576-3.59,6.459c0,0.072,0,0.143,0,0.214
	h-5.08c-0.628,0-1.138,0.51-1.138,1.138c0,0.628,0.51,1.138,1.138,1.138h5.08c0,0.765,0,1.324,0,1.509
	c0,0.881-3.222,3.831-3.711,3.831c-0.215,0-0.583,0-0.929,0c-0.02,0-0.039,0-0.058,0c-0.346,0-0.714,0-0.929,0
	c-0.489,0-3.711-2.95-3.711-3.831c0-0.354,0-2.072,0-4c0-0.883-1.708-3.379-3.589-6.459c-0.674-1.103-0.902-2.465-0.902-3.842
	C2.84,6.471,6.941,2.5,12,2.5C17.059,2.5,21.16,6.471,21.16,11.368z M18.196,9.239l0.005-0.002
	c-0.008-0.023-0.018-0.043-0.026-0.065c-0.004-0.01-0.008-0.02-0.011-0.029c-0.691-1.754-2.111-3.142-3.888-3.785l-0.001,0.004
	c-0.128-0.048-0.266-0.078-0.41-0.078c-0.645,0-1.168,0.521-1.168,1.167c0,0.5,0.316,0.922,0.758,1.089l-0.003,0.007
	c1.154,0.41,2.08,1.301,2.532,2.435l0.008-0.003c0.156,0.462,0.588,0.796,1.103,0.796c0.645,0,1.167-0.522,1.167-1.167
	C18.261,9.479,18.235,9.355,18.196,9.239z"/>
</svg>
