<?xml version="1.0" encoding="utf-8"?>
<!-- Generator: Adobe Illustrator 16.0.0, SVG Export Plug-In . SVG Version: 6.00 Build 0)  -->
<!DOCTYPE svg PUBLIC "-//W3C//DTD SVG 1.1//EN" "http://www.w3.org/Graphics/SVG/1.1/DTD/svg11.dtd">
<svg version="1.1" id="Layer_1" xmlns="http://www.w3.org/2000/svg" xmlns:xlink="http://www.w3.org/1999/xlink" x="0px" y="0px"
	 width="32px" height="24.584px" viewBox="0 0 32 24.584" enable-background="new 0 0 32 24.584" xml:space="preserve">
<path fill="none" stroke="#553E31" stroke-width="1.2011" stroke-linejoin="bevel" stroke-miterlimit="10" d="M13.837,23.086
	c10.416-1.854,14.07-10.586,14.93-13.167l-0.038-0.035L4.736,1.333c0,0-4.593,4.739-3.45,10.609
	c1.043,5.353,4.972,8.735,7.197,9.668C10.049,22.266,11.865,22.84,13.837,23.086z"/>
<path fill-rule="evenodd" clip-rule="evenodd" fill="#553E31" d="M15.287,19.399c-2.709,0-5.295-1.016-6.283-1.451
	c-2.105-0.936-4.545-3.439-4.98-6.013C3.506,8.877,4.7,6.351,6.086,5.526c0.382-0.227,0.841-0.348,1.327-0.348
	c0.764,0,1.537,0.293,1.968,0.745C9.697,6.254,9.75,6.583,9.74,6.799C9.715,7.318,9.382,7.67,9.059,8.01
	C8.744,8.344,8.386,8.72,8.195,9.342c-0.189,0.614-0.009,1.702,1.062,2.92c1.011,1.152,3.254,1.839,4.837,1.839h0.046
	c1.22-0.01,2.077-0.447,2.293-1.168c0.061-0.208-0.176-0.484-0.518-0.851c-0.286-0.304-0.579-0.618-0.688-1.016
	c-0.085-0.312-0.025-0.622,0.168-0.875c0.334-0.438,1.028-0.652,2.121-0.652c0.468,0,0.981,0.044,1.484,0.125
	c2.107,0.339,3.313,1.523,3.632,1.877c0.75,0.834,0.893,2.318,0.363,3.781c-0.587,1.62-3.116,3.14-5.201,3.742
	C17.033,19.285,16.188,19.399,15.287,19.399z M20.039,13.214c0.42,0.545,0.531,1.162,0.253,1.375
	c-0.281,0.213-0.844-0.055-1.262-0.602c-0.417-0.544-0.531-1.16-0.253-1.373C19.058,12.4,19.623,12.669,20.039,13.214z
	 M17.573,15.64c0.31,0.613,0.307,1.24-0.009,1.398c-0.313,0.157-0.819-0.213-1.13-0.826c-0.309-0.613-0.305-1.237,0.011-1.396
	C16.757,14.656,17.265,15.026,17.573,15.64z M14.494,16.521c0.122,0.677-0.058,1.274-0.403,1.339
	c-0.346,0.062-0.726-0.436-0.848-1.111c-0.123-0.675,0.058-1.274,0.403-1.338C13.991,15.349,14.372,15.846,14.494,16.521z
	 M11.815,16.133c-0.022,0.687-0.327,1.232-0.678,1.221c-0.352-0.012-0.617-0.576-0.594-1.264c0.023-0.688,0.328-1.233,0.679-1.224
	C11.574,14.88,11.839,15.445,11.815,16.133z M9.5,14.977c-0.198,0.617-0.615,1.038-0.931,0.936
	c-0.317-0.102-0.411-0.686-0.213-1.302c0.199-0.618,0.616-1.037,0.932-0.936C9.604,13.775,9.699,14.359,9.5,14.977z M7.617,13.252
	c-0.38,0.42-0.862,0.604-1.078,0.41c-0.216-0.196-0.082-0.695,0.298-1.114c0.38-0.421,0.862-0.604,1.077-0.41
	C8.131,12.333,7.998,12.832,7.617,13.252z M6.333,11.204c-0.493,0.125-0.954-0.013-1.028-0.309c-0.075-0.294,0.265-0.636,0.759-0.76
	c0.493-0.125,0.955,0.013,1.029,0.309C7.167,10.739,6.827,11.079,6.333,11.204z M6.655,8.573C6.185,8.516,5.833,8.227,5.87,7.923
	c0.036-0.303,0.446-0.501,0.916-0.445c0.47,0.055,0.821,0.346,0.786,0.648C7.535,8.429,7.125,8.628,6.655,8.573z"/>
<path fill="#553E31" stroke="#553E31" stroke-width="1.2011" stroke-linejoin="bevel" stroke-miterlimit="10" d="M30.417,15.604
	c0.687-1.258,0.687-3.662,0.687-3.662l-2.336-2.023c-0.86,2.581-4.514,11.313-14.93,13.167c2.712,0.342,5.723,0.063,8.801-1.476
	C27.958,18.949,29.73,16.863,30.417,15.604z"/>
</svg>
