<?xml version="1.0" encoding="utf-8"?>
<!-- Generator: Adobe Illustrator 16.0.0, SVG Export Plug-In . SVG Version: 6.00 Build 0)  -->
<!DOCTYPE svg PUBLIC "-//W3C//DTD SVG 1.1//EN" "http://www.w3.org/Graphics/SVG/1.1/DTD/svg11.dtd">
<svg version="1.1" id="Layer_1" xmlns="http://www.w3.org/2000/svg" xmlns:xlink="http://www.w3.org/1999/xlink" x="0px" y="0px"
	 width="155px" height="50px" viewBox="0 0 155 50" enable-background="new 0 0 155 50" xml:space="preserve">
<g>
	<g>
		<g>
			<ellipse fill="#CDB8AB" cx="97.375" cy="42.73" rx="14.875" ry="5.556"/>
			<path fill="#563F32" d="M97.375,48.286c-8.216,0-14.876-2.488-14.876-5.557v1.852c0,3.067,6.66,5.557,14.876,5.557
				c8.215,0,14.875-2.488,14.875-5.557v-1.852C112.25,45.798,105.589,48.286,97.375,48.286z"/>
		</g>
		<path fill="#EBDFD5" d="M89.937,2.916v38.425c0,1.535,3.33,2.779,7.438,2.779c4.106,0,7.438-1.244,7.438-2.779V2.916H89.937z"/>
		<ellipse fill="#CDB8AB" cx="97.375" cy="2.916" rx="7.438" ry="2.777"/>
		<g>
			<path fill="#563F32" d="M82.499,27.829v-5.08h1.304v3.615h1.049v-3.438h1.277v3.438h1.918v1.465H82.499z"/>
			<path fill="#563F32" d="M88.046,16.881l-0.939,0.412v3.18l0.939,0.412v1.673l-5.548-2.55v-2.274l5.548-2.515V16.881z
				 M85.892,17.807l-2.102,0.927v0.292l2.102,0.926V17.807z"/>
			<path fill="#563F32" d="M82.499,15.443V9.625h1.414v2.138h4.134v1.539h-4.134v2.141H82.499z"/>
		</g>
	</g>
	<g>
		<g>
			<ellipse fill="#CDB8AB" cx="135.124" cy="42.73" rx="14.876" ry="5.556"/>
			<path fill="#563F32" d="M135.124,48.286c-8.216,0-14.876-2.488-14.876-5.557v1.852c0,3.067,6.66,5.557,14.876,5.557
				S150,47.649,150,44.581v-1.852C150,45.798,143.339,48.286,135.124,48.286z"/>
		</g>
		<path fill="#EBDFD5" d="M127.685,2.916v38.425c0,1.535,3.33,2.779,7.438,2.779s7.438-1.244,7.438-2.779V2.916H127.685z"/>
		<ellipse fill="#CDB8AB" cx="135.124" cy="2.916" rx="7.438" ry="2.777"/>
		<g>
			<path fill="#563F32" d="M124.044,32.047v-1.419c0.273,0.003,0.449-0.047,0.527-0.145c0.039-0.052,0.064-0.111,0.078-0.177
				s0.021-0.181,0.026-0.345c0.005-0.082,0.007-0.352,0.009-0.807c-0.002-0.625-0.006-0.986-0.013-1.086
				c-0.016-0.185-0.044-0.307-0.085-0.365c-0.061-0.082-0.191-0.123-0.398-0.123c-0.141,0-0.238,0.025-0.295,0.078
				c-0.08,0.069-0.121,0.237-0.127,0.502c0,0.185-0.017,0.566-0.05,1.148c-0.032,0.602-0.051,0.99-0.057,1.169
				c-0.017,0.466-0.078,0.792-0.188,0.982c-0.137,0.243-0.373,0.403-0.707,0.479c-0.184,0.042-0.425,0.063-0.723,0.063
				c-0.629,0-1.072-0.104-1.33-0.311c-0.193-0.154-0.322-0.39-0.385-0.703c-0.055-0.285-0.082-0.961-0.082-2.028
				c0-0.695,0.023-1.187,0.068-1.472c0.063-0.379,0.172-0.65,0.326-0.817c0.213-0.226,0.598-0.339,1.149-0.339
				c0.06,0,0.153,0.002,0.284,0.004v1.42c-0.133,0.004-0.225,0.013-0.276,0.023c-0.151,0.032-0.237,0.142-0.256,0.323
				c-0.017,0.162-0.024,0.558-0.024,1.185c0,0.619,0.021,0.986,0.062,1.103c0.05,0.129,0.175,0.192,0.378,0.192
				c0.195,0,0.314-0.067,0.357-0.203c0.035-0.115,0.069-0.633,0.102-1.553c0.027-0.834,0.063-1.365,0.102-1.597
				c0.041-0.231,0.103-0.417,0.185-0.555c0.081-0.138,0.196-0.247,0.346-0.329c0.22-0.124,0.572-0.188,1.062-0.188
				c0.545,0,0.943,0.063,1.199,0.185c0.252,0.122,0.424,0.321,0.516,0.599c0.093,0.272,0.139,1.022,0.139,2.25
				c0,0.746-0.023,1.285-0.068,1.616c-0.055,0.403-0.16,0.693-0.317,0.869c-0.168,0.19-0.404,0.303-0.711,0.338
				c-0.148,0.021-0.325,0.028-0.528,0.028h-0.293V32.047z"/>
			<path fill="#563F32" d="M125.88,19.901l-0.938,0.412v3.181l0.938,0.412v1.672l-5.547-2.549v-2.274l5.547-2.515V19.901z
				 M123.726,20.826l-2.101,0.927v0.292l2.101,0.926V20.826z"/>
			<path fill="#563F32" d="M120.333,17.479v-1.539h4.133v-3.419h1.414v4.958H120.333z"/>
			<path fill="#563F32" d="M120.333,12.812V6.994h1.414v2.138h4.133v1.539h-4.133v2.141H120.333z"/>
		</g>
	</g>
	<g>
		<g>
			<ellipse fill="#CDB8AB" cx="21.875" cy="42.73" rx="14.876" ry="5.556"/>
			<path fill="#563F32" d="M21.875,48.286C13.661,48.286,7,45.798,7,42.73v1.853c0,3.066,6.661,5.555,14.876,5.555
				s14.876-2.488,14.876-5.557v-1.852C36.751,45.798,30.09,48.286,21.875,48.286z"/>
		</g>
		<path fill="#EBDFD5" d="M14.438,2.916v38.425c0,1.535,3.33,2.779,7.438,2.779s7.438-1.244,7.438-2.779V2.916H14.438z"/>
		<ellipse fill="#CDB8AB" cx="21.875" cy="2.916" rx="7.438" ry="2.777"/>
		<g>
			<path fill="#563F32" d="M10.492,27.384v-1.465c0.271-0.01,0.457-0.014,0.557-0.014c0.404,0,0.728,0.056,0.972,0.166
				c0.254,0.113,0.432,0.334,0.533,0.657c0.11,0.354,0.166,0.968,0.166,1.839c0,0.959-0.018,1.606-0.053,1.939
				c-0.03,0.311-0.077,0.554-0.143,0.732c-0.064,0.178-0.16,0.325-0.284,0.442c-0.168,0.157-0.39,0.257-0.667,0.3
				c-0.29,0.047-0.848,0.07-1.675,0.07c-0.793,0-1.329-0.018-1.605-0.053c-0.415-0.053-0.715-0.191-0.903-0.42
				c-0.141-0.174-0.241-0.45-0.3-0.83C7.029,30.356,7,29.648,7,28.627c0-0.607,0.015-1.041,0.045-1.3
				c0.043-0.39,0.13-0.674,0.26-0.853c0.16-0.221,0.392-0.36,0.695-0.419c0.217-0.042,0.467-0.063,0.752-0.063
				c0.049,0,0.156,0.002,0.321,0.004v1.465c-0.135,0.005-0.227,0.01-0.276,0.014c-0.165,0.02-0.269,0.084-0.313,0.193
				c-0.064,0.167-0.097,0.623-0.097,1.367c0,0.506,0.016,0.855,0.049,1.049c0.038,0.234,0.186,0.381,0.443,0.437
				c0.209,0.046,0.544,0.067,1.008,0.067c0.477,0,0.807-0.021,0.988-0.067c0.236-0.056,0.373-0.211,0.411-0.465
				c0.03-0.206,0.044-0.569,0.044-1.088c0-0.562-0.013-0.942-0.041-1.147c-0.024-0.192-0.104-0.313-0.24-0.365
				C10.935,27.411,10.749,27.389,10.492,27.384z"/>
			<path fill="#563F32" d="M12.632,19.639l-0.939,0.412v3.18l0.939,0.412v1.673l-5.548-2.55v-2.274l5.548-2.515V19.639z
				 M10.479,20.566l-2.102,0.926v0.292l2.102,0.927V20.566z"/>
			<path fill="#563F32" d="M7.084,17.218v-1.539h4.133V12.26h1.415v4.958H7.084L7.084,17.218z"/>
			<path fill="#563F32" d="M10.795,11.554v-1.419c0.274,0.002,0.45-0.046,0.528-0.145c0.038-0.052,0.064-0.11,0.077-0.176
				c0.015-0.066,0.024-0.18,0.029-0.345c0.003-0.082,0.006-0.351,0.008-0.806c-0.002-0.625-0.006-0.986-0.012-1.085
				c-0.016-0.185-0.044-0.307-0.085-0.366c-0.059-0.082-0.192-0.123-0.398-0.123c-0.141,0-0.24,0.025-0.297,0.077
				c-0.078,0.07-0.12,0.238-0.125,0.504c0,0.183-0.017,0.565-0.049,1.147c-0.033,0.602-0.052,0.992-0.057,1.17
				c-0.016,0.465-0.079,0.793-0.187,0.982c-0.138,0.244-0.374,0.404-0.708,0.479c-0.184,0.042-0.425,0.063-0.724,0.063
				c-0.628,0-1.071-0.104-1.329-0.311c-0.195-0.154-0.324-0.39-0.386-0.704C7.026,10.213,7,9.537,7,8.469
				c0-0.694,0.023-1.186,0.069-1.472C7.13,6.619,7.24,6.347,7.394,6.181c0.214-0.226,0.598-0.338,1.151-0.338
				c0.06,0,0.154,0.001,0.284,0.003v1.419C8.695,7.27,8.604,7.278,8.553,7.289C8.4,7.323,8.315,7.431,8.296,7.614
				C8.281,7.776,8.271,8.17,8.271,8.797c0,0.619,0.021,0.987,0.061,1.102c0.049,0.13,0.175,0.194,0.377,0.194
				c0.195,0,0.315-0.068,0.358-0.205c0.036-0.114,0.07-0.632,0.102-1.553C9.196,7.502,9.231,6.97,9.271,6.74
				c0.041-0.232,0.102-0.416,0.184-0.554C9.536,6.048,9.65,5.938,9.8,5.856c0.219-0.125,0.573-0.187,1.06-0.187
				c0.545,0,0.944,0.061,1.199,0.183c0.252,0.122,0.424,0.322,0.516,0.599c0.092,0.272,0.138,1.022,0.138,2.25
				c0,0.747-0.023,1.285-0.069,1.616c-0.054,0.404-0.16,0.694-0.316,0.87c-0.168,0.19-0.406,0.303-0.711,0.338
				c-0.149,0.019-0.325,0.028-0.529,0.028H10.795z"/>
		</g>
	</g>
	<g>
		<g>
			<ellipse fill="#CDB8AB" cx="59.625" cy="42.73" rx="14.876" ry="5.556"/>
			<path fill="#563F32" d="M59.625,48.286c-8.215,0-14.876-2.488-14.876-5.557v1.852c0.001,3.068,6.661,5.557,14.876,5.557
				S74.5,47.649,74.5,44.581v-1.852C74.5,45.798,67.84,48.286,59.625,48.286z"/>
		</g>
		<path fill="#EBDFD5" d="M52.188,2.916v38.425c0,1.535,3.33,2.779,7.438,2.779s7.438-1.244,7.438-2.779V2.916H52.188z"/>
		<ellipse fill="#CDB8AB" cx="59.625" cy="2.916" rx="7.438" ry="2.777"/>
		<g>
			<path fill="#563F32" d="M48.545,37.962v-1.42c0.273,0.003,0.45-0.045,0.528-0.145c0.038-0.052,0.063-0.109,0.078-0.177
				c0.013-0.065,0.022-0.181,0.028-0.345c0.002-0.082,0.005-0.352,0.008-0.807c-0.002-0.625-0.007-0.986-0.012-1.084
				c-0.016-0.187-0.045-0.309-0.085-0.367c-0.059-0.082-0.192-0.123-0.398-0.123c-0.142,0-0.24,0.025-0.297,0.078
				c-0.079,0.069-0.121,0.237-0.126,0.502c0,0.185-0.016,0.566-0.048,1.148c-0.032,0.602-0.052,0.99-0.057,1.169
				c-0.016,0.466-0.078,0.792-0.187,0.981c-0.138,0.244-0.374,0.404-0.708,0.479c-0.185,0.043-0.425,0.063-0.723,0.063
				c-0.629,0-1.072-0.104-1.329-0.311c-0.195-0.154-0.324-0.39-0.387-0.703c-0.054-0.285-0.081-0.961-0.081-2.029
				c0-0.694,0.023-1.186,0.069-1.471c0.063-0.379,0.171-0.65,0.326-0.817c0.214-0.226,0.597-0.339,1.15-0.339
				c0.059,0,0.154,0.002,0.284,0.004v1.42c-0.133,0.005-0.225,0.013-0.276,0.023c-0.152,0.033-0.237,0.142-0.256,0.324
				c-0.016,0.162-0.025,0.557-0.025,1.184c0,0.619,0.021,0.986,0.061,1.103c0.049,0.129,0.175,0.192,0.378,0.192
				c0.195,0,0.314-0.066,0.357-0.203c0.035-0.115,0.069-0.633,0.102-1.553c0.027-0.834,0.061-1.365,0.102-1.597
				c0.04-0.231,0.102-0.417,0.182-0.554c0.082-0.139,0.197-0.247,0.346-0.329c0.22-0.125,0.573-0.188,1.061-0.188
				c0.545,0,0.944,0.063,1.199,0.185c0.252,0.122,0.425,0.321,0.516,0.599c0.092,0.272,0.138,1.022,0.138,2.25
				c0,0.746-0.023,1.285-0.069,1.616c-0.054,0.403-0.16,0.692-0.317,0.869c-0.168,0.19-0.405,0.304-0.711,0.339
				c-0.149,0.02-0.325,0.027-0.528,0.027h-0.293V37.962z"/>
			<path fill="#563F32" d="M44.834,31.055V29.59h2.548c0.585-0.009,0.956-0.025,1.109-0.054c0.263-0.047,0.417-0.207,0.464-0.479
				c0.043-0.249,0.065-0.625,0.065-1.13c0-0.521-0.018-0.889-0.053-1.1c-0.054-0.308-0.257-0.479-0.609-0.515
				c-0.285-0.028-0.61-0.042-0.976-0.042h-2.548v-1.463h2.548c0.889,0.018,1.47,0.041,1.744,0.074
				c0.46,0.059,0.801,0.251,1.02,0.576c0.16,0.242,0.258,0.647,0.292,1.22c0.017,0.263,0.024,0.674,0.024,1.231
				c0,0.824-0.027,1.41-0.081,1.758c-0.041,0.263-0.097,0.472-0.169,0.627c-0.071,0.154-0.174,0.285-0.307,0.395
				c-0.182,0.147-0.409,0.242-0.683,0.285c-0.312,0.047-0.688,0.071-1.13,0.073l-0.711,0.008H44.834z"/>
			<path fill="#563F32" d="M47.236,20.697v-3.349c0.122-0.005,0.2-0.007,0.235-0.007c0.727,0,1.287,0.018,1.683,0.053
				c0.639,0.057,1.026,0.371,1.162,0.943c0.068,0.296,0.108,0.62,0.122,0.972c0.017,0.374,0.024,0.816,0.024,1.328
				c0,0.908-0.038,1.558-0.113,1.946c-0.103,0.541-0.391,0.875-0.862,1.004c-0.23,0.063-0.495,0.1-0.792,0.109
				c-0.374,0.012-0.772,0.018-1.195,0.018c-0.715,0-1.218-0.029-1.508-0.088c-0.403-0.086-0.688-0.23-0.854-0.438
				c-0.089-0.107-0.158-0.242-0.206-0.406c-0.047-0.164-0.085-0.395-0.116-0.691c-0.043-0.42-0.064-0.988-0.064-1.704
				c0-0.921,0.042-1.572,0.126-1.954c0.084-0.388,0.233-0.66,0.447-0.817c0.192-0.139,0.496-0.223,0.911-0.254
				c0.111-0.007,0.281-0.011,0.512-0.011v1.465c-0.151,0.003-0.254,0.01-0.309,0.021c-0.138,0.033-0.221,0.138-0.248,0.313
				c-0.035,0.232-0.053,0.69-0.053,1.373c0,0.608,0.024,1.029,0.07,1.265c0.046,0.223,0.187,0.357,0.423,0.405
				c0.178,0.037,0.497,0.057,0.955,0.057c0.525,0,0.884-0.021,1.077-0.061c0.257-0.052,0.401-0.212,0.43-0.479
				c0.014-0.131,0.026-0.527,0.037-1.189c-0.005-0.724-0.021-1.189-0.049-1.398c-0.035-0.189-0.131-0.299-0.288-0.327
				c-0.098-0.017-0.247-0.024-0.447-0.024v1.926L47.236,20.697L47.236,20.697z"/>
			<path fill="#563F32" d="M50.382,11.071l-0.939,0.412v3.18l0.939,0.412v1.673l-5.548-2.55v-2.274l5.548-2.514V11.071z
				 M48.229,11.997l-2.102,0.926v0.292l2.102,0.927V11.997z"/>
			<path fill="#563F32" d="M50.382,8.65h-5.548V5.111c0.003-0.835,0.012-1.328,0.029-1.479c0.019-0.172,0.076-0.327,0.172-0.467
				c0.096-0.14,0.219-0.248,0.368-0.325c0.16-0.08,0.327-0.128,0.5-0.145c0.203-0.021,0.448-0.032,0.736-0.032
				c0.452,0,0.768,0.027,0.947,0.081c0.266,0.083,0.449,0.237,0.552,0.465c0.035,0.078,0.067,0.194,0.094,0.349
				c0.027-0.308,0.128-0.528,0.305-0.662c0.079-0.059,0.169-0.1,0.271-0.125c0.101-0.024,0.25-0.041,0.445-0.051
				c0.1-0.002,0.305-0.004,0.613-0.004h0.517V4.16h-0.297c-0.33,0-0.567,0.013-0.711,0.038c-0.205,0.038-0.327,0.133-0.366,0.285
				c-0.024,0.102-0.036,0.314-0.036,0.638v2.063h1.41L50.382,8.65L50.382,8.65z M47.586,7.185v-2.06
				c-0.006-0.308-0.011-0.489-0.017-0.546c-0.014-0.207-0.086-0.337-0.22-0.391c-0.092-0.038-0.248-0.057-0.467-0.057
				c-0.19,0-0.331,0.017-0.423,0.049c-0.136,0.05-0.212,0.168-0.228,0.356c-0.005,0.065-0.009,0.263-0.012,0.591v2.057L47.586,7.185
				L47.586,7.185z"/>
		</g>
	</g>
</g>
<rect y="-0.135" opacity="0.6" fill="#FFFFFF" width="155" height="50"/>
</svg>
