<?xml version="1.0" encoding="utf-8"?>
<!-- Generator: Adobe Illustrator 16.0.0, SVG Export Plug-In . SVG Version: 6.00 Build 0)  -->
<!DOCTYPE svg PUBLIC "-//W3C//DTD SVG 1.1//EN" "http://www.w3.org/Graphics/SVG/1.1/DTD/svg11.dtd">
<svg version="1.1" id="Layer_1" xmlns="http://www.w3.org/2000/svg" xmlns:xlink="http://www.w3.org/1999/xlink" x="0px" y="0px"
	 width="60px" height="60px" viewBox="0 0 60 60" enable-background="new 0 0 60 60" xml:space="preserve">
<g>
	<defs>
		<path id="SVGID_31_" d="M31.016,54.02C17.771,54.02,6.995,43.245,6.995,30S17.771,5.98,31.016,5.98S55.036,16.755,55.036,30
			S44.261,54.02,31.016,54.02z"/>
	</defs>
	<clipPath id="SVGID_2_">
		<use xlink:href="#SVGID_31_"  overflow="visible"/>
	</clipPath>
	<polygon clip-path="url(#SVGID_2_)" fill="#CDB8AB" stroke="#553E31" stroke-miterlimit="10" points="-8.978,52.584 62.522,63.084 
		66.272,2.501 14.022,-2.166 	"/>
	<path clip-path="url(#SVGID_2_)" fill="#553E31" d="M8.364,44.759l32.038,3.894c0,0,1.976,0.069,2.992,1.217
		c1.019,1.145,0.684,2.792,0.684,2.792l-0.651,12.093L4.336,59.242L8.364,44.759z"/>
	<polygon clip-path="url(#SVGID_2_)" fill="#EBE0D5" stroke="#553E31" stroke-width="1.0285" stroke-miterlimit="10" points="
		8.941,11.464 63.619,15.407 62.371,46.274 1.604,39.333 	"/>
	<g clip-path="url(#SVGID_2_)">
		<defs>
			<path id="XMLID_4_" d="M48.099,30.179v-9.546c0-0.967-0.786-1.754-1.752-1.754c-0.97,0-1.754,0.787-1.754,1.754v9.546
				c-1.532,0.673-2.602,2.203-2.602,3.983c0,2.406,1.948,4.355,4.355,4.355c2.404,0,4.353-1.949,4.353-4.355
				C50.699,32.382,49.631,30.852,48.099,30.179z"/>
		</defs>
		<use xlink:href="#XMLID_4_"  overflow="visible" fill="#EBE0D5"/>
		<clipPath id="XMLID_2_">
			<use xlink:href="#XMLID_4_"  overflow="visible"/>
		</clipPath>
		<rect x="41.096" y="26.116" clip-path="url(#XMLID_2_)" fill="#553E31" width="10.139" height="13"/>
		
			<line clip-path="url(#XMLID_2_)" fill="none" stroke="#553E31" stroke-width="0.7963" stroke-miterlimit="10" x1="46.425" y1="21.248" x2="48.099" y2="21.248"/>
		
			<line clip-path="url(#XMLID_2_)" fill="none" stroke="#553E31" stroke-width="0.7963" stroke-miterlimit="10" x1="46.425" y1="23.222" x2="48.099" y2="23.222"/>
		
			<line clip-path="url(#XMLID_2_)" fill="none" stroke="#553E31" stroke-width="0.7963" stroke-miterlimit="10" x1="46.425" y1="25.197" x2="48.099" y2="25.197"/>
		
			<line clip-path="url(#XMLID_2_)" fill="none" stroke="#CDB8AB" stroke-width="0.7963" stroke-miterlimit="10" x1="46.425" y1="27.171" x2="48.099" y2="27.171"/>
		
			<line clip-path="url(#XMLID_2_)" fill="none" stroke="#CDB8AB" stroke-width="0.7963" stroke-miterlimit="10" x1="46.425" y1="29.146" x2="48.099" y2="29.146"/>
		
			<use xlink:href="#XMLID_4_"  overflow="visible" fill="none" stroke="#553E31" stroke-width="0.7963" stroke-linecap="round" stroke-linejoin="round" stroke-miterlimit="10"/>
	</g>
	<g clip-path="url(#SVGID_2_)">
		<path fill="#EBE0D5" d="M47.703,35.485l0.944,0.297c-0.145,0.526-0.385,0.918-0.722,1.174c-0.336,0.254-0.763,0.382-1.281,0.382
			c-0.639,0-1.165-0.219-1.577-0.655c-0.412-0.438-0.618-1.036-0.618-1.793c0-0.802,0.207-1.426,0.621-1.869
			c0.413-0.443,0.958-0.666,1.635-0.666c0.588,0,1.067,0.174,1.435,0.523c0.221,0.205,0.385,0.502,0.494,0.887l-0.963,0.231
			c-0.057-0.251-0.176-0.448-0.357-0.592c-0.182-0.146-0.398-0.217-0.659-0.217c-0.356,0-0.646,0.127-0.868,0.383
			c-0.223,0.258-0.334,0.672-0.334,1.248c0,0.606,0.109,1.041,0.329,1.3s0.503,0.388,0.855,0.388c0.258,0,0.48-0.081,0.666-0.245
			C47.488,36.095,47.622,35.837,47.703,35.485z"/>
	</g>
	
		<circle clip-path="url(#SVGID_2_)" fill="none" stroke="#EBE0D5" stroke-width="0.35" stroke-miterlimit="10" cx="44.722" cy="31.93" r="0.512"/>
	<g clip-path="url(#SVGID_2_)">
		<g>
			<path fill="#CDB8AB" d="M32.802,37.359c-3.696,0-6.704-3.821-6.704-8.52c0-4.697,3.007-8.519,6.704-8.519
				s6.704,3.821,6.704,8.519C39.506,33.538,36.498,37.359,32.802,37.359z"/>
			<path fill="#553E31" d="M32.802,20.921c3.373,0,6.104,3.546,6.104,7.919s-2.731,7.92-6.104,7.92s-6.104-3.547-6.104-7.92
				S29.429,20.921,32.802,20.921 M32.802,19.722c-4.027,0-7.304,4.09-7.304,9.118s3.276,9.119,7.304,9.119s7.304-4.091,7.304-9.119
				S36.829,19.722,32.802,19.722L32.802,19.722z"/>
		</g>
		<g>
			<g>
				<path fill="#553E31" d="M26.136,16.718c0.529-0.524,1.186-0.588,1.844-0.777c0.661-0.166,1.36-0.315,2.086-0.38
					c1.466-0.138,2.917,0.159,4.212,0.603c1.303,0.423,2.611,1.216,3.566,2.203c0.979,0.995,1.727,2.172,2.182,3.461
					c0.041,0.117-0.021,0.246-0.139,0.287c-0.107,0.038-0.227-0.011-0.275-0.111l-0.004-0.008c-0.574-1.14-1.418-2.146-2.402-2.913
					c-0.494-0.382-1.029-0.7-1.588-0.947c-0.535-0.238-1.137-0.413-1.752-0.563c-1.227-0.307-2.436-0.426-3.602-0.248
					c-0.586,0.081-1.175,0.236-1.784,0.422c-0.612,0.164-1.215,0.493-1.955,0.328c-0.433-0.097-0.705-0.526-0.608-0.959
					C25.951,16.959,26.03,16.822,26.136,16.718z"/>
			</g>
			<g>
				<path fill="#553E31" d="M29.35,14.719c-0.549,0.393-1.061,0.869-1.461,1.376c-0.399,0.506-0.681,1.072-0.718,1.563v0.001
					l-0.144-0.802c0.08,0.177,0.343,0.476,0.577,0.685c0.249,0.225,0.531,0.427,0.837,0.604c0.615,0.342,1.321,0.58,2.066,0.698
					c0.14,0.021,0.238,0.15,0.216,0.29c-0.016,0.117-0.113,0.204-0.224,0.218c-0.8,0.09-1.636,0.054-2.468-0.147
					c-0.413-0.105-0.824-0.253-1.223-0.45c-0.409-0.216-0.757-0.404-1.177-0.818c-0.171-0.169-0.232-0.408-0.184-0.627l0.04-0.175
					l0,0c0.388-0.857,1.015-1.429,1.644-1.865c0.642-0.435,1.305-0.749,2.012-0.982c0.127-0.042,0.264,0.026,0.306,0.153
					c0.033,0.103-0.006,0.212-0.089,0.272L29.35,14.719z"/>
			</g>
		</g>
		
			<path fill="#CDB8AB" stroke="#553E31" stroke-width="0.805" stroke-linecap="round" stroke-linejoin="round" stroke-miterlimit="10" d="
			M-9.065,44.671c0,0,8.699-5.908,9.874-7.449c1.174-1.543,5.432-6.241,6.533-8.039c1.102-1.8,2.569-3.635,3.487-4.735
			c0.917-1.102,1.871-1.944,3.523-1.395c1.652,0.551,2.607,0.808,3.671,0.808c1.063,0,1.541,0.109,3.046-0.478
			c1.505-0.588,2.385-0.844,3.818-0.991c1.429-0.146,2.222-0.325,3.046,0c0.698,0.275,0.992,1.029,1.156,1.596
			c0.166,0.57,0.945,2.34,1.101,2.644c0.213,0.409,0.15,0.938-0.153,1.491c-0.25,0.458-1.021,1.207-1.021,1.207l-0.605,0.876
			l-7.029,4.777L1.323,53.095L-9.065,44.671z"/>
		
			<path fill="none" stroke="#553E31" stroke-width="0.805" stroke-linecap="round" stroke-linejoin="round" stroke-miterlimit="10" d="
			M25.844,27.828c0,0-0.266,0.547-0.984,0.766c-0.63,0.191-1.625,0.547-2.094,0.313c-0.094,0.563-0.247,1.193-1.072,1.653
			c-0.826,0.457-1.218,0.767-1.788,0.878"/>
		
			<path fill="none" stroke="#553E31" stroke-width="0.805" stroke-linecap="round" stroke-linejoin="round" stroke-miterlimit="10" d="
			M26.594,29.75c-0.875,0.024-0.786,0.052-1.079-0.775c0,0-0.129-0.169,0-0.607"/>
		
			<path fill="none" stroke="#553E31" stroke-width="0.805" stroke-linecap="round" stroke-linejoin="round" stroke-miterlimit="10" d="
			M23.803,30.687c-1.045,0.662-1.32,0.882-1.32,0.882s-1.058,0.143-1.933-0.379"/>
		
			<path fill="none" stroke="#553E31" stroke-width="0.805" stroke-linecap="round" stroke-linejoin="round" stroke-miterlimit="10" d="
			M22.483,31.568c0,0-0.378,1.465,0.333,2.604"/>
		
			<path fill="none" stroke="#553E31" stroke-width="0.805" stroke-linecap="round" stroke-linejoin="round" stroke-miterlimit="10" d="
			M25.844,29.609c0,0-0.453,0.922-0.484,1.422c-0.256,0.42-0.144,0.548-0.029,1.059"/>
		
			<path fill="#CDB8AB" stroke="#553E31" stroke-width="0.6587" stroke-linecap="round" stroke-linejoin="round" stroke-miterlimit="10" d="
			M12.308,26.848c0.556-0.379,1.458-1.453,2.392-1.796c0.936-0.343,1.268-0.058,2.083-0.291"/>
		
			<ellipse fill="#CDB8AB" stroke="#553E31" stroke-width="1.0817" stroke-linecap="round" stroke-linejoin="round" stroke-miterlimit="10" cx="32.744" cy="28.941" rx="2.564" ry="4.334"/>
		<ellipse fill="#553E31" cx="32.802" cy="22.618" rx="0.687" ry="0.894"/>
		<path fill="#553E31" d="M30.755,23.191c0.11,0.25,0.042,0.57-0.149,0.712c-0.192,0.146-0.439,0.06-0.55-0.188
			c-0.112-0.251-0.046-0.57,0.148-0.716C30.395,22.855,30.642,22.941,30.755,23.191z"/>
		<path fill="#553E31" d="M30.217,25.803c0.134,0.122,0.179,0.396,0.101,0.609c-0.076,0.213-0.248,0.285-0.382,0.162
			c-0.133-0.122-0.179-0.395-0.101-0.607C29.912,25.753,30.082,25.681,30.217,25.803z"/>
		<path fill="#553E31" d="M29.937,31.105c0.133-0.124,0.305-0.05,0.381,0.162c0.078,0.213,0.033,0.486-0.101,0.607
			c-0.135,0.124-0.305,0.052-0.382-0.161C29.757,31.5,29.803,31.228,29.937,31.105z"/>
		<path fill="#553E31" d="M31.051,33.209c0.078-0.214,0.248-0.287,0.382-0.164c0.133,0.123,0.179,0.396,0.103,0.609
			c-0.077,0.213-0.249,0.286-0.382,0.163C31.02,33.694,30.974,33.422,31.051,33.209z"/>
		<path fill="#553E31" d="M34.851,34.488c-0.111-0.25-0.045-0.57,0.149-0.715c0.191-0.144,0.438-0.058,0.548,0.192
			s0.047,0.569-0.147,0.715C35.208,34.824,34.961,34.738,34.851,34.488z"/>
		<path fill="#553E31" d="M36.753,32.401c-0.191-0.142-0.257-0.464-0.147-0.713c0.11-0.249,0.358-0.336,0.553-0.19
			c0.191,0.144,0.257,0.463,0.145,0.714C37.194,32.462,36.945,32.547,36.753,32.401z"/>
		<path fill="#553E31" d="M37.157,26.182c-0.193,0.145-0.441,0.06-0.552-0.19c-0.109-0.249-0.044-0.572,0.147-0.715
			c0.192-0.144,0.441-0.059,0.55,0.192C37.415,25.719,37.35,26.038,37.157,26.182z"/>
		<path fill="#553E31" d="M35.548,23.715c-0.11,0.248-0.356,0.335-0.548,0.188c-0.194-0.142-0.261-0.462-0.149-0.712
			c0.112-0.25,0.357-0.336,0.55-0.192C35.595,23.145,35.658,23.464,35.548,23.715z"/>
		<ellipse fill="#553E31" cx="29.633" cy="28.84" rx="0.475" ry="0.761"/>
		<ellipse fill="#553E31" cx="32.802" cy="35.062" rx="0.687" ry="0.894"/>
		<ellipse fill="#553E31" cx="37.598" cy="28.839" rx="0.688" ry="0.892"/>
		<path fill="#EBE0D5" stroke="#553E31" stroke-width="1.0817" stroke-miterlimit="10" d="M32.726,24.898
			c-0.286-0.583-4.82-0.133-5.103,3.889c-0.219,3.117,1.633,3.396,1.633,3.396s1.756,1.207,2.728,0.845
			C33.049,32.641,34.535,28.584,32.726,24.898z"/>
		<g>
			<defs>
				<path id="XMLID_3_" d="M19.014,30.375c0,0,1.138,1.229,1.285,1.945c0.146,0.716,0.165,0.752,0.165,1.229s0.056,0.99,0.44,1.102
					c0.385,0.109,0.918,0.128,1.615-0.294c0.698-0.422,2.038-1.321,2.404-1.743c0.367-0.424,0.771-0.88,1.229-1.01
					c0.458-0.128,1.083-0.752,1.432-1.064s1.523-1.082,2.183-1.101c0.661-0.02,1.616-0.093,2.057,0.274
					c0.439,0.368,0.936,0.955,0.734,1.67c-0.203,0.716-0.57,1.505-0.754,1.837c-0.184,0.329-0.037,0.659-0.459,1.265
					c-0.421,0.605-0.587,0.717-0.679,1.211c-0.092,0.496-0.44,1.212-1.413,1.8c-0.973,0.588-5.065,2.771-5.818,3.56
					c-0.752,0.79-2.568,1.927-3.577,2.68c-1.01,0.753-2.534,2.11-6.7,3.082c-4.165,0.973-4.588,0.717-7.927,3.396
					c-3.339,2.679-3.909,2.881-3.909,2.881"/>
			</defs>
			<use xlink:href="#XMLID_3_"  overflow="visible" fill="#CDB8AB"/>
			<clipPath id="XMLID_5_">
				<use xlink:href="#XMLID_3_"  overflow="visible"/>
			</clipPath>
			
				<path clip-path="url(#XMLID_5_)" fill="#EBE0D5" stroke="#553E31" stroke-width="0.805" stroke-linecap="round" stroke-linejoin="round" stroke-miterlimit="10" d="
				M30.448,29.42c0,0-0.294,0.844-0.349,1.396c-0.056,0.55-0.056,0.679,0.348,1.267c0.403,0.587,0.459,1.064,0.643,1.339
				c0.184,0.277,0.273,0.111,0.586-0.365c0.313-0.479,0.709-1.138,0.709-1.138l1.439-1.004l-2.152-2.578L30.448,29.42z"/>
			
				<path clip-path="url(#XMLID_5_)" fill="#EBE0D5" stroke="#553E31" stroke-width="0.805" stroke-linecap="round" stroke-linejoin="round" stroke-miterlimit="10" d="
				M32.385,31.918"/>
			
				<use xlink:href="#XMLID_3_"  overflow="visible" fill="none" stroke="#553E31" stroke-width="0.805" stroke-linecap="round" stroke-linejoin="round" stroke-miterlimit="10"/>
		</g>
	</g>
</g>
</svg>
