<?xml version="1.0" encoding="utf-8"?>
<!-- Generator: Adobe Illustrator 16.0.0, SVG Export Plug-In . SVG Version: 6.00 Build 0)  -->
<!DOCTYPE svg PUBLIC "-//W3C//DTD SVG 1.1//EN" "http://www.w3.org/Graphics/SVG/1.1/DTD/svg11.dtd">
<svg version="1.1" id="Layer_1" xmlns="http://www.w3.org/2000/svg" xmlns:xlink="http://www.w3.org/1999/xlink" x="0px" y="0px"
	 width="60px" height="60px" viewBox="0 0 60 60" enable-background="new 0 0 60 60" xml:space="preserve">
<g>
	<defs>
		<path id="SVGID_1_" d="M30,54.02C16.754,54.02,5.98,43.245,5.98,30S16.754,5.98,30,5.98c13.244,0,24.02,10.774,24.02,24.02
			S43.244,54.02,30,54.02z"/>
	</defs>
	<clipPath id="SVGID_2_">
		<use xlink:href="#SVGID_1_"  overflow="visible"/>
	</clipPath>
	<g clip-path="url(#SVGID_2_)">
		
			<path fill="#CDB8AB" stroke="#553E31" stroke-width="0.8821" stroke-linecap="round" stroke-linejoin="round" stroke-miterlimit="10" d="
			M44.871,34.752c0,7.913-6.639,14.329-14.828,14.329c-8.19,0-14.828-6.416-14.828-14.329"/>
		
			<ellipse fill="#EBE0D5" stroke="#553E31" stroke-width="0.9633" stroke-linecap="round" stroke-linejoin="round" stroke-miterlimit="10" cx="30.043" cy="34.779" rx="14.828" ry="8.944"/>
		
			<path fill="#E4D7CD" stroke="#553E31" stroke-width="0.9633" stroke-linecap="round" stroke-linejoin="round" stroke-miterlimit="10" d="
			M21.822,42.193c2.369,0.965,5.224,1.53,8.297,1.53c3.106,0,5.988-0.577,8.37-1.563c-1.029-1.689-4.364-2.928-8.323-2.928
			C26.184,39.232,22.83,40.487,21.822,42.193z"/>
		<g>
			<g>
				<path fill="#553E31" d="M19.906,32.236c0.288-0.574,0.841-0.998,1.374-1.276c0.547-0.289,1.107-0.522,1.672-0.724
					c1.131-0.396,2.281-0.665,3.439-0.827c2.318-0.305,4.644-0.265,6.923,0.093c2.27,0.372,4.538,0.998,6.522,2.305
					c0.961,0.655,1.927,1.56,2.22,2.871c0.135,0.647,0.031,1.336-0.238,1.918c-0.269,0.586-0.672,1.072-1.117,1.479l-0.006,0.006
					c-0.194,0.178-0.496,0.164-0.674-0.029c-0.178-0.194-0.165-0.496,0.029-0.675c0.005-0.004,0.011-0.009,0.016-0.013
					c0.781-0.656,1.322-1.585,1.104-2.505c-0.186-0.922-0.995-1.681-1.87-2.232c-1.81-1.104-4.003-1.58-6.149-1.777
					c-2.162-0.171-4.355-0.047-6.452,0.378c-1.046,0.214-2.077,0.489-3.041,0.879c-0.481,0.195-0.947,0.415-1.378,0.668
					c-0.449,0.257-0.828,0.462-1.383,0.624l-0.015,0.005c-0.44,0.128-0.901-0.124-1.03-0.564
					C19.791,32.632,19.816,32.417,19.906,32.236z"/>
			</g>
			<g>
				<path fill="#553E31" d="M22.379,28.914c-0.397,0.614-0.723,1.299-0.924,1.971c-0.202,0.669-0.259,1.354-0.101,1.864
					l-0.465-0.752c0.15,0.146,0.536,0.344,0.854,0.462c0.341,0.129,0.707,0.219,1.085,0.273c0.758,0.107,1.565,0.058,2.364-0.119
					c0.149-0.035,0.299,0.058,0.334,0.207c0.029,0.124-0.033,0.251-0.141,0.309c-0.77,0.408-1.626,0.713-2.546,0.835
					c-0.459,0.06-0.933,0.076-1.413,0.035c-0.499-0.056-0.923-0.106-1.513-0.357c-0.304-0.13-0.481-0.432-0.466-0.743l0.001-0.009
					c0.05-1.02,0.454-1.845,0.914-2.537c0.474-0.694,1.018-1.276,1.638-1.794c0.111-0.092,0.276-0.078,0.369,0.033
					c0.075,0.09,0.08,0.216,0.019,0.31L22.379,28.914z"/>
			</g>
		</g>
		<g>
			<path fill="#553E31" d="M29.425,41.551c-0.442,0-0.854-0.063-1.225-0.187c-1.682-0.558-3.418-2.311-2.776-5.417
				c0.517-2.521,2.56-3.427,3.78-3.969c0.234-0.104,0.441-0.195,0.604-0.284c0.92-0.499,1.523-1.673,1.529-1.685l6.562-13.848
				l0.291,0.141c0.015,0.007,1.437,0.721,0.582,2.536c-0.7,1.494-4.444,10.468-5.071,12.154c-0.509,1.369-0.333,1.809,0.25,3.267
				l0.163,0.409c0.798,2.023-0.042,3.599-0.717,4.864C32.783,40.683,31.076,41.551,29.425,41.551L29.425,41.551z"/>
			<path fill="#EBE0D5" d="M38.05,16.591c0,0,1.16,0.562,0.432,2.11C37.755,20.251,34,29.264,33.399,30.88
				c-0.6,1.613-0.302,2.09,0.415,3.906S33.85,38,33.113,39.381c-0.581,1.09-2.213,1.849-3.688,1.849
				c-0.394,0-0.775-0.054-1.124-0.17c-1.655-0.549-3.149-2.212-2.563-5.047c0.581-2.834,3.211-3.483,4.224-4.037
				c1.018-0.552,1.661-1.821,1.661-1.821L38.05,16.591 M37.747,15.731l-0.277,0.585l-6.427,13.563l0,0c0,0-0.565,1.086-1.387,1.532
				c-0.158,0.087-0.357,0.174-0.582,0.273c-1.277,0.567-3.415,1.516-3.965,4.199c-0.684,3.311,1.183,5.186,2.99,5.785
				c0.403,0.134,0.85,0.202,1.326,0.202c1.789,0,3.579-0.92,4.254-2.188c0.669-1.254,1.584-2.972,0.731-5.132l-0.163-0.411
				c-0.576-1.44-0.713-1.783-0.247-3.036c0.625-1.683,4.362-10.638,5.062-12.13c0.819-1.741-0.252-2.728-0.733-2.96L37.747,15.731
				L37.747,15.731z"/>
		</g>
		
			<path fill="#CDB8AB" stroke="#553E31" stroke-width="0.9633" stroke-linecap="round" stroke-linejoin="round" stroke-miterlimit="10" d="
			M51.109,0c0,0-4.557,2.737-6.443,3.623c-2.949,1.386-6.539,2.837-8.307,5.762c-0.561,0.932-0.919,2.041-1.148,3.102
			C35,13.46,34.576,14.372,34.407,15.36c-0.115,0.68-0.045,1.028-0.445,1.625c-0.3,0.449-0.612,0.877-0.747,1.407
			c-0.139,0.55-0.094,1.128-0.202,1.683c-0.158,0.812-0.403,1.607-0.089,2.414c0.231,0.594,0.881,1.677,1.315,2.144
			c0.759-1.778,2.591-5.662,2.591-5.662s0.497-1.021,1.32-1.546c0.821-0.527,0.582-0.454,1.146-0.988
			c0.865,0.082,1.53-0.222,2.544-0.579c-1.061,0.174-2.077,1.072-2.627,1.445c-0.548,0.375-2.542,2.609-2.731,3.505
			c-0.188,0.894,0.052,1.841,0.73,2.037c0.68,0.197,0.787,0.099,1.117-0.313c0.329-0.415,3.37-3.326,4.664-3.971
			c1.297-0.646,0.75-0.342,1.568-0.798c0.818-0.458,1.468-1.619,2.052-2.145c0.587-0.525,1.444-1.319,2.122-3.274
			c0.677-1.952,2.611-3.978,4.115-4.73c1.501-0.753,7.505-2.611,9.766-3.065C57.077,2.358,51.109,0,51.109,0z"/>
	</g>
	
		<path clip-path="url(#SVGID_2_)" fill="#553E31" stroke="#CDB8AB" stroke-linecap="round" stroke-linejoin="round" stroke-miterlimit="10" d="
		M30.478,33.457c-0.854,0.188-1.938,0.646-2.625,1.667c-0.478,0.71-0.688,1.479-0.646,2.479s0.916,1.959,1.813,2.209"/>
</g>
</svg>
