<?xml version="1.0" encoding="utf-8"?>
<!-- Generator: Adobe Illustrator 16.0.0, SVG Export Plug-In . SVG Version: 6.00 Build 0)  -->
<!DOCTYPE svg PUBLIC "-//W3C//DTD SVG 1.1//EN" "http://www.w3.org/Graphics/SVG/1.1/DTD/svg11.dtd">
<svg version="1.1" id="Layer_1" xmlns="http://www.w3.org/2000/svg" xmlns:xlink="http://www.w3.org/1999/xlink" x="0px" y="0px"
	 width="60px" height="60px" viewBox="0 0 60 60" enable-background="new 0 0 60 60" xml:space="preserve">
<g>
	<defs>
		<path id="SVGID_77_" d="M-58.016,53.5c-12.958,0-23.499-10.542-23.499-23.5c0-12.96,10.541-23.5,23.499-23.5
			S-34.515,17.04-34.515,30C-34.515,42.958-45.058,53.5-58.016,53.5z"/>
	</defs>
	<clipPath id="SVGID_2_">
		<use xlink:href="#SVGID_77_"  overflow="visible"/>
	</clipPath>
	
		<path clip-path="url(#SVGID_2_)" fill="#CDB8AB" stroke="#553E31" stroke-width="1.0649" stroke-linecap="round" stroke-miterlimit="10" d="
		M-18.473,63.688c-6.17-2.616-15.996-8.314-18.769-9.909c-2.771-1.594-9.541-4.861-11.684-5.725
		c-2.143-0.861-4.208-1.489-4.968-1.566c-0.759-0.079-3.841-0.185-5.567-0.759s-2.719-1.308-4.443-1.543
		c-1.726-0.236-3.006-0.602-4.078-0.34s-0.864,0.117-1.111,0.156c-0.249,0.04-1.423,0.563-1.791,0.589
		c-0.365,0.026-1.033-0.405-0.861-1.24c0.169-0.837,0.405-1.569,1.907-2.418c1.501-0.85,2.326-1.151,2.889-1.269
		c-0.496-0.195-1.465-0.89-2.13-1.516c-0.667-0.628-2.065-1.621-2.875-2.132c-0.812-0.509-2.353-1.699-2.536-2.3
		c-0.183-0.602,0.098-1.149,0.719-1.397c-0.033-0.472-0.024-1.019,0.607-1.418c0.607-0.387,1.248-0.295,1.837-0.008
		c0.588,0.289,0.823,0.394,1.188,0.602c0.223-0.458,0.771-1.085,1.437-0.927c0.667,0.156,1.817,0.601,2.746,1.07
		c0.928,0.471,7.724,0.288,8.194,0.379c0.47,0.092,2.627,0.759,3.424,1.255c0.799,0.495,0.89,0.575,1.855,0.837
		c0.969,0.261,2.118,0.641,2.98,1.007c0.864,0.365,3.529,1.202,4.889,2.208c1.359,1.007,1.752,1.203,2.691,2.145
		c0.942,0.939,0.993,1.293,2.641,1.737c1.647,0.443,12.39,3.28,14.166,3.843c1.779,0.562,6.629,1.739,11.425,2.471
		c4.798,0.731,8.93,1.82,11.946,2.26c2.51,0.366,1.672,19.762,1.672,19.762S-12.304,66.3-18.473,63.688z"/>
</g>
<g>
	<defs>
		<path id="SVGID_79_" d="M30,53.5C17.042,53.5,6.5,42.959,6.5,30S17.042,6.5,30,6.5S53.5,17.041,53.5,30S42.958,53.5,30,53.5z"/>
	</defs>
	<clipPath id="SVGID_4_">
		<use xlink:href="#SVGID_79_"  overflow="visible"/>
	</clipPath>
	<rect x="0.625" y="0.625" clip-path="url(#SVGID_4_)" fill="#FFFCF5" width="58.75" height="58.75"/>
	<polygon clip-path="url(#SVGID_4_)" fill="#EBE0D5" stroke="#553E31" stroke-miterlimit="10" points="76.465,52.415 5.772,65.115 
		-10.021,19.516 53.241,9.701 	"/>
	<g clip-path="url(#SVGID_4_)">
		<path fill="#EBE0D5" stroke="#553E31" stroke-linecap="round" stroke-linejoin="round" stroke-miterlimit="10" d="M30.939,23.862
			c-4.38-2.098-8.874-0.103-13.317,0.53c-2.38,0.337-4.688,0.487-6.83,1.956c-1.419,0.971-2.427,2.642-2.548,4.616
			c-0.164,2.649,2.002,4.105,3.637,5.362c1.77,1.364,3.772,2.825,5.207,4.71c1.014,1.33,1.245,3.212,2.271,4.491
			c1.161,1.452,2.711,1.638,4.299,1.384c1.354-0.216,2.694-0.729,4.039-1.029c1.576-0.354,3.197-0.649,4.804-0.695
			c2.68-0.076,5.51,0.721,8.129-0.171c2.295-0.779,4.245-3.368,4.549-6.258c0.439-4.247-3.298-7.032-5.94-8.832L30.939,23.862z"/>
		<path fill="#EBE0D5" stroke="#553E31" stroke-linecap="round" stroke-linejoin="round" stroke-miterlimit="10" d="M34.341,41.557
			c0,0-8.898-10.515-11.137-12.04c-2.237-1.521-5.918-5.391-5.918-5.391s-0.828-2.125-0.198-3.158
			c0.895-1.47,1.74-2.288,2.535-2.615c1.135-0.466,1.89-0.925,3.978-0.814c2.124,0.11,2.14,0.379,3.879,1.634
			c0.405,0.292,3.287,3.054,5.001,4.139c1.711,1.09,6.765,5.731,8.127,6.916c2.437,2.125,4.325,5.882,4.325,5.882L34.341,41.557z"/>
		<path fill="#EBE0D5" stroke="#553E31" stroke-linecap="round" stroke-linejoin="round" stroke-miterlimit="10" d="M43.142,33.386
			c-1.84-1.092-3.307-1.037-5.395-0.545c-2.089,0.488-3.915,1.944-4.213,4.063c-0.351,2.48-0.088,4.761,2.149,5.576
			c2.238,0.817,5.32,2.396,7.111,0.765c1.788-1.635,3.231-4.849,2.338-6.809C44.236,34.476,43.142,33.386,43.142,33.386z"/>
		<path fill="#EBE0D5" stroke="#553E31" stroke-linecap="round" stroke-linejoin="round" stroke-miterlimit="10" d="M44.411,41.155
			c0.438-2.37-0.511-4.828-2.954-5.824c-2.444-0.994-4.445,0.18-5.239,1.104c-0.796,0.925-0.935,2.618-0.139,3.652
			c0.795,1.036,3.469,1.705,4.39,1.514c0.921-0.189,2.089-1.042,1.791-2.512c-0.298-1.471-3.108-2.506-3.99-1.348
			c-0.467,0.611-0.522,1.49,0.429,1.736c0.95,0.244,1.491-0.389,1.491-0.389"/>
	</g>
	
		<path clip-path="url(#SVGID_4_)" fill="#CDB8AB" stroke="#553E31" stroke-linecap="round" stroke-linejoin="round" stroke-miterlimit="10" d="
		M20.507,23.562c-0.542,0.302-1.41,0.43-1.309-0.289c0.081-0.583,1.1-1.867,1.479-2.316c0.379-0.454,1.585-1.632,1.942-1.911
		c0.353-0.271,1.999-1.366,1.999-1.366c-0.482,0.264-0.957,0.607-1.434,0.903c-0.583,0.358-1.306,1.003-1.859,1.388
		c-0.553,0.384-1.151,0.146-1.282-0.058c-0.131-0.208-0.013-0.436,0.338-0.853c0.354-0.412,1.2-1.367,1.99-1.815
		c0.789-0.451,3.891-1.909,5.022-2.592c1.134-0.682,4.06-2.599,4.75-3.064c0.688-0.465,0.786-1.475,1.148-2.218
		c0.366-0.743,1.688-5.718,1.688-5.718l7.427,0.092c0,0-3.338,7.87-3.603,8.647c-0.265,0.78-1.179,2.399-1.296,3.28
		c-0.121,0.887-0.146,1.827-0.399,2.646c-0.251,0.822-1.182,2.421-1.841,2.971c-0.664,0.552-1.369,0.87-1.817,1.377
		c-0.45,0.501-0.658,0.531-1.234,1.322s-0.826,0.813-1.134,0.824c-0.312,0.014-0.915-0.187-1.099-0.706
		c-0.185-0.522-0.311-1.156,0.023-1.699c0.329-0.542,0.967-1.201,1.417-1.459c0.451-0.255,0.91-0.694,1.068-0.917
		c-0.326,0.113-1.354,0.524-1.801,0.762c-0.448,0.237-1.381,0.899-1.817,1.24c-0.468,0.369-1.491,1.262-2.057,1.869
		c-0.495,0.527-1.447,1.494-1.91,2.018c-0.418,0.474-1.427,1.764-2.009,1.281c-0.511-0.653-0.481-1.225-0.111-1.945
		c0,0,1.601-2.059,2.212-2.778c0.679-0.794,2.024-2.304,2.602-2.757c0,0-2.469,2.122-3.071,2.683
		c-0.412,0.385-1.139,1.113-1.654,1.646c-0.477,0.497-1.444,1.229-1.828,1.455s-0.649,0.349-1.067,0.14
		c-0.42-0.209-0.468-0.297-0.349-0.67c0.123-0.372,0.36-0.773,0.809-1.276c0.448-0.505,1.691-1.685,2.139-2.188
		c0.352-0.391,0.832-0.815,1.301-1.311c0.297-0.315,1.688-1.238,2.057-1.509"/>
	
		<path clip-path="url(#SVGID_4_)" fill="#CDB8AB" stroke="#553E31" stroke-width="0.903" stroke-linecap="round" stroke-linejoin="round" stroke-miterlimit="10" d="
		M37.339,35.85"/>
	
		<path clip-path="url(#SVGID_4_)" fill="#CDB8AB" stroke="#553E31" stroke-linecap="round" stroke-linejoin="round" stroke-miterlimit="10" d="
		M28.607,30.254c-1.088,1.296-2.14,2.843-1.776,3.233c0.367,0.395,0.348,0.972,1.683-0.08c1.334-1.051,2.734-2.327,3.984-3.092
		c0,0,1.685-1.273,1.974-1.499c0.572-0.44,0.896-0.557,1.485-0.94c-0.366,0.206-0.962,0.684-0.962,0.684s-0.728,0.604-1.113,0.886
		c-0.441,0.318-1.571,1.096-2.047,1.492c-0.41,0.343-1.089,1.104-0.621,1.591c0.369,0.377,0.661,0.49,1.54,0.097
		c0.877-0.395,1.997-1.163,2.538-1.638c0.539-0.472,2.203-1.656,2.737-1.966c0.651-0.377,3.42-1.048,4.684-2.011
		c1.265-0.967,3.998-3.85,5.749-5.191c1.754-1.34,8.968-6.677,10.892-8.286c1.924-1.606,5.748-8.388,5.748-8.388L55.973,4.01"/>
	
		<path clip-path="url(#SVGID_4_)" fill="#CDB8AB" stroke="#553E31" stroke-linecap="round" stroke-linejoin="round" stroke-miterlimit="10" d="
		M56.051,4.045c0,0-12.233,12.028-13.292,12.757c-1.054,0.73-1.911,1.372-4.288,1.742s-2.276,0.461-3.154,0.803
		c-0.878,0.34-3.269,1.359-3.976,1.609c-0.705,0.252-1.561,0.892-2.284,1.062c-0.728,0.165-1.519,0.219-1.519,0.219
		s-0.62,0.203-0.395,0.636c0.225,0.432,1.156,1.129,2.115,0.795c0.959-0.33,1.96-0.795,2.636-1.263
		c-1.257,0.814-2.723,1.65-3.257,1.985c-0.61,0.384-1.18,0.81-1.775,1.235c-0.607,0.436-1.891,1.406-2.513,2.149
		c-0.569,0.679-1.309,1.507-0.857,2.066c0.337,0.418,0.876,0.413,1.973-0.421c1.094-0.834,2.213-1.74,2.998-2.307
		c0.904-0.656,0.614-0.505,1.978-1.309c1.363-0.803,1.363-0.803,1.363-0.803s-2.392,1.43-3.433,2.376
		c-0.75,0.678-1.077,0.941-1.077,0.941s-0.696,0.657-1.254,1.305c-0.558,0.646-1.229,1.562-1.403,1.941
		c-0.238,0.522-0.405,1.06-0.101,1.456c0.402,0.531,0.929,0.446,1.803-0.35c0.951-0.868,2.102-2.137,2.878-2.787
		c0.777-0.651,1.148-1.026,2.378-1.894c1.298-0.919,2.32-1.398,2.614-1.588"/>
	<g clip-path="url(#SVGID_4_)">
		<g>
			<path fill="#553E31" d="M45.86,26.987c0,0,0.287-0.061,0.709,0.051c0.225,0.069,0.511,0.237,0.821,0.403
				c0.285,0.189,0.602,0.394,0.919,0.654c0.308,0.27,0.652,0.55,0.944,0.912c0.324,0.335,0.583,0.748,0.878,1.151
				c0.241,0.436,0.525,0.867,0.714,1.351c0.103,0.247,0.209,0.453,0.31,0.737c0.071,0.244,0.162,0.453,0.229,0.725
				c0.142,0.542,0.241,1.064,0.249,1.599c0.032,0.529-0.026,1.057-0.125,1.555c-0.128,0.492-0.283,0.964-0.521,1.366
				c-0.217,0.414-0.493,0.758-0.757,1.062c-0.278,0.293-0.561,0.529-0.817,0.729c-0.265,0.189-0.5,0.348-0.708,0.455
				c-0.408,0.226-0.658,0.32-0.658,0.32l-0.018,0.006c-0.213,0.08-0.449-0.027-0.529-0.239c-0.079-0.212,0.027-0.449,0.24-0.528
				l0.002-0.001c0,0,0.218-0.08,0.571-0.271c0.181-0.091,0.384-0.227,0.613-0.387c0.223-0.172,0.451-0.388,0.682-0.642
				c0.214-0.266,0.438-0.562,0.605-0.912c0.189-0.34,0.301-0.737,0.396-1.146c0.062-0.417,0.112-0.855,0.05-1.301
				c-0.036-0.444-0.164-0.896-0.302-1.307c-0.063-0.208-0.184-0.452-0.277-0.673c-0.083-0.176-0.22-0.4-0.324-0.596
				c-0.205-0.415-0.497-0.764-0.734-1.125c-0.287-0.323-0.535-0.66-0.833-0.914c-0.275-0.279-0.562-0.504-0.826-0.712
				c-0.267-0.199-0.536-0.354-0.759-0.49c-0.23-0.104-0.405-0.196-0.579-0.299c-0.394-0.189-0.572-0.422-0.572-0.422
				c-0.236-0.305-0.182-0.743,0.124-0.979C45.661,27.053,45.762,27.009,45.86,26.987z"/>
		</g>
		<g>
			<path fill="#553E31" d="M49.474,27.427c-1.262-0.04-2.602,0.186-3.509,0.79l0,0l0.394-0.438c-0.005-0.016-0.035,0.046-0.05,0.083
				c-0.02,0.041-0.033,0.09-0.05,0.137c-0.027,0.098-0.052,0.2-0.063,0.307c-0.025,0.212-0.019,0.437,0.025,0.663
				c0.095,0.451,0.334,0.909,0.677,1.312c0.078,0.09,0.069,0.226-0.021,0.305c-0.071,0.063-0.177,0.068-0.255,0.021
				c-0.492-0.3-0.954-0.719-1.284-1.276c-0.161-0.279-0.284-0.592-0.356-0.923c-0.038-0.166-0.059-0.338-0.069-0.513
				c-0.002-0.089-0.006-0.177,0-0.27c0.006-0.098,0.008-0.169,0.041-0.316c0.035-0.158,0.134-0.286,0.264-0.362l0.131-0.076l0,0
				c0.749-0.234,1.483-0.277,2.183-0.229c0.701,0.053,1.369,0.182,2.022,0.393c0.106,0.034,0.165,0.148,0.131,0.255
				c-0.029,0.088-0.111,0.144-0.2,0.141L49.474,27.427z"/>
		</g>
	</g>
</g>
</svg>
