<?xml version="1.0" encoding="utf-8"?>
<!-- Generator: Adobe Illustrator 16.0.0, SVG Export Plug-In . SVG Version: 6.00 Build 0)  -->
<!DOCTYPE svg PUBLIC "-//W3C//DTD SVG 1.1//EN" "http://www.w3.org/Graphics/SVG/1.1/DTD/svg11.dtd">
<svg version="1.1" id="Layer_1" xmlns="http://www.w3.org/2000/svg" xmlns:xlink="http://www.w3.org/1999/xlink" x="0px" y="0px"
	 width="60px" height="60px" viewBox="0 0 60 60" enable-background="new 0 0 60 60" xml:space="preserve">
<g>
	<defs>
		<path id="SVGID_23_" d="M30,54.02C16.755,54.02,5.979,43.245,5.979,30S16.755,5.98,30,5.98S54.021,16.755,54.021,30
			S43.245,54.02,30,54.02z"/>
	</defs>
	<clipPath id="SVGID_2_">
		<use xlink:href="#SVGID_23_"  overflow="visible"/>
	</clipPath>
	
		<ellipse clip-path="url(#SVGID_2_)" fill="#EBE0D5" stroke="#553E31" stroke-miterlimit="10" cx="25.354" cy="48.521" rx="23.813" ry="11.188"/>
	
		<ellipse clip-path="url(#SVGID_2_)" fill="#EBE0D5" stroke="#553E31" stroke-width="0.9069" stroke-miterlimit="10" cx="24.054" cy="52.646" rx="21.595" ry="10.146"/>
	<g clip-path="url(#SVGID_2_)">
		<g>
			<path fill="#553E31" d="M26.91,19.59c0.354,0.324,0.559,0.957,0.63,1.439c0.084,0.518,0.104,1.028,0.113,1.535
				c-0.002,1.012-0.103,2.005-0.295,2.974c-0.405,1.933-1.078,3.779-1.999,5.498c-0.927,1.706-2.057,3.342-3.651,4.563
				c-0.79,0.584-1.779,1.104-2.907,0.974c-0.258-0.025-0.579-0.146-0.772-0.235c-0.27-0.145-0.497-0.301-0.688-0.49
				c-0.395-0.375-0.672-0.832-0.873-1.301c-0.088-0.204,0.006-0.441,0.21-0.529c0.204-0.089,0.441,0.006,0.529,0.21
				c0.002,0.003,0.004,0.008,0.005,0.011c0.16,0.402,0.378,0.773,0.662,1.059c0.138,0.152,0.312,0.254,0.452,0.34
				c0.237,0.104,0.364,0.148,0.577,0.179c0.787,0.108,1.617-0.327,2.301-0.872c1.383-1.138,2.373-2.755,3.127-4.412
				c0.738-1.678,1.244-3.462,1.491-5.252c0.12-0.896,0.183-1.793,0.143-2.671c-0.028-0.436-0.063-0.872-0.15-1.284
				c-0.092-0.448-0.118-0.736-0.116-1.29c0.001-0.378,0.309-0.684,0.688-0.683c0.177,0,0.338,0.067,0.459,0.179L26.91,19.59z"/>
		</g>
		<g>
			<path fill="#553E31" d="M28.869,22.476c-0.38-0.487-0.836-0.938-1.315-1.285c-0.479-0.347-1.008-0.583-1.46-0.599l0,0l0.73-0.162
				c-0.159,0.08-0.423,0.331-0.605,0.554c-0.196,0.237-0.371,0.503-0.521,0.789c-0.291,0.577-0.481,1.232-0.563,1.919
				c-0.013,0.129-0.129,0.223-0.258,0.209c-0.107-0.011-0.19-0.096-0.207-0.197c-0.112-0.729-0.11-1.496,0.042-2.265
				c0.082-0.383,0.201-0.765,0.366-1.136c0.182-0.383,0.342-0.709,0.704-1.108c0.149-0.164,0.366-0.229,0.568-0.192l0.162,0.03l0,0
				c0.799,0.323,1.345,0.875,1.769,1.435c0.422,0.57,0.735,1.167,0.976,1.806c0.044,0.114-0.015,0.241-0.129,0.285
				c-0.093,0.034-0.194,0.003-0.252-0.071L28.869,22.476z"/>
		</g>
	</g>
	<g clip-path="url(#SVGID_2_)">
		<g>
			<path fill="#553E31" d="M14.676,29.872c-0.354-0.325-0.559-0.957-0.629-1.439c-0.084-0.518-0.104-1.028-0.114-1.535
				c0.003-1.013,0.104-2.006,0.296-2.975c0.404-1.932,1.077-3.778,1.998-5.497c0.928-1.707,2.058-3.343,3.651-4.563
				c0.79-0.584,1.78-1.104,2.908-0.973c0.258,0.025,0.579,0.146,0.772,0.236c0.27,0.145,0.497,0.301,0.688,0.49
				c0.394,0.374,0.672,0.831,0.874,1.3c0.088,0.204-0.006,0.441-0.21,0.529c-0.204,0.089-0.441-0.005-0.529-0.209
				c-0.002-0.004-0.004-0.009-0.005-0.012c-0.16-0.402-0.379-0.772-0.664-1.058c-0.137-0.152-0.312-0.254-0.452-0.341
				c-0.237-0.104-0.363-0.148-0.577-0.179c-0.786-0.108-1.617,0.326-2.3,0.872c-1.383,1.137-2.374,2.755-3.128,4.411
				c-0.738,1.678-1.243,3.463-1.49,5.253c-0.12,0.895-0.183,1.793-0.143,2.671c0.028,0.436,0.063,0.872,0.149,1.284
				c0.092,0.448,0.118,0.737,0.116,1.29c-0.001,0.379-0.31,0.685-0.688,0.683c-0.177,0-0.338-0.068-0.459-0.179L14.676,29.872z"/>
		</g>
		<g>
			<path fill="#553E31" d="M12.717,26.986c0.38,0.487,0.836,0.938,1.315,1.285c0.478,0.348,1.008,0.583,1.459,0.599l0,0
				l-0.729,0.162c0.158-0.08,0.422-0.331,0.604-0.554c0.196-0.236,0.371-0.503,0.521-0.789c0.291-0.576,0.481-1.232,0.563-1.919
				c0.013-0.129,0.129-0.223,0.258-0.209c0.107,0.011,0.19,0.096,0.207,0.197c0.112,0.729,0.111,1.496-0.042,2.265
				c-0.081,0.383-0.2,0.765-0.366,1.137c-0.182,0.383-0.342,0.708-0.705,1.108c-0.148,0.163-0.365,0.229-0.567,0.191l-0.162-0.029
				l0,0c-0.799-0.324-1.345-0.876-1.77-1.436c-0.422-0.57-0.734-1.167-0.975-1.806c-0.044-0.114,0.015-0.242,0.129-0.285
				c0.093-0.034,0.194-0.003,0.252,0.071L12.717,26.986z"/>
		</g>
	</g>
	
		<path clip-path="url(#SVGID_2_)" fill="#CDB8AB" stroke="#553E31" stroke-width="0.8448" stroke-linecap="round" stroke-linejoin="round" stroke-miterlimit="10" d="
		M46.404,5.98c0,0-4.26,5.385-5.069,6.936c-0.81,1.548-2.043,3.238-2.887,4.082c-0.845,0.846-2.357,1.972-3.026,3.556
		c-0.67,1.584-1.55,2.675-1.796,4.153s0,2.111-0.317,3.133c-0.317,1.022-0.813,2.966-0.638,3.81c0.177,0.846,1.096,1.752,1.624,2.21
		c0.527,0.458,2.288,0.968,2.852,0.968c0.563,0,2.311-0.256,2.728-0.615c0.634-0.546,0.189-1.113,0.123-1.233
		c-0.065-0.117-0.998-0.87-1.46-0.897c-0.463-0.025-0.792,0.143-1.523,0.229c-0.54,0.064,0.238-1.452,1.453-2.403
		c1.214-0.949,3.035-3.985,2.877-3.826c-0.158,0.158,1.029-0.635,1.61-0.951c0.581-0.317,3.143-0.818,3.353-1.109
		c0.213-0.291,0.854-2.111,1.373-3.248c0.581-1.266,0.291-2.611,0.635-3.008c0,0,11.378-9.664,14.098-11.326
		c2.72-1.663-4.99-0.819-4.99-0.819L46.404,5.98z"/>
	
		<path clip-path="url(#SVGID_2_)" fill="#EBE0D5" stroke="#553E31" stroke-width="0.8448" stroke-linecap="round" stroke-linejoin="round" stroke-miterlimit="10" d="
		M35.905,30.699c-0.993,0.978-1.801,1.801-2.085,2.14c0,0-2.826,3.696-3.116,3.985c-0.289,0.291-1.505,1.03-2.852,1.347
		c-1.346,0.316-5.465,1.057-6.469,1.083c-1.003,0.026-4.777,0.237-5.465,0.396c-0.686,0.158-2.086,0.501-1.768,1.292
		c0.824,2.065,2.595,3.741,4.498,4.822c1.141,0.647,2.539,1.393,3.889,1.078c0.643-0.149,1.278-0.307,1.919-0.468
		c1.563-0.395,3.115-0.888,4.63-1.435c0.479-0.172,1.045-0.338,1.458-0.645c0.897-0.659,1.348-1.821,1.269-2.507
		c-0.079-0.688-0.053-2.456,0.29-3.223c0.344-0.765,1.452-2.876,3.194-4.62c0.371-0.37,1.044-0.972,1.893-1.698"/>
	
		<path clip-path="url(#SVGID_2_)" fill="#EBE0D5" stroke="#553E31" stroke-width="0.8448" stroke-linecap="round" stroke-linejoin="round" stroke-miterlimit="10" d="
		M37.19,32.248c3.134-2.686,8.675-7.081,10.357-7.911c2.139-1.056,2.402-1.399,2.191-1.927c-0.212-0.529-1.03-1.215-1.663-0.977
		c-0.633,0.236-5.545,3.246-6.759,4.197c-0.804,0.629-3.463,3.148-5.412,5.068"/>
	
		<path clip-path="url(#SVGID_2_)" fill="#CDB8AB" stroke="#553E31" stroke-width="0.8448" stroke-linecap="round" stroke-linejoin="round" stroke-miterlimit="10" d="
		M43.721,30.437c0,0,1.794-0.423,2.507-1.03c0.714-0.607,1.216-1.082,1.269-1.584c0.052-0.502-0.053-2.562-0.291-2.957
		c-0.237-0.396-0.423-0.422-0.739-0.449c-0.317-0.025-0.714,0.027-0.924,0.528C45.33,25.445,43.721,30.437,43.721,30.437z"/>
	
		<path clip-path="url(#SVGID_2_)" fill="#CDB8AB" stroke="#553E31" stroke-width="0.8448" stroke-linecap="round" stroke-linejoin="round" stroke-miterlimit="10" d="
		M41.106,31.967c0,0,0.977,0.079,1.505-0.237c0.528-0.317,1.109-0.978,1.584-1.399c0.475-0.424,1.268-1.689,1.531-2.244
		c0.264-0.554,0-1.504,0.105-2.033c0.106-0.527-0.08-0.924-0.238-1.373c-0.157-0.447-0.422-0.606-0.818-0.58
		c-0.396,0.026-0.95,0.264-1.214,0.738c-0.265,0.477-0.422,1.162-0.555,1.585C42.875,26.846,41.106,31.967,41.106,31.967z"/>
	
		<path clip-path="url(#SVGID_2_)" fill="#CDB8AB" stroke="#553E31" stroke-width="0.8448" stroke-linecap="round" stroke-linejoin="round" stroke-miterlimit="10" d="
		M40.016,32.82c0,0,0.215,0.257,0.69-0.271c0.474-0.528,1.292-1.004,1.769-1.504c0.476-0.503,0.978-1.48,1.057-1.981
		c0.078-0.501-0.079-1.056-0.159-1.821c-0.079-0.766-0.035-1.26-0.536-1.313c-0.502-0.053-1.215,0.336-1.462,0.688
		c-0.183,0.261-0.351,0.934-0.51,1.514c-0.158,0.58-0.071,0.792-0.423,1.319c-0.146,0.22-1.9,1.62-2.561,2.241
		c-0.594,0.558-0.56,0.408-0.56,0.408s0.774-0.14,1.409-0.035C39.068,32.121,40.016,32.82,40.016,32.82z"/>
	
		<path clip-path="url(#SVGID_2_)" fill="#CDB8AB" stroke="#553E31" stroke-width="0.8448" stroke-linecap="round" stroke-linejoin="round" stroke-miterlimit="10" d="
		M37.146,21.67c0,0-0.343,3.037-0.607,3.75c-0.265,0.711-0.528,1.874-0.74,2.56c-0.21,0.687-0.605,2.482-0.554,3.143
		c0.053,0.66,0.316,0.951,0.766,1.003c0.449,0.054,1.136,0.026,1.663-0.527c0.528-0.555,1.532-2.033,1.69-2.957
		s0.818-2.43,1.082-2.877c0.264-0.449,0.793-0.793,1.372-0.977c0.582-0.186,1.479-1.083,2.14-1.664
		c0.66-0.582,1.267-1.849,1.479-2.402"/>
	
		<path clip-path="url(#SVGID_2_)" fill="#CDB8AB" stroke="#553E31" stroke-width="0.8448" stroke-linecap="round" stroke-linejoin="round" stroke-miterlimit="10" d="
		M17.328,39.209c-1.657,1.262-0.837,3.912,0.804,5.03c1.667,1.136,4.557,0.742,5.799,2.482c0.353,0.494,0.446,1.311,0.949,1.675
		c0.539,0.39,1.377,0,1.964-0.211c1.335-0.477,2.96,0.27,3.491-1.249c0.35-1.003,0.634-2.388-0.282-2.922
		c-0.944-0.55-2.601-0.567-3.209-1.596c-0.321-0.543-0.387-1.245-0.71-1.784c-0.352-0.593-0.973-1.071-1.609-1.28
		C22.427,38.668,19.089,37.869,17.328,39.209z"/>
</g>
</svg>
