<?xml version="1.0" encoding="utf-8"?>
<!-- Generator: Adobe Illustrator 16.0.0, SVG Export Plug-In . SVG Version: 6.00 Build 0)  -->
<!DOCTYPE svg PUBLIC "-//W3C//DTD SVG 1.1//EN" "http://www.w3.org/Graphics/SVG/1.1/DTD/svg11.dtd">
<svg version="1.1" id="Layer_1" xmlns="http://www.w3.org/2000/svg" xmlns:xlink="http://www.w3.org/1999/xlink" x="0px" y="0px"
	 width="60px" height="60px" viewBox="0 0 60 60" enable-background="new 0 0 60 60" xml:space="preserve">
<g>
	<defs>
		<path id="SVGID_67_" d="M30,53.5C17.042,53.5,6.5,42.959,6.5,30S17.042,6.5,30,6.5S53.5,17.041,53.5,30S42.958,53.5,30,53.5z"/>
	</defs>
	<clipPath id="SVGID_2_">
		<use xlink:href="#SVGID_67_"  overflow="visible"/>
	</clipPath>
	<rect x="0.625" y="0.625" clip-path="url(#SVGID_2_)" fill="#FFFCF5" width="58.75" height="58.75"/>
	<g clip-path="url(#SVGID_2_)">
		<polygon fill="#EBE0D5" stroke="#553E31" stroke-miterlimit="10" points="-7.651,42.884 57.97,34.001 67.652,66.521 
			-2.373,71.532 		"/>
		<ellipse fill="#CDB8AB" stroke="#553E31" stroke-miterlimit="10" cx="29.902" cy="25.402" rx="9.8" ry="9.732"/>
		<path fill="#CDB8AB" stroke="#553E31" stroke-miterlimit="10" d="M16.626,40.938c0,5.49,5.431,9.938,12.131,9.938
			c6.697,0,12.131-4.448,12.131-9.938H16.626z"/>
		<ellipse fill="#EBE0D5" stroke="#553E31" stroke-miterlimit="10" cx="28.757" cy="40.535" rx="12.131" ry="4.217"/>
		<g>
			<defs>
				<path id="SVGID_69_" d="M28.665,37.045c-6.633,0-12.029,1.662-12.029,3.709c0,2.046,5.396,3.71,12.029,3.71
					c6.629,0,12.026-1.664,12.026-3.71C40.691,38.707,35.294,37.045,28.665,37.045z"/>
			</defs>
			<clipPath id="SVGID_4_">
				<use xlink:href="#SVGID_69_"  overflow="visible"/>
			</clipPath>
			
				<ellipse clip-path="url(#SVGID_4_)" fill="none" stroke="#553E31" stroke-miterlimit="10" cx="29.155" cy="45.161" rx="6.237" ry="2.763"/>
		</g>
		<g>
			<g>
				<path fill="#553E31" d="M17.194,35.737c0,0-0.227-0.128-0.472-0.435c-0.12-0.148-0.244-0.354-0.354-0.641
					c-0.114-0.273-0.262-0.58-0.365-0.917c-0.237-0.669-0.469-1.473-0.59-2.347c-0.135-0.874-0.152-1.809-0.131-2.729
					c0.039-0.464,0.058-0.902,0.119-1.376c0.066-0.407,0.176-0.914,0.3-1.317c0.245-0.842,0.585-1.577,0.905-2.183
					c0.323-0.605,0.647-1.075,0.888-1.395c0.237-0.317,0.414-0.491,0.414-0.49c0.085-0.085,0.223-0.084,0.307,0.002
					c0.076,0.078,0.082,0.199,0.018,0.283c0,0.001-0.118,0.158-0.297,0.492c-0.177,0.329-0.412,0.815-0.625,1.422
					c-0.211,0.604-0.41,1.327-0.504,2.106c-0.051,0.405-0.071,0.746-0.073,1.204c0.005,0.414,0.009,0.835,0.013,1.256
					c0.05,0.843,0.131,1.677,0.312,2.43c0.146,0.76,0.379,1.439,0.612,2.006c0.231,0.581,0.465,0.954,0.605,1.351
					c0.124,0.371,0.108,0.631,0.108,0.631c-0.026,0.44-0.405,0.775-0.846,0.748C17.415,35.831,17.296,35.794,17.194,35.737z"/>
			</g>
			<g>
				<path fill="#553E31" d="M14.967,33.488c0.448,0.357,0.954,0.662,1.456,0.87c0.503,0.208,1.02,0.293,1.406,0.21l-0.71,0.328l0,0
					c0.007,0.011,0.065-0.052,0.1-0.092c0.041-0.044,0.081-0.098,0.121-0.149c0.077-0.106,0.153-0.222,0.219-0.345
					c0.135-0.244,0.245-0.514,0.33-0.797c0.16-0.569,0.216-1.195,0.165-1.833c-0.013-0.136,0.087-0.256,0.223-0.269
					c0.11-0.011,0.211,0.057,0.252,0.153c0.257,0.637,0.42,1.335,0.443,2.07c0.007,0.368-0.021,0.743-0.094,1.12
					c-0.035,0.188-0.087,0.377-0.147,0.566c-0.032,0.095-0.065,0.189-0.107,0.286c-0.045,0.104-0.074,0.179-0.164,0.322v0.001
					l-0.104,0.119c-0.156,0.178-0.39,0.25-0.607,0.209c-0.81-0.155-1.419-0.561-1.912-0.998c-0.49-0.449-0.886-0.938-1.221-1.477
					c-0.068-0.109-0.035-0.253,0.074-0.32c0.086-0.054,0.193-0.044,0.268,0.016L14.967,33.488z"/>
			</g>
		</g>
		<path fill="#553E31" d="M32.854,16.072c0.378,0.165,1.564,0.803,1.994,0.882"/>
		<ellipse fill="#EBE0D5" stroke="#553E31" stroke-miterlimit="10" cx="30" cy="23.879" rx="10.396" ry="8.502"/>
		<path fill="none" stroke="#553E31" stroke-linecap="round" stroke-linejoin="round" stroke-miterlimit="10" d="M22.691,29.927
			c-0.328-0.689-0.508-1.437-0.508-2.217c0-3.422,3.455-6.195,7.72-6.195c4.264,0,7.718,2.773,7.718,6.195
			c0,0.856-0.215,1.671-0.604,2.411"/>
		<path fill="#CDB8AB" stroke="#553E31" stroke-linecap="round" stroke-linejoin="round" stroke-miterlimit="10" d="M56.163,10.088
			c-3.23-0.077-5.552,0.026-7.479-0.13c-1.928-0.155-3.909-0.775-6.116-1.497c-2.209-0.724-2.481-0.744-3.537-1.057
			s-1.287-0.146-1.838,0.177c-0.283,0.165-0.41,0.361-0.898,0.42c-0.49,0.058-1.289,0.204-1.554,1.016
			c-0.742,0.078-1.172,0.225-1.612,0.558c-0.44,0.332-0.44,1.094-0.754,1.484c-0.313,0.391-0.947,1.025-2.197,1.466
			c-1.251,0.439-1.983,0.674-2.238,1.358c-0.252,0.685-0.391,0.89-0.4,1.603c0.859-0.185,1.025-0.254,1.846-0.176
			c0.822,0.078,1.477,0.156,1.916,0.195c0.441,0.038,1.163,0.284,1.554,0.567c-0.868-0.05-1.563-0.098-2.091,0.01
			s-1.426,0.4-1.681,0.724c-0.254,0.321-0.547,0.702-0.333,1.084c0.216,0.381,0.333,0.596,0.773,0.614
			c0.438,0.021,1.31,0.178,1.642,0.275c0.331,0.097,1.084,0.431,2.257,0.586s1.799,0.407,2.628,0.693
			c0.568,0.195,1.144-0.048,1.572-0.098c0.432-0.05,2.023-0.146,2.864-0.499c0.841-0.352,2.092-1.435,2.902-1.808
			c0.811-0.371,3.704-0.977,6.841-0.693c3.137,0.284,6.325,1.31,6.402,1.362C56.71,18.375,56.163,10.088,56.163,10.088z"/>
		<path fill="#CDB8AB" stroke="#553E31" stroke-linecap="round" stroke-linejoin="round" stroke-miterlimit="10" d="M37.271,27.582
			c-0.82-0.461-2.633-1.154-3.86-0.965c-1.229,0.192-1.735,0.548-2.955,0.728c-1.22,0.179-1.491-0.248-2.501-0.507
			c-1.396-0.356-3.304-0.684-4.077,0c-0.774,0.686-0.686,2.815-0.267,3.52c0.262,0.448,0.997,0.516,1.259,0.789
			c0.263,0.273,0.521,1.037,0.688,1.589c0.211,0.683,0.335,1.979,0.309,2.726c-0.03,0.797-0.078,1.826,0.181,2.595
			c0.329,0.973,1.588,1.238,2.585,1.188c1.017-0.054,0.915-1.356,1.216-2.165c0.218-0.592,0.363-1.11,0.752-1.618
			c0.485-0.632,1.005-2.317,1.475-2.788c0.963-0.963,1.93-0.945,2.795-1.313c0.924-0.396,2.39-1.479,2.76-1.784
			C38.134,29.16,38.224,28.117,37.271,27.582z"/>
	</g>
</g>
</svg>
