<?xml version="1.0" encoding="utf-8"?>
<!-- Generator: Adobe Illustrator 16.0.0, SVG Export Plug-In . SVG Version: 6.00 Build 0)  -->
<!DOCTYPE svg PUBLIC "-//W3C//DTD SVG 1.1//EN" "http://www.w3.org/Graphics/SVG/1.1/DTD/svg11.dtd">
<svg version="1.1" id="Layer_1" xmlns="http://www.w3.org/2000/svg" xmlns:xlink="http://www.w3.org/1999/xlink" x="0px" y="0px"
	 width="60px" height="60px" viewBox="0 0 60 60" enable-background="new 0 0 60 60" xml:space="preserve">
<g>
	<defs>
		<path id="SVGID_25_" d="M29.999,54.02C16.755,54.02,5.98,43.244,5.98,30c0-13.246,10.774-24.02,24.019-24.02
			C43.244,5.98,54.02,16.754,54.02,30C54.02,43.244,43.244,54.02,29.999,54.02z"/>
	</defs>
	<clipPath id="SVGID_2_">
		<use xlink:href="#SVGID_25_"  overflow="visible"/>
	</clipPath>
	<g clip-path="url(#SVGID_2_)">
		<g>
			<path fill="#553E31" d="M21.587,26.544c-0.37-0.631-0.299-1.402-0.263-2.086c0.043-0.704,0.124-1.404,0.239-2.095
				c0.221-1.385,0.617-2.719,1.058-4.016c0.437-1.303,0.978-2.538,1.606-3.772c0.625-1.233,1.42-2.398,2.364-3.383
				c0.086-0.09,0.228-0.094,0.318-0.009c0.082,0.077,0.092,0.203,0.029,0.293c-0.768,1.086-1.346,2.26-1.753,3.507
				c-0.402,1.244-0.737,2.552-1.098,3.812c-0.344,1.271-0.597,2.55-0.759,3.824c-0.077,0.638-0.123,1.275-0.134,1.913
				c-0.018,0.657,0.073,1.23-0.209,1.939c-0.158,0.396-0.606,0.588-1.003,0.43c-0.165-0.066-0.295-0.183-0.379-0.326L21.587,26.544z
				"/>
		</g>
		<g>
			<path fill="#553E31" d="M20.307,23.016c0.268,0.615,0.626,1.212,1.037,1.706c0.409,0.494,0.902,0.885,1.372,1.022l0,0
				l-0.809-0.025c0.188-0.041,0.533-0.235,0.786-0.418c0.271-0.195,0.524-0.429,0.758-0.69c0.467-0.524,0.838-1.166,1.107-1.866
				c0.049-0.132,0.195-0.199,0.327-0.15c0.11,0.041,0.175,0.152,0.165,0.264c-0.078,0.795-0.279,1.604-0.653,2.369
				c-0.188,0.381-0.414,0.751-0.689,1.097c-0.296,0.353-0.55,0.652-1.04,0.975c-0.201,0.132-0.446,0.142-0.649,0.049l-0.161-0.075
				l0,0c-0.754-0.555-1.181-1.283-1.476-1.985c-0.29-0.714-0.459-1.425-0.54-2.162c-0.015-0.132,0.081-0.25,0.213-0.265
				c0.106-0.012,0.205,0.049,0.246,0.143L20.307,23.016z"/>
		</g>
	</g>
	
		<polygon clip-path="url(#SVGID_2_)" fill="#EBE0D5" stroke="#553E31" stroke-width="0.917" stroke-linecap="round" stroke-linejoin="round" stroke-miterlimit="10" points="
		-7.489,34.792 56.6,24.992 78.895,55.77 2.139,68.378 	"/>
	
		<path clip-path="url(#SVGID_2_)" fill="#CDB8AB" stroke="#553E31" stroke-width="0.917" stroke-linecap="round" stroke-linejoin="round" stroke-miterlimit="10" d="
		M54.255,45.728c-0.716-1.022-1.412-2.043-1.95-3.176c-0.547-1.153-1.234-2.272-2.533-2.738l-0.344-0.229
		c-1.058-1.17-2.805-1.646-4.293-2.02c-0.729-0.183-1.458-0.337-2.162-0.603c-0.365-0.138-0.996-0.425-1.069,0.202
		c-0.043,0.369,0.23,0.731,0.264,1.094c0.101,1.129-1.43,1.673-2.284,1.902c-0.655,0.177-1.354,0.252-2.031,0.252
		c-2.059,0-3.771-0.703-4.239-1.646c-0.015,0.006-0.03,0.014-0.046,0.021c-1.658,0.703-3.398,0.806-5.156,1.081
		c-0.68,0.108-1.387-0.101-2.074,0.032c-1.203,0.231-0.244,1.255-0.244,1.984c0,1.192-1.959,2.158-4.375,2.158
		c-0.83,0-1.678-0.111-2.471-0.368c-0.488-0.158-1.017-0.358-1.397-0.718c-0.458-0.432-0.581-1.153-1.345-1.18
		c-0.795-0.025-1.459,0.656-2.109,1.022c-0.707,0.396-1.4,0.793-2.061,1.267c-1.376,0.987-3.102,2.337-3.338,4.14
		c-0.061,0.459-0.014,0.921,0.088,1.369c0.1,0.44,0.219,1.026,0.453,1.416c1.296,2.154,3.945,2.314,6.236,2.137
		c1.37-0.106,2.693-0.25,4.039,0.083c1.26,0.313,2.475,0.865,3.762,1.05c4.325,0.62,8.866,0.911,13.23,0.803
		c2.709-0.067,5.41-0.472,8.089-0.864c2.276-0.331,4.64-0.171,6.817-1.014c1.559-0.604,2.865-1.852,3.398-3.459
		C55.598,48.25,55.113,46.954,54.255,45.728z"/>
	
		<ellipse clip-path="url(#SVGID_2_)" fill="#EBE0D5" stroke="#553E31" stroke-width="0.917" stroke-linecap="round" stroke-linejoin="round" stroke-miterlimit="10" cx="31.585" cy="43.003" rx="4.375" ry="2.158"/>
	
		<path clip-path="url(#SVGID_2_)" fill="#EBE0D5" stroke="#553E31" stroke-width="0.917" stroke-linecap="round" stroke-linejoin="round" stroke-miterlimit="10" d="
		M27.328,43.391c0.457-0.951,2.189-1.658,4.257-1.658c2.083,0,3.827,0.718,4.267,1.68"/>
	
		<ellipse clip-path="url(#SVGID_2_)" fill="#CDB8AB" stroke="#553E31" stroke-width="0.9635" stroke-linecap="round" stroke-linejoin="round" stroke-miterlimit="10" cx="32.007" cy="36.391" rx="4.375" ry="2.382"/>
	
		<polyline clip-path="url(#SVGID_2_)" fill="#CDB8AB" stroke="#553E31" stroke-width="0.9635" stroke-linecap="round" stroke-linejoin="round" stroke-miterlimit="10" points="
		27.632,36.391 27.632,30.317 36.382,30.317 36.382,36.391 	"/>
	
		<ellipse clip-path="url(#SVGID_2_)" fill="#EBE0D5" stroke="#553E31" stroke-width="0.9635" stroke-linecap="round" stroke-linejoin="round" stroke-miterlimit="10" cx="32.007" cy="30.317" rx="4.375" ry="2.383"/>
	
		<path clip-path="url(#SVGID_2_)" fill="#CDB8AB" stroke="#553E31" stroke-width="0.917" stroke-linecap="round" stroke-linejoin="round" stroke-miterlimit="10" d="
		M41.195-6.443c0,0-3.477,9.553-4.355,11.272c-0.877,1.716-1.599,3.493-2.668,5.104c-0.81,1.221-1.725,2.366-2.557,3.572
		c-1.025,1.484-1.877,3.024-3.037,4.416c-0.651,0.781-0.651,1.813-0.809,2.77c-0.169,1.028-0.412,2.051-0.52,3.089
		c-0.115,1.108-0.803,2.408-0.955,2.941c-0.153,0.535-0.23,1.492-0.23,2.331c0,0.841-0.305,1.949,0.115,2.752
		s0.574,1.604,0.994,1.871c0,0,0.841,0.364,0.879-0.229c0.037-0.592,0.019-1.068-0.058-1.642c-0.077-0.573-0.001-1.871,0.19-2.293
		c0.191-0.42,0.383-1.09,0.727-1.51s1.355-2.063,1.623-3.094c-0.305,1.051-0.61,2.293-0.82,2.923
		c-0.211,0.631-0.44,1.622-0.383,2.158c0.057,0.535-0.114,1.223-0.248,1.796s-0.325,1.698,0.133,2.464
		c0.459,0.765,0.688,0.782,1.166,0.86c0,0,0.898-0.153,1.127-1.108c0.229-0.955,1.07-3.591,1.3-4.222s0.764-2.272,0.897-2.75
		c0.135-0.479,0.459-1.396,0.65-1.74c0.189-0.344,0.439-0.745,0.629-0.917c0.191-0.171,0.898-0.4,1.204-0.057
		c0.306,0.343,0.478,1.013,0.459,1.51c-0.019,0.496-0.286,1.949-0.345,2.426c-0.057,0.478-0.456,1.818-0.41,2.413
		c0.036,0.468,0.029,1.106,0.354,1.354c0.324,0.25,0.726,0.415,0.936,0.148c0.211-0.267,0.543-1.204,0.669-1.565
		c0.146-0.417,0.33-0.955,0.604-1.333c0.333-0.459,0.618-1.478,0.561-1.916c-0.057-0.438,0.307-2.427,0.516-2.923
		c0.211-0.496,0.631-2.445,0.842-3.019c0.21-0.573,0.803-2.692,0.859-3.935c0.058-1.242,0.975-4.068,1.49-5.349
		c0.516-1.281,3.629-7.565,4.623-9.495s5.616-7.699,6.342-8.731L41.195-6.443z"/>
	
		<path clip-path="url(#SVGID_2_)" fill="#CDB8AB" stroke="#553E31" stroke-width="0.8839" stroke-linecap="round" stroke-linejoin="round" stroke-miterlimit="10" d="
		M21.307,36.061c-0.057-0.019-0.115-0.036-0.174-0.052c-0.602-0.155-1.211-0.122-1.816-0.024c-0.491,0.079-0.979,0.201-1.471,0.27
		c-0.546,0.074-1.096,0.225-1.594,0.532c-0.268,0.166-0.518,0.379-0.726,0.654c-1.484,1.98,3.654,2.645,4.302,2.666
		c1.016,0.034,2.029-0.042,2.988-0.509c0.445-0.218,1.236-0.757,1.29-1.466c0.053-0.682-0.575-0.955-0.967-1.165
		C22.537,36.643,21.943,36.263,21.307,36.061z"/>
	
		<path clip-path="url(#SVGID_2_)" fill="#CDB8AB" stroke="#553E31" stroke-width="0.8839" stroke-linecap="round" stroke-linejoin="round" stroke-miterlimit="10" d="
		M21.307,34.828c-0.057-0.018-0.115-0.035-0.174-0.05c-0.602-0.157-1.211-0.123-1.816-0.026c-0.491,0.08-0.979,0.202-1.471,0.27
		c-0.546,0.076-1.096,0.226-1.594,0.533c-0.268,0.166-0.518,0.378-0.726,0.656c-1.484,1.979,3.654,2.643,4.302,2.664
		c1.016,0.033,2.029-0.04,2.988-0.509c0.445-0.218,1.236-0.757,1.29-1.466c0.053-0.682-0.575-0.956-0.967-1.166
		C22.537,35.411,21.943,35.03,21.307,34.828z"/>
	
		<path clip-path="url(#SVGID_2_)" fill="#CDB8AB" stroke="#553E31" stroke-width="0.7749" stroke-linecap="round" stroke-linejoin="round" stroke-miterlimit="10" d="
		M41.074,31.731c0.051-0.016,0.103-0.031,0.153-0.045c0.528-0.131,1.062-0.098,1.592-0.009c0.431,0.073,0.857,0.183,1.288,0.246
		c0.479,0.069,0.959,0.206,1.394,0.479c0.233,0.147,0.451,0.336,0.633,0.578c1.287,1.746-3.223,2.293-3.79,2.308
		c-0.892,0.023-1.779-0.052-2.617-0.466c-0.388-0.194-1.078-0.672-1.121-1.294c-0.041-0.597,0.511-0.834,0.855-1.015
		C39.992,32.233,40.516,31.904,41.074,31.731z"/>
	
		<path clip-path="url(#SVGID_2_)" fill="#CDB8AB" stroke="#553E31" stroke-width="0.7749" stroke-linecap="round" stroke-linejoin="round" stroke-miterlimit="10" d="
		M41.083,30.651c0.05-0.017,0.102-0.03,0.153-0.043c0.528-0.134,1.063-0.1,1.592-0.012c0.431,0.075,0.856,0.186,1.288,0.247
		c0.479,0.071,0.959,0.205,1.394,0.479c0.233,0.147,0.451,0.334,0.631,0.581c1.288,1.744-3.222,2.292-3.789,2.306
		c-0.892,0.021-1.778-0.05-2.616-0.467c-0.388-0.193-1.079-0.671-1.121-1.294c-0.042-0.598,0.511-0.834,0.855-1.016
		C40.001,31.153,40.524,30.823,41.083,30.651z"/>
</g>
</svg>
