<?xml version="1.0" encoding="utf-8"?>
<!-- Generator: Adobe Illustrator 16.0.0, SVG Export Plug-In . SVG Version: 6.00 Build 0)  -->
<!DOCTYPE svg PUBLIC "-//W3C//DTD SVG 1.1//EN" "http://www.w3.org/Graphics/SVG/1.1/DTD/svg11.dtd">
<svg version="1.1" id="Layer_1" xmlns="http://www.w3.org/2000/svg" xmlns:xlink="http://www.w3.org/1999/xlink" x="0px" y="0px"
	 width="60px" height="60px" viewBox="0 0 60 60" enable-background="new 0 0 60 60" xml:space="preserve">
<g>
	<defs>
		<path id="SVGID_37_" d="M29.999,53.5C17.041,53.5,6.5,42.958,6.5,30c0-12.96,10.541-23.5,23.499-23.5
			C42.958,6.5,53.5,17.04,53.5,30C53.5,42.958,42.958,53.5,29.999,53.5z"/>
	</defs>
	<clipPath id="SVGID_2_">
		<use xlink:href="#SVGID_37_"  overflow="visible"/>
	</clipPath>
	<rect x="0.625" y="0.625" clip-path="url(#SVGID_2_)" fill="#FFFCF5" width="58.75" height="58.75"/>
	<g clip-path="url(#SVGID_2_)">
		<polygon fill="#EBE0D5" stroke="#553E31" stroke-miterlimit="10" points="57.76,25.288 3.019,37.436 20.693,57.916 53.253,55.052 
					"/>
		
			<path fill="#CDB8AB" stroke="#553E31" stroke-width="0.8821" stroke-linecap="round" stroke-linejoin="round" stroke-miterlimit="10" d="
			M44.303,36.201c0,7.741-6.495,14.019-14.508,14.019s-14.507-6.277-14.507-14.019"/>
		
			<ellipse fill="#EBE0D5" stroke="#553E31" stroke-width="0.8475" stroke-linecap="round" stroke-linejoin="round" stroke-miterlimit="10" cx="29.813" cy="36.229" rx="14.507" ry="6.773"/>
		
			<path fill="#E4D7CD" stroke="#553E31" stroke-width="0.9164" stroke-linecap="round" stroke-linejoin="round" stroke-miterlimit="10" d="
			M21.771,41.585c2.317,0.854,5.109,1.354,8.117,1.354c3.038,0,5.858-0.512,8.188-1.384c-1.007-1.496-4.27-2.594-8.144-2.594
			C26.036,38.962,22.756,40.073,21.771,41.585z"/>
		<g>
			<path fill="#CDB8AB" stroke="#553E31" stroke-linecap="round" stroke-linejoin="round" stroke-miterlimit="10" d="M34.727,35.246
				c0.441-0.248,0.83-0.632,1.127-1.179c0.637-1.16,0.571-2.5,0.775-3.768c0.209-1.297,1.467-2.983,0.301-4.169
				c-1.024-1.043-2.941-0.832-4.265-0.792c-1.5,0.046-2.284,0.617-3.304,1.51c-0.905,0.796-1.504,2.39-1.69,3.546
				c-0.169,1.045,0.498,2.392,1.166,3.139C30.177,35.031,32.911,36.271,34.727,35.246z"/>
			<path fill="#CDB8AB" stroke="#553E31" stroke-linecap="round" stroke-linejoin="round" stroke-miterlimit="10" d="M46.546,3.827
				c0,0-4.312,4.144-5.135,4.71c-0.823,0.565-2.767,2.887-3.71,3.371c-0.942,0.483-4.689,3.327-5.225,3.881
				c-0.538,0.553-1.438,1.051-1.794,1.467c-0.356,0.417-1.238,2.006-1.495,2.402c-0.256,0.399-2.174,2.302-2.617,3.026
				c-0.444,0.723-0.396,1.21-0.492,1.866c-0.094,0.657-0.068,1.963-0.129,2.584c-0.061,0.62-0.333,1.652-0.288,2.231
				c0.045,0.581,0.832,2.198,0.98,2.667c0.148,0.468,0.218,0.961,0.492,0.991c0.274,0.033,0.771,0.034,1.002-0.277
				c0,0,0.324-0.309,0.355-1.479c0.029-1.173,0.229-1.914,0.229-1.914s0.438-1.72,0.63-2.302c0,0-0.383,1.824-0.297,2.512
				c0.086,0.686,0.36,2.111,0.518,2.628c0.159,0.518,0.723,0.94,1.236,0.545c0.517-0.395,0.762-0.678,0.896-1.3
				c0.132-0.624,0.218-1.992,0.447-2.541c0.229-0.548,0.802-1.966,1.055-2.27c0.254-0.306,1.449-1.26,1.894-2.313
				c0.99-0.73,1.192-0.695,1.471-0.923c0.059,0.206,0.931,1.26,1.383,1.413c0,0-0.023,0.548,0.061,0.832
				c0,0-0.756,1.519-0.794,2.146s-0.482,0.942-0.599,1.154c-0.562,1.027-0.636,3.007-0.636,3.007s0.063,0.617,0.538,0.65
				c0.487,0.033,0.729-0.622,0.953-0.912c0.226-0.29,2.171-1.24,2.546-1.887c0.376-0.649,0.911-2.449,1.121-3.097
				c0.211-0.648,0.946-1.48,1.181-2.217c0.236-0.735,1.076-2.831,1.399-4.036c0.325-1.206,0.732-4.349,2.453-5.482
				c1.72-1.134,9.973-5.274,11.957-6.263c1.985-0.986,2.535-1.419,2.535-1.419L46.546,3.827z"/>
			<path fill="#CDB8AB" stroke="#553E31" stroke-linecap="round" stroke-linejoin="round" stroke-miterlimit="10" d="M32.496,21.132
				c0,0-1.751,2.142-2.183,2.82c-0.431,0.678-0.563,1.136-0.776,1.877c-0.214,0.742-0.176,0.918-0.195,1.313"/>
		</g>
		<g>
			<g>
				<path fill="#553E31" d="M27.811,10.926c-0.337,0.867-0.966,1.318-1.497,1.922c-0.535,0.587-1.027,1.209-1.469,1.869
					c-0.877,1.323-1.613,2.766-2.164,4.307c-0.556,1.562-1.048,3.064-1.171,4.711c-0.134,1.615-0.047,3.336,0.387,4.892l0.01,0.035
					c0.042,0.149-0.046,0.304-0.195,0.346c-0.136,0.038-0.277-0.032-0.332-0.158c-0.718-1.645-1.025-3.358-1.145-5.132
					c-0.122-1.762,0.126-3.616,0.631-5.278c0.486-1.692,1.14-3.382,2.091-4.926c0.47-0.773,1.001-1.513,1.581-2.208
					c0.583-0.68,1.159-1.429,2.094-1.689c0.523-0.146,1.066,0.16,1.213,0.685c0.06,0.213,0.044,0.429-0.031,0.62L27.811,10.926z"/>
			</g>
			<g>
				<path fill="#553E31" d="M22.15,11.114c0.707-0.578,1.469-1.058,2.342-1.436c0.867-0.363,1.872-0.636,3.019-0.472l0.009,0.001
					c0.377,0.054,0.664,0.34,0.74,0.692c0.15,0.713,0.112,1.194,0.064,1.762c-0.06,0.542-0.183,1.064-0.35,1.562
					c-0.338,0.994-0.864,1.877-1.486,2.642c-0.111,0.137-0.313,0.158-0.451,0.046c-0.113-0.093-0.146-0.251-0.09-0.38
					c0.367-0.847,0.593-1.731,0.636-2.593c0.02-0.431-0.002-0.854-0.071-1.258c-0.063-0.378-0.201-0.848-0.33-1.04l0.749,0.693
					c-0.524-0.287-1.293-0.376-2.077-0.3c-0.786,0.074-1.617,0.284-2.385,0.588l-0.016,0.007c-0.155,0.062-0.331-0.015-0.393-0.17
					C22.011,11.334,22.051,11.195,22.15,11.114z"/>
			</g>
		</g>
	</g>
</g>
</svg>
