<?xml version="1.0" encoding="utf-8"?>
<!-- Generator: Adobe Illustrator 16.0.0, SVG Export Plug-In . SVG Version: 6.00 Build 0)  -->
<!DOCTYPE svg PUBLIC "-//W3C//DTD SVG 1.1//EN" "http://www.w3.org/Graphics/SVG/1.1/DTD/svg11.dtd">
<svg version="1.1" id="Layer_1" xmlns="http://www.w3.org/2000/svg" xmlns:xlink="http://www.w3.org/1999/xlink" x="0px" y="0px"
	 width="60px" height="60px" viewBox="0 0 60 60" enable-background="new 0 0 60 60" xml:space="preserve">
<g>
	<defs>
		<path id="SVGID_11_" d="M30,54.02C16.756,54.02,5.98,43.245,5.98,30S16.756,5.98,30,5.98S54.02,16.755,54.02,30
			S43.244,54.02,30,54.02z"/>
	</defs>
	<clipPath id="SVGID_2_">
		<use xlink:href="#SVGID_11_"  overflow="visible"/>
	</clipPath>
	<polygon clip-path="url(#SVGID_2_)" fill="#EBE0D5" stroke="#553E31" stroke-width="0.9231" stroke-miterlimit="10" points="
		68.026,44.021 5.987,52.944 -5.396,22.791 39.873,17.021 	"/>
	
		<path clip-path="url(#SVGID_2_)" fill="#CDB8AB" stroke="#553E31" stroke-width="0.9231" stroke-linecap="round" stroke-linejoin="round" stroke-miterlimit="10" d="
		M31.521,25.31c-4.131-1.641-8.37-0.081-12.562,0.414c-2.247,0.265-4.421,0.382-6.444,1.531c-1.339,0.759-2.289,2.065-2.403,3.607
		c-0.154,2.073,1.89,3.21,3.43,4.194c1.672,1.066,3.56,2.209,4.913,3.682c0.956,1.04,1.175,2.513,2.143,3.514
		c1.096,1.135,2.559,1.278,4.054,1.081c1.278-0.167,2.543-0.57,3.812-0.806c1.488-0.275,3.017-0.508,4.532-0.544
		c2.528-0.06,5.198,0.563,7.668-0.132c2.165-0.609,4.006-2.635,4.291-4.894c0.416-3.32-3.11-5.499-5.604-6.907L31.521,25.31z"/>
	
		<ellipse transform="matrix(0.7682 -0.6402 0.6402 0.7682 -7.8135 14.1355)" clip-path="url(#SVGID_2_)" fill="#CDB8AB" stroke="#553E31" stroke-width="0.9231" stroke-linecap="round" stroke-linejoin="round" stroke-miterlimit="10" cx="15.616" cy="17.859" rx="1.83" ry="1.085"/>
	
		<ellipse transform="matrix(0.7682 -0.6402 0.6402 0.7682 -8.2915 15.0277)" clip-path="url(#SVGID_2_)" fill="#EBE0D5" stroke="#553E31" stroke-width="0.9231" stroke-linecap="round" stroke-linejoin="round" stroke-miterlimit="10" cx="16.606" cy="18.964" rx="2.785" ry="1.65"/>
	
		<polyline clip-path="url(#SVGID_2_)" fill="#EBE0D5" stroke="#553E31" stroke-width="0.9231" stroke-linecap="round" stroke-linejoin="round" stroke-miterlimit="10" points="
		18.746,17.181 45.804,41.684 41.522,45.249 14.467,20.747 	"/>
	
		<path clip-path="url(#SVGID_2_)" fill="#CDB8AB" stroke="#553E31" stroke-width="0.9231" stroke-linecap="round" stroke-linejoin="round" stroke-miterlimit="10" d="
		M45.804,41.684c0.583,0.7,0.098,2.067-1.083,3.052s-2.614,1.213-3.198,0.514c-0.583-0.7-0.096-2.066,1.083-3.052
		C43.79,41.213,45.222,40.984,45.804,41.684z"/>
	
		<path clip-path="url(#SVGID_2_)" fill="#CDB8AB" stroke="#553E31" stroke-width="0.9231" stroke-linecap="round" stroke-linejoin="round" stroke-miterlimit="10" d="
		M45.974,43.185c0.382,0.462,0.064,1.357-0.712,2.006c-0.777,0.646-1.717,0.797-2.101,0.337c-0.382-0.461-0.063-1.356,0.71-2.006
		C44.65,42.875,45.59,42.726,45.974,43.185z"/>
	
		<path clip-path="url(#SVGID_2_)" fill="#CDB8AB" stroke="#553E31" stroke-width="0.9231" stroke-linecap="round" stroke-linejoin="round" stroke-miterlimit="10" d="
		M32.763,35.962c-0.987,1.466-1.908,3.191-1.486,3.559c0.424,0.367,0.47,0.971,1.74-0.271c1.27-1.24,2.581-2.724,3.795-3.654
		c0,0,1.608-1.513,1.884-1.778c0.545-0.521,0.867-0.677,1.438-1.143c-0.358,0.255-0.925,0.818-0.925,0.818s-0.687,0.71-1.057,1.044
		c-0.424,0.381-1.51,1.313-1.961,1.777c-0.387,0.4-1.01,1.269-0.467,1.722c0.424,0.353,0.74,0.438,1.609-0.07
		c0.867-0.507,1.945-1.432,2.454-1.982c0.508-0.551,2.105-1.967,2.625-2.35c0.635-0.464,3.437-1.467,4.643-2.608
		c1.206-1.145,3.725-4.444,5.396-6.033c1.672-1.587,8.571-7.935,10.392-9.819c1.819-1.883,5.038-9.354,5.038-9.354l-9.609-0.163"/>
	
		<path clip-path="url(#SVGID_2_)" fill="#CDB8AB" stroke="#553E31" stroke-width="0.9231" stroke-linecap="round" stroke-linejoin="round" stroke-miterlimit="10" d="
		M58.355,5.683c0,0-11.37,13.856-12.388,14.73c-1.015,0.876-1.833,1.638-4.262,2.287c-2.427,0.648-2.313,0.732-3.188,1.186
		c-0.874,0.45-3.245,1.777-3.95,2.114c-0.707,0.34-1.523,1.101-2.257,1.356c-0.735,0.253-1.553,0.395-1.553,0.395
		s-0.622,0.282-0.339,0.706c0.282,0.423,1.326,1.044,2.286,0.591c0.959-0.45,1.946-1.044,2.597-1.607
		c-1.214,0.987-2.644,2.02-3.161,2.427c-0.593,0.466-1.136,0.974-1.707,1.481c-0.582,0.519-1.807,1.671-2.371,2.512
		c-0.516,0.77-1.191,1.713-0.661,2.243c0.395,0.396,0.958,0.331,2.003-0.657c1.044-0.987,2.105-2.054,2.856-2.729
		c0.867-0.784,0.584-0.593,1.91-1.58c1.327-0.987,1.327-0.987,1.327-0.987s-2.324,1.755-3.302,2.85
		c-0.704,0.79-1.015,1.101-1.015,1.101s-0.649,0.761-1.157,1.495c-0.509,0.734-1.104,1.759-1.241,2.173
		c-0.19,0.57-0.304,1.144,0.057,1.523c0.478,0.507,1.016,0.359,1.834-0.563c0.892-1.007,1.946-2.454,2.681-3.217
		c0.733-0.763,1.08-1.192,2.258-2.23c1.248-1.1,2.256-1.713,2.539-1.939"/>
	
		<path clip-path="url(#SVGID_2_)" fill="#CDB8AB" stroke="#553E31" stroke-width="0.9231" stroke-linecap="round" stroke-linejoin="round" stroke-miterlimit="10" d="
		M17.271,27.286c-0.507,0.401-1.383,0.676-1.396-0.085c-0.012-0.615,0.831-2.104,1.149-2.633c0.317-0.528,1.369-1.938,1.693-2.286
		c0.317-0.338,1.842-1.734,1.842-1.734c-0.455,0.349-0.89,0.782-1.334,1.163c-0.543,0.467-1.185,1.249-1.693,1.736
		c-0.508,0.487-1.164,0.338-1.333,0.148c-0.17-0.191-0.084-0.445,0.212-0.932c0.295-0.486,1.016-1.609,1.756-2.2
		c0.741-0.594,3.704-2.604,4.762-3.493c1.059-0.888,3.768-3.345,4.403-3.937c0.635-0.593,0.57-1.651,0.824-2.476
		c0.255-0.826,0.699-4.91,0.699-4.91l6.92-0.317c0,0-1.291,6.603-1.438,7.449c-0.147,0.846-0.826,2.667-0.804,3.597
		c0.02,0.934,0.147,1.906,0.02,2.794c-0.126,0.89-0.825,2.689-1.417,3.366c-0.594,0.677-1.271,1.121-1.651,1.715
		c-0.381,0.592-0.592,0.656-1.059,1.566c-0.465,0.909-0.719,0.974-1.036,1.036c-0.317,0.063-0.974-0.043-1.249-0.551
		c-0.274-0.508-0.509-1.142-0.253-1.756c0.253-0.613,0.804-1.397,1.227-1.736c0.423-0.338,0.825-0.867,0.953-1.121
		c-0.318,0.17-1.313,0.762-1.735,1.08c-0.424,0.317-1.279,1.152-1.673,1.576c-0.423,0.456-1.333,1.545-1.819,2.264
		c-0.423,0.625-1.249,1.778-1.641,2.393c-0.356,0.558-1.186,2.052-1.863,1.65c-0.635-0.592-0.698-1.186-0.433-1.99
		c0,0,1.314-2.385,1.83-3.228c0.571-0.93,1.714-2.708,2.233-3.27c0,0-2.201,2.593-2.73,3.27c-0.362,0.465-0.994,1.334-1.439,1.969
		c-0.412,0.589-1.291,1.502-1.651,1.799c-0.359,0.297-0.613,0.466-1.078,0.318c-0.466-0.148-0.529-0.232-0.466-0.636
		c0.063-0.402,0.243-0.856,0.624-1.449s1.472-2.013,1.852-2.605c0.298-0.462,0.725-0.978,1.129-1.566
		c0.254-0.371,1.539-1.553,1.877-1.892"/>
	
		<path clip-path="url(#SVGID_2_)" fill="#CDB8AB" stroke="#553E31" stroke-width="0.9231" stroke-linecap="round" stroke-linejoin="round" stroke-miterlimit="10" d="
		M40.304,38.314"/>
</g>
</svg>
