<?xml version="1.0" encoding="utf-8"?>
<!-- Generator: Adobe Illustrator 15.0.0, SVG Export Plug-In . SVG Version: 6.00 Build 0)  -->
<!DOCTYPE svg PUBLIC "-//W3C//DTD SVG 1.1//EN" "http://www.w3.org/Graphics/SVG/1.1/DTD/svg11.dtd">
<svg version="1.1" id="Layer_1" xmlns="http://www.w3.org/2000/svg" xmlns:xlink="http://www.w3.org/1999/xlink" x="0px" y="0px"
	 width="60px" height="60px" viewBox="0 0 60 60" enable-background="new 0 0 60 60" xml:space="preserve">
<g>
	<defs>
		<path id="SVGID_1_" d="M30,54.02c-13.244,0-24.02-10.773-24.02-24.019S16.756,5.98,30,5.98s24.02,10.775,24.02,24.021
			S43.244,54.02,30,54.02z"/>
	</defs>
	<clipPath id="SVGID_2_">
		<use xlink:href="#SVGID_1_"  overflow="visible"/>
	</clipPath>
	<g clip-path="url(#SVGID_2_)">
		<polygon fill="#EBE0D5" stroke="#553E31" stroke-linecap="round" stroke-linejoin="round" stroke-miterlimit="10" points="
			24.925,45.99 24.036,10.566 54.804,18.217 54.899,55.703 		"/>
		<polygon fill="#553E31" stroke="#553E31" stroke-linecap="round" stroke-linejoin="round" stroke-miterlimit="10" points="
			28.4,17.481 50.579,23.517 50.579,47.301 29.062,40.768 		"/>
		<path fill="#EBE0D5" stroke="#553E31" stroke-linecap="round" stroke-linejoin="round" stroke-miterlimit="10" d="M15.534,31.962
			c1.195-3.519,7.444-6.221,14.361-6.221c8.178,0,14.808,3.456,14.808,7.719s-6.63,7.718-14.808,7.718
			c-3.964,0-7.444-1.047-10.103-2.369"/>
		<path fill="#CDB8AB" stroke="#553E31" stroke-linecap="round" stroke-linejoin="round" stroke-miterlimit="10" d="M0.31,24.048
			c0,0,7.408,4.943,8.879,5.898c1.475,0.956,3.169,2.188,4.204,2.063s3.31-0.039,4.471,0.683c1.161,0.721,2.565,2.117,3.601,2.588
			s2.891,1.172,3.458,1.482c0.519,0.281,1.002,0.943,0.707,1.459c-0.283,0.494-0.683,0.855-1.624,0.729
			c-0.941-0.125-3.286-0.51-3.977-1.105c-0.132-0.113-0.719-0.514-0.847-0.611c-0.545-0.408-1.147-0.482-1.553-0.66
			c0.393,0.125,1.281,0.789,1.411,0.965c0.216,0.295,0.313,0.514,0.341,0.777c0.035,0.33,0.332,0.438,0.694,0.635
			c0.346,0.189,2.142,1.154,4.941,1.717c1.983,0.402,2.746,0.488,3.436,0.52c-0.023,0.375-1.341,0.518-2.071,0.588
			c-0.729,0.07-1.137,0.307-1.678,0.33s-1.538-0.189-2.149-0.205c-0.974-0.023-1.303,0-1.819,0.064
			c-0.966,0.115-1.482,0.273-2.519,0.775c-1.035,0.502-2.399,0.729-3.388,0.047c-0.66-0.455-4.196-3.646-5.106-4.307
			c-0.909-0.658-3.733-2.385-5.02-3.168s-5.49-3.263-6.243-3.514S0.31,24.048,0.31,24.048z"/>
		
			<ellipse fill="#CDB8AB" stroke="#553E31" stroke-linecap="round" stroke-linejoin="round" stroke-miterlimit="10" cx="30.13" cy="33.475" rx="8.016" ry="3.688"/>
		<path fill="#EBE0D5" stroke="#553E31" stroke-linecap="round" stroke-linejoin="round" stroke-miterlimit="10" d="M13.958,41.396"
			/>
		<g>
			<g>
				<path fill="#CDB8AB" d="M48.797,36.168c-0.071,0.617-0.52,1.12-0.899,1.575c-0.397,0.466-0.83,0.903-1.29,1.305
					c-0.917,0.813-1.971,1.438-3.041,1.962c-1.054,0.524-2.255,0.914-3.445,1.036c-1.194,0.127-2.376,0.122-3.556-0.165
					c-0.094-0.023-0.152-0.118-0.129-0.213c0.021-0.087,0.104-0.143,0.19-0.133l0.022,0.002c1.094,0.122,2.257-0.01,3.328-0.277
					c1.094-0.261,2.05-0.763,3.037-1.309c0.97-0.548,1.862-1.197,2.651-1.941c0.394-0.373,0.758-0.774,1.093-1.2
					c0.353-0.437,0.571-0.877,1.11-1.239c0.275-0.185,0.648-0.111,0.833,0.164c0.083,0.123,0.114,0.266,0.099,0.402L48.797,36.168z"
					/>
			</g>
			<g>
				<path fill="#CDB8AB" d="M47.971,39.203c0.116-0.548,0.161-1.128,0.121-1.662c-0.039-0.534-0.187-1.038-0.438-1.355l0.55,0.422
					l0,0c-0.143-0.064-0.473-0.103-0.732-0.102c-0.278-0.001-0.564,0.032-0.85,0.095c-0.572,0.126-1.138,0.378-1.663,0.72
					c-0.1,0.067-0.235,0.04-0.303-0.06c-0.056-0.083-0.044-0.192,0.018-0.265c0.44-0.504,0.971-0.957,1.598-1.296
					c0.313-0.169,0.649-0.311,1.006-0.412c0.374-0.097,0.691-0.178,1.187-0.157l0,0l0.111,0.024
					c0.214,0.046,0.376,0.203,0.438,0.397c0.241,0.749,0.174,1.453,0.029,2.075c-0.153,0.627-0.388,1.192-0.694,1.731
					c-0.056,0.099-0.182,0.133-0.28,0.077c-0.079-0.046-0.117-0.136-0.1-0.221L47.971,39.203z"/>
			</g>
		</g>
	</g>
</g>
</svg>
