<?xml version="1.0" encoding="utf-8"?>
<!-- Generator: Adobe Illustrator 16.0.0, SVG Export Plug-In . SVG Version: 6.00 Build 0)  -->
<!DOCTYPE svg PUBLIC "-//W3C//DTD SVG 1.1//EN" "http://www.w3.org/Graphics/SVG/1.1/DTD/svg11.dtd">
<svg version="1.1" id="Layer_1" xmlns="http://www.w3.org/2000/svg" xmlns:xlink="http://www.w3.org/1999/xlink" x="0px" y="0px"
	 width="60px" height="60px" viewBox="0 0 60 60" enable-background="new 0 0 60 60" xml:space="preserve">
<g>
	<defs>
		<path id="SVGID_21_" d="M30,53.5C17.042,53.5,6.5,42.959,6.5,30S17.042,6.5,30,6.5S53.5,17.041,53.5,30S42.958,53.5,30,53.5z"/>
	</defs>
	<clipPath id="SVGID_2_">
		<use xlink:href="#SVGID_21_"  overflow="visible"/>
	</clipPath>
	<rect x="0.625" y="0.625" clip-path="url(#SVGID_2_)" fill="#FFFCF5" width="58.75" height="58.75"/>
	<polygon clip-path="url(#SVGID_2_)" fill="#EBE0D5" stroke="#553E31" stroke-miterlimit="10" points="-15.104,40.831 
		57.605,30.989 68.334,67.021 -9.257,72.574 	"/>
	<path clip-path="url(#SVGID_2_)" fill="#CDB8AB" stroke="#553E31" stroke-width="0.9231" stroke-miterlimit="10" d="M13.817,38.465
		c0,6.693,6.622,12.117,14.791,12.117c8.168,0,14.792-5.424,14.792-12.117H13.817z"/>
	
		<ellipse clip-path="url(#SVGID_2_)" fill="#EBE0D5" stroke="#553E31" stroke-width="0.9231" stroke-miterlimit="10" cx="28.609" cy="37.973" rx="14.792" ry="5.142"/>
	<g clip-path="url(#SVGID_2_)">
		<defs>
			<path id="SVGID_23_" d="M28.496,33.717c-8.088,0-14.667,2.027-14.667,4.522c0,2.494,6.579,4.523,14.667,4.523
				c8.085,0,14.666-2.029,14.666-4.523C43.162,35.744,36.581,33.717,28.496,33.717z"/>
		</defs>
		<clipPath id="SVGID_4_">
			<use xlink:href="#SVGID_23_"  overflow="visible"/>
		</clipPath>
		
			<ellipse clip-path="url(#SVGID_4_)" fill="none" stroke="#553E31" stroke-width="0.9231" stroke-miterlimit="10" cx="29.093" cy="43.613" rx="7.605" ry="3.368"/>
	</g>
	<g clip-path="url(#SVGID_2_)">
		<g>
			<path fill="#553E31" d="M18.25,31.816c0,0-0.225-0.168-0.459-0.532c-0.115-0.177-0.232-0.416-0.328-0.738
				c-0.101-0.309-0.234-0.657-0.317-1.037c-0.199-0.755-0.381-1.657-0.435-2.628c-0.07-0.971-0.006-1.999,0.099-3.01
				c0.085-0.506,0.144-0.988,0.253-1.503c0.107-0.446,0.271-0.987,0.44-1.421c0.341-0.904,0.777-1.685,1.182-2.324
				c0.407-0.639,0.804-1.128,1.096-1.459c0.289-0.329,0.497-0.504,0.497-0.504c0.091-0.077,0.229-0.065,0.306,0.026
				c0.07,0.084,0.065,0.207-0.007,0.286c0,0-0.148,0.163-0.38,0.514c-0.229,0.348-0.539,0.86-0.836,1.51
				c-0.296,0.647-0.591,1.427-0.775,2.281c-0.099,0.442-0.158,0.825-0.206,1.328c-0.036,0.459-0.073,0.926-0.11,1.393
				c-0.028,0.939-0.021,1.874,0.105,2.728c0.089,0.858,0.281,1.638,0.486,2.29c0.088,0.335,0.213,0.609,0.306,0.863
				c0.093,0.244,0.178,0.484,0.242,0.695c0.11,0.42,0.082,0.699,0.082,0.699c-0.043,0.427-0.424,0.738-0.852,0.695
				C18.494,31.954,18.359,31.897,18.25,31.816z"/>
		</g>
		<g>
			<path fill="#553E31" d="M15.913,29.17c0.453,0.445,0.978,0.839,1.511,1.129c0.534,0.288,1.101,0.447,1.558,0.407l-0.735,0.267
				c0.011,0.005,0.08-0.06,0.123-0.104c0.05-0.049,0.099-0.105,0.147-0.161c0.094-0.116,0.188-0.239,0.271-0.373
				c0.169-0.265,0.313-0.558,0.428-0.867c0.221-0.623,0.33-1.314,0.322-2.024c-0.003-0.136,0.104-0.248,0.24-0.252
				c0.113-0.002,0.211,0.074,0.242,0.178c0.213,0.726,0.316,1.507,0.265,2.312c-0.031,0.401-0.102,0.807-0.22,1.209
				c-0.057,0.201-0.133,0.4-0.219,0.6c-0.045,0.1-0.09,0.198-0.146,0.299c-0.059,0.106-0.099,0.187-0.206,0.328l-0.015,0.02
				c-0.172,0.229-0.461,0.317-0.721,0.248c-0.858-0.231-1.49-0.718-1.995-1.234c-0.503-0.529-0.9-1.096-1.228-1.714
				c-0.06-0.113-0.017-0.254,0.097-0.313c0.092-0.049,0.201-0.029,0.271,0.039L15.913,29.17z"/>
		</g>
	</g>
	
		<path clip-path="url(#SVGID_2_)" fill="#EBE0D5" stroke="#553E31" stroke-width="1.1129" stroke-linecap="round" stroke-linejoin="round" stroke-miterlimit="10" d="
		M44.61,20.742c-0.426-2.523-2.516-4.276-4.665-3.914c-0.261,0.045-0.509,0.119-0.744,0.217l-11.92,3.463l3.974,11.846l10.86-6.557
		c0.378-0.142,0.724-0.348,1.032-0.607l0.021-0.01l-0.001-0.004C44.302,24.206,44.911,22.521,44.61,20.742z"/>
	
		<path clip-path="url(#SVGID_2_)" fill="#CDB8AB" stroke="#553E31" stroke-width="1.1129" stroke-linecap="round" stroke-linejoin="round" stroke-miterlimit="10" d="
		M37.218,29.31c0.455,0.438,1.178,1.013,1.591,0.619c0.414-0.392,0.867-1.817,1.24-2.354c0.372-0.537,0.805-1.24,1.095-1.734
		c0.29-0.497,0.826-1.881,0.764-2.687s-0.187-2.108,0.104-2.892c0.29-0.787,1.054-2.253,1.488-2.936
		c0.433-0.681,0.536-1.817,0.764-2.809c0.227-0.992,0.393-3.201,1.425-4.174c1.033-0.972,4.938-3.863,6.59-4.627
		c1.654-0.766,11.074-6.51,13.202-7.955c2.127-1.445,2.148-3.408,2.148-3.408L49.407-4.738c0,0-8.637,8.967-9.918,10.206
		c-1.279,1.24-8.263,6.24-9.089,6.694c-0.826,0.453-1.942,1.736-2.354,2.727c-0.414,0.992-1.074,1.735-1.55,2.045
		c-0.477,0.311-2.355,1.344-2.687,1.695c-0.33,0.351-0.495,1.301-0.598,1.775c0,0-0.784,2.314-0.641,3.307s0.827,2.438,1.115,2.892
		c0,0,0-2.769,0.743-3.78c0.744-1.012,1.57-1.818,2.852-2.314c1.28-0.496,1.859-0.93,3.223-1.261
		c1.363-0.329,2.582-0.372,3.822-0.226c1.24,0.145,2.417,0.557,2.748,0.929c0.329,0.372,0.577,1.157,0.558,1.901
		c-0.021,0.743-0.208,1.797-0.165,2.376c0.04,0.579-0.291,1.612-0.435,2.087S36.64,28.752,37.218,29.31z"/>
	
		<ellipse transform="matrix(0.9861 -0.1664 0.1664 0.9861 -3.9888 5.2235)" clip-path="url(#SVGID_2_)" fill="#EBE0D5" stroke="#553E31" stroke-width="1.1129" stroke-linecap="round" stroke-linejoin="round" stroke-miterlimit="10" cx="29.174" cy="26.413" rx="5.369" ry="6.303"/>
	
		<path clip-path="url(#SVGID_2_)" fill="#CDB8AB" stroke="#553E31" stroke-width="1.1129" stroke-linecap="round" stroke-linejoin="round" stroke-miterlimit="10" d="
		M34.469,25.52c-0.341,0.07-1.457,0.168-1.754,0.361c-0.809,0.521-1.845,0.988-2.756,1.295c-1.012,0.342-1.992,0.473-3.027,0.693
		c-0.848,0.181-1.216,0.931-1.758,1.626c-0.618,0.796-0.476,1.514-0.2,2.417c0.207,0.674,0.33,1.951,0.304,2.688
		c-0.029,0.786-0.077,1.801,0.179,2.56c0.324,0.959,1.565,1.221,2.549,1.171c1.002-0.052,0.902-1.338,1.198-2.134
		c0.216-0.585,0.358-1.097,0.743-1.597c0.478-0.622,0.405-1.369,0.867-1.834c0.95-0.949,1.708-1.033,2.812-2.369
		C34.409,29.074,34.469,25.52,34.469,25.52"/>
</g>
</svg>
