<?xml version="1.0" encoding="utf-8"?>
<!-- Generator: Adobe Illustrator 15.0.0, SVG Export Plug-In . SVG Version: 6.00 Build 0)  -->
<!DOCTYPE svg PUBLIC "-//W3C//DTD SVG 1.1//EN" "http://www.w3.org/Graphics/SVG/1.1/DTD/svg11.dtd">
<svg version="1.1" id="Layer_1" xmlns="http://www.w3.org/2000/svg" xmlns:xlink="http://www.w3.org/1999/xlink" x="0px" y="0px"
	 width="60px" height="60px" viewBox="0 0 60 60" enable-background="new 0 0 60 60" xml:space="preserve">
<g>
	<defs>
		<path id="SVGID_1_" d="M29.999,54.02C16.755,54.02,5.98,43.244,5.98,30c0-13.246,10.774-24.02,24.019-24.02
			C43.244,5.98,54.02,16.754,54.02,30C54.02,43.244,43.244,54.02,29.999,54.02z"/>
	</defs>
	<clipPath id="SVGID_2_">
		<use xlink:href="#SVGID_1_"  overflow="visible"/>
	</clipPath>
	
		<path clip-path="url(#SVGID_2_)" fill="#EBE0D5" stroke="#553E31" stroke-width="1.0365" stroke-linecap="round" stroke-linejoin="round" stroke-miterlimit="10" d="
		M18.78,42.973c4.409-0.434,8.56-1.92,12.874-2.853c4.928-1.064,12.4-3.043,15.955,1.87c1.09,1.508,2.258,3.599,0.994,5.332
		c-1.54,2.113-3.66,3.723-5.824,5.128c-2.009,1.306-4.299,3.103-6.733,3.31c-1.21,0.103-2.421-0.191-3.614-0.332
		c-4.581-0.54-8.975-0.401-13.463-1.757c-3.078-0.93-6.648-2.052-8.857-4.592C6.195,44.576,16.253,43.223,18.78,42.973z"/>
	
		<path clip-path="url(#SVGID_2_)" fill="#CDB8AB" stroke="#553E31" stroke-width="1.0365" stroke-linecap="round" stroke-linejoin="round" stroke-miterlimit="10" d="
		M64.215,35.652"/>
	
		<path clip-path="url(#SVGID_2_)" fill="#CDB8AB" stroke="#553E31" stroke-width="1.0365" stroke-linecap="round" stroke-linejoin="round" stroke-miterlimit="10" d="
		M54.515,0.013c0,0-6.581,3.399-8.263,4.326c0,0-4.043,2.331-5.391,3.08c-1.348,0.748-3.65,1.041-4.9,1.668
		s-3.609,2.116-4.327,2.407c-0.718,0.289-2.026,0.594-2.604,1.838c-0.58,1.243-1.475,3.433-1.96,4.299
		c-0.485,0.865-1.27,2.011-1.451,2.938c-0.114,0.515,0.072,0.92,0.048,1.015c-0.021,0.096-0.437,0.805-0.438,1.078
		c-0.004,0.274,0.383,1.324,0.736,1.684c0.005,0.615-0.215,1.714-0.112,2.479c0.101,0.766,0.42,1.827,0.882,2.491
		c0.461,0.665,1.092,1.368,1.488,1.726c0.395,0.358,0.555-0.029,0.754-0.188c0.198-0.16,0.389-1.821,0.309-2.323
		c-0.078-0.503-0.333-0.983-0.333-0.983s0.772-1.615,0.876-2.644c0.818-0.728,2.25-1.95,2.889-2.354
		c0.531-0.338,0.971-0.297,1.297-0.415c0.324-0.118,1.145-0.359,1.566-0.37c0.422-0.009,1.063-0.358,1.321-0.465
		c-0.827,0.301-1.474,0.851-1.904,1.034c0,0-1.16,0.582-1.782,1.024c-0.622,0.44-1.836,1.598-2.246,2.12
		C30.56,26,29.5,27.535,29.416,28.298c-0.084,0.762-0.27,2.235-0.187,2.594c0.084,0.355,0.78,0.563,1.136,0.289
		c0.356-0.273,1.014-1.057,1.35-1.425c0.338-0.366,0.662-0.867,1.358-1.409c0.589-0.459,1.026-0.805,1.517-1.17
		c0.527-0.395,0.805-0.745,1.584-1.193c0.996-0.574,1.762-1.113,2.219-1.309c0.885-0.379,1.811-0.593,2.285-1.125
		c0.477-0.53,1.318-1.65,1.841-2.014c0.523-0.361,1.559-1.915,1.842-2.434c0.283-0.52,0.788-2.368,3.009-4.094
		c2.219-1.727,6.445-3.42,8.237-3.915S69.074,8.203,70.35,7.926C71.623,7.648,54.515,0.013,54.515,0.013z"/>
	
		<path clip-path="url(#SVGID_2_)" fill="#CDB8AB" stroke="#553E31" stroke-width="1.0365" stroke-linecap="round" stroke-linejoin="round" stroke-miterlimit="10" d="
		M28.981,16.476c0,0-2.335,2.916-3.266,5.049"/>
	
		<path clip-path="url(#SVGID_2_)" fill="#CDB8AB" stroke="#553E31" stroke-width="1.0365" stroke-linecap="round" stroke-linejoin="round" stroke-miterlimit="10" d="
		M30.215,17.721c0,0-3.032,3.829-3.484,4.309c-0.453,0.481-0.714,1.265-0.766,2.316"/>
	
		<path clip-path="url(#SVGID_2_)" fill="none" stroke="#553E31" stroke-width="0.75" stroke-linecap="round" stroke-linejoin="round" stroke-miterlimit="10" d="
		M27.784,34.596c0,0-0.302,0.918-0.06,1.744"/>
	
		<path clip-path="url(#SVGID_2_)" fill="none" stroke="#553E31" stroke-width="0.75" stroke-linecap="round" stroke-linejoin="round" stroke-miterlimit="10" d="
		M29.646,34.766c-0.265,0.825,0.113,1.163,0.188,1.743"/>
	
		<path clip-path="url(#SVGID_2_)" fill="none" stroke="#553E31" stroke-width="0.75" stroke-linecap="round" stroke-linejoin="round" stroke-miterlimit="10" d="
		M29.022,38.373c0.03,1.866,0.634,1.438,0.091,2.602"/>
	
		<path clip-path="url(#SVGID_2_)" fill="none" stroke="#553E31" stroke-width="0.75" stroke-linecap="round" stroke-linejoin="round" stroke-miterlimit="10" d="
		M29.037,32.271c-0.121,0.367-0.061,0.857,0.029,1.041"/>
	
		<path clip-path="url(#SVGID_2_)" fill="none" stroke="#553E31" stroke-width="0.75" stroke-linecap="round" stroke-linejoin="round" stroke-miterlimit="10" d="
		M30.319,32.974c0.272,0.368,0.514,0.918,0.241,0.979"/>
	
		<path clip-path="url(#SVGID_2_)" fill="none" stroke="#553E31" stroke-width="0.75" stroke-linecap="round" stroke-linejoin="round" stroke-miterlimit="10" d="
		M31.463,38.108c0,0.122-0.197,0.581-0.197,0.948"/>
	
		<path clip-path="url(#SVGID_2_)" fill="none" stroke="#553E31" stroke-width="0.75" stroke-linecap="round" stroke-linejoin="round" stroke-miterlimit="10" d="
		M25.985,43.453c-0.06,0.152-0.21,1.377-0.12,1.836"/>
	
		<path clip-path="url(#SVGID_2_)" fill="none" stroke="#553E31" stroke-width="0.75" stroke-linecap="round" stroke-linejoin="round" stroke-miterlimit="10" d="
		M29.82,42.702c0,0.213,0.121,0.58,0.03,0.854"/>
	
		<path clip-path="url(#SVGID_2_)" fill="none" stroke="#553E31" stroke-width="0.75" stroke-linecap="round" stroke-linejoin="round" stroke-miterlimit="10" d="
		M29.141,46.224c-0.314,0.263-0.775,0.813-1.238,1.085"/>
	
		<path clip-path="url(#SVGID_2_)" fill="none" stroke="#553E31" stroke-width="0.75" stroke-linecap="round" stroke-linejoin="round" stroke-miterlimit="10" d="
		M27.668,50.563c-0.121,0.368-0.061,0.857,0.029,1.041"/>
	
		<path clip-path="url(#SVGID_2_)" fill="none" stroke="#553E31" stroke-width="0.75" stroke-linecap="round" stroke-linejoin="round" stroke-miterlimit="10" d="
		M31.494,47.072c0,0.213,0.12,0.58,0.029,0.855"/>
	
		<path clip-path="url(#SVGID_2_)" fill="none" stroke="#553E31" stroke-width="0.75" stroke-linecap="round" stroke-linejoin="round" stroke-miterlimit="10" d="
		M32.184,43.938c0,0.183,0.03,1.162-0.031,1.315"/>
	
		<path clip-path="url(#SVGID_2_)" fill="none" stroke="#553E31" stroke-width="0.75" stroke-linecap="round" stroke-linejoin="round" stroke-miterlimit="10" d="
		M27.016,40.447c0.061,0.98,0.061,1.188-0.061,1.652"/>
	
		<path clip-path="url(#SVGID_2_)" fill="none" stroke="#553E31" stroke-width="0.75" stroke-linecap="round" stroke-linejoin="round" stroke-miterlimit="10" d="
		M32.074,41.139c0.13,0.581,0.521,0.521,0.391,1.01"/>
	
		<path clip-path="url(#SVGID_2_)" fill="none" stroke="#553E31" stroke-width="0.75" stroke-linecap="round" stroke-linejoin="round" stroke-miterlimit="10" d="
		M28.757,49.231c0.644-0.261,0.644-0.652,0.901-0.652"/>
	
		<path clip-path="url(#SVGID_2_)" fill="none" stroke="#553E31" stroke-width="0.75" stroke-linecap="round" stroke-linejoin="round" stroke-miterlimit="10" d="
		M34.461,48.472c0.602-0.131,1.158-0.436,1.373-0.261"/>
	
		<path clip-path="url(#SVGID_2_)" fill="none" stroke="#553E31" stroke-width="0.75" stroke-linecap="round" stroke-linejoin="round" stroke-miterlimit="10" d="
		M24.553,47.819c0.602-0.131,1.158-0.436,1.373-0.261"/>
	
		<path clip-path="url(#SVGID_2_)" fill="none" stroke="#553E31" stroke-width="0.75" stroke-linecap="round" stroke-linejoin="round" stroke-miterlimit="10" d="
		M33.969,50.473c-0.473,0.173-0.9,0.564-1.072,0.956"/>
	
		<path clip-path="url(#SVGID_2_)" fill="none" stroke="#553E31" stroke-width="0.75" stroke-linecap="round" stroke-linejoin="round" stroke-miterlimit="10" d="
		M34.934,45.58c-0.473,0.173-0.9,0.564-1.072,0.956"/>
	
		<path clip-path="url(#SVGID_2_)" fill="none" stroke="#553E31" stroke-width="0.75" stroke-linecap="round" stroke-linejoin="round" stroke-miterlimit="10" d="
		M23.053,49.58c0.471,0.218,1.373,0.393,1.415,0.696"/>
	
		<path clip-path="url(#SVGID_2_)" fill="none" stroke="#553E31" stroke-width="0.75" stroke-linecap="round" stroke-linejoin="round" stroke-miterlimit="10" d="
		M29.121,51.016c0.559,0.087,1.03,0.13,1.459,0"/>
</g>
</svg>
