<?xml version="1.0" encoding="utf-8"?>
<!-- Generator: Adobe Illustrator 16.0.0, SVG Export Plug-In . SVG Version: 6.00 Build 0)  -->
<!DOCTYPE svg PUBLIC "-//W3C//DTD SVG 1.1//EN" "http://www.w3.org/Graphics/SVG/1.1/DTD/svg11.dtd">
<svg version="1.1" id="Layer_1" xmlns="http://www.w3.org/2000/svg" xmlns:xlink="http://www.w3.org/1999/xlink" x="0px" y="0px"
	 width="60px" height="60px" viewBox="0 0 60 60" enable-background="new 0 0 60 60" xml:space="preserve">
<g>
	<defs>
		<path id="SVGID_29_" d="M29.999,54.02C16.755,54.02,5.98,43.244,5.98,30c0-13.246,10.774-24.02,24.019-24.02
			C43.244,5.98,54.02,16.754,54.02,30C54.02,43.244,43.244,54.02,29.999,54.02z"/>
	</defs>
	<clipPath id="SVGID_2_">
		<use xlink:href="#SVGID_29_"  overflow="visible"/>
	</clipPath>
	<polyline clip-path="url(#SVGID_2_)" fill="#EBE0D5" stroke="#553E31" stroke-width="1.2445" stroke-miterlimit="10" points="
		-26.843,48.446 62.907,35.343 66.657,72.696 	"/>
	
		<ellipse transform="matrix(0.8917 0.4526 -0.4526 0.8917 13.5688 -14.561)" clip-path="url(#SVGID_2_)" fill="#CDB8AB" stroke="#553E31" stroke-miterlimit="10" cx="37.212" cy="21.074" rx="6.017" ry="1.396"/>
	
		<ellipse transform="matrix(-0.8917 0.4525 -0.4525 -0.8917 52.644 29.5544)" clip-path="url(#SVGID_2_)" fill="#CDB8AB" stroke="#553E31" stroke-miterlimit="10" cx="22.787" cy="21.074" rx="6.018" ry="1.397"/>
	
		<circle clip-path="url(#SVGID_2_)" fill="#EBE0D5" stroke="#553E31" stroke-width="2" stroke-miterlimit="10" cx="30" cy="32.834" r="12.616"/>
	<path clip-path="url(#SVGID_2_)" fill="#553E31" stroke="#553E31" stroke-width="0.5" stroke-miterlimit="10" d="M30,22.371
		c-0.266,0-0.481,0.181-0.481,0.405v1.966c0,0.225,0.216,0.405,0.481,0.405c0.267,0,0.481-0.181,0.481-0.405v-1.966
		C30.481,22.552,30.267,22.371,30,22.371z"/>
	<path clip-path="url(#SVGID_2_)" fill="#553E31" stroke="#553E31" stroke-width="0.5403" stroke-miterlimit="10" d="M31.382,15.758
		c-0.051-0.331-0.318-0.563-0.596-0.52l-2.438,0.378c-0.278,0.042-0.461,0.345-0.411,0.675c0.052,0.33,0.319,0.562,0.596,0.519
		l2.438-0.378C31.249,16.39,31.433,16.087,31.382,15.758z"/>
	<path clip-path="url(#SVGID_2_)" fill="#553E31" stroke="#553E31" stroke-width="0.5" stroke-miterlimit="10" d="M24.769,23.773
		c-0.23,0.132-0.326,0.397-0.215,0.591l0.983,1.703c0.112,0.193,0.39,0.243,0.619,0.109c0.231-0.132,0.327-0.397,0.215-0.591
		l-0.983-1.703C25.276,23.689,24.999,23.64,24.769,23.773z"/>
	<path clip-path="url(#SVGID_2_)" fill="#553E31" stroke="#553E31" stroke-width="0.5" stroke-miterlimit="10" d="M20.938,27.603
		c-0.133,0.23-0.084,0.508,0.109,0.62l1.703,0.982c0.194,0.112,0.459,0.016,0.592-0.215c0.133-0.229,0.084-0.508-0.109-0.619
		l-1.703-0.983C21.337,27.276,21.071,27.372,20.938,27.603z"/>
	<path clip-path="url(#SVGID_2_)" fill="#553E31" stroke="#553E31" stroke-width="0.5" stroke-miterlimit="10" d="M19.536,32.834
		c0,0.266,0.182,0.482,0.406,0.482h1.966c0.224,0,0.405-0.217,0.405-0.482s-0.182-0.481-0.404-0.481l-1.968,0.001
		C19.718,32.354,19.536,32.568,19.536,32.834z"/>
	<path clip-path="url(#SVGID_2_)" fill="#553E31" stroke="#553E31" stroke-width="0.5" stroke-miterlimit="10" d="M20.938,38.066
		c0.133,0.23,0.398,0.325,0.592,0.214l1.703-0.983c0.193-0.111,0.242-0.389,0.109-0.618c-0.133-0.23-0.397-0.327-0.592-0.216
		l-1.703,0.984C20.854,37.559,20.806,37.836,20.938,38.066z"/>
	<path clip-path="url(#SVGID_2_)" fill="#553E31" stroke="#553E31" stroke-width="0.5" stroke-miterlimit="10" d="M24.769,41.896
		c0.23,0.135,0.508,0.084,0.619-0.109l0.984-1.703c0.111-0.194,0.016-0.458-0.216-0.592c-0.229-0.133-0.507-0.084-0.618,0.11
		l-0.984,1.703C24.442,41.498,24.538,41.764,24.769,41.896z"/>
	<path clip-path="url(#SVGID_2_)" fill="#553E31" stroke="#553E31" stroke-width="0.5" stroke-miterlimit="10" d="M30,43.298
		c0.267,0,0.481-0.182,0.482-0.404v-1.967c-0.001-0.225-0.216-0.405-0.482-0.405c-0.266,0-0.481,0.181-0.481,0.405v1.967
		C29.519,43.117,29.735,43.298,30,43.298z"/>
	<path clip-path="url(#SVGID_2_)" fill="#553E31" stroke="#553E31" stroke-width="0.5" stroke-miterlimit="10" d="M35.231,41.896
		c0.231-0.133,0.327-0.397,0.215-0.591l-0.982-1.703c-0.113-0.194-0.39-0.243-0.62-0.11c-0.23,0.134-0.327,0.397-0.215,0.592
		l0.983,1.703C34.725,41.979,35.001,42.029,35.231,41.896z"/>
	<path clip-path="url(#SVGID_2_)" fill="#553E31" stroke="#553E31" stroke-width="0.5" stroke-miterlimit="10" d="M39.062,38.066
		c0.133-0.23,0.084-0.509-0.109-0.62l-1.703-0.983c-0.194-0.111-0.459-0.015-0.592,0.216c-0.133,0.229-0.084,0.507,0.109,0.618
		l1.704,0.983C38.664,38.392,38.929,38.297,39.062,38.066z"/>
	<path clip-path="url(#SVGID_2_)" fill="#553E31" stroke="#553E31" stroke-width="0.5" stroke-miterlimit="10" d="M40.464,32.834
		c0-0.266-0.182-0.481-0.404-0.481h-1.968c-0.224,0-0.405,0.216-0.405,0.481s0.182,0.482,0.405,0.482l1.968-0.001
		C40.282,33.315,40.464,33.1,40.464,32.834z"/>
	<path clip-path="url(#SVGID_2_)" fill="#553E31" stroke="#553E31" stroke-width="0.5" stroke-miterlimit="10" d="M39.062,27.603
		c-0.133-0.23-0.398-0.326-0.592-0.215l-1.703,0.983c-0.193,0.111-0.242,0.389-0.109,0.619s0.397,0.327,0.592,0.215l1.703-0.983
		C39.146,28.109,39.194,27.833,39.062,27.603z"/>
	<path clip-path="url(#SVGID_2_)" fill="#553E31" stroke="#553E31" stroke-width="0.5" stroke-miterlimit="10" d="M35.231,23.773
		c-0.23-0.134-0.508-0.084-0.619,0.109l-0.983,1.703c-0.112,0.193-0.017,0.459,0.215,0.591c0.23,0.133,0.507,0.084,0.619-0.109
		l0.983-1.703C35.559,24.17,35.462,23.905,35.231,23.773z"/>
	
		<rect x="32.54" y="25.539" transform="matrix(0.7076 0.7066 -0.7066 0.7076 30.7203 -14.6167)" clip-path="url(#SVGID_2_)" fill="#553E31" stroke="#553E31" stroke-width="0.5" stroke-linecap="round" stroke-linejoin="round" stroke-miterlimit="10" width="0.963" height="8.547"/>
	
		<rect x="27.299" y="28.631" transform="matrix(0.5891 -0.808 0.808 0.5891 -13.8236 35.3638)" clip-path="url(#SVGID_2_)" fill="#553E31" stroke="#553E31" stroke-width="0.5" stroke-linecap="round" stroke-linejoin="round" stroke-miterlimit="10" width="1.129" height="5.289"/>
	
		<circle clip-path="url(#SVGID_2_)" fill="#553E31" stroke="#553E31" stroke-width="0.5" stroke-linecap="round" stroke-linejoin="round" stroke-miterlimit="10" cx="30" cy="32.835" r="1.047"/>
	<path clip-path="url(#SVGID_2_)" fill="#553E31" stroke="#553E31" stroke-width="0.5" stroke-miterlimit="10" d="M41.294,45.62
		c-0.166-0.166-0.398-0.223-0.609-0.171l-2.02-2.617l-1.076,1.078l2.615,2.017c-0.05,0.213,0.006,0.445,0.171,0.61
		c0.254,0.254,0.665,0.254,0.919,0C41.547,46.284,41.547,45.873,41.294,45.62z"/>
	<path clip-path="url(#SVGID_2_)" fill="#553E31" stroke="#553E31" stroke-width="0.5" stroke-miterlimit="10" d="M22.411,43.909
		l-1.076-1.078l-2.018,2.617c-0.213-0.051-0.445,0.005-0.611,0.171c-0.253,0.253-0.253,0.663,0,0.917
		c0.254,0.254,0.665,0.254,0.919,0c0.165-0.165,0.222-0.397,0.171-0.61L22.411,43.909z"/>
	
		<line clip-path="url(#SVGID_2_)" fill="none" stroke="#553E31" stroke-width="0.9174" stroke-linecap="round" stroke-miterlimit="10" x1="30.331" y1="20.373" x2="29.673" y2="15.915"/>
	<path clip-path="url(#SVGID_2_)" fill="#EBE0D5" stroke="#553E31" stroke-linejoin="round" stroke-miterlimit="10" d="
		M37.845,19.829c2.72,1.381,4.723,2.989,4.764,3.776c0.193-0.596,0.301-1.229,0.301-1.889c0-3.356-2.695-6.078-6.018-6.078
		c-2.031,0-3.822,1.02-4.912,2.575C32.632,17.777,35.118,18.444,37.845,19.829z"/>
	<polygon clip-path="url(#SVGID_2_)" fill="#553E31" points="39.478,16.333 40.515,14.397 42.034,15.361 40.722,17.188 	"/>
	<polygon clip-path="url(#SVGID_2_)" fill="#553E31" points="20.523,16.332 19.487,14.396 17.966,15.36 19.278,17.188 	"/>
	<g clip-path="url(#SVGID_2_)">
		<path fill="#553E31" d="M19.753,16.325c1.091-1.635,2.645-2.995,4.425-3.924c1.778-0.944,3.805-1.418,5.823-1.425
			c2.018,0.007,4.045,0.481,5.822,1.426c1.781,0.931,3.33,2.285,4.428,3.929l-0.621,0.486c-1.253-1.363-2.743-2.475-4.393-3.217
			c-1.649-0.735-3.438-1.133-5.236-1.124c-1.799-0.009-3.588,0.389-5.237,1.124c-1.651,0.743-3.137,1.848-4.397,3.219L19.753,16.325
			z"/>
	</g>
	<path clip-path="url(#SVGID_2_)" fill="#EBE0D5" stroke="#553E31" stroke-linejoin="round" stroke-miterlimit="10" d="
		M22.155,19.828c-2.721,1.381-4.725,2.988-4.765,3.776c-0.192-0.596-0.3-1.229-0.3-1.889c0-3.356,2.695-6.078,6.018-6.077
		c2.031,0,3.822,1.02,4.912,2.575C27.368,17.777,24.882,18.444,22.155,19.828z"/>
</g>
</svg>
