<?xml version="1.0" encoding="utf-8"?>
<!-- Generator: Adobe Illustrator 16.0.0, SVG Export Plug-In . SVG Version: 6.00 Build 0)  -->
<!DOCTYPE svg PUBLIC "-//W3C//DTD SVG 1.1//EN" "http://www.w3.org/Graphics/SVG/1.1/DTD/svg11.dtd">
<svg version="1.1" id="Layer_1" xmlns="http://www.w3.org/2000/svg" xmlns:xlink="http://www.w3.org/1999/xlink" x="0px" y="0px"
	 width="60px" height="60px" viewBox="0 0 60 60" enable-background="new 0 0 60 60" xml:space="preserve">
<g>
	<defs>
		<path id="SVGID_65_" d="M29.999,53.5C17.041,53.5,6.5,42.958,6.5,30c0-12.96,10.541-23.5,23.499-23.5
			C42.958,6.5,53.5,17.04,53.5,30C53.5,42.958,42.958,53.5,29.999,53.5z"/>
	</defs>
	<clipPath id="SVGID_2_">
		<use xlink:href="#SVGID_65_"  overflow="visible"/>
	</clipPath>
	<rect x="0.625" y="0.625" clip-path="url(#SVGID_2_)" fill="#FFFCF5" width="58.75" height="58.75"/>
	<polygon clip-path="url(#SVGID_2_)" fill="#EBE0D5" stroke="#553E31" stroke-miterlimit="10" points="-16.437,29.831 
		56.273,19.989 67.002,56.021 -10.589,61.574 	"/>
	<g clip-path="url(#SVGID_2_)">
		<ellipse fill="#CDB8AB" stroke="#553E31" stroke-miterlimit="10" cx="30.39" cy="29.411" rx="18.414" ry="9.717"/>
		<path fill="#EBE0D5" stroke="#553E31" stroke-miterlimit="10" d="M47.704,34.528c0.457-0.959,0.758-3.301,0.829-3.864
			c0.135-1.092-1.387-1.597,0.711-3.269c0.806-0.644-2.104-2.025-2.286-2.025c-0.181,0-4.985-4.733-4.985-4.733
			s-0.764-0.409-1.306-1.111c-0.543-0.701-1.643-0.786-2.803-0.962c-1.16-0.175-1.593-0.388-2.159,0.178
			c-0.567,0.566-0.476,0.739-0.918,1.112c-0.44,0.372-1.78,0.39-2.175,0.254c-0.395-0.135-0.662-0.429-0.3-0.869
			c0.362-0.439,0.028-0.976-0.289-1.134c-0.315-0.158-2.902,0.425-4.708,1.59c-1.635,1.056-4.672-1.201-6.265,0.711
			c-1.005,1.205-4.103,0.711-3.876,1.548s1.303,2.165,0.69,2.911c-0.612,0.747-1.769,0.871-3.398,1.346
			c-1.628,0.475-2.244,1.597-2.425,1.958c-0.182,0.362-0.031,1.818,0.314,3.209c0.337,1.354,1.226,1.452,4.121,4.212
			c0.222,0.212,0.289,1.346,0.617,1.523c6.469,3.504,12.133,5.522,18.574,4.07C42.111,39.731,47.704,34.528,47.704,34.528z"/>
		<g>
			<path fill="#CDB8AB" stroke="#553E31" stroke-miterlimit="10" d="M55.083,10.667c-3.393,1.968-10.23,5.412-12.385,7.279
				c-2.666,2.309-6.86,3.732-8.398,4.444c-1.537,0.713-2.447,1.289-3.532,1.56c-1.086,0.272-2.818,0.264-3.752,0.79
				c-0.934,0.525-3.25,1.587-3.845,2.062c-0.593,0.476-1.223,1.612-0.951,1.969c-0.373,0.254-1.85,1.221-2.426,1.866
				c-0.577,0.645-0.425,0.983-0.306,1.17s0.356,0.577,1.052,0.458c0.695-0.118,1.884-0.61,2.597-1.034
				c0.712-0.424,2.696-1.12,4.122-1.188c-0.628,0.407-1.799,1.069-2.596,1.357c-0.798,0.289-1.985,1.324-2.63,1.884
				s-0.78,0.882-0.645,1.205c0.136,0.321,0.458,0.695,0.831,0.695s0.831-0.085,1.425-0.441c0.595-0.356,1.409-0.916,2.24-1.153
				c0.831-0.238,2.308-0.543,2.985-0.849c0.679-0.306,2.579-1.3,3.003-1.537c0.425-0.237,0.611-0.063,0.34,0.242
				s-1.544,2.058-2.579,2.72c-1.034,0.662-2.815,1.815-3.122,2.291c-0.305,0.475,0.899,0.934,1.799,0.729s2.528-0.764,3.326-1.374
				c0.797-0.611,2.171-1.562,2.833-2.223c0.662-0.662,1.754-1.172,2.761-1.68c1.006-0.51,1.877-1.122,3.76-1.716
				s3.547-1.962,4.236-3.12c0.475-0.797,0.373-1.34,2.562-1.984c2.188-0.646,11.706-3.802,15.304-5.26
				C62.294,18.353,55.083,10.667,55.083,10.667z"/>
			<path fill="none" stroke="#553E31" stroke-linecap="round" stroke-linejoin="round" stroke-miterlimit="10" d="M22.22,28.771
				c0.899-0.526,1.668-0.809,2.347-1.193s1.663-0.962,2.297-1.12c0.634-0.159,2.794-0.6,3.416-0.938"/>
			<path fill="none" stroke="#553E31" stroke-linecap="round" stroke-linejoin="round" stroke-miterlimit="10" d="M27.259,30.042
				c0.543-0.339,1.086-0.712,1.776-1.006c0.689-0.295,0.995-0.464,1.368-0.725"/>
		</g>
		<path fill="#EBE0D5" stroke="#553E31" stroke-miterlimit="10" d="M47.684,31.598c0.004-0.255-0.194,0.417-0.287,0.537
			c-0.316,0.404-0.815-0.45-0.78-0.496c0.203-0.268-1.963-0.345-4.383,1.347c-0.354,0.248-0.956,1.91-1.657,2.47
			c-0.702,0.56-2.126-0.114-3.326-0.038c-1.198,0.076-2.763,0.223-3.347,2.441c-0.714,2.711-5.321-1.185-7.903-1.604
			c-1.559-0.253-2.084,0.114-5.104-1.833c-0.297-0.19-2.194,0.921-2.513,1.035c-0.518,0.186-0.928,0.438-1.062,0.946
			c-0.326,1.242,2.172,1.916,2.172,1.916l15.751,2.109l10.018-4.896C46.854,34.497,47.663,32.839,47.684,31.598z"/>
		<g>
			<path fill="#CDB8AB" stroke="#553E31" stroke-miterlimit="10" d="M30.391,39.128c-9.804,0-17.815-4.043-18.38-9.142l0.374,5.496
				c0.435,5.038,8.349,9.055,18.077,9.055c9.908,0,17.947-4.167,18.102-9.337l0.213-5.268
				C48.264,35.057,40.228,39.128,30.391,39.128z"/>
		</g>
	</g>
	<g clip-path="url(#SVGID_2_)">
		<path fill="#553E31" d="M26.742,23.72c-0.188,0-0.375-0.044-0.541-0.128c-0.802-0.411-1.432-1.01-1.984-1.885
			c-0.413-0.675-0.714-1.376-0.924-2.148c-0.043-0.157-0.021-0.323,0.062-0.466c0.085-0.146,0.224-0.25,0.39-0.292
			c0.028-0.008,0.128-0.02,0.158-0.02c0.206,0,0.399,0.099,0.517,0.265c0.143,0.202,0.3,0.398,0.471,0.589
			c-0.022-0.91,0.037-1.785,0.177-2.593c0.044-0.361,0.138-0.733,0.229-1.094c0.039-0.152,0.077-0.305,0.112-0.458
			c0.105-0.389,0.23-0.76,0.355-1.132l0.143-0.428l0.209-0.51c0.137-0.335,0.273-0.668,0.439-1.013
			c0.255-0.492,0.57-1.014,0.848-1.405c0.498-0.723,1.111-1.428,1.87-2.151c0.486-0.462,1.012-0.89,1.564-1.272
			c0.412-0.284,0.691-0.425,0.691-0.425c0.088-0.044,0.184-0.066,0.279-0.066c0.228,0,0.435,0.123,0.539,0.321
			c0.146,0.264,0.064,0.598-0.188,0.771c-0.009,0.007-0.185,0.134-0.478,0.409c-0.43,0.407-0.831,0.851-1.192,1.316
			c-0.539,0.701-0.976,1.404-1.298,2.091c-0.196,0.413-0.335,0.769-0.5,1.269l-0.434,1.386l-0.099,0.406
			c-0.081,0.325-0.162,0.65-0.221,0.971c-0.019,0.141-0.045,0.295-0.071,0.448c-0.05,0.297-0.1,0.588-0.109,0.876
			c-0.069,0.602-0.087,1.201-0.055,1.833c0.13-0.304,0.232-0.618,0.308-0.94c0.064-0.286,0.331-0.496,0.632-0.496
			c0.023,0,0.107,0.009,0.13,0.014c0.281,0.059,0.486,0.285,0.514,0.564c0.075,0.886-0.008,1.749-0.245,2.572
			c-0.138,0.454-0.319,0.883-0.542,1.278c-0.112,0.206-0.248,0.408-0.395,0.609c-0.083,0.108-0.16,0.209-0.251,0.309
			c-0.102,0.116-0.174,0.198-0.34,0.335C27.284,23.625,27.018,23.72,26.742,23.72z"/>
		<path fill="#FFFCF5" d="M31.81,7.438c0.095,0,0.185,0.049,0.23,0.135c0.062,0.112,0.025,0.248-0.078,0.319
			c0,0-0.192,0.135-0.52,0.442c-0.321,0.305-0.767,0.761-1.229,1.357c-0.46,0.598-0.949,1.327-1.338,2.156
			c-0.204,0.431-0.349,0.801-0.516,1.308c-0.144,0.457-0.29,0.926-0.435,1.391c-0.113,0.476-0.243,0.95-0.33,1.418
			c-0.065,0.471-0.171,0.929-0.185,1.377c-0.104,0.89-0.08,1.721-0.014,2.428c0.008,0.211,0.036,0.397,0.065,0.576
			c0.013-0.019,0.031-0.032,0.044-0.051c0.389-0.575,0.678-1.247,0.848-1.97c0.03-0.133,0.154-0.226,0.292-0.226
			c0.021,0,0.041,0.002,0.061,0.006c0.13,0.027,0.223,0.135,0.235,0.257c0.067,0.792,0.003,1.619-0.233,2.44
			c-0.124,0.408-0.291,0.813-0.51,1.203c-0.107,0.197-0.234,0.387-0.372,0.575c-0.072,0.094-0.143,0.187-0.227,0.278
			c-0.088,0.101-0.149,0.174-0.304,0.301l-0.025,0.022c-0.152,0.126-0.34,0.188-0.527,0.188c-0.132,0-0.264-0.031-0.383-0.091
			c-0.876-0.449-1.433-1.105-1.846-1.759c-0.407-0.666-0.688-1.341-0.882-2.054c-0.039-0.143,0.051-0.289,0.2-0.327
			c0.024-0.006,0.048-0.009,0.071-0.009c0.093,0,0.18,0.045,0.231,0.117l0.009,0.014c0.328,0.463,0.725,0.886,1.142,1.253
			c-0.02-0.197-0.037-0.403-0.036-0.616c-0.034-0.819-0.012-1.788,0.163-2.797c0.063-0.509,0.219-1.013,0.338-1.533
			c0.139-0.513,0.323-1.019,0.49-1.529c0.212-0.499,0.39-0.977,0.631-1.479c0.222-0.429,0.53-0.949,0.817-1.354
			c0.584-0.847,1.24-1.542,1.826-2.102c0.589-0.56,1.13-0.966,1.522-1.237c0.388-0.268,0.65-0.4,0.65-0.4
			C31.728,7.447,31.769,7.438,31.81,7.438 M31.81,6.738c-0.149,0-0.3,0.035-0.435,0.103c-0.033,0.017-0.319,0.164-0.734,0.45
			c-0.568,0.394-1.108,0.833-1.606,1.306c-0.778,0.742-1.405,1.466-1.92,2.212c-0.281,0.396-0.605,0.933-0.863,1.429
			c-0.178,0.37-0.317,0.71-0.457,1.052c-0.064,0.157-0.129,0.315-0.197,0.476c-0.008,0.019-0.015,0.038-0.021,0.057l-0.142,0.425
			c-0.125,0.369-0.253,0.751-0.358,1.14c-0.041,0.177-0.079,0.327-0.117,0.477c-0.094,0.37-0.191,0.754-0.24,1.154
			c-0.09,0.516-0.147,1.072-0.17,1.656c-0.18-0.156-0.407-0.242-0.645-0.242c-0.081,0-0.161,0.01-0.239,0.029
			c-0.26,0.066-0.48,0.232-0.611,0.457c-0.13,0.225-0.165,0.485-0.097,0.734c0.219,0.804,0.533,1.534,0.959,2.234
			c0.593,0.938,1.266,1.576,2.124,2.017c0.218,0.11,0.459,0.167,0.702,0.167c0.356,0,0.703-0.123,0.974-0.348
			c0.006-0.005,0.037-0.032,0.043-0.037c0.171-0.14,0.263-0.245,0.352-0.347c0.103-0.113,0.187-0.222,0.271-0.331
			c0.188-0.257,0.322-0.465,0.432-0.667c0.23-0.408,0.421-0.86,0.565-1.334c0.252-0.874,0.339-1.78,0.261-2.702
			c-0.044-0.442-0.361-0.793-0.789-0.883c-0.073-0.015-0.14-0.021-0.205-0.021c-0.203,0-0.395,0.062-0.556,0.169
			c0.005-0.049,0.01-0.097,0.016-0.146c0.002-0.02,0.004-0.04,0.004-0.06c0.008-0.256,0.055-0.534,0.104-0.829
			c0.026-0.156,0.053-0.314,0.075-0.474c0.053-0.282,0.133-0.6,0.212-0.919l0.106-0.434l0.039-0.119l0.382-1.223
			c0.157-0.477,0.292-0.82,0.481-1.218c0.312-0.666,0.735-1.348,1.26-2.029c0.349-0.45,0.738-0.88,1.155-1.276
			c0.275-0.259,0.44-0.378,0.442-0.379c0.395-0.271,0.521-0.801,0.288-1.227C32.492,6.933,32.167,6.738,31.81,6.738L31.81,6.738z"/>
	</g>
</g>
</svg>
