<?xml version="1.0" encoding="utf-8"?>
<!-- Generator: Adobe Illustrator 16.0.0, SVG Export Plug-In . SVG Version: 6.00 Build 0)  -->
<!DOCTYPE svg PUBLIC "-//W3C//DTD SVG 1.1//EN" "http://www.w3.org/Graphics/SVG/1.1/DTD/svg11.dtd">
<svg version="1.1" id="Layer_1" xmlns="http://www.w3.org/2000/svg" xmlns:xlink="http://www.w3.org/1999/xlink" x="0px" y="0px"
	 width="60px" height="60px" viewBox="0 0 60 60" enable-background="new 0 0 60 60" xml:space="preserve">
<g>
	<defs>
		<path id="SVGID_5_" d="M29.999,53.5C17.041,53.5,6.5,42.958,6.5,30c0-12.96,10.541-23.5,23.499-23.5
			C42.958,6.5,53.5,17.04,53.5,30C53.5,42.958,42.958,53.5,29.999,53.5z"/>
	</defs>
	<clipPath id="SVGID_2_">
		<use xlink:href="#SVGID_5_"  overflow="visible"/>
	</clipPath>
	<rect x="0.625" y="0.625" clip-path="url(#SVGID_2_)" fill="#FFFCF5" width="58.75" height="58.75"/>
	<polygon clip-path="url(#SVGID_2_)" fill="#EBE0D5" stroke="#553E31" stroke-miterlimit="10" points="56.519,27.884 -3.047,41.103 
		16.863,64.766 52.012,57.647 	"/>
	<path clip-path="url(#SVGID_2_)" fill="#CDB8AB" stroke="#553E31" stroke-width="0.9237" stroke-miterlimit="10" d="M28.449,18.316
		c0,0-0.5,0.281-0.514,0.592c-0.013,0.309,0.576,0.765,0.96,1.217c0.387,0.454,1.152,1.051,1.507,1.299
		c0.357,0.248,2.88,0.983,3.162,1.011c0.282,0.024,0.691-0.296,0.617-0.521c-0.074-0.222-2.079-1.938-2.29-2.218
		c-0.211-0.284-0.918-1.168-0.918-1.168L28.449,18.316z"/>
	<path clip-path="url(#SVGID_2_)" fill="#CDB8AB" stroke="#553E31" stroke-width="1.0112" stroke-miterlimit="10" d="M26.715,20.582
		c0,0,0.275,1.08,0.668,1.521c0.395,0.438,1.098,0.608,1.098,0.608s0.662-0.094,1.027-0.539c0.366-0.445,0.232-1.2,0.232-1.2
		s-0.48-0.997-0.816-1.162c-0.337-0.168-1.379-0.559-1.379-0.559L26.715,20.582z"/>
	<path clip-path="url(#SVGID_2_)" fill="#CDB8AB" stroke="#553E31" stroke-width="0.9231" stroke-miterlimit="10" d="M14.981,37.34
		c0,6.693,6.622,12.117,14.791,12.117c8.168,0,14.792-5.424,14.792-12.117H14.981z"/>
	
		<ellipse clip-path="url(#SVGID_2_)" fill="#EBE0D5" stroke="#553E31" stroke-width="0.9231" stroke-miterlimit="10" cx="29.773" cy="37.34" rx="14.792" ry="4.649"/>
	
		<ellipse transform="matrix(0.998 -0.063 0.063 0.998 -1.7995 1.952)" clip-path="url(#SVGID_2_)" fill="#EBE0D5" stroke="#553E31" stroke-width="0.9231" stroke-miterlimit="10" cx="30.05" cy="29.508" rx="14.089" ry="6.162"/>
	<path clip-path="url(#SVGID_2_)" fill="#CDB8AB" stroke="#553E31" stroke-width="0.9231" stroke-miterlimit="10" d="M43.512,27.621
		c0.152,3.18-5.828,6.054-13.359,6.422c-7.533,0.366-13.767-1.912-13.922-5.092c-0.154-3.181,5.827-6.056,13.361-6.423
		C37.124,22.162,43.355,24.44,43.512,27.621z"/>
	
		<ellipse transform="matrix(0.9988 -0.0489 0.0489 0.9988 -1.247 1.4653)" clip-path="url(#SVGID_2_)" fill="#EBE0D5" stroke="#553E31" stroke-width="1.0395" stroke-miterlimit="10" cx="29.344" cy="26.235" rx="4.187" ry="1.704"/>
	<path clip-path="url(#SVGID_2_)" fill="#553E31" d="M33.263,23.542c0.115,1.157-1.486,2.262-3.575,2.472
		c-2.094,0.209-3.883-0.558-3.998-1.715c-0.113-1.153,1.486-2.26,3.578-2.469C31.358,21.62,33.148,22.387,33.263,23.542z"/>
	<path clip-path="url(#SVGID_2_)" fill="#553E31" d="M32.097,25.143c0.069,0.685-1.076,1.357-2.558,1.506
		c-1.482,0.15-2.74-0.286-2.809-0.97c-0.066-0.684,1.078-1.356,2.561-1.507C30.771,24.023,32.03,24.458,32.097,25.143z"/>
	<path clip-path="url(#SVGID_2_)" fill="#CDB8AB" stroke="#553E31" stroke-width="0.9231" stroke-miterlimit="10" d="M39.153,7.09
		c0,0-3.118,1.912-4.115,2.495c-0.997,0.582-3.159,1.87-3.782,2.121c-0.623,0.247-2.41,1.286-2.619,1.617
		c-0.207,0.334-1.287,2.746-1.786,3.202c-0.499,0.457-1.995,1.455-2.411,1.912s-0.582,0.582-0.457,1.205
		c0.125,0.622,0.172,0.993,0.188,1.273s0,0.685,0.233,1.261c0,0,0.374,0.873,0.937,1.264c0.561,0.389,1.308,0.982,1.619,1.044
		c0.312,0.063,0.344-0.094,0.453-0.422c0.108-0.327,0.061-1.338-0.188-1.605c-0.25-0.264-0.577-0.764-0.577-0.764
		s0.032-0.561-0.032-0.871c-0.061-0.312-0.061-0.312-0.061-0.312s1.479-0.438,1.808-1.435c0.265-0.125,1.683-0.11,2.26-0.622
		c0,0,1.604,0.605,2.229,0.793c-0.03,0.28-0.108,0.639-0.438,0.999c-0.326,0.358-0.95,1.073-1.183,1.34
		c-0.234,0.266-1.279,1.139-1.497,1.745c-0.218,0.608-0.53,1.295-0.187,1.885c0.344,0.594,1.028,0.562,1.559,0.297
		c0.529-0.265,1.792-1.183,2.291-1.59c0.498-0.405,1.262-1.527,1.574-2.071c0.312-0.549,0.966-1.093,1.886-1.81
		s2.493-2.01,3.039-3.195c0.546-1.185,1.277-3.442,2.915-4.955c1.636-1.514,5.875-3.976,6.936-4.599
		c1.06-0.624,1.512-1.199,1.512-1.199L39.153,7.09z"/>
	<g clip-path="url(#SVGID_2_)">
		<g>
			<path fill="#553E31" d="M18.393,19.07c-0.35,0.767-0.869,1.104-1.36,1.623c-0.481,0.491-0.926,1.017-1.33,1.573
				c-0.806,1.116-1.479,2.348-2.011,3.662c-0.523,1.338-1.007,2.62-1.161,4.043c-0.166,1.396-0.145,2.889,0.182,4.25l0.008,0.03
				c0.031,0.131-0.05,0.262-0.18,0.293c-0.12,0.029-0.24-0.036-0.283-0.147c-0.569-1.447-0.783-2.94-0.831-4.48
				c-0.054-1.531,0.229-3.127,0.711-4.553c0.481-1.448,1.09-2.895,1.968-4.199c0.432-0.654,0.913-1.279,1.437-1.864
				c0.513-0.559,1.075-1.224,1.861-1.395l0.045-0.01c0.455-0.099,0.903,0.19,1.002,0.645C18.49,18.727,18.466,18.91,18.393,19.07z"
				/>
		</g>
		<g>
			<path fill="#553E31" d="M13.479,19.06c0.63-0.479,1.306-0.87,2.073-1.17c0.763-0.287,1.643-0.492,2.631-0.313l0,0l0.181,0.073
				c0.242,0.098,0.403,0.312,0.445,0.551c0.108,0.622,0.061,1.038,0.002,1.527c-0.068,0.468-0.191,0.916-0.352,1.342
				c-0.323,0.851-0.807,1.599-1.369,2.241c-0.102,0.115-0.277,0.127-0.393,0.025c-0.096-0.084-0.118-0.222-0.066-0.332
				c0.345-0.722,0.567-1.48,0.632-2.225c0.03-0.372,0.024-0.74-0.023-1.092c-0.043-0.329-0.147-0.74-0.253-0.91l0.626,0.623l0,0
				c-0.444-0.266-1.107-0.366-1.79-0.325c-0.683,0.039-1.409,0.195-2.084,0.436l-0.014,0.005c-0.137,0.048-0.286-0.022-0.335-0.159
				C13.351,19.246,13.39,19.127,13.479,19.06z"/>
		</g>
	</g>
	<g clip-path="url(#SVGID_2_)">
		<defs>
			<path id="SVGID_7_" d="M29.66,32.592c-8.088,0-14.667,2.027-14.667,4.522c0,2.494,6.579,4.523,14.667,4.523
				c8.085,0,14.666-2.029,14.666-4.523C44.326,34.619,37.745,32.592,29.66,32.592z"/>
		</defs>
		<clipPath id="SVGID_4_">
			<use xlink:href="#SVGID_7_"  overflow="visible"/>
		</clipPath>
		
			<ellipse clip-path="url(#SVGID_4_)" fill="none" stroke="#553E31" stroke-width="0.9231" stroke-miterlimit="10" cx="30.257" cy="42.488" rx="7.605" ry="3.368"/>
	</g>
</g>
</svg>
