<?xml version="1.0" encoding="utf-8"?>
<!-- Generator: Adobe Illustrator 16.0.0, SVG Export Plug-In . SVG Version: 6.00 Build 0)  -->
<!DOCTYPE svg PUBLIC "-//W3C//DTD SVG 1.1//EN" "http://www.w3.org/Graphics/SVG/1.1/DTD/svg11.dtd">
<svg version="1.1" id="Layer_1" xmlns="http://www.w3.org/2000/svg" xmlns:xlink="http://www.w3.org/1999/xlink" x="0px" y="0px"
	 width="60px" height="60px" viewBox="0 0 60 60" enable-background="new 0 0 60 60" xml:space="preserve">
<g>
	<defs>
		<path id="SVGID_21_" d="M30,54.02C16.755,54.02,5.979,43.245,5.979,30S16.755,5.98,30,5.98S54.021,16.755,54.021,30
			S43.245,54.02,30,54.02z"/>
	</defs>
	<clipPath id="SVGID_2_">
		<use xlink:href="#SVGID_21_"  overflow="visible"/>
	</clipPath>
	
		<path clip-path="url(#SVGID_2_)" fill="#CDB8AB" stroke="#553E31" stroke-linecap="round" stroke-linejoin="round" stroke-miterlimit="10" d="
		M57.805,1.745c0,0-7.447,3.406-8.316,4.011c-0.87,0.605-3.497,2.2-4.3,2.632c-0.804,0.432-4.34,2.219-5.012,2.458
		c-0.671,0.239-3.105,1.811-3.657,2.542c-0.552,0.732-1.728,2.397-2.284,3.159c-0.558,0.762-2.291,2.723-2.23,3.358
		c0.06,0.636,0.533,2.165,0.93,2.992c0.396,0.827,1.947,2.104,2.487,2.368s1.438,0.91,1.625,0.917
		c0.186,0.006,0.818-0.195,0.801-0.807s-0.324-1.266-0.594-1.631c-0.27-0.366-1.253-1.607-1.481-1.949
		c-0.227-0.342,0.056-0.752-0.15-0.809c0.411-0.184,1.158-1.265,1.209-1.754c0,0,0.317,0.047,0.819,0.039
		c0.5-0.01,1.116-0.448,1.331-0.654c0.213-0.207,1.394-1.279,1.927-3.091c0,0-0.936,2.184-1.391,2.901"/>
	
		<path clip-path="url(#SVGID_2_)" fill="#CDB8AB" stroke="#553E31" stroke-linecap="round" stroke-linejoin="round" stroke-miterlimit="10" d="
		M38.441,23.499c0,0,0.018,0.223,0.875,0.378s1.822,0.239,2.314-0.035c0.492-0.277,1.037-0.979,1.319-1.452
		c0.281-0.474,0.545-1.014,0.658-1.427c0.115-0.414,0.103-0.354,0.025-0.587c0.026,0.255-0.097,0.946-0.195,1.207
		c-0.1,0.262-0.11,0.399,0.22,0.466c0.328,0.065,0.974-0.04,1.381-0.286c0.408-0.245,0.468-0.467,0.63-0.809
		c0.162-0.341,0.492-0.978,0.6-1.361s0.075-0.53,0.131-0.893c0,0-0.274,1.457-0.442,1.828c-0.168,0.372-0.301,0.564-0.033,0.555
		c0.268-0.009,0.668,0.087,1.028-0.309c0.359-0.396,1.053-1.599,1.232-2.108c0.179-0.509,0.27-0.803,0.021-1.039
		c-0.249-0.237-4.416,1.891-4.416,1.891L38.441,23.499z"/>
	
		<path clip-path="url(#SVGID_2_)" fill="#EBE0D5" stroke="#553E31" stroke-linecap="round" stroke-linejoin="round" stroke-miterlimit="10" d="
		M46.874,14.609c0,0-5.508,3.685-5.97,4.044c-0.461,0.361-3.143,2.303-3.993,2.975C36.06,22.3,31.94,25.122,31.27,25.52
		c-0.745,0.438-1.097,0.679-1.967,0.419c-0.755-0.226-0.988-0.353-1.765-0.505c-1.434-0.279-3.077-0.034-4.402,0.551
		c-1.864,0.823-3.745,1.813-4.907,3.531c-0.382,0.564-0.925,1.417-0.825,2.11c0.082,0.57,0.488,1.293,0.919,1.644
		c0.59,0.48,1.347,0.653,2.085,0.731c1.893,0.2,3.747,0.019,5.594-0.427c1.089-0.264,2.231-0.675,3.257-1.123
		c1.046-0.458,2.195-1.362,2.275-2.562c0.038-0.584-0.097-1.391,0.608-2.029c0.705-0.638,2.624-2.358,4.263-3.465
		c1.64-1.106,7.522-5.027,8.529-5.699s4.055-2.898,4.055-2.898L46.874,14.609z"/>
	<polygon clip-path="url(#SVGID_2_)" fill="#EBE0D5" stroke="#553E31" stroke-miterlimit="10" points="-13.476,42.086 
		60.904,32.474 71.647,69.366 -7.693,74.566 	"/>
	
		<path clip-path="url(#SVGID_2_)" fill="#CDB8AB" stroke="#553E31" stroke-linecap="round" stroke-linejoin="round" stroke-miterlimit="10" d="
		M40.991,15.42c-0.638,2.945-3.752,4.503-4.43,5.006c-0.679,0.503-1.496,1.556-1.826,2.347c-0.329,0.792,0.028,1.035,0.504,1.691
		c0.477,0.656,1.835,0.103,2.375-0.18c0.539-0.282,3.379-2.551,4.119-3.135c0.74-0.585,2.004-1.298,2.641-1.514
		c0.636-0.217,3.024-1.485,3.685-1.977c0.659-0.49,1.84-2.578,2.326-3.058s1.067-1.283,1.64-1.808
		c0.401-0.139,2.698-0.786,3.537-1.007s6.901-1.379,6.901-1.379l1.307-8.25l-5.145,0.156l-0.467-1.093"/>
	
		<path clip-path="url(#SVGID_2_)" fill="#CDB8AB" stroke="#553E31" stroke-linecap="round" stroke-linejoin="round" stroke-miterlimit="10" d="
		M28.795,30.552c0.788-0.858,1.092-1.834,0.169-2.34c-2.255-1.239-4.79-0.091-6.825,1.043c-0.668,0.373-1.292,0.802-1.924,1.229
		c-0.502,0.338-1.131,0.637-1.353,1.244c-0.381,1.047,1.08,1.052,1.629,1.474c0.545,0.417,0.682,0.987,0.723,1.642
		c0.034,0.55,0.007,1.335,0.741,1.384c0.463,0.029,0.631-0.337,0.727-0.721c0.146-0.59,0.201-1.202,0.492-1.75
		c0.33-0.616,0.83-1.161,1.484-1.29C26.156,32.17,28.007,31.409,28.795,30.552z"/>
	
		<path clip-path="url(#SVGID_2_)" fill="#CDB8AB" stroke="#553E31" stroke-linecap="round" stroke-linejoin="round" stroke-miterlimit="10" d="
		M21.949,38.091c0.099,0.877-0.656,1.726-0.869,2.54c-0.152,0.588,0.074,1.615,0.774,1.799c0.654,0.171,0.921-0.834,0.897-1.35
		c-0.042-0.914-0.42-1.895-0.546-2.337C22.08,38.302,21.949,38.091,21.949,38.091z"/>
	
		<path clip-path="url(#SVGID_2_)" fill="#CDB8AB" stroke="#553E31" stroke-linecap="round" stroke-linejoin="round" stroke-miterlimit="10" d="
		M31.614,43.094c-1.832,0.465-3.634,1.198-5.5,1.53c-1.855,0.329-3.664,0.081-5.512,0.289c-4.422,0.495-7.897,2.754-10.112,5.837
		c-1.293,1.801-1.985,4.736,0.73,5.543c1.427,0.425,3.143,0.03,4.674-0.183c2.575-0.358,5.133-0.708,7.662-0.448
		c2.176,0.225,4.298,0.628,6.57,0.509c2.493-0.134,4.974-0.632,7.411-1.247c3.449-0.871,9.829-3.807,10.316-7.055
		c0.241-1.609-1.682-2.792-2.998-3.646c-2.001-1.3-4.663-1.801-5.887-1.958C37.746,42.109,33.962,42.496,31.614,43.094z"/>
</g>
</svg>
