<?xml version="1.0" encoding="utf-8"?>
<!-- Generator: Adobe Illustrator 16.0.0, SVG Export Plug-In . SVG Version: 6.00 Build 0)  -->
<!DOCTYPE svg PUBLIC "-//W3C//DTD SVG 1.1//EN" "http://www.w3.org/Graphics/SVG/1.1/DTD/svg11.dtd">
<svg version="1.1" id="Layer_1" xmlns="http://www.w3.org/2000/svg" xmlns:xlink="http://www.w3.org/1999/xlink" x="0px" y="0px"
	 width="60px" height="60px" viewBox="0 0 60 60" enable-background="new 0 0 60 60" xml:space="preserve">
<g>
	<defs>
		<path id="SVGID_3_" d="M29.999,54.02C16.755,54.02,5.98,43.244,5.98,30c0-13.246,10.774-24.02,24.019-24.02
			C43.244,5.98,54.02,16.754,54.02,30C54.02,43.244,43.244,54.02,29.999,54.02z"/>
	</defs>
	<clipPath id="SVGID_2_">
		<use xlink:href="#SVGID_3_"  overflow="visible"/>
	</clipPath>
	<path clip-path="url(#SVGID_2_)" fill="#CDB8AB" stroke="#553E31" stroke-width="0.9237" stroke-miterlimit="10" d="M28.414,18.058
		c0,0-0.51,0.288-0.524,0.605c-0.013,0.315,0.589,0.781,0.981,1.244c0.396,0.464,1.178,1.073,1.541,1.327
		c0.364,0.254,2.943,1.006,3.231,1.033c0.288,0.025,0.707-0.303,0.631-0.532c-0.076-0.227-2.125-1.981-2.341-2.268
		c-0.216-0.29-0.938-1.193-0.938-1.193L28.414,18.058z"/>
	<path clip-path="url(#SVGID_2_)" fill="#CDB8AB" stroke="#553E31" stroke-width="1.0112" stroke-miterlimit="10" d="M26.642,20.374
		c0,0,0.282,1.104,0.684,1.555c0.403,0.448,1.122,0.622,1.122,0.622s0.677-0.096,1.05-0.552c0.374-0.454,0.237-1.227,0.237-1.227
		s-0.491-1.019-0.835-1.188c-0.344-0.172-1.409-0.57-1.409-0.57L26.642,20.374z"/>
	<path clip-path="url(#SVGID_2_)" fill="#CDB8AB" stroke="#553E31" stroke-width="0.9231" stroke-miterlimit="10" d="M14.649,37.502
		c0,6.842,6.769,12.386,15.118,12.386c8.349,0,15.118-5.544,15.118-12.386H14.649z"/>
	
		<ellipse clip-path="url(#SVGID_2_)" fill="#EBE0D5" stroke="#553E31" stroke-width="0.9231" stroke-miterlimit="10" cx="29.768" cy="37.502" rx="15.118" ry="4.752"/>
	
		<ellipse transform="matrix(0.998 -0.063 0.063 0.998 -1.7987 1.9519)" clip-path="url(#SVGID_2_)" fill="#EBE0D5" stroke="#553E31" stroke-width="0.9231" stroke-miterlimit="10" cx="30.051" cy="29.497" rx="14.4" ry="6.298"/>
	
		<ellipse transform="matrix(0.9988 -0.0487 0.0487 0.9988 -1.3401 1.4879)" clip-path="url(#SVGID_2_)" fill="#CDB8AB" stroke="#553E31" stroke-width="0.9231" stroke-miterlimit="10" cx="29.868" cy="28.248" rx="13.958" ry="5.891"/>
	
		<ellipse transform="matrix(0.9988 -0.0487 0.0487 0.9988 -1.2394 1.4602)" clip-path="url(#SVGID_2_)" fill="#EBE0D5" stroke="#553E31" stroke-width="1.0395" stroke-miterlimit="10" cx="29.33" cy="26.152" rx="4.279" ry="1.741"/>
	<path clip-path="url(#SVGID_2_)" fill="#553E31" d="M33.335,23.399c0.118,1.183-1.519,2.312-3.655,2.526
		c-2.139,0.214-3.968-0.57-4.085-1.753c-0.117-1.179,1.519-2.31,3.657-2.523C31.389,21.435,33.219,22.219,33.335,23.399z"/>
	
		<ellipse transform="matrix(0.995 -0.0994 0.0994 0.995 -2.3697 3.0472)" clip-path="url(#SVGID_2_)" fill="#553E31" cx="29.401" cy="25.309" rx="2.756" ry="1.272"/>
	<path clip-path="url(#SVGID_2_)" fill="#CDB8AB" stroke="#553E31" stroke-width="0.9231" stroke-miterlimit="10" d="M39.355,6.584
		c0,0-3.187,1.954-4.206,2.55c-1.02,0.595-3.229,1.911-3.866,2.167c-0.637,0.254-2.463,1.315-2.676,1.654
		c-0.213,0.341-1.317,2.806-1.826,3.272c-0.511,0.467-2.039,1.487-2.465,1.954c-0.425,0.468-0.595,0.596-0.467,1.231
		c0.128,0.637,0.175,1.016,0.191,1.302c0.016,0.287,0,0.7,0.238,1.289c0,0,0.383,0.893,0.957,1.291
		c0.573,0.398,1.337,1.004,1.655,1.067s0.351-0.096,0.463-0.431c0.111-0.334,0.063-1.368-0.191-1.641
		c-0.255-0.271-0.59-0.781-0.59-0.781s0.032-0.573-0.032-0.891c-0.063-0.318-0.063-0.318-0.063-0.318s1.512-0.447,1.848-1.466
		c0.271-0.128,1.72-0.112,2.31-0.637c0,0,1.641,0.62,2.277,0.812c-0.031,0.286-0.11,0.652-0.446,1.021
		c-0.334,0.366-0.972,1.098-1.209,1.37c-0.24,0.271-1.308,1.163-1.53,1.783c-0.223,0.622-0.542,1.323-0.19,1.927
		c0.351,0.606,1.051,0.573,1.593,0.303c0.541-0.271,1.831-1.209,2.342-1.624c0.509-0.415,1.29-1.562,1.608-2.118
		c0.318-0.56,0.987-1.116,1.928-1.849c0.94-0.733,2.549-2.055,3.106-3.267c0.558-1.21,1.306-3.519,2.979-5.064
		c1.672-1.547,6.005-4.063,7.089-4.7c1.083-0.638,1.545-1.226,1.545-1.226L39.355,6.584z"/>
	<g clip-path="url(#SVGID_2_)">
		<g>
			<path fill="#553E31" d="M10.815,33.074c-0.495-0.651-0.5-1.539-0.535-2.313c-0.026-0.801,0.007-1.605,0.099-2.4
				c0.169-1.596,0.641-3.127,1.215-4.576c0.558-1.434,1.381-2.868,2.427-4.032c1.046-1.174,2.193-2.204,3.587-2.964
				c0.118-0.064,0.266-0.021,0.33,0.097c0.059,0.108,0.027,0.241-0.069,0.313l-0.025,0.019c-1.153,0.851-2.152,2.004-2.942,3.205
				c-0.817,1.215-1.285,2.538-1.755,3.93c-0.449,1.379-0.732,2.787-0.835,4.192c-0.05,0.703-0.048,1.407,0.005,2.109
				c0.044,0.729,0.227,1.338,0.005,2.167c-0.12,0.447-0.581,0.714-1.028,0.594c-0.187-0.051-0.342-0.16-0.451-0.303L10.815,33.074z"
				/>
		</g>
		<g>
			<path fill="#553E31" d="M8.979,29.417c0.369,0.633,0.832,1.233,1.34,1.716c0.506,0.483,1.091,0.844,1.617,0.933l-0.88,0.075
				c0.198-0.068,0.549-0.322,0.798-0.554c0.269-0.246,0.514-0.531,0.734-0.845c0.438-0.627,0.759-1.369,0.961-2.162
				c0.036-0.149,0.187-0.24,0.335-0.204c0.125,0.03,0.209,0.143,0.212,0.265c0.017,0.871-0.099,1.773-0.406,2.649
				c-0.154,0.437-0.354,0.866-0.607,1.276c-0.275,0.419-0.512,0.775-1.002,1.188c-0.252,0.212-0.602,0.233-0.873,0.08L11.2,33.829
				c-0.887-0.505-1.441-1.238-1.851-1.962c-0.405-0.736-0.678-1.485-0.86-2.272c-0.032-0.141,0.056-0.281,0.196-0.314
				c0.115-0.026,0.229,0.027,0.285,0.123L8.979,29.417z"/>
		</g>
	</g>
	<g clip-path="url(#SVGID_2_)">
		<g>
			<path fill="#553E31" d="M46.691,35.2c-0.015-0.857,0.31-1.404,0.529-2.102c0.222-0.668,0.395-1.351,0.517-2.045
				c0.241-1.388,0.307-2.823,0.205-4.27c-0.118-1.465-0.253-2.86-0.751-4.237c-0.476-1.356-1.166-2.718-2.079-3.821l-0.021-0.024
				c-0.085-0.104-0.07-0.257,0.033-0.343c0.095-0.078,0.231-0.073,0.319,0.008c1.169,1.075,2.032,2.353,2.764,3.745
				c0.732,1.382,1.185,2.974,1.379,4.499c0.205,1.545,0.292,3.145,0.069,4.734c-0.104,0.793-0.267,1.582-0.485,2.353
				c-0.221,0.742-0.44,1.603-1.079,2.114l-0.035,0.028c-0.361,0.291-0.89,0.233-1.181-0.129C46.755,35.56,46.694,35.38,46.691,35.2z
				"/>
		</g>
		<g>
			<path fill="#553E31" d="M51.19,32.999c-0.366,0.72-0.813,1.38-1.385,1.996c-0.572,0.603-1.288,1.181-2.271,1.456l-0.008,0.002
				c-0.317,0.089-0.645-0.037-0.828-0.288c-0.377-0.519-0.521-0.922-0.686-1.396c-0.147-0.459-0.236-0.924-0.28-1.385
				c-0.086-0.924,0.021-1.827,0.247-2.669c0.04-0.148,0.192-0.236,0.341-0.196c0.124,0.033,0.205,0.148,0.206,0.271
				c0.004,0.818,0.136,1.616,0.409,2.331c0.137,0.356,0.306,0.693,0.507,0.997c0.187,0.284,0.465,0.616,0.641,0.729l-0.836-0.286
				c0.532,0.042,1.187-0.167,1.795-0.513c0.609-0.345,1.205-0.815,1.716-1.34l0.011-0.011c0.101-0.104,0.267-0.105,0.37-0.005
				C51.224,32.774,51.241,32.899,51.19,32.999z"/>
		</g>
	</g>
	<g clip-path="url(#SVGID_2_)">
		<defs>
			<path id="SVGID_5_" d="M29.652,32.648c-8.267,0-14.991,2.073-14.991,4.623c0,2.549,6.725,4.624,14.991,4.624
				c8.265,0,14.99-2.075,14.99-4.624C44.643,34.722,37.917,32.648,29.652,32.648z"/>
		</defs>
		<clipPath id="SVGID_4_">
			<use xlink:href="#SVGID_5_"  overflow="visible"/>
		</clipPath>
		
			<ellipse clip-path="url(#SVGID_4_)" fill="none" stroke="#553E31" stroke-width="0.9231" stroke-miterlimit="10" cx="30.263" cy="42.765" rx="7.773" ry="3.441"/>
	</g>
</g>
</svg>
