<?xml version="1.0" encoding="utf-8"?>
<!-- Generator: Adobe Illustrator 16.0.0, SVG Export Plug-In . SVG Version: 6.00 Build 0)  -->
<!DOCTYPE svg PUBLIC "-//W3C//DTD SVG 1.1//EN" "http://www.w3.org/Graphics/SVG/1.1/DTD/svg11.dtd">
<svg version="1.1" id="Layer_1" xmlns="http://www.w3.org/2000/svg" xmlns:xlink="http://www.w3.org/1999/xlink" x="0px" y="0px"
	 width="60px" height="60px" viewBox="0 0 60 60" enable-background="new 0 0 60 60" xml:space="preserve">
<g>
	<defs>
		<path id="SVGID_81_" d="M29.999,53.5C17.041,53.5,6.5,42.958,6.5,30c0-12.96,10.541-23.5,23.499-23.5
			C42.958,6.5,53.5,17.04,53.5,30C53.5,42.958,42.958,53.5,29.999,53.5z"/>
	</defs>
	<clipPath id="SVGID_2_">
		<use xlink:href="#SVGID_81_"  overflow="visible"/>
	</clipPath>
	<rect x="0.625" y="0.625" clip-path="url(#SVGID_2_)" fill="#FFFCF5" width="58.75" height="58.75"/>
	<polygon clip-path="url(#SVGID_2_)" fill="#EBE0D5" stroke="#553E31" stroke-miterlimit="10" points="56.417,25.682 1.676,37.829 
		19.351,58.31 51.91,55.445 	"/>
	
		<path clip-path="url(#SVGID_2_)" fill="#CDB8AB" stroke="#553E31" stroke-linecap="round" stroke-linejoin="round" stroke-miterlimit="10" d="
		M44.774,36.508c0,7.741-6.495,14.019-14.508,14.019S15.76,44.249,15.76,36.508"/>
	
		<ellipse clip-path="url(#SVGID_2_)" fill="#EBE0D5" stroke="#553E31" stroke-linecap="round" stroke-linejoin="round" stroke-miterlimit="10" cx="30.285" cy="36.535" rx="14.507" ry="6.773"/>
	
		<path clip-path="url(#SVGID_2_)" fill="#EBE0D5" stroke="#553E31" stroke-linecap="round" stroke-linejoin="round" stroke-miterlimit="10" d="
		M33.859,31.855c0.474-0.282,0.891-0.716,1.21-1.336c0.683-1.315,0.612-2.834,0.831-4.271c0.225-1.47,1.574-3.382,0.323-4.725
		c-1.1-1.182-3.156-0.942-4.576-0.898c-1.609,0.053-2.45,0.7-3.544,1.713c-0.972,0.9-1.614,2.707-1.814,4.018
		c-0.181,1.184,0.535,2.71,1.251,3.557C28.979,31.611,31.912,33.017,33.859,31.855z"/>
	
		<path clip-path="url(#SVGID_2_)" fill="#CDB8AB" stroke="#553E31" stroke-linecap="round" stroke-linejoin="round" stroke-miterlimit="10" d="
		M45.902-3.399c0,0-4.312,4.144-5.135,4.71c-0.823,0.565-2.767,2.887-3.71,3.371c-0.942,0.483-4.689,3.327-5.225,3.881
		c-0.538,0.553-1.438,1.051-1.794,1.467c-0.356,0.417-1.238,2.006-1.495,2.402c-0.256,0.399-2.174,2.302-2.617,3.026
		c-0.444,0.723-0.396,1.21-0.492,1.866c-0.094,0.657-0.068,1.963-0.129,2.584c-0.061,0.62-0.333,1.652-0.288,2.231
		c0.045,0.581,0.832,2.198,0.98,2.667c0.148,0.468,0.218,0.961,0.492,0.991c0.274,0.033,0.771,0.034,1.002-0.277
		c0,0,0.324-0.309,0.355-1.479c0.029-1.173,0.014-2.099,0.014-2.099s0.653-1.535,0.845-2.117c0,0-0.383,1.824-0.297,2.512
		c0.086,0.686,0.36,2.111,0.518,2.628c0.159,0.518,0.723,0.94,1.236,0.545c0.517-0.395,0.762-0.678,0.896-1.3
		c0.132-0.624,0.218-1.992,0.447-2.541c0.229-0.548,0.802-1.966,1.055-2.27c0.254-0.306,1.449-1.26,1.894-2.313
		c0.99-0.73,1.192-0.695,1.471-0.923c0.059,0.206,0.931,1.26,1.383,1.413c0,0-0.023,0.548,0.061,0.832c0,0-0.756,1.519-0.794,2.146
		s-0.482,0.942-0.599,1.154c-0.562,1.027-0.636,3.007-0.636,3.007s0.063,0.617,0.538,0.65c0.487,0.033,0.729-0.622,0.953-0.912
		c0.226-0.29,2.171-1.24,2.546-1.887c0.376-0.649,0.911-2.449,1.121-3.097c0.211-0.648,0.946-1.48,1.181-2.217
		c0.236-0.735,1.076-2.831,1.399-4.036c0.325-1.206,0.732-4.349,2.453-5.482c1.72-1.134,9.973-5.274,11.957-6.263
		c1.985-0.986,2.535-1.419,2.535-1.419L45.902-3.399z"/>
	
		<path clip-path="url(#SVGID_2_)" fill="#CDB8AB" stroke="#553E31" stroke-linecap="round" stroke-linejoin="round" stroke-miterlimit="10" d="
		M31.853,13.905c0,0-1.751,2.142-2.183,2.82c-0.431,0.678-0.563,1.136-0.776,1.877c-0.214,0.742-0.176,0.918-0.195,1.313"/>
	<g clip-path="url(#SVGID_2_)">
		<g>
			<path fill="#553E31" d="M18.892,27.757c0.001,0-0.267-0.196-0.512-0.621c-0.123-0.204-0.239-0.482-0.322-0.86
				c-0.091-0.359-0.216-0.769-0.281-1.206c-0.08-0.439-0.173-0.913-0.208-1.424c-0.063-0.508-0.087-1.043-0.081-1.597
				c-0.019-0.556,0.06-1.119,0.098-1.693c0.06-0.571,0.166-1.142,0.255-1.712c0.137-0.568,0.241-1.105,0.408-1.684
				c0.159-0.49,0.393-1.099,0.622-1.575c0.465-0.996,1.026-1.841,1.537-2.53c0.516-0.688,1.006-1.207,1.364-1.557
				c0.354-0.348,0.605-0.529,0.605-0.529c0.126-0.092,0.303-0.064,0.395,0.063c0.083,0.114,0.066,0.271-0.031,0.367
				c0,0.001-0.174,0.174-0.456,0.554c-0.277,0.376-0.657,0.934-1.03,1.645c-0.371,0.709-0.748,1.565-1.006,2.511
				c-0.137,0.491-0.223,0.905-0.309,1.474c-0.071,0.512-0.143,1.031-0.214,1.552c-0.036,0.524-0.091,1.049-0.102,1.562
				c0.012,0.511-0.021,1.016,0.038,1.494c0.025,0.482,0.065,0.944,0.145,1.376c0.05,0.436,0.153,0.838,0.241,1.21
				c0.074,0.38,0.194,0.691,0.28,0.979c0.088,0.274,0.163,0.55,0.215,0.797c0.085,0.482,0.006,0.805,0.007,0.805
				c-0.139,0.568-0.711,0.917-1.279,0.778C19.132,27.9,19.001,27.836,18.892,27.757z"/>
		</g>
		<g>
			<path fill="#553E31" d="M16.598,24.544c0.49,0.521,1.063,0.988,1.647,1.332c0.294,0.169,0.593,0.303,0.882,0.396
				c0.146,0.033,0.287,0.079,0.424,0.087c0.136,0.027,0.265,0.012,0.387,0.017l-0.979,0.284c0.003,0.019,0.088-0.048,0.139-0.089
				c0.059-0.046,0.117-0.103,0.176-0.158c0.115-0.116,0.232-0.241,0.336-0.38c0.214-0.273,0.402-0.582,0.562-0.915
				c0.309-0.668,0.5-1.43,0.563-2.226c0.011-0.178,0.163-0.313,0.341-0.302c0.143,0.01,0.258,0.114,0.292,0.245
				c0.204,0.836,0.28,1.732,0.177,2.651c-0.059,0.458-0.161,0.919-0.32,1.375c-0.077,0.229-0.176,0.454-0.287,0.68
				c-0.058,0.112-0.116,0.224-0.187,0.337c-0.075,0.121-0.124,0.21-0.265,0.374l-0.025,0.03c-0.24,0.282-0.624,0.372-0.954,0.255
				c-0.981-0.35-1.661-0.972-2.189-1.61c-0.522-0.652-0.918-1.335-1.229-2.068c-0.065-0.154,0.007-0.333,0.161-0.397
				c0.12-0.051,0.254-0.019,0.339,0.07L16.598,24.544z"/>
		</g>
	</g>
	
		<path clip-path="url(#SVGID_2_)" fill="#CDB8AB" stroke="#553E31" stroke-linecap="round" stroke-linejoin="round" stroke-miterlimit="10" d="
		M41.344,40.918c-2.661,1.462-6.629,2.39-11.061,2.39c-5.509,0-10.3-1.433-12.756-3.545c0,0,0.352-1.387,0.273-2.039
		c-0.108-0.903,0.914-1.854,1.958-2.021s2.313-0.521,3.104-1.271s1.841-1.063,3.125-1.354s2.646,0.042,3.854,0.167
		s2.313,0.104,3.896,0.188s2.854,0.354,3.271,1.063s1.438,0.5,2.896,1.208s2.396,0.729,2.188,1.396s0.917,0.23,0.75,1.209
		S41.344,40.918,41.344,40.918z"/>
	
		<path clip-path="url(#SVGID_2_)" fill="#CDB8AB" stroke="#553E31" stroke-linecap="round" stroke-linejoin="round" stroke-miterlimit="10" d="
		M26.357,27.545c1.48,0.532,0.949-0.185,2.689,0.238c1.677,0.407,2.497,1.426,3.596,1.017c0.789-0.292,1.498-0.488,3.042-0.584
		c-0.163,2.002-1.005,3.178-1.825,3.64c-2.248,1.264-4.294-0.322-5.04-0.788C26.643,29.706,26.623,28.337,26.357,27.545z"/>
	
		<path clip-path="url(#SVGID_2_)" fill="none" stroke="#553E31" stroke-linecap="round" stroke-linejoin="round" stroke-miterlimit="10" d="
		M26.916,39.459c-0.561-0.35-0.889-0.774-0.889-1.232c0-0.71,0.791-1.339,2.014-1.734"/>
	
		<path clip-path="url(#SVGID_2_)" fill="none" stroke="#553E31" stroke-linecap="round" stroke-linejoin="round" stroke-miterlimit="10" d="
		M33.79,40.145c-0.948,0.327-2.248,0.471-3.665,0.351c-0.312-0.027-0.615-0.065-0.908-0.114"/>
	
		<path clip-path="url(#SVGID_2_)" fill="none" stroke="#553E31" stroke-linecap="round" stroke-linejoin="round" stroke-miterlimit="10" d="
		M36.034,36.698c0.76,0.379,1.22,0.874,1.22,1.414c0,0.588-0.542,1.12-1.421,1.512"/>
	
		<path clip-path="url(#SVGID_2_)" fill="none" stroke="#553E31" stroke-linecap="round" stroke-linejoin="round" stroke-miterlimit="10" d="
		M32.815,37.93c0,0.321-0.588,0.582-1.312,0.582c-0.723,0-1.312-0.261-1.312-0.582c0-0.318,0.589-0.579,1.312-0.579
		C32.228,37.351,32.815,37.611,32.815,37.93z"/>
</g>
</svg>
