<?xml version="1.0" encoding="utf-8"?>
<!-- Generator: Adobe Illustrator 16.0.0, SVG Export Plug-In . SVG Version: 6.00 Build 0)  -->
<!DOCTYPE svg PUBLIC "-//W3C//DTD SVG 1.1//EN" "http://www.w3.org/Graphics/SVG/1.1/DTD/svg11.dtd">
<svg version="1.1" id="Layer_1" xmlns="http://www.w3.org/2000/svg" xmlns:xlink="http://www.w3.org/1999/xlink" x="0px" y="0px"
	 width="60px" height="60px" viewBox="0 0 60 60" enable-background="new 0 0 60 60" xml:space="preserve">
<g>
	<defs>
		<path id="SVGID_17_" d="M29.999,54.02C16.755,54.02,5.98,43.244,5.98,30c0-13.246,10.774-24.02,24.019-24.02
			C43.244,5.98,54.02,16.754,54.02,30C54.02,43.244,43.244,54.02,29.999,54.02z"/>
	</defs>
	<clipPath id="SVGID_2_">
		<use xlink:href="#SVGID_17_"  overflow="visible"/>
	</clipPath>
	<g clip-path="url(#SVGID_2_)">
		<path fill="#EBE0D5" stroke="#553E31" stroke-linecap="round" stroke-linejoin="round" stroke-miterlimit="10" d="M33.192,40.263
			c0.451-0.255,0.848-0.646,1.152-1.205c0.649-1.186,0.583-2.556,0.791-3.852c0.214-1.325,1.5-3.049,0.309-4.261
			c-1.047-1.066-3.007-0.851-4.359-0.81c-1.533,0.047-2.335,0.631-3.377,1.543c-0.926,0.813-1.537,2.442-1.728,3.624
			c-0.172,1.068,0.509,2.444,1.192,3.208C28.542,40.042,31.337,41.31,33.192,40.263z"/>
		<path fill="#CDB8AB" stroke="#553E31" stroke-linecap="round" stroke-linejoin="round" stroke-miterlimit="10" d="M45.976,6.243
			c0,0-4.406,4.235-5.248,4.813c-0.842,0.579-2.828,2.951-3.792,3.446c-0.964,0.494-4.793,3.4-5.341,3.966
			c-0.55,0.565-1.469,1.074-1.833,1.5s-1.266,2.05-1.528,2.456c-0.262,0.407-2.222,2.353-2.676,3.092
			c-0.453,0.739-0.404,1.237-0.502,1.908c-0.096,0.671-0.07,2.007-0.132,2.641c-0.063,0.635-0.341,1.688-0.295,2.281
			c0.047,0.594,0.851,2.247,1.002,2.726s0.224,0.982,0.504,1.014c0.28,0.033,0.787,0.034,1.023-0.283c0,0,0.332-0.315,0.363-1.513
			c0.03-1.198,0.014-2.145,0.014-2.145s0.669-1.57,0.864-2.164c0,0-0.392,1.864-0.305,2.566c0.088,0.701,0.369,2.158,0.53,2.687
			c0.162,0.529,0.737,0.961,1.264,0.557c0.527-0.403,0.778-0.692,0.915-1.328c0.135-0.638,0.223-2.036,0.457-2.597
			c0.233-0.561,0.819-2.01,1.078-2.32c0.259-0.313,1.48-1.287,1.936-2.363c1.012-0.747,1.219-0.711,1.503-0.943
			c0.06,0.21,0.951,1.287,1.413,1.444c0,0-0.023,0.561,0.063,0.851c0,0-0.773,1.552-0.813,2.192s-0.492,0.963-0.611,1.181
			c-0.574,1.049-0.65,3.072-0.65,3.072s0.065,0.632,0.551,0.665c0.498,0.034,0.744-0.636,0.975-0.933
			c0.23-0.296,2.218-1.268,2.602-1.929c0.385-0.663,0.932-2.503,1.146-3.164c0.215-0.663,0.967-1.514,1.207-2.266
			c0.241-0.752,1.1-2.895,1.43-4.126c0.332-1.233,0.749-4.444,2.507-5.604s10.193-5.392,12.222-6.401
			c2.029-1.008,2.591-1.45,2.591-1.45L45.976,6.243z"/>
		<path fill="#CDB8AB" stroke="#553E31" stroke-linecap="round" stroke-linejoin="round" stroke-miterlimit="10" d="M31.614,23.931
			c0,0-1.789,2.188-2.23,2.882c-0.44,0.693-0.574,1.161-0.793,1.919c-0.219,0.759-0.18,0.938-0.199,1.342"/>
		<path fill="#EBE0D5" stroke="#553E31" stroke-miterlimit="10" d="M32.874,61.661c1.019-0.031,2.078,0.378,3.151,0.372
			c2.396-0.016,4.721-0.914,6.959-1.733c4.188-1.532,10.215-5.126,11.516-9.773c1.053-3.762-3.984-5.558-6.688-6.495
			c-5.205-1.806-11.391-1.59-16.813-1.229c-5.723,0.381-11.53,1.551-16.59,4.314c-2.414,1.319-6.057,4.484-3.806,7.401
			c2.194,2.844,6.788,4.029,10.095,5.013c3.47,1.031,6.994,1.717,10.598,1.941c1.463,0.091,2.908,0.474,4.36,0.562"/>
	</g>
	<g clip-path="url(#SVGID_2_)">
		<g>
			<path fill="#553E31" d="M19.005,38.779c-0.394-0.272-0.659-0.631-0.896-1.055c-0.216-0.413-0.376-0.844-0.543-1.275
				c-0.324-0.866-0.585-1.757-0.778-2.66c-0.405-1.807-0.455-3.654-0.363-5.45c0.069-0.901,0.131-1.78,0.34-2.695
				c0.196-0.9,0.479-1.771,0.824-2.607c0.71-1.669,1.583-3.22,2.826-4.564c0.105-0.114,0.283-0.121,0.396-0.016
				c0.104,0.097,0.119,0.254,0.04,0.367l-0.021,0.029c-0.946,1.354-1.613,2.985-2.032,4.589c-0.444,1.63-0.468,3.249-0.467,4.943
				c0.019,1.673,0.229,3.317,0.635,4.891c0.205,0.787,0.468,1.556,0.786,2.303l0.502,1.11c0.141,0.357,0.279,0.768,0.303,1.257
				c0.026,0.538-0.389,0.996-0.927,1.022c-0.224,0.011-0.434-0.054-0.604-0.173L19.005,38.779z"/>
		</g>
		<g>
			<path fill="#553E31" d="M15.647,35.46c0.637,0.556,1.365,1.04,2.099,1.381c0.731,0.341,1.503,0.519,2.111,0.422l0,0l-0.935,0.407
				c0.191-0.147,0.481-0.555,0.669-0.9c0.202-0.367,0.365-0.771,0.49-1.193c0.247-0.848,0.323-1.777,0.252-2.719
				c-0.016-0.177,0.115-0.332,0.291-0.348c0.147-0.013,0.281,0.079,0.33,0.211c0.34,0.946,0.547,1.976,0.534,3.046
				c-0.008,0.534-0.066,1.078-0.192,1.619c-0.146,0.561-0.273,1.038-0.657,1.669c-0.157,0.258-0.431,0.402-0.712,0.405l-0.223,0.002
				c-1.156-0.224-2.033-0.821-2.747-1.461c-0.715-0.655-1.29-1.373-1.779-2.166c-0.088-0.143-0.044-0.328,0.099-0.416
				c0.115-0.071,0.26-0.056,0.356,0.029L15.647,35.46z"/>
		</g>
	</g>
</g>
</svg>
