<?xml version="1.0" encoding="utf-8"?>
<!-- Generator: Adobe Illustrator 16.0.0, SVG Export Plug-In . SVG Version: 6.00 Build 0)  -->
<!DOCTYPE svg PUBLIC "-//W3C//DTD SVG 1.1//EN" "http://www.w3.org/Graphics/SVG/1.1/DTD/svg11.dtd">
<svg version="1.1" id="Layer_1" xmlns="http://www.w3.org/2000/svg" xmlns:xlink="http://www.w3.org/1999/xlink" x="0px" y="0px"
	 width="60px" height="60px" viewBox="0 0 60 60" enable-background="new 0 0 60 60" xml:space="preserve">
<g>
	<defs>
		<path id="SVGID_27_" d="M29.999,54.02C16.755,54.02,5.98,43.244,5.98,30c0-13.246,10.774-24.02,24.019-24.02
			C43.244,5.98,54.02,16.754,54.02,30C54.02,43.244,43.244,54.02,29.999,54.02z"/>
	</defs>
	<clipPath id="SVGID_2_">
		<use xlink:href="#SVGID_27_"  overflow="visible"/>
	</clipPath>
	
		<path clip-path="url(#SVGID_2_)" fill="#CDB8AB" stroke="#553E31" stroke-width="0.8998" stroke-linecap="round" stroke-linejoin="round" stroke-miterlimit="10" d="
		M23.754,18.563c0,0-2.588,1.771-3.738,4.179s-2.256,1.828-2.256,1.828l-1.184-4.681l4.314-3.392l1.689,0.999L23.754,18.563z"/>
	
		<path clip-path="url(#SVGID_2_)" fill="#CDB8AB" stroke="#553E31" stroke-width="0.8998" stroke-linecap="round" stroke-linejoin="round" stroke-miterlimit="10" d="
		M23.537,16.581c0,0,0.551,0.783,0.537,1.404c-0.014,0.619-0.008,2.412,0.072,2.942c0.078,0.529,0.406,2.21,0.934,2.625
		s1.104,0.807,1.527,0.802c0.424-0.004,0.957-0.193,1.102-0.313c0.265-0.222,0.389-0.714,0.381-1.096s0.021-1.899,0.108-2.23
		c0.087-0.33,0.027-2.223-0.058-2.696c-0.084-0.473-0.105-1.478-0.041-2.037c0.064-0.558-0.224-1.947-0.49-2.282
		c-0.266-0.335-0.818-1.087-1.34-1.558l1.484,1.532c0.238-0.304,0.406-0.585,0.45-0.609c0.044-0.023,3.051-2.674,3.823-3.098
		s4.117-3.058,4.857-3.752c0.74-0.696,2.728-3.312,3.245-4.041L25.35,0.62l-0.703,1.328l-1.443,3.05l-1.814,2.998L19.375,10.9
		l-1.231,3.202l1.688,2.769l1.156,0.537l1.276,1.077l1.736,0.362"/>
	
		<path clip-path="url(#SVGID_2_)" fill="#CDB8AB" stroke="#553E31" stroke-width="0.8998" stroke-linecap="round" stroke-linejoin="round" stroke-miterlimit="10" d="
		M24.79,29.046l1.464-0.789l0.373-1.002l0.535-1.118l-0.349-1.35l0.024-0.901l-0.75-0.651l-0.467-1.27
		c-0.717-0.392-1.551-0.642-2.461-0.673c-2.691-0.089-4.936,1.682-5.011,3.957c-0.075,2.273,2.048,4.188,4.739,4.276
		c0.627,0.021,1.063-0.203,1.613-0.364L24.79,29.046z"/>
	
		<path clip-path="url(#SVGID_2_)" fill="#CDB8AB" stroke="#553E31" stroke-width="0.8998" stroke-linecap="round" stroke-linejoin="round" stroke-miterlimit="10" d="
		M25.043,0.894c0,0-1.75,4.357-2.85,5.896c-1.099,1.537-2.691,4.159-3.43,4.827c-0.737,0.667-2.83,1.945-3.578,2.726
		c-0.748,0.778-2.03,2.47-2.152,3.192c-0.121,0.724,0.016,1.695-0.156,2.357c-0.174,0.662-0.809,3.315-0.834,4.217
		c-0.025,0.9,0.8,1.766,1.523,2.509c0.723,0.743,1.951,2.773,2.822,3.136c0.87,0.36,3.772,1.356,4.251,1.063
		c0.478-0.296,0.544-0.61,0.536-0.931c-0.01-0.32-0.398-1.014-0.76-1.179c-0.288-0.132-0.73-0.447-1.008-0.501l-1.89-1.272
		c0,0-0.907-4.257-0.917-4.219c0.018-0.07,0.158-0.19,0.203-0.25c0.162-0.212,0.321-0.427,0.479-0.643
		c0.311-0.426,0.674-0.809,0.908-1.285c0.389-0.794,0.795-1.599,1.384-2.265c0.39-0.439,0.967-1.103,1.62-0.76"/>
	
		<path clip-path="url(#SVGID_2_)" fill="#EBE0D5" stroke="#553E31" stroke-width="0.8998" stroke-linecap="round" stroke-linejoin="round" stroke-miterlimit="10" d="
		M24.145,28.479c0,0-1.254-0.904-1.196-0.917s0.438-1.711,0.438-1.711l-0.176-1.598l0.734-0.631l-0.002-1.429l1.093-0.48
		c-0.59-0.239-1.196-0.438-1.889-0.461c-2.693-0.09-4.938,1.682-5.013,3.957c-0.075,2.272,2.048,4.188,4.741,4.276
		c0.513,0.018,0.969-0.148,1.438-0.258L24.145,28.479z"/>
	
		<path clip-path="url(#SVGID_2_)" fill="#CDB8AB" stroke="#553E31" stroke-width="0.8998" stroke-linecap="round" stroke-linejoin="round" stroke-miterlimit="10" d="
		M23.794,17.027l0.263,0.674l0.014,0.946l-0.008,0.719c0,0-1.571-0.579-1.972-0.996c-0.399-0.418-0.989-0.923-1.272-1.062
		c-0.284-0.139-0.729,0.569-1.049,0.822c-0.319,0.254-0.691,0.771-1.023,1.319s-0.389,0.868-0.56,1.036s0.303,1.651,0.295,2.046
		c-0.007,0.395,0.349,0.977,0.597,1.521c0.247,0.545,0.68,1.53,0.762,2.031c0.082,0.502,0.426,1.385-0.036,1.906
		c-0.217,0.246-0.531,0.302-0.702,0.328c-0.172,0.026-0.588-0.053-1.034-0.433c-0.446-0.379-1.333-1.335-1.596-1.712
		s-0.903-1.502-1.239-2.154c-0.337-0.651-0.518-1.524-0.522-1.929c-0.005-0.405,0.321-2.098,0.495-2.553"/>
	
		<path clip-path="url(#SVGID_2_)" fill="#CDB8AB" stroke="#553E31" stroke-width="0.8998" stroke-linecap="round" stroke-linejoin="round" stroke-miterlimit="10" d="
		M33.135,38.107c-0.426-0.974-1.045-1.785-1.766-2.388c-0.14-0.115-0.285-0.22-0.431-0.319l-0.968-0.009l-1.575-0.028l-0.618,0.914
		l-1.604,0.52l-0.253,0.872l-0.942,1.266l0.1,1.124l-0.112,1.402c0.025,0.063,0.038,0.127,0.065,0.189
		c1.215,2.779,4.014,4.241,6.252,3.264C33.521,43.936,34.351,40.888,33.135,38.107z"/>
	
		<path clip-path="url(#SVGID_2_)" fill="#EBE0D5" stroke="#553E31" stroke-width="0.8998" stroke-linecap="round" stroke-linejoin="round" stroke-miterlimit="10" d="
		M33.135,38.107c-0.362-0.829-0.868-1.538-1.455-2.104l0.16,0.863l-1.504,0.745L29.9,38.471l-2.012,0.843
		c0,0-0.421,0.591-0.463,0.604c-0.043,0.015-1.617,0.254-1.617,0.254l-0.464,1.11l-0.347,0.271c0.014,0.032,0.02,0.065,0.033,0.098
		c1.215,2.779,4.014,4.241,6.252,3.264C33.521,43.936,34.351,40.888,33.135,38.107z"/>
	
		<path clip-path="url(#SVGID_2_)" fill="#CDB8AB" stroke="#553E31" stroke-width="0.8998" stroke-linecap="round" stroke-linejoin="round" stroke-miterlimit="10" d="
		M43.232,36.675c0,0-2.398,2.023-3.562,2.437c-0.23,0.081-0.763,0.252-1.399,0.451c-1.422,0.446-3.365,1.039-3.625,1.123
		c0,0-3.027,0.909-3.758,1.021s-3.149,0.619-3.57,0.956c-0.422,0.338-0.957,1.041-0.929,1.547s0.112,0.844,1.237,1.04
		c1.125,0.197,3.796,0.281,4.752,0.169s7.17-1.068,8.182-1.574c1.013-0.507,1.659-0.563,1.969-0.788
		c-1.041,0.563-3.992,1.322-4.893,1.49c-0.9,0.169-4.893,0.788-5.68,0.788s-4.33-0.057-4.724-0.169s-0.507-0.057-0.478,0.422
		c0.027,0.478,0.533,1.012,0.983,1.265s1.771,1.463,2.53,1.519c0.76,0.057,2.447,0.197,3.487,0.281s2.84,0.646,5.062,0.057
		c2.221-0.591,3.121-0.675,3.964-0.956c-0.899,0.168-5.032,1.209-5.539,1.181s-3.374-0.253-3.768-0.365
		c0.534,0.309,1.265,1.04,2.081,1.377c0.814,0.338,4.33,1.21,4.977,1.21s4.105,0.112,5.904-0.197c1.8-0.31,6.691-2.671,7.479-3.318
		c0.787-0.646,5.202-3.599,6.467-4.273s5.511-2.98,7.339-3.937s0.955-13.806,0.955-13.806l-2.98,2.644c0,0-7,3.964-8.098,4.555
		c-1.096,0.591-5.229,1.94-6.213,1.8c-0.984-0.141-5.905-0.338-6.805-0.507c-0.9-0.168-2.587-0.337-3.543,0.366
		s-3.289,1.827-3.937,1.996c-0.646,0.169-3.093,0.31-3.796,0.169s-0.862-0.094-1.229-0.234c0,0,0.553,0.69,0.934,1.373
		c0.408,0.73,0.646,1.574,0.829,2.01c0,0,1.61,0.494,2.454,0.382l1.328-0.396l2.783-1.04l2.081-1.435"/>
	
		<path clip-path="url(#SVGID_2_)" fill="#CDB8AB" stroke="#553E31" stroke-width="0.8998" stroke-linecap="round" stroke-linejoin="round" stroke-miterlimit="10" d="
		M23.063,27.347c0.121,0.163,0.521,0.333,0.695,0.42c0.309,0.155,0.385,0.427,0.657,0.638c0.509,0.395,0.885,0.888,0.909,1.556
		c0.021,0.6-0.246,1.091-0.445,1.636s-0.108,0.993,0.305,1.405c0.281,0.28,0.822,0.611,1.236,0.488
		c0.292-0.086,0.373-0.56,0.469-0.813c0.381-0.997-0.152-1.992-0.027-3.009c0.041-0.341,0.157-0.673,0.145-1.022
		c-0.017-0.466-0.341-0.819-0.709-1.063c-0.361-0.238-0.751-0.482-1.168-0.611c-0.483-0.147-1.156-0.062-1.643,0.055L23.063,27.347z
		"/>
</g>
</svg>
