<?xml version="1.0" encoding="utf-8"?>
<!-- Generator: Adobe Illustrator 16.0.0, SVG Export Plug-In . SVG Version: 6.00 Build 0)  -->
<!DOCTYPE svg PUBLIC "-//W3C//DTD SVG 1.1//EN" "http://www.w3.org/Graphics/SVG/1.1/DTD/svg11.dtd">
<svg version="1.1" id="Layer_1" xmlns="http://www.w3.org/2000/svg" xmlns:xlink="http://www.w3.org/1999/xlink" x="0px" y="0px"
	 width="60px" height="60px" viewBox="0 0 60 60" enable-background="new 0 0 60 60" xml:space="preserve">
<g>
	<defs>
		<path id="SVGID_19_" d="M30,54.02C16.755,54.02,5.979,43.245,5.979,30S16.755,5.98,30,5.98S54.021,16.755,54.021,30
			S43.245,54.02,30,54.02z"/>
	</defs>
	<clipPath id="SVGID_2_">
		<use xlink:href="#SVGID_19_"  overflow="visible"/>
	</clipPath>
	<polygon clip-path="url(#SVGID_2_)" fill="#EBE0D5" stroke="#553E31" stroke-miterlimit="10" points="-17.125,42.093 
		57.195,32.033 68.16,68.861 -11.148,74.537 	"/>
	<g clip-path="url(#SVGID_2_)">
		<g>
			<path fill="#553E31" d="M17.564,43.369c-0.601-0.406-0.856-1.149-1.104-1.789c-0.249-0.664-0.45-1.349-0.599-2.042
				c-0.311-1.387-0.349-2.806-0.277-4.185c0.062-1.36,0.346-2.797,0.893-4.07c0.545-1.282,1.216-2.472,2.171-3.504
				c0.081-0.087,0.217-0.093,0.305-0.012c0.08,0.074,0.091,0.195,0.03,0.282l-0.017,0.023c-0.727,1.04-1.238,2.291-1.561,3.522
				c-0.341,1.252-0.358,2.494-0.358,3.796c0.015,1.284,0.176,2.546,0.488,3.754c0.157,0.604,0.358,1.194,0.603,1.769
				c0.244,0.599,0.57,1.059,0.618,1.816c0.026,0.41-0.284,0.764-0.694,0.79c-0.171,0.011-0.332-0.037-0.464-0.127L17.564,43.369z"/>
		</g>
		<g>
			<path fill="#553E31" d="M14.987,40.821c0.488,0.426,1.048,0.799,1.61,1.06c0.562,0.262,1.154,0.398,1.621,0.323l-0.717,0.313
				c0.146-0.112,0.368-0.426,0.513-0.69c0.155-0.282,0.28-0.592,0.376-0.916c0.189-0.651,0.248-1.365,0.193-2.087
				c-0.012-0.136,0.088-0.255,0.224-0.268c0.112-0.01,0.216,0.062,0.253,0.162c0.261,0.727,0.42,1.517,0.411,2.338
				c-0.006,0.411-0.051,0.828-0.148,1.244c-0.111,0.43-0.209,0.796-0.504,1.28c-0.152,0.25-0.438,0.367-0.71,0.315l-0.008-0.002
				c-0.888-0.173-1.561-0.631-2.108-1.122c-0.549-0.503-0.99-1.054-1.365-1.663c-0.067-0.108-0.033-0.252,0.075-0.319
				c0.089-0.054,0.199-0.042,0.274,0.022L14.987,40.821z"/>
		</g>
	</g>
	
		<path clip-path="url(#SVGID_2_)" fill="#EBE0D5" stroke="#553E31" stroke-width="1.1129" stroke-linecap="round" stroke-linejoin="round" stroke-miterlimit="10" d="
		M43.912,23.271c-0.436-2.579-2.571-4.371-4.769-4c-0.267,0.045-0.52,0.121-0.761,0.222l-12.184,3.54l4.062,12.107l11.101-6.702
		c0.386-0.145,0.74-0.355,1.056-0.621l0.021-0.011l-0.001-0.003C43.597,26.811,44.219,25.089,43.912,23.271z"/>
	
		<path clip-path="url(#SVGID_2_)" fill="#CDB8AB" stroke="#553E31" stroke-width="1.1129" stroke-linecap="round" stroke-linejoin="round" stroke-miterlimit="10" d="
		M36.355,32.027c0.465,0.447,1.204,1.035,1.626,0.633c0.423-0.4,0.887-1.858,1.268-2.407c0.38-0.549,0.823-1.267,1.119-1.773
		c0.296-0.507,0.845-1.921,0.781-2.745c-0.064-0.824-0.19-2.154,0.105-2.956c0.296-0.803,1.077-2.302,1.521-3
		c0.443-0.695,0.549-1.857,0.781-2.871c0.231-1.013,0.401-3.272,1.456-4.266c1.057-0.993,5.048-3.949,6.736-4.73
		c1.69-0.781,11.319-6.652,13.494-8.129c2.175-1.478,2.196-3.484,2.196-3.484L48.814-2.772c0,0-8.827,9.164-10.137,10.431
		c-1.309,1.268-8.446,6.377-9.291,6.842c-0.844,0.464-1.984,1.774-2.406,2.788c-0.423,1.014-1.099,1.773-1.584,2.09
		c-0.486,0.317-2.407,1.374-2.746,1.732c-0.338,0.358-0.506,1.33-0.611,1.815c0,0-0.802,2.365-0.655,3.379
		c0.147,1.014,0.846,2.492,1.141,2.956c0,0,0-2.829,0.76-3.864c0.761-1.035,1.605-1.858,2.915-2.365
		c1.309-0.507,1.899-0.951,3.294-1.289c1.394-0.337,2.639-0.38,3.906-0.231c1.268,0.148,2.471,0.57,2.809,0.95
		s0.591,1.182,0.57,1.943c-0.021,0.76-0.212,1.837-0.168,2.428c0.041,0.591-0.297,1.647-0.445,2.133
		C36.019,29.451,35.765,31.457,36.355,32.027z"/>
	
		<ellipse transform="matrix(0.986 -0.1665 0.1665 0.986 -4.4459 5.0888)" clip-path="url(#SVGID_2_)" fill="#EBE0D5" stroke="#553E31" stroke-width="1.1129" stroke-linecap="round" stroke-linejoin="round" stroke-miterlimit="10" cx="28.134" cy="29.066" rx="5.488" ry="6.443"/>
	
		<path clip-path="url(#SVGID_2_)" fill="#CDB8AB" stroke="#553E31" stroke-linecap="round" stroke-linejoin="round" stroke-miterlimit="10" d="
		M48.32,43.841c-0.965-0.111-1.935-0.15-2.9-0.25c-0.581-0.061-1.182-0.187-1.654-0.467c-0.25-0.149-0.355-0.37-0.567-0.525
		c-0.224-0.164-0.764-0.184-1.073-0.237c-1.587-0.276-3.219-0.524-4.853-0.424c-5.633,0.344-11.015,1.447-16.408,2.711
		c-2.624,0.615-5.089,2.122-6.189,4.096c-0.916,1.643-0.938,3.375-1.67,5.039c-0.813,1.85,0.798,3.564,3.181,4.053
		c4.528,0.926,9.429,0.097,13.955-0.47c5.729-0.717,11.461-1.395,17.245-1.754c4.054-0.254,8.742-1.379,8.865-5.013
		c0.043-1.257,0.016-2.688-0.911-3.775c-0.659-0.771-2.045-1.668-3.108-2.116c-0.291-0.123-0.615-0.259-0.937-0.328
		c-0.281-0.062-0.556-0.041-0.844-0.116c-0.7-0.184-1.355-0.332-2.094-0.418C48.345,43.844,48.332,43.842,48.32,43.841z"/>
	
		<path clip-path="url(#SVGID_2_)" fill="#CDB8AB" stroke="#553E31" stroke-width="1.1129" stroke-linecap="round" stroke-linejoin="round" stroke-miterlimit="10" d="
		M33.546,28.153c-0.349,0.072-1.489,0.173-1.793,0.37c-0.826,0.534-1.886,1.01-2.817,1.324c-1.034,0.35-2.036,0.483-3.095,0.709
		c-0.865,0.185-1.242,0.951-1.796,1.662c-0.632,0.814-0.486,1.547-0.204,2.471c0.211,0.689,0.337,1.994,0.31,2.746
		c-0.029,0.805-0.078,1.842,0.183,2.617c0.331,0.98,1.6,1.248,2.605,1.197c1.024-0.053,0.922-1.367,1.225-2.182
		c0.222-0.598,0.367-1.121,0.76-1.633c0.487-0.635,0.414-1.398,0.887-1.873c0.972-0.971,1.745-1.057,2.873-2.422
		C33.484,31.787,33.546,28.153,33.546,28.153"/>
</g>
</svg>
