<?xml version="1.0" encoding="utf-8"?>
<!-- Generator: Adobe Illustrator 16.0.0, SVG Export Plug-In . SVG Version: 6.00 Build 0)  -->
<!DOCTYPE svg PUBLIC "-//W3C//DTD SVG 1.1//EN" "http://www.w3.org/Graphics/SVG/1.1/DTD/svg11.dtd">
<svg version="1.1" id="Layer_1" xmlns="http://www.w3.org/2000/svg" xmlns:xlink="http://www.w3.org/1999/xlink" x="0px" y="0px"
	 width="60px" height="60px" viewBox="0 0 60 60" enable-background="new 0 0 60 60" xml:space="preserve">
<g>
	<defs>
		<path id="SVGID_83_" d="M29.999,53.5C17.041,53.5,6.5,42.958,6.5,30c0-12.96,10.541-23.5,23.499-23.5
			C42.958,6.5,53.5,17.04,53.5,30C53.5,42.958,42.958,53.5,29.999,53.5z"/>
	</defs>
	<clipPath id="SVGID_2_">
		<use xlink:href="#SVGID_83_"  overflow="visible"/>
	</clipPath>
	<rect x="0.625" y="0.625" clip-path="url(#SVGID_2_)" fill="#FFFCF5" width="58.75" height="58.75"/>
	<polygon clip-path="url(#SVGID_2_)" fill="#EBE0D5" stroke="#553E31" stroke-miterlimit="10" points="33.816,25.125 -3.904,33.25 
		20.846,62.25 69.596,43.5 	"/>
	<g clip-path="url(#SVGID_2_)">
		<path fill="#553E31" d="M25.587,49.828c1.472-0.47,25.343-9.355,26.897-10.018c2.618-1.112,0-2.641-0.739-3.029
			c-0.625-0.33-15.933-8.921-16.704-9.33c-0.851-0.451-1.776-0.287-2.616-0.076C31.587,27.59,9.685,33.249,8.656,33.6
			c-1.025,0.35-1.926,1.302-1.127,2.304c0.801,1.002,11.522,11.997,13.05,13.35C22.106,50.604,23.231,50.582,25.587,49.828z"/>
		<path fill="#EBE0D5" d="M51.708,38.847c-0.962,0.403-22.726,8.471-26.221,9.705c-2.556,0.901-3.031,0.275-4.032-0.477
			c-1.002-0.751-12.3-12.105-12.64-12.489c-0.341-0.382-0.215-0.639,0.167-0.768c3.917-1.323,23.129-6.23,23.768-6.391
			c1.29-0.388,1.61-0.201,2.691,0.451c0.852,0.514,15.084,8.498,15.767,8.942C51.888,38.264,52.246,38.623,51.708,38.847z"/>
		<path fill="#CDB8AB" d="M38.789,38.809c0,2.445-3.892,4.429-8.696,4.429c-4.799,0-8.691-1.983-8.691-4.429
			s3.893-4.428,8.691-4.428C34.897,34.381,38.789,36.363,38.789,38.809z"/>
		<path fill="#EBE0D5" d="M37.098,37.96c0,1.886-3.144,3.41-7.019,3.41c-3.88,0-7.021-1.524-7.021-3.41
			c0-1.879,3.142-3.405,7.021-3.405C33.954,34.555,37.098,36.081,37.098,37.96z"/>
		<ellipse fill="#553E31" cx="29.996" cy="36.517" rx="7.087" ry="3.594"/>
		<path fill="#553E31" d="M13.516,41.264c0,0-0.499-1.979-0.225-2.08c0.273-0.1,10.368-3.08,10.744-3.181
			c0.375-0.1,0.627,0.303,0.075,0.603s-2.655,1.554-4.008,1.954s-2.605,0.501-3.456,1.828
			C15.921,40.687,14.216,41.138,13.516,41.264z"/>
		<path fill="#553E31" d="M21.188,30.398c0,0-0.075-1.327,0.2-1.452c0.277-0.125,0.402-0.151,0.852,0.175
			c0.451,0.326,4.184,2.905,4.358,3.255c0.175,0.352-0.127,0.476-0.45,0.376c-0.326-0.1-1.704-0.525-2.329-1.003
			c-0.627-0.475-1.654-1.213-1.954-1.177C21.659,30.599,21.188,30.398,21.188,30.398z"/>
		<path fill="#553E31" d="M41.69,30.474c-1.812,0.546-7.235,2.181-7.444,2.264c-0.25,0.099-0.1,0.413,0.188,0.552
			c0.179,0.085,2.498-0.098,3.369-0.275c0.613-0.125,1.827-0.64,2.203-0.602c0.376,0.037,0.426,0.325,0.764,0.3
			c0.339-0.025,1.217-0.338,1.554-0.426c0.253-0.063,0.099-1.15,0.005-1.689C42.298,30.416,42.055,30.363,41.69,30.474z"/>
		<path fill="#553E31" d="M34.259,37.356c0.393,0.23,5.923,3.957,6.285,4.194c0.364,0.239,0.415,0.715,0.4,1.04
			c-0.012,0.324-0.051,1.266-0.051,1.266s-1.251-0.302-1.488-0.64c-0.238-0.338-0.278-0.647-0.751-1.076
			c-0.402-0.363-2.127-1.603-2.643-2.116c-0.514-0.513-1.632-1.712-1.93-2.042C33.744,37.606,33.832,37.107,34.259,37.356z"/>
	</g>
	<g clip-path="url(#SVGID_2_)">
		
			<path fill="#EBE0D5" stroke="#553E31" stroke-width="0.8" stroke-linecap="round" stroke-linejoin="round" stroke-miterlimit="10" d="
			M12.777,31.527c0,7.862,6.87,10.805,15.352,10.805c8.476,0,15.348-2.942,15.348-10.805"/>
		
			<path fill="#EBE0D5" stroke="#553E31" stroke-width="0.8" stroke-linecap="round" stroke-linejoin="round" stroke-miterlimit="10" d="
			M25.355,26.921c0,0-4.564-3.609-5.61-4.919c-1.005-1.264-4.353-6.063-7.655-8.872c-0.786-0.664-0.942-0.904-1.661-0.979
			c-0.711-0.073-1.365,0-1.824,0.248c-0.605,0.322-0.799,0.729-0.782,1.097c0.017,0.311-0.084,0.523,0.804,1.349
			c0,0,4.597,4.648,5.53,5.518c0.941,0.869,1.71,1.771,1.995,2.445c0.292,0.665,0.153,2.197,0.37,3.444
			c0.218,1.25,1.053,2.037,2.061,2.738l0.677,0.225L25.355,26.921z"/>
		<g>
			<defs>
				<path id="XMLID_2_" d="M12.777,31.527c0,3.968,6.87,7.185,15.352,7.185c8.476,0,15.348-3.217,15.348-7.185
					c0-3.971-6.872-7.19-15.348-7.19C19.647,24.337,12.777,27.557,12.777,31.527z"/>
			</defs>
			<use xlink:href="#XMLID_2_"  overflow="visible" fill="#CDB8AB"/>
			<clipPath id="XMLID_6_">
				<use xlink:href="#XMLID_2_"  overflow="visible"/>
			</clipPath>
			
				<path clip-path="url(#XMLID_6_)" fill="none" stroke="#553E31" stroke-width="0.75" stroke-linecap="round" stroke-linejoin="round" stroke-miterlimit="10" d="
				M14.778,34.439c0,3.484,5.973,6.311,13.348,6.311c7.37,0,13.349-2.826,13.349-6.311c0-3.487-5.979-6.311-13.349-6.311
				C20.751,28.129,14.778,30.952,14.778,34.439z"/>
			
				<use xlink:href="#XMLID_2_"  overflow="visible" fill="none" stroke="#553E31" stroke-width="0.8" stroke-linecap="round" stroke-linejoin="round" stroke-miterlimit="10"/>
		</g>
	</g>
	
		<path clip-path="url(#SVGID_2_)" fill="#EBE0D5" stroke="#553E31" stroke-linecap="round" stroke-linejoin="round" stroke-miterlimit="10" d="
		M28.375,29.854c-2.075,0.402-4.471-0.046-6.311,1.021c-1.84,1.066-3.399,2.248-1.925,3.499s2.396-0.371,4.646,0.267
		c2.25,0.637,7.116,2.097,8.646,1.193s2.642-2.111,2.294-3.35s-0.699-2.072-2.609-2.072C31.207,30.413,30.895,29.366,28.375,29.854z
		"/>
	<g clip-path="url(#SVGID_2_)">
		<path fill="none" stroke="#553E31" stroke-linecap="round" stroke-linejoin="round" stroke-miterlimit="10" d="M32.754,16.5
			c-0.813,1.563-1.375,2.563-1.063,4.813c0.291,2.095,2.313,4.313,1.875,5.625"/>
		<path fill="none" stroke="#553E31" stroke-linecap="round" stroke-linejoin="round" stroke-miterlimit="10" d="M28.504,15.438
			c-0.75,1.938-1.625,1.938-1.125,4.75c0.365,2.054,2.25,4,1.188,6"/>
		<path fill="none" stroke="#553E31" stroke-linecap="round" stroke-linejoin="round" stroke-miterlimit="10" d="M24.441,16.5
			c-1,1.625-2.125,3.25-1.438,5.125s2.063,2.75,0.938,5.5"/>
	</g>
</g>
</svg>
