<?xml version="1.0" encoding="utf-8"?>
<!-- Generator: Adobe Illustrator 15.0.0, SVG Export Plug-In . SVG Version: 6.00 Build 0)  -->
<!DOCTYPE svg PUBLIC "-//W3C//DTD SVG 1.1//EN" "http://www.w3.org/Graphics/SVG/1.1/DTD/svg11.dtd">
<svg version="1.1" id="Layer_1" xmlns="http://www.w3.org/2000/svg" xmlns:xlink="http://www.w3.org/1999/xlink" x="0px" y="0px"
	 width="50px" height="50px" viewBox="0 0 50 50" enable-background="new 0 0 50 50" xml:space="preserve">
<linearGradient id="SVGID_1_" gradientUnits="userSpaceOnUse" x1="1390.8721" y1="1834.8594" x2="1440.8721" y2="1834.8594" gradientTransform="matrix(-4.371139e-008 1 -1 -4.371139e-008 1859.859 -1390.8724)">
	<stop  offset="0" style="stop-color:#FFFCF5"/>
	<stop  offset="0.5" style="stop-color:#EBE0D5"/>
	<stop  offset="1" style="stop-color:#FFFCF5"/>
</linearGradient>
<rect fill="url(#SVGID_1_)" width="50" height="50"/>
<path fill-rule="evenodd" clip-rule="evenodd" fill="#CDB8AB" d="M0,49.885c0.253-2.25,2.965-3.086,5.427-3.967
	c1.022-0.365,4.001-0.729,5.021-1.1c0.73-0.268,1.338-0.715,1.971-1.156c0.508-0.357,1.285-1.045,1.947-1.045
	c-0.029,0,0.877-5.873-0.318-6.111c-0.396-0.08-2.619,0-3.254-1.43c-0.635-1.428-1.984-4.92-1.349-7.301
	c0.634-2.38,1.826-1.35,2.619-0.396c-0.316-2.779-0.635-4.523-0.635-7.619c0-2.99,0.883-6.352,2.912-8.619
	c2.617-2.925,6.674-4.95,10.637-4.894c3.193,0.045,6.22,1.189,8.755,3.113c0.697,0.529,1.342,1.127,1.926,1.78
	c2.029,2.267,2.912,5.628,2.912,8.619c0,3.094-0.316,4.84-0.635,7.619c0.793-0.953,1.984-1.984,2.619,0.396
	c0.635,2.381-0.715,5.873-1.35,7.301c-0.635,1.43-2.857,1.35-3.254,1.43c-1.193,0.238-0.289,6.109-0.316,6.109
	c0.66,0.002,1.439,0.689,1.947,1.047c0.631,0.441,1.238,0.889,1.971,1.156c1.02,0.371,3.773,0.734,4.795,1.1
	c2.461,0.881,4.049,1.492,5.652,3.967H0z"/>
<path fill-rule="evenodd" clip-rule="evenodd" fill="none" stroke="#A87D50" stroke-width="0.0794" stroke-miterlimit="10" d="
	M50,48.568"/>
</svg>
