<?xml version="1.0" encoding="utf-8"?>
<!-- Generator: Adobe Illustrator 16.0.0, SVG Export Plug-In . SVG Version: 6.00 Build 0)  -->
<!DOCTYPE svg PUBLIC "-//W3C//DTD SVG 1.1//EN" "http://www.w3.org/Graphics/SVG/1.1/DTD/svg11.dtd">
<svg version="1.1" id="Layer_1" xmlns="http://www.w3.org/2000/svg" xmlns:xlink="http://www.w3.org/1999/xlink" x="0px" y="0px"
	 width="230px" height="190px" viewBox="0 0 230 190" enable-background="new 0 0 230 190" xml:space="preserve">
<g>
	
		<radialGradient id="SVGID_1_" cx="452.4414" cy="480.8369" r="239.5624" gradientTransform="matrix(0.5135 0 0 0.5135 -108.6988 -102.1818)" gradientUnits="userSpaceOnUse">
		<stop  offset="0.0061" style="stop-color:#E3E6EB"/>
		<stop  offset="0.3455" style="stop-color:#2A90CF"/>
		<stop  offset="0.7333" style="stop-color:#074E9B"/>
		<stop  offset="0.9714" style="stop-color:#000000"/>
	</radialGradient>
	<path fill="url(#SVGID_1_)" d="M146.702,113.799c-1.859,7.867-7.375,17.655-23.324,17.655c-25.086,0-24.459-27.367-24.459-27.367
		h43.029h5.603h52.401c0.284-2.786,0.438-5.654,0.438-8.606c0-45.788-35.26-76.124-78.754-76.124S42.882,49.692,42.882,95.48
		c0,45.793,35.26,71.605,78.754,71.605c37.3,0,68.521-18.998,76.664-53.287H146.702z M122.384,57.067
		c25.171-0.007,24.176,23.462,24.176,23.462H98.21C98.21,80.529,98.456,57.076,122.384,57.067z"/>
	<defs>
		<filter id="Adobe_OpacityMaskFilter" filterUnits="userSpaceOnUse" x="42.857" y="19.356" width="157.51" height="147.729">
			<feFlood  style="flood-color:white;flood-opacity:1" result="back"/>
			<feBlend  in="SourceGraphic" in2="back" mode="normal"/>
		</filter>
	</defs>
	<mask maskUnits="userSpaceOnUse" x="42.857" y="19.356" width="157.51" height="147.729" id="SVGID_2_">
		<g filter="url(#Adobe_OpacityMaskFilter)">
			<defs>
				<filter id="Adobe_OpacityMaskFilter_1_" filterUnits="userSpaceOnUse" x="42.857" y="19.356" width="157.51" height="147.729">
					<feFlood  style="flood-color:white;flood-opacity:1" result="back"/>
					<feBlend  in="SourceGraphic" in2="back" mode="normal"/>
				</filter>
			</defs>
			<mask maskUnits="userSpaceOnUse" x="42.857" y="19.356" width="157.51" height="147.729" id="SVGID_2_">
				<g filter="url(#Adobe_OpacityMaskFilter_1_)">
				</g>
			</mask>
			
				<radialGradient id="SVGID_3_" cx="449.8076" cy="383.7686" r="153.8441" gradientTransform="matrix(0.5135 0 0 0.5135 -108.6988 -102.1818)" gradientUnits="userSpaceOnUse">
				<stop  offset="0" style="stop-color:#000000"/>
				<stop  offset="0.2606" style="stop-color:#000000"/>
				<stop  offset="0.7697" style="stop-color:#6B6B6B"/>
				<stop  offset="0.9714" style="stop-color:#FFFFFF"/>
			</radialGradient>
			<path mask="url(#SVGID_2_)" fill="url(#SVGID_3_)" d="M146.677,113.799c-1.859,7.867-7.373,17.655-23.324,17.655
				c-25.082,0-24.456-27.367-24.456-27.367h43.028h5.604h52.399c0.286-2.786,0.439-5.654,0.439-8.606
				c0-45.788-35.259-76.124-78.756-76.124c-43.493,0-78.754,30.336-78.754,76.124c0,45.793,35.261,71.605,78.754,71.605
				c37.301,0,68.522-18.998,76.663-53.287H146.677z M122.36,57.068c25.172-0.008,24.174,23.461,24.174,23.461H98.186
				C98.186,80.529,98.43,57.076,122.36,57.068z"/>
		</g>
	</mask>
	
		<radialGradient id="SVGID_4_" cx="449.8076" cy="383.7686" r="153.8441" gradientTransform="matrix(0.5135 0 0 0.5135 -108.6988 -102.1818)" gradientUnits="userSpaceOnUse">
		<stop  offset="0" style="stop-color:#FFFFFF"/>
		<stop  offset="0.2606" style="stop-color:#71CDDD"/>
		<stop  offset="0.7697" style="stop-color:#3457A7"/>
		<stop  offset="0.9714" style="stop-color:#000000"/>
	</radialGradient>
	<path fill="url(#SVGID_4_)" d="M146.677,113.799c-1.859,7.867-7.373,17.655-23.324,17.655c-25.082,0-24.456-27.367-24.456-27.367
		h43.028h5.604h52.399c0.286-2.786,0.439-5.654,0.439-8.606c0-45.788-35.259-76.124-78.756-76.124
		c-43.493,0-78.754,30.336-78.754,76.124c0,45.793,35.261,71.605,78.754,71.605c37.301,0,68.522-18.998,76.663-53.287H146.677z
		 M122.36,57.068c25.172-0.008,24.174,23.461,24.174,23.461H98.186C98.186,80.529,98.43,57.076,122.36,57.068z"/>
	<defs>
		<filter id="Adobe_OpacityMaskFilter_2_" filterUnits="userSpaceOnUse" x="54.962" y="23.449" width="133.346" height="55.414">
			<feFlood  style="flood-color:white;flood-opacity:1" result="back"/>
			<feBlend  in="SourceGraphic" in2="back" mode="normal"/>
		</filter>
	</defs>
	<mask maskUnits="userSpaceOnUse" x="54.962" y="23.449" width="133.346" height="55.414" id="SVGID_5_">
		<g filter="url(#Adobe_OpacityMaskFilter_2_)">
			<defs>
				<filter id="Adobe_OpacityMaskFilter_3_" filterUnits="userSpaceOnUse" x="54.962" y="23.449" width="133.346" height="55.414">
					<feFlood  style="flood-color:white;flood-opacity:1" result="back"/>
					<feBlend  in="SourceGraphic" in2="back" mode="normal"/>
				</filter>
			</defs>
			<mask maskUnits="userSpaceOnUse" x="54.962" y="23.449" width="133.346" height="55.414" id="SVGID_5_">
				<g filter="url(#Adobe_OpacityMaskFilter_3_)">
				</g>
			</mask>
			<linearGradient id="SVGID_6_" gradientUnits="userSpaceOnUse" x1="121.5654" y1="24.6343" x2="121.6454" y2="76.8201">
				<stop  offset="0" style="stop-color:#FFFFFF"/>
				<stop  offset="0.1786" style="stop-color:#DBDBDB"/>
				<stop  offset="0.7473" style="stop-color:#6C6C6C"/>
				<stop  offset="1" style="stop-color:#404040"/>
			</linearGradient>
			<path mask="url(#SVGID_5_)" fill="url(#SVGID_6_)" d="M121.79,54.58c9.021,0.019,19.283,2.193,25.215,13.504
				c0,0,19.105,3.217,26.58,8.699c7.479,5.481,19.191,0,12.961-14.952c-6.23-14.954-29.378-38.332-66.043-38.382
				C83.688,23.4,60.188,55.101,57.948,59.089c-2.245,3.987-6.481,20.435,2.491,18.691C69.411,76.036,105,59.748,105,59.748
				S111.819,54.561,121.79,54.58z"/>
		</g>
	</mask>
	<linearGradient id="SVGID_7_" gradientUnits="userSpaceOnUse" x1="121.5654" y1="24.6343" x2="121.6454" y2="76.8201">
		<stop  offset="0" style="stop-color:#FFFFFF"/>
		<stop  offset="0.2576" style="stop-color:#C5E1F2"/>
		<stop  offset="0.7715" style="stop-color:#56A7D9"/>
		<stop  offset="1" style="stop-color:#2A90CF"/>
	</linearGradient>
	<path fill="url(#SVGID_7_)" d="M121.79,54.58c9.021,0.019,19.283,2.193,25.215,13.504c0,0,19.105,3.217,26.58,8.699
		c7.479,5.481,19.191,0,12.961-14.952c-6.23-14.954-29.378-38.332-66.043-38.382C83.688,23.4,60.188,55.101,57.948,59.089
		c-2.245,3.987-6.481,20.435,2.491,18.691C69.411,76.036,105,59.748,105,59.748S111.819,54.561,121.79,54.58z"/>
	<linearGradient id="SVGID_8_" gradientUnits="userSpaceOnUse" x1="95.3457" y1="117.8857" x2="200.1729" y2="117.8857">
		<stop  offset="0.0121" style="stop-color:#101333"/>
		<stop  offset="0.5091" style="stop-color:#1E2859"/>
		<stop  offset="1" style="stop-color:#13132E"/>
	</linearGradient>
	<path fill="url(#SVGID_8_)" d="M146.429,104.006h2.732h0.973l49.814,0.081l0.225-2.551h-50.229h-0.782h-53.78
		c0,0-2.171,32.698,27.564,32.698c16.768,0,23.344-9.066,25.826-17.611h48.796c0.266-0.816,0.732-2.824,0.732-2.824h-47.478
		c0-0.001-1.276,0.048-1.276,0.045l-2.844-0.045c-2.078,8.021-7.27,17.641-23.754,17.681c-24.492,0.059-24.047-27.474-24.047-27.474
		h34.435H146.429z"/>
	<path opacity="0.31" fill="#0E4E74" d="M93.707,83.996l57.882,0.372C150.712,56.067,130.7,55.146,130.7,55.146
		c23.6,2.104,22.446,30.654,22.446,30.654l-59.439-0.098V83.996z"/>
	<linearGradient id="SVGID_9_" gradientUnits="userSpaceOnUse" x1="93.6885" y1="69.5967" x2="151.5977" y2="69.5967">
		<stop  offset="0.0909" style="stop-color:#5381AC"/>
		<stop  offset="0.4545" style="stop-color:#ACE0F0"/>
		<stop  offset="1" style="stop-color:#6EB1E1"/>
	</linearGradient>
	<path fill="url(#SVGID_9_)" d="M126.955,54.825c0,0,23.278,0.847,23.26,28.212H95.37c0,0-0.549-8.84,3.875-16.588
		c0,0-4.839,4.778-5.557,17.848l57.9,0.071C151.589,84.368,152.795,55.534,126.955,54.825z"/>
	<defs>
		<filter id="Adobe_OpacityMaskFilter_4_" filterUnits="userSpaceOnUse" x="95.347" y="100.034" width="100.686" height="1.495">
			<feFlood  style="flood-color:white;flood-opacity:1" result="back"/>
			<feBlend  in="SourceGraphic" in2="back" mode="normal"/>
		</filter>
	</defs>
	<mask maskUnits="userSpaceOnUse" x="95.347" y="100.034" width="100.686" height="1.495" id="SVGID_10_">
		<g filter="url(#Adobe_OpacityMaskFilter_4_)">
			<defs>
				<filter id="Adobe_OpacityMaskFilter_5_" filterUnits="userSpaceOnUse" x="95.347" y="100.034" width="100.686" height="1.495">
					<feFlood  style="flood-color:white;flood-opacity:1" result="back"/>
					<feBlend  in="SourceGraphic" in2="back" mode="normal"/>
				</filter>
			</defs>
			<mask maskUnits="userSpaceOnUse" x="95.347" y="100.034" width="100.686" height="1.495" id="SVGID_10_">
				<g filter="url(#Adobe_OpacityMaskFilter_5_)">
				</g>
			</mask>
			<linearGradient id="SVGID_11_" gradientUnits="userSpaceOnUse" x1="95.3467" y1="100.7817" x2="196.0322" y2="100.7817">
				<stop  offset="0.0909" style="stop-color:#FFFFFF"/>
				<stop  offset="0.4545" style="stop-color:#FFFFFF"/>
				<stop  offset="1" style="stop-color:#141414"/>
			</linearGradient>
			<rect x="95.347" y="100.034" mask="url(#SVGID_10_)" fill="url(#SVGID_11_)" width="100.686" height="1.495"/>
		</g>
	</mask>
	<linearGradient id="SVGID_12_" gradientUnits="userSpaceOnUse" x1="95.3467" y1="100.7817" x2="196.0322" y2="100.7817">
		<stop  offset="0.0909" style="stop-color:#53A8AB"/>
		<stop  offset="0.4545" style="stop-color:#ACE0F0"/>
		<stop  offset="1" style="stop-color:#6EB1E1"/>
	</linearGradient>
	<rect x="95.347" y="100.034" fill="url(#SVGID_12_)" width="100.686" height="1.495"/>
	<defs>
		<filter id="Adobe_OpacityMaskFilter_6_" filterUnits="userSpaceOnUse" x="99.714" y="118.206" width="97.011" height="19.293">
			<feFlood  style="flood-color:white;flood-opacity:1" result="back"/>
			<feBlend  in="SourceGraphic" in2="back" mode="normal"/>
		</filter>
	</defs>
	<mask maskUnits="userSpaceOnUse" x="99.714" y="118.206" width="97.011" height="19.293" id="SVGID_13_">
		<g filter="url(#Adobe_OpacityMaskFilter_6_)">
			<defs>
				<filter id="Adobe_OpacityMaskFilter_7_" filterUnits="userSpaceOnUse" x="99.714" y="118.206" width="97.011" height="19.293">
					<feFlood  style="flood-color:white;flood-opacity:1" result="back"/>
					<feBlend  in="SourceGraphic" in2="back" mode="normal"/>
				</filter>
			</defs>
			<mask maskUnits="userSpaceOnUse" x="99.714" y="118.206" width="97.011" height="19.293" id="SVGID_13_">
				<g filter="url(#Adobe_OpacityMaskFilter_7_)">
				</g>
			</mask>
			<linearGradient id="SVGID_14_" gradientUnits="userSpaceOnUse" x1="99.7139" y1="127.8525" x2="196.7246" y2="127.8525">
				<stop  offset="0.0909" style="stop-color:#737373"/>
				<stop  offset="0.4545" style="stop-color:#828282"/>
				<stop  offset="0.6302" style="stop-color:#878787"/>
				<stop  offset="0.8392" style="stop-color:#969696"/>
				<stop  offset="1" style="stop-color:#A6A6A6"/>
			</linearGradient>
			<path mask="url(#SVGID_13_)" fill="url(#SVGID_14_)" d="M99.714,122.59c0,0,5.906,13.955,24.908,13.22
				c21.395-0.825,25.267-17.604,25.267-17.604l46.836,0.009l-0.805,1.621l-44.869-0.052c0,0-4.125,17.715-26.489,17.715
				C104.25,137.499,99.714,122.59,99.714,122.59z"/>
		</g>
	</mask>
	<linearGradient id="SVGID_15_" gradientUnits="userSpaceOnUse" x1="99.7139" y1="127.8525" x2="196.7246" y2="127.8525">
		<stop  offset="0.0909" style="stop-color:#2876AB"/>
		<stop  offset="0.4545" style="stop-color:#4E79BC"/>
		<stop  offset="0.5197" style="stop-color:#4F75B4"/>
		<stop  offset="0.5974" style="stop-color:#506EA5"/>
		<stop  offset="0.6816" style="stop-color:#50618F"/>
		<stop  offset="0.7704" style="stop-color:#4B5072"/>
		<stop  offset="0.8627" style="stop-color:#413A50"/>
		<stop  offset="0.9567" style="stop-color:#31202C"/>
		<stop  offset="1" style="stop-color:#260F19"/>
	</linearGradient>
	<path fill="url(#SVGID_15_)" d="M99.714,122.59c0,0,5.906,13.955,24.908,13.22c21.395-0.825,25.267-17.604,25.267-17.604
		l46.836,0.009l-0.805,1.621l-44.869-0.052c0,0-4.125,17.715-26.489,17.715C104.25,137.499,99.714,122.59,99.714,122.59z"/>
	<defs>
		<filter id="Adobe_OpacityMaskFilter_8_" filterUnits="userSpaceOnUse" x="95.347" y="98.537" width="100.686" height="1.497">
			<feFlood  style="flood-color:white;flood-opacity:1" result="back"/>
			<feBlend  in="SourceGraphic" in2="back" mode="normal"/>
		</filter>
	</defs>
	<mask maskUnits="userSpaceOnUse" x="95.347" y="98.537" width="100.686" height="1.497" id="SVGID_16_">
		<g filter="url(#Adobe_OpacityMaskFilter_8_)">
			<defs>
				<filter id="Adobe_OpacityMaskFilter_9_" filterUnits="userSpaceOnUse" x="95.347" y="98.537" width="100.686" height="1.497">
					<feFlood  style="flood-color:white;flood-opacity:1" result="back"/>
					<feBlend  in="SourceGraphic" in2="back" mode="normal"/>
				</filter>
			</defs>
			<mask maskUnits="userSpaceOnUse" x="95.347" y="98.537" width="100.686" height="1.497" id="SVGID_16_">
				<g filter="url(#Adobe_OpacityMaskFilter_9_)">
				</g>
			</mask>
			<linearGradient id="SVGID_17_" gradientUnits="userSpaceOnUse" x1="95.3467" y1="99.2856" x2="196.0322" y2="99.2856">
				<stop  offset="0" style="stop-color:#575757"/>
				<stop  offset="1" style="stop-color:#8A8A8A"/>
			</linearGradient>
			<rect x="95.347" y="98.537" mask="url(#SVGID_16_)" fill="url(#SVGID_17_)" width="100.686" height="1.497"/>
		</g>
	</mask>
	<linearGradient id="SVGID_18_" gradientUnits="userSpaceOnUse" x1="95.3467" y1="99.2856" x2="196.0322" y2="99.2856">
		<stop  offset="0" style="stop-color:#145478"/>
		<stop  offset="1" style="stop-color:#0E4E74"/>
	</linearGradient>
	<rect x="95.347" y="98.537" opacity="0.31" fill="url(#SVGID_18_)" width="100.686" height="1.497"/>
	<defs>
		<filter id="Adobe_OpacityMaskFilter_10_" filterUnits="userSpaceOnUse" x="95.964" y="110.282" width="99.599" height="25.639">
			<feFlood  style="flood-color:white;flood-opacity:1" result="back"/>
			<feBlend  in="SourceGraphic" in2="back" mode="normal"/>
		</filter>
	</defs>
	<mask maskUnits="userSpaceOnUse" x="95.964" y="110.282" width="99.599" height="25.639" id="SVGID_19_">
		<g filter="url(#Adobe_OpacityMaskFilter_10_)">
			<defs>
				<filter id="Adobe_OpacityMaskFilter_11_" filterUnits="userSpaceOnUse" x="95.964" y="110.282" width="99.599" height="25.639">
					<feFlood  style="flood-color:white;flood-opacity:1" result="back"/>
					<feBlend  in="SourceGraphic" in2="back" mode="normal"/>
				</filter>
			</defs>
			<mask maskUnits="userSpaceOnUse" x="95.964" y="110.282" width="99.599" height="25.639" id="SVGID_19_">
				<g filter="url(#Adobe_OpacityMaskFilter_11_)">
				</g>
			</mask>
			<linearGradient id="SVGID_20_" gradientUnits="userSpaceOnUse" x1="95.9639" y1="123.1016" x2="195.5625" y2="123.1016">
				<stop  offset="0.0909" style="stop-color:#FFFFFF"/>
				<stop  offset="0.4545" style="stop-color:#FFFFFF"/>
				<stop  offset="1" style="stop-color:#000000"/>
			</linearGradient>
			<path mask="url(#SVGID_19_)" fill="url(#SVGID_20_)" d="M95.964,110.282c0,0,1.889,23.952,27.498,23.948
				c21.408-0.003,25.313-17.594,25.313-17.594h46.787l-0.805,1.621l-44.869-0.052c0,0-4.126,17.715-26.489,17.715
				C97.565,135.921,95.964,110.282,95.964,110.282z"/>
		</g>
	</mask>
	<linearGradient id="SVGID_21_" gradientUnits="userSpaceOnUse" x1="95.9639" y1="123.1016" x2="195.5625" y2="123.1016">
		<stop  offset="0.0909" style="stop-color:#53A8AB"/>
		<stop  offset="0.4545" style="stop-color:#ACE0F0"/>
		<stop  offset="1" style="stop-color:#6EB1E1"/>
	</linearGradient>
	<path fill="url(#SVGID_21_)" d="M95.964,110.282c0,0,1.889,23.952,27.498,23.948c21.408-0.003,25.313-17.594,25.313-17.594h46.787
		l-0.805,1.621l-44.869-0.052c0,0-4.126,17.715-26.489,17.715C97.565,135.921,95.964,110.282,95.964,110.282z"/>
	<linearGradient id="SVGID_22_" gradientUnits="userSpaceOnUse" x1="150.7754" y1="68.7651" x2="95.8918" y2="68.9222">
		<stop  offset="0" style="stop-color:#1E2859"/>
		<stop  offset="1" style="stop-color:#13132E"/>
	</linearGradient>
	<path fill="url(#SVGID_22_)" d="M122.37,54.575c-28.828,0.002-27,28.462-27,28.462h54.845
		C150.215,83.037,151.861,54.575,122.37,54.575z M146.56,80.529l-48.236,0.035c0,0,0.183-23.664,24.049-23.515
		C147.696,57.209,146.56,80.529,146.56,80.529z"/>
	<path fill="#FBAD1F" d="M199.454,44.41c0,0,17.096-46.854-25.272-33.894c-42.365,12.959-80.247,59.334-87.725,70.788
		c-7.477,11.454-94.87,136.729,19.919,85.787c0,0-85.215,53.517-68.268-22.497C55.685,65.76,146.769,9.644,174.182,5.531
		C201.597,1.419,215.403,9.518,199.454,44.41z"/>
	<path fill="#FFCA1D" d="M136.027,28.43c0,0-66.793,54.08-87.727,125.607C48.301,154.037,41.571,88.99,136.027,28.43z"/>
	
		<radialGradient id="SVGID_23_" cx="290.7676" cy="223.5342" r="34.1019" gradientTransform="matrix(2.2149 0 0 2.2149 -559.1718 -428.7349)" gradientUnits="userSpaceOnUse">
		<stop  offset="0" style="stop-color:#FFF2C5"/>
		<stop  offset="1" style="stop-color:#EAD664"/>
	</radialGradient>
	<path fill="url(#SVGID_23_)" d="M174.182,5.531c0,0-36.243,5.945-90.889,59.755c0,0-50.03,51.61-46.929,101.8
		c0,0-16.289-36.267,44.75-103.688C124.811,15.132,174.182,5.531,174.182,5.531z"/>
	<defs>
		<filter id="Adobe_OpacityMaskFilter_12_" filterUnits="userSpaceOnUse" x="17.502" y="38.723" width="90.231" height="138.734">
			<feFlood  style="flood-color:white;flood-opacity:1" result="back"/>
			<feBlend  in="SourceGraphic" in2="back" mode="normal"/>
		</filter>
	</defs>
	<mask maskUnits="userSpaceOnUse" x="17.502" y="38.723" width="90.231" height="138.734" id="SVGID_24_">
		<g filter="url(#Adobe_OpacityMaskFilter_12_)">
			<defs>
				<filter id="Adobe_OpacityMaskFilter_13_" filterUnits="userSpaceOnUse" x="17.502" y="38.723" width="90.231" height="138.734">
					<feFlood  style="flood-color:white;flood-opacity:1" result="back"/>
					<feBlend  in="SourceGraphic" in2="back" mode="normal"/>
				</filter>
			</defs>
			<mask maskUnits="userSpaceOnUse" x="17.502" y="38.723" width="90.231" height="138.734" id="SVGID_24_">
				<g filter="url(#Adobe_OpacityMaskFilter_13_)">
				</g>
			</mask>
			<linearGradient id="SVGID_25_" gradientUnits="userSpaceOnUse" x1="25.687" y1="160.1729" x2="91.35" y2="45.1546">
				<stop  offset="0" style="stop-color:#000000"/>
				<stop  offset="0.0029" style="stop-color:#020202"/>
				<stop  offset="0.0846" style="stop-color:#373737"/>
				<stop  offset="0.1693" style="stop-color:#656565"/>
				<stop  offset="0.2595" style="stop-color:#8F8F8F"/>
				<stop  offset="0.3536" style="stop-color:#B1B1B1"/>
				<stop  offset="0.4528" style="stop-color:#CECECE"/>
				<stop  offset="0.5588" style="stop-color:#E4E4E4"/>
				<stop  offset="0.6747" style="stop-color:#F3F3F3"/>
				<stop  offset="0.8084" style="stop-color:#FCFCFC"/>
				<stop  offset="1" style="stop-color:#FFFFFF"/>
			</linearGradient>
			<path mask="url(#SVGID_24_)" fill="url(#SVGID_25_)" d="M107.733,38.723c0,0-71.112,28.331-89.557,104.733
				c-4.729,19.596,16.813,34.097,21.297,34.001C39.474,177.457,8.925,123.102,107.733,38.723z"/>
		</g>
	</mask>
	<linearGradient id="SVGID_26_" gradientUnits="userSpaceOnUse" x1="25.687" y1="160.1729" x2="91.35" y2="45.1546">
		<stop  offset="0" style="stop-color:#FFF2C5"/>
		<stop  offset="0.0274" style="stop-color:#FDF0BE"/>
		<stop  offset="0.1495" style="stop-color:#F6E7A2"/>
		<stop  offset="0.2798" style="stop-color:#F2E18C"/>
		<stop  offset="0.4192" style="stop-color:#EEDC7B"/>
		<stop  offset="0.5719" style="stop-color:#ECD96F"/>
		<stop  offset="0.7477" style="stop-color:#EAD766"/>
		<stop  offset="1" style="stop-color:#EAD664"/>
	</linearGradient>
	<path fill="url(#SVGID_26_)" d="M107.733,38.723c0,0-71.112,28.331-89.557,104.733c-4.729,19.596,16.813,34.097,21.297,34.001
		C39.474,177.457,8.925,123.102,107.733,38.723z"/>
	<path fill="#FFFFFF" d="M98.323,80.564l48.236-0.035c0,0,0.854-22.733-23.129-23.446C98.323,56.336,98.323,80.564,98.323,80.564z"
		/>
</g>
</svg>
