<?xml version="1.0" encoding="utf-8"?>
<!-- Generator: Adobe Illustrator 16.0.0, SVG Export Plug-In . SVG Version: 6.00 Build 0)  -->
<!DOCTYPE svg PUBLIC "-//W3C//DTD SVG 1.1//EN" "http://www.w3.org/Graphics/SVG/1.1/DTD/svg11.dtd">
<svg version="1.1" id="Layer_2" xmlns="http://www.w3.org/2000/svg" xmlns:xlink="http://www.w3.org/1999/xlink" x="0px" y="0px"
	 width="230px" height="190px" viewBox="5.994 25.853 230 190" enable-background="new 5.994 25.853 230 190" xml:space="preserve">
<g id="_x31_">
	
		<radialGradient id="SVGID_1_" cx="706.376" cy="-51.6753" r="78.1638" gradientTransform="matrix(0.8285 0.5599 -0.8281 1.2253 -485.7829 -206.6801)" gradientUnits="userSpaceOnUse">
		<stop  offset="0.1364" style="stop-color:#FFF055"/>
		<stop  offset="0.3239" style="stop-color:#FBE53E"/>
		<stop  offset="0.6177" style="stop-color:#F4CF12"/>
		<stop  offset="1" style="stop-color:#D0AE1A"/>
	</radialGradient>
	<path fill="url(#SVGID_1_)" d="M126.975,213.288c0,0,6.982,1.002,11.999,0.068c0,0,70.149-8.827,80.581-81.454
		c0,0,1.289-7.497,0.314-18.242c0,0-1.676-26.791-18.351-46.675c0,0-0.418-0.142-0.77-0.142c0,0,5.462,9.002,9.509,23.391
		c0,0,0.865,2.661-1.813,3.61c0,0-1.153,0.487-2.513,0.522c0,0,0.832,7.276,1.325,12.767c0,0-14.302-7.953-35.231-11.789
		c0,0-7.814-0.873-8.827-4.255c0,0-1.325,2.44-0.908,4.045c0,0,1.153,1.709,1.709,8.407c0,0,0.28,2.754,0,6.801
		c0,0-2.056,35.062-41.372,35.93c0,0-18.311,14.201-37.356,28.993c0,0-5.721,4.187-1.744,10.186
		C83.529,185.449,101.319,209.029,126.975,213.288z"/>
	<g id="Panels">
		<path id="WPanel_1" opacity="0.6" fill="#FFFFFF" enable-background="new    " d="M145.73,212.008c0,0-7.601-3.346-11.393-15.328
			c0,0,13.605-2.039,20.511-6.644c0,0,6.436,9.941,4.645,17.599c0,0-0.242,0.093-0.47,0.185c0,0,1.736-6.351-4.121-16.946
			c0,0-5.469,4.422-19.781,6.149c0,0,2.565,9.944,11.042,14.883C146.163,211.905,145.92,211.965,145.73,212.008z"/>
		<path id="BPanel_1" opacity="0.2" enable-background="new    " d="M145.354,212.101c0,0-9.734-5.479-12.039-16.202
			c0,0,16.666-2.827,21.351-6.334c0,0,6.121,7.508,5.481,17.813c0,0-0.339,0.135-0.563,0.222c0,0,0.889-8.718-5.048-16.751
			c0,0-6.15,3.375-20.147,5.676c0,0,1.413,8.818,11.551,15.435C145.94,211.958,145.573,212.048,145.354,212.101z"/>
		<path id="WPanel_2" opacity="0.6" fill="#FFFFFF" enable-background="new    " d="M170.866,202.399c0,0,6.455-4.829-4.061-18.693
			c0,0,41.049-17.477,42.197-66.243c0,0,10.214,0,10.214,16.633c0,0-0.059,0.366-0.154,0.917c0,0-0.396-15.771-9.673-16.85
			c0,0,3.066,42.311-41.582,65.858c0,0,9.958,12.087,4.137,17.796C171.944,201.816,171.421,202.103,170.866,202.399z"/>
		<path id="BPanel_2" opacity="0.2" enable-background="new    " d="M170.577,202.554c0,0,5.671-5.296-4.952-18.378
			c0,0,42.489-17.791,42.909-67.604c0,0,9.836-0.891,11.021,15.329c0,0-0.09,0.62-0.238,1.582c0,0-0.265-14.662-9.997-16.179
			c0,0,2.093,44.841-42.75,67.081c0,0,9.289,10.779,4.732,17.782C171.302,202.168,170.973,202.344,170.577,202.554z"/>
	</g>
	<g id="Glare_1_">
		<path opacity="0.4" fill="#FFFFFF" enable-background="new    " d="M215.645,101.136c0,0-3.077-15.443-9.22-26.29
			C206.425,74.846,213.823,85.377,215.645,101.136z"/>
		<path opacity="0.4" fill="#FFFFFF" enable-background="new    " d="M163.313,92.324c0,0,3.487,4.845,15.837,6.449
			c0,0,1.675,0.104,5.059,0.663c0,0,10.639,1.257,27.627,11.686c0,0-13.084-10.011-27.384-12.244
			C184.451,98.878,168.547,96.123,163.313,92.324z"/>
		<path opacity="0.6" fill="#FFFFFF" enable-background="new    " d="M172.026,95.345c0,0-7.813-0.873-8.826-4.256
			c0,0-0.148,0.819,0.215,1.432c0,0,1.899,2.809,2.579,12.906c0,0,0.348,15.141-9.773,25.293c0,0-3.708,5.389-9.959,9.221
			c0,0-8.556,6.108-23.632,6.332c0,0-18.31,14.201-37.355,28.993c0,0-5.721,4.187-1.745,10.186c0,0,17.148,22.731,42.054,27.587
			c0,0-23.039-4.666-41.355-28.674c0,0-1.464-2.182,0.453-4.772c0,0,16.499-13.708,30.417-24.85c0,0,29.652,5.566,48.84-20.179
			c0,0,9.523-11.788,9.455-28.253C173.394,106.308,173.394,98.737,172.026,95.345z"/>
		<defs>
			<filter id="Adobe_OpacityMaskFilter" filterUnits="userSpaceOnUse" x="102.573" y="131.902" width="116.98" height="81.853">
				<feColorMatrix  type="matrix" values="1 0 0 0 0  0 1 0 0 0  0 0 1 0 0  0 0 0 1 0"/>
			</filter>
		</defs>
		<mask maskUnits="userSpaceOnUse" x="102.573" y="131.902" width="116.98" height="81.853" id="SVGID_2_">
			<g filter="url(#Adobe_OpacityMaskFilter)">
				
					<linearGradient id="SVGID_3_" gradientUnits="userSpaceOnUse" x1="379.5137" y1="402.2695" x2="496.4941" y2="402.2695" gradientTransform="matrix(1 0 0 1 -276.9404 -229.4414)">
					<stop  offset="0" style="stop-color:#333333"/>
					<stop  offset="0.3171" style="stop-color:#2C2C2C"/>
					<stop  offset="0.7782" style="stop-color:#191919"/>
					<stop  offset="1" style="stop-color:#0D0D0D"/>
				</linearGradient>
				<path fill="url(#SVGID_3_)" d="M102.573,202.104c0,0,10.808,7.868,23.007,10.931c0,0,0.697,0.166,1.395,0.253
					c0,0,6.982,1.002,11.996,0.068c0,0,70.151-8.827,80.583-81.454C219.555,131.901,187.2,211.611,102.573,202.104z"/>
			</g>
		</mask>
		<path mask="url(#SVGID_2_)" fill="#FFFFFF" d="M102.573,202.104c0,0,10.808,7.868,23.007,10.931c0,0,0.697,0.166,1.395,0.253
			c0,0,6.982,1.002,11.996,0.068c0,0,70.151-8.827,80.583-81.454C219.555,131.901,187.2,211.611,102.573,202.104z"/>
	</g>
	<g id="Shadows">
		<path opacity="0.25" enable-background="new    " d="M163.2,91.089c0,0-1.324,2.439-0.906,4.045c0,0,1.151,1.709,1.708,8.406
			c0,0,0.278,2.755,0,6.802c0,0-0.627,10.666-7.781,20.378c0,0,9.424-8.341,9.771-25.293c0,0-0.487-9.211-2.58-12.908
			C163.414,92.521,163.063,92.031,163.2,91.089z"/>
		<path opacity="0.5" enable-background="new    " d="M204.385,74.011c0,0,3.835,8.512,5.876,16.225c0,0,0.871,2.667-1.814,3.61
			c0,0-1.153,0.486-2.513,0.522c0,0,0.832,7.276,1.325,12.769c0,0,2.584,1.413,5.565,3.682c0,0,2.289-0.282,2.215-3.194
			C215.039,107.624,213.19,88.509,204.385,74.011z"/>
		<path opacity="0.25" enable-background="new    " d="M216.211,104.162c0,0-3.822-24.688-15.459-37.319
			c0,0,1.626,2.621,3.633,7.167c0,0,7.996,11.952,10.657,33.613c0,0,0.242,2.677-2.216,3.193c0,0,2.842,2.151,3.994-1.302
			C216.817,109.515,216.817,107.101,216.211,104.162z"/>
	</g>
</g>
<g id="_x32_">
	
		<radialGradient id="SVGID_4_" cx="-552.2261" cy="-66.9556" r="83.185" gradientTransform="matrix(0.0596 -0.9982 1.7887 0.1068 280.0291 -435.5335)" gradientUnits="userSpaceOnUse">
		<stop  offset="0.4074" style="stop-color:#F7010B"/>
		<stop  offset="0.5215" style="stop-color:#F10109"/>
		<stop  offset="0.6776" style="stop-color:#DF0002"/>
		<stop  offset="0.7212" style="stop-color:#D90000"/>
		<stop  offset="0.8296" style="stop-color:#BE0201"/>
		<stop  offset="0.8716" style="stop-color:#C61D1B"/>
		<stop  offset="0.9613" style="stop-color:#D9615E"/>
		<stop  offset="1" style="stop-color:#E2817D"/>
	</radialGradient>
	<path fill="url(#SVGID_4_)" d="M200.752,66.844c0,0-18.058-35.003-68.567-40.34c0,0-9.211-1.151-22.326-0.035
		c0,0-19.757,1.239-39.92,13.098c0,0-0.838,1.116-0.838,5.373c0,0-0.386,12.506,9.033,29.106c0,0,5.407,7.434,4.394,11.131
		c0,0,1.081,0.697,2.616,0.872c0,0,11.128-16.046,25.604-19.185c0,0,6.871-2.163,16.813-0.28c0,0,9.731,0.804,19.848,8.581
		c0,0,3.734,2.861,7.152,7.57c0,0,2.931,4.188,10.048,4.188c0,0,15.105,0.769,31.258,5.233c0,0,4.432,1.011,6.627,2.127
		c0,0,3.872,1.082,7.05-0.628c0,0,1.569-0.767,0.697-4.011C210.241,89.647,206.881,76.897,200.752,66.844z"/>
	<g id="Glare_3_">
		<path opacity="0.6" fill="#FFFFFF" enable-background="new    " d="M69.938,39.566c0,0-0.838,1.116-0.838,5.373
			c0,0-0.386,12.506,9.033,29.108c0,0,5.407,7.433,4.394,11.129c0,0,10.523-19.553,32.606-22.396c0,0,6.314-0.89,13.028,0
			c0,0,16.796,0.994,29.294,18.156c0,0,0.974,1.91,5.556,2.249c0,0,14.127,0.472,30.189,4.554c0,0,7.548,1.699,13.135,5.022
			c0,0,1.519,0.863,3.742,0.355c0,0,0.835-1.047,0.163-3.472c0,0-3.36-12.75-9.489-22.803c0,0-0.838-1.622-2.653-4.222
			c0,0,5.847,8.811,10.688,26.062c0,0,1.295,3.864-1.56,3.21c0,0-15.415-7.033-39.558-9.512c0,0-11.789-23.629-38.582-25.792
			c0,0-7.324-1.326-14.092,0.139c0,0-20.859,1.814-33.977,20.303c0,0-9.188-14.562-10.674-28.116
			C70.345,48.916,69.717,44.611,69.938,39.566z"/>
		<path opacity="0.2" fill="#FFFFFF" enable-background="new    " d="M75.438,60.776c0,0,1.673-4.186,0-8.372
			c0,0-1.073-3.488-5.094-3.488c0,0,1.806,8.547,4.02,12.418C74.364,61.335,75.438,63.148,75.438,60.776z"/>
		<path opacity="0.2" fill="#FFFFFF" enable-background="new    " d="M87.717,44.611c0,0,0.889-0.527,1.216-1.505
			c0,0,0.632-1.255-0.152-2.459c0,0-0.785-0.784-3.155-0.104c0,0-3.501,0.699-7.763,3.768c0,0-0.908,0.453-1.345,1.778
			c0,0-0.452,0.891-0.001,2.827c0,0,0.805,3.506,4.504,1.116"/>
		<defs>
			<filter id="Adobe_OpacityMaskFilter_1_" filterUnits="userSpaceOnUse" x="69.112" y="28.869" width="110.484" height="26.116">
				<feColorMatrix  type="matrix" values="1 0 0 0 0  0 1 0 0 0  0 0 1 0 0  0 0 0 1 0"/>
			</filter>
		</defs>
		<mask maskUnits="userSpaceOnUse" x="69.112" y="28.869" width="110.484" height="26.116" id="SVGID_5_">
			<g filter="url(#Adobe_OpacityMaskFilter_1_)">
				
					<linearGradient id="SVGID_6_" gradientUnits="userSpaceOnUse" x1="346.0527" y1="271.3682" x2="456.5371" y2="271.3682" gradientTransform="matrix(1 0 0 1 -276.9404 -229.4414)">
					<stop  offset="0" style="stop-color:#333333"/>
					<stop  offset="0.1486" style="stop-color:#252525"/>
					<stop  offset="0.4387" style="stop-color:#111111"/>
					<stop  offset="0.7247" style="stop-color:#040404"/>
					<stop  offset="1" style="stop-color:#000000"/>
				</linearGradient>
				<path fill="url(#SVGID_6_)" d="M69.216,47.484c0,0-0.104-0.818-0.104-1.637c0,0,23.176-15.768,43.229-16.744
					c0,0,8.162-0.664,16.884,0.243c0,0,42.035,4.081,50.371,25.639c0,0-19.566-19.256-49.288-22.57c0,0-8.305-1.01-19.926,0.001
					C110.383,32.417,90.406,34.161,69.216,47.484z"/>
			</g>
		</mask>
		<path mask="url(#SVGID_5_)" fill="#FFFFFF" d="M69.216,47.484c0,0-0.104-0.818-0.104-1.637c0,0,23.176-15.768,43.229-16.744
			c0,0,8.162-0.664,16.884,0.243c0,0,42.035,4.081,50.371,25.639c0,0-19.566-19.256-49.288-22.57c0,0-8.305-1.01-19.926,0.001
			C110.383,32.417,90.406,34.161,69.216,47.484z"/>
	</g>
	<path id="Shadow_1_" opacity="0.25" enable-background="new    " d="M82.529,85.179c0,0,1.08,0.697,2.616,0.873
		c0,0,11.379-15.918,25.603-19.185c0,0,7.403-2.095,16.812-0.281c0,0,9.733,0.804,19.848,8.581c0,0,3.734,2.861,7.152,7.57
		c0,0,2.932,4.188,10.048,4.188c0,0,15.106,0.769,31.258,5.233c0,0,4.432,1.011,6.63,2.128c0,0,4.009,1.082,7.047-0.628
		c0,0,0.31-0.18,0.536-0.538c0,0-1.867,0.555-3.742-0.356c0,0-6.072-3.4-13.134-5.021c0,0-15.279-3.977-30.193-4.553
		c0,0-4.237-0.158-5.553-2.251c0,0-11.034-16.116-29.295-18.156c0,0-4.865-0.89-13.027,0
		C115.134,62.782,95.513,64.038,82.529,85.179z"/>
</g>
<g id="_x33_">
	
		<radialGradient id="SVGID_7_" cx="-67.6426" cy="-814.8335" r="90.2872" fx="-68.447" fy="-814.7446" gradientTransform="matrix(-0.9227 0.3855 -0.5306 -1.2702 -390.2561 -908.9011)" gradientUnits="userSpaceOnUse">
		<stop  offset="0.1469" style="stop-color:#91DD96"/>
		<stop  offset="0.2413" style="stop-color:#8DDC92"/>
		<stop  offset="0.3283" style="stop-color:#83D887"/>
		<stop  offset="0.4125" style="stop-color:#71D274"/>
		<stop  offset="0.4949" style="stop-color:#57CA5A"/>
		<stop  offset="0.576" style="stop-color:#36BF38"/>
		<stop  offset="0.6551" style="stop-color:#0FB20F"/>
		<stop  offset="0.6813" style="stop-color:#00AD00"/>
		<stop  offset="0.7878" style="stop-color:#009D03"/>
		<stop  offset="1" style="stop-color:#008008"/>
	</radialGradient>
	<path fill="url(#SVGID_7_)" d="M69.224,47.488c-2.564-1.046-4.356-0.245-4.356-0.245c-2.756,0.976-3.401,4.604-3.401,4.604
		c-0.747,3.559,0.997,10.604,0.997,10.604c2.511,9.42,6,13.188,6,13.188c9.087,12.104,12.558,20.859,12.558,20.859
		c-0.733,6.75,1.168,17.25,1.168,17.25c5.041,22.799,25.971,28.311,25.971,28.311c0.141,2.023-0.123,3.295-0.123,3.295
		c-30.926,22.236-32.861,28.936-33.279,29.613c-1.344,3.437,0,6.156,0,6.156c10.461,14.931,23.202,22.871,23.202,22.871
		c4.094,2.003,9.704,2.211,9.704,2.211c10.28,5.932,19.312,7.083,19.312,7.083c-1.326,1.15-4.919,1.395-4.919,1.395
		c-3.313,1.954-14.583,0.558-14.583,0.558c-80.16-13.678-85.252-85.71-85.252-85.71c-1.047-9.001,0-18.032,0-18.032
		c3.14-39.56,34.221-62.213,34.221-62.213c4.268-3.56,8.097-4.396,8.097-4.396c3.138-0.681,4.564,0.053,4.564,0.053L69.224,47.488z"
		/>
	<g id="Shadows_1_">
		<path opacity="0.25" enable-background="new    " d="M71.831,80.33c0,0-1.896-2.811-3.37-4.692c0,0-3.63-4.03-6-13.188
			c0,0-1.743-7.048-0.996-10.604c0,0,0.648-3.628,3.4-4.604c0,0,1.793-0.801,4.357,0.245l-0.122-2.546c0,0-1.845-0.89-4.564,0.261
			c0,0-3.709,1.549-4.709,6.226c0,0-0.681,2.616,0,5.598C59.827,57.027,62.391,72.567,71.831,80.33z"/>
		<path opacity="0.25" enable-background="new    " d="M108.034,145.351c0,0,0.262-1.271,0.123-3.293
			c0,0-20.931-5.513-25.972-28.312c0,0-1.9-10.5-1.167-17.251c0,0-0.802-1.863-2.2-4.617c0,0-2.475,11.944,0.525,22.407
			C79.345,114.288,83.739,135.565,108.034,145.351z"/>
		<path opacity="0.25" enable-background="new    " d="M108.034,145.351c-30.924,22.237-32.859,28.937-33.277,29.616
			c-1.344,3.436,0,6.153,0,6.153c10.461,14.932,23.202,22.873,23.202,22.873c5.979,4.583,13.317,6.632,13.317,6.632
			c6.613,1.926,11.258,1.719,11.258,1.719c1.307,0.361,2.425,0.576,2.425,0.576s-11.367,3.671-28.373-6.744
			c0,0-13.84-7.61-25.483-25.768c0,0-1.909-2.615,0-5.126C71.103,175.28,77.093,164.869,108.034,145.351z"/>
		<path opacity="0.5" enable-background="new    " d="M122.534,212.344c0,0-7.034-1.638-14.871-6.139c0,0-5.61-0.212-9.704-2.213
			C97.959,203.992,108.41,212.344,122.534,212.344z"/>
	</g>
	<g id="Glare_2_">
		<path opacity="0.6" fill="#FFFFFF" enable-background="new    " d="M112.275,212.729c0,0-21.629-2.931-40.675-30.628
			c0,0-3.209-1.327,4.954,7.813C76.554,189.913,95.531,211.399,112.275,212.729z"/>
		<path opacity="0.5" fill="#FFFFFF" enable-background="new    " d="M115.543,213.29c0,0,4.001,1.6,6.512,1.392
			c0,0,4.36-0.483,4.92-1.396c0,0-0.909-0.122-2.018-0.365C124.959,212.92,121.259,214.054,115.543,213.29z"/>
		<path opacity="0.6" fill="#FFFFFF" enable-background="new    " d="M65.572,44.703c0,0,0.736-0.123,1.632-0.091
			c-1.328-0.025-2.666,0.589-2.666,0.589c-4.05,1.987-4.711,6.226-4.711,6.226c-0.334,1.399-0.302,2.826-0.302,2.826
			c0,1.582,0.302,2.772,0.302,2.772c3.374,17.216,12.004,23.304,12.004,23.304s-12.021-9.56-13.169-26.467
			c0,0-0.162-2.304,0.275-3.586C58.938,50.276,60.697,45.403,65.572,44.703z"/>
		<path opacity="0.6" fill="#FFFFFF" enable-background="new    " d="M84.349,125.78c0,0,6.898,12.924,23.687,19.57
			c0,0-4.06,2.656-7.002,4.54c0,0-24.619-9.195-29.066-37.765c0,0-0.942-5.442,0-12.925c0,0,0.731-6.541,3.666-12.979
			c0,0,1.715,2.937,3.187,5.659c0,0-0.601,3.228-0.788,6.145c0,0-0.257,2.354-0.113,6.722
			C77.919,104.747,77.696,115.395,84.349,125.78z"/>
		<path opacity="0.2" fill="#FFFFFF" enable-background="new    " d="M58.102,57.463c0,0-3.28,0.349-8.338,8.301
			c0,0-2.269,4.222-0.943,9.802c0,0,0.141,2.895,4.222,3.14c0,0,0.523,0,0.977-0.732c0,0,1.465-1.953,4.709-2.722
			c0,0,1.256-0.383,2.582-0.07c0,0,0.852,0.314,0.837,1.047c0,0-0.174,1.045,2.337,1.779c0,0,0.839,0.313,2.128,0.453
			c0,0,1.639-0.104-0.733-2.407c0,0-7.534-7.046-7.534-15.661C58.345,60.393,58.728,57.463,58.102,57.463z"/>
		<defs>
			<filter id="Adobe_OpacityMaskFilter_2_" filterUnits="userSpaceOnUse" x="28.091" y="53.363" width="42.907" height="139.044">
				<feColorMatrix  type="matrix" values="1 0 0 0 0  0 1 0 0 0  0 0 1 0 0  0 0 0 1 0"/>
			</filter>
		</defs>
		<mask maskUnits="userSpaceOnUse" x="28.091" y="53.363" width="42.907" height="139.044" id="SVGID_8_">
			<g filter="url(#Adobe_OpacityMaskFilter_2_)">
				
					<linearGradient id="SVGID_9_" gradientUnits="userSpaceOnUse" x1="305.0313" y1="352.3262" x2="347.9385" y2="352.3262" gradientTransform="matrix(1 0 0 1 -276.9404 -229.4414)">
					<stop  offset="0" style="stop-color:#333333"/>
					<stop  offset="1" style="stop-color:#0D0D0D"/>
				</linearGradient>
				<path fill="url(#SVGID_9_)" d="M57.421,53.363c0,0-21.193,16.9-27.681,49.291c0,0-2.982,15.277-0.927,27.992
					c0,0,4.59,37.778,37.555,61.01c0,0,2.442,1.644,4.022,0.067c0,0,1.419-1.687-0.081-3.309c0,0-2.216-2.67-10.919-8.824
					c0,0-24.523-19.589-28.082-55.399c0,0-0.994-10.915,0.42-19.862C31.729,104.326,34.449,75.811,57.421,53.363z"/>
			</g>
		</mask>
		<path mask="url(#SVGID_8_)" fill="#FFFFFF" d="M57.421,53.363c0,0-21.193,16.9-27.681,49.291c0,0-2.982,15.277-0.927,27.992
			c0,0,4.59,37.778,37.555,61.01c0,0,2.442,1.644,4.022,0.067c0,0,1.419-1.687-0.081-3.309c0,0-2.216-2.67-10.919-8.824
			c0,0-24.523-19.589-28.082-55.399c0,0-0.994-10.915,0.42-19.862C31.729,104.326,34.449,75.811,57.421,53.363z"/>
		<defs>
			<filter id="Adobe_OpacityMaskFilter_3_" filterUnits="userSpaceOnUse" x="22.005" y="46.93" width="37.776" height="111.084">
				<feColorMatrix  type="matrix" values="1 0 0 0 0  0 1 0 0 0  0 0 1 0 0  0 0 0 1 0"/>
			</filter>
		</defs>
		<mask maskUnits="userSpaceOnUse" x="22.005" y="46.93" width="37.776" height="111.084" id="SVGID_10_">
			<g filter="url(#Adobe_OpacityMaskFilter_3_)">
				
					<linearGradient id="SVGID_11_" gradientUnits="userSpaceOnUse" x1="298.9453" y1="331.9131" x2="336.7217" y2="331.9131" gradientTransform="matrix(1 0 0 1 -276.9404 -229.4414)">
					<stop  offset="0" style="stop-color:#1A1A1A"/>
					<stop  offset="1" style="stop-color:#333333"/>
				</linearGradient>
				<path fill="url(#SVGID_11_)" d="M24.158,126.724c0,0-2.154-13.186,2.825-29.093c0,0,6.907-26.269,25.326-43.012
					c0,0,3.547-2.835,7.472-7.689c0,0-22.263,12.676-34.68,50.28c0,0-4.709,10.989-2.513,29.616c0,0,1.046,16.641,8.633,31.188
					C31.224,158.014,26.629,146.866,24.158,126.724z"/>
			</g>
		</mask>
		<path mask="url(#SVGID_10_)" fill="#FFFFFF" d="M24.158,126.724c0,0-2.154-13.186,2.825-29.093c0,0,6.907-26.269,25.326-43.012
			c0,0,3.547-2.835,7.472-7.689c0,0-22.263,12.676-34.68,50.28c0,0-4.709,10.989-2.513,29.616c0,0,1.046,16.641,8.633,31.188
			C31.224,158.014,26.629,146.866,24.158,126.724z"/>
		<defs>
			<filter id="Adobe_OpacityMaskFilter_4_" filterUnits="userSpaceOnUse" x="29.626" y="156.904" width="97.349" height="58.818">
				<feColorMatrix  type="matrix" values="1 0 0 0 0  0 1 0 0 0  0 0 1 0 0  0 0 0 1 0"/>
			</filter>
		</defs>
		<mask maskUnits="userSpaceOnUse" x="29.626" y="156.904" width="97.349" height="58.818" id="SVGID_12_">
			<g filter="url(#Adobe_OpacityMaskFilter_4_)">
				
					<linearGradient id="SVGID_13_" gradientUnits="userSpaceOnUse" x1="306.5664" y1="415.7539" x2="403.915" y2="415.7539" gradientTransform="matrix(1 0 0 1 -276.9404 -229.4414)">
					<stop  offset="0" style="stop-color:#0D0D0D"/>
					<stop  offset="0.0509" style="stop-color:#111111"/>
					<stop  offset="0.3566" style="stop-color:#242424"/>
					<stop  offset="0.6698" style="stop-color:#2F2F2F"/>
					<stop  offset="1" style="stop-color:#333333"/>
				</linearGradient>
				<path fill="url(#SVGID_13_)" d="M29.626,156.904c0,0,8.354,21.569,27.464,36.665c0,0,18.617,16.744,50.383,21.671
					c0,0,11.271,1.394,14.583-0.558c0,0,3.594-0.246,4.919-1.395c0,0-0.864-0.139-2.016-0.365c0,0-11.428,3.921-28.374-6.744
					c0,0-6.148-3.496-12.364-9.695C84.221,196.481,56.087,192.104,29.626,156.904z"/>
			</g>
		</mask>
		<path mask="url(#SVGID_12_)" fill="#FFFFFF" d="M29.626,156.904c0,0,8.354,21.569,27.464,36.665c0,0,18.617,16.744,50.383,21.671
			c0,0,11.271,1.394,14.583-0.558c0,0,3.594-0.246,4.919-1.395c0,0-0.864-0.139-2.016-0.365c0,0-11.428,3.921-28.374-6.744
			c0,0-6.148-3.496-12.364-9.695C84.221,196.481,56.087,192.104,29.626,156.904z"/>
	</g>
</g>
<g id="Ball">
	
		<radialGradient id="Spare_1_" cx="400.3438" cy="313.8994" r="58.2938" fx="412.9367" fy="313.629" gradientTransform="matrix(1 0 0 1 -276.9404 -229.4414)" gradientUnits="userSpaceOnUse">
		<stop  offset="0" style="stop-color:#B0DDF3"/>
		<stop  offset="0.081" style="stop-color:#95CAEF"/>
		<stop  offset="0.2371" style="stop-color:#68A9E9"/>
		<stop  offset="0.3941" style="stop-color:#438EE4"/>
		<stop  offset="0.5497" style="stop-color:#2579E0"/>
		<stop  offset="0.7035" style="stop-color:#116ADD"/>
		<stop  offset="0.8546" style="stop-color:#0461DC"/>
		<stop  offset="1" style="stop-color:#005EDB"/>
	</radialGradient>
	<path id="Spare" fill="url(#Spare_1_)" d="M92.923,129.037c0,0,10.149,12.596,29.37,12.575c0,0,14.269,0.925,26.865-10.298
		c0,0,11.264-8.869,11.264-25.107c0,0,1.098-12.069-9.523-23.424c0,0-10.466-11.957-28.916-11.948c0,0-15.09-0.766-28.065,11.478
		c0,0-10.074,9.104-10.063,24.191C83.854,106.506,83.137,118.628,92.923,129.037z"/>
	<g id="Glare">
		<defs>
			<filter id="Adobe_OpacityMaskFilter_5_" filterUnits="userSpaceOnUse" x="94.623" y="80.765" width="13.813" height="32.19">
				<feColorMatrix  type="matrix" values="1 0 0 0 0  0 1 0 0 0  0 0 1 0 0  0 0 0 1 0"/>
			</filter>
		</defs>
		<mask maskUnits="userSpaceOnUse" x="94.623" y="80.765" width="13.813" height="32.19" id="SVGID_14_">
			<g filter="url(#Adobe_OpacityMaskFilter_5_)">
				
					<linearGradient id="SVGID_15_" gradientUnits="userSpaceOnUse" x1="375.9941" y1="328.9629" x2="381.8368" y2="316.4458" gradientTransform="matrix(1 0 0 1 -276.9404 -229.4414)">
					<stop  offset="0" style="stop-color:#0F0F0F"/>
					<stop  offset="0.2279" style="stop-color:#2A2A2A"/>
					<stop  offset="0.5418" style="stop-color:#484848"/>
					<stop  offset="0.8103" style="stop-color:#5A5A5A"/>
					<stop  offset="1" style="stop-color:#616161"/>
				</linearGradient>
				<path fill="url(#SVGID_15_)" d="M108.437,80.765c0,0-12.35,1.92-13.813,22.744c0,0-0.034,7.951,2.86,9.419
					c0,0,1.604,0.487,1.43-2.652c0,0-0.453-4.395,0.383-11.896C99.297,98.379,100.171,87.218,108.437,80.765z"/>
			</g>
		</mask>
		<path mask="url(#SVGID_14_)" fill="#FFFFFF" d="M108.437,80.765c0,0-12.35,1.92-13.813,22.744c0,0-0.034,7.951,2.86,9.419
			c0,0,1.604,0.487,1.43-2.652c0,0-0.453-4.395,0.383-11.896C99.297,98.379,100.171,87.218,108.437,80.765z"/>
		<defs>
			<filter id="Adobe_OpacityMaskFilter_6_" filterUnits="userSpaceOnUse" x="105.099" y="77.598" width="18.904" height="9.568">
				<feColorMatrix  type="matrix" values="1 0 0 0 0  0 1 0 0 0  0 0 1 0 0  0 0 0 1 0"/>
			</filter>
		</defs>
		<mask maskUnits="userSpaceOnUse" x="105.099" y="77.598" width="18.904" height="9.568" id="SVGID_16_">
			<g filter="url(#Adobe_OpacityMaskFilter_6_)">
				
					<linearGradient id="SVGID_17_" gradientUnits="userSpaceOnUse" x1="382.8115" y1="314.167" x2="399.9886" y2="306.2713" gradientTransform="matrix(1 0 0 1 -276.9404 -229.4414)">
					<stop  offset="0" style="stop-color:#616161"/>
					<stop  offset="0.1776" style="stop-color:#424242"/>
					<stop  offset="0.3877" style="stop-color:#252525"/>
					<stop  offset="0.5968" style="stop-color:#111111"/>
					<stop  offset="0.8023" style="stop-color:#040404"/>
					<stop  offset="1" style="stop-color:#000000"/>
				</linearGradient>
				<path fill="url(#SVGID_17_)" d="M124.003,77.722c0,0-7.665-0.812-12.427,1.726c0,0-3.898,2.171-6.306,5.914
					c0,0-0.863,2.249,1.283,1.727c0,0,3.349-3.063,7.168-5.39C113.72,81.698,117.935,79.106,124.003,77.722z"/>
			</g>
		</mask>
		<path mask="url(#SVGID_16_)" fill="#FFFFFF" d="M124.003,77.722c0,0-7.665-0.812-12.427,1.726c0,0-3.898,2.171-6.306,5.914
			c0,0-0.863,2.249,1.283,1.727c0,0,3.349-3.063,7.168-5.39C113.72,81.698,117.935,79.106,124.003,77.722z"/>
		<defs>
			<filter id="Adobe_OpacityMaskFilter_7_" filterUnits="userSpaceOnUse" x="90.646" y="70.885" width="68.126" height="27.95">
				<feColorMatrix  type="matrix" values="1 0 0 0 0  0 1 0 0 0  0 0 1 0 0  0 0 0 1 0"/>
			</filter>
		</defs>
		<mask maskUnits="userSpaceOnUse" x="90.646" y="70.885" width="68.126" height="27.95" id="SVGID_18_">
			<g filter="url(#Adobe_OpacityMaskFilter_7_)">
				
					<linearGradient id="SVGID_19_" gradientUnits="userSpaceOnUse" x1="367.5859" y1="314.3008" x2="435.7119" y2="314.3008" gradientTransform="matrix(1 0 0 1 -276.9404 -229.4414)">
					<stop  offset="0" style="stop-color:#474747"/>
					<stop  offset="0.0398" style="stop-color:#505050"/>
					<stop  offset="0.2287" style="stop-color:#757575"/>
					<stop  offset="0.3817" style="stop-color:#8C8C8C"/>
					<stop  offset="0.4785" style="stop-color:#949494"/>
					<stop  offset="1" style="stop-color:#262626"/>
				</linearGradient>
				<path fill="url(#SVGID_19_)" d="M158.771,98.835c0,0-5.23-25.534-34.063-27.837c0,0-20.668-2.513-34.063,16.169
					c0,0,11.65-14.041,32.163-14.634C122.809,72.533,150.156,71.312,158.771,98.835z"/>
			</g>
		</mask>
		<path mask="url(#SVGID_18_)" fill="#FFFFFF" d="M158.771,98.835c0,0-5.23-25.534-34.063-27.837c0,0-20.668-2.513-34.063,16.169
			c0,0,11.65-14.041,32.163-14.634C122.809,72.533,150.156,71.312,158.771,98.835z"/>
	</g>
	<defs>
		<filter id="Adobe_OpacityMaskFilter_8_" filterUnits="userSpaceOnUse" x="83.842" y="70.825" width="76.612" height="70.806">
			<feColorMatrix  type="matrix" values="1 0 0 0 0  0 1 0 0 0  0 0 1 0 0  0 0 0 1 0"/>
		</filter>
	</defs>
	<mask maskUnits="userSpaceOnUse" x="83.842" y="70.825" width="76.612" height="70.806" id="Shadow_2_">
		<g filter="url(#Adobe_OpacityMaskFilter_8_)">
			
				<radialGradient id="SVGID_20_" cx="669.8213" cy="-717.0527" r="46.2395" fx="674.8799" fy="-716.9893" gradientTransform="matrix(-0.0043 1 -0.8757 -0.0037 -501.4298 -582.9864)" gradientUnits="userSpaceOnUse">
				<stop  offset="0.6542" style="stop-color:#000000"/>
				<stop  offset="0.6986" style="stop-color:#040404"/>
				<stop  offset="0.7403" style="stop-color:#0F0F0F"/>
				<stop  offset="0.7809" style="stop-color:#222222"/>
				<stop  offset="0.821" style="stop-color:#3D3D3D"/>
				<stop  offset="0.8606" style="stop-color:#5F5F5F"/>
				<stop  offset="0.8998" style="stop-color:#8A8A8A"/>
				<stop  offset="0.9388" style="stop-color:#BCBCBC"/>
				<stop  offset="0.9766" style="stop-color:#F4F4F4"/>
				<stop  offset="0.9832" style="stop-color:#FFFFFF"/>
			</radialGradient>
			<path fill="url(#SVGID_20_)" d="M92.923,129.037c0,0,10.149,12.596,29.37,12.575c0,0,14.269,0.925,26.865-10.298
				c0,0,11.264-8.869,11.264-25.107c0,0,1.098-12.069-9.523-23.424c0,0-10.466-11.957-28.916-11.948c0,0-15.09-0.766-28.065,11.478
				c0,0-10.074,9.104-10.063,24.191C83.854,106.506,83.137,118.628,92.923,129.037z"/>
		</g>
	</mask>
	
		<radialGradient id="Shadow_3_" cx="673.3955" cy="-724.1685" r="47.8942" fx="679.3172" fy="-724.1487" gradientTransform="matrix(0.0052 1 -0.8499 0.0044 -495.3564 -582.1855)" gradientUnits="userSpaceOnUse">
		<stop  offset="0.6542" style="stop-color:#FFFFFF"/>
		<stop  offset="0.6986" style="stop-color:#FBFBFB"/>
		<stop  offset="0.7403" style="stop-color:#F0F0F0"/>
		<stop  offset="0.7809" style="stop-color:#DDDDDD"/>
		<stop  offset="0.821" style="stop-color:#C2C2C2"/>
		<stop  offset="0.8606" style="stop-color:#A0A0A0"/>
		<stop  offset="0.8998" style="stop-color:#757575"/>
		<stop  offset="0.9388" style="stop-color:#434343"/>
		<stop  offset="0.9766" style="stop-color:#0B0B0B"/>
		<stop  offset="0.9832" style="stop-color:#000000"/>
	</radialGradient>
	<path id="Shadow" mask="url(#Shadow_2_)" fill="url(#Shadow_3_)" d="M92.923,129.037c0,0,10.149,12.596,29.37,12.575
		c0,0,14.269,0.925,26.865-10.298c0,0,11.264-8.869,11.264-25.107c0,0,1.098-12.069-9.523-23.424c0,0-10.466-11.957-28.916-11.948
		c0,0-15.09-0.766-28.065,11.478c0,0-10.074,9.104-10.063,24.191C83.854,106.506,83.137,118.628,92.923,129.037z"/>
	<g id="Chrome_Shiny_Thingy">
		<g>
			<defs>
				<filter id="Adobe_OpacityMaskFilter_9_" filterUnits="userSpaceOnUse" x="88.347" y="95.67" width="41.228" height="41.386">
					<feColorMatrix  type="matrix" values="1 0 0 0 0  0 1 0 0 0  0 0 1 0 0  0 0 0 1 0"/>
				</filter>
			</defs>
			<mask maskUnits="userSpaceOnUse" x="88.347" y="95.67" width="41.228" height="41.386" id="SVGID_21_">
				<g filter="url(#Adobe_OpacityMaskFilter_9_)">
					
						<radialGradient id="SVGID_22_" cx="381.7178" cy="357.2617" r="22.1305" gradientTransform="matrix(1 0 0 1 -276.9404 -229.4414)" gradientUnits="userSpaceOnUse">
						<stop  offset="0" style="stop-color:#2E2E2E"/>
						<stop  offset="0.1111" style="stop-color:#393939"/>
						<stop  offset="0.4727" style="stop-color:#575757"/>
						<stop  offset="0.7817" style="stop-color:#6A6A6A"/>
						<stop  offset="1" style="stop-color:#707070"/>
					</radialGradient>
					<path fill="url(#SVGID_22_)" d="M89.441,95.67c0,0-2.459,15.801,4.71,20.535c0,0,6.906,22.239,35.424,11.643
						c0,0-4.604,4.736-5.337,8.817c0,0-14.547,2.354-24.802-4.5C99.437,132.165,84.21,121.856,89.441,95.67z"/>
				</g>
			</mask>
			
				<linearGradient id="SVGID_23_" gradientUnits="userSpaceOnUse" x1="366.043" y1="336.707" x2="392.7874" y2="360.705" gradientTransform="matrix(1 0 0 1 -276.9404 -229.4414)">
				<stop  offset="0" style="stop-color:#FFFFFF"/>
				<stop  offset="0.4133" style="stop-color:#989898"/>
				<stop  offset="1" style="stop-color:#000000"/>
			</linearGradient>
			<path mask="url(#SVGID_21_)" fill="url(#SVGID_23_)" d="M89.441,95.67c0,0-2.459,15.801,4.71,20.535
				c0,0,6.906,22.239,35.424,11.643c0,0-4.604,4.736-5.337,8.817c0,0-14.547,2.354-24.802-4.5
				C99.437,132.165,84.21,121.856,89.441,95.67z"/>
			<path opacity="0.15" fill="#FFFFFF" enable-background="new    " d="M91.913,114.495c0,0,1.088,1.305,2.239,1.71
				c0,0,6.906,22.239,35.423,11.643c0,0-1.098,1.129-2.306,2.759C127.268,130.606,99.228,140.938,91.913,114.495z"/>
			<path opacity="0.4" fill="#FFFFFF" enable-background="new    " d="M89.441,95.67c0,0-2.459,15.801,4.71,20.535
				C94.152,116.205,86.67,113.903,89.441,95.67z"/>
		</g>
		<g>
			<defs>
				<filter id="Adobe_OpacityMaskFilter_10_" filterUnits="userSpaceOnUse" x="134.448" y="86.172" width="23.008" height="49.277">
					<feColorMatrix  type="matrix" values="1 0 0 0 0  0 1 0 0 0  0 0 1 0 0  0 0 0 1 0"/>
				</filter>
			</defs>
			<mask maskUnits="userSpaceOnUse" x="134.448" y="86.172" width="23.008" height="49.277" id="SVGID_24_">
				<g filter="url(#Adobe_OpacityMaskFilter_10_)">
					
						<linearGradient id="SVGID_25_" gradientUnits="userSpaceOnUse" x1="422.9541" y1="351.2393" x2="419.7461" y2="315.2041" gradientTransform="matrix(1 0 0 1 -276.9404 -229.4414)">
						<stop  offset="0" style="stop-color:#666666"/>
						<stop  offset="0.17" style="stop-color:#767676"/>
						<stop  offset="0.4395" style="stop-color:#8A8A8A"/>
						<stop  offset="0.7143" style="stop-color:#959595"/>
						<stop  offset="1" style="stop-color:#999999"/>
					</linearGradient>
					<path fill="url(#SVGID_25_)" d="M145.428,86.172c0,0,14.706,18.836-4.522,35.999c0,0-5.47,3.245-6.457,13.278
						C134.448,135.449,177.854,115.054,145.428,86.172z"/>
				</g>
			</mask>
			
				<linearGradient id="SVGID_26_" gradientUnits="userSpaceOnUse" x1="424.4619" y1="353.1904" x2="411.7855" y2="320.4024" gradientTransform="matrix(1 0 0 1 -276.9404 -229.4414)">
				<stop  offset="0.1655" style="stop-color:#000000"/>
				<stop  offset="0.2644" style="stop-color:#040404"/>
				<stop  offset="0.3684" style="stop-color:#111111"/>
				<stop  offset="0.4749" style="stop-color:#262626"/>
				<stop  offset="0.583" style="stop-color:#434343"/>
				<stop  offset="0.6925" style="stop-color:#6A6A6A"/>
				<stop  offset="0.803" style="stop-color:#989898"/>
				<stop  offset="0.9123" style="stop-color:#CECECE"/>
				<stop  offset="1" style="stop-color:#FFFFFF"/>
			</linearGradient>
			<path mask="url(#SVGID_24_)" fill="url(#SVGID_26_)" d="M145.428,86.172c0,0,14.706,18.836-4.522,35.999
				c0,0-5.47,3.245-6.457,13.278C134.448,135.449,177.854,115.054,145.428,86.172z"/>
			<path opacity="0.15" fill="#FFFFFF" enable-background="new    " d="M152.203,93.445c0,0-2.482-3.481-6.775-7.273
				c0,0,17.269,18.914-5.203,37.203C140.223,123.375,158.912,121.09,152.203,93.445z"/>
			<path opacity="0.4" fill="#FFFFFF" enable-background="new    " d="M145.428,86.172c0,0,14.706,18.836-4.522,35.999
				C140.905,122.171,161.391,107.415,145.428,86.172z"/>
		</g>
		<g>
			<defs>
				<filter id="Adobe_OpacityMaskFilter_11_" filterUnits="userSpaceOnUse" x="92.391" y="71.431" width="51.485" height="15.16">
					<feColorMatrix  type="matrix" values="1 0 0 0 0  0 1 0 0 0  0 0 1 0 0  0 0 0 1 0"/>
				</filter>
			</defs>
			<mask maskUnits="userSpaceOnUse" x="92.391" y="71.431" width="51.485" height="15.16" id="SVGID_27_">
				<g filter="url(#Adobe_OpacityMaskFilter_11_)">
					
						<radialGradient id="SVGID_28_" cx="395.7021" cy="302.7988" r="18.5559" gradientTransform="matrix(1 0 0 1 -276.9404 -229.4414)" gradientUnits="userSpaceOnUse">
						<stop  offset="0.1593" style="stop-color:#1A1A1A"/>
						<stop  offset="0.2447" style="stop-color:#2B2B2B"/>
						<stop  offset="0.4794" style="stop-color:#555555"/>
						<stop  offset="0.6917" style="stop-color:#737373"/>
						<stop  offset="0.8724" style="stop-color:#868686"/>
						<stop  offset="1" style="stop-color:#8C8C8C"/>
					</radialGradient>
					<path fill="url(#SVGID_28_)" d="M143.876,77.242c0,0-2.895-0.419-6.487,1.325c0,0-3.419,0.803-5.125-0.244
						c0,0-12.873-7.498-28.222,1.85c0,0-7.917,3.209-11.651,6.418C92.391,86.59,111.925,60.009,143.876,77.242z"/>
				</g>
			</mask>
			<path mask="url(#SVGID_27_)" d="M143.876,77.242c0,0-2.895-0.419-6.487,1.325c0,0-3.419,0.803-5.125-0.244
				c0,0-12.873-7.498-28.222,1.85c0,0-7.917,3.209-11.651,6.418C92.391,86.59,111.925,60.009,143.876,77.242z"/>
			<path opacity="0.4" fill="#FFFFFF" enable-background="new    " d="M132.264,78.321c0,0-12.873-7.499-28.222,1.851
				C104.041,80.172,117.122,70.16,132.264,78.321z"/>
		</g>
	</g>
</g>
</svg>
