<?xml version="1.0" encoding="utf-8"?>
<!-- Generator: Adobe Illustrator 16.0.0, SVG Export Plug-In . SVG Version: 6.00 Build 0)  -->
<!DOCTYPE svg PUBLIC "-//W3C//DTD SVG 1.1//EN" "http://www.w3.org/Graphics/SVG/1.1/DTD/svg11.dtd">
<svg version="1.1" id="Layer_2" xmlns="http://www.w3.org/2000/svg" xmlns:xlink="http://www.w3.org/1999/xlink" x="0px" y="0px"
	 width="230px" height="190px" viewBox="10 30 230 190" enable-background="new 10 30 230 190" xml:space="preserve">
<g id="Background">
	<g>
		
			<image overflow="visible" opacity="0.5" enable-background="new    " width="261" height="251" xlink:href="EDA62505.png"  transform="matrix(0.757 0 0 0.757 26.2144 29.4995)">
		</image>
		<g>
			<path fill="#4D4A49" d="M64.369,58.072c0,0-27.264,19.873-30.018,54.573c0,0-0.918,7.924,0,15.819
				c0,0,4.467,63.186,74.783,75.184c0,0,9.885,1.223,12.791-0.489c0,0,3.152-0.215,4.315-1.224c0,0,6.182,1.009,10.524,0.061
				c0,0,61.536-7.743,70.686-71.451c0,0,1.132-6.577,0.275-16.002c0,0-1.47-23.501-16.096-40.943c0,0-0.367-0.124-0.675-0.124
				c0,0-15.851-30.719-60.157-35.4c0,0-8.08-1.01-19.584-0.031c0,0-17.319,1.102-35.006,11.505c0,0-0.735,0.979-0.735,4.712
				c0,0-1.365-0.643-4.004-0.046C71.471,54.216,68.211,54.904,64.369,58.072z"/>
		</g>
	</g>
	<g id="Shadows_2_">
		<path opacity="0.3" fill="#FFFFFF" enable-background="new    " d="M90.274,168.104c0,0-1.041-3.409,1.896-5.935
			c0,0,16.156-12.852,29.191-22.719c0,0,11.433,0.917,20.295-6.301c0,0-8.861,5.887-19.103,5.929c0,0-32.495,0-34.148-31.311
			c0,0,0.277-7.607,3.281-13.026c0,0,0.671-1.651-1.875-4.774c0,0-10.687-29.464-13.456-28.317c0,0-4.275,2.066-2.775,10.603
			c0,0,0.615,8.001,7.206,14.596c0,0,5.508,6.563,7.114,11.911c0,0-0.649,4.337-0.689,9.264c0,0-0.413,23.347,24.281,31.054
			c0,0-1.054,0.692-1.724,1.428c0,0-30.222,20.148-28.099,25.77c0,0,1.87,4.66,5.231,7.735
			C86.902,174.011,92.859,174.519,90.274,168.104z"/>
		<path opacity="0.3" fill="#FFFFFF" enable-background="new    " d="M196.401,106.037c0,0-1.327-4.683-2.257-8.193
			c0,0,0.427-0.942,1.381-0.016C195.525,97.828,196.866,101.445,196.401,106.037z"/>
		<path opacity="0.3" fill="#FFFFFF" enable-background="new    " d="M190.237,96.665c0,0,0.72,2.165,0.937,3.909
			c0,0,0.138,2.433-2.11,1.699c0,0-10.465-6.445-37.054-8.255c0,0,0.38,3.826,5.544,5.021c0,0,36.591,10.99,37.25,8.826
			c0,0-0.463-5.5-2.316-10.316C192.487,97.548,190.577,94.743,190.237,96.665z"/>
	</g>
</g>
<g id="_x31_">
	
		<radialGradient id="SVGID_1_" cx="267.8818" cy="294.5313" r="68.565" gradientTransform="matrix(0.8285 0.5599 0.8281 -1.2253 -326.2083 335.8322)" gradientUnits="userSpaceOnUse">
		<stop  offset="0.1364" style="stop-color:#FFF055"/>
		<stop  offset="0.3239" style="stop-color:#FBE53E"/>
		<stop  offset="0.6177" style="stop-color:#F4CF12"/>
		<stop  offset="1" style="stop-color:#D0AE1A"/>
	</radialGradient>
	<path fill="url(#SVGID_1_)" d="M126.24,201.935c0,0,6.125,0.879,10.525,0.061c0,0,61.536-7.743,70.686-71.451
		c0,0,1.131-6.577,0.275-16.002c0,0-1.469-23.501-16.096-40.943c0,0-0.367-0.124-0.675-0.124c0,0,4.791,7.896,8.341,20.518
		c0,0,0.759,2.334-1.591,3.167c0,0-1.011,0.428-2.204,0.458c0,0,0.73,6.383,1.162,11.2c0,0-12.545-6.977-30.904-10.343
		c0,0-6.855-0.765-7.743-3.732c0,0-1.162,2.141-0.797,3.549c0,0,1.012,1.499,1.499,7.374c0,0,0.246,2.416,0,5.966
		c0,0-1.803,30.756-36.291,31.518c0,0-16.062,12.456-32.769,25.432c0,0-5.018,3.672-1.53,8.935
		C88.131,177.516,103.736,198.2,126.24,201.935z"/>
	<g id="Panels">
		<path id="WPanel_1" opacity="0.6" fill="#FFFFFF" enable-background="new    " d="M142.693,200.813c0,0-6.667-2.935-9.994-13.446
			c0,0,11.935-1.789,17.992-5.828c0,0,5.646,8.721,4.074,15.438c0,0-0.212,0.082-0.411,0.161c0,0,1.523-5.57-3.616-14.864
			c0,0-4.797,3.878-17.351,5.394c0,0,2.25,8.722,9.685,13.055C143.072,200.722,142.859,200.775,142.693,200.813z"/>
		<path id="BPanel_1" opacity="0.2" enable-background="new    " d="M142.363,200.895c0,0-8.539-4.806-10.56-14.214
			c0,0,14.619-2.479,18.728-5.555c0,0,5.37,6.586,4.809,15.625c0,0-0.298,0.118-0.495,0.195c0,0,0.781-7.648-4.427-14.695
			c0,0-5.394,2.961-17.673,4.98c0,0,1.239,7.735,10.132,13.539C142.877,200.77,142.555,200.848,142.363,200.895z"/>
		<path id="WPanel_2" opacity="0.6" fill="#FFFFFF" enable-background="new    " d="M164.742,192.385c0,0,5.663-4.236-3.563-16.398
			c0,0,36.008-15.331,37.016-58.108c0,0,8.96,0,8.96,14.589c0,0-0.052,0.322-0.135,0.805c0,0-0.348-13.833-8.486-14.78
			c0,0,2.691,37.115-36.476,57.771c0,0,8.736,10.602,3.629,15.61C165.688,191.873,165.229,192.124,164.742,192.385z"/>
		<path id="BPanel_2" opacity="0.2" enable-background="new    " d="M164.488,192.52c0,0,4.975-4.646-4.343-16.121
			c0,0,37.271-15.606,37.639-59.301c0,0,8.628-0.781,9.667,13.446c0,0-0.079,0.544-0.209,1.387c0,0-0.232-12.86-8.769-14.191
			c0,0,1.835,39.334-37.5,58.843c0,0,8.148,9.455,4.151,15.598C165.124,192.181,164.835,192.336,164.488,192.52z"/>
	</g>
	<g id="Glare_1_">
		<path opacity="0.4" fill="#FFFFFF" enable-background="new    " d="M204.022,103.557c0,0-2.699-13.547-8.089-23.062
			C195.934,80.495,202.424,89.733,204.022,103.557z"/>
		<path opacity="0.4" fill="#FFFFFF" enable-background="new    " d="M158.116,95.827c0,0,3.059,4.25,13.892,5.658
			c0,0,1.468,0.091,4.438,0.581c0,0,9.332,1.103,24.233,10.25c0,0-11.477-8.781-24.021-10.74
			C176.658,101.576,162.707,99.159,158.116,95.827z"/>
		<path opacity="0.6" fill="#FFFFFF" enable-background="new    " d="M165.76,98.476c0,0-6.854-0.765-7.742-3.733
			c0,0-0.132,0.719,0.188,1.256c0,0,1.666,2.464,2.262,11.322c0,0,0.306,13.28-8.573,22.187c0,0-3.253,4.727-8.736,8.088
			c0,0-7.505,5.358-20.729,5.555c0,0-16.062,12.456-32.769,25.432c0,0-5.018,3.672-1.53,8.935c0,0,15.042,19.939,36.888,24.199
			c0,0-20.209-4.093-36.276-25.153c0,0-1.284-1.914,0.397-4.186c0,0,14.474-12.024,26.683-21.798c0,0,26.01,4.883,42.841-17.701
			c0,0,8.354-10.34,8.294-24.783C166.959,108.093,166.959,101.453,165.76,98.476z"/>
		<defs>
			<filter id="Adobe_OpacityMaskFilter" filterUnits="userSpaceOnUse" x="104.836" y="130.544" width="102.614" height="71.8">
				<feColorMatrix  type="matrix" values="1 0 0 0 0  0 1 0 0 0  0 0 1 0 0  0 0 0 1 0"/>
			</filter>
		</defs>
		<mask maskUnits="userSpaceOnUse" x="104.836" y="130.544" width="102.614" height="71.8" id="SVGID_2_">
			<g filter="url(#Adobe_OpacityMaskFilter)">
				
					<linearGradient id="SVGID_3_" gradientUnits="userSpaceOnUse" x1="96.5566" y1="59.8354" x2="199.1699" y2="59.8354" gradientTransform="matrix(1 0 0 -1 8.2798 226.2793)">
					<stop  offset="0" style="stop-color:#333333"/>
					<stop  offset="0.3171" style="stop-color:#2C2C2C"/>
					<stop  offset="0.7782" style="stop-color:#191919"/>
					<stop  offset="1" style="stop-color:#0D0D0D"/>
				</linearGradient>
				<path fill="url(#SVGID_3_)" d="M104.836,192.126c0,0,9.48,6.901,20.182,9.588c0,0,0.611,0.146,1.222,0.221
					c0,0,6.125,0.879,10.524,0.061c0,0,61.536-7.743,70.686-71.451C207.451,130.544,179.071,200.465,104.836,192.126z"/>
			</g>
		</mask>
		<path mask="url(#SVGID_2_)" fill="#FFFFFF" d="M104.836,192.126c0,0,9.48,6.901,20.182,9.588c0,0,0.611,0.146,1.222,0.221
			c0,0,6.125,0.879,10.524,0.061c0,0,61.536-7.743,70.686-71.451C207.451,130.544,179.071,200.465,104.836,192.126z"/>
	</g>
	<g id="Shadows">
		<path opacity="0.25" enable-background="new    " d="M158.018,94.743c0,0-1.163,2.141-0.796,3.549c0,0,1.01,1.499,1.498,7.374
			c0,0,0.245,2.416,0,5.966c0,0-0.549,9.357-6.826,17.876c0,0,8.267-7.316,8.573-22.188c0,0-0.428-8.079-2.264-11.322
			C158.205,95.999,157.897,95.571,158.018,94.743z"/>
		<path opacity="0.5" enable-background="new    " d="M194.145,79.763c0,0,3.363,7.466,5.154,14.232c0,0,0.764,2.339-1.592,3.167
			c0,0-1.011,0.427-2.204,0.458c0,0,0.729,6.383,1.162,11.2c0,0,2.266,1.241,4.882,3.23c0,0,2.008-0.247,1.943-2.802
			C203.49,109.248,201.868,92.48,194.145,79.763z"/>
		<path opacity="0.25" enable-background="new    " d="M204.517,106.211c0,0-3.352-21.656-13.56-32.736c0,0,1.427,2.299,3.188,6.287
			c0,0,7.013,10.484,9.347,29.485c0,0,0.213,2.348-1.943,2.802c0,0,2.493,1.887,3.503-1.143
			C205.05,110.906,205.05,108.789,204.517,106.211z"/>
	</g>
</g>
<g id="_x32_">
	
		<radialGradient id="SVGID_4_" cx="-342.5229" cy="310.4473" r="72.9699" gradientTransform="matrix(0.0596 -0.9982 -1.7887 -0.1068 702.2836 -198.6918)" gradientUnits="userSpaceOnUse">
		<stop  offset="0.4074" style="stop-color:#F7010B"/>
		<stop  offset="0.5215" style="stop-color:#F10109"/>
		<stop  offset="0.6776" style="stop-color:#DF0002"/>
		<stop  offset="0.7212" style="stop-color:#D90000"/>
		<stop  offset="0.8296" style="stop-color:#BE0201"/>
		<stop  offset="0.8716" style="stop-color:#C61D1B"/>
		<stop  offset="0.9613" style="stop-color:#D9615E"/>
		<stop  offset="1" style="stop-color:#E2817D"/>
	</radialGradient>
	<path fill="url(#SVGID_4_)" d="M190.957,73.476c0,0-15.84-30.704-60.146-35.386c0,0-8.08-1.01-19.585-0.031
		c0,0-17.33,1.087-35.017,11.49c0,0-0.735,0.979-0.735,4.712c0,0-0.339,10.971,7.924,25.533c0,0,4.743,6.52,3.854,9.763
		c0,0,0.948,0.612,2.295,0.766c0,0,9.761-14.076,22.459-16.829c0,0,6.027-1.898,14.748-0.246c0,0,8.536,0.705,17.41,7.527
		c0,0,3.276,2.51,6.273,6.641c0,0,2.572,3.673,8.815,3.673c0,0,13.25,0.674,27.419,4.591c0,0,3.887,0.887,5.814,1.866
		c0,0,3.396,0.949,6.183-0.551c0,0,1.377-0.673,0.611-3.518C199.281,93.479,196.334,82.295,190.957,73.476z"/>
	<g id="Glare_3_">
		<path opacity="0.6" fill="#FFFFFF" enable-background="new    " d="M76.209,49.549c0,0-0.735,0.979-0.735,4.712
			c0,0-0.339,10.971,7.924,25.534c0,0,4.743,6.52,3.854,9.762c0,0,9.231-17.151,28.601-19.645c0,0,5.539-0.78,11.429,0
			c0,0,14.734,0.872,25.697,15.927c0,0,0.854,1.675,4.872,1.973c0,0,12.393,0.413,26.483,3.994c0,0,6.621,1.491,11.521,4.406
			c0,0,1.332,0.757,3.283,0.312c0,0,0.733-0.919,0.143-3.046c0,0-2.947-11.184-8.324-20.002c0,0-0.734-1.423-2.327-3.703
			c0,0,5.129,7.728,9.375,22.861c0,0,1.136,3.389-1.369,2.815c0,0-13.521-6.169-34.699-8.343c0,0-10.342-20.727-33.843-22.625
			c0,0-6.425-1.163-12.362,0.122c0,0-18.298,1.592-29.804,17.809c0,0-8.059-12.773-9.363-24.663
			C76.565,57.75,76.014,53.974,76.209,49.549z"/>
		<path opacity="0.2" fill="#FFFFFF" enable-background="new    " d="M81.033,68.154c0,0,1.468-3.672,0-7.344
			c0,0-0.941-3.06-4.468-3.06c0,0,1.584,7.497,3.526,10.893C80.091,68.644,81.033,70.235,81.033,68.154z"/>
		<path opacity="0.2" fill="#FFFFFF" enable-background="new    " d="M91.804,53.974c0,0,0.779-0.463,1.066-1.32
			c0,0,0.555-1.101-0.133-2.157c0,0-0.689-0.688-2.768-0.091c0,0-3.071,0.613-6.81,3.305c0,0-0.796,0.397-1.179,1.56
			c0,0-0.397,0.781-0.001,2.48c0,0,0.706,3.075,3.951,0.979"/>
		<defs>
			<filter id="Adobe_OpacityMaskFilter_1_" filterUnits="userSpaceOnUse" x="75.484" y="40.165" width="96.917" height="22.909">
				<feColorMatrix  type="matrix" values="1 0 0 0 0  0 1 0 0 0  0 0 1 0 0  0 0 0 1 0"/>
			</filter>
		</defs>
		<mask maskUnits="userSpaceOnUse" x="75.484" y="40.165" width="96.917" height="22.909" id="SVGID_5_">
			<g filter="url(#Adobe_OpacityMaskFilter_1_)">
				
					<linearGradient id="SVGID_6_" gradientUnits="userSpaceOnUse" x1="67.2041" y1="174.6602" x2="164.1211" y2="174.6602" gradientTransform="matrix(1 0 0 -1 8.2798 226.2793)">
					<stop  offset="0" style="stop-color:#333333"/>
					<stop  offset="0.1486" style="stop-color:#252525"/>
					<stop  offset="0.4387" style="stop-color:#111111"/>
					<stop  offset="0.7247" style="stop-color:#040404"/>
					<stop  offset="1" style="stop-color:#000000"/>
				</linearGradient>
				<path fill="url(#SVGID_6_)" d="M75.575,56.494c0,0-0.091-0.718-0.091-1.436c0,0,20.33-13.831,37.921-14.688
					c0,0,7.16-0.582,14.81,0.214c0,0,36.873,3.58,44.186,22.49c0,0-17.164-16.891-43.236-19.799c0,0-7.285-0.886-17.479,0.001
					C111.686,43.277,94.163,44.807,75.575,56.494z"/>
			</g>
		</mask>
		<path mask="url(#SVGID_5_)" fill="#FFFFFF" d="M75.575,56.494c0,0-0.091-0.718-0.091-1.436c0,0,20.33-13.831,37.921-14.688
			c0,0,7.16-0.582,14.81,0.214c0,0,36.873,3.58,44.186,22.49c0,0-17.164-16.891-43.236-19.799c0,0-7.285-0.886-17.479,0.001
			C111.686,43.277,94.163,44.807,75.575,56.494z"/>
	</g>
	<path id="Shadow_1_" opacity="0.25" enable-background="new    " d="M87.253,89.559c0,0,0.948,0.612,2.295,0.766
		c0,0,9.982-13.963,22.459-16.829c0,0,6.494-1.837,14.747-0.246c0,0,8.538,0.705,17.41,7.527c0,0,3.276,2.51,6.274,6.641
		c0,0,2.572,3.673,8.814,3.673c0,0,13.251,0.674,27.419,4.591c0,0,3.888,0.887,5.815,1.866c0,0,3.517,0.949,6.182-0.551
		c0,0,0.272-0.157,0.471-0.472c0,0-1.639,0.486-3.284-0.312c0,0-5.325-2.983-11.52-4.405c0,0-13.404-3.488-26.485-3.994
		c0,0-3.717-0.138-4.872-1.974c0,0-9.678-14.137-25.697-15.927c0,0-4.268-0.78-11.428,0C115.854,69.913,98.642,71.015,87.253,89.559
		z"/>
</g>
<g id="_x33_">
	
		<radialGradient id="SVGID_7_" cx="-127.7793" cy="678.4512" r="79.1984" fx="-128.4849" fy="678.5291" gradientTransform="matrix(-0.9227 0.3855 0.5306 1.2702 -371.3568 -709.9281)" gradientUnits="userSpaceOnUse">
		<stop  offset="0.1469" style="stop-color:#91DD96"/>
		<stop  offset="0.2413" style="stop-color:#8DDC92"/>
		<stop  offset="0.3283" style="stop-color:#83D887"/>
		<stop  offset="0.4125" style="stop-color:#71D274"/>
		<stop  offset="0.4949" style="stop-color:#57CA5A"/>
		<stop  offset="0.576" style="stop-color:#36BF38"/>
		<stop  offset="0.6551" style="stop-color:#0FB20F"/>
		<stop  offset="0.6813" style="stop-color:#00AD00"/>
		<stop  offset="0.7878" style="stop-color:#009D03"/>
		<stop  offset="1" style="stop-color:#008008"/>
	</radialGradient>
	<path fill="url(#SVGID_7_)" d="M75.582,56.497c-2.25-0.917-3.822-0.215-3.822-0.215c-2.417,0.856-2.983,4.039-2.983,4.039
		c-0.656,3.121,0.874,9.302,0.874,9.302c2.203,8.263,5.263,11.568,5.263,11.568c7.971,10.618,11.016,18.297,11.016,18.297
		c-0.644,5.921,1.024,15.132,1.024,15.132c4.422,19.999,22.782,24.834,22.782,24.834c0.123,1.774-0.108,2.89-0.108,2.89
		C82.5,161.85,80.802,167.726,80.435,168.321c-1.178,3.014,0,5.399,0,5.399c9.177,13.099,20.353,20.063,20.353,20.063
		c3.591,1.757,8.513,1.94,8.513,1.94c9.017,5.203,16.939,6.212,16.939,6.212c-1.163,1.01-4.314,1.224-4.314,1.224
		c-2.906,1.714-12.792,0.49-12.792,0.49c-70.316-11.999-74.783-75.185-74.783-75.185c-0.918-7.895,0-15.818,0-15.818
		c2.754-34.701,30.018-54.573,30.018-54.573c3.744-3.122,7.102-3.856,7.102-3.856c2.753-0.597,4.004,0.046,4.004,0.046
		L75.582,56.497z"/>
	<g id="Shadows_1_">
		<path opacity="0.25" enable-background="new    " d="M77.869,85.306c0,0-1.664-2.465-2.956-4.116c0,0-3.184-3.535-5.263-11.568
			c0,0-1.53-6.182-0.874-9.302c0,0,0.568-3.183,2.983-4.039c0,0,1.572-0.703,3.822,0.215l-0.107-2.234c0,0-1.618-0.78-4.004,0.229
			c0,0-3.253,1.359-4.131,5.461c0,0-0.597,2.295,0,4.911C67.339,64.865,69.588,78.497,77.869,85.306z"/>
		<path opacity="0.25" enable-background="new    " d="M109.626,142.342c0,0,0.23-1.116,0.108-2.889c0,0-18.36-4.836-22.782-24.835
			c0,0-1.667-9.21-1.024-15.132c0,0-0.703-1.634-1.93-4.05c0,0-2.171,10.477,0.461,19.655
			C84.46,115.093,88.315,133.758,109.626,142.342z"/>
		<path opacity="0.25" enable-background="new    " d="M109.626,142.342C82.5,161.848,80.802,167.725,80.435,168.32
			c-1.178,3.014,0,5.399,0,5.399c9.177,13.098,20.353,20.063,20.353,20.063c5.244,4.02,11.682,5.817,11.682,5.817
			c5.802,1.69,9.876,1.508,9.876,1.508c1.145,0.318,2.127,0.507,2.127,0.507s-9.972,3.219-24.889-5.916
			c0,0-12.14-6.677-22.354-22.604c0,0-1.675-2.294,0-4.497C77.23,168.596,82.485,159.463,109.626,142.342z"/>
		<path opacity="0.5" enable-background="new    " d="M122.345,201.107c0,0-6.17-1.436-13.044-5.385c0,0-4.922-0.185-8.513-1.94
			C100.788,193.782,109.956,201.107,122.345,201.107z"/>
	</g>
	<g id="Glare_2_">
		<path opacity="0.6" fill="#FFFFFF" enable-background="new    " d="M113.346,201.445c0,0-18.972-2.571-35.679-26.867
			c0,0-2.815-1.164,4.345,6.854C82.011,181.432,98.658,200.28,113.346,201.445z"/>
		<path opacity="0.5" fill="#FFFFFF" enable-background="new    " d="M116.213,201.938c0,0,3.51,1.403,5.712,1.22
			c0,0,3.825-0.424,4.315-1.224c0,0-0.796-0.108-1.769-0.32C124.472,201.614,121.227,202.607,116.213,201.938z"/>
		<path opacity="0.6" fill="#FFFFFF" enable-background="new    " d="M72.379,54.054c0,0,0.646-0.107,1.431-0.079
			c-1.165-0.023-2.339,0.516-2.339,0.516c-3.552,1.744-4.132,5.461-4.132,5.461c-0.293,1.228-0.265,2.479-0.265,2.479
			c0,1.388,0.265,2.433,0.265,2.433c2.96,15.101,10.53,20.441,10.53,20.441s-10.545-8.385-11.552-23.216
			c0,0-0.142-2.021,0.242-3.146C66.559,58.943,68.102,54.669,72.379,54.054z"/>
		<path opacity="0.6" fill="#FFFFFF" enable-background="new    " d="M88.849,125.175c0,0,6.052,11.337,20.778,17.167
			c0,0-3.561,2.33-6.142,3.982c0,0-21.596-8.066-25.497-33.127c0,0-0.827-4.774,0-11.338c0,0,0.642-5.737,3.216-11.385
			c0,0,1.504,2.576,2.795,4.964c0,0-0.527,2.831-0.691,5.39c0,0-0.226,2.065-0.1,5.897
			C83.209,106.725,83.014,116.064,88.849,125.175z"/>
		<path opacity="0.2" fill="#FFFFFF" enable-background="new    " d="M65.825,65.247c0,0-2.877,0.306-7.314,7.282
			c0,0-1.989,3.703-0.827,8.598c0,0,0.123,2.539,3.703,2.754c0,0,0.459,0,0.857-0.643c0,0,1.285-1.713,4.131-2.387
			c0,0,1.101-0.336,2.264-0.062c0,0,0.747,0.276,0.735,0.918c0,0-0.153,0.917,2.05,1.561c0,0,0.735,0.275,1.866,0.398
			c0,0,1.438-0.092-0.643-2.112c0,0-6.609-6.181-6.609-13.738C66.039,67.817,66.375,65.247,65.825,65.247z"/>
		<defs>
			<filter id="Adobe_OpacityMaskFilter_2_" filterUnits="userSpaceOnUse" x="39.5" y="61.651" width="37.638" height="121.968">
				<feColorMatrix  type="matrix" values="1 0 0 0 0  0 1 0 0 0  0 0 1 0 0  0 0 0 1 0"/>
			</filter>
		</defs>
		<mask maskUnits="userSpaceOnUse" x="39.5" y="61.651" width="37.638" height="121.968" id="SVGID_8_">
			<g filter="url(#Adobe_OpacityMaskFilter_2_)">
				
					<linearGradient id="SVGID_9_" gradientUnits="userSpaceOnUse" x1="31.2202" y1="103.644" x2="68.8584" y2="103.644" gradientTransform="matrix(1 0 0 -1 8.2798 226.2793)">
					<stop  offset="0" style="stop-color:#333333"/>
					<stop  offset="1" style="stop-color:#0D0D0D"/>
				</linearGradient>
				<path fill="url(#SVGID_9_)" d="M65.228,61.651c0,0-18.59,14.825-24.281,43.237c0,0-2.616,13.402-0.813,24.555
					c0,0,4.026,33.139,32.943,53.518c0,0,2.142,1.441,3.528,0.058c0,0,1.245-1.479-0.071-2.902c0,0-1.943-2.341-9.578-7.74
					c0,0-21.511-17.184-24.633-48.596c0,0-0.872-9.575,0.368-17.424C42.691,106.356,45.078,81.342,65.228,61.651z"/>
			</g>
		</mask>
		<path mask="url(#SVGID_8_)" fill="#FFFFFF" d="M65.228,61.651c0,0-18.59,14.825-24.281,43.237c0,0-2.616,13.402-0.813,24.555
			c0,0,4.026,33.139,32.943,53.518c0,0,2.142,1.441,3.528,0.058c0,0,1.245-1.479-0.071-2.902c0,0-1.943-2.341-9.578-7.74
			c0,0-21.511-17.184-24.633-48.596c0,0-0.872-9.575,0.368-17.424C42.691,106.356,45.078,81.342,65.228,61.651z"/>
		<defs>
			<filter id="Adobe_OpacityMaskFilter_3_" filterUnits="userSpaceOnUse" x="34.162" y="56.008" width="33.137" height="97.441">
				<feColorMatrix  type="matrix" values="1 0 0 0 0  0 1 0 0 0  0 0 1 0 0  0 0 0 1 0"/>
			</filter>
		</defs>
		<mask maskUnits="userSpaceOnUse" x="34.162" y="56.008" width="33.137" height="97.441" id="SVGID_10_">
			<g filter="url(#Adobe_OpacityMaskFilter_3_)">
				
					<linearGradient id="SVGID_11_" gradientUnits="userSpaceOnUse" x1="25.8818" y1="121.5508" x2="59.019" y2="121.5508" gradientTransform="matrix(1 0 0 -1 8.2798 226.2793)">
					<stop  offset="0" style="stop-color:#1A1A1A"/>
					<stop  offset="1" style="stop-color:#333333"/>
				</linearGradient>
				<path fill="url(#SVGID_11_)" d="M36.051,126.002c0,0-1.89-11.567,2.478-25.52c0,0,6.059-23.042,22.216-37.729
					c0,0,3.111-2.487,6.554-6.745c0,0-19.529,11.119-30.421,44.106c0,0-4.131,9.639-2.204,25.978c0,0,0.918,14.598,7.573,27.357
					C42.248,153.449,38.218,143.671,36.051,126.002z"/>
			</g>
		</mask>
		<path mask="url(#SVGID_10_)" fill="#FFFFFF" d="M36.051,126.002c0,0-1.89-11.567,2.478-25.52c0,0,6.059-23.042,22.216-37.729
			c0,0,3.111-2.487,6.554-6.745c0,0-19.529,11.119-30.421,44.106c0,0-4.131,9.639-2.204,25.978c0,0,0.918,14.598,7.573,27.357
			C42.248,153.449,38.218,143.671,36.051,126.002z"/>
		<defs>
			<filter id="Adobe_OpacityMaskFilter_4_" filterUnits="userSpaceOnUse" x="40.847" y="152.476" width="85.393" height="51.595">
				<feColorMatrix  type="matrix" values="1 0 0 0 0  0 1 0 0 0  0 0 1 0 0  0 0 0 1 0"/>
			</filter>
		</defs>
		<mask maskUnits="userSpaceOnUse" x="40.847" y="152.476" width="85.393" height="51.595" id="SVGID_12_">
			<g filter="url(#Adobe_OpacityMaskFilter_4_)">
				
					<linearGradient id="SVGID_13_" gradientUnits="userSpaceOnUse" x1="32.5674" y1="48.0059" x2="117.9604" y2="48.0059" gradientTransform="matrix(1 0 0 -1 8.2798 226.2793)">
					<stop  offset="0" style="stop-color:#0D0D0D"/>
					<stop  offset="0.0509" style="stop-color:#111111"/>
					<stop  offset="0.3566" style="stop-color:#242424"/>
					<stop  offset="0.6698" style="stop-color:#2F2F2F"/>
					<stop  offset="1" style="stop-color:#333333"/>
				</linearGradient>
				<path fill="url(#SVGID_13_)" d="M40.847,152.476c0,0,7.329,18.92,24.091,32.162c0,0,16.331,14.688,44.196,19.01
					c0,0,9.886,1.223,12.792-0.489c0,0,3.152-0.215,4.314-1.224c0,0-0.758-0.121-1.768-0.32c0,0-10.024,3.44-24.889-5.916
					c0,0-5.393-3.066-10.846-8.504C88.737,187.194,64.058,183.353,40.847,152.476z"/>
			</g>
		</mask>
		<path mask="url(#SVGID_12_)" fill="#FFFFFF" d="M40.847,152.476c0,0,7.329,18.92,24.091,32.162c0,0,16.331,14.688,44.196,19.01
			c0,0,9.886,1.223,12.792-0.489c0,0,3.152-0.215,4.314-1.224c0,0-0.758-0.121-1.768-0.32c0,0-10.024,3.44-24.889-5.916
			c0,0-5.393-3.066-10.846-8.504C88.737,187.194,64.058,183.353,40.847,152.476z"/>
	</g>
</g>
<g id="Ball">
	
		<radialGradient id="Spare_1_" cx="114.8286" cy="137.3506" r="51.1341" fx="125.8749" fy="137.1134" gradientTransform="matrix(1 0 0 -1 8.2798 226.2793)" gradientUnits="userSpaceOnUse">
		<stop  offset="0" style="stop-color:#B0DDF3"/>
		<stop  offset="0.081" style="stop-color:#95CAEF"/>
		<stop  offset="0.2371" style="stop-color:#68A9E9"/>
		<stop  offset="0.3941" style="stop-color:#438EE4"/>
		<stop  offset="0.5497" style="stop-color:#2579E0"/>
		<stop  offset="0.7035" style="stop-color:#116ADD"/>
		<stop  offset="0.8546" style="stop-color:#0461DC"/>
		<stop  offset="1" style="stop-color:#005EDB"/>
	</radialGradient>
	<path id="Spare" fill="url(#Spare_1_)" d="M96.37,128.032c0,0,8.904,11.048,25.764,11.03c0,0,12.516,0.812,23.566-9.033
		c0,0,9.88-7.78,9.88-22.024c0,0,0.963-10.587-8.354-20.547c0,0-9.18-10.489-25.365-10.481c0,0-13.236-0.672-24.619,10.068
		c0,0-8.836,7.986-8.827,21.221C88.415,108.267,87.786,118.9,96.37,128.032z"/>
	<g id="Glare">
		<defs>
			<filter id="Adobe_OpacityMaskFilter_5_" filterUnits="userSpaceOnUse" x="97.862" y="85.687" width="12.117" height="28.237">
				<feColorMatrix  type="matrix" values="1 0 0 0 0  0 1 0 0 0  0 0 1 0 0  0 0 0 1 0"/>
			</filter>
		</defs>
		<mask maskUnits="userSpaceOnUse" x="97.862" y="85.687" width="12.117" height="28.237" id="SVGID_14_">
			<g filter="url(#Adobe_OpacityMaskFilter_5_)">
				
					<linearGradient id="SVGID_15_" gradientUnits="userSpaceOnUse" x1="93.4688" y1="124.1377" x2="98.5938" y2="135.1174" gradientTransform="matrix(1 0 0 -1 8.2798 226.2793)">
					<stop  offset="0" style="stop-color:#0F0F0F"/>
					<stop  offset="0.2279" style="stop-color:#2A2A2A"/>
					<stop  offset="0.5418" style="stop-color:#484848"/>
					<stop  offset="0.8103" style="stop-color:#5A5A5A"/>
					<stop  offset="1" style="stop-color:#616161"/>
				</linearGradient>
				<path fill="url(#SVGID_15_)" d="M109.979,85.687c0,0-10.833,1.684-12.117,19.951c0,0-0.03,6.976,2.509,8.262
					c0,0,1.407,0.428,1.254-2.326c0,0-0.397-3.856,0.336-10.435C101.962,101.139,102.728,91.348,109.979,85.687z"/>
			</g>
		</mask>
		<path mask="url(#SVGID_14_)" fill="#FFFFFF" d="M109.979,85.687c0,0-10.833,1.684-12.117,19.951c0,0-0.03,6.976,2.509,8.262
			c0,0,1.407,0.428,1.254-2.326c0,0-0.397-3.856,0.336-10.435C101.962,101.139,102.728,91.348,109.979,85.687z"/>
		<defs>
			<filter id="Adobe_OpacityMaskFilter_6_" filterUnits="userSpaceOnUse" x="107.051" y="82.91" width="16.583" height="8.393">
				<feColorMatrix  type="matrix" values="1 0 0 0 0  0 1 0 0 0  0 0 1 0 0  0 0 0 1 0"/>
			</filter>
		</defs>
		<mask maskUnits="userSpaceOnUse" x="107.051" y="82.91" width="16.583" height="8.393" id="SVGID_16_">
			<g filter="url(#Adobe_OpacityMaskFilter_6_)">
				
					<linearGradient id="SVGID_17_" gradientUnits="userSpaceOnUse" x1="99.4482" y1="137.1182" x2="114.516" y2="144.0443" gradientTransform="matrix(1 0 0 -1 8.2798 226.2793)">
					<stop  offset="0" style="stop-color:#616161"/>
					<stop  offset="0.1776" style="stop-color:#424242"/>
					<stop  offset="0.3877" style="stop-color:#252525"/>
					<stop  offset="0.5968" style="stop-color:#111111"/>
					<stop  offset="0.8023" style="stop-color:#040404"/>
					<stop  offset="1" style="stop-color:#000000"/>
				</linearGradient>
				<path fill="url(#SVGID_17_)" d="M123.634,83.018c0,0-6.724-0.712-10.901,1.514c0,0-3.42,1.904-5.531,5.187
					c0,0-0.757,1.973,1.125,1.515c0,0,2.938-2.686,6.288-4.728C114.614,86.506,118.31,84.233,123.634,83.018z"/>
			</g>
		</mask>
		<path mask="url(#SVGID_16_)" fill="#FFFFFF" d="M123.634,83.018c0,0-6.724-0.712-10.901,1.514c0,0-3.42,1.904-5.531,5.187
			c0,0-0.757,1.973,1.125,1.515c0,0,2.938-2.686,6.288-4.728C114.614,86.506,118.31,84.233,123.634,83.018z"/>
		<defs>
			<filter id="Adobe_OpacityMaskFilter_7_" filterUnits="userSpaceOnUse" x="94.373" y="77.021" width="59.76" height="24.518">
				<feColorMatrix  type="matrix" values="1 0 0 0 0  0 1 0 0 0  0 0 1 0 0  0 0 0 1 0"/>
			</filter>
		</defs>
		<mask maskUnits="userSpaceOnUse" x="94.373" y="77.021" width="59.76" height="24.518" id="SVGID_18_">
			<g filter="url(#Adobe_OpacityMaskFilter_7_)">
				
					<linearGradient id="SVGID_19_" gradientUnits="userSpaceOnUse" x1="86.0928" y1="137" x2="145.8535" y2="137" gradientTransform="matrix(1 0 0 -1 8.2798 226.2793)">
					<stop  offset="0" style="stop-color:#474747"/>
					<stop  offset="0.0398" style="stop-color:#505050"/>
					<stop  offset="0.2287" style="stop-color:#757575"/>
					<stop  offset="0.3817" style="stop-color:#8C8C8C"/>
					<stop  offset="0.4785" style="stop-color:#949494"/>
					<stop  offset="1" style="stop-color:#262626"/>
				</linearGradient>
				<path fill="url(#SVGID_19_)" d="M154.133,101.538c0,0-4.589-22.398-29.88-24.418c0,0-18.13-2.204-29.88,14.183
					c0,0,10.22-12.316,28.213-12.836C122.586,78.467,146.575,77.395,154.133,101.538z"/>
			</g>
		</mask>
		<path mask="url(#SVGID_18_)" fill="#FFFFFF" d="M154.133,101.538c0,0-4.589-22.398-29.88-24.418c0,0-18.13-2.204-29.88,14.183
			c0,0,10.22-12.316,28.213-12.836C122.586,78.467,146.575,77.395,154.133,101.538z"/>
	</g>
	<defs>
		<filter id="Adobe_OpacityMaskFilter_8_" filterUnits="userSpaceOnUse" x="88.405" y="76.969" width="67.204" height="62.11">
			<feColorMatrix  type="matrix" values="1 0 0 0 0  0 1 0 0 0  0 0 1 0 0  0 0 0 1 0"/>
		</filter>
	</defs>
	<mask maskUnits="userSpaceOnUse" x="88.405" y="76.969" width="67.204" height="62.11" id="Shadow_2_">
		<g filter="url(#Adobe_OpacityMaskFilter_8_)">
			
				<radialGradient id="SVGID_20_" cx="246.7314" cy="636.9561" r="40.5612" fx="251.1688" fy="637.0118" gradientTransform="matrix(-0.0043 1 0.8757 0.0037 -433.4288 -155.7489)" gradientUnits="userSpaceOnUse">
				<stop  offset="0.6542" style="stop-color:#000000"/>
				<stop  offset="0.6986" style="stop-color:#040404"/>
				<stop  offset="0.7403" style="stop-color:#0F0F0F"/>
				<stop  offset="0.7809" style="stop-color:#222222"/>
				<stop  offset="0.821" style="stop-color:#3D3D3D"/>
				<stop  offset="0.8606" style="stop-color:#5F5F5F"/>
				<stop  offset="0.8998" style="stop-color:#8A8A8A"/>
				<stop  offset="0.9388" style="stop-color:#BCBCBC"/>
				<stop  offset="0.9766" style="stop-color:#F4F4F4"/>
				<stop  offset="0.9832" style="stop-color:#FFFFFF"/>
			</radialGradient>
			<path fill="url(#SVGID_20_)" d="M96.37,128.032c0,0,8.904,11.048,25.764,11.03c0,0,12.516,0.812,23.566-9.033
				c0,0,9.88-7.78,9.88-22.024c0,0,0.963-10.587-8.354-20.547c0,0-9.18-10.489-25.365-10.481c0,0-13.236-0.672-24.619,10.068
				c0,0-8.836,7.986-8.827,21.221C88.415,108.267,87.786,118.9,96.37,128.032z"/>
		</g>
	</mask>
	
		<radialGradient id="Shadow_3_" cx="248.7676" cy="641.2705" r="42.0118" fx="253.962" fy="641.2878" gradientTransform="matrix(0.0052 1 0.8499 -0.0044 -423.0147 -153.8909)" gradientUnits="userSpaceOnUse">
		<stop  offset="0.6542" style="stop-color:#FFFFFF"/>
		<stop  offset="0.6986" style="stop-color:#FBFBFB"/>
		<stop  offset="0.7403" style="stop-color:#F0F0F0"/>
		<stop  offset="0.7809" style="stop-color:#DDDDDD"/>
		<stop  offset="0.821" style="stop-color:#C2C2C2"/>
		<stop  offset="0.8606" style="stop-color:#A0A0A0"/>
		<stop  offset="0.8998" style="stop-color:#757575"/>
		<stop  offset="0.9388" style="stop-color:#434343"/>
		<stop  offset="0.9766" style="stop-color:#0B0B0B"/>
		<stop  offset="0.9832" style="stop-color:#000000"/>
	</radialGradient>
	<path id="Shadow" mask="url(#Shadow_2_)" fill="url(#Shadow_3_)" d="M96.37,128.032c0,0,8.904,11.048,25.764,11.03
		c0,0,12.516,0.812,23.566-9.033c0,0,9.88-7.78,9.88-22.024c0,0,0.963-10.587-8.354-20.547c0,0-9.18-10.489-25.365-10.481
		c0,0-13.236-0.672-24.619,10.068c0,0-8.836,7.986-8.827,21.221C88.415,108.267,87.786,118.9,96.37,128.032z"/>
	<g id="Chrome_Shiny_Thingy">
		<g>
			<defs>
				<filter id="Adobe_OpacityMaskFilter_9_" filterUnits="userSpaceOnUse" x="92.357" y="98.761" width="36.164" height="36.305">
					<feColorMatrix  type="matrix" values="1 0 0 0 0  0 1 0 0 0  0 0 1 0 0  0 0 0 1 0"/>
				</filter>
			</defs>
			<mask maskUnits="userSpaceOnUse" x="92.357" y="98.761" width="36.164" height="36.305" id="SVGID_21_">
				<g filter="url(#Adobe_OpacityMaskFilter_9_)">
					
						<radialGradient id="SVGID_22_" cx="98.4883" cy="99.314" r="19.4131" gradientTransform="matrix(1 0 0 -1 8.2798 226.2793)" gradientUnits="userSpaceOnUse">
						<stop  offset="0" style="stop-color:#2E2E2E"/>
						<stop  offset="0.1111" style="stop-color:#393939"/>
						<stop  offset="0.4727" style="stop-color:#575757"/>
						<stop  offset="0.7817" style="stop-color:#6A6A6A"/>
						<stop  offset="1" style="stop-color:#707070"/>
					</radialGradient>
					<path fill="url(#SVGID_22_)" d="M93.317,98.761c0,0-2.158,13.861,4.131,18.015c0,0,6.058,19.507,31.073,10.213
						c0,0-4.039,4.153-4.681,7.734c0,0-12.76,2.065-21.756-3.947C102.084,130.775,88.728,121.733,93.317,98.761z"/>
				</g>
			</mask>
			
				<linearGradient id="SVGID_23_" gradientUnits="userSpaceOnUse" x1="84.7402" y1="117.3457" x2="108.2006" y2="96.2945" gradientTransform="matrix(1 0 0 -1 8.2798 226.2793)">
				<stop  offset="0" style="stop-color:#FFFFFF"/>
				<stop  offset="0.4133" style="stop-color:#989898"/>
				<stop  offset="1" style="stop-color:#000000"/>
			</linearGradient>
			<path mask="url(#SVGID_21_)" fill="url(#SVGID_23_)" d="M93.317,98.761c0,0-2.158,13.861,4.131,18.015
				c0,0,6.058,19.507,31.073,10.213c0,0-4.039,4.153-4.681,7.734c0,0-12.76,2.065-21.756-3.947
				C102.084,130.775,88.728,121.733,93.317,98.761z"/>
			<path opacity="0.15" fill="#FFFFFF" enable-background="new    " d="M95.485,115.275c0,0,0.954,1.145,1.964,1.5
				c0,0,6.058,19.508,31.072,10.214c0,0-0.962,0.989-2.022,2.419C126.497,129.408,101.901,138.471,95.485,115.275z"/>
			<path opacity="0.4" fill="#FFFFFF" enable-background="new    " d="M93.317,98.761c0,0-2.158,13.861,4.131,18.015
				C97.449,116.775,90.885,114.756,93.317,98.761z"/>
		</g>
		<g>
			<defs>
				<filter id="Adobe_OpacityMaskFilter_10_" filterUnits="userSpaceOnUse" x="132.796" y="90.43" width="20.183" height="43.226">
					<feColorMatrix  type="matrix" values="1 0 0 0 0  0 1 0 0 0  0 0 1 0 0  0 0 0 1 0"/>
				</filter>
			</defs>
			<mask maskUnits="userSpaceOnUse" x="132.796" y="90.43" width="20.183" height="43.226" id="SVGID_24_">
				<g filter="url(#Adobe_OpacityMaskFilter_10_)">
					
						<linearGradient id="SVGID_25_" gradientUnits="userSpaceOnUse" x1="134.6602" y1="104.5981" x2="131.8462" y2="136.2072" gradientTransform="matrix(1 0 0 -1 8.2798 226.2793)">
						<stop  offset="0" style="stop-color:#666666"/>
						<stop  offset="0.17" style="stop-color:#767676"/>
						<stop  offset="0.4395" style="stop-color:#8A8A8A"/>
						<stop  offset="0.7143" style="stop-color:#959595"/>
						<stop  offset="1" style="stop-color:#999999"/>
					</linearGradient>
					<path fill="url(#SVGID_25_)" d="M142.428,90.43c0,0,12.899,16.523-3.968,31.579c0,0-4.798,2.846-5.664,11.647
						C132.796,133.656,170.872,115.766,142.428,90.43z"/>
				</g>
			</mask>
			
				<linearGradient id="SVGID_26_" gradientUnits="userSpaceOnUse" x1="135.9844" y1="102.8857" x2="124.865" y2="131.6464" gradientTransform="matrix(1 0 0 -1 8.2798 226.2793)">
				<stop  offset="0.1655" style="stop-color:#000000"/>
				<stop  offset="0.2644" style="stop-color:#040404"/>
				<stop  offset="0.3684" style="stop-color:#111111"/>
				<stop  offset="0.4749" style="stop-color:#262626"/>
				<stop  offset="0.583" style="stop-color:#434343"/>
				<stop  offset="0.6925" style="stop-color:#6A6A6A"/>
				<stop  offset="0.803" style="stop-color:#989898"/>
				<stop  offset="0.9123" style="stop-color:#CECECE"/>
				<stop  offset="1" style="stop-color:#FFFFFF"/>
			</linearGradient>
			<path mask="url(#SVGID_24_)" fill="url(#SVGID_26_)" d="M142.428,90.43c0,0,12.899,16.523-3.968,31.579
				c0,0-4.798,2.846-5.664,11.647C132.796,133.656,170.872,115.766,142.428,90.43z"/>
			<path opacity="0.15" fill="#FFFFFF" enable-background="new    " d="M148.371,96.811c0,0-2.178-3.054-5.943-6.381
				c0,0,15.147,16.592-4.565,32.634C137.862,123.064,154.256,121.06,148.371,96.811z"/>
			<path opacity="0.4" fill="#FFFFFF" enable-background="new    " d="M142.428,90.43c0,0,12.899,16.523-3.968,31.579
				C138.46,122.009,156.429,109.065,142.428,90.43z"/>
		</g>
		<g>
			<defs>
				<filter id="Adobe_OpacityMaskFilter_11_" filterUnits="userSpaceOnUse" x="95.904" y="77.499" width="45.163" height="13.299">
					<feColorMatrix  type="matrix" values="1 0 0 0 0  0 1 0 0 0  0 0 1 0 0  0 0 0 1 0"/>
				</filter>
			</defs>
			<mask maskUnits="userSpaceOnUse" x="95.904" y="77.499" width="45.163" height="13.299" id="SVGID_27_">
				<g filter="url(#Adobe_OpacityMaskFilter_11_)">
					
						<radialGradient id="SVGID_28_" cx="110.7563" cy="147.0889" r="16.2778" gradientTransform="matrix(1 0 0 -1 8.2798 226.2793)" gradientUnits="userSpaceOnUse">
						<stop  offset="0.1593" style="stop-color:#1A1A1A"/>
						<stop  offset="0.2447" style="stop-color:#2B2B2B"/>
						<stop  offset="0.4794" style="stop-color:#555555"/>
						<stop  offset="0.6917" style="stop-color:#737373"/>
						<stop  offset="0.8724" style="stop-color:#868686"/>
						<stop  offset="1" style="stop-color:#8C8C8C"/>
					</radialGradient>
					<path fill="url(#SVGID_28_)" d="M141.067,82.597c0,0-2.539-0.367-5.691,1.163c0,0-2.999,0.704-4.496-0.214
						c0,0-11.292-6.578-24.756,1.622c0,0-6.945,2.815-10.22,5.63C95.904,90.797,113.039,67.48,141.067,82.597z"/>
				</g>
			</mask>
			<path mask="url(#SVGID_27_)" d="M141.067,82.597c0,0-2.539-0.367-5.691,1.163c0,0-2.999,0.704-4.496-0.214
				c0,0-11.292-6.578-24.756,1.622c0,0-6.945,2.815-10.22,5.63C95.904,90.797,113.039,67.48,141.067,82.597z"/>
			<path opacity="0.4" fill="#FFFFFF" enable-background="new    " d="M130.88,83.544c0,0-11.292-6.578-24.756,1.623
				C106.123,85.167,117.598,76.385,130.88,83.544z"/>
		</g>
	</g>
</g>
</svg>
