<?xml version="1.0" encoding="utf-8"?>
<!-- Generator: Adobe Illustrator 16.0.0, SVG Export Plug-In . SVG Version: 6.00 Build 0)  -->
<!DOCTYPE svg PUBLIC "-//W3C//DTD SVG 1.1//EN" "http://www.w3.org/Graphics/SVG/1.1/DTD/svg11.dtd">
<svg version="1.1" id="Icon_Layer" xmlns="http://www.w3.org/2000/svg" xmlns:xlink="http://www.w3.org/1999/xlink" x="0px" y="0px"
	 width="230px" height="190px" viewBox="0 0 230 190" enable-background="new 0 0 230 190" xml:space="preserve">
<ellipse opacity="0.01" fill-rule="evenodd" clip-rule="evenodd" fill="#FFFFFF" cx="113.988" cy="92.268" rx="59.796" ry="83.951"/>
<g opacity="0.85">
	<defs>
		<filter id="Adobe_OpacityMaskFilter" filterUnits="userSpaceOnUse" x="50.423" y="167.072" width="129.633" height="22.215">
			<feFlood  style="flood-color:white;flood-opacity:1" result="back"/>
			<feBlend  in="SourceGraphic" in2="back" mode="normal"/>
		</filter>
	</defs>
	<mask maskUnits="userSpaceOnUse" x="50.423" y="167.072" width="129.633" height="22.215" id="SVGID_1_">
		<g filter="url(#Adobe_OpacityMaskFilter)">
			
				<image overflow="visible" width="1381" height="251" xlink:href="A69B8883.jpg"  transform="matrix(0.095 0 0 0.095 49.6299 166.2803)">
			</image>
		</g>
	</mask>
	<g mask="url(#SVGID_1_)">
		<defs>
			<filter id="Adobe_OpacityMaskFilter_1_" filterUnits="userSpaceOnUse" x="50.423" y="167.072" width="129.633" height="22.215">
				<feFlood  style="flood-color:white;flood-opacity:1" result="back"/>
				<feBlend  in="SourceGraphic" in2="back" mode="normal"/>
			</filter>
		</defs>
		<mask maskUnits="userSpaceOnUse" x="50.423" y="167.072" width="129.633" height="22.215" id="SVGID_1_">
			<g filter="url(#Adobe_OpacityMaskFilter_1_)">
				<defs>
					
						<filter id="Adobe_OpacityMaskFilter_2_" filterUnits="userSpaceOnUse" x="50.423" y="167.072" width="129.633" height="22.215">
						<feFlood  style="flood-color:white;flood-opacity:1" result="back"/>
						<feBlend  in="SourceGraphic" in2="back" mode="normal"/>
					</filter>
				</defs>
				<mask maskUnits="userSpaceOnUse" x="50.423" y="167.072" width="129.633" height="22.215" id="SVGID_1_">
					<g filter="url(#Adobe_OpacityMaskFilter_2_)">
					</g>
				</mask>
				<linearGradient id="SVGID_2_" gradientUnits="userSpaceOnUse" x1="115.2393" y1="167.0723" x2="115.2393" y2="189.2871">
					<stop  offset="0" style="stop-color:#000000"/>
					<stop  offset="0.0895" style="stop-color:#070707"/>
					<stop  offset="0.2165" style="stop-color:#191919"/>
					<stop  offset="0.3661" style="stop-color:#383838"/>
					<stop  offset="0.5328" style="stop-color:#636363"/>
					<stop  offset="0.7137" style="stop-color:#999999"/>
					<stop  offset="0.9035" style="stop-color:#DBDBDB"/>
					<stop  offset="1" style="stop-color:#FFFFFF"/>
				</linearGradient>
				<path fill-rule="evenodd" clip-rule="evenodd" fill="url(#SVGID_2_)" d="M50.423,178.962c0-6.107,28.554-11.89,64.382-11.89
					c35.829,0,65.251,5.782,65.251,11.89c0,5.604-26.265,10.325-65.251,10.325S50.423,184.147,50.423,178.962z"/>
			</g>
		</mask>
		<linearGradient id="SVGID_3_" gradientUnits="userSpaceOnUse" x1="115.2393" y1="167.0723" x2="115.2393" y2="189.2871">
			<stop  offset="0" style="stop-color:#000000"/>
			<stop  offset="1" style="stop-color:#000000"/>
		</linearGradient>
		<path fill-rule="evenodd" clip-rule="evenodd" fill="url(#SVGID_3_)" d="M50.423,178.962c0-6.107,28.554-11.89,64.382-11.89
			c35.829,0,65.251,5.782,65.251,11.89c0,5.604-26.265,10.325-65.251,10.325S50.423,184.147,50.423,178.962z"/>
	</g>
</g>
<g opacity="0.85">
	<defs>
		<filter id="Adobe_OpacityMaskFilter_3_" filterUnits="userSpaceOnUse" x="67.278" y="167.072" width="95.92" height="22.215">
			<feFlood  style="flood-color:white;flood-opacity:1" result="back"/>
			<feBlend  in="SourceGraphic" in2="back" mode="normal"/>
		</filter>
	</defs>
	<mask maskUnits="userSpaceOnUse" x="67.278" y="167.072" width="95.92" height="22.215" id="SVGID_4_">
		<g filter="url(#Adobe_OpacityMaskFilter_3_)">
			
				<image overflow="visible" width="1026" height="251" xlink:href="A69B8881.jpg"  transform="matrix(0.095 0 0 0.095 66.4873 166.2803)">
			</image>
		</g>
	</mask>
	<g mask="url(#SVGID_4_)">
		<defs>
			<filter id="Adobe_OpacityMaskFilter_4_" filterUnits="userSpaceOnUse" x="67.278" y="167.072" width="95.92" height="22.215">
				<feFlood  style="flood-color:white;flood-opacity:1" result="back"/>
				<feBlend  in="SourceGraphic" in2="back" mode="normal"/>
			</filter>
		</defs>
		<mask maskUnits="userSpaceOnUse" x="67.278" y="167.072" width="95.92" height="22.215" id="SVGID_4_">
			<g filter="url(#Adobe_OpacityMaskFilter_4_)">
				<defs>
					<filter id="Adobe_OpacityMaskFilter_5_" filterUnits="userSpaceOnUse" x="67.278" y="167.072" width="95.92" height="22.215">
						<feFlood  style="flood-color:white;flood-opacity:1" result="back"/>
						<feBlend  in="SourceGraphic" in2="back" mode="normal"/>
					</filter>
				</defs>
				<mask maskUnits="userSpaceOnUse" x="67.278" y="167.072" width="95.92" height="22.215" id="SVGID_4_">
					<g filter="url(#Adobe_OpacityMaskFilter_5_)">
					</g>
				</mask>
				<linearGradient id="SVGID_5_" gradientUnits="userSpaceOnUse" x1="115.2383" y1="167.0723" x2="115.2383" y2="189.2871">
					<stop  offset="0" style="stop-color:#000000"/>
					<stop  offset="1" style="stop-color:#FFFFFF"/>
				</linearGradient>
				<path fill-rule="evenodd" clip-rule="evenodd" fill="url(#SVGID_5_)" d="M67.278,178.962c0-6.107,21.129-11.89,47.64-11.89
					s48.28,5.782,48.28,11.89c0,5.604-19.433,10.325-48.28,10.325C86.069,189.287,67.278,184.147,67.278,178.962z"/>
			</g>
		</mask>
		<linearGradient id="SVGID_6_" gradientUnits="userSpaceOnUse" x1="115.2383" y1="167.0723" x2="115.2383" y2="189.2871">
			<stop  offset="0" style="stop-color:#000000"/>
			<stop  offset="1" style="stop-color:#000000"/>
		</linearGradient>
		<path fill-rule="evenodd" clip-rule="evenodd" fill="url(#SVGID_6_)" d="M67.278,178.962c0-6.107,21.129-11.89,47.64-11.89
			s48.28,5.782,48.28,11.89c0,5.604-19.433,10.325-48.28,10.325C86.069,189.287,67.278,184.147,67.278,178.962z"/>
	</g>
</g>
<linearGradient id="SVGID_7_" gradientUnits="userSpaceOnUse" x1="99.3701" y1="3.6309" x2="131.6983" y2="186.9734">
	<stop  offset="0" style="stop-color:#FF8C8F"/>
	<stop  offset="0.3804" style="stop-color:#F21818"/>
	<stop  offset="0.4461" style="stop-color:#E51515"/>
	<stop  offset="0.5683" style="stop-color:#C20E0E"/>
	<stop  offset="0.7324" style="stop-color:#8A0202"/>
	<stop  offset="0.7607" style="stop-color:#800000"/>
</linearGradient>
<path fill-rule="evenodd" clip-rule="evenodd" fill="url(#SVGID_7_)" d="M114.609,169.337c30.775,0,34.042-45.07,34.042-78.096
	c0-38.276-5.896-75.379-34.042-75.379c-28.143,0-33.419,39.803-33.419,75.458C81.19,124.351,84.277,169.337,114.609,169.337z
	 M114.607,0.712c50.387,0,87.06,36.439,87.06,92.198c0,49.236-34.69,93.927-87.057,93.927c-51.857,0-86.277-44.703-86.277-93.927
	C28.333,37.596,63.761,0.712,114.607,0.712z"/>
<defs>
	<filter id="Adobe_OpacityMaskFilter_6_" filterUnits="userSpaceOnUse" x="65.407" y="168.7" width="98.73" height="16.556">
		<feFlood  style="flood-color:white;flood-opacity:1" result="back"/>
		<feBlend  in="SourceGraphic" in2="back" mode="normal"/>
	</filter>
</defs>
<mask maskUnits="userSpaceOnUse" x="65.407" y="168.7" width="98.73" height="16.556" id="SVGID_8_">
	<g filter="url(#Adobe_OpacityMaskFilter_6_)">
		<defs>
			<filter id="Adobe_OpacityMaskFilter_7_" filterUnits="userSpaceOnUse" x="65.407" y="168.7" width="98.73" height="16.556">
				<feFlood  style="flood-color:white;flood-opacity:1" result="back"/>
				<feBlend  in="SourceGraphic" in2="back" mode="normal"/>
			</filter>
		</defs>
		<mask maskUnits="userSpaceOnUse" x="65.407" y="168.7" width="98.73" height="16.556" id="SVGID_8_">
			<g filter="url(#Adobe_OpacityMaskFilter_7_)">
			</g>
		</mask>
		<linearGradient id="SVGID_9_" gradientUnits="userSpaceOnUse" x1="114.7725" y1="168.8555" x2="114.7725" y2="185.4111">
			<stop  offset="0" style="stop-color:#000000"/>
			<stop  offset="0.0893" style="stop-color:#0D0D0D"/>
			<stop  offset="0.254" style="stop-color:#2F2F2F"/>
			<stop  offset="0.476" style="stop-color:#666666"/>
			<stop  offset="0.7432" style="stop-color:#B1B1B1"/>
			<stop  offset="1" style="stop-color:#FFFFFF"/>
		</linearGradient>
		<path mask="url(#SVGID_8_)" fill-rule="evenodd" clip-rule="evenodd" fill="url(#SVGID_9_)" d="M164.138,168.7
			c-12.472,10.558-28.933,16.556-49.515,16.556c-20.4,0-36.778-5.998-49.216-16.556l42.199,0.003
			c2.162,0.572,4.496,0.873,7.016,0.873c2.556,0,4.92-0.301,7.106-0.873L164.138,168.7z"/>
	</g>
</mask>
<linearGradient id="SVGID_10_" gradientUnits="userSpaceOnUse" x1="114.7725" y1="168.8555" x2="114.7725" y2="185.4111">
	<stop  offset="0" style="stop-color:#FF444C"/>
	<stop  offset="0.2367" style="stop-color:#FF393F"/>
	<stop  offset="0.6708" style="stop-color:#FF1B1E"/>
	<stop  offset="1" style="stop-color:#FF0000"/>
</linearGradient>
<path opacity="0.5" fill-rule="evenodd" clip-rule="evenodd" fill="url(#SVGID_10_)" d="M164.138,168.7
	c-12.472,10.558-28.933,16.556-49.515,16.556c-20.4,0-36.778-5.998-49.216-16.556l42.199,0.003c2.162,0.572,4.496,0.873,7.016,0.873
	c2.556,0,4.92-0.301,7.106-0.873L164.138,168.7z"/>
<linearGradient id="SVGID_11_" gradientUnits="userSpaceOnUse" x1="113.999" y1="167.4072" x2="115.9103" y2="11.0825">
	<stop  offset="0" style="stop-color:#E60000"/>
	<stop  offset="0.3568" style="stop-color:#DC0B0A"/>
	<stop  offset="0.9811" style="stop-color:#C02825"/>
	<stop  offset="1" style="stop-color:#BF2926"/>
</linearGradient>
<path opacity="0.8" fill-rule="evenodd" clip-rule="evenodd" fill="url(#SVGID_11_)" d="M114.595,167.176
	c-31.372,0-33.244-43.061-33.244-75.952c0-38.581,4.114-71.917,33.244-71.917c29.134,0,34.06,33.723,34.06,71.801
	C148.654,124.054,146.416,167.176,114.595,167.176z M114.606,14.781c-34.916,0-38.058,44.102-38.058,76.419
	c0,36.589,6.553,79.924,38.058,79.924c32.87,0,38.716-43.481,38.716-80.002C153.322,59.32,149.58,14.781,114.606,14.781z"/>
<linearGradient id="SVGID_12_" gradientUnits="userSpaceOnUse" x1="114.9346" y1="166.291" x2="114.9346" y2="12.3818">
	<stop  offset="0" style="stop-color:#B80000"/>
	<stop  offset="1" style="stop-color:#990000"/>
</linearGradient>
<path fill-rule="evenodd" clip-rule="evenodd" fill="url(#SVGID_12_)" d="M114.611,166.06c-30.317,0-32.101-42.364-32.101-74.718
	c0-37.962,3.949-70.706,32.101-70.706c28.153,0,32.904,33.126,32.904,70.59C147.516,123.634,145.362,166.06,114.611,166.06z
	 M114.623,16.035c-33.74,0-36.755,43.491-36.755,75.285c0,35.995,6.311,78.624,36.755,78.624c31.762,0,37.379-42.773,37.379-78.703
	C152.002,59.953,148.418,16.035,114.623,16.035z"/>
<g opacity="0.5">
	<defs>
		<filter id="Adobe_OpacityMaskFilter_8_" filterUnits="userSpaceOnUse" x="81.092" y="19.436" width="67.887" height="71.039">
			<feFlood  style="flood-color:white;flood-opacity:1" result="back"/>
			<feBlend  in="SourceGraphic" in2="back" mode="normal"/>
		</filter>
	</defs>
	<mask maskUnits="userSpaceOnUse" x="81.092" y="19.436" width="67.887" height="71.039" id="SVGID_13_">
		<g filter="url(#Adobe_OpacityMaskFilter_8_)">
			
				<image overflow="visible" width="731" height="765" xlink:href="A69B8887.jpg"  transform="matrix(0.095 0 0 0.095 80.2988 18.6445)">
			</image>
		</g>
	</mask>
	<g mask="url(#SVGID_13_)">
		<defs>
			<filter id="Adobe_OpacityMaskFilter_9_" filterUnits="userSpaceOnUse" x="81.092" y="19.436" width="67.887" height="71.039">
				<feFlood  style="flood-color:white;flood-opacity:1" result="back"/>
				<feBlend  in="SourceGraphic" in2="back" mode="normal"/>
			</filter>
		</defs>
		<mask maskUnits="userSpaceOnUse" x="81.092" y="19.436" width="67.887" height="71.039" id="SVGID_13_">
			<g filter="url(#Adobe_OpacityMaskFilter_9_)">
				<defs>
					<filter id="Adobe_OpacityMaskFilter_10_" filterUnits="userSpaceOnUse" x="81.092" y="19.436" width="67.887" height="71.039">
						<feFlood  style="flood-color:white;flood-opacity:1" result="back"/>
						<feBlend  in="SourceGraphic" in2="back" mode="normal"/>
					</filter>
				</defs>
				<mask maskUnits="userSpaceOnUse" x="81.092" y="19.436" width="67.887" height="71.039" id="SVGID_13_">
					<g filter="url(#Adobe_OpacityMaskFilter_10_)">
					</g>
				</mask>
				<linearGradient id="SVGID_14_" gradientUnits="userSpaceOnUse" x1="115.0352" y1="88.7881" x2="115.0352" y2="17.749">
					<stop  offset="0" style="stop-color:#000000"/>
					<stop  offset="0.1423" style="stop-color:#2F2F2F"/>
					<stop  offset="0.3796" style="stop-color:#787878"/>
					<stop  offset="0.5926" style="stop-color:#B2B2B2"/>
					<stop  offset="0.7734" style="stop-color:#DCDCDC"/>
					<stop  offset="0.9151" style="stop-color:#F6F6F6"/>
					<stop  offset="1" style="stop-color:#FFFFFF"/>
				</linearGradient>
				<path fill-rule="evenodd" clip-rule="evenodd" fill="url(#SVGID_14_)" d="M81.092,90.475c0-33.976,4.884-69.839,33.517-69.839
					c28.636,0,34.37,37.537,34.37,69.226c0-28.624-4.177-70.426-34.326-70.426C84.562,19.436,81.092,61.356,81.092,90.475z"/>
			</g>
		</mask>
		<linearGradient id="SVGID_15_" gradientUnits="userSpaceOnUse" x1="115.0352" y1="88.7881" x2="115.0352" y2="17.749">
			<stop  offset="0" style="stop-color:#CF0000"/>
			<stop  offset="0.1308" style="stop-color:#BF0000"/>
			<stop  offset="0.5151" style="stop-color:#960000"/>
			<stop  offset="0.8181" style="stop-color:#7C0000"/>
			<stop  offset="1" style="stop-color:#730000"/>
		</linearGradient>
		<path fill-rule="evenodd" clip-rule="evenodd" fill="url(#SVGID_15_)" d="M81.092,90.475c0-33.976,4.884-69.839,33.517-69.839
			c28.636,0,34.37,37.537,34.37,69.226c0-28.624-4.177-70.426-34.326-70.426C84.562,19.436,81.092,61.356,81.092,90.475z"/>
	</g>
</g>
<g opacity="0.15">
	<defs>
		<filter id="Adobe_OpacityMaskFilter_11_" filterUnits="userSpaceOnUse" x="82.213" y="96.563" width="65.644" height="70.945">
			<feFlood  style="flood-color:white;flood-opacity:1" result="back"/>
			<feBlend  in="SourceGraphic" in2="back" mode="normal"/>
		</filter>
	</defs>
	<mask maskUnits="userSpaceOnUse" x="82.213" y="96.563" width="65.644" height="70.945" id="SVGID_16_">
		<g filter="url(#Adobe_OpacityMaskFilter_11_)">
			
				<image overflow="visible" width="708" height="764" xlink:href="A69B8880.jpg"  transform="matrix(0.095 0 0 0.095 81.4199 95.7715)">
			</image>
		</g>
	</mask>
	<g mask="url(#SVGID_16_)">
		<defs>
			<filter id="Adobe_OpacityMaskFilter_12_" filterUnits="userSpaceOnUse" x="82.213" y="96.563" width="65.644" height="70.945">
				<feFlood  style="flood-color:white;flood-opacity:1" result="back"/>
				<feBlend  in="SourceGraphic" in2="back" mode="normal"/>
			</filter>
		</defs>
		<mask maskUnits="userSpaceOnUse" x="82.213" y="96.563" width="65.644" height="70.945" id="SVGID_16_">
			<g filter="url(#Adobe_OpacityMaskFilter_12_)">
				<defs>
					<filter id="Adobe_OpacityMaskFilter_13_" filterUnits="userSpaceOnUse" x="82.213" y="96.563" width="65.644" height="70.945">
						<feFlood  style="flood-color:white;flood-opacity:1" result="back"/>
						<feBlend  in="SourceGraphic" in2="back" mode="normal"/>
					</filter>
				</defs>
				<mask maskUnits="userSpaceOnUse" x="82.213" y="96.563" width="65.644" height="70.945" id="SVGID_16_">
					<g filter="url(#Adobe_OpacityMaskFilter_13_)">
					</g>
				</mask>
				
					<linearGradient id="SVGID_17_" gradientUnits="userSpaceOnUse" x1="113.7822" y1="43.1055" x2="113.7822" y2="-27.8398" gradientTransform="matrix(-1 0 0 -1 228.8164 141.3516)">
					<stop  offset="0" style="stop-color:#000000"/>
					<stop  offset="0.1423" style="stop-color:#2F2F2F"/>
					<stop  offset="0.3796" style="stop-color:#787878"/>
					<stop  offset="0.5926" style="stop-color:#B2B2B2"/>
					<stop  offset="0.7734" style="stop-color:#DCDCDC"/>
					<stop  offset="0.9151" style="stop-color:#F6F6F6"/>
					<stop  offset="1" style="stop-color:#FFFFFF"/>
				</linearGradient>
				<path fill-rule="evenodd" clip-rule="evenodd" fill="url(#SVGID_17_)" d="M147.856,96.563c0,33.977-5.24,69.745-32.939,69.745
					c-27.702,0-32.704-37.441-32.704-69.13c0,28.624,3.495,70.33,32.662,70.33C143.985,167.508,147.856,125.683,147.856,96.563z"/>
			</g>
		</mask>
		
			<linearGradient id="SVGID_18_" gradientUnits="userSpaceOnUse" x1="113.7822" y1="43.1055" x2="113.7822" y2="-27.8398" gradientTransform="matrix(-1 0 0 -1 228.8164 141.3516)">
			<stop  offset="0" style="stop-color:#CF0000"/>
			<stop  offset="0.1308" style="stop-color:#BF0000"/>
			<stop  offset="0.5151" style="stop-color:#960000"/>
			<stop  offset="0.8181" style="stop-color:#7C0000"/>
			<stop  offset="1" style="stop-color:#730000"/>
		</linearGradient>
		<path fill-rule="evenodd" clip-rule="evenodd" fill="url(#SVGID_18_)" d="M147.856,96.563c0,33.977-5.24,69.745-32.939,69.745
			c-27.702,0-32.704-37.441-32.704-69.13c0,28.624,3.495,70.33,32.662,70.33C143.985,167.508,147.856,125.683,147.856,96.563z"/>
	</g>
</g>
<linearGradient id="SVGID_19_" gradientUnits="userSpaceOnUse" x1="30.2705" y1="139.3477" x2="199.915" y2="139.3477">
	<stop  offset="0" style="stop-color:#E8000F"/>
	<stop  offset="1" style="stop-color:#E0000F"/>
</linearGradient>
<path opacity="0.8" fill-rule="evenodd" clip-rule="evenodd" fill="url(#SVGID_19_)" d="M30.271,92.868
	c0,48.694,32.4,92.959,84.337,92.959c53.264,0,85.308-46.632,85.308-92.959c0,45.91-32.815,92.217-85.31,92.217
	C63.452,185.085,30.271,141.118,30.271,92.868z"/>
<defs>
	<filter id="Adobe_OpacityMaskFilter_14_" filterUnits="userSpaceOnUse" x="30.983" y="0.992" width="168.962" height="89.332">
		<feFlood  style="flood-color:white;flood-opacity:1" result="back"/>
		<feBlend  in="SourceGraphic" in2="back" mode="normal"/>
	</filter>
</defs>
<mask maskUnits="userSpaceOnUse" x="30.983" y="0.992" width="168.962" height="89.332" id="SVGID_20_">
	<g filter="url(#Adobe_OpacityMaskFilter_14_)">
		<defs>
			<filter id="Adobe_OpacityMaskFilter_15_" filterUnits="userSpaceOnUse" x="30.983" y="0.992" width="168.962" height="89.332">
				<feFlood  style="flood-color:white;flood-opacity:1" result="back"/>
				<feBlend  in="SourceGraphic" in2="back" mode="normal"/>
			</filter>
		</defs>
		<mask maskUnits="userSpaceOnUse" x="30.983" y="0.992" width="168.962" height="89.332" id="SVGID_20_">
			<g filter="url(#Adobe_OpacityMaskFilter_15_)">
			</g>
		</mask>
		<linearGradient id="SVGID_21_" gradientUnits="userSpaceOnUse" x1="115.4639" y1="76.3623" x2="115.4639" y2="-6.8609">
			<stop  offset="0" style="stop-color:#000000"/>
			<stop  offset="0.0952" style="stop-color:#060606"/>
			<stop  offset="0.2197" style="stop-color:#161616"/>
			<stop  offset="0.3604" style="stop-color:#313131"/>
			<stop  offset="0.5132" style="stop-color:#575757"/>
			<stop  offset="0.6756" style="stop-color:#888888"/>
			<stop  offset="0.8434" style="stop-color:#C2C2C2"/>
			<stop  offset="1" style="stop-color:#FFFFFF"/>
		</linearGradient>
		<path mask="url(#SVGID_20_)" fill-rule="evenodd" clip-rule="evenodd" fill="url(#SVGID_21_)" d="M30.983,90.324
			c0-39.207,25.904-87.509,83.886-87.509c48.299,0,85.076,37.346,85.076,87.509c0-50.664-33.515-89.332-85.076-89.332
			C62.915,0.992,30.983,38.606,30.983,90.324z"/>
	</g>
</mask>
<linearGradient id="SVGID_22_" gradientUnits="userSpaceOnUse" x1="115.4639" y1="76.3623" x2="115.4639" y2="-6.8609">
	<stop  offset="0" style="stop-color:#FFFFFF"/>
	<stop  offset="1" style="stop-color:#FFFFFF"/>
</linearGradient>
<path opacity="0.65" fill-rule="evenodd" clip-rule="evenodd" fill="url(#SVGID_22_)" d="M30.983,90.324
	c0-39.207,25.904-87.509,83.886-87.509c48.299,0,85.076,37.346,85.076,87.509c0-50.664-33.515-89.332-85.076-89.332
	C62.915,0.992,30.983,38.606,30.983,90.324z"/>
</svg>
