<?xml version="1.0" encoding="utf-8"?>
<!-- Generator: Adobe Illustrator 16.0.0, SVG Export Plug-In . SVG Version: 6.00 Build 0)  -->
<!DOCTYPE svg PUBLIC "-//W3C//DTD SVG 1.1//EN" "http://www.w3.org/Graphics/SVG/1.1/DTD/svg11.dtd">
<svg version="1.1" id="Layer_1" xmlns="http://www.w3.org/2000/svg" xmlns:xlink="http://www.w3.org/1999/xlink" x="0px" y="0px"
	 width="230px" height="190px" viewBox="0 0 230 190" enable-background="new 0 0 230 190" xml:space="preserve">
<g id="XMLID_1_">
	<g>
		<path fill="#97C03E" d="M173.156,56.396v33.35c0,2.248-0.913,4.292-2.393,5.764c-1.472,1.479-3.516,2.393-5.764,2.393
			c-4.509,0-8.156-3.654-8.156-8.157v-33.35c0-2.248,0.914-4.292,2.386-5.764c1.479-1.479,3.517-2.393,5.771-2.393
			C169.502,48.24,173.156,51.895,173.156,56.396z"/>
		<path fill="#97C03E" d="M151.464,48.24v57.638c0,5.002,0,9.063-9.063,9.063h-4.351v18.307c0,4.502-3.653,8.156-8.156,8.156
			c-4.502,0-8.156-3.654-8.156-8.156V114.94h-13.412v18.307c0,4.502-3.654,8.156-8.156,8.156s-8.156-3.654-8.156-8.156V114.94
			h-4.712c-9.063,0-9.063-4.061-9.063-9.063V48.24H151.464z"/>
		<path fill="#97C03E" d="M151.464,42.984H78.239c0-11.107,7.787-20.764,19.241-25.694l-6.742-9.744
			c-0.326-0.464-0.203-1.109,0.261-1.428c0.464-0.326,1.102-0.21,1.428,0.261l7.018,10.135c4.684-1.74,9.904-2.711,15.406-2.711
			c5.59,0,10.882,1,15.624,2.792l7.069-10.215c0.326-0.471,0.964-0.587,1.436-0.261c0.464,0.319,0.58,0.964,0.254,1.428
			l-6.809,9.838C143.772,22.336,151.464,31.942,151.464,42.984z M134.876,28.934c0-2.248-1.82-4.075-4.075-4.075
			c-2.254,0-4.074,1.827-4.074,4.075c0,2.255,1.82,4.082,4.074,4.082C133.056,33.015,134.876,31.188,134.876,28.934z
			 M103.165,28.934c0-2.248-1.827-4.075-4.082-4.075s-4.082,1.827-4.082,4.075c0,2.255,1.827,4.082,4.082,4.082
			S103.165,31.188,103.165,28.934z"/>
		<path fill="#97C03E" d="M73.164,56.396v33.35c0,2.248-0.914,4.292-2.393,5.764c-1.472,1.479-3.516,2.393-5.764,2.393
			c-4.502,0-8.156-3.654-8.156-8.157v-33.35c0-2.248,0.914-4.292,2.393-5.764c1.472-1.479,3.516-2.393,5.764-2.393
			C69.51,48.24,73.164,51.895,73.164,56.396z"/>
	</g>
	<g>
		<path fill="none" stroke="#010101" d="M73.164,56.396c0-4.502-3.654-8.156-8.156-8.156c-2.248,0-4.292,0.914-5.764,2.393
			c-1.479,1.472-2.393,3.516-2.393,5.764v33.35c0,4.502,3.654,8.157,8.156,8.157c2.248,0,4.292-0.914,5.764-2.393
			c1.479-1.472,2.393-3.517,2.393-5.764V56.396z"/>
		<path fill="none" stroke="#010101" d="M78.239,48.24v57.638c0,5.002,0,9.063,9.063,9.063h4.712v18.307
			c0,4.502,3.654,8.156,8.156,8.156s8.156-3.654,8.156-8.156V114.94h13.412v18.307c0,4.502,3.654,8.156,8.156,8.156
			c4.503,0,8.156-3.654,8.156-8.156V114.94h4.351c9.063,0,9.063-4.061,9.063-9.063V48.24H78.239z"/>
		<path fill="none" stroke="#010101" d="M103.165,28.934c0,2.255-1.827,4.082-4.082,4.082s-4.082-1.827-4.082-4.082
			c0-2.248,1.827-4.075,4.082-4.075S103.165,26.686,103.165,28.934z"/>
		<path fill="none" stroke="#010101" d="M134.876,28.934c0,2.255-1.82,4.082-4.075,4.082c-2.254,0-4.074-1.827-4.074-4.082
			c0-2.248,1.82-4.075,4.074-4.075C133.056,24.859,134.876,26.686,134.876,28.934z"/>
		<path fill="none" stroke="#010101" d="M132.425,17.384l6.809-9.838c0.326-0.464,0.21-1.109-0.254-1.428
			c-0.472-0.326-1.109-0.21-1.436,0.261l-7.069,10.215c-4.741-1.791-10.033-2.792-15.624-2.792c-5.502,0-10.723,0.972-15.406,2.711
			L92.427,6.379c-0.326-0.471-0.964-0.587-1.428-0.261c-0.464,0.319-0.587,0.964-0.261,1.428l6.742,9.744
			c-11.455,4.93-19.241,14.587-19.241,25.694h73.225C151.464,31.942,143.772,22.336,132.425,17.384z"/>
		<path fill="none" stroke="#010101" d="M165,43.021c-3.146,0-6.031,1.095-8.315,2.915v-2.915v-0.037
			c0-10.933-6.228-21.046-16.609-27.477l3.458-4.988c0.949-1.377,1.305-3.03,1.008-4.676c-0.297-1.646-1.226-3.067-2.588-4.017
			c-1.052-0.725-2.284-1.109-3.561-1.109c-2.052,0-3.973,1.007-5.14,2.689l-4.851,7.011c-4.343-1.218-8.889-1.834-13.55-1.834
			c-4.575,0-9.041,0.594-13.318,1.776l-4.814-6.953c-1.167-1.682-3.088-2.689-5.14-2.689c-1.276,0-2.501,0.384-3.552,1.109
			c-1.371,0.95-2.291,2.378-2.588,4.017c-0.297,1.646,0.058,3.299,1.008,4.676l3.371,4.872
			c-10.498,6.416-16.798,16.573-16.798,27.593v0.037v2.689c-2.233-1.682-5.002-2.689-8.011-2.689
			c-7.373,0-13.376,6.003-13.376,13.376v33.35c0,7.374,6.003,13.376,13.376,13.376c3.009,0,5.778-1.008,8.011-2.69v5.445
			c0,4.582,0,14.051,13.775,14.275v13.094c0,7.373,6.003,13.376,13.376,13.376s13.376-6.003,13.376-13.376V120.16h2.972v13.087
			c0,7.373,6.003,13.376,13.376,13.376c7.374,0,13.377-6.003,13.377-13.376v-13.102c13.412-0.384,13.412-9.729,13.412-14.268v-5.67
			c2.284,1.82,5.169,2.915,8.315,2.915c7.374,0,13.377-6.003,13.377-13.376v-33.35C178.376,49.023,172.374,43.021,165,43.021z"/>
		<path fill="none" stroke="#010101" d="M173.156,56.396c0-4.502-3.653-8.156-8.156-8.156c-2.254,0-4.292,0.914-5.771,2.393
			c-1.472,1.472-2.386,3.516-2.386,5.764v33.35c0,4.502,3.647,8.157,8.156,8.157c2.248,0,4.292-0.914,5.764-2.393
			c1.479-1.472,2.393-3.517,2.393-5.764V56.396z"/>
	</g>
</g>
<path fill="#010101" d="M28.816,163.143c-6.888,0.496-12.325,6.227-12.325,13.242c0,7.34,5.951,13.292,13.292,13.292h5v-5.221h-5
	c-4.451,0-8.071-3.62-8.071-8.071c0-4.123,3.109-7.529,7.105-8.008l10.875,0.003v21.297h5.075v-26.534H28.816z"/>
<path fill="#010101" d="M64.461,162.428c-7.112,0-12.898,5.788-12.898,12.9v14.349h4.561v-14.349H56.12
	c0.403-4.254,3.982-7.582,8.342-7.582c4.63,0,8.383,3.752,8.383,8.383v13.654h4.516v-14.455
	C77.36,168.216,71.574,162.428,64.461,162.428z"/>
<path fill="#010101" d="M108.867,176.588c0.099-7.111-5.606-12.979-12.718-13.078l-11.991-0.099l-0.064,4.562l11.991,0.099v-0.005
	c4.248,0.463,7.527,4.089,7.466,8.447c-0.065,4.629-3.87,8.33-8.499,8.266l-11.298-0.092l-0.063,4.517l12.097,0.102
	C102.901,189.404,108.768,183.699,108.867,176.588z"/>
<path fill="#010101" d="M157.307,162.172c-7.383,0-13.367,5.984-13.367,13.367s5.984,13.367,13.367,13.367
	s13.367-5.984,13.367-13.367S164.69,162.172,157.307,162.172z M157.307,183.431c-4.359,0-7.893-3.532-7.893-7.892
	c0-4.358,3.533-7.891,7.893-7.891c4.357,0,7.893,3.532,7.893,7.891C165.2,179.898,161.665,183.431,157.307,183.431z"/>
<rect x="176.715" y="163.411" fill="#010101" width="5.318" height="25.896"/>
<path fill="#010101" d="M213.508,176.334c0.1-7.111-5.605-12.979-12.717-13.077l-11.992-0.099l-0.064,4.561l11.992,0.1v-0.005
	c4.247,0.462,7.526,4.088,7.465,8.446c-0.064,4.629-3.869,8.33-8.498,8.266l-11.297-0.091l-0.064,4.516l12.099,0.103
	C207.542,189.151,213.409,183.446,213.508,176.334z"/>
<path fill="#010101" d="M134.481,180.836c2.715-1.678,4.535-4.672,4.535-8.09c0-5.244-4.267-9.51-9.51-9.51H115.61v5.211
	l13.896,0.01c2.369,0,4.289,1.92,4.289,4.289s-1.92,4.289-4.289,4.289H115.61v5.316c0,0,11.564,0,13.208,0
	c1.646,0,3.237,2.948,3.237,4.833v2.297h5.221v-2.297C137.277,184.67,136.196,182.414,134.481,180.836z"/>
</svg>
