<?xml version="1.0" encoding="utf-8"?>
<!-- Generator: Adobe Illustrator 16.0.0, SVG Export Plug-In . SVG Version: 6.00 Build 0)  -->
<!DOCTYPE svg PUBLIC "-//W3C//DTD SVG 1.1//EN" "http://www.w3.org/Graphics/SVG/1.1/DTD/svg11.dtd">
<svg version="1.1" id="Layer_1" xmlns="http://www.w3.org/2000/svg" xmlns:xlink="http://www.w3.org/1999/xlink" x="0px" y="0px"
	 width="230px" height="190px" viewBox="0 0 230 190" enable-background="new 0 0 230 190" xml:space="preserve">
<radialGradient id="path997_1_" cx="-72.8066" cy="517.2207" r="1.841" gradientTransform="matrix(51.122 0 0 -50.8034 3837.8242 26322.084)" gradientUnits="userSpaceOnUse">
	<stop  offset="0" style="stop-color:#24AEE4"/>
	<stop  offset="1" style="stop-color:#212C60"/>
</radialGradient>
<ellipse id="path997" fill="url(#path997_1_)" cx="114.535" cy="92.549" rx="92.842" ry="92.263">
</ellipse>
<radialGradient id="SVGID_1_" cx="-73.4648" cy="517.7061" r="2.4608" gradientTransform="matrix(39.3228 0 0 -39.166 3003.6528 20308.7285)" gradientUnits="userSpaceOnUse">
	<stop  offset="0" style="stop-color:#0C87BD"/>
	<stop  offset="1" style="stop-color:#0E1128"/>
</radialGradient>
<path fill="url(#SVGID_1_)" d="
	M107.654,0.426c-4.04,0-3.59,0.438-7.181,0.892c-12.119,1.36-23.777,4.998-34.102,11.347c-9.427,5.897-15.341,12.417-22.971,20.128
	c13.079,13.967,40.011,2.091,40.011,2.091c3.143,0.454,3.599,1.825,7.639,1.825c4.937,0,2.699-0.917,7.637-1.825l3.591-5.436
	l1.348-2.717l1.787-2.262l-1.349-6.368c-0.002,0,1.349,0,1.349,0c-0.449-2.723-3.596-4.985-6.29-5.892v-0.913
	c1.349-0.453,3.593-1.806,4.941-1.806c1.346,0,2.243,0.913,3.59,0.913c2.245-0.454,2.704-2.735,6.744-2.281
	c2.691,0.452,2.682,1.816,4.026,3.631c2.695,2.721,2.695,0.464,4.941,5.455c-4.938,0.454-0.905,4.539-0.458,7.261
	c0.45,1.361-0.44,2.249,0.458,3.611c0.45,0.906,2.691,1.826,3.593,2.28c-1.348,1.814-1.806,1.808-4.051,2.262
	c0.45,1.36,0.916,3.18,2.263,4.086c1.348,0.454,6.718-0.459,7.619-0.912c1.795-0.907,3.149-2.719,5.396-2.719l9.857,3.175
	c-1.345,2.721-2.689,2.726-2.242,4.086c0,1.362,1.809,2.725,3.157,3.631c5.384,3.177,2.695,2.271,4.937,4.086l2.682,1.806
	c0.895,0.908,1.806,2.721,3.15,3.175c2.695,0.906,2.234-3.618,1.788-4.98c3.589-0.452,6.292,1.799,8.987,0.437
	c2.241-0.906,2.234-4.99,5.378-3.631c2.688,0.908-0.008,4.102,0.89,6.369c0.451,1.36,1.799,2.267,2.699,3.175l1.803,4.066
	c1.347,1.36,2.497,2.492,4.291,5.212c3.143-7.256-5.64-18.808-10.577-23.345c-2.245-1.813-9.605-24.004-10.506-24.912
	c-1.348-1.814-8.789-5.483-10.585-6.392c-6.281-3.175-13.918-5.443-20.65-6.804c-2.691-0.453-10.322-1.805-13.011-1.805H107.654z
	 M118.109,28.615c-1.336-0.446-3.118,1.775-4.009,2.221c-2.671,2.226-3.552,0.906-4.442,2.241c-1.336,0.891-2.675,4-0.892,4.445
	l3.569-0.437c1.336,0,1.778-0.011,3.114-0.458c-0.445,0.891-1.337,2.682-0.892,3.572c0.891,1.335,5.349-1.341,5.792-1.786
	c0.89-1.78-0.901-2.222-0.458-6.229C118.112,29.96,119.446,29.059,118.109,28.615z M140.466,57.201
	c-0.43-0.063-0.908-0.073-1.469,0.039c-4.497,0.9-0.007,4.945,0.894,8.094c0.447,0.899,0.462,2.249-0.436,2.698
	c-0.901,0.899-2.26-0.899-3.611-1.348l-2.699-0.439c-1.798-0.898-3.597-4.06-8.095-2.261c-4.046,1.8-0.453,4.953-0.453,7.202
	c0,1.349-1.341,2.255-2.242,3.153c0.901,2.699,1.796,1.786,4.047,3.136c1.799,0.899,2.253,2.703,3.153,3.153l5.399,1.35
	c-1.803,4.047-3.607,4.952-3.156,9.898c0,0.9,0.461,1.792,0.914,2.241c0.897,1.35,4.037-0.443,4.938,1.806
	c0.447,1.35-0.9,2.232-1.348,3.135c-0.451,1.348-0.451,1.805,0,3.156c0.896-0.454,3.146-1.352,4.043,0c0,0.447,0,0.896,0,1.348
	c-0.446,0.447-1.794,0.901-2.695,1.348c-3.149,1.802-1.794,3.156-6.747,3.156c0.901,1.35,2.242,3.597,2.242,5.393
	c-0.9,3.149-4.703,0.318-6.952,0.767c-1.351,0.453-2.943,2.837-4.295,3.737l-11.859,6.022c-8.547,4.048-15.455,3.731-24.9,3.731
	c3.148,4.045,14.282,12.729,19.681,13.181c0-2.702,0.005-4.511,1.804-6.309c0.45-0.451,0.887-0.892,1.786-0.892
	c0.45,0,5.403-0.006,3.154-3.156c0-0.447-0.443-0.443-0.894-0.895l3.592-3.589l3.152-3.153l-1.803,9.442l4.046-1.353l5.852,1.353
	l4.047,0.457c-0.9,3.146,0.901,3.146,2.696,5.396c1.352,1.799,1.358,2.685,1.809,4.483c6.144-0.702,11.414-3.679,14.838-8.53
	c0.45-0.901,0.443-4.512,0.89-6.308c0.454-1.802,0.901-6.299,4.051-5.398c0.447,0,0.897,0.461,1.348,0.916
	c4.498-1.352,1.363-4.498-0.436-6.747c1.351-0.45,4.047-0.45,5.395-1.348c1.802-1.351,0.901-3.164,1.349-4.958
	c0-1.803,0.893-2.696,0.893-4.945c0-2.245-1.79-3.598-0.893-5.392c0.9-2.249,2.691,0,4.94-1.347
	c1.352-1.353,0.004-2.266,3.153-4.964c-0.896-4.946,1.348-3.589,1.348-8.985c-1.795-0.899-1.795-0.899-2.695-2.698
	c-1.349,0-3.153,0-4.505,0c-1.349,0.449-2.245,1.343-4.044,0.893c-2.248-0.899-2.256-3.134-3.156-4.483
	c-0.447-0.451-1.799-1.362-1.349-2.262c0-0.898,3.157-4.047,0.454-5.396c-0.897-0.449-1.802,0.457-4.501,0.457
	c0.45-1.35,2.713-3.592,2.26-4.941c0-1.348-1.355-2.253-1.803-3.152c-3.149-4.047-1.809-4.51-7.657-4.959
	C142.587,58.134,141.75,57.391,140.466,57.201z"/>
<path id="path9" fill="#F58236" d="M183.726,27.835l-6.604-2.109c9.463,6.888,17.92,18.152,22.041,27.38
	c-2.058-17.378-14.313-32.157-33.328-37.92C175.574,19.965,181.526,24.134,183.726,27.835z"/>
<linearGradient id="path1351_1_" gradientUnits="userSpaceOnUse" x1="-78.46" y1="513.3955" x2="-81.0796" y2="517.492" gradientTransform="matrix(15.2874 0 0 -16.0154 1295.5687 8369.6152)">
	<stop  offset="0" style="stop-color:#EE6A23"/>
	<stop  offset="1" style="stop-color:#AC2C24"/>
</linearGradient>
<path id="path1351" fill="url(#path1351_1_)" d="M63.376,83.784c-6.979,2.949-11.159,10.632-11.486,19.062
	c0.327,11.194,5.849,20.119,16.247,26.071c8.245,5.104,17.296,9.133,26.523,11.662c4.497,1.497,8.82,1.447,12.756,1.309
	c-7.683-2.575-14.646-6.977-20.829-13.251c-3.888-4.169-7.087-9.177-9.522-14.938c-2.389-8.292-3.184-15.046-2.479-20.294v-0.041
	c0.187-4.589,2.099-7.115,5.752-7.677c-2.623-0.234-4.439-0.389-5.376-0.437c-0.843-0.046-1.695-0.093-2.54-0.139
	C67.422,84.852,68.307,83.85,63.376,83.784z"/>
<path id="path10" fill="#EE6623" d="M159.464,23.525
	c-4.828-0.891-9.183-0.563-13.025,0.937c27.543,10.866,40.614,23.795,39.114,38.737c-2.016-3.138-4.687-5.199-8.105-6.229
	c4.218,16.395,4.64,29.93,1.221,40.61c-2.342-7.12-4.498-11.384-6.421-12.882c2.675,21.97-0.937,38.222-10.818,48.807
	c1.872-6.462,2.625-11.755,2.199-15.926c-11.613,17.381-24.821,26.372-39.627,26.937c-5.853-0.05-11.382-0.937-16.579-2.625
	c-3.936,0.142-8.151-0.515-12.648-2.016c-9.229-2.528-17.939-6.319-26.185-11.428c-10.398-5.948-15.784-14.521-16.112-25.716
	c0.328-8.432,3.981-14.098,10.96-17.049c0.469-0.188,0.984-0.376,1.498-0.563c2.532-0.048,5.013-0.048,7.496,0l0,0
	c0.844,0.047,1.687,0.094,2.528,0.141c0.938,0.046,2.766,0.188,5.388,0.422c4.123,0.374,8.854,1.311,14.192,2.856
	c0.89-5.105-0.28-10.445-3.512-15.926c0-0.048,0-0.094,0-0.094c-0.844-1.872-2.576-3.56-5.293-5.012
	c-3.28-8.338-4.171-16.488-2.764-24.451l0.045-0.234l-0.327-0.328l-15.222,0.516l-25.296-4.215
	c-5.995,3.325-11.101,7.446-15.364,12.412c-0.608,0.842-1.405,2.013-2.342,3.514h-0.047l0.047,0.046
	c2.846,5.761-8.831,32.592-5.573,46.55c13.865,31.509,34.896,42.142,41.548,43.149c20.541,24.269,93.193,29.09,112.468-9.975
	l10.421-10.861c8.35-9.633,9.861-32.467,10.563-56.45c0-0.141,0-0.328,0-0.515c-5.951-20.096-22.999-37.895-13.864-29.511
	c-6.211-12.575-20.236-19.626-30.778-22.39C154.448,17.061,157.867,20.012,159.464,23.525z"/>
<linearGradient id="path11_1_" gradientUnits="userSpaceOnUse" x1="-95.8398" y1="515.5781" x2="-95.4807" y2="518.6729" gradientTransform="matrix(2.3698 0 0 -10.3966 412.1649 5460.2114)">
	<stop  offset="0" style="stop-color:#F58236"/>
	<stop  offset="1" style="stop-color:#FEE725"/>
</linearGradient>
<path id="path11" fill="url(#path11_1_)" d="M180.944,97.973c1.869,1.965,4.328,2.014,7.378,0.149
	c2.852-15.152,0.737-27.3-6.296-36.398C184.484,73.231,184.095,85.282,180.944,97.973z"/>
<linearGradient id="path12_1_" gradientUnits="userSpaceOnUse" x1="-70.8301" y1="515.8379" x2="-74.5205" y2="515.8546" gradientTransform="matrix(54.7749 0 0 -39.1651 4095.9019 20321.5977)">
	<stop  offset="0" style="stop-color:#F58236"/>
	<stop  offset="0.3267" style="stop-color:#F58236"/>
	<stop  offset="0.75" style="stop-color:#B41F24"/>
	<stop  offset="1" style="stop-color:#B41F24"/>
</linearGradient>
<path id="path12" fill="url(#path12_1_)" d="M203.507,68.021
	c-1.592-6.276-4.316-10.47-7.689-14.403c0.703,2.295,2.195,9.675,1.678,13.516c4.64,13.304,5.016,28.432,1.032,45.296
	c5.2-8.712,9.509-18.549,12.976-29.463c-0.14,23.234-60.708,94.479-91.996,99.814l-11.898-18.501
	c17.704-0.748,34.007-6.136,48.904-16.11c0-0.05,0.277-0.188,0.84-0.469c-2.011-2.531-3.652-4.451-4.87-5.668
	c-1.22-1.263-3.887-0.468-7.916,2.434c-5.619,3.376-10.308,5.622-14.1,6.604c-8.151,6.796-17.94,8.903-29.415,6.42
	c-5.809,0.047-11.759-0.797-17.987-2.575c0.869,1.9,2.036,2.565,3.896,4.25c-9.426-2.381-19.426-8.513-26.521-14.699
	c-3.517-1.078-5.524-1.454-12.038-5.572l-0.095,0.046c-1.963-0.325-24.966-32.505-23.655-51.15
	c-1.45,1.875-3.043,7.823-4.823,17.752c-0.516-2.107-0.844-4.401-0.984-6.932c0-0.092,0-0.142,0.048-0.233
	c-1.406-13.632,3.56-25.34,14.896-35.13c0.937-2.951,2.646-6.724,3.911-9.205l-0.141-0.328c-7.869,2.997-15.623,10.89-21.993,21.43
	c-0.046,1.125,0.048,2.2,0.328,3.186l5.809-4.73c-2.107,5.292-3.514,10.913-4.216,16.862c-2.155,19.532,3.327,38.831,16.536,57.894
	c19.813,25.623,44.733,39.351,74.711,41.174c29.981,1.781,55.555-9.271,76.681-33.069c14.285-17.519,23.043-35.835,26.323-54.989
	c3.281-13.163,3.653-24.546,1.079-34.101c-0.892,6.838-1.877,10.352-2.859,10.585c-0.28-11.382-1.97-21.548-5.104-30.494
	C206.678,57.156,205.427,60.526,203.507,68.021z"/>
<linearGradient id="path14_1_" gradientUnits="userSpaceOnUse" x1="-78.3237" y1="514.0654" x2="-75.7232" y2="516.5041" gradientTransform="matrix(7.9183 0 0 -18.3126 807.4314 9556.2607)">
	<stop  offset="0" style="stop-color:#F58236"/>
	<stop  offset="1" style="stop-color:#FEE725"/>
</linearGradient>
<path id="path14" fill="url(#path14_1_)" d="M187.705,127.654c-1.313,4.73-2.993,9.179-4.966,13.351l3.235,8.478
	c16.862-21.126,25.389-43.281,25.528-66.516c-3.467,10.914-7.775,20.751-12.976,29.463
	C195.246,117.956,191.643,123.015,187.705,127.654z"/>
<linearGradient id="path15_1_" gradientUnits="userSpaceOnUse" x1="-75.4619" y1="513.3867" x2="-72.1972" y2="515.3105" gradientTransform="matrix(23.0931 0 0 -19.0392 1866.7751 9940.6895)">
	<stop  offset="0" style="stop-color:#DC4C26"/>
	<stop  offset="0.5" style="stop-color:#FFC733"/>
	<stop  offset="1" style="stop-color:#FCF6B7"/>
</linearGradient>
<path id="path15" fill="url(#path15_1_)" d="M183.215,140.667c1.993-4.224,3.703-8.735,5.033-13.535
	c1.139-4.182,2.043-8.594,2.66-13.252c-3.232,4.083-6.367,7.886-9.499,11.447c-2.756,3.136-5.508,6.03-8.169,8.739
	c-5.462,5.413-10.733,9.925-15.77,13.395c-0.568,0.283-0.855,0.425-0.855,0.476c-15.104,10.115-31.633,15.577-49.586,16.337
	l12.065,18.763C150.823,177.617,172.194,163.514,183.215,140.667z"/>
<linearGradient id="path16_1_" gradientUnits="userSpaceOnUse" x1="-91.7505" y1="513.1328" x2="-91.4945" y2="516.3193" gradientTransform="matrix(3.1725 0 0 -9.8914 466.2879 5209.0884)">
	<stop  offset="0" style="stop-color:#F58236"/>
	<stop  offset="1" style="stop-color:#FEE725"/>
</linearGradient>
<path id="path16" fill="url(#path16_1_)" d="M180.963,125.873c0.188-2.575,0.233-5.107,0.138-7.495
	c-0.234-7.026-1.873-13.581-4.966-19.813c0.426,12.645-1.73,23.563-6.509,32.789l3.281,3.139
	C175.528,131.821,178.245,128.967,180.963,125.873z"/>
<linearGradient id="path17_1_" gradientUnits="userSpaceOnUse" x1="-87.2158" y1="521.5908" x2="-86.0253" y2="523.7784" gradientTransform="matrix(8.4986 0 0 -7.1005 816.734 3745.3145)">
	<stop  offset="0" style="stop-color:#EE6623"/>
	<stop  offset="1" style="stop-color:#F7D7AD"/>
</linearGradient>
<path id="path17" fill="url(#path17_1_)" d="M71.682,33.972c-1.921,2.247-3.327,4.73-4.169,7.493
	c-0.046,0.562-0.046,1.03-0.046,1.546c3.465,4.872,8.571,4.73,15.222-0.516c0.188-0.093,0.327-0.234,0.468-0.326
	c0.796-4.264,2.109-7.918,3.981-11.057l0.422-0.374c1.875-3.092,5.48-6.417,10.774-9.977C88.496,21.979,79.597,26.383,71.682,33.972
	z"/>
<linearGradient id="path20_1_" gradientUnits="userSpaceOnUse" x1="-91.1538" y1="519.2764" x2="-92.7187" y2="522.5941" gradientTransform="matrix(6.0189 0 0 -6.7834 644.4442 3587.95)">
	<stop  offset="0" style="stop-color:#DC5726"/>
	<stop  offset="1" style="stop-color:#931A1D"/>
</linearGradient>
<path id="path20" fill="url(#path20_1_)" d="M83.016,43.058h-0.045c-1.407,7.963-0.517,16.113,2.764,24.451
	c5.105-3.045,11.241-5.763,18.454-8.058c-1.311-2.154-4.027-4.073-8.149-5.76c-1.452-0.423-3.279-1.688-5.527-3.842l-5.763-5.62
	l-1.733-1.358C83.016,42.917,83.016,42.963,83.016,43.058z"/>
<linearGradient id="path21_1_" gradientUnits="userSpaceOnUse" x1="-93.3613" y1="522.3496" x2="-89.7295" y2="522.3496" gradientTransform="matrix(5.9323 0 0 -3.9204 639.5872 2113.2251)">
	<stop  offset="0" style="stop-color:#F0CFA6"/>
	<stop  offset="1" style="stop-color:#FCF6B7"/>
</linearGradient>
<path id="path21" fill="url(#path21_1_)" d="M85.734,67.509c2.717,1.452,4.449,3.14,5.293,5.012
	c5.012-4.638,9.462-8.009,13.255-10.164c1.687-0.89,2.67-2.248,2.998-4.075c-0.608,0.562-1.639,0.937-3.092,1.17
	C96.976,61.746,90.84,64.464,85.734,67.509z"/>
<path id="path23" fill="#010101" d="M96.085,53.549l-0.046,0.143c4.122,1.687,6.839,3.605,8.149,5.76
	c1.453-0.233,2.483-0.608,3.092-1.17c0.047-0.046,0.094-0.094,0.142-0.094l0.046-0.047c0.046-0.048,0.141-0.141,0.188-0.188
	c0.983-1.452,0.655-2.624-1.03-3.653C103.112,54.487,99.599,54.254,96.085,53.549z"/>
<linearGradient id="path24_1_" gradientUnits="userSpaceOnUse" x1="-119.8291" y1="514.0869" x2="-120.4246" y2="518.2668" gradientTransform="matrix(2.9176 0 0 -10.6136 418.9371 5578.4351)">
	<stop  offset="0" style="stop-color:#EE6A23"/>
	<stop  offset="1" style="stop-color:#AC2C24"/>
</linearGradient>
<path id="path24" fill="url(#path24_1_)" d="M72.431,85.121L72.431,85.121c-3.653,3.934-5.714,5.667-6.183,5.246
	c-1.078-0.048-2.015-1.592-2.812-4.684c-0.234,18.829,3.28,31.479,10.586,37.987C66.997,110.976,66.481,98.143,72.431,85.121z"/>
<path id="path27" fill="#EE6623" d="M74.585,93.412L74.585,93.412
	c-0.702,5.248,0.095,11.992,2.483,20.28c9.602,5.995,20.329,7.871,32.272,5.622c3.467-0.891,6.605-2.152,9.463-3.933
	c2.575-1.735,4.824-1.597,6.604,0.375c1.64-0.609,3.186-0.564,4.687,0.139c3.089-0.422,4.164-2.061,3.136-4.824
	c-1.498-2.061-3.746-3.934-6.651-5.572c-6.324-3.281-12.929-2.767-19.813,1.589c-6.559,3.703-12.881,3.562-19.018-0.376
	c-4.029-2.76-7.917-6.462-11.665-11.099L74.585,93.412z"/>
<linearGradient id="path28_1_" gradientUnits="userSpaceOnUse" x1="-84.2227" y1="513.1865" x2="-82.0284" y2="513.1078" gradientTransform="matrix(8.5452 0 0 -2.5653 829.4381 1425.5435)">
	<stop  offset="0" style="stop-color:#EE6623"/>
	<stop  offset="1" style="stop-color:#F7D7AD"/>
</linearGradient>
<path id="path28" fill="url(#path28_1_)" d="M117.914,109.43c0.046,0,0.092,0,0.092,0c0.376,0,0.703,0,0.937-0.043
	c2.392,0.043,4.264,0.606,5.526,1.731c1.597,2.341,3.657,3.185,6.232,2.574c2.344-0.514,2.621-1.73,0.844-3.604
	c-3.327-2.767-6.843-4.59-10.588-5.483c-3.934-0.373-10.351,1.922-19.297,6.888C109.951,109.897,115.337,109.195,117.914,109.43z"/>
<linearGradient id="path30_1_" gradientUnits="userSpaceOnUse" x1="-86.8853" y1="521.1592" x2="-88.8839" y2="517.9368" gradientTransform="matrix(9.944 0 0 -7.9926 905.9001 4214.3267)">
	<stop  offset="0" style="stop-color:#F36D24"/>
	<stop  offset="0.1967" style="stop-color:#F36D24"/>
	<stop  offset="1" style="stop-color:#FEE725"/>
</linearGradient>
<path id="path30" fill="url(#path30_1_)" d="M49.472,52.095
	c-1.842-1.096-4.183-2.191-7.072-3.337c-1.443-0.499-2.988-1.047-4.683-1.595c-5.179,1.844-9.662,4.334-13.496,7.472
	c-0.05,0-0.1,0.049-0.1,0.1c-0.049,0-0.049,0.049-0.049,0.049c-0.052,0.05-0.102,0.1-0.102,0.201
	c-1.095,1.691-2.589,4.23-4.482,7.668c-2.987,5.33-3.844,9.757-3.993,13.541c6.773-11.205,13.606-18.371,21.975-21.559
	c0-0.05,0.049-0.05,0.099-0.05c0.099-0.05,0.198-0.1,0.349-0.1c-0.051,0-0.051,0-0.051,0.05c3.936-1.046,7.473-1.445,10.56-1.296
	l3.188,0.349C51.015,53.09,50.318,52.594,49.472,52.095z"/>
<linearGradient id="path31_1_" gradientUnits="userSpaceOnUse" x1="-98.4844" y1="521.0684" x2="-98.3986" y2="523.0751" gradientTransform="matrix(5.9611 0 0 -10.3814 624.9833 5439.3394)">
	<stop  offset="0" style="stop-color:#EE6623"/>
	<stop  offset="1" style="stop-color:#F7D7AD"/>
</linearGradient>
<path id="path31" fill="url(#path31_1_)" d="M48.401,35.517l0.046-0.047
	c-5.62-2.576-9.414-9.932-11.241-21.968c-7.166,7.024-10.634,19.579-10.399,37.706L48.401,35.517z"/>
<linearGradient id="path32_1_" gradientUnits="userSpaceOnUse" x1="-97.0786" y1="517.7832" x2="-95.2031" y2="514.8892" gradientTransform="matrix(6.6158 0 0 -17.0617 669.7543 8905.252)">
	<stop  offset="0" style="stop-color:#F26624"/>
	<stop  offset="1" style="stop-color:#FEE725"/>
</linearGradient>
<path id="path32" fill="url(#path32_1_)" d="M18.892,98.377
	c-0.048,0.092-0.048,0.142-0.048,0.233c0.141,2.53,0.469,4.824,0.984,6.932c1.78-9.929,3.373-15.877,4.823-17.752
	c-1.311,18.646-0.14,32.416,3.514,41.219l-0.422-3.044h-0.046c-0.046-0.234-0.095-0.468-0.095-0.701
	c-0.046-0.186-0.046-0.327-0.046-0.469l-0.188-0.986h0.048c-0.61-5.569-0.471-10.818,0.326-15.784l0.048-0.139
	c0.937-6.231,2.062-10.914,3.371-14.099c0.938,6.228,2.951,12.131,6.044,17.752c0.937,1.735,2.014,3.467,3.186,5.154
	c-5.574-12.698-6.418-24.827-2.577-36.304c0.094-0.515,0.234-0.984,0.328-1.452c1.124-4.168,2.669-8.149,4.729-11.897
	C27.885,76.83,20.342,87.744,18.892,98.377z"/>
<linearGradient id="path33_1_" gradientUnits="userSpaceOnUse" x1="-97.4917" y1="519.7227" x2="-100.8335" y2="516.339" gradientTransform="matrix(5.6736 0 0 -10.042 607.1682 5275.5654)">
	<stop  offset="0" style="stop-color:#F58236"/>
	<stop  offset="1" style="stop-color:#FEE725"/>
</linearGradient>
<path id="path33" fill="url(#path33_1_)" d="M56.645,61.507l-7.015-4.5c-2.71,3.242-4.983,6.581-6.871,10.063
	c-2.128,3.87-3.724,7.981-4.884,12.287c-0.097,0.484-0.242,0.967-0.339,1.499c-0.92,4.015-1.402,8.224-1.5,12.625
	C41.213,78.05,48.082,67.359,56.645,61.507z"/>
<linearGradient id="path34_1_" gradientUnits="userSpaceOnUse" x1="-106.25" y1="522.5166" x2="-108.8748" y2="519.1161" gradientTransform="matrix(4.5328 0 0 -5.7425 525.127 3053.0398)">
	<stop  offset="0" style="stop-color:#F58236"/>
	<stop  offset="1" style="stop-color:#FEE725"/>
</linearGradient>
<path id="path34" fill="url(#path34_1_)" d="M37.214,54.904c-1.34,2.628-2.479,5.505-3.471,8.628
	c-1.091,3.273-1.836,6.795-2.231,10.464c5.453-8.826,10.959-15.721,16.464-20.828c-3.076-0.147-6.596,0.248-10.514,1.291
	c-0.05,0.05-0.05,0.1-0.1,0.147C37.313,54.705,37.264,54.805,37.214,54.904z"/>
<linearGradient id="path37_1_" gradientUnits="userSpaceOnUse" x1="-102.4985" y1="512.4102" x2="-104.1889" y2="515.2298" gradientTransform="matrix(5.1335 0 0 -11.3486 566.4058 5965.2446)">
	<stop  offset="0" style="stop-color:#EE6A23"/>
	<stop  offset="1" style="stop-color:#AC2C24"/>
</linearGradient>
<path id="path37" fill="url(#path37_1_)" d="M27.837,108.024h-0.094c-0.797,4.966-0.937,10.215-0.326,15.784h0.046
	c0.14,0.472,0.28,0.939,0.468,1.408c4.17,12.507,10.118,20.517,17.753,24.031c-5.809-6.421-9.743-13.351-11.896-20.892
	C30.836,122.734,28.867,115.991,27.837,108.024z"/>
<linearGradient id="path38_1_" gradientUnits="userSpaceOnUse" x1="-103.0889" y1="514.1758" x2="-102.0679" y2="510.7581" gradientTransform="matrix(4.8306 0 0 -8.821 550.1258 4663.3433)">
	<stop  offset="0" style="stop-color:#F36D24"/>
	<stop  offset="0.1967" style="stop-color:#F36D24"/>
	<stop  offset="1" style="stop-color:#FEE725"/>
</linearGradient>
<path id="path38" fill="url(#path38_1_)" d="M54.021,130.464c0-1.732,0.142-3.374,0.468-4.967c-1.217,1.593-2.529,2.625-3.793,3.001
	c-1.405,0.419-2.952-0.798-4.824-3.75c-0.188,4.963,0.608,9.694,2.529,14.146c2.763,6.466,7.729,12.46,14.99,17.895
	c-0.61-0.938-1.126-1.831-1.642-2.718c-1.921-3.234-3.419-6.37-4.638-9.371c-0.046-0.091-0.092-0.184-0.092-0.276
	c-1.921-4.874-2.905-9.417-2.999-13.585C54.021,130.697,54.021,130.605,54.021,130.464z"/>
<linearGradient id="path39_1_" gradientUnits="userSpaceOnUse" x1="-97.7725" y1="510.0674" x2="-100.1638" y2="512.7542" gradientTransform="matrix(5.5709 0 0 -7.5852 601.0553 4027.0945)">
	<stop  offset="0" style="stop-color:#EE6A23"/>
	<stop  offset="1" style="stop-color:#AC2C24"/>
</linearGradient>
<path id="path39" fill="url(#path39_1_)" d="M41.982,139.785c2.297,5.525,10.26,14.755,18.269,19.955
	l-2.577-3.046c-4.541-5.573-7.228-7.603-8.913-13.881c-3.467-2.667-5.651-6.128-8.743-10.627
	C41.236,136.968,40.812,136.315,41.982,139.785z"/>
<linearGradient id="path40_1_" gradientUnits="userSpaceOnUse" x1="-129.0801" y1="511.8252" x2="-127.0047" y2="509.1385" gradientTransform="matrix(2.6696 0 0 -4.9392 398.6912 2659.625)">
	<stop  offset="0" style="stop-color:#F36D24"/>
	<stop  offset="0.1967" style="stop-color:#F36D24"/>
	<stop  offset="1" style="stop-color:#FEE725"/>
</linearGradient>
<path id="path40" fill="url(#path40_1_)" d="M57.021,144.424c0,0.093,0.046,0.186,0.092,0.276c1.452,1.406,3.139,2.533,5.105,3.47
	c0.471,0.185,0.984,0.418,1.501,0.61c-1.173-1.313-2.297-2.768-3.279-4.313c-2.623-3.838-4.731-8.385-6.418-13.628
	C54.115,135.007,55.1,139.55,57.021,144.424z"/>
<linearGradient id="path41_1_" gradientUnits="userSpaceOnUse" x1="-77.8921" y1="512" x2="-81.4254" y2="512.5051" gradientTransform="matrix(13.3218 0 0 -4.2046 1162.5795 2275.0554)">
	<stop  offset="0" style="stop-color:#DC5726"/>
	<stop  offset="1" style="stop-color:#931A1D"/>
</linearGradient>
<path id="path41" fill="url(#path41_1_)" d="M125.455,115.8l-0.047-0.043
	c-1.78-1.972-4.146-2.689-6.604-0.375c-2.857,1.78-6.342,2.695-9.809,3.589c-11.945,2.245-22.325,0.717-31.927-5.278
	c2.435,5.761,5.546,10.89,9.434,15.061c9.695,0.845,18.531-0.818,26.306-4.753L125.455,115.8z"/>
<linearGradient id="path42_1_" gradientUnits="userSpaceOnUse" x1="-88.2559" y1="508.5273" x2="-92.0098" y2="508.9419" gradientTransform="matrix(7.4025 0 0 -5.4809 736.1216 2942.8333)">
	<stop  offset="0" style="stop-color:#F58236"/>
	<stop  offset="0.3267" style="stop-color:#F58236"/>
	<stop  offset="0.75" style="stop-color:#B41F24"/>
	<stop  offset="1" style="stop-color:#B41F24"/>
</linearGradient>
<path id="path42" fill="url(#path42_1_)" d="M84.001,164.61c-8.571-4.828-15.832-10.259-21.783-16.44
	c-1.967-0.937-3.653-2.063-5.105-3.47c1.219,3.001,2.717,6.137,4.638,9.371C67.372,158.569,74.772,162.081,84.001,164.61z"/>
<linearGradient id="path43_1_" gradientUnits="userSpaceOnUse" x1="-81.7446" y1="503.3496" x2="-77.3909" y2="503.3796" gradientTransform="matrix(12.1741 0 0 -3.0881 1084.7556 1707.3086)">
	<stop  offset="0" style="stop-color:#F58236"/>
	<stop  offset="1" style="stop-color:#FEE725"/>
</linearGradient>
<path id="path43" fill="url(#path43_1_)" d="M130.467,151.071c0.982-0.795,1.919-1.685,2.855-2.621
	c-12.833,5.53-25.104,5.153-36.862-1.171c2.856,2.388,3.606,4.122,2.249,5.104c-1.312,1.124-4.544,1.454-9.603,1.078
	c4.168,1.827,8.149,3.186,11.945,4.029C112.526,159.975,122.315,157.867,130.467,151.071z"/>
<linearGradient id="path18_1_" gradientUnits="userSpaceOnUse" x1="-89.8867" y1="528.8467" x2="-88.8332" y2="533.5541" gradientTransform="matrix(8.1247 0 0 -3.0248 783.4688 1643.3091)">
	<stop  offset="0" style="stop-color:#EE6623"/>
	<stop  offset="1" style="stop-color:#F7D7AD"/>
</linearGradient>
<path id="path18" fill="url(#path18_1_)" d="M67.513,41.465c0.842-2.763,2.248-5.246,4.169-7.493
	c-6.558-2.392-14.333-1.875-23.28,1.545l-1.078,0.796c-1.779,0.75-3.466,1.593-5.152,2.483c6.136,4.121,14.521,5.525,25.296,4.215
	C67.467,42.495,67.467,42.026,67.513,41.465z"/>
<linearGradient id="path8_1_" gradientUnits="userSpaceOnUse" x1="-74.1909" y1="516.9785" x2="-74.3391" y2="519.9463" gradientTransform="matrix(19.0999 0 0 -17.1261 1590.4677 8923.8262)">
	<stop  offset="0" style="stop-color:#F58236"/>
	<stop  offset="1" style="stop-color:#FEE725"/>
</linearGradient>
<path id="path8" fill="url(#path8_1_)" d="M177.121,25.726l6.604,2.109
	c-2.199-3.701-8.151-7.87-17.892-12.649c-8.151-2.435-17.849-3.839-29.043-4.167c4.916,0.982,9.087,2.201,12.457,3.747
	c10.542,2.764,20.8,10.211,30.778,22.39c-9.135-8.384-18.037-12.46-26.656-12.179c21.034,7.683,34.569,22.456,40.521,42.55
	c0.047-2.483,2.622-3.203,3.604-0.393c0.518-3.841,0.468-6.886-0.234-9.181c3.377,3.936,5.811,8.993,7.403,15.27
	c1.919-7.495,2.014-16.066,0.188-25.763c0-0.045-0.05-0.14-0.092-0.233c-2.441-6.98-5.764-13.209-9.933-18.737
	c2.576,10.118,3.466,17.285,2.718,21.595c-0.05-0.095-0.092-0.141-0.092-0.234C193.327,40.622,186.584,32.613,177.121,25.726z"/>
<linearGradient id="path13_1_" gradientUnits="userSpaceOnUse" x1="-80.5439" y1="514.5938" x2="-79.9852" y2="518.1594" gradientTransform="matrix(5.6841 0 0 -19.2241 647.9735 10020.3857)">
	<stop  offset="0" style="stop-color:#F58236"/>
	<stop  offset="1" style="stop-color:#FEE725"/>
</linearGradient>
<path id="path13" fill="url(#path13_1_)" d="M193.938,66.217c0,0.19,0,0.38,0,0.524c-0.713,24.385-5.048,41.723-13.004,52.059
	c0.097,2.427,0.047,5.002-0.146,7.619c3.146-3.571,6.289-7.381,9.527-11.478c-0.617,4.668-1.525,9.099-2.667,13.286
	c4.001-4.713,7.669-9.856,11.003-15.479c4.05-17.145,3.667-32.529-1.046-46.057c-1.001-2.857-2.192-5.572-3.572-8.287
	C194.033,61.12,193.983,63.692,193.938,66.217z"/>
<linearGradient id="path36_1_" gradientUnits="userSpaceOnUse" x1="-102.6719" y1="516.0664" x2="-100.2503" y2="513.0146" gradientTransform="matrix(5.4294 0 0 -13.7861 587.9651 7220.0024)">
	<stop  offset="0" style="stop-color:#F26624"/>
	<stop  offset="1" style="stop-color:#FEE725"/>
</linearGradient>
<path id="path36" fill="url(#path36_1_)" d="M27.417,108.024c1.03,7.967,3.419,14.71,6.37,20.332
	c2.341,4.401,5.246,8.15,8.758,11.24c1.452,1.267,2.951,2.388,4.591,3.419c-4.497-5.057-7.4-9.978-8.619-14.752l0.141,0.561
	c-0.092-0.143-0.141-0.376-0.187-0.518c-1.734-5.104-2.154-10.677-1.265-16.768c-3.093-5.621-5.105-12.368-6.044-18.597
	C29.853,96.128,27.476,104.187,27.417,108.024z"/>
</svg>
