<?xml version="1.0" encoding="utf-8"?>
<!-- Generator: Adobe Illustrator 15.0.0, SVG Export Plug-In . SVG Version: 6.00 Build 0)  -->
<!DOCTYPE svg PUBLIC "-//W3C//DTD SVG 1.1//EN" "http://www.w3.org/Graphics/SVG/1.1/DTD/svg11.dtd">
<svg version="1.1" id="Layer_1" xmlns="http://www.w3.org/2000/svg" xmlns:xlink="http://www.w3.org/1999/xlink" x="0px" y="0px"
	 width="21px" height="30px" viewBox="3.674 5.888 21 30" enable-background="new 3.674 5.888 21 30" xml:space="preserve">
<path fill="#CDB8AB" d="M24.674,15.742c0,1.53-0.263,3.043-1.034,4.269c-2.157,3.422-4.114,6.195-4.114,7.177
	c0,0.079,0,0.159,0,0.238h-5.823c-0.721,0-1.304,0.566-1.304,1.265s0.583,1.265,1.304,1.265h5.823c0,0.851,0,1.471,0,1.677
	c0,0.978-3.693,4.256-4.255,4.256c-0.246,0-0.668,0-1.065,0c-0.021,0-0.043,0-0.066,0c-0.396,0-0.817,0-1.065,0
	c-0.56,0-4.254-3.277-4.254-4.256c0-0.394,0-2.302,0-4.443c0-0.981-1.957-3.756-4.114-7.177c-0.771-1.226-1.033-2.74-1.033-4.27
	c0-5.442,4.701-9.854,10.499-9.854C19.972,5.888,24.674,10.3,24.674,15.742z M21.274,13.376l0.007-0.002
	c-0.01-0.025-0.021-0.048-0.03-0.072c-0.004-0.012-0.009-0.021-0.015-0.033c-0.79-1.95-2.418-3.49-4.456-4.205l-0.001,0.004
	c-0.148-0.053-0.305-0.086-0.471-0.086c-0.739,0-1.338,0.581-1.338,1.297c0,0.555,0.361,1.025,0.867,1.21l-0.003,0.008
	c1.323,0.455,2.385,1.447,2.903,2.707l0.01-0.004c0.179,0.514,0.674,0.885,1.263,0.885c0.739,0,1.339-0.581,1.339-1.297
	C21.35,13.643,21.319,13.505,21.274,13.376z"/>
</svg>
