<?xml version="1.0" encoding="utf-8"?>
<!-- Generator: Adobe Illustrator 15.0.0, SVG Export Plug-In . SVG Version: 6.00 Build 0)  -->
<!DOCTYPE svg PUBLIC "-//W3C//DTD SVG 1.1//EN" "http://www.w3.org/Graphics/SVG/1.1/DTD/svg11.dtd">
<svg version="1.1" id="Layer_1" xmlns="http://www.w3.org/2000/svg" xmlns:xlink="http://www.w3.org/1999/xlink" x="0px" y="0px"
	 width="45px" height="30px" viewBox="0 0 45 30" enable-background="new 0 0 45 30" xml:space="preserve">
<symbol  id="New_Symbol" viewBox="-14.78 -7.287 29.561 14.574">
	<g>
		<g>
			<g>
				<g>
					<path fill="#563F32" d="M-14.655-1.556c1.007-0.774,2.172-1.201,3.351-1.53c1.185-0.318,2.397-0.526,3.618-0.662
						c2.44-0.273,4.907-0.297,7.333-0.146c2.419,0.163,4.837,0.499,7.016,1.169C7.738-2.39,8.77-1.959,9.518-1.429
						c0.372,0.262,0.667,0.542,0.834,0.794c0.177,0.256,0.24,0.454,0.259,0.703c0.016,0.25-0.018,0.38-0.142,0.614
						c-0.128,0.225-0.384,0.505-0.741,0.769C9.012,1.987,7.991,2.44,6.918,2.785C4.748,3.477,2.33,3.833-0.09,4.007
						c-2.429,0.168-4.899,0.144-7.357-0.11C-8.677,3.77-9.903,3.579-11.12,3.305c-1.216-0.279-2.418-0.648-3.598-1.171
						c0.927,0.902,2.038,1.631,3.202,2.236c1.167,0.608,2.398,1.091,3.653,1.493C-5.344,6.646-2.725,7.1-0.073,7.242
						C2.582,7.373,5.272,7.243,8,6.556c1.361-0.36,2.747-0.842,4.112-1.775c0.675-0.472,1.359-1.084,1.896-1.947
						c0.541-0.847,0.843-2.006,0.758-3.024c-0.049-1.019-0.446-2.063-1.01-2.835c-0.561-0.794-1.24-1.362-1.914-1.817
						C10.48-5.741,9.096-6.21,7.734-6.566c-2.729-0.677-5.42-0.803-8.076-0.677C-2.996-7.098-5.621-6.66-8.149-5.858
						c-1.26,0.411-2.5,0.911-3.66,1.575c-1.147,0.659-2.269,1.492-2.971,2.618L-14.655-1.556z"/>
				</g>
			</g>
		</g>
	</g>
</symbol>
<g>
	<path fill="#563F32" d="M6.303,19.273c3.035,3.327,7.679,5.452,15.813,6.979c-9.754-0.563-14.805-3.642-18.132-7.955
		C3.983,18.298,5.642,19.089,6.303,19.273z M22.5,20.61c-10.02,0-18.367-2.383-21.709-5.823c0.451,1.277,1.074,2.497,2.006,3.742
		c3.134,4.187,5.979,6.139,10.827,7.251c3.544,0.813,10.434,1.864,16.354,0.748c5.69-1.073,9.234-2.861,11.575-6.568
		c1.355-2.146,1.999-3.516,2.533-5.047C40.667,18.285,32.399,20.61,22.5,20.61z"/>
	<path fill="#563F32" d="M22.5,2.987c12.427,0,22.5,3.771,22.5,8.422c0,4.65-10.073,8.421-22.5,8.421C10.074,19.83,0,16.06,0,11.409
		C0,6.758,10.074,2.987,22.5,2.987 M43.124,12.812c0.016-0.03,0.028-0.063,0.036-0.097c0.116-0.49,0.167-1.018-0.249-1.548
		c-0.292-0.374-0.787-0.578-1.186-0.742c-0.094-0.039-0.182-0.075-0.263-0.112c-0.642-0.292-1.228-0.659-1.901-1.192
		c-0.773-0.609-1.597-0.888-2.548-1.21c-0.896-0.302-1.837-0.431-2.749-0.556c-0.998-0.137-1.939-0.266-2.824-0.602
		c-0.147-0.057-0.29-0.129-0.434-0.201c-0.219-0.111-0.447-0.226-0.7-0.299c-0.321-0.093-0.663-0.096-0.966-0.099l-0.272-0.005
		c-0.235-0.01-0.466-0.016-0.695-0.021c-0.677-0.017-1.315-0.033-1.976-0.151c-0.8-0.144-1.606-0.156-2.387-0.169
		c-0.295-0.005-0.591-0.01-0.885-0.021L22.499,5.76c-0.86-0.037-1.719-0.074-2.583-0.074c-1.245,0-2.446,0.201-3.609,0.396
		c-0.536,0.089-1.074,0.18-1.622,0.251c-0.933,0.124-2.019,0.296-2.995,0.636c-0.435,0.15-0.876,0.281-1.318,0.412
		C9.83,7.54,9.288,7.701,8.757,7.896C8.259,8.081,7.774,8.292,7.291,8.503C6.881,8.682,6.471,8.86,6.054,9.021
		c-0.233,0.09-0.469,0.172-0.705,0.255C4.814,9.462,4.261,9.655,3.739,9.936c-0.021,0.011-2.114,1.142-2.088,2.303
		c0.001,0.044,0.021,0.119,0.037,0.16c1.358,3.604,10.111,6.219,20.813,6.219C32.619,18.617,41.292,16.176,43.124,12.812z"/>
	<g>
		<path fill="#563F32" d="M7.691,14.507c-0.034-0.129,0.125-0.044,0.175-0.023l0.207,0.107l0.397,0.224
			c0.267,0.166,0.503,0.229,0.812,0.294c0.584,0.136,1.174,0.242,1.765,0.33c0.592,0.088,1.185,0.157,1.779,0.203
			c0.55,0.047,1.147-0.051,1.818,0.006c0.325,0.022,0.706,0.122,0.999,0.273c0.298,0.145,0.549,0.304,0.792,0.408
			c0.449,0.207,1.05,0.188,1.659,0.201c0.625-0.01,1.288,0.135,1.851,0.333c0.29,0.094,0.573,0.185,0.864,0.251
			s0.588,0.098,0.896,0.093c-0.293,0.087-0.608,0.122-0.92,0.112c-0.313-0.008-0.622-0.053-0.923-0.1
			c-0.612-0.11-1.158-0.163-1.751-0.102c-0.593,0.035-1.25,0.133-1.94-0.127c-0.655-0.27-1.052-0.578-1.591-0.589
			c-0.541-0.05-1.162,0.038-1.823-0.038c-0.614-0.072-1.223-0.183-1.824-0.327s-1.192-0.326-1.767-0.554
			c-0.278-0.099-0.611-0.262-0.828-0.474l-0.345-0.303L7.819,14.56c-0.033-0.032-0.164-0.127-0.134-0.025L7.691,14.507z"/>
	</g>
	<g>
		<path fill="#563F32" d="M25.255,15.936c0.305-0.115,0.617-0.216,0.933-0.302c0.314-0.089,0.632-0.165,0.95-0.237
			c0.629-0.146,1.283-0.258,1.881-0.414c1.201-0.32,2.457-0.868,3.838-0.89c0.684-0.015,1.256-0.048,1.975-0.024
			c0.672,0.044,1.263,0.153,1.781-0.068c0.546-0.206,1.083-0.625,1.719-0.867c0.311-0.124,0.623-0.216,0.932-0.313
			c0.307-0.099,0.611-0.202,0.908-0.337c-0.254,0.206-0.54,0.373-0.828,0.527c-0.288,0.155-0.581,0.294-0.854,0.452
			c-0.547,0.298-0.998,0.757-1.641,1.078c-0.68,0.353-1.445,0.251-2.048,0.242c-0.576,0.003-1.298,0.053-1.909,0.068
			c-1.234,0.016-2.424,0.484-3.742,0.728c-0.669,0.115-1.304,0.149-1.953,0.208l-0.967,0.08l-0.968,0.099L25.255,15.936z"/>
	</g>
	<g>
		<path fill="#563F32" d="M8.038,11.3c0.467-0.404,0.998-0.733,1.537-1.033c0.517-0.331,1.181-0.522,1.775-0.61
			c1.184-0.194,2.215-0.846,3.45-1.217c1.25-0.343,2.499-0.357,3.708-0.463c1.193-0.088,2.389-0.357,3.643-0.472
			c0.626-0.057,1.265-0.073,1.909-0.015c0.647,0.066,1.247,0.222,1.826,0.297c0.576,0.078,1.179,0.076,1.802,0.098
			c0.635,0.022,1.24,0.096,1.855,0.157c1.224,0.114,2.49,0.399,3.625,0.833c0.578,0.187,1.174,0.351,1.757,0.559
			c0.581,0.21,1.157,0.466,1.649,0.837c-0.537-0.302-1.121-0.488-1.71-0.639l-1.796-0.404c-1.193-0.353-2.351-0.537-3.576-0.599
			c-0.609-0.033-1.225-0.081-1.818-0.081c-0.604-0.002-1.23,0.02-1.874-0.051c-0.64-0.071-1.235-0.214-1.812-0.265
			c-0.579-0.045-1.172-0.028-1.767,0.027c-1.191,0.108-2.402,0.371-3.661,0.44c-1.233,0.08-2.464,0.067-3.601,0.327
			c-1.129,0.279-2.274,0.899-3.549,1.018c-0.626,0.051-1.171,0.156-1.729,0.434c-0.56,0.244-1.109,0.51-1.624,0.845L8.038,11.3z"/>
	</g>
	<g>
		<path fill="#563F32" d="M12.631,12.474c0.109-0.219,0.247-0.43,0.419-0.614c0.174-0.182,0.37-0.354,0.603-0.479
			c0.462-0.279,1.046-0.301,1.523-0.281c0.496,0.016,0.977,0.069,1.441,0.098c0.476,0.048,0.853-0.01,1.369-0.069
			c0.96-0.109,1.951-0.108,2.878-0.168c0.477-0.032,0.981-0.063,1.474-0.016c0.246,0.022,0.486,0.056,0.726,0.091l0.72,0.104
			c-0.239,0.048-0.482,0.079-0.725,0.104l-0.719,0.067c-0.471,0.045-0.924,0.146-1.401,0.234c-0.983,0.18-1.923,0.224-2.876,0.339
			c-0.438,0.057-1.023,0.118-1.509,0.038c-0.494-0.057-0.967-0.146-1.431-0.214c-0.472-0.067-0.894-0.119-1.311,0.033
			c-0.213,0.063-0.412,0.176-0.609,0.298c-0.195,0.128-0.373,0.284-0.549,0.453L12.631,12.474z"/>
	</g>
	<g>
		<path fill="#563F32" d="M30.514,11.331c-0.036,0.062-0.075,0.132-0.022,0.087c0.043,0.003,0.116-0.002,0.181-0.009l0.416-0.048
			c0.286-0.022,0.58-0.038,0.907,0.043c0.155,0.035,0.357,0.13,0.494,0.261c0.098,0.083,0.195,0.162,0.291,0.228
			c0.193,0.132,0.375,0.206,0.605,0.249c0.45,0.075,1.082,0.079,1.628,0.22c0.278,0.065,0.554,0.144,0.821,0.244
			c0.135,0.048,0.266,0.104,0.396,0.161s0.259,0.122,0.385,0.192c-0.145,0.01-0.287,0.01-0.428,0.01l-0.422-0.004l-0.826-0.019
			c-0.555-0.028-1.045,0.034-1.694-0.06c-0.318-0.051-0.659-0.206-0.905-0.416c-0.125-0.103-0.232-0.213-0.332-0.326
			c-0.057-0.071-0.107-0.111-0.213-0.164c-0.202-0.099-0.469-0.162-0.735-0.227c-0.136-0.033-0.273-0.064-0.415-0.11
			c-0.072-0.025-0.142-0.043-0.225-0.102c-0.053-0.019-0.076-0.146-0.027-0.171c0.033-0.034,0.068-0.048,0.102-0.063L30.514,11.331z
			"/>
	</g>
	<g>
		<path fill="#563F32" d="M20.197,13.841l-0.067,0.015l-0.033,0.008l-0.016,0.004l-0.003,0.002c0-0.003,0.002,0.012-0.005-0.025
			c-0.004-0.022-0.001,0.007,0.011-0.001c0.028-0.037-0.017-0.053-0.005-0.054c0-0.01,0.002-0.003,0.003-0.005l0.132-0.02
			l0.271-0.034l0.543-0.054c0.363-0.028,0.724-0.048,1.091-0.049c0.743,0.003,1.444,0.09,2.107,0.042
			c0.654-0.047,1.358-0.212,2.062-0.339c0.354-0.066,0.715-0.126,1.078-0.167c0.182-0.021,0.367-0.03,0.55-0.041
			c0.185-0.006,0.369,0,0.552,0.01l-0.512,0.193L27.45,13.52l-1.012,0.38c-0.687,0.238-1.379,0.462-2.162,0.527
			c-0.777,0.057-1.511-0.086-2.202-0.19l-1.065-0.167l-0.536-0.103l-0.268-0.06l-0.137-0.035l-0.007-0.002
			c0.02,0.003-0.06,0.005-0.02-0.077c0.021-0.013,0.018-0.008,0.019-0.009h0.003l0.014,0.001l0.018,0.003l0.034,0.007l0.067,0.017
			V13.841z"/>
	</g>
	<g>
		<path fill="#563F32" d="M25.083,9.563c0.104-0.054,0.221-0.087,0.342-0.104c0.119-0.014,0.242-0.012,0.363,0.002
			c0.24,0.03,0.47,0.104,0.682,0.192c0.212,0.089,0.41,0.192,0.596,0.291c0.162,0.088,0.418,0.215,0.455,0.217
			c0.443,0.074,0.863,0.183,1.28,0.32c0.208,0.069,0.414,0.146,0.618,0.232l0.306,0.137c0.101,0.049,0.202,0.099,0.303,0.157
			c-0.114,0.023-0.228,0.037-0.34,0.047l-0.336,0.019c-0.223,0.005-0.443,0-0.662-0.014c-0.437-0.025-0.87-0.085-1.285-0.149
			c-0.386-0.095-0.501-0.218-0.714-0.344c-0.186-0.127-0.354-0.257-0.521-0.382s-0.329-0.245-0.503-0.349
			c-0.086-0.052-0.176-0.099-0.271-0.142c-0.096-0.04-0.196-0.072-0.309-0.103L25.083,9.563z"/>
	</g>
	<g>
		
			<use xlink:href="#New_Symbol"  width="29.561" height="14.574" x="-14.78" y="-7.287" transform="matrix(0.064 0 0 -0.064 29.2178 9.5244)" overflow="visible"/>
		
			<use xlink:href="#New_Symbol"  width="29.561" height="14.574" x="-14.78" y="-7.287" transform="matrix(0.1274 0 0 -0.1274 5.5576 12.625)" overflow="visible"/>
		
			<use xlink:href="#New_Symbol"  width="29.561" height="14.574" x="-14.78" y="-7.287" transform="matrix(0.0843 0 0 -0.0843 17.1187 13.1328)" overflow="visible"/>
		
			<use xlink:href="#New_Symbol"  width="29.561" height="14.574" x="-14.78" y="-7.287" transform="matrix(0.1057 0 0 -0.1057 38.8213 11.127)" overflow="visible"/>
		
			<use xlink:href="#New_Symbol"  width="29.561" height="14.574" x="-14.78" y="-7.287" transform="matrix(0.0794 0 0 -0.0794 21.8608 9.624)" overflow="visible"/>
		
			<use xlink:href="#New_Symbol"  width="29.561" height="14.574" x="-14.78" y="-7.287" transform="matrix(0.0643 0 0 -0.0643 13.7627 17.1953)" overflow="visible"/>
		
			<use xlink:href="#New_Symbol"  width="29.561" height="14.574" x="-14.78" y="-7.287" transform="matrix(0.0896 0 0 -0.0896 39.6162 14.2158)" overflow="visible"/>
		
			<use xlink:href="#New_Symbol"  width="29.561" height="14.574" x="-14.78" y="-7.287" transform="matrix(0.0735 0 0 -0.0735 7.2495 9.5283)" overflow="visible"/>
		
			<use xlink:href="#New_Symbol"  width="29.561" height="14.574" x="-14.78" y="-7.287" transform="matrix(0.0735 0 0 -0.0735 33.1025 10.4727)" overflow="visible"/>
		
			<use xlink:href="#New_Symbol"  width="29.561" height="14.574" x="-14.78" y="-7.287" transform="matrix(0.0924 0 0 -0.0924 15.9448 7.1328)" overflow="visible"/>
		
			<use xlink:href="#New_Symbol"  width="29.561" height="14.574" x="-14.78" y="-7.287" transform="matrix(0.0647 0 0 -0.0647 23.9863 15.0449)" overflow="visible"/>
		
			<use xlink:href="#New_Symbol"  width="29.561" height="14.574" x="-14.78" y="-7.287" transform="matrix(0.0736 0 0 -0.0736 30.0273 17.0664)" overflow="visible"/>
		
			<use xlink:href="#New_Symbol"  width="29.561" height="14.574" x="-14.78" y="-7.287" transform="matrix(0.0665 0 0 -0.0665 26.5732 16.834)" overflow="visible"/>
		
			<use xlink:href="#New_Symbol"  width="29.561" height="14.574" x="-14.78" y="-7.287" transform="matrix(0.0869 0 0 -0.0869 20.396 15.5566)" overflow="visible"/>
		
			<use xlink:href="#New_Symbol"  width="29.561" height="14.574" x="-14.78" y="-7.287" transform="matrix(0.0869 0 0 -0.0869 17.0337 10.0586)" overflow="visible"/>
		
			<use xlink:href="#New_Symbol"  width="29.561" height="14.574" x="-14.78" y="-7.287" transform="matrix(0.0969 0 0 -0.0969 10.876 11.4092)" overflow="visible"/>
		
			<use xlink:href="#New_Symbol"  width="29.561" height="14.574" x="-14.78" y="-7.287" transform="matrix(0.0687 0 0 -0.0687 10.6309 13.5977)" overflow="visible"/>
		
			<use xlink:href="#New_Symbol"  width="29.561" height="14.574" x="-14.78" y="-7.287" transform="matrix(0.1178 0 0 -0.1178 33.833 16.2637)" overflow="visible"/>
		
			<use xlink:href="#New_Symbol"  width="29.561" height="14.574" x="-14.78" y="-7.287" transform="matrix(0.0756 0 0 -0.0756 30.3311 13.1299)" overflow="visible"/>
		
			<use xlink:href="#New_Symbol"  width="29.561" height="14.574" x="-14.78" y="-7.287" transform="matrix(0.0596 0 0 -0.0596 21.7036 6.7275)" overflow="visible"/>
		
			<use xlink:href="#New_Symbol"  width="29.561" height="14.574" x="-14.78" y="-7.287" transform="matrix(0.0665 0 0 -0.0665 28.7451 6.917)" overflow="visible"/>
		
			<use xlink:href="#New_Symbol"  width="29.561" height="14.574" x="-14.78" y="-7.287" transform="matrix(0.0801 0 0 -0.0801 13.7627 14.252)" overflow="visible"/>
		
			<use xlink:href="#New_Symbol"  width="29.561" height="14.574" x="-14.78" y="-7.287" transform="matrix(0.0804 0 0 -0.0804 25.3008 11.7129)" overflow="visible"/>
	</g>
</g>
</svg>
