<?xml version="1.0" encoding="utf-8"?>
<!-- Generator: Adobe Illustrator 15.0.0, SVG Export Plug-In . SVG Version: 6.00 Build 0)  -->
<!DOCTYPE svg PUBLIC "-//W3C//DTD SVG 1.1//EN" "http://www.w3.org/Graphics/SVG/1.1/DTD/svg11.dtd">
<svg version="1.1" id="Layer_1" xmlns="http://www.w3.org/2000/svg" xmlns:xlink="http://www.w3.org/1999/xlink" x="0px" y="0px"
	 width="20px" height="20px" viewBox="0 0 20 20" enable-background="new 0 0 20 20" xml:space="preserve">
<g>
	<g>
		<circle fill-rule="evenodd" clip-rule="evenodd" fill="#CDB8AB" cx="10" cy="10" r="9.507"/>
		<path fill="#553E31" d="M10,20C4.486,20,0,15.514,0,10S4.486,0,10,0c5.515,0,10,4.486,10,10S15.515,20,10,20z M10,0.987
			c-4.97,0-9.012,4.044-9.012,9.013S5.03,19.013,10,19.013c4.97,0,9.013-4.044,9.013-9.013S14.97,0.987,10,0.987z"/>
	</g>
	<g>
		<path fill="#553E31" d="M9.967,17.489c-1.138,0-1.925-0.852-1.925-1.988c0-1.182,0.809-1.992,1.969-1.992
			c1.159,0,1.924,0.811,1.946,1.992c0,1.137-0.766,1.988-1.946,1.988H9.967z M8.764,12.416L8.282,2.511h3.456l-0.481,9.905H8.764z"
			/>
	</g>
</g>
</svg>
