<?xml version="1.0" encoding="utf-8"?>
<!-- Generator: Adobe Illustrator 16.0.0, SVG Export Plug-In . SVG Version: 6.00 Build 0)  -->
<!DOCTYPE svg PUBLIC "-//W3C//DTD SVG 1.1//EN" "http://www.w3.org/Graphics/SVG/1.1/DTD/svg11.dtd">
<svg version="1.1" id="Layer_1" xmlns="http://www.w3.org/2000/svg" xmlns:xlink="http://www.w3.org/1999/xlink" x="0px" y="0px"
	 width="32px" height="32px" viewBox="0 0 32 32" enable-background="new 0 0 32 32" xml:space="preserve">
<g>
	
		<path fill="#CDB8AB" stroke="#553E31" stroke-width="1.6829" stroke-linecap="round" stroke-linejoin="round" stroke-miterlimit="10" d="
		M31.25,7.796c0,10.608-6.828,19.209-15.25,19.209c-8.423,0-15.25-8.601-15.25-19.209"/>
	
		<ellipse fill="#EBE0D5" stroke="#553E31" stroke-width="1.6829" stroke-linecap="round" stroke-linejoin="round" stroke-miterlimit="10" cx="16" cy="7.587" rx="15.25" ry="4.529"/>
</g>
<g>
	<path fill="#553E31" d="M12.743,22.194l1.859-0.205c0.045,0.378,0.164,0.659,0.355,0.841s0.444,0.273,0.759,0.273
		c0.396,0,0.734-0.182,1.012-0.547s0.456-1.121,0.533-2.27c-0.483,0.561-1.087,0.841-1.812,0.841c-0.789,0-1.469-0.304-2.041-0.913
		c-0.572-0.607-0.858-1.4-0.858-2.375c0-1.016,0.302-1.835,0.906-2.458s1.373-0.933,2.307-0.933c1.016,0,1.85,0.393,2.502,1.179
		s0.978,2.079,0.978,3.879c0,1.832-0.339,3.154-1.019,3.965s-1.563,1.217-2.652,1.217c-0.784,0-1.417-0.209-1.9-0.625
		C13.189,23.646,12.879,23.023,12.743,22.194z M17.09,17.997c0-0.62-0.143-1.101-0.427-1.442s-0.614-0.513-0.988-0.513
		c-0.355,0-0.65,0.14-0.885,0.42s-0.352,0.739-0.352,1.377c0,0.646,0.127,1.122,0.383,1.426c0.255,0.303,0.574,0.454,0.957,0.454
		c0.369,0,0.68-0.146,0.933-0.438S17.09,18.563,17.09,17.997z"/>
</g>
</svg>
