<?xml version="1.0" encoding="utf-8"?>
<!-- Generator: Adobe Illustrator 16.0.0, SVG Export Plug-In . SVG Version: 6.00 Build 0)  -->
<!DOCTYPE svg PUBLIC "-//W3C//DTD SVG 1.1//EN" "http://www.w3.org/Graphics/SVG/1.1/DTD/svg11.dtd">
<svg version="1.1" id="Layer_1" xmlns="http://www.w3.org/2000/svg" xmlns:xlink="http://www.w3.org/1999/xlink" x="0px" y="0px"
	 width="32px" height="32px" viewBox="0 0 32 32" enable-background="new 0 0 32 32" xml:space="preserve">
<g>
	
		<path fill="#CDB8AB" stroke="#553E31" stroke-width="1.6829" stroke-linecap="round" stroke-linejoin="round" stroke-miterlimit="10" d="
		M31.25,7.796c0,10.608-6.828,19.209-15.25,19.209c-8.424,0-15.25-8.601-15.25-19.209"/>
	
		<ellipse fill="#EBE0D5" stroke="#553E31" stroke-width="1.6829" stroke-linecap="round" stroke-linejoin="round" stroke-miterlimit="10" cx="16" cy="7.587" rx="15.25" ry="4.529"/>
</g>
<g>
	<path fill="#553E31" d="M14.35,19.104c-0.497-0.209-0.858-0.498-1.084-0.865s-0.338-0.769-0.338-1.207
		c0-0.748,0.26-1.365,0.782-1.853s1.264-0.731,2.226-0.731c0.952,0,1.691,0.244,2.218,0.731s0.79,1.105,0.79,1.853
		c0,0.465-0.121,0.878-0.363,1.241c-0.241,0.362-0.58,0.639-1.018,0.831c0.556,0.223,0.979,0.549,1.268,0.978
		s0.434,0.923,0.434,1.483c0,0.925-0.295,1.677-0.885,2.256s-1.375,0.868-2.355,0.868c-0.911,0-1.67-0.239-2.275-0.718
		c-0.716-0.565-1.074-1.34-1.074-2.324c0-0.542,0.135-1.04,0.404-1.494C13.347,19.7,13.771,19.351,14.35,19.104z M14.568,21.463
		c0,0.529,0.135,0.941,0.406,1.237s0.609,0.444,1.016,0.444c0.396,0,0.725-0.143,0.984-0.427s0.389-0.696,0.389-1.234
		c0-0.469-0.132-0.847-0.396-1.131c-0.264-0.285-0.599-0.427-1.004-0.427c-0.47,0-0.82,0.162-1.05,0.485
		S14.568,21.084,14.568,21.463z M14.746,17.17c0,0.383,0.107,0.681,0.324,0.896s0.505,0.321,0.865,0.321
		c0.364,0,0.656-0.108,0.875-0.325s0.328-0.516,0.328-0.899c0-0.36-0.109-0.648-0.325-0.865s-0.503-0.325-0.858-0.325
		c-0.369,0-0.662,0.109-0.881,0.328S14.746,16.81,14.746,17.17z"/>
</g>
</svg>
