<?xml version="1.0" encoding="utf-8"?>
<!-- Generator: Adobe Illustrator 16.0.0, SVG Export Plug-In . SVG Version: 6.00 Build 0)  -->
<!DOCTYPE svg PUBLIC "-//W3C//DTD SVG 1.1//EN" "http://www.w3.org/Graphics/SVG/1.1/DTD/svg11.dtd">
<svg version="1.1" id="Layer_1" xmlns="http://www.w3.org/2000/svg" xmlns:xlink="http://www.w3.org/1999/xlink" x="0px" y="0px"
	 width="32px" height="32px" viewBox="0 0 32 32" enable-background="new 0 0 32 32" xml:space="preserve">
<g>
	
		<path fill="#CDB8AB" stroke="#553E31" stroke-width="1.6829" stroke-linecap="round" stroke-linejoin="round" stroke-miterlimit="10" d="
		M31.25,7.796c0,10.608-6.828,19.209-15.25,19.209c-8.424,0-15.25-8.601-15.25-19.209"/>
	
		<ellipse fill="#EBE0D5" stroke="#553E31" stroke-width="1.6829" stroke-linecap="round" stroke-linejoin="round" stroke-miterlimit="10" cx="16" cy="7.587" rx="15.25" ry="4.529"/>
</g>
<g>
	<path fill="#553E31" d="M12.633,21.853l1.859-0.226c0.06,0.474,0.219,0.836,0.479,1.087s0.574,0.376,0.943,0.376
		c0.396,0,0.73-0.15,1.002-0.451s0.406-0.707,0.406-1.217c0-0.483-0.129-0.866-0.389-1.148s-0.577-0.424-0.951-0.424
		c-0.246,0-0.539,0.048-0.881,0.144l0.211-1.565c0.52,0.014,0.916-0.099,1.189-0.338s0.41-0.557,0.41-0.954
		c0-0.337-0.1-0.606-0.301-0.807c-0.2-0.201-0.467-0.301-0.799-0.301c-0.328,0-0.609,0.114-0.842,0.342s-0.373,0.561-0.424,0.998
		l-1.77-0.301c0.123-0.606,0.309-1.09,0.557-1.453s0.595-0.647,1.039-0.854s0.942-0.311,1.494-0.311c0.943,0,1.699,0.301,2.27,0.902
		c0.469,0.492,0.703,1.048,0.703,1.668c0,0.879-0.48,1.582-1.441,2.105c0.574,0.123,1.033,0.399,1.377,0.827
		s0.516,0.946,0.516,1.552c0,0.879-0.32,1.629-0.963,2.249s-1.443,0.93-2.4,0.93c-0.906,0-1.658-0.261-2.256-0.783
		C13.075,23.378,12.729,22.696,12.633,21.853z"/>
</g>
</svg>
