<?xml version="1.0" encoding="utf-8"?>
<!-- Generator: Adobe Illustrator 16.0.0, SVG Export Plug-In . SVG Version: 6.00 Build 0)  -->
<!DOCTYPE svg PUBLIC "-//W3C//DTD SVG 1.1//EN" "http://www.w3.org/Graphics/SVG/1.1/DTD/svg11.dtd">
<svg version="1.1" id="Layer_1" xmlns="http://www.w3.org/2000/svg" xmlns:xlink="http://www.w3.org/1999/xlink" x="0px" y="0px"
	 width="32px" height="32px" viewBox="0 0 32 32" enable-background="new 0 0 32 32" xml:space="preserve">
<g>
	
		<path fill="#CDB8AB" stroke="#553E31" stroke-width="1.6829" stroke-linecap="round" stroke-linejoin="round" stroke-miterlimit="10" d="
		M31.25,7.796c0,10.608-6.828,19.209-15.25,19.209c-8.424,0-15.25-8.601-15.25-19.209"/>
	
		<ellipse fill="#EBE0D5" stroke="#553E31" stroke-width="1.6829" stroke-linecap="round" stroke-linejoin="round" stroke-miterlimit="10" cx="16" cy="7.587" rx="15.25" ry="4.529"/>
</g>
<g>
	<path fill="#553E31" d="M13.591,24.512H11.67v-7.239c-0.701,0.656-1.529,1.142-2.481,1.456v-1.743
		c0.501-0.164,1.046-0.475,1.634-0.933s0.991-0.992,1.21-1.603h1.559V24.512z"/>
	<path fill="#553E31" d="M21.549,22.728v1.784h-6.732c0.072-0.674,0.291-1.313,0.656-1.918c0.364-0.604,1.084-1.404,2.16-2.402
		c0.865-0.807,1.396-1.354,1.592-1.641c0.265-0.396,0.396-0.789,0.396-1.176c0-0.428-0.115-0.758-0.345-0.988
		s-0.548-0.345-0.954-0.345c-0.4,0-0.72,0.121-0.957,0.362c-0.236,0.242-0.373,0.643-0.41,1.203l-1.914-0.191
		c0.114-1.057,0.473-1.816,1.074-2.276s1.354-0.69,2.256-0.69c0.988,0,1.766,0.267,2.33,0.8c0.565,0.533,0.848,1.196,0.848,1.989
		c0,0.451-0.08,0.881-0.242,1.289c-0.162,0.407-0.418,0.834-0.77,1.281c-0.232,0.297-0.651,0.723-1.258,1.278
		c-0.605,0.556-0.99,0.925-1.151,1.107s-0.293,0.36-0.394,0.533H21.549z"/>
</g>
</svg>
