<?xml version="1.0" encoding="utf-8"?>
<!-- Generator: Adobe Illustrator 16.0.0, SVG Export Plug-In . SVG Version: 6.00 Build 0)  -->
<!DOCTYPE svg PUBLIC "-//W3C//DTD SVG 1.1//EN" "http://www.w3.org/Graphics/SVG/1.1/DTD/svg11.dtd">
<svg version="1.1" xmlns="http://www.w3.org/2000/svg" xmlns:xlink="http://www.w3.org/1999/xlink" x="0px" y="0px" width="32px"
	 height="32px" viewBox="0 0 32 32" enable-background="new 0 0 32 32" xml:space="preserve">
<g id="Layer_1">
	<g>
		<path fill="#EBE0D5" stroke="#553E31" stroke-linecap="round" stroke-linejoin="round" stroke-miterlimit="10" d="M25.906,21.749
			c0,3.863-4.43,6.996-9.894,6.996c-5.466,0-9.896-3.133-9.896-6.996c0-3.868,4.43-7.001,9.896-7.001
			C21.477,14.748,25.906,17.881,25.906,21.749z"/>
		<polyline fill="#EBE0D5" stroke="#553E31" stroke-linecap="round" stroke-linejoin="round" stroke-miterlimit="10" points="
			25.906,21.959 27.004,9.928 5.019,10.14 6.117,22.1 		"/>
		<path fill="#EBE0D5" stroke="#553E31" stroke-miterlimit="10" d="M17.468,22.017"/>
		<path fill="#CDB8AB" stroke="#553E31" stroke-miterlimit="10" d="M23.6,17.725c-0.009-0.425,0.354-1.359,0.795-1.78
			c0.438-0.425,0.964-0.603,1.871-0.972c0.694-0.28,1.386-0.575,2.076-0.872c0.463-0.198,0.866-0.423,1.206-0.885
			c0.185-0.248,0.215-0.588,0.175-0.927c-0.141-1.196-1.35-1.318-2.095-1.3c-0.667,0.017-1.702,0.159-1.702,0.159l-0.128-1.888
			c0,0,1.403-0.051,2.142,0.035c0.737,0.091,1.754,0.31,2.332,0.697c0.565,0.38,0.962,0.918,1.125,1.58
			c0.118,0.48,0.156,1.285,0,1.795c-0.53,1.741-2.109,2.405-3.356,2.91c-0.88,0.361-1.901,0.56-2.682,1.217
			c-0.482,0.404-0.637,1.003-1.035,1.178C23.926,18.851,23.614,18.446,23.6,17.725z"/>
		<path fill="#CDB8AB" stroke="#553E31" stroke-miterlimit="10" d="M8.4,17.725c0.009-0.425-0.354-1.359-0.795-1.78
			c-0.438-0.425-0.964-0.603-1.871-0.972c-0.694-0.28-1.386-0.575-2.076-0.872c-0.463-0.198-0.866-0.423-1.206-0.885
			c-0.185-0.248-0.215-0.588-0.175-0.927c0.141-1.196,1.35-1.318,2.095-1.3c0.667,0.017,1.702,0.159,1.702,0.159l0.128-1.888
			c0,0-1.403-0.051-2.142,0.035c-0.737,0.091-1.754,0.31-2.332,0.697c-0.565,0.38-0.962,0.918-1.125,1.58
			c-0.118,0.48-0.156,1.285,0,1.795c0.53,1.741,2.109,2.405,3.356,2.91c0.88,0.361,1.901,0.56,2.682,1.217
			c0.482,0.404,0.637,1.003,1.035,1.178C8.074,18.851,8.386,18.446,8.4,17.725z"/>
		<ellipse fill="#CDB8AB" stroke="#553E31" stroke-miterlimit="10" cx="16.011" cy="9.928" rx="10.993" ry="6.673"/>
		<g>
			<defs>
				<path id="SVGID_13_" d="M16.013,3.754c-5.819,0-10.554,2.768-10.554,6.174c0,3.403,4.734,6.173,10.554,6.173
					c5.817,0,10.551-2.77,10.551-6.173C26.563,6.521,21.83,3.754,16.013,3.754z"/>
			</defs>
			<clipPath id="SVGID_2_">
				<use xlink:href="#SVGID_13_"  overflow="visible"/>
			</clipPath>
			
				<ellipse clip-path="url(#SVGID_2_)" fill="#CDB8AB" stroke="#553E31" stroke-miterlimit="10" cx="16.011" cy="20.608" rx="10.993" ry="6.675"/>
		</g>
	</g>
</g>
<g id="Layer_3">
</g>
</svg>
