<?xml version="1.0" encoding="utf-8"?>
<!-- Generator: Adobe Illustrator 16.0.0, SVG Export Plug-In . SVG Version: 6.00 Build 0)  -->
<!DOCTYPE svg PUBLIC "-//W3C//DTD SVG 1.1//EN" "http://www.w3.org/Graphics/SVG/1.1/DTD/svg11.dtd">
<svg version="1.1" xmlns="http://www.w3.org/2000/svg" xmlns:xlink="http://www.w3.org/1999/xlink" x="0px" y="0px" width="32px"
	 height="32px" viewBox="0 0 32 32" enable-background="new 0 0 32 32" xml:space="preserve">
<g id="Layer_1">
	<g>
		<path fill="#CDB8AB" d="M15.914,17.279c0,0-5.813,3.154-7.131,7.561c-0.507,1.703-0.478,4.953,2.181,5.961
			c2.654,1.004,3.742,0.43,4.615-0.49c1.672-1.762,2.627-6.313,1.384-12.498L15.914,17.279z"/>
		<path fill="#553E31" d="M13.346,32c-0.749,0-1.609-0.189-2.631-0.574c-3.038-1.148-3.215-4.682-2.592-6.773
			c1.382-4.619,7.21-7.826,7.456-7.961c0.204-0.109,0.447-0.113,0.652-0.008l1.05,0.535c0.185,0.094,0.315,0.266,0.355,0.465
			c1.153,5.736,0.545,10.873-1.555,13.082C15.538,31.34,14.733,32,13.346,32z M15.935,18.047c-1.191,0.713-5.439,3.463-6.492,6.982
			c-0.464,1.553-0.393,4.326,1.769,5.145c0.849,0.32,1.566,0.482,2.135,0.482c0.803,0,1.272-0.322,1.73-0.805
			c1.456-1.533,2.397-5.699,1.275-11.594L15.935,18.047z"/>
		
			<path fill="none" stroke="#553E31" stroke-width="1.3756" stroke-linecap="round" stroke-linejoin="round" stroke-miterlimit="10" d="
			M16.153,17.844c0,0-7.087,7.342-5.127,12.834"/>
		
			<path fill="none" stroke="#553E31" stroke-width="1.3756" stroke-linecap="round" stroke-linejoin="round" stroke-miterlimit="10" d="
			M16.311,17.871c0,0-0.959,11.334-4.446,13.174"/>
		
			<path fill="none" stroke="#553E31" stroke-width="1.3756" stroke-linecap="round" stroke-linejoin="round" stroke-miterlimit="10" d="
			M10.818,28.791"/>
		
			<path fill="none" stroke="#553E31" stroke-width="1.3756" stroke-linecap="round" stroke-linejoin="round" stroke-miterlimit="10" d="
			M14.809,17.264"/>
		<g>
			<path fill="#CDB8AB" d="M16.809,18.049c-0.071,0-0.145-0.011-0.216-0.034l-0.655-0.217c-0.357-0.118-0.553-0.501-0.44-0.859
				c0.475-1.511,4.644-14.776,4.85-15.28c0.244-0.591,0.846-0.971,1.533-0.971c0.54,0,1.034,0.242,1.322,0.648
				c0.179,0.252,0.436,0.8,0.144,1.636c-0.418,1.185-5.677,14.1-5.9,14.649C17.338,17.886,17.081,18.049,16.809,18.049z"/>
			<path fill="#553E31" d="M21.88,1.375c0.576,0,1.14,0.444,0.816,1.369c-0.417,1.182-5.888,14.617-5.888,14.617l-0.655-0.217
				c0,0,4.629-14.734,4.83-15.227C21.132,1.56,21.509,1.375,21.88,1.375 M21.88,0c-0.967,0-1.818,0.547-2.168,1.393
				c-0.209,0.511-3.781,11.87-4.871,15.34c-0.226,0.717,0.167,1.482,0.881,1.718l0.655,0.217c0.143,0.048,0.288,0.07,0.432,0.07
				c0.545,0,1.058-0.326,1.274-0.857c0.224-0.55,5.487-13.479,5.91-14.678c0.396-1.131,0.025-1.904-0.23-2.265
				C23.346,0.351,22.643,0,21.88,0L21.88,0z"/>
		</g>
	</g>
</g>
<g id="Layer_3">
</g>
</svg>
