<?xml version="1.0" encoding="utf-8"?>
<!-- Generator: Adobe Illustrator 16.0.0, SVG Export Plug-In . SVG Version: 6.00 Build 0)  -->
<!DOCTYPE svg PUBLIC "-//W3C//DTD SVG 1.1//EN" "http://www.w3.org/Graphics/SVG/1.1/DTD/svg11.dtd">
<svg version="1.1" xmlns="http://www.w3.org/2000/svg" xmlns:xlink="http://www.w3.org/1999/xlink" x="0px" y="0px" width="32px"
	 height="32px" viewBox="0 0 32 32" enable-background="new 0 0 32 32" xml:space="preserve">
<g id="Layer_1">
	<g>
		<defs>
			<path id="XMLID_1_" d="M11.108,12.307c1.051,1.042,4.36,4.635,6.073,6.951c1.713,2.318,5.099,6.625,6.228,8.285
				c1.13,1.662,2.531,3.42,4.244,3.729s2.392-0.139,2.842-0.541c0.604-0.541,0.564-1.814,0.331-2.279
				c-0.233-0.463-2.706-2.781-5.625-5.445c-2.921-2.666-9.11-9.039-10.006-10.12c-0.058-0.812-0.194-0.599,0.117-0.85
				c0.312-0.252,0.817-0.58,0.37-1.141c-0.448-0.56-4.77-4.886-7.494-6.914C5.463,1.954,4.432,1.337,3.303,0.95
				S1.667,0.563,1.356,0.737C1.044,0.911,0.889,1.123,1.143,1.471C1.143,1.471,10.057,11.263,11.108,12.307z"/>
		</defs>
		<use xlink:href="#XMLID_1_"  overflow="visible" fill="#EBE0D5"/>
		<clipPath id="XMLID_27_">
			<use xlink:href="#XMLID_1_"  overflow="visible"/>
		</clipPath>
		<polygon clip-path="url(#XMLID_27_)" fill="#EBE0D5" stroke="#553E31" stroke-width="1.2512" stroke-miterlimit="10" points="
			15.409,12.164 11.225,13.632 15.74,13.206 		"/>
		<path clip-path="url(#XMLID_27_)" fill="#553E31" d="M11.459,13.001c0,0,2.141,1.043,3.522,2.665
			c1.382,1.623,2.824,3.41,4.38,5.273c1.596,1.912,3.496,4.311,4.282,5.406c0.817,1.141,1.985,2.82,2.842,3.109
			c0.856,0.291,1.713,0.426,2.472,0.367c0.759-0.057,1.109-0.193,1.402-0.637c0.291-0.445,0.311-1.023-0.02-1.545
			c-0.331-0.521,0.272-0.445,0.272-0.445l1.46,1.334l-0.624,2.607c0,0-2.102,0.365-2.082,0.424s-2.238,0.137-2.238,0.137
			l-9.655-10.623L11.459,13.001z"/>
		<use xlink:href="#XMLID_1_"  overflow="visible" fill="none" stroke="#553E31" stroke-width="1.2512" stroke-miterlimit="10"/>
	</g>
</g>
<g id="Layer_3">
</g>
</svg>
