<?xml version="1.0" encoding="utf-8"?>
<!-- Generator: Adobe Illustrator 16.0.0, SVG Export Plug-In . SVG Version: 6.00 Build 0)  -->
<!DOCTYPE svg PUBLIC "-//W3C//DTD SVG 1.1//EN" "http://www.w3.org/Graphics/SVG/1.1/DTD/svg11.dtd">
<svg version="1.1" xmlns="http://www.w3.org/2000/svg" xmlns:xlink="http://www.w3.org/1999/xlink" x="0px" y="0px" width="32px"
	 height="32px" viewBox="0 0 32 32" enable-background="new 0 0 32 32" xml:space="preserve">
<g id="Layer_1">
	<g>
		<polygon fill="#CDB8AB" stroke="#553E31" stroke-linejoin="round" stroke-miterlimit="10" points="4.19,0.5 1.733,2.965 
			27.81,2.965 27.81,31.5 30.267,29.036 30.267,0.5 		"/>
		
			<rect x="1.733" y="9.013" fill="#EBE0D5" stroke="#553E31" stroke-linejoin="round" stroke-miterlimit="10" width="26.076" height="22.487"/>
		
			<rect x="1.733" y="2.965" fill="#EBE0D5" stroke="#553E31" stroke-linejoin="round" stroke-miterlimit="10" width="26.076" height="6.048"/>
		<path fill="#553E31" stroke="#553E31" stroke-width="2" stroke-miterlimit="10" d="M22.373,25.798
			c0,1.369-1.134,2.479-2.533,2.479H9.703c-1.399,0-2.533-1.109-2.533-2.479v-8.264c0-1.369,1.134-2.479,2.533-2.479H19.84
			c1.399,0,2.533,1.109,2.533,2.479V25.798z"/>
		
			<ellipse fill="none" stroke="#553E31" stroke-width="1.5" stroke-linecap="round" stroke-linejoin="round" stroke-miterlimit="10" cx="9.164" cy="11.44" rx="0.509" ry="0.002"/>
		
			<ellipse fill="none" stroke="#553E31" stroke-width="1.5" stroke-linecap="round" stroke-linejoin="round" stroke-miterlimit="10" cx="20.2" cy="11.44" rx="0.509" ry="0.001"/>
		
			<line fill="none" stroke="#553E31" stroke-linecap="round" stroke-linejoin="round" stroke-miterlimit="10" x1="9.166" y1="11.44" x2="20.199" y2="11.44"/>
		<g>
			<circle fill="#553E31" cx="8.377" cy="5.988" r="1.251"/>
			<circle fill="#553E31" cx="12.64" cy="5.988" r="1.25"/>
			<circle fill="#553E31" cx="16.902" cy="5.988" r="1.25"/>
			<circle fill="#553E31" cx="21.164" cy="5.988" r="1.25"/>
		</g>
		<line fill="none" stroke="#553E31" stroke-linejoin="round" stroke-miterlimit="10" x1="27.81" y1="2.965" x2="30.267" y2="0.5"/>
		
			<line fill="none" stroke="#553E31" stroke-linejoin="round" stroke-miterlimit="10" x1="27.81" y1="9.013" x2="30.267" y2="6.549"/>
		<g>
			<defs>
				<path id="SVGID_2_" d="M22.373,25.798c0,1.369-1.134,2.479-2.533,2.479H9.703c-1.399,0-2.533-1.109-2.533-2.479v-8.264
					c0-1.369,1.134-2.479,2.533-2.479H19.84c1.399,0,2.533,1.109,2.533,2.479V25.798z"/>
			</defs>
			<clipPath id="SVGID_4_">
				<use xlink:href="#SVGID_2_"  overflow="visible"/>
			</clipPath>
			<polygon clip-path="url(#SVGID_4_)" fill="#CDB8AB" points="25.888,26.202 24.692,27.371 8.462,11.494 9.657,10.325 			"/>
			<polygon clip-path="url(#SVGID_4_)" fill="#CDB8AB" points="27.279,25.443 26.682,26.027 10.451,10.15 11.049,9.565 			"/>
			<polygon clip-path="url(#SVGID_4_)" fill="#CDB8AB" points="23.447,27.763 23.149,28.056 6.92,12.178 7.218,11.885 			"/>
			<polygon clip-path="url(#SVGID_4_)" fill="#CDB8AB" points="28.724,25.081 28.424,25.372 12.194,9.495 12.492,9.203 			"/>
		</g>
	</g>
</g>
<g id="Layer_3">
</g>
</svg>
