<?xml version="1.0" encoding="utf-8"?>
<!-- Generator: Adobe Illustrator 16.0.0, SVG Export Plug-In . SVG Version: 6.00 Build 0)  -->
<!DOCTYPE svg PUBLIC "-//W3C//DTD SVG 1.1//EN" "http://www.w3.org/Graphics/SVG/1.1/DTD/svg11.dtd">
<svg version="1.1" xmlns="http://www.w3.org/2000/svg" xmlns:xlink="http://www.w3.org/1999/xlink" x="0px" y="0px" width="32px"
	 height="32px" viewBox="0 0 32 32" enable-background="new 0 0 32 32" xml:space="preserve">
<g id="Layer_1">
	<g>
		
			<polygon fill="#CDB8AB" stroke="#553E31" stroke-width="0.75" stroke-linecap="round" stroke-linejoin="round" stroke-miterlimit="10" points="
			13.71,6.901 17.433,6.471 21.676,7.069 14.241,7.929 13.465,7.768 		"/>
		
			<path fill="#CDB8AB" stroke="#553E31" stroke-width="0.75" stroke-linecap="round" stroke-linejoin="round" stroke-miterlimit="10" d="
			M18.151,6.572c0,0,0.339-4.217,0.375-4.815c0.109-1.775,1.906-2.002,2.03,0.28c0.073,1.327,0.482,4.941,0.482,4.941L18.151,6.572z
			"/>
		
			<path fill="#E4D7CD" stroke="#553E31" stroke-width="0.75" stroke-linecap="round" stroke-linejoin="round" stroke-miterlimit="10" d="
			M12.247,0.604l7.271-0.229c0,0,0.601-0.039,0.854,0.729s0.018,1.61-0.363,1.629c-0.381,0.02-6.699,0.171-6.699,0.171"/>
		
			<path fill="#E4D7CD" stroke="#553E31" stroke-width="0.75" stroke-linecap="round" stroke-linejoin="round" stroke-miterlimit="10" d="
			M10.796,7.555c0,0,0.397-4.97,0.435-5.569c0.109-1.774,1.906-2.001,2.031,0.281c0.072,1.327,0.58,5.83,0.58,5.83L10.796,7.555z"/>
		
			<polygon fill="#E4D7CD" stroke="#553E31" stroke-width="0.75" stroke-linecap="round" stroke-linejoin="round" stroke-miterlimit="10" points="
			10.288,7.106 9.381,28.971 14.35,31.625 22.619,28.074 21.676,7.069 14.241,7.929 		"/>
		
			<line fill="none" stroke="#553E31" stroke-width="0.5842" stroke-miterlimit="10" x1="14.241" y1="7.929" x2="14.35" y2="31.625"/>
		<g>
			<path fill="#553E31" d="M15.987,9.342c-0.271,0.05-0.492,0.31-0.491,0.583l0.002,0.543c0.331-0.246,0.678-0.488,0.98-0.733
				C16.474,9.468,16.256,9.292,15.987,9.342z"/>
			<path fill="#CDB8AB" d="M16.002,11.378c0.273-0.058,0.492-0.326,0.489-0.601l-0.012-1.039c0.001-0.001-0.001-0.003-0.001-0.004
				c-0.303,0.245-0.649,0.487-0.98,0.733l0.002,0.511C15.5,11.257,15.728,11.436,16.002,11.378z"/>
			<path fill="#553E31" d="M17.524,9.06c-0.261,0.049-0.47,0.303-0.467,0.569l0.009,0.529c0.316-0.238,0.646-0.475,0.936-0.714
				C17.994,9.185,17.782,9.014,17.524,9.06z"/>
			<path fill="#CDB8AB" d="M17.563,11.048c0.263-0.054,0.47-0.315,0.465-0.583l-0.024-1.016c0-0.002-0.001-0.003-0.001-0.005
				c-0.289,0.239-0.619,0.476-0.936,0.714l0.008,0.5C17.079,10.931,17.298,11.105,17.563,11.048z"/>
			<path fill="#553E31" d="M19.001,8.79c-0.249,0.046-0.449,0.293-0.442,0.554l0.014,0.518c0.301-0.23,0.618-0.461,0.893-0.693
				C19.455,8.913,19.249,8.745,19.001,8.79z"/>
			<path fill="#CDB8AB" d="M19.06,10.734c0.253-0.051,0.448-0.309,0.439-0.569l-0.033-0.994c0-0.002-0.001-0.002-0.001-0.003
				C19.19,9.4,18.873,9.631,18.572,9.861l0.013,0.49C18.592,10.615,18.806,10.788,19.06,10.734z"/>
			<path fill="#553E31" d="M20.42,8.529c-0.24,0.044-0.43,0.286-0.419,0.54l0.019,0.508c0.286-0.225,0.589-0.449,0.852-0.676
				C20.858,8.651,20.658,8.486,20.42,8.529z"/>
			<path fill="#CDB8AB" d="M20.498,10.433c0.242-0.052,0.429-0.3,0.416-0.557l-0.042-0.971c0-0.001-0.001-0.003-0.001-0.004
				c-0.263,0.227-0.565,0.451-0.852,0.676l0.018,0.478C20.046,10.313,20.253,10.484,20.498,10.433z"/>
			<path fill="#553E31" d="M16.007,11.991c-0.276,0.062-0.502,0.34-0.501,0.622l0.001,0.565c0.339-0.265,0.692-0.53,1.001-0.795
				C16.502,12.107,16.28,11.932,16.007,11.991z"/>
			<path fill="#CDB8AB" d="M16.022,14.11c0.279-0.069,0.502-0.356,0.499-0.642l-0.013-1.081c0-0.001-0.001-0.002-0.001-0.004
				c-0.309,0.265-0.662,0.53-1.001,0.795l0.003,0.532C15.511,14.001,15.741,14.179,16.022,14.11z"/>
			<path fill="#553E31" d="M17.574,11.65c-0.266,0.058-0.479,0.328-0.477,0.604l0.01,0.552c0.321-0.258,0.658-0.515,0.953-0.771
				C18.053,11.764,17.836,11.593,17.574,11.65z"/>
			<path fill="#CDB8AB" d="M17.613,13.718c0.267-0.065,0.478-0.347,0.471-0.623l-0.022-1.056c0-0.002-0.001-0.002-0.001-0.004
				c-0.295,0.257-0.632,0.514-0.953,0.771l0.008,0.521C17.119,13.608,17.344,13.785,17.613,13.718z"/>
			<path fill="#553E31" d="M19.077,11.322c-0.256,0.055-0.456,0.319-0.45,0.59l0.014,0.538c0.307-0.25,0.628-0.5,0.909-0.75
				C19.539,11.437,19.329,11.267,19.077,11.322z"/>
			<path fill="#CDB8AB" d="M19.137,13.342c0.258-0.063,0.457-0.335,0.448-0.607l-0.034-1.03c0-0.002-0.001-0.002-0.001-0.004
				c-0.281,0.25-0.603,0.5-0.909,0.75l0.015,0.508C18.662,13.233,18.879,13.406,19.137,13.342z"/>
			<path fill="#553E31" d="M20.521,11.007c-0.246,0.055-0.438,0.311-0.428,0.575l0.021,0.525c0.291-0.242,0.599-0.486,0.864-0.73
				C20.967,11.119,20.763,10.954,20.521,11.007z"/>
			<path fill="#CDB8AB" d="M20.602,12.981c0.247-0.061,0.437-0.325,0.423-0.591l-0.044-1.009c0-0.002-0.001-0.003-0.002-0.005
				c-0.266,0.244-0.573,0.488-0.864,0.73l0.018,0.497C20.143,12.873,20.354,13.043,20.602,12.981z"/>
			<path fill="#553E31" d="M16.027,14.749c-0.283,0.072-0.513,0.369-0.511,0.664l0.001,0.588c0.345-0.286,0.706-0.575,1.021-0.86
				C16.533,14.853,16.307,14.679,16.027,14.749z"/>
			<path fill="#CDB8AB" d="M16.043,16.954c0.285-0.081,0.513-0.387,0.509-0.685l-0.012-1.124c0-0.002-0.001-0.004-0.001-0.005
				c-0.315,0.285-0.677,0.574-1.021,0.86l0.002,0.555C15.521,16.856,15.757,17.035,16.043,16.954z"/>
			<path fill="#553E31" d="M17.624,14.342c-0.27,0.068-0.488,0.357-0.483,0.646l0.008,0.573c0.329-0.279,0.673-0.558,0.972-0.835
				C18.111,14.445,17.892,14.274,17.624,14.342z"/>
			<path fill="#CDB8AB" d="M17.665,16.493c0.272-0.078,0.487-0.375,0.482-0.664l-0.026-1.098c0-0.001-0.001-0.003-0.001-0.005
				c-0.299,0.277-0.643,0.556-0.972,0.835l0.009,0.541C17.162,16.396,17.391,16.571,17.665,16.493z"/>
			<path fill="#553E31" d="M19.156,13.951c-0.26,0.066-0.466,0.348-0.459,0.629l0.015,0.56c0.313-0.271,0.64-0.54,0.925-0.811
				C19.625,14.055,19.411,13.888,19.156,13.951z"/>
			<path fill="#CDB8AB" d="M19.219,16.051c0.261-0.073,0.465-0.363,0.455-0.646l-0.035-1.071c0-0.002-0.002-0.003-0.002-0.005
				c-0.285,0.271-0.612,0.54-0.925,0.811l0.015,0.527C18.735,15.955,18.956,16.127,19.219,16.051z"/>
			<path fill="#553E31" d="M20.625,13.577c-0.249,0.063-0.444,0.337-0.435,0.611l0.021,0.548c0.298-0.262,0.609-0.526,0.882-0.788
				C21.079,13.681,20.871,13.515,20.625,13.577z"/>
			<path fill="#CDB8AB" d="M20.709,15.629c0.251-0.071,0.443-0.354,0.431-0.629l-0.046-1.047c0-0.002-0.001-0.003-0.001-0.005
				c-0.272,0.262-0.584,0.526-0.882,0.788l0.02,0.516C20.241,15.531,20.456,15.7,20.709,15.629z"/>
			<path fill="#553E31" d="M16.048,17.619c-0.288,0.085-0.522,0.403-0.521,0.71l0.002,0.612c0.35-0.311,0.719-0.622,1.041-0.932
				C16.564,17.711,16.333,17.536,16.048,17.619z"/>
			<path fill="#CDB8AB" d="M16.065,19.917c0.29-0.095,0.521-0.422,0.518-0.73l-0.013-1.172c0-0.002,0-0.003,0-0.005
				c-0.322,0.31-0.691,0.621-1.041,0.932l0.002,0.578C15.532,19.833,15.771,20.012,16.065,19.917z"/>
			<path fill="#553E31" d="M17.677,17.142c-0.276,0.082-0.498,0.391-0.492,0.689l0.008,0.597c0.335-0.302,0.686-0.604,0.99-0.901
				C18.173,17.233,17.949,17.063,17.677,17.142z"/>
			<path fill="#CDB8AB" d="M17.72,19.382c0.277-0.09,0.496-0.408,0.49-0.709l-0.025-1.142c0-0.001-0.002-0.004-0.002-0.005
				c-0.305,0.298-0.655,0.6-0.99,0.901l0.009,0.563C17.206,19.297,17.439,19.472,17.72,19.382z"/>
			<path fill="#553E31" d="M19.237,16.686c-0.264,0.077-0.474,0.377-0.466,0.669l0.016,0.583c0.318-0.293,0.65-0.586,0.939-0.874
				C19.716,16.778,19.499,16.608,19.237,16.686z"/>
			<path fill="#CDB8AB" d="M19.304,18.869c0.267-0.086,0.473-0.395,0.464-0.688l-0.039-1.114c0-0.001-0.002-0.003-0.002-0.004
				c-0.289,0.288-0.621,0.581-0.939,0.874l0.014,0.548C18.809,18.785,19.034,18.957,19.304,18.869z"/>
			<path fill="#553E31" d="M20.733,16.247c-0.253,0.075-0.452,0.366-0.441,0.65l0.021,0.569c0.304-0.283,0.621-0.568,0.897-0.849
				C21.195,16.341,20.984,16.173,20.733,16.247z"/>
			<path fill="#CDB8AB" d="M20.82,18.379c0.256-0.082,0.451-0.383,0.438-0.669l-0.047-1.087c0-0.002-0.001-0.003-0.001-0.005
				c-0.276,0.28-0.594,0.565-0.897,0.849l0.021,0.535C20.346,18.293,20.563,18.463,20.82,18.379z"/>
			<path fill="#553E31" d="M16.07,20.61c-0.295,0.098-0.534,0.437-0.532,0.758l0.002,0.638c0.358-0.336,0.734-0.673,1.063-1.005
				C16.596,20.688,16.36,20.514,16.07,20.61z"/>
			<path fill="#CDB8AB" d="M16.088,23.006c0.296-0.108,0.533-0.458,0.529-0.78l-0.014-1.221c0-0.001-0.001-0.003-0.001-0.004
				c-0.328,0.332-0.704,0.669-1.063,1.005l0.002,0.604C15.543,22.938,15.789,23.114,16.088,23.006z"/>
			<path fill="#553E31" d="M17.733,20.058c-0.282,0.095-0.509,0.424-0.504,0.734l0.01,0.622c0.34-0.324,0.697-0.651,1.009-0.974
				C18.238,20.137,18.01,19.965,17.733,20.058z"/>
			<path fill="#CDB8AB" d="M17.775,22.391c0.285-0.104,0.508-0.441,0.501-0.757l-0.027-1.188c0-0.002-0.001-0.003-0.001-0.005
				c-0.312,0.322-0.669,0.649-1.009,0.974l0.008,0.587C17.253,22.32,17.49,22.495,17.775,22.391z"/>
			<path fill="#553E31" d="M19.323,19.529c-0.271,0.09-0.483,0.408-0.476,0.713l0.016,0.606c0.325-0.315,0.663-0.631,0.96-0.943
				C19.81,19.608,19.589,19.44,19.323,19.529z"/>
			<path fill="#CDB8AB" d="M19.391,21.803c0.271-0.099,0.482-0.428,0.472-0.734l-0.039-1.158c0.001-0.002,0-0.003,0-0.005
				c-0.297,0.313-0.635,0.628-0.96,0.943l0.017,0.571C18.888,21.73,19.117,21.902,19.391,21.803z"/>
			<path fill="#553E31" d="M20.847,19.022c-0.258,0.086-0.46,0.396-0.449,0.691l0.022,0.592c0.308-0.306,0.631-0.611,0.911-0.914
				C21.316,19.103,21.102,18.938,20.847,19.022z"/>
			<path fill="#CDB8AB" d="M20.937,21.239c0.26-0.095,0.459-0.414,0.446-0.712l-0.051-1.131c0-0.002-0.001-0.003-0.001-0.005
				c-0.28,0.303-0.604,0.608-0.911,0.914l0.02,0.558C20.451,21.166,20.674,21.335,20.937,21.239z"/>
			<path fill="#553E31" d="M16.093,23.729c-0.301,0.112-0.545,0.475-0.543,0.81l0.002,0.667c0.366-0.364,0.75-0.729,1.084-1.089
				C16.63,23.794,16.389,23.619,16.093,23.729z"/>
			<path fill="#CDB8AB" d="M16.111,26.231c0.304-0.125,0.545-0.497,0.541-0.834l-0.015-1.274c0-0.002-0.002-0.004-0.002-0.006
				c-0.334,0.359-0.718,0.725-1.084,1.089l0.002,0.629C15.556,26.178,15.806,26.355,16.111,26.231z"/>
			<path fill="#553E31" d="M17.79,23.095c-0.288,0.108-0.519,0.459-0.514,0.784l0.01,0.649c0.348-0.352,0.712-0.705,1.03-1.051
				C18.307,23.161,18.073,22.989,17.79,23.095z"/>
			<path fill="#CDB8AB" d="M17.835,25.527c0.289-0.117,0.516-0.479,0.51-0.806l-0.027-1.239c0-0.002-0.001-0.004-0.001-0.005
				c-0.318,0.346-0.683,0.699-1.03,1.051l0.01,0.612C17.301,25.473,17.543,25.647,17.835,25.527z"/>
			<path fill="#553E31" d="M19.411,22.489c-0.274,0.103-0.492,0.442-0.483,0.76l0.017,0.631c0.33-0.34,0.676-0.681,0.978-1.016
				C19.908,22.556,19.683,22.387,19.411,22.489z"/>
			<path fill="#CDB8AB" d="M19.482,24.857c0.276-0.112,0.491-0.462,0.48-0.781l-0.041-1.208c0-0.001,0-0.003,0-0.004
				c-0.302,0.335-0.647,0.676-0.978,1.016l0.016,0.597C18.968,24.8,19.204,24.971,19.482,24.857z"/>
			<path fill="#553E31" d="M20.964,21.908c-0.263,0.099-0.47,0.429-0.457,0.737l0.022,0.615c0.314-0.328,0.643-0.658,0.93-0.984
				C21.442,21.978,21.223,21.813,20.964,21.908z"/>
			<path fill="#CDB8AB" d="M21.059,24.217c0.264-0.108,0.467-0.447,0.453-0.758l-0.053-1.178c0-0.001,0-0.002,0-0.005
				c-0.287,0.326-0.615,0.656-0.93,0.984l0.021,0.581C20.563,24.158,20.791,24.325,21.059,24.217z"/>
			<path fill="#553E31" d="M16.116,26.986c-0.307,0.128-0.557,0.516-0.555,0.864l0.002,0.696c0.374-0.393,0.768-0.788,1.108-1.175
				C16.666,27.032,16.42,26.86,16.116,26.986z"/>
			<path fill="#CDB8AB" d="M16.136,29.598c0.31-0.141,0.557-0.538,0.553-0.889l-0.015-1.332c0-0.002-0.002-0.003-0.002-0.005
				c-0.341,0.387-0.734,0.782-1.108,1.175l0.002,0.658C15.567,29.563,15.823,29.738,16.136,29.598z"/>
			<path fill="#553E31" d="M17.85,26.263c-0.294,0.123-0.529,0.497-0.524,0.838l0.012,0.677c0.354-0.379,0.726-0.762,1.049-1.135
				C18.377,26.313,18.139,26.143,17.85,26.263z"/>
			<path fill="#CDB8AB" d="M17.896,28.803c0.296-0.134,0.527-0.52,0.521-0.86l-0.029-1.294c0-0.003-0.002-0.004-0.002-0.006
				c-0.323,0.373-0.694,0.756-1.049,1.135l0.01,0.639C17.352,28.763,17.599,28.937,17.896,28.803z"/>
			<path fill="#553E31" d="M19.503,25.573c-0.279,0.116-0.501,0.479-0.492,0.81l0.017,0.658c0.337-0.365,0.689-0.734,0.997-1.095
				C20.012,25.625,19.78,25.458,19.503,25.573z"/>
			<path fill="#CDB8AB" d="M19.577,28.044c0.282-0.129,0.501-0.502,0.489-0.834l-0.041-1.259c0-0.002-0.001-0.003-0.001-0.005
				c-0.308,0.36-0.66,0.729-0.997,1.095l0.018,0.622C19.054,28.001,19.293,28.172,19.577,28.044z"/>
			<path fill="#553E31" d="M21.086,24.914c-0.268,0.111-0.478,0.463-0.466,0.782l0.023,0.643c0.32-0.354,0.655-0.709,0.946-1.059
				C21.574,24.967,21.35,24.803,21.086,24.914z"/>
			<path fill="#CDB8AB" d="M21.184,27.318c0.271-0.122,0.475-0.484,0.462-0.808l-0.055-1.226c0-0.002-0.001-0.003-0.001-0.005
				c-0.291,0.35-0.626,0.705-0.946,1.059l0.022,0.605C20.68,27.272,20.911,27.44,21.184,27.318z"/>
		</g>
		<g>
			<g>
				<path fill="#553E31" d="M13.759,26.913c-0.178,0.312-0.491,0.562-0.852,0.697c-0.362,0.143-0.759,0.138-1.125,0.093
					c-0.346-0.079-0.743-0.218-1.026-0.477c-0.291-0.255-0.495-0.6-0.548-0.961c-0.013-0.081,0.043-0.155,0.124-0.167
					c0.051-0.008,0.101,0.013,0.132,0.049l0.004,0.005c0.414,0.481,0.869,0.749,1.442,0.826c0.566,0.124,1.085,0.032,1.651-0.271
					c0.072-0.038,0.161-0.011,0.2,0.061C13.786,26.814,13.782,26.87,13.759,26.913z"/>
			</g>
			<g>
				<path fill="#CDB8AB" d="M13.712,27.302c-0.178,0.315-0.493,0.569-0.855,0.707c-0.37,0.145-0.752,0.146-1.147,0.097
					c-0.325-0.075-0.743-0.219-1.022-0.479c-0.293-0.258-0.498-0.605-0.551-0.971c-0.012-0.08,0.044-0.155,0.125-0.166
					c0.052-0.008,0.102,0.013,0.133,0.05l0.004,0.005c0.206,0.245,0.421,0.44,0.663,0.573c0.254,0.137,0.476,0.226,0.8,0.268
					c0.257,0.061,0.555,0.061,0.822,0.018c0.276-0.042,0.544-0.146,0.83-0.304c0.072-0.039,0.161-0.013,0.2,0.059
					C13.738,27.203,13.735,27.259,13.712,27.302z"/>
			</g>
		</g>
		<g>
			<g>
				<path fill="#553E31" d="M13.715,24.491c-0.174,0.298-0.485,0.529-0.833,0.648c-0.355,0.124-0.716,0.113-1.086,0.063
					c-0.306-0.077-0.698-0.213-0.964-0.457c-0.279-0.242-0.48-0.569-0.532-0.917c-0.012-0.08,0.044-0.155,0.125-0.167
					c0.05-0.008,0.098,0.012,0.13,0.046l0.005,0.006c0.202,0.224,0.409,0.398,0.64,0.519c0.242,0.124,0.45,0.209,0.757,0.251
					c0.243,0.063,0.522,0.071,0.775,0.043c0.261-0.026,0.515-0.108,0.792-0.243c0.073-0.036,0.162-0.005,0.198,0.068
					C13.743,24.396,13.738,24.45,13.715,24.491z"/>
			</g>
			<g>
				<path fill="#CDB8AB" d="M13.671,24.853c-0.177,0.298-0.488,0.53-0.838,0.652c-0.357,0.127-0.718,0.12-1.096,0.069
					c-0.308-0.078-0.703-0.216-0.971-0.462c-0.281-0.244-0.482-0.574-0.535-0.923c-0.012-0.081,0.044-0.156,0.124-0.168
					c0.051-0.008,0.099,0.011,0.131,0.046l0.005,0.005c0.204,0.228,0.411,0.405,0.645,0.527c0.243,0.126,0.453,0.212,0.763,0.255
					c0.242,0.062,0.526,0.068,0.781,0.038c0.264-0.029,0.52-0.114,0.8-0.251c0.074-0.035,0.162-0.005,0.198,0.069
					C13.7,24.757,13.694,24.812,13.671,24.853z"/>
			</g>
		</g>
		<g>
			<g>
				<path fill="#553E31" d="M13.677,22.256c-0.175,0.282-0.482,0.493-0.817,0.599c-0.343,0.109-0.687,0.093-1.038,0.04
					c-0.291-0.077-0.665-0.207-0.921-0.44c-0.268-0.23-0.465-0.543-0.514-0.878c-0.012-0.081,0.044-0.156,0.125-0.168
					c0.049-0.008,0.096,0.011,0.128,0.044l0.005,0.005c0.199,0.209,0.398,0.37,0.62,0.481c0.232,0.115,0.431,0.196,0.723,0.239
					c0.233,0.063,0.499,0.076,0.741,0.059c0.249-0.017,0.492-0.082,0.765-0.197c0.075-0.032,0.163,0.004,0.195,0.079
					C13.707,22.164,13.701,22.216,13.677,22.256z"/>
			</g>
			<g>
				<path fill="#CDB8AB" d="M13.633,22.587c-0.175,0.283-0.482,0.497-0.819,0.605c-0.346,0.111-0.69,0.097-1.047,0.045
					c-0.294-0.078-0.67-0.21-0.927-0.444c-0.269-0.231-0.468-0.546-0.519-0.883c-0.013-0.081,0.043-0.156,0.124-0.168
					c0.049-0.008,0.097,0.01,0.128,0.043l0.006,0.006c0.2,0.21,0.401,0.373,0.625,0.486c0.234,0.116,0.434,0.198,0.729,0.242
					c0.233,0.063,0.502,0.074,0.746,0.056c0.251-0.019,0.496-0.088,0.771-0.205c0.075-0.032,0.162,0.003,0.195,0.078
					C13.664,22.494,13.657,22.547,13.633,22.587z"/>
			</g>
		</g>
		<g>
			<g>
				<path fill="#553E31" d="M13.64,20.18c-0.174,0.27-0.478,0.463-0.801,0.556c-0.331,0.097-0.657,0.075-0.994,0.021
					c-0.277-0.078-0.633-0.203-0.879-0.425c-0.257-0.219-0.451-0.517-0.5-0.841c-0.013-0.08,0.043-0.156,0.124-0.168
					c0.048-0.008,0.094,0.009,0.126,0.04l0.006,0.007c0.196,0.192,0.39,0.339,0.604,0.443c0.225,0.106,0.413,0.185,0.693,0.229
					c0.221,0.063,0.476,0.08,0.707,0.072c0.239-0.008,0.472-0.059,0.736-0.157c0.077-0.028,0.164,0.011,0.192,0.089
					C13.671,20.091,13.664,20.142,13.64,20.18z"/>
			</g>
			<g>
				<path fill="#CDB8AB" d="M13.598,20.488c-0.175,0.271-0.479,0.466-0.804,0.561c-0.334,0.098-0.661,0.078-1.002,0.025
					c-0.279-0.078-0.638-0.205-0.885-0.429c-0.259-0.221-0.454-0.521-0.503-0.847c-0.012-0.081,0.044-0.156,0.125-0.168
					c0.048-0.008,0.094,0.009,0.126,0.041l0.007,0.006c0.195,0.195,0.391,0.345,0.605,0.45c0.226,0.107,0.416,0.187,0.697,0.23
					c0.222,0.063,0.479,0.078,0.713,0.069c0.241-0.009,0.476-0.062,0.742-0.162c0.077-0.028,0.163,0.011,0.192,0.088
					C13.63,20.399,13.622,20.449,13.598,20.488z"/>
			</g>
		</g>
		<g>
			<g>
				<path fill="#553E31" d="M13.604,18.25c-0.159,0.245-0.476,0.439-0.781,0.517c-0.321,0.084-0.629,0.055-0.955,0.008
					c-0.264-0.078-0.605-0.199-0.842-0.411c-0.247-0.21-0.438-0.496-0.485-0.809c-0.013-0.081,0.043-0.157,0.124-0.169
					c0.047-0.008,0.091,0.008,0.123,0.037l0.007,0.007c0.193,0.18,0.382,0.315,0.588,0.412c0.216,0.1,0.396,0.175,0.665,0.219
					c0.211,0.058,0.455,0.081,0.678,0.082c0.236-0.003,0.438-0.033,0.713-0.123c0.078-0.025,0.162,0.018,0.188,0.096
					c0.015,0.044,0.007,0.09-0.016,0.127L13.604,18.25z"/>
			</g>
			<g>
				<path fill="#CDB8AB" d="M13.565,18.534c-0.174,0.259-0.474,0.439-0.787,0.523c-0.322,0.087-0.637,0.061-0.96,0.008
					c-0.267-0.077-0.61-0.199-0.849-0.412c-0.249-0.211-0.441-0.498-0.49-0.813c-0.012-0.081,0.043-0.157,0.125-0.17
					c0.046-0.007,0.092,0.009,0.123,0.038l0.008,0.007c0.193,0.182,0.383,0.318,0.59,0.416c0.218,0.101,0.399,0.176,0.671,0.219
					c0.215,0.064,0.459,0.084,0.683,0.083c0.23-0.001,0.456-0.042,0.715-0.126c0.079-0.025,0.164,0.018,0.189,0.097
					C13.598,18.449,13.59,18.497,13.565,18.534z"/>
			</g>
		</g>
		<g>
			<g>
				<path fill="#553E31" d="M13.569,16.452c-0.159,0.233-0.47,0.413-0.765,0.48c-0.311,0.074-0.604,0.042-0.918-0.007
					c-0.253-0.078-0.578-0.195-0.806-0.398c-0.237-0.201-0.427-0.474-0.473-0.778c-0.013-0.081,0.043-0.157,0.125-0.17
					c0.045-0.007,0.089,0.008,0.121,0.035l0.008,0.008c0.188,0.168,0.371,0.291,0.57,0.382c0.209,0.093,0.383,0.166,0.641,0.21
					c0.201,0.058,0.437,0.085,0.649,0.092c0.228,0.005,0.421-0.016,0.688-0.09c0.079-0.021,0.162,0.025,0.184,0.105
					c0.013,0.043,0.004,0.088-0.02,0.123L13.569,16.452z"/>
			</g>
			<g>
				<path fill="#CDB8AB" d="M13.531,16.717c-0.159,0.236-0.472,0.417-0.769,0.486c-0.312,0.075-0.607,0.044-0.924-0.004
					c-0.255-0.079-0.582-0.197-0.812-0.4c-0.239-0.203-0.428-0.478-0.476-0.783c-0.013-0.081,0.043-0.157,0.125-0.17
					c0.045-0.007,0.089,0.008,0.121,0.035l0.008,0.008c0.19,0.169,0.374,0.295,0.574,0.387c0.211,0.094,0.386,0.167,0.645,0.211
					c0.203,0.058,0.439,0.084,0.654,0.09c0.229,0.004,0.424-0.018,0.692-0.094c0.079-0.022,0.162,0.023,0.185,0.103
					c0.013,0.044,0.004,0.089-0.02,0.124L13.531,16.717z"/>
			</g>
		</g>
		<g>
			<g>
				<path fill="#553E31" d="M13.54,14.769c-0.157,0.225-0.463,0.391-0.748,0.451c-0.301,0.066-0.582,0.03-0.884-0.018
					c-0.242-0.078-0.556-0.191-0.775-0.386c-0.229-0.193-0.414-0.456-0.459-0.751c-0.013-0.082,0.043-0.158,0.125-0.171
					c0.044-0.007,0.087,0.007,0.118,0.033l0.009,0.007c0.187,0.157,0.363,0.271,0.556,0.356c0.203,0.086,0.369,0.156,0.618,0.2
					c0.193,0.058,0.419,0.086,0.624,0.1c0.219,0.01,0.403-0.001,0.664-0.063c0.08-0.019,0.161,0.031,0.181,0.112
					c0.01,0.043,0,0.087-0.023,0.12L13.54,14.769z"/>
			</g>
			<g>
				<path fill="#CDB8AB" d="M13.503,15.016c-0.159,0.227-0.465,0.394-0.752,0.456c-0.302,0.067-0.586,0.032-0.889-0.016
					c-0.244-0.078-0.56-0.192-0.781-0.388c-0.23-0.195-0.415-0.459-0.462-0.755c-0.013-0.082,0.043-0.158,0.124-0.171
					c0.045-0.007,0.087,0.006,0.119,0.033l0.009,0.007c0.188,0.158,0.366,0.273,0.56,0.36c0.204,0.087,0.371,0.158,0.622,0.202
					c0.194,0.058,0.421,0.086,0.628,0.098c0.221,0.01,0.407-0.004,0.668-0.065c0.081-0.02,0.162,0.03,0.182,0.111
					c0.01,0.043,0.001,0.087-0.022,0.12L13.503,15.016z"/>
			</g>
		</g>
		<g>
			<g>
				<path fill="#553E31" d="M13.512,13.193c-0.157,0.215-0.457,0.369-0.732,0.422c-0.294,0.059-0.555,0.023-0.859-0.029
					c-0.203-0.073-0.525-0.185-0.737-0.371c-0.223-0.186-0.4-0.441-0.448-0.726c-0.014-0.081,0.041-0.158,0.122-0.172
					c0.042-0.007,0.083,0.005,0.115,0.028l0.013,0.011c0.188,0.144,0.355,0.251,0.544,0.33c0.197,0.079,0.338,0.139,0.604,0.194
					c0.17,0.055,0.397,0.088,0.592,0.105c0.21,0.015,0.388,0.011,0.641-0.037c0.082-0.016,0.161,0.039,0.177,0.121
					c0.008,0.042-0.002,0.084-0.026,0.116L13.512,13.193z"/>
			</g>
			<g>
				<path fill="#CDB8AB" d="M13.475,13.425c-0.158,0.216-0.458,0.371-0.735,0.426c-0.296,0.06-0.556,0.026-0.865-0.027
					c-0.205-0.073-0.528-0.187-0.742-0.374c-0.224-0.186-0.402-0.443-0.45-0.73c-0.014-0.081,0.042-0.157,0.123-0.171
					c0.042-0.007,0.083,0.005,0.115,0.029l0.014,0.011c0.187,0.145,0.355,0.254,0.545,0.334c0.199,0.08,0.341,0.141,0.608,0.196
					c0.169,0.054,0.4,0.087,0.595,0.104c0.212,0.015,0.392,0.009,0.646-0.041c0.082-0.016,0.161,0.038,0.177,0.12
					c0.009,0.043-0.002,0.085-0.025,0.117L13.475,13.425z"/>
			</g>
		</g>
		<g>
			<g>
				<path fill="#553E31" d="M13.484,11.715c-0.156,0.207-0.451,0.35-0.718,0.396c-0.285,0.052-0.533,0.015-0.829-0.038
					c-0.196-0.072-0.505-0.181-0.711-0.36c-0.215-0.179-0.39-0.425-0.437-0.703c-0.014-0.081,0.041-0.158,0.123-0.172
					c0.041-0.007,0.081,0.004,0.112,0.026l0.015,0.011c0.184,0.134,0.347,0.233,0.529,0.308c0.192,0.075,0.328,0.133,0.585,0.188
					c0.163,0.054,0.384,0.089,0.57,0.11c0.204,0.021,0.373,0.023,0.619-0.014c0.083-0.012,0.161,0.045,0.173,0.128
					c0.007,0.042-0.005,0.082-0.028,0.114L13.484,11.715z"/>
			</g>
			<g>
				<path fill="#CDB8AB" d="M13.448,11.932c-0.157,0.208-0.452,0.351-0.72,0.399c-0.288,0.053-0.534,0.018-0.836-0.035
					c-0.197-0.073-0.508-0.183-0.714-0.364c-0.217-0.179-0.392-0.428-0.438-0.706c-0.014-0.081,0.041-0.158,0.122-0.172
					c0.042-0.007,0.082,0.004,0.113,0.026l0.015,0.011c0.185,0.135,0.349,0.237,0.532,0.313c0.193,0.076,0.33,0.134,0.589,0.189
					c0.159,0.053,0.386,0.087,0.572,0.108c0.205,0.02,0.376,0.021,0.624-0.018c0.083-0.012,0.161,0.045,0.174,0.128
					c0.006,0.042-0.006,0.082-0.029,0.113L13.448,11.932z"/>
			</g>
		</g>
	</g>
</g>
<g id="Layer_3">
</g>
</svg>
