<?xml version="1.0" encoding="utf-8"?>
<!-- Generator: Adobe Illustrator 15.0.0, SVG Export Plug-In . SVG Version: 6.00 Build 0)  -->
<!DOCTYPE svg PUBLIC "-//W3C//DTD SVG 1.1//EN" "http://www.w3.org/Graphics/SVG/1.1/DTD/svg11.dtd">
<svg version="1.1" id="Layer_1" xmlns="http://www.w3.org/2000/svg" xmlns:xlink="http://www.w3.org/1999/xlink" x="0px" y="0px"
	 width="880px" height="11px" viewBox="793.07 10.091 880 11" enable-background="new 793.07 10.091 880 11" xml:space="preserve">
<path fill="#CDB8AB" d="M1250.308,21.09c-1.801,0-3.62-0.546-5.412-1.649c-1.746-1.076-2.838-2.554-3.071-4.161
	c-0.194-1.334,0.239-2.67,1.222-3.76c1.318-1.462,3.754-1.861,5.66-0.925c0.781,0.381,1.315,1.048,1.468,1.828
	c0.146,0.74-0.072,1.497-0.596,2.079c-0.604,0.671-1.646,0.731-2.325,0.132c-0.381-0.335-0.566-0.805-0.552-1.271
	c-0.489-0.052-0.986,0.092-1.196,0.324c-0.338,0.376-0.477,0.745-0.42,1.128c0.09,0.622,0.671,1.318,1.553,1.86
	c3.366,2.073,6.55,1.364,9.735-2.17c4.204-4.665,9.147-5.65,13.923-2.776c1.776,1.07,2.887,2.527,3.124,4.104
	c0.202,1.341-0.246,2.699-1.26,3.825c-1.319,1.463-3.753,1.86-5.661,0.926c-0.779-0.381-1.314-1.048-1.468-1.827
	c-0.144-0.739,0.072-1.497,0.597-2.079c0.604-0.672,1.646-0.732,2.326-0.133c0.381,0.334,0.566,0.804,0.551,1.271
	c0.488,0.052,0.985-0.091,1.195-0.324c0.547-0.607,0.483-1.036,0.461-1.179c-0.09-0.594-0.664-1.251-1.578-1.802
	c-3.404-2.05-6.593-1.342-9.75,2.161C1256.194,19.604,1253.277,21.09,1250.308,21.09z"/>
<path fill="#CDB8AB" d="M1226.382,21.09c-2.969,0-5.884-1.486-8.524-4.417c-3.158-3.503-6.347-4.21-9.749-2.161
	c-0.915,0.55-1.49,1.208-1.58,1.802c-0.021,0.142-0.086,0.571,0.461,1.18c0.21,0.232,0.707,0.375,1.195,0.323
	c-0.016-0.467,0.171-0.936,0.552-1.271c0.679-0.599,1.721-0.539,2.326,0.133c0.524,0.582,0.741,1.34,0.596,2.079
	c-0.153,0.779-0.688,1.446-1.467,1.827c-1.909,0.935-4.342,0.537-5.661-0.925c-1.015-1.127-1.463-2.485-1.26-3.826
	c0.238-1.577,1.347-3.034,3.125-4.104c4.774-2.874,9.718-1.889,13.923,2.776c3.184,3.533,6.369,4.244,9.735,2.17
	c0.881-0.542,1.462-1.238,1.553-1.86c0.056-0.383-0.082-0.752-0.42-1.128c-0.21-0.232-0.708-0.375-1.197-0.325
	c0.016,0.466-0.17,0.937-0.55,1.271c-0.679,0.599-1.72,0.539-2.326-0.132c-0.523-0.582-0.741-1.339-0.596-2.079
	c0.153-0.779,0.688-1.446,1.468-1.828c1.908-0.935,4.342-0.538,5.66,0.926c0.982,1.09,1.416,2.425,1.222,3.76
	c-0.233,1.607-1.325,3.084-3.071,4.161C1230.003,20.544,1228.182,21.09,1226.382,21.09z"/>
<linearGradient id="SVGID_1_" gradientUnits="userSpaceOnUse" x1="1576.7056" y1="-367.4587" x2="1969.0698" y2="-367.4587" gradientTransform="matrix(1 0 0 -1 -296 -353.8198)">
	<stop  offset="0" style="stop-color:#CDB8AB"/>
	<stop  offset="1" style="stop-color:#FFFCF6"/>
</linearGradient>
<rect x="1280.706" y="12.777" fill="url(#SVGID_1_)" width="392.364" height="1.724"/>
<linearGradient id="SVGID_2_" gradientUnits="userSpaceOnUse" x1="1576.7056" y1="-371.3621" x2="1969.0698" y2="-371.3621" gradientTransform="matrix(1 0 0 -1 -296 -353.8198)">
	<stop  offset="0" style="stop-color:#CDB8AB"/>
	<stop  offset="1" style="stop-color:#FFFCF6"/>
</linearGradient>
<rect x="1280.706" y="16.68" fill="url(#SVGID_2_)" width="392.364" height="1.725"/>
<linearGradient id="SVGID_3_" gradientUnits="userSpaceOnUse" x1="4565.8159" y1="-367.4587" x2="4968.7319" y2="-367.4587" gradientTransform="matrix(-1 0 0 -1 5761.8018 -353.8198)">
	<stop  offset="0" style="stop-color:#CDB8AB"/>
	<stop  offset="1" style="stop-color:#FFFCF6"/>
</linearGradient>
<rect x="793.07" y="12.777" fill="url(#SVGID_3_)" width="402.916" height="1.724"/>
<linearGradient id="SVGID_4_" gradientUnits="userSpaceOnUse" x1="4565.8159" y1="-371.3621" x2="4968.7319" y2="-371.3621" gradientTransform="matrix(-1 0 0 -1 5761.8018 -353.8198)">
	<stop  offset="0" style="stop-color:#CDB8AB"/>
	<stop  offset="1" style="stop-color:#FFFCF6"/>
</linearGradient>
<rect x="793.07" y="16.68" fill="url(#SVGID_4_)" width="402.916" height="1.725"/>
</svg>
