<?xml version="1.0" encoding="utf-8"?>
<!-- Generator: Adobe Illustrator 16.0.0, SVG Export Plug-In . SVG Version: 6.00 Build 0)  -->
<!DOCTYPE svg PUBLIC "-//W3C//DTD SVG 1.1//EN" "http://www.w3.org/Graphics/SVG/1.1/DTD/svg11.dtd">
<svg version="1.1" xmlns="http://www.w3.org/2000/svg" xmlns:xlink="http://www.w3.org/1999/xlink" x="0px" y="0px" width="32px"
	 height="32px" viewBox="0 0 32 32" enable-background="new 0 0 32 32" xml:space="preserve">
<g id="Layer_1">
	<g>
		<g id="XMLID_20_">
			<path fill="#EBE0D5" d="M10.008,23.563c-0.142,0-0.27-0.033-0.382-0.099c-0.142-0.083-0.501-0.172-0.818-0.25
				c-0.36-0.089-0.733-0.181-0.99-0.306l0,0c-0.001,0-0.065-0.021-0.257-0.021c-0.32,0-0.771,0.055-1.208,0.107
				c-0.426,0.051-0.828,0.1-1.12,0.1c-0.098,0-0.184-0.006-0.253-0.018c-0.08-0.013-1.962-0.318-2.653-1.205
				c-0.226-0.287-0.496-0.517-0.759-0.738c-0.259-0.219-0.504-0.426-0.685-0.673c-0.358-0.486-0.682-0.925-0.286-1.846
				c0.098-0.228,0.179-0.381,0.244-0.505c0.136-0.259,0.165-0.313,0.148-0.765c-0.026-0.86,0.144-2.038,0.314-2.518
				c0.182-0.49,0.416-0.628,0.713-0.686c0.257-0.066,0.499-0.095,0.786-0.095c0.449,0,0.911,0.069,1.219,0.121
				c0.068,0.012,0.179,0.015,0.315,0.015c0.915,0,2.821-0.188,2.902-0.195c0.005,0,0.01,0,0.015,0c0.487,0,0.797,0.226,1.047,0.407
				c0.108,0.078,0.22,0.159,0.293,0.188c0.169-0.011,0.762-0.247,1.154-0.403c0.343-0.137,0.663-0.262,0.866-0.312
				c0.236-0.059,0.461-0.079,0.673-0.098c0.251-0.021,0.449-0.039,0.61-0.127c0.098-0.054,0.171-0.144,0.263-0.257
				c0.161-0.197,0.382-0.468,0.822-0.606c0.215-0.067,0.374-0.09,0.509-0.108c0.199-0.028,0.234-0.033,0.401-0.216
				c0.646-0.706,1.295-1.36,1.914-1.36c0.34,0.026,0.682,0.114,1.044,0.206c0.349,0.089,0.744,0.19,0.938,0.19
				c0.308,0,1.207-0.355,1.747-0.649c0.459-0.254,1.612-0.708,2.27-0.708c0.24,0,0.699-0.058,1.521-0.331
				c0.241-0.079,0.843-0.262,1.256-0.262c0.124,0,0.228,0.017,0.317,0.049c0.225-0.008,0.559-0.051,0.872-0.089
				c0.314-0.039,0.611-0.074,0.771-0.074c0.025,0,0.129,0.008,0.153,0.013c0.201,0.038,0.314,0.14,0.376,0.194
				c0.006-0.005,0.04-0.01,0.083-0.019c0.216-0.042,0.263-0.101,0.417-0.297c0.044-0.057,0.092-0.117,0.147-0.181
				c0.256-0.294,0.586-0.6,1.113-0.665l0.106-0.016c0.086-0.014,0.158-0.022,0.22-0.022c0.474,0,0.619,0.433,0.697,0.665
				c0.075,0.225,0.119,0.498,0.162,0.77c0.043,0.276,0.091,0.591,0.172,0.724c0.038,0.063,0.079,0.095,0.16,0.156
				c0.219,0.166,0.423,0.355,0.529,0.846c0.035,0.165,0.139,0.282,0.271,0.431c0.208,0.234,0.492,0.557,0.426,1.107
				c-0.051,0.433-0.077,0.546-0.234,0.761c-0.044,0.062-0.108,0.149-0.208,0.342l-0.131,0.261c-0.221,0.452-0.344,0.663-0.939,0.931
				c-0.645,0.288-1.94,1.154-2.096,1.44c-0.364,0.665-3.044,1.589-3.465,1.654c-0.511,0.081-1.72,0.459-2.309,0.925
				c-0.384,0.302-1.084,0.531-1.826,0.774c-0.634,0.207-1.352,0.442-1.586,0.654c-0.57,0.508-2.246,0.854-3.81,1.127l-0.121,0.021
				c-0.298,0.054-0.862,0.264-1.408,0.467c-0.917,0.341-1.499,0.547-1.854,0.547c-0.16,0-0.434,0.127-0.675,0.239
				C10.598,23.425,10.298,23.563,10.008,23.563z"/>
			<path fill="#553E31" d="M29.158,8.846c0.133,0,0.203,0.072,0.31,0.387c0.159,0.48,0.159,1.225,0.371,1.574
				c0.215,0.352,0.507,0.262,0.64,0.877c0.132,0.611,0.77,0.744,0.69,1.402c-0.078,0.654-0.078,0.348-0.399,0.961
				c-0.318,0.613-0.291,0.746-0.875,1.008c-0.589,0.264-2.05,1.18-2.288,1.619c-0.239,0.438-2.609,1.357-3.168,1.445
				c-0.557,0.088-1.835,0.482-2.499,1.008c-0.667,0.525-2.848,0.918-3.433,1.445c-0.587,0.523-2.98,0.918-3.727,1.049
				c-0.743,0.135-2.632,1.008-3.191,1.008c-0.483,0-1.165,0.524-1.581,0.524c-0.065,0-0.124-0.013-0.174-0.042
				c-0.374-0.219-1.385-0.35-1.837-0.57c-0.092-0.045-0.245-0.062-0.437-0.062c-0.661,0-1.771,0.206-2.328,0.206
				c-0.073,0-0.138-0.004-0.189-0.012c-0.557-0.088-1.914-0.438-2.394-1.053c-0.479-0.611-1.116-0.963-1.436-1.4
				c-0.32-0.438-0.56-0.701-0.241-1.443c0.321-0.744,0.454-0.658,0.426-1.445c-0.024-0.789,0.135-1.926,0.291-2.365
				c0.162-0.438,0.321-0.393,0.48-0.438c0.188-0.051,0.406-0.07,0.633-0.07c0.394,0,0.813,0.059,1.15,0.115
				c0.086,0.014,0.22,0.02,0.384,0.02c0.855,0,2.562-0.159,2.942-0.197c0.02-0.002,0.038-0.003,0.057-0.003
				c0.427,0,0.782,0.448,1.113,0.573c0.029,0.011,0.066,0.017,0.109,0.017c0.465,0,1.665-0.598,2.152-0.716
				c0.531-0.133,0.983-0.045,1.383-0.264c0.4-0.221,0.452-0.656,1.012-0.832c0.559-0.174,0.69,0,1.09-0.439
				c0.391-0.427,1.107-1.227,1.611-1.227c0.013,0,0.025,0.001,0.038,0.002c0.506,0.045,1.49,0.395,1.943,0.395
				c0.451,0,1.463-0.438,1.943-0.699c0.478-0.264,1.541-0.658,2.073-0.658c0.533,0,1.251-0.219,1.65-0.352
				c0.324-0.106,0.823-0.24,1.127-0.24c0.07,0,0.131,0.007,0.176,0.023c0.034,0.012,0.091,0.018,0.164,0.018
				c0.403,0,1.304-0.155,1.621-0.155c0.032,0,0.059,0.001,0.077,0.005c0.199,0.037,0.177,0.196,0.428,0.196
				c0.05,0,0.11-0.006,0.185-0.021c0.453-0.088,0.533-0.307,0.797-0.613c0.266-0.305,0.508-0.482,0.854-0.525
				C29.002,8.866,29.089,8.846,29.158,8.846 M29.158,8.027c-0.079,0-0.172,0.01-0.283,0.027l-0.094,0.014
				c-0.668,0.083-1.083,0.471-1.369,0.8c-0.063,0.073-0.115,0.138-0.163,0.199c-0.03,0.039-0.07,0.09-0.096,0.118
				c-0.097-0.06-0.222-0.117-0.382-0.146c-0.057-0.011-0.134-0.02-0.229-0.02c-0.2,0-0.488,0.035-0.822,0.076
				c-0.275,0.034-0.617,0.077-0.785,0.079c-0.105-0.027-0.223-0.041-0.354-0.041c-0.455,0-1.062,0.176-1.382,0.281
				c-0.814,0.271-1.224,0.311-1.396,0.311c-0.771,0-1.989,0.495-2.469,0.761c-0.548,0.298-1.339,0.59-1.55,0.597
				c-0.14,0-0.558-0.106-0.835-0.177c-0.378-0.097-0.735-0.188-1.034-0.215c-0.023-0.002-0.087-0.005-0.11-0.005
				c-0.786,0-1.481,0.689-2.184,1.458c0,0-0.033,0.036-0.034,0.037c-0.061,0.066-0.088,0.086-0.089,0.086
				c0.003-0.004-0.003-0.006-0.014-0.006c-0.013,0-0.031,0.002-0.052,0.005c-0.128,0.019-0.322,0.045-0.572,0.123
				c-0.561,0.176-0.837,0.515-1.02,0.739c-0.057,0.069-0.115,0.142-0.145,0.157c-0.083,0.046-0.251,0.061-0.446,0.077
				c-0.205,0.018-0.46,0.04-0.739,0.109c-0.241,0.059-0.554,0.184-0.916,0.327c-0.26,0.104-0.708,0.282-0.945,0.344
				c-0.037-0.025-0.077-0.055-0.109-0.079c-0.269-0.194-0.674-0.49-1.206-0.49c-0.044,0-0.089,0.002-0.134,0.007
				c-0.681,0.067-2.149,0.193-2.865,0.193c-0.107,0-0.195,0-0.254-0.009c-0.316-0.054-0.8-0.126-1.279-0.126
				c-0.325,0-0.603,0.032-0.848,0.099c-0.516,0.1-0.829,0.39-1.035,0.944c-0.209,0.589-0.367,1.835-0.341,2.675
				c0.012,0.348,0.012,0.348-0.102,0.563c-0.069,0.131-0.154,0.294-0.258,0.532c-0.488,1.14-0.04,1.747,0.287,2.191l0.045,0.062
				c0.209,0.285,0.484,0.518,0.75,0.743c0.247,0.208,0.502,0.423,0.702,0.679c0.774,0.993,2.694,1.322,2.91,1.356
				c0.088,0.014,0.194,0.021,0.317,0.021c0.316,0,0.73-0.05,1.169-0.103c0.425-0.051,0.864-0.104,1.159-0.104
				c0.05,0,0.095,0,0.132,0.004c0.288,0.131,0.658,0.222,1.018,0.31c0.228,0.057,0.607,0.149,0.712,0.207
				c0.172,0.102,0.37,0.153,0.586,0.153c0.381,0,0.735-0.164,1.078-0.323c0.155-0.072,0.416-0.193,0.51-0.201
				c0.001,0,0.001,0,0.001,0c0.425,0,1.032-0.218,1.988-0.573c0.505-0.188,1.077-0.399,1.342-0.448l0.115-0.02
				c2.358-0.41,3.482-0.753,4.01-1.224c0.179-0.158,0.97-0.417,1.442-0.571c0.777-0.255,1.512-0.495,1.952-0.842
				c0.526-0.417,1.66-0.77,2.12-0.842c0.32-0.051,3.263-0.955,3.759-1.862c0.173-0.232,1.32-1.003,1.904-1.264
				c0.72-0.323,0.902-0.638,1.141-1.125c0.035-0.073,0.076-0.157,0.127-0.254c0.086-0.164,0.133-0.229,0.175-0.287
				c0.216-0.296,0.255-0.486,0.311-0.954c0.088-0.732-0.297-1.167-0.526-1.427c-0.114-0.129-0.165-0.191-0.177-0.245
				c-0.136-0.627-0.423-0.89-0.682-1.086c-0.021-0.016-0.044-0.03-0.064-0.051c-0.035-0.075-0.081-0.37-0.111-0.566
				c-0.043-0.277-0.088-0.565-0.177-0.833C30.165,8.737,29.926,8.027,29.158,8.027L29.158,8.027z"/>
		</g>
		<g>
			<g>
				<defs>
					<path id="SVGID_1_" d="M2.17,14.529c0.512-0.139,1.251-0.045,1.783,0.045c0.533,0.086,2.872-0.133,3.326-0.178
						c0.452-0.043,0.824,0.439,1.17,0.57s1.729-0.57,2.262-0.699c0.531-0.133,0.983-0.045,1.383-0.264
						c0.4-0.221,0.452-0.656,1.012-0.832c0.559-0.174,0.69,0,1.09-0.439c0.4-0.438,1.145-1.268,1.649-1.225
						c0.506,0.045,1.49,0.395,1.943,0.395c0.451,0,1.463-0.438,1.943-0.699c0.478-0.264,1.541-0.658,2.073-0.658
						c0.533,0,1.251-0.219,1.65-0.352c0.399-0.131,1.064-0.305,1.303-0.217c0.239,0.086,1.623-0.178,1.862-0.133
						c0.238,0.045,0.159,0.264,0.612,0.176s0.533-0.307,0.797-0.613c0.266-0.305,0.508-0.482,0.854-0.525
						c0.344-0.043,0.423-0.129,0.585,0.352c0.159,0.48,0.159,1.225,0.371,1.574c0.215,0.352,0.507,0.262,0.64,0.877
						c0.132,0.611,0.77,0.744,0.69,1.402c-0.078,0.654-0.078,0.348-0.399,0.961c-0.318,0.613-0.291,0.746-0.875,1.008
						c-0.589,0.264-2.05,1.18-2.288,1.619c-0.239,0.438-2.609,1.357-3.168,1.445c-0.557,0.088-1.835,0.482-2.499,1.008
						c-0.667,0.525-2.848,0.918-3.433,1.445c-0.587,0.523-2.98,0.918-3.727,1.049c-0.743,0.135-2.632,1.008-3.191,1.008
						c-0.559,0-1.383,0.701-1.755,0.482c-0.374-0.219-1.385-0.35-1.837-0.57c-0.451-0.219-2.395,0.221-2.954,0.133
						c-0.557-0.088-1.914-0.438-2.394-1.053c-0.479-0.611-1.116-0.963-1.436-1.4c-0.32-0.438-0.56-0.701-0.241-1.443
						c0.321-0.744,0.454-0.658,0.426-1.445c-0.024-0.789,0.135-1.926,0.291-2.365C1.852,14.529,2.011,14.574,2.17,14.529z"/>
				</defs>
				<use xlink:href="#SVGID_1_"  overflow="visible" fill="#EBE0D5"/>
				<clipPath id="SVGID_2_">
					<use xlink:href="#SVGID_1_"  overflow="visible"/>
				</clipPath>
				<path id="XMLID_8_" clip-path="url(#SVGID_2_)" fill="#CDB8AB" d="M0.381,17.305c0.263,0.143,0.537,0.811,0.842,0.383
					c0.304-0.424,0.468-0.594,0.614-1.111c0.146-0.52,0.251-0.516,0.548-0.592c0.293-0.076,0.96-0.049,1.277,0.006
					c0.318,0.061,1.27,0.314,1.699,0.203c0.429-0.115,0.904-0.008,1.297,0.271c0.393,0.277,1.11,0.264,1.513,0.191
					c0.401-0.07,1.809-0.012,2.189-0.262c0.379-0.246,0.814-0.58,1.323-0.734s1.349-0.734,1.859-0.932
					c0.512-0.199,1.238-0.607,1.724-0.719c0.479-0.113,0.665-0.061,1.134-0.656c0.3-0.381,0.664-0.816,1.08-1.014
					c0.123-0.059,0.757-0.316,0.847-0.146c0.063,0.127-0.313,0.328-0.372,0.367c-0.232,0.152-0.316,0.305-0.503,0.529
					c-0.511,0.619,0.375,1.287,0.838,1.305c0.374,0.016,0.172,0.576,0.64-0.061c0.469-0.639,0.878-0.928,1.251-1.045
					c0.376-0.117,0.865-0.49,1.189-0.654c0.622-0.311,1.196-1.434,1.821-1.545c0.4-0.074,0.51-0.154,0.854,0.076
					c0.337,0.234,0.681,0.381,0.975,0.305s0.653-0.588,1.004-0.748c0.351-0.162,0.24,0.01,0.689,0.115s0.951,0.258,1.36-0.076
					c0.406-0.334,0.496-0.637,0.684-0.762c0.188-0.123,0.126-0.738,0.493-0.504c0.365,0.232,0.651-0.545,0.628-0.678
					c-0.021-0.131-1.425-1.502-1.561-1.465c-0.132,0.039-16.808,3.611-16.808,3.611l-6.636,1.352l-4.125,1.018L0.381,17.305z"/>
				<path clip-path="url(#SVGID_2_)" fill="#CDB8AB" d="M1.273,20.709c0,0,0.692-0.221,1.17-0.088
					c0.479,0.131,1.172,0.395,1.463,0.744c0.293,0.35,1.411,0.701,1.703,0.656c0.294-0.045,1.331-0.131,1.649-0.176
					c0.32-0.043,0.824,0.045,1.225,0.176c0.398,0.133,0.879,0.264,1.437,0.088s1.597-0.264,1.97-0.438
					c0.371-0.174,1.517-0.482,1.941-0.613c0.427-0.131,1.731-0.701,2.236-0.656s1.302-0.176,1.382-0.176s0.958-0.438,1.303-0.613
					c0.348-0.176,1.49-0.615,2.075-0.656c0.585-0.043,1.782-0.744,1.969-0.92c0.188-0.176,0.638-0.395,1.198-0.568
					c0.558-0.176,0.906-0.088,1.517-0.352c0.612-0.262,1.328-0.744,1.49-0.875c0.159-0.131,0.451-0.525,0.798-0.701
					c0.345-0.176,0.56-0.393,0.983-0.482c0.428-0.086,0.934-0.393,1.117-0.523c0.187-0.133,0.135-0.35,0.453-0.613
					c0.32-0.264,0.852-1.443,0.959-0.963c0.105,0.48,0.052,1.75,0.052,1.75s-0.426,2.234-0.612,2.408
					c-0.185,0.176-16.573,6.35-16.573,6.35L5.05,23.248c0,0-3.83-1.488-3.857-1.357C1.168,22.021,1.273,20.709,1.273,20.709z"/>
			</g>
			<path fill="#CDB8AB" d="M2.179,18.316c0.278-0.109,0.691-0.352,1.063-0.482c0.373-0.131,1.543,0.043,1.891,0.176
				c0.344,0.131,1.462,0.395,1.781,0.307c0.318-0.088,1.596,0.088,1.888-0.045c0.291-0.131,1.277,0.133,1.676-0.307
				c0.4-0.438,0.48-0.699,0.88-0.48c0.397,0.219,1.169,0.043,1.249,0.568c0.079,0.523,0.294,0.92,0.056,1.094
				c-0.242,0.176-0.613,0.395-0.934,0.439c-0.319,0.043-0.479,0.436-0.851,0.48c-0.372,0.043-0.64,0.176-0.931-0.176
				c-0.293-0.35-0.719-0.35-1.173-0.305c-0.452,0.043-1.01-0.307-1.328,0.131c-0.319,0.439-0.612,0.918-0.983,0.525
				c-0.374-0.393-1.039-0.525-1.305-0.789c-0.268-0.264-0.427-0.217-0.586,0c-0.159,0.219-0.187,0.656-0.478,0.527
				c-0.294-0.131-0.399-0.352-0.72-0.613c-0.318-0.264-0.479,0.043-0.823-0.131C2.205,19.059,1.728,18.49,2.179,18.316z"/>
			<path fill="#CDB8AB" d="M15.978,14.555c-0.187,0.174-0.692,0.568-0.984,0.611c-0.293,0.043-0.534,0.264-0.773,0.525
				s0.162,0.262,0.453,0.262c0.294,0,0.72,0.264,1.198,0.045c0.478-0.219,0.716-0.568,0.903-0.613c0.187-0.043,0.107-0.045,0.398,0
				c0.294,0.045,0.585-0.176,0.162-0.395c-0.427-0.217-0.453-0.35-0.799-0.436C16.189,14.467,15.978,14.555,15.978,14.555z"/>
			<path fill="#CDB8AB" d="M19.724,15.639c-0.55,0-1.422,0.219-1.582,0.482c-0.16,0.262-1.259,0.482-1.646,0.613
				c-0.386,0.131-1.546,0.48-1.901,0.436c-0.356-0.043-1.196-0.043-1.52-0.174s-0.936-0.088-0.58,0.35
				c0.354,0.438,0.677,0.789,1.033,0.918c0.355,0.133,0.612,0.09,0.872,0.746c0.257,0.658,0.678,0.744,1,0.525
				c0.323-0.221,0.387-0.656,0.773-0.787c0.389-0.133,0.902-0.176,1.326-0.264c0.416-0.088,0.902-0.307,1.192-0.525
				c0.289-0.219,0.613-0.262,0.967-0.438c0.355-0.176,0.549-0.307,0.518-0.965C20.144,15.902,19.918,15.639,19.724,15.639z"/>
			<path fill="#CDB8AB" d="M23.695,13.916c-0.327-0.322-0.427-0.568-0.827-0.613c-0.398-0.043-0.609,0.045-0.957,0.352
				c-0.345,0.307-0.771,0.787-0.984,1.006c-0.212,0.219-0.399,0.264-0.347,0.699c0.056,0.439-0.08,0.658,0.374,1.01
				c0.451,0.35,0.691,0.525,1.037,0.305c0.347-0.219,0.665-0.48,0.956-0.525c0.295-0.043,0.613-0.131,0.748-0.438
				c0.132-0.305,0.291-0.176,0.159-0.744C23.72,14.396,23.829,14.047,23.695,13.916z"/>
			<path fill="#CDB8AB" d="M28.413,11.773c-0.279-0.344-0.722-0.045-1.191,0.393c-0.471,0.438-1.049,0.613-1.482,0.658
				c-0.434,0.043-0.761-0.088-1.085,0.35c-0.326,0.438-0.543,0.656-0.217,0.92c0.324,0.264,0.324,0.438,0.724,0.699
				c0.396,0.264,0.649,0.221,1.191-0.131c0.544-0.35,0.688-0.656,1.194-0.744c0.508-0.088,0.976-0.043,1.337-0.307
				c0.362-0.262,0.799-0.525,0.799-0.525s0.324-0.262-0.075-0.568s-0.18,0.262-0.399-0.307
				C28.992,11.643,28.522,11.904,28.413,11.773z"/>
		</g>
	</g>
</g>
<g id="Layer_3">
</g>
</svg>
