<?xml version="1.0" encoding="utf-8"?>
<!-- Generator: Adobe Illustrator 16.0.0, SVG Export Plug-In . SVG Version: 6.00 Build 0)  -->
<!DOCTYPE svg PUBLIC "-//W3C//DTD SVG 1.1//EN" "http://www.w3.org/Graphics/SVG/1.1/DTD/svg11.dtd">
<svg version="1.1" xmlns="http://www.w3.org/2000/svg" xmlns:xlink="http://www.w3.org/1999/xlink" x="0px" y="0px" width="32px"
	 height="32px" viewBox="0 0 32 32" enable-background="new 0 0 32 32" xml:space="preserve">
<g id="Layer_1">
	<g>
		
			<path fill="#CDB8AB" stroke="#553E31" stroke-width="0.8261" stroke-linecap="round" stroke-linejoin="round" stroke-miterlimit="10" d="
			M8.369,6.885c0,0,0.979-1.598-0.017-2.303C7.36,3.879,2.507,0.801,1.684,0.475C0.859,0.15,0.318,1.186,0.877,1.658
			C1.432,2.131,6.566,5.371,8.369,6.885z"/>
		
			<path fill="#CDB8AB" stroke="#553E31" stroke-width="0.8261" stroke-linecap="round" stroke-linejoin="round" stroke-miterlimit="10" d="
			M4.777,3.582C5.331,3.121,5.774,1.43,7.924,2.143c1.413,0.469,3.144,0.826,5.252,1.404c2.108,0.572,8.107,1.836,10.225,3.645
			c2.115,1.814,3.587,2.998,5.086,5.461c1.377,2.266,1.676,6.871,1.896,9.055c0.217,2.178,0.487,4.363,0.846,5.744
			c0.356,1.385-0.073,3.074-1.095,3.768c-1.021,0.695-2.872,0.291-4.057-0.258c-1.18-0.547-3.457-1.174-5.144-1.176
			c-1.683-0.01-6.797-0.59-8.625-2.289S8.021,23.377,6.6,18.045c-1.423-5.332-2.312-7.658-2.876-8.877
			c-0.565-1.225-1.39-4.355-0.483-4.92C4.146,3.689,4.224,4.039,4.777,3.582z"/>
		
			<path fill="#553E31" stroke="#553E31" stroke-width="0.8261" stroke-linecap="round" stroke-linejoin="round" stroke-miterlimit="10" d="
			M7.855,6.4c0.565-0.539,0.598-1.514,1.553-1.393c0.751,0.094,2.746,0.488,3.942,1.084c1.194,0.59,4.796,1.303,6.616,2.359
			c1.815,1.057,4.039,2.367,5.218,4.105c1.177,1.738,2.351,4.941,2.478,7.357c0.091,1.723,0.415,4.514,0.698,5.648
			c0.283,1.131,0.113,2.199-0.514,2.576c-0.627,0.383-2.801-0.148-4.391-0.529c-1.592-0.377-5.658-0.932-7.223-1.393
			c-1.564-0.459-4.087-2.002-5.515-4.932c-1.428-2.936-2.631-7.443-3.206-8.959c-0.574-1.52-1.78-4.043-1.169-4.742
			C6.954,6.887,7.298,6.936,7.855,6.4z"/>
		<g>
			<g>
				<path fill="#E4D7CD" d="M16.431,15.828c0.765-0.686,1.497-1.229,1.999-1.256c0.507-0.023,0.999,0.086,1.021,0.695
					c0.028,0.613-0.164,1.336-1.005,2.029c-0.841,0.689-1.437,1.186-2.026,1.258c-0.59,0.074-0.876-0.115-0.994-0.43
					C15.308,17.814,15.239,16.893,16.431,15.828z"/>
				<path fill="#E4D7CD" d="M14.785,13.936c0.706-0.635,1.385-1.139,1.854-1.164c0.465-0.02,0.919,0.08,0.944,0.645
					c0.026,0.566-0.154,1.236-0.934,1.879c-0.778,0.641-1.327,1.1-1.875,1.166c-0.548,0.07-0.813-0.109-0.921-0.398
					C13.745,15.775,13.682,14.92,14.785,13.936z"/>
				<path fill="#E4D7CD" d="M13.29,12.119c0.65-0.584,1.276-1.047,1.706-1.068c0.43-0.016,0.847,0.072,0.87,0.594
					c0.025,0.521-0.141,1.141-0.857,1.727c-0.718,0.592-1.224,1.012-1.728,1.076c-0.504,0.061-0.746-0.1-0.848-0.365
					C12.334,13.813,12.274,13.029,13.29,12.119z"/>
				<path fill="#E4D7CD" d="M11.84,10.543c0.594-0.533,1.167-0.957,1.559-0.975c0.392-0.021,0.774,0.063,0.795,0.541
					c0.022,0.475-0.13,1.039-0.784,1.576c-0.654,0.541-1.118,0.926-1.58,0.982c-0.459,0.057-0.681-0.092-0.773-0.336
					C10.965,12.092,10.91,11.373,11.84,10.543z"/>
				<path fill="#E4D7CD" d="M10.481,9.109c0.537-0.482,1.059-0.865,1.413-0.881c0.354-0.018,0.698,0.057,0.717,0.486
					c0.022,0.432-0.116,0.943-0.707,1.43c-0.595,0.488-1.015,0.84-1.429,0.891c-0.418,0.049-0.618-0.084-0.701-0.307
					C9.691,10.51,9.644,9.861,10.481,9.109z"/>
				<path fill="#E4D7CD" d="M9.254,7.768C9.736,7.33,10.2,6.988,10.517,6.977c0.317-0.02,0.627,0.053,0.646,0.438
					c0.017,0.383-0.105,0.842-0.637,1.277c-0.531,0.438-0.904,0.75-1.277,0.797C8.873,9.531,8.694,9.416,8.62,9.215
					C8.545,9.02,8.502,8.438,9.254,7.768z"/>
				<path fill="#E4D7CD" d="M8.089,6.551c0.426-0.383,0.835-0.689,1.115-0.697C9.482,5.838,9.757,5.9,9.773,6.238
					C9.79,6.58,9.68,6.98,9.213,7.367C8.744,7.756,8.412,8.031,8.082,8.072C7.755,8.113,7.594,8.006,7.53,7.83
					C7.462,7.656,7.426,7.143,8.089,6.551z"/>
				<path fill="#E4D7CD" d="M20.121,19.305c-0.705,0.633-1.388,1.141-1.854,1.156c-0.466,0.021-0.919-0.076-0.946-0.641
					c-0.026-0.566,0.153-1.24,0.934-1.879c0.779-0.643,1.33-1.098,1.878-1.166c0.547-0.068,0.812,0.105,0.921,0.396
					C21.161,17.461,21.222,18.314,20.121,19.305z"/>
				<path fill="#E4D7CD" d="M21.615,21.113c-0.65,0.584-1.276,1.053-1.707,1.068c-0.429,0.023-0.845-0.07-0.869-0.59
					c-0.024-0.523,0.142-1.141,0.857-1.732c0.718-0.588,1.225-1.01,1.729-1.07c0.502-0.064,0.745,0.098,0.847,0.363
					C22.572,19.422,22.631,20.205,21.615,21.113z"/>
				<path fill="#E4D7CD" d="M23.066,22.693c-0.596,0.533-1.166,0.955-1.561,0.977c-0.389,0.016-0.771-0.066-0.795-0.543
					c-0.021-0.475,0.131-1.041,0.785-1.58c0.656-0.535,1.119-0.922,1.579-0.977c0.458-0.061,0.684,0.09,0.774,0.334
					C23.939,21.148,23.992,21.863,23.066,22.693z"/>
				<path fill="#E4D7CD" d="M24.422,24.129c-0.536,0.479-1.057,0.865-1.409,0.881c-0.354,0.018-0.701-0.061-0.722-0.492
					c-0.019-0.428,0.117-0.941,0.713-1.426c0.59-0.49,1.011-0.84,1.428-0.889c0.415-0.051,0.618,0.08,0.7,0.301
					S25.263,23.375,24.422,24.129z"/>
				<path fill="#E4D7CD" d="M25.652,25.471c-0.483,0.43-0.946,0.775-1.263,0.791c-0.32,0.014-0.627-0.049-0.646-0.439
					c-0.016-0.387,0.105-0.844,0.636-1.277c0.531-0.438,0.905-0.752,1.279-0.795c0.373-0.047,0.553,0.074,0.627,0.27
					C26.358,24.217,26.403,24.799,25.652,25.471z"/>
				<path fill="#E4D7CD" d="M26.817,26.686c-0.425,0.383-0.836,0.686-1.115,0.701c-0.282,0.01-0.556-0.049-0.57-0.389
					c-0.016-0.338,0.093-0.746,0.562-1.133c0.469-0.385,0.8-0.66,1.128-0.699c0.33-0.039,0.489,0.064,0.554,0.238
					C27.44,25.58,27.479,26.09,26.817,26.686z"/>
			</g>
			<g>
				<path fill="#E4D7CD" d="M20.857,12.854c0.763-0.686,1.498-1.234,2.004-1.256c0.501-0.02,0.992,0.084,1.021,0.693
					c0.024,0.613-0.169,1.34-1.012,2.029c-0.84,0.691-1.434,1.189-2.024,1.26c-0.59,0.072-0.876-0.117-0.993-0.43
					C19.735,14.84,19.666,13.916,20.857,12.854z"/>
				<path fill="#E4D7CD" d="M18.984,10.941c0.709-0.635,1.391-1.139,1.854-1.162c0.467-0.02,0.922,0.078,0.946,0.646
					c0.025,0.564-0.154,1.236-0.934,1.877c-0.779,0.643-1.327,1.1-1.875,1.168c-0.548,0.064-0.812-0.107-0.92-0.398
					C17.946,12.781,17.883,11.93,18.984,10.941z"/>
				<path fill="#E4D7CD" d="M17.187,9.51c0.646-0.494,1.26-0.881,1.657-0.869s0.777,0.123,0.76,0.607
					c-0.017,0.482-0.212,1.045-0.919,1.539c-0.704,0.494-1.202,0.854-1.671,0.873c-0.47,0.025-0.683-0.143-0.758-0.396
					C16.185,11.01,16.188,10.283,17.187,9.51z"/>
				<path fill="#E4D7CD" d="M15.234,8.656c0.51-0.412,0.999-0.736,1.319-0.734c0.322,0,0.633,0.086,0.629,0.479
					c-0.004,0.391-0.153,0.848-0.716,1.26c-0.563,0.414-0.957,0.711-1.334,0.738c-0.383,0.025-0.558-0.105-0.622-0.309
					C14.45,9.891,14.437,9.295,15.234,8.656z"/>
				<path fill="#E4D7CD" d="M13.906,7.736c0.43-0.336,0.842-0.598,1.107-0.596c0.269,0.008,0.524,0.084,0.518,0.406
					c-0.009,0.326-0.139,0.703-0.614,1.039c-0.47,0.34-0.804,0.58-1.119,0.6c-0.316,0.016-0.463-0.096-0.514-0.268
					C13.235,8.75,13.234,8.256,13.906,7.736z"/>
				<path fill="#E4D7CD" d="M12.475,6.814c0.403-0.191,0.775-0.334,0.987-0.283c0.213,0.053,0.404,0.154,0.339,0.412
					c-0.068,0.26-0.237,0.541-0.675,0.727c-0.437,0.191-0.746,0.322-1,0.285c-0.253-0.039-0.347-0.154-0.355-0.301
					C11.76,7.512,11.848,7.117,12.475,6.814z"/>
				<path fill="#E4D7CD" d="M10.998,5.82c0.371-0.082,0.706-0.127,0.869-0.045c0.164,0.08,0.3,0.205,0.195,0.402
					c-0.104,0.203-0.303,0.406-0.699,0.477c-0.398,0.07-0.677,0.125-0.879,0.043c-0.2-0.08-0.26-0.193-0.235-0.314
					C10.271,6.262,10.42,5.951,10.998,5.82z"/>
				<path fill="#E4D7CD" d="M24.223,16.561c0.662-0.682,1.191-1.338,1.22-1.791c0.028-0.455-0.063-0.898-0.646-0.934
					c-0.578-0.033-1.271,0.129-1.941,0.879c-0.669,0.75-1.147,1.277-1.227,1.813c-0.077,0.531,0.1,0.793,0.394,0.902
					C22.318,17.543,23.193,17.619,24.223,16.561z"/>
				<path fill="#E4D7CD" d="M25.654,18.139c0.518-0.621,0.924-1.209,0.919-1.602c-0.006-0.385-0.113-0.76-0.608-0.748
					c-0.497,0.006-1.075,0.189-1.595,0.865c-0.521,0.68-0.892,1.162-0.924,1.619c-0.033,0.457,0.136,0.668,0.394,0.744
					C24.099,19.09,24.847,19.104,25.654,18.139z"/>
				<path fill="#E4D7CD" d="M26.493,19.977c0.429-0.492,0.769-0.963,0.773-1.273c0.002-0.314-0.08-0.617-0.479-0.621
					c-0.404-0.006-0.875,0.133-1.309,0.678c-0.435,0.539-0.741,0.92-0.775,1.291c-0.035,0.369,0.097,0.543,0.303,0.605
					C25.214,20.723,25.821,20.742,26.493,19.977z"/>
				<path fill="#E4D7CD" d="M26.776,21.771c0.351-0.414,0.629-0.811,0.623-1.074c0.001-0.262-0.073-0.51-0.405-0.51
					c-0.335,0.004-0.728,0.125-1.078,0.58c-0.352,0.455-0.604,0.779-0.628,1.084c-0.022,0.313,0.089,0.455,0.263,0.506
					C25.722,22.406,26.229,22.418,26.776,21.771z"/>
				<path fill="#E4D7CD" d="M27.393,23.137c0.205-0.389,0.355-0.752,0.307-0.961c-0.048-0.207-0.15-0.393-0.416-0.33
					c-0.268,0.057-0.558,0.221-0.757,0.641c-0.2,0.422-0.343,0.723-0.308,0.971c0.038,0.25,0.152,0.344,0.3,0.354
					C26.667,23.824,27.072,23.746,27.393,23.137z"/>
			</g>
			<path fill="#E4D7CD" d="M12.878,19.389c-0.734,0.715-1.324,1.408-1.37,1.895c-0.044,0.492,0.044,0.973,0.669,1.029
				c0.624,0.049,1.376-0.107,2.119-0.898c0.744-0.793,1.275-1.352,1.376-1.922c0.1-0.572-0.082-0.859-0.399-0.986
				C14.959,18.375,14.018,18.271,12.878,19.389z"/>
			<path fill="#E4D7CD" d="M11.269,17.285c-0.64,0.699-1.145,1.375-1.159,1.828c-0.013,0.453,0.095,0.893,0.676,0.91
				s1.269-0.172,1.909-0.941c0.646-0.771,1.107-1.316,1.165-1.848c0.06-0.535-0.123-0.789-0.423-0.891
				C13.139,16.242,12.261,16.197,11.269,17.285z"/>
			<path fill="#E4D7CD" d="M10.191,15.209c-0.576,0.572-1.037,1.125-1.068,1.51c-0.032,0.387,0.039,0.768,0.534,0.807
				c0.494,0.037,1.087-0.096,1.669-0.727c0.582-0.629,0.997-1.072,1.073-1.523c0.072-0.455-0.073-0.682-0.322-0.775
				C11.825,14.396,11.082,14.32,10.191,15.209z"/>
			<path fill="#E4D7CD" d="M9.487,13.332c-0.473,0.451-0.857,0.889-0.892,1.199c-0.033,0.314,0.02,0.623,0.418,0.664
				c0.4,0.039,0.882-0.055,1.362-0.557c0.484-0.5,0.83-0.85,0.898-1.217c0.067-0.367-0.047-0.551-0.246-0.635
				C10.828,12.701,10.229,12.627,9.487,13.332z"/>
			<path fill="#E4D7CD" d="M8.655,11.895c-0.39,0.379-0.701,0.75-0.725,1.008c-0.023,0.262,0.024,0.521,0.357,0.547
				c0.33,0.027,0.731-0.059,1.124-0.482c0.395-0.42,0.679-0.717,0.729-1.023c0.055-0.301-0.044-0.455-0.212-0.525
				C9.76,11.352,9.26,11.299,8.655,11.895z"/>
			<path fill="#E4D7CD" d="M7.947,10.48c-0.24,0.369-0.424,0.717-0.396,0.928c0.029,0.213,0.113,0.408,0.384,0.373
				c0.271-0.037,0.574-0.172,0.813-0.574c0.24-0.402,0.41-0.689,0.399-0.941C9.134,10.018,9.027,9.91,8.879,9.887
				C8.735,9.863,8.325,9.904,7.947,10.48z"/>
			<path fill="#E4D7CD" d="M7.097,8.939c-0.126,0.35-0.208,0.672-0.142,0.84c0.066,0.166,0.176,0.316,0.391,0.229
				C7.563,9.932,7.789,9.76,7.904,9.383c0.116-0.377,0.2-0.645,0.14-0.846C7.983,8.332,7.875,8.266,7.75,8.273
				S7.292,8.395,7.097,8.939z"/>
			<path fill="#E4D7CD" d="M16.496,22.922c-0.716,0.621-1.406,1.115-1.872,1.129c-0.465,0.016-0.918-0.09-0.936-0.656
				c-0.015-0.566,0.174-1.236,0.965-1.863c0.788-0.629,1.346-1.08,1.895-1.139c0.546-0.061,0.81,0.119,0.913,0.408
				C17.565,21.092,17.615,21.949,16.496,22.922z"/>
			<path fill="#E4D7CD" d="M18.155,24.295c-0.627,0.516-1.224,0.922-1.623,0.924c-0.396-0.002-0.781-0.102-0.78-0.584
				c-0.001-0.484,0.176-1.051,0.865-1.566c0.688-0.518,1.178-0.889,1.645-0.928c0.47-0.037,0.688,0.125,0.769,0.373
				C19.112,22.762,19.134,23.494,18.155,24.295z"/>
			<path fill="#E4D7CD" d="M19.764,25.402c-0.514,0.406-1.002,0.73-1.325,0.723c-0.323-0.004-0.631-0.088-0.625-0.48
				c0.007-0.393,0.158-0.848,0.723-1.256c0.564-0.414,0.96-0.709,1.339-0.732c0.38-0.025,0.557,0.107,0.619,0.313
				C20.557,24.17,20.564,24.762,19.764,25.402z"/>
			<path fill="#E4D7CD" d="M21.447,25.973c-0.435,0.332-0.847,0.59-1.113,0.58c-0.268-0.004-0.522-0.086-0.512-0.41
				c0.013-0.324,0.147-0.703,0.621-1.037c0.479-0.33,0.814-0.57,1.13-0.58c0.317-0.016,0.458,0.098,0.508,0.273
				C22.128,24.965,22.124,25.455,21.447,25.973z"/>
			<path fill="#E4D7CD" d="M22.764,26.686c-0.419,0.162-0.805,0.268-1.01,0.197c-0.206-0.072-0.385-0.191-0.295-0.443
				c0.091-0.252,0.286-0.514,0.737-0.664c0.451-0.145,0.773-0.254,1.023-0.191c0.247,0.061,0.33,0.184,0.328,0.33
				C23.541,26.057,23.417,26.443,22.764,26.686z"/>
		</g>
	</g>
</g>
<g id="Layer_3">
</g>
</svg>
