<?xml version="1.0" encoding="utf-8"?>
<!-- Generator: Adobe Illustrator 16.0.0, SVG Export Plug-In . SVG Version: 6.00 Build 0)  -->
<!DOCTYPE svg PUBLIC "-//W3C//DTD SVG 1.1//EN" "http://www.w3.org/Graphics/SVG/1.1/DTD/svg11.dtd">
<svg version="1.1" xmlns="http://www.w3.org/2000/svg" xmlns:xlink="http://www.w3.org/1999/xlink" x="0px" y="0px" width="32px"
	 height="32px" viewBox="0 0 32 32" enable-background="new 0 0 32 32" xml:space="preserve">
<g id="Layer_1">
	<g>
		<path fill="#553E31" d="M17.428,3.5c0,0-0.65,3.459,1.908,7.83c3.092,5.29,3.842,6.56,3.842,10.13c0,2.605-2.506,7.04-7.01,7.04
			c-4.502,0-7.346-3.622-7.346-7.178c0-3.555,2.051-8.309,3.811-11.117C14.393,7.395,17.085,4.213,17.428,3.5z"/>
		<path fill="#EBE0D5" d="M14.623,9.993c0,0-1.555,2.366-2.41,4.447c-0.762,1.857-2.137,5.351-1.6,6.899
			c0.404,1.163,0.98,1.328,1.49,1.328c0.508,0,1.07-0.938,1.109-1.517c0.051-0.795-0.693-4.278,1.629-10.304
			C15.213,9.883,14.885,9.511,14.623,9.993z"/>
	</g>
</g>
<g id="Layer_3">
</g>
</svg>
