<?xml version="1.0" encoding="utf-8"?>
<!-- Generator: Adobe Illustrator 16.0.0, SVG Export Plug-In . SVG Version: 6.00 Build 0)  -->
<!DOCTYPE svg PUBLIC "-//W3C//DTD SVG 1.1//EN" "http://www.w3.org/Graphics/SVG/1.1/DTD/svg11.dtd">
<svg version="1.1" xmlns="http://www.w3.org/2000/svg" xmlns:xlink="http://www.w3.org/1999/xlink" x="0px" y="0px" width="32px"
	 height="32px" viewBox="0 0 32 32" enable-background="new 0 0 32 32" xml:space="preserve">
<g id="Layer_1">
	<g>
		<path fill="#EBE0D5" stroke="#553E31" stroke-width="0.9746" stroke-miterlimit="10" d="M6.041,13.052c0,0-1.16,0.723-1.002,1.935
			c0.158,1.213,0.08,1.884,1.924,3.201s3.951,2.376,4.9,2.658c0.947,0.284,1.633,0.697,3.451,1.138
			c1.818,0.438,6.139,1.031,7.508,0.928c1.371-0.103,2.318-0.23,3.531-0.335c1.211-0.103,1.869-0.154,2.977,0.232
			c1.105,0.388,1.105,0.723,1.475,0.672c0.369-0.054,0.713-0.336,0.713-0.827c0-0.49-0.027-0.877-0.449-1.136
			c-0.42-0.259-0.58-0.595-1-1.084c-0.424-0.49-2.557-1.858-3.531-2.297c-0.973-0.438-1.477-0.259-4.689-2.401
			s-6.166-4.619-7.035-5.266c-0.867-0.646-2.238-1.755-3.107-1.807c-0.869-0.053-1.686,0.023-2.344,1.11
			C8.701,10.857,6.172,12.921,6.041,13.052z"/>
		
			<path fill="#CDB8AB" stroke="#553E31" stroke-width="0.8711" stroke-linecap="round" stroke-linejoin="round" stroke-miterlimit="10" d="
			M10.385,9.755c0,0-0.168,0.318,0.264,0.774c0.428,0.454,0.643,0.614,0.715,0.614s-0.836,0.069-1.027,0.502
			c-0.189,0.433-0.238,0.729-0.668,1.092C9.24,13.101,9,13.056,9,13.352s-0.023,0.5-0.406,0.659c-0.381,0.16-0.98,0.523-1.121,0.865
			c-0.145,0.342-0.336,0.684-0.574,0.796s-0.357-0.205-0.238-0.409c0.119-0.205,0.334-0.343,0.096-0.57
			c-0.24-0.226-0.383-0.657-0.646-0.796c0.217-0.203,0.455-0.091,0.598-0.342c0.145-0.249,0.264-0.545,0.264-0.545l1.693-1.319
			l0.072-0.184l0.455-0.817c0,0,0-0.182,0.334-0.409C9.859,10.052,10.121,9.961,10.385,9.755z"/>
		<path fill="#CDB8AB" stroke="#553E31" stroke-width="0.7295" stroke-miterlimit="10" d="M8.115,12.521
			c0.305-0.357,0.67-0.444,0.828-0.716c0.158-0.271,0.373-0.638,0.297-0.868c-0.08-0.233-0.158-0.271-0.158-0.271
			S8.646,10.8,7.957,10.472C7.268,10.143,6.301,9.43,5.846,9.198C5.395,8.966,3.957,8.31,2.975,8.4
			C2.246,8.468,1.424,8.75,1.01,9.001s-0.744,0.717-0.625,1.395c0.119,0.675,0.039,0.868,0.316,0.985
			c0.275,0.114,0.572,0.134,0.789,0.097c0.215-0.04,0.373-0.137,0.434-0.388c0.059-0.25-0.236-0.29-0.061-0.638
			c0.178-0.348,0.375-0.578,0.928-0.657c0.553-0.077,1.281-0.077,2.051,0.444c0.77,0.523,1.35,1.117,1.734,1.528
			c0.73,0.772,0.506,1.356,0.809,1.507c0.277,0.135,0.277,0.191,0.414-0.02C7.938,13.041,7.918,12.751,8.115,12.521z"/>
	</g>
</g>
<g id="Layer_3">
</g>
</svg>
