<?xml version="1.0" encoding="utf-8"?>
<!-- Generator: Adobe Illustrator 16.0.0, SVG Export Plug-In . SVG Version: 6.00 Build 0)  -->
<!DOCTYPE svg PUBLIC "-//W3C//DTD SVG 1.1//EN" "http://www.w3.org/Graphics/SVG/1.1/DTD/svg11.dtd">
<svg version="1.1" id="Salt" xmlns="http://www.w3.org/2000/svg" xmlns:xlink="http://www.w3.org/1999/xlink" x="0px" y="0px"
	 width="32px" height="32px" viewBox="0.129 0 32 32" enable-background="new 0.129 0 32 32" xml:space="preserve">
<path fill="#EBE0D5" stroke="#553E31" stroke-width="1.8842" stroke-linecap="round" stroke-linejoin="round" stroke-miterlimit="10" d="
	M6.106,5.999v20.153c0,2.783,4.487,5.039,10.022,5.039s10.022-2.256,10.022-5.039V5.999H6.106z"/>
<path fill="#553E31" d="M10.513,24.393h2.727c-0.004,0.459,0.089,0.754,0.278,0.885c0.099,0.063,0.212,0.106,0.338,0.13
	c0.127,0.022,0.348,0.038,0.663,0.048c0.158,0.004,0.675,0.009,1.551,0.014c1.2-0.005,1.894-0.012,2.084-0.021
	c0.355-0.027,0.59-0.074,0.703-0.144c0.158-0.1,0.235-0.322,0.235-0.666c0-0.236-0.049-0.402-0.147-0.498
	c-0.135-0.132-0.457-0.201-0.967-0.211c-0.354,0-1.088-0.027-2.208-0.082c-1.154-0.054-1.903-0.084-2.246-0.096
	c-0.894-0.025-1.523-0.131-1.889-0.313c-0.47-0.231-0.776-0.627-0.921-1.185c-0.08-0.31-0.122-0.712-0.122-1.212
	c0-1.052,0.199-1.794,0.596-2.227c0.298-0.325,0.75-0.541,1.354-0.646c0.546-0.091,1.845-0.137,3.897-0.137
	c1.335,0,2.278,0.039,2.83,0.116c0.727,0.104,1.248,0.285,1.568,0.545c0.434,0.357,0.65,0.998,0.65,1.926
	c0,0.099-0.004,0.258-0.008,0.477h-2.728c-0.009-0.224-0.024-0.378-0.047-0.463c-0.063-0.255-0.271-0.398-0.623-0.43
	c-0.312-0.027-1.067-0.041-2.273-0.041c-1.19,0-1.897,0.034-2.118,0.104c-0.249,0.082-0.373,0.291-0.373,0.633
	c0,0.326,0.131,0.525,0.394,0.6c0.22,0.059,1.216,0.114,2.984,0.17c1.602,0.045,2.623,0.102,3.064,0.17
	c0.446,0.067,0.803,0.17,1.065,0.307c0.265,0.137,0.475,0.328,0.633,0.578c0.239,0.367,0.358,0.959,0.358,1.776
	c0,0.911-0.116,1.581-0.353,2.007c-0.233,0.424-0.618,0.71-1.149,0.864c-0.523,0.153-1.965,0.231-4.324,0.231
	c-1.435,0-2.47-0.039-3.106-0.115c-0.776-0.092-1.334-0.27-1.672-0.531c-0.365-0.281-0.581-0.678-0.649-1.189
	c-0.036-0.25-0.054-0.545-0.054-0.886v-0.489H10.513z"/>
<ellipse fill="#EBE0D5" stroke="#553E31" stroke-width="1.8842" stroke-miterlimit="10" cx="16.129" cy="6.104" rx="10.021" ry="5.037"/>
<ellipse fill="#553E31" cx="12.857" cy="4.42" rx="1.527" ry="0.893"/>
<ellipse fill="#553E31" cx="20.021" cy="4.789" rx="1.527" ry="0.894"/>
<ellipse fill="#553E31" cx="15.925" cy="7.579" rx="1.527" ry="0.894"/>
<path fill="none" stroke="#553E31" stroke-width="1.8842" stroke-miterlimit="10" d="M26.15,10.67c0,2.782-4.486,4.389-10.021,4.389
	S6.106,13.452,6.106,10.67"/>
</svg>
