<?xml version="1.0" encoding="utf-8"?>
<!-- Generator: Adobe Illustrator 16.0.0, SVG Export Plug-In . SVG Version: 6.00 Build 0)  -->
<!DOCTYPE svg PUBLIC "-//W3C//DTD SVG 1.1//EN" "http://www.w3.org/Graphics/SVG/1.1/DTD/svg11.dtd">
<svg version="1.1" xmlns="http://www.w3.org/2000/svg" xmlns:xlink="http://www.w3.org/1999/xlink" x="0px" y="0px" width="32px"
	 height="32px" viewBox="0 0 32 32" enable-background="new 0 0 32 32" xml:space="preserve">
<g id="Layer_1">
	<g>
		<path fill="#EBE0D5" d="M12.622,19.809c0,0,2.197-5.943,2.868-6.949c0.672-1.006,0.85-3.855,1.967-4.063
			c1.115-0.205,4.625-1.516,5.389-1.76c0.763-0.244,2.02-0.713,2.154-0.311s0.714,0.92,1.08,0.92s1.251,0.244,1.557,0.762
			c0.305,0.52,1.016,1.859,1.621,2.545c0.606,0.688,1.979,2.576,1.674,3.613c-0.305,1.035-1.709,4.754-2.715,5.395
			c-1.008,0.641-7.796,1.41-9.574,1.346S12.622,19.809,12.622,19.809z"/>
		<g>
			<defs>
				<path id="XMLID_7_" d="M10.903,17.928c0.132,0.893,0.33,1.705,0.79,2.434c0.461,0.729,0.889,1.01,0.889,1.357
					c0,0.35,0.198,0.729,0.527,1.129c0.33,0.396,0.808,0.447,0.922,0.793c0.115,0.35,0.363,0.498,0.807,0.713
					c0.445,0.217,0.902,0.398,1.267,0.729c0.364,0.334,1.333,0.465,1.804,0.398c0.471-0.064,0.488,0.051,0.932,0.25
					c0.445,0.197,1.977,0.479,3.261,0.281c1.284-0.199,3.179-1.012,4.199-1.973c1.021-0.961,1.646-1.557,2.174-2.27
					c0.526-0.713,2.569-3.596,2.865-4.971s0.115-1.936,0-2.217c-0.114-0.285-3.76,5.051-3.76,5.051l-3.024,1.375l-5.912,0.299
					c0,0-5.615-3.248-5.599-3.182c0.017,0.064-1.186-1.012-1.186-1.012L10.903,17.928z"/>
			</defs>
			<use xlink:href="#XMLID_7_"  overflow="visible" fill="#CDB8AB"/>
			<clipPath id="XMLID_27_">
				<use xlink:href="#XMLID_7_"  overflow="visible"/>
			</clipPath>
			
				<path clip-path="url(#XMLID_27_)" fill="none" stroke="#553E31" stroke-width="0.732" stroke-linecap="round" stroke-linejoin="round" stroke-miterlimit="10" d="
				M16.309,22.033c-0.378,0.156-0.015,1.201,0.061,1.463c0.104,0.359,0.246,0.686,0.413,1.016c0.108,0.217,0.261,0.582,0.503,0.672"
				/>
			
				<path clip-path="url(#XMLID_27_)" fill="none" stroke="#553E31" stroke-width="0.732" stroke-linecap="round" stroke-linejoin="round" stroke-miterlimit="10" d="
				M18.563,24.115c0.297,0.238,0.654,0.453,0.977,0.652c0.241,0.15,0.494,0.354,0.758,0.463c0.312,0.129,0.66,0.053,0.973,0.166"/>
			
				<path clip-path="url(#XMLID_27_)" fill="none" stroke="#553E31" stroke-width="0.732" stroke-linecap="round" stroke-linejoin="round" stroke-miterlimit="10" d="
				M24.29,22.359c0.198,0.465,0.675,0.787,1.18,0.771"/>
			
				<path clip-path="url(#XMLID_27_)" fill="none" stroke="#553E31" stroke-width="0.732" stroke-linecap="round" stroke-linejoin="round" stroke-miterlimit="10" d="
				M26.029,21.789c0.25-0.213,0.475-0.205,0.77-0.287c0.219-0.061,0.643-0.316,0.736-0.525"/>
			
				<path clip-path="url(#XMLID_27_)" fill="none" stroke="#553E31" stroke-width="0.732" stroke-linecap="round" stroke-linejoin="round" stroke-miterlimit="10" d="
				M22.098,23.934c-0.361,0.068-0.754,0.264-0.977,0.59"/>
			
				<path clip-path="url(#XMLID_27_)" fill="none" stroke="#553E31" stroke-width="0.732" stroke-linecap="round" stroke-linejoin="round" stroke-miterlimit="10" d="
				M12.094,18.834c-0.039,0.34,0.268,0.438,0.427,0.674c0.173,0.258,0.253,0.572,0.427,0.828"/>
			
				<path clip-path="url(#XMLID_27_)" fill="none" stroke="#553E31" stroke-width="0.732" stroke-linecap="round" stroke-linejoin="round" stroke-miterlimit="10" d="
				M22.85,24.682c-0.053-0.027,0.181-0.055,0.25-0.059c0.186-0.006,0.348,0.059,0.503,0.154c0.137,0.084,0.198,0.164,0.366,0.168
				c0.113,0.002,0.232-0.115,0.285,0.041"/>
			
				<path clip-path="url(#XMLID_27_)" fill="none" stroke="#553E31" stroke-width="0.732" stroke-linecap="round" stroke-linejoin="round" stroke-miterlimit="10" d="
				M17.646,23.02c0.189,0.066,0.519-0.012,0.732-0.002c0.609,0.031,1.143,0.189,1.77,0.104c0.625-0.086,1.216-0.184,1.848-0.184
				c0.215,0,0.437,0.018,0.65-0.014c0.152-0.023,0.296-0.09,0.453-0.088"/>
			
				<path clip-path="url(#XMLID_27_)" fill="none" stroke="#553E31" stroke-width="0.732" stroke-linecap="round" stroke-linejoin="round" stroke-miterlimit="10" d="
				M13.496,21.258c0.252,0.275,0.592,0.52,0.91,0.705c0.201,0.117,0.402,0.234,0.601,0.352c0.172,0.102,0.487,0.189,0.564,0.387"/>
			
				<use xlink:href="#XMLID_7_"  overflow="visible" fill="none" stroke="#553E31" stroke-width="0.976" stroke-linecap="round" stroke-linejoin="round" stroke-miterlimit="10"/>
		</g>
		
			<path fill="#CDB8AB" stroke="#553E31" stroke-width="0.976" stroke-linecap="round" stroke-linejoin="round" stroke-miterlimit="10" d="
			M18.578,19.016c-0.379,0.328-0.491,0.162-0.672,0.641c-0.181,0.48,0.329,0.496,0.626,0.58c0.296,0.082,0.459,0.186,1.099,0.197
			c0.809,0.016,1.233-0.061,2.304-0.26c1.069-0.199,2.35-0.121,3.403-0.502c0.971-0.352,2.098-0.582,2.74-1.326
			c0.643-0.746,2.008-1.992,1.893-3.494s-0.318-1.664-0.672-2.094c-0.354-0.434,0.123-1.564,0.123-1.564s0.418-0.16,1.225,1.299
			c0.809,1.457,1.203,2.881,0.396,4.438c-0.807,1.561-3.139,4.002-5.278,4.373c-2.142,0.369-4.604,0.803-5.905,0.67
			s-2.023-0.225-2.946-0.414c-0.922-0.186-2.42-0.932-2.882-1.611c-0.461-0.68-1.251-1.061-1.662-1.525
			c-0.412-0.463-1.12-1.342-1.12-1.342l2.124-1.838c0,0-0.147,0.861,0.658,1.408c0.807,0.547,1.389,1.303,1.998,1.055
			c0.609-0.25,0.895-0.535,0.992-0.625c0.1-0.09,1.795,0.785,1.877,0.9S18.578,19.016,18.578,19.016z"/>
		
			<path fill="none" stroke="#553E31" stroke-width="0.732" stroke-linecap="round" stroke-linejoin="round" stroke-miterlimit="10" d="
			M22.646,13.244c-0.049-0.033-0.33-0.92-0.61-1.219s-0.041-1.033-0.387-1.016c-0.347,0.016-0.804,0.18-0.936,0.447
			c-0.132,0.264-0.172,0.359-0.468,0.508c-0.297,0.148-0.554,0.248-0.686,0.529c-0.131,0.281-0.478,0.35-0.643,0.646
			c-0.164,0.299-0.214,0.793-0.346,1.109c-0.131,0.314-0.625,1.127-0.955,1.441c-0.328,0.316-0.493,0.516-0.493,0.912
			s-0.222,0.518,0.157,0.752c0.377,0.23,0.907,0.271,1.221,0.686c0.313,0.414-0.234,0.615,0.457,0.746
			c0.691,0.133,0.997,0.201,1.294,0.15c0.296-0.049,0.876-0.268,1.255-0.268c0.378,0,0.94,0.037,1.221-0.344
			c0.279-0.381,0.604-0.381,0.966-0.514c0.362-0.131,0.856-0.297,1.071-0.613c0.213-0.314,0.707-0.596,0.724-0.992
			c0.017-0.398,0.165-0.928,0.115-1.244c-0.05-0.314-0.196-0.141-0.476-0.174c-0.281-0.033-0.539,0.111-0.834,0.326
			c-0.297,0.213-0.995,0.793-1.242,0.895c-0.247,0.098-0.605,0.473-0.936,0.324"/>
		
			<path fill="none" stroke="#553E31" stroke-width="0.732" stroke-linecap="round" stroke-linejoin="round" stroke-miterlimit="10" d="
			M22.002,10.502c-0.033-0.264-0.065-0.43,0.132-0.645c0.197-0.217,0.562-0.203,0.94-0.289c0.378-0.088,0.476-0.174,0.772-0.076
			c0.296,0.1,0.626-0.098,0.972-0.064c0.346,0.031,0.443,0.016,0.724,0.279c0.28,0.266,0.083,0.598-0.082,0.895
			c-0.165,0.299-0.164,0.432-0.313,0.746c-0.147,0.316,0.017,0.217,0.263,0.498c0.248,0.281,0.231,0.563,0.148,0.828
			c-0.082,0.266-0.197,0.281-0.625,0.498c-0.428,0.215-0.576,0.064-0.808,0.281c-0.23,0.215-0.411,0.496-0.625,0.629
			s-0.362,0.43-0.495,0.672c-0.131,0.244-0.74,0.338-1.168,0.488c0,0-0.305-0.051-0.947,0.545c-0.643,0.598-1.531,0.689-1.977,0.93
			c-0.444,0.238-0.537,0.432-0.643,0.662"/>
		
			<path fill="none" stroke="#553E31" stroke-width="0.732" stroke-linecap="round" stroke-linejoin="round" stroke-miterlimit="10" d="
			M22.99,9.492c0.084-0.33,0.197-0.646,0.346-0.877c0.148-0.232,0.197-0.58,0.543-0.729c0.346-0.15,0.643-0.117,0.791,0
			c0.148,0.115,0.33,0.131,0.609,0.23s0.041,0.201,0.355,0.416c0.206,0.139,0.41,0.316,0.674,0.465"/>
		
			<path fill="none" stroke="#553E31" stroke-width="0.732" stroke-linecap="round" stroke-linejoin="round" stroke-miterlimit="10" d="
			M25.273,7.889c0,0,0.133-0.066,0.437-0.197c0.305-0.133,0.634-0.049,0.815-0.082c0.18-0.033,0.592,0.098,0.675,0.279
			s-0.033,0.316,0.181,0.416c0.214,0.098,0.546,0.32,0.678,0.471c0.132,0.148-0.49,0.916-0.326,1.26
			c0.164,0.346,0.686-0.273,1.049,0.023c0.361,0.299,0.461,0.531,0.477,0.895c0.018,0.365-0.033,0.949-0.164,1.328
			c-0.132,0.379-0.494,1.189-0.758,1.258c-0.264,0.066-0.428,0.43-0.79,0.215s-0.302-0.715-0.729-0.549s-1.197,0.648-1.543,0.699
			c-0.346,0.049-0.329,0.031-0.766,0.133"/>
		
			<path fill="none" stroke="#553E31" stroke-width="0.732" stroke-linecap="round" stroke-linejoin="round" stroke-miterlimit="10" d="
			M25.428,7.555C25.312,7.156,25.262,6.908,25,6.727c-0.265-0.184-0.396-0.018-0.791,0c-0.396,0.018-0.643,0.115-1.037,0.266
			c-0.396,0.148-1.236,0.445-1.598,0.396c-0.362-0.049-1.021,0.266-1.383,0.396c-0.362,0.135-0.362,0.383-0.709,0.416
			c-0.346,0.033-0.593,0.299-1.07,0.438c-0.477,0.141-0.527,0.125-0.955,0.158s-0.823,0.148-0.856,0.266"/>
		
			<path fill="none" stroke="#553E31" stroke-width="0.732" stroke-linecap="round" stroke-linejoin="round" stroke-miterlimit="10" d="
			M21.161,9.1c-0.444-0.166,0.204-0.611-0.142-0.791c-0.346-0.184-0.712-0.145-1.141-0.021c-0.428,0.125-0.285,0.664-0.63,0.631
			c-0.347-0.033-0.938-0.326-1.433,0.336s-0.543,0.912-0.264,1.227"/>
		
			<path fill="none" stroke="#553E31" stroke-width="0.732" stroke-linecap="round" stroke-linejoin="round" stroke-miterlimit="10" d="
			M19.647,10.764c-0.246-0.23-0.938-0.496-1.268-0.445c-1.022,0.156-2.061,0.666-2.276,1.768c-0.093,0.471-0.349,1.211-0.131,1.662
			c0.184,0.379,0.217,0.58,0.184,0.844"/>
		
			<path fill="none" stroke="#553E31" stroke-width="0.732" stroke-linecap="round" stroke-linejoin="round" stroke-miterlimit="10" d="
			M29.939,15.242c-0.429,0.248-0.593,0.248-0.889,0.531c-0.297,0.281-0.577,0.412-0.692,0.166c-0.115-0.25-0.082-0.135,0-0.482
			c0.083-0.348,0.28-0.779,0.115-1.027s-0.017,0.082-0.165-0.248c-0.148-0.332-0.1-0.342-0.164-0.414"/>
		
			<path fill="none" stroke="#553E31" stroke-width="0.732" stroke-linecap="round" stroke-linejoin="round" stroke-miterlimit="10" d="
			M23.633,17.908c0.246-0.031,1.795,0.133,2.667-0.148"/>
		
			<path fill="none" stroke="#553E31" stroke-width="0.732" stroke-linecap="round" stroke-linejoin="round" stroke-miterlimit="10" d="
			M26.234,19.219c-0.412,0.049-0.824,0.197-1.367,0c-0.543-0.199-0.461-0.139-1.021-0.311"/>
		<g>
			<defs>
				<path id="XMLID_6_" d="M17.21,8.158c-0.054,0.695-0.198,2.039-0.691,2.957c-0.494,0.92-4.521,7.729-6.472,10.191
					c-1.951,2.459-3.088,3.727-3.854,4.199s-0.469,0.1-0.791-0.049c-0.32-0.15-0.493-0.25-0.691-0.672
					c-0.197-0.424-0.296-1.393-0.766-1.615c-0.469-0.225-1.136-0.273-1.68-0.598c-0.543-0.322-0.963-1.168-1.284-2.361
					C0.66,19.02,0.24,16.709,0.71,15.217s1.235-3.43,2.149-4.424s2.543-2.832,4.149-3.578c1.604-0.746,3.704-1.316,5.162-1.293
					c1.458,0.025,1.753,0.148,2.272,0.398c0.52,0.248,0.84,0.396,1.309,0.348c0.471-0.049,0.914,0.074,1.137,0.496
					C17.111,7.588,17.234,7.836,17.21,8.158z"/>
			</defs>
			<use xlink:href="#XMLID_6_"  overflow="visible" fill="#CDB8AB"/>
			<clipPath id="XMLID_28_">
				<use xlink:href="#XMLID_6_"  overflow="visible"/>
			</clipPath>
			<g clip-path="url(#XMLID_28_)">
				
					<path fill="none" stroke="#553E31" stroke-width="0.732" stroke-linecap="round" stroke-linejoin="round" stroke-miterlimit="10" d="
					M15.563,9.885c-0.543-0.1-1.211-0.67-1.828-0.621"/>
				
					<path fill="none" stroke="#553E31" stroke-width="0.732" stroke-linecap="round" stroke-linejoin="round" stroke-miterlimit="10" d="
					M6.199,9.324c0.479-0.039,0.992,0.111,1.469,0.023c0.606-0.111,1.111-0.555,1.691-0.742c0.383-0.123,0.809-0.184,1.205-0.242"/>
				
					<path fill="none" stroke="#553E31" stroke-width="0.732" stroke-linecap="round" stroke-linejoin="round" stroke-miterlimit="10" d="
					M14.246,13.379c-1.061,0.043-2.094,0.568-2.674,1.467c-0.279,0.428-0.5,0.891-0.784,1.314"/>
				
					<path fill="none" stroke="#553E31" stroke-width="0.732" stroke-linecap="round" stroke-linejoin="round" stroke-miterlimit="10" d="
					M4.662,23.516c-0.056-0.746,1.07-1.488,1.656-1.723c0.592-0.234,1.419-0.471,1.455-1.232"/>
				
					<path fill="none" stroke="#553E31" stroke-width="0.732" stroke-linecap="round" stroke-linejoin="round" stroke-miterlimit="10" d="
					M10.659,17.221c-0.206,0.148-0.438,0.305-0.569,0.529c-0.156,0.264-0.114,0.592-0.22,0.869
					c-0.119,0.313-0.415,0.643-0.642,0.885c-0.2,0.211-0.488,0.35-0.645,0.602"/>
				
					<path fill="none" stroke="#553E31" stroke-width="0.732" stroke-linecap="round" stroke-linejoin="round" stroke-miterlimit="10" d="
					M7.973,17.852c-0.132-0.299,0.219-0.896-0.125-1.068c-0.331-0.17-1.287-0.08-1.53,0.197"/>
				
					<path fill="none" stroke="#553E31" stroke-width="0.732" stroke-linecap="round" stroke-linejoin="round" stroke-miterlimit="10" d="
					M6.193,15.34c0.109-0.26,0.566-0.477,0.815-0.578c0.328-0.133,0.681-0.033,0.994-0.215c0.421-0.246,0.37-0.693,0.636-1.045"/>
				
					<path fill="none" stroke="#553E31" stroke-width="0.732" stroke-linecap="round" stroke-linejoin="round" stroke-miterlimit="10" d="
					M11.528,12.979c-0.562,0.248-0.577,0.807-1.032,1.1c-0.275,0.176-0.623,0.357-0.945,0.42c-0.187,0.035-0.403-0.018-0.566,0.098"
					/>
				
					<path fill="none" stroke="#553E31" stroke-width="0.732" stroke-linecap="round" stroke-linejoin="round" stroke-miterlimit="10" d="
					M7.022,11.408c0.28-0.002,0.566-0.246,0.847-0.309c0.326-0.068,0.55-0.088,0.783,0.115c0.235,0.203,0.434,0.252,0.76,0.211
					c0.387-0.049,0.715-0.381,1.093-0.393"/>
				
					<path fill="none" stroke="#553E31" stroke-width="0.732" stroke-linecap="round" stroke-linejoin="round" stroke-miterlimit="10" d="
					M15.926,8.754c-0.491-0.438-0.748-0.941-1.441-1.113c-0.353-0.088-0.422-0.199-0.688-0.428
					c-0.225-0.193-0.692-0.289-0.934-0.072"/>
				
					<path fill="none" stroke="#553E31" stroke-width="0.732" stroke-linecap="round" stroke-linejoin="round" stroke-miterlimit="10" d="
					M5.477,20.311c-0.203-0.215-1.094-0.977-1.359-0.82c-0.181,0.105-0.02,0.453,0.032,0.578c0.126,0.299,0.236,0.557,0.167,0.889"
					/>
				
					<path fill="none" stroke="#553E31" stroke-width="0.732" stroke-linecap="round" stroke-linejoin="round" stroke-miterlimit="10" d="
					M2.934,20.311c-0.346-0.039-0.656-0.729-0.767-1.02c-0.074-0.193-0.075-0.078-0.007-0.301c0.059-0.188,0.265-0.457,0.154-0.643"
					/>
				
					<path fill="none" stroke="#553E31" stroke-width="0.732" stroke-linecap="round" stroke-linejoin="round" stroke-miterlimit="10" d="
					M3.477,16.561c-0.147-0.463,0.535-0.781,0.691-1.146"/>
				
					<path fill="none" stroke="#553E31" stroke-width="0.732" stroke-linecap="round" stroke-linejoin="round" stroke-miterlimit="10" d="
					M5.502,17.006c-0.309,0.18,0.246,1.004,0.42,1.168"/>
				
					<path fill="none" stroke="#553E31" stroke-width="0.732" stroke-linecap="round" stroke-linejoin="round" stroke-miterlimit="10" d="
					M11.723,12.18c0.442-0.271,1.104-0.5,1.626-0.418c0.7,0.109,1.125,0.033,1.757-0.352"/>
				
					<path fill="none" stroke="#553E31" stroke-width="0.732" stroke-linecap="round" stroke-linejoin="round" stroke-miterlimit="10" d="
					M11.207,10.02c0.117,0.049,0.301,0.01,0.445,0.023c0.223,0.023,0.374,0.115,0.567,0.225c0.464,0.268,0.972,0.283,1.456,0.025"/>
				
					<path fill="none" stroke="#553E31" stroke-width="0.732" stroke-linecap="round" stroke-linejoin="round" stroke-miterlimit="10" d="
					M2.439,14.422c0.088-0.363,0.326-0.799,0.617-1.043"/>
				
					<path fill="none" stroke="#553E31" stroke-width="0.732" stroke-linecap="round" stroke-linejoin="round" stroke-miterlimit="10" d="
					M4.044,13.104c0.198-0.047,0.343-0.043,0.502,0.131c0.196,0.219,0.229,0.219,0.561,0.219"/>
				
					<path fill="none" stroke="#553E31" stroke-width="0.732" stroke-linecap="round" stroke-linejoin="round" stroke-miterlimit="10" d="
					M6.317,10.295c-0.312,0.264-0.629,0.576-0.987,0.771c-0.31,0.168-0.802,0.213-0.989,0.547"/>
			</g>
			
				<use xlink:href="#XMLID_6_"  overflow="visible" fill="none" stroke="#553E31" stroke-width="0.976" stroke-linecap="round" stroke-linejoin="round" stroke-miterlimit="10"/>
		</g>
	</g>
</g>
<g id="Layer_3">
</g>
</svg>
