<?xml version="1.0" encoding="utf-8"?>
<!-- Generator: Adobe Illustrator 16.0.0, SVG Export Plug-In . SVG Version: 6.00 Build 0)  -->
<!DOCTYPE svg PUBLIC "-//W3C//DTD SVG 1.1//EN" "http://www.w3.org/Graphics/SVG/1.1/DTD/svg11.dtd">
<svg version="1.1" id="Layer_1" xmlns="http://www.w3.org/2000/svg" xmlns:xlink="http://www.w3.org/1999/xlink" x="0px" y="0px"
	 width="40px" height="45px" viewBox="0 0 40 45" enable-background="new 0 0 40 45" xml:space="preserve">
<g>
	<g>
		<path fill="#553E31" d="M33.729,32.157c-0.363,1.35-1.751,2.15-3.102,1.788l-19.945-5.353c-1.351-0.362-2.151-1.75-1.789-3.101
			l6.186-23.051c0.362-1.35,1.75-2.15,3.1-1.788l19.947,5.352c1.35,0.362,2.15,1.751,1.788,3.102L33.729,32.157z"/>
		<path fill="#EBE0D5" d="M33.186,27.976l5.176-19.287c0.132-0.492-0.16-1-0.652-1.132L17.762,2.205
			c-0.492-0.132-1,0.161-1.132,0.653l-5.175,19.286L33.186,27.976z"/>
		<path fill-rule="evenodd" clip-rule="evenodd" fill="#CDB8AB" d="M27.031,12.598c-0.002,0-0.002-0.001-0.003-0.002
			c0.576,0.126,1.222,0.233,1.876,0.282c2.07,0.155,2.305-0.071,2.546-0.024c0.267,0.053,0.44,0.04,0.728-0.053
			s0.514-0.57,0.877-0.488c0.364,0.082,0.111,0.241,0.272,0.628s0.456,0.73-0.121,0.767c-0.343,0.021-0.512-0.11-0.657-0.198
			c-0.146-0.087-0.246-0.096-0.688,0.104c-0.109,0.05-0.263,0.227-0.408,0.265c-0.164,0.042-1.104,0.392-1.983,0.737
			c-0.186-0.031-0.38-0.069-0.587-0.116c-0.002-0.003-0.004-0.005-0.006-0.007c-0.262-0.332-0.549-0.635-0.832-0.917
			c-0.012-0.012-0.023-0.024-0.035-0.036c-0.027-0.025-0.054-0.053-0.08-0.078c-0.027-0.027-0.055-0.054-0.081-0.08
			c-0.006-0.006-0.013-0.012-0.018-0.018c-0.009-0.009-0.019-0.018-0.027-0.026c-0.053-0.052-0.105-0.103-0.157-0.153
			c-0.019-0.018-0.037-0.035-0.055-0.053c-0.047-0.046-0.094-0.091-0.141-0.136c-0.016-0.014-0.03-0.028-0.045-0.043
			C27.279,12.831,27.154,12.713,27.031,12.598z M22.221,19.882c1.154,0.305,2.59,0.685,3.578,0.949
			c0.434,0.117,0.968,0.127,1.357,0.135c0.575,0.011,1.049-0.062,1.445-0.224c0.912-0.369,1.386-1.298,1.27-2.486l-0.002-0.02
			c-0.012-0.116-0.029-0.237-0.053-0.366c-0.281,0.162-0.545,0.332-0.783,0.505c-1.668,1.208-2.842,1.419-3.533,1.384
			c-0.002,0-0.004,0-0.006-0.001c-0.003,0-0.005,0-0.007,0h-0.009c-0.004,0-0.008-0.001-0.012-0.002
			c-0.019-0.005-0.034-0.02-0.041-0.039c-0.008-0.019-0.004-0.04,0.009-0.056c0.013-0.017,0.032-0.024,0.053-0.022l0.017,0.001
			c0.021,0,0.039-0.003,0.055-0.009c0.133-0.051,0.264-0.096,0.402-0.144c0.648-0.224,1.385-0.479,2.792-1.498
			c1.601-1.158,3.56-1.726,4.204-1.912c0.092-0.026,0.157-0.045,0.182-0.055c0.064-0.024,0.103-0.053,0.15-0.088
			c0.074-0.054,0.167-0.12,0.391-0.206c0.195-0.075,0.344-0.096,0.468-0.063c0.112,0.03,0.192,0.103,0.257,0.169
			c0.059,0.06,0.146,0.108,0.24,0.134l0,0c0.105,0.028,0.311,0.051,0.506-0.113c0.195-0.165,0.104-0.386-0.018-0.616
			c-0.023-0.046-0.044-0.086-0.057-0.119c-0.033-0.089-0.029-0.195-0.025-0.298c0.004-0.093,0.008-0.188-0.02-0.243
			c-0.061-0.115-0.142-0.187-0.24-0.213c-0.204-0.055-0.43,0.097-0.522,0.269c-0.173,0.32-0.603,0.408-0.834,0.455l-0.021,0.004
			c-0.135,0.028-0.248,0.006-0.35-0.021c-0.02-0.005-0.039-0.011-0.058-0.017c-0.018-0.004-0.035-0.01-0.052-0.015
			c-0.041-0.01-0.071-0.017-0.098-0.02l-0.035-0.005c-0.102-0.014-0.111-0.015-0.943,0.069c-0.939,0.095-1.919,0.143-3.581-0.304
			c-0.215-0.058-0.439-0.124-0.667-0.195c-0.106-0.034-0.216-0.066-0.324-0.095c-1.938-0.521-3.412-0.083-3.428-0.079
			c-0.076,0.022-0.148,0.05-0.217,0.079c-0.012,0.006-0.025,0.007-0.039,0.003c-0.004,0-0.008-0.003-0.012-0.004
			c-0.016-0.009-0.027-0.023-0.031-0.042c-0.005-0.024,0.008-0.051,0.029-0.063c0.543-0.302,1.672-0.931,3.82-0.354
			c0.115,0.031,0.231,0.065,0.345,0.102c0.109,0.034,0.218,0.067,0.328,0.1c-0.188-0.201-0.38-0.393-0.563-0.572
			c-1.652-1.618-2.965-2.699-4.398-3.084c-0.707-0.189-2.047-0.174-3.321,0.31c-1.08,0.408-2.474,1.294-2.983,3.193
			c-0.395,1.467,0.039,2.785,1.287,3.92c1.023,0.929,2.229,1.386,2.495,1.457C20.883,19.529,21.487,19.688,22.221,19.882z"/>
	</g>
	<g>
		<path fill="#553E31" d="M30.319,34.595c-0.104,1.394-1.319,2.438-2.714,2.334L7.012,35.385c-1.395-0.104-2.439-1.319-2.334-2.714
			L6.462,8.873c0.104-1.395,1.319-2.439,2.713-2.335L29.77,8.083c1.394,0.104,2.439,1.319,2.334,2.713L30.319,34.595z"/>
		<path fill="#EBE0D5" d="M29.008,30.588l1.493-19.914c0.038-0.507-0.344-0.951-0.852-0.989L9.055,8.14
			c-0.508-0.038-0.952,0.345-0.99,0.853L6.571,28.905L29.008,30.588z"/>
		<path fill-rule="evenodd" clip-rule="evenodd" fill="#CDB8AB" d="M20.097,16.626c-0.001-0.001-0.001-0.001-0.003-0.001
			c0.59,0.016,1.244,0.001,1.896-0.072c2.063-0.233,2.251-0.5,2.496-0.498c0.273,0.002,0.441-0.043,0.705-0.188
			c0.266-0.145,0.398-0.656,0.771-0.644s0.154,0.217,0.385,0.567c0.229,0.35,0.584,0.632,0.023,0.775
			c-0.333,0.085-0.523-0.013-0.684-0.072c-0.16-0.059-0.26-0.049-0.655,0.229c-0.099,0.07-0.216,0.272-0.353,0.337
			c-0.152,0.072-1.01,0.59-1.811,1.094c-0.188,0.005-0.387,0.003-0.599-0.005c-0.002-0.002-0.005-0.004-0.007-0.006
			c-0.318-0.277-0.658-0.521-0.988-0.746c-0.014-0.01-0.028-0.019-0.042-0.028c-0.031-0.021-0.062-0.042-0.093-0.063
			c-0.032-0.021-0.064-0.042-0.094-0.063c-0.008-0.005-0.015-0.009-0.021-0.014c-0.011-0.008-0.021-0.014-0.031-0.021
			c-0.062-0.041-0.123-0.082-0.184-0.122c-0.021-0.014-0.042-0.027-0.063-0.041c-0.055-0.037-0.109-0.072-0.163-0.107
			c-0.018-0.011-0.035-0.022-0.053-0.033C20.385,16.808,20.239,16.716,20.097,16.626z M16.728,24.678
			c1.19,0.085,2.673,0.19,3.692,0.267c0.448,0.034,0.975-0.056,1.359-0.121c0.566-0.096,1.018-0.256,1.379-0.488
			c0.826-0.532,1.119-1.533,0.783-2.679l-0.006-0.019c-0.033-0.112-0.072-0.228-0.121-0.351c-0.244,0.211-0.472,0.427-0.674,0.642
			c-1.414,1.498-2.528,1.924-3.215,2.018c-0.002,0-0.004,0.001-0.006,0.001s-0.004,0-0.006,0.001l-0.009,0.001
			c-0.003,0-0.008,0-0.011,0c-0.02-0.002-0.039-0.013-0.049-0.029c-0.01-0.018-0.011-0.039-0.002-0.058
			c0.01-0.018,0.027-0.03,0.048-0.032l0.017-0.001c0.021-0.004,0.038-0.011,0.052-0.019c0.122-0.075,0.241-0.144,0.368-0.217
			c0.597-0.341,1.272-0.729,2.465-1.991c1.356-1.438,3.176-2.359,3.773-2.662c0.086-0.043,0.147-0.074,0.169-0.088
			c0.06-0.037,0.091-0.07,0.132-0.113c0.063-0.067,0.143-0.149,0.346-0.276c0.178-0.11,0.32-0.157,0.447-0.147
			c0.116,0.008,0.209,0.063,0.285,0.118c0.066,0.047,0.162,0.079,0.26,0.086l0,0c0.109,0.008,0.315-0.008,0.477-0.206
			c0.161-0.197,0.029-0.398-0.132-0.603c-0.032-0.04-0.06-0.075-0.078-0.106c-0.05-0.08-0.065-0.186-0.08-0.287
			c-0.013-0.092-0.027-0.187-0.065-0.235c-0.08-0.102-0.174-0.157-0.275-0.165c-0.211-0.016-0.404,0.176-0.463,0.362
			c-0.109,0.347-0.517,0.513-0.734,0.602l-0.02,0.009c-0.127,0.052-0.242,0.052-0.348,0.043c-0.021-0.001-0.041-0.003-0.06-0.004
			c-0.019-0.002-0.036-0.005-0.055-0.005c-0.042-0.004-0.072-0.004-0.1-0.002l-0.035,0.002c-0.102,0.005-0.112,0.006-0.913,0.242
			c-0.905,0.269-1.859,0.498-3.575,0.369c-0.222-0.016-0.455-0.039-0.691-0.067c-0.112-0.014-0.226-0.024-0.337-0.032
			c-2-0.15-3.367,0.554-3.383,0.562c-0.07,0.035-0.136,0.074-0.197,0.117c-0.011,0.008-0.024,0.012-0.037,0.01
			c-0.005,0-0.01,0-0.014-0.002c-0.018-0.005-0.031-0.018-0.038-0.034c-0.01-0.024-0.003-0.053,0.017-0.068
			c0.478-0.398,1.471-1.227,3.688-1.06c0.118,0.009,0.238,0.021,0.356,0.034c0.113,0.014,0.228,0.026,0.342,0.037
			c-0.223-0.161-0.447-0.314-0.661-0.457c-1.925-1.282-3.414-2.1-4.896-2.21c-0.729-0.055-2.043,0.21-3.205,0.921
			c-0.985,0.604-2.189,1.733-2.337,3.694c-0.114,1.514,0.558,2.729,1.993,3.61c1.18,0.723,2.449,0.948,2.725,0.969
			C15.348,24.58,15.971,24.625,16.728,24.678z"/>
	</g>
	<g>
		<path fill="#553E31" d="M28.622,38.888c0.181,1.386-0.794,2.656-2.181,2.838L5.965,44.413c-1.387,0.182-2.656-0.795-2.838-2.18
			L0.022,18.568c-0.183-1.386,0.794-2.656,2.18-2.838l20.478-2.686c1.385-0.183,2.656,0.794,2.838,2.18L28.622,38.888z"/>
		<path fill="#EBE0D5" d="M26.521,35.232l-2.598-19.799c-0.066-0.505-0.53-0.862-1.035-0.796L2.412,17.324
			c-0.506,0.066-0.863,0.53-0.797,1.035l2.598,19.8L26.521,35.232z"/>
		<path fill-rule="evenodd" clip-rule="evenodd" fill="#CDB8AB" d="M14.951,23.38c-0.001-0.001-0.002-0.001-0.002-0.001
			c0.58-0.104,1.217-0.252,1.84-0.457c1.973-0.649,2.104-0.948,2.344-0.996c0.268-0.054,0.422-0.133,0.651-0.328
			s0.257-0.725,0.624-0.787c0.367-0.063,0.195,0.181,0.492,0.477c0.296,0.295,0.701,0.5,0.182,0.754
			c-0.309,0.152-0.516,0.095-0.684,0.069c-0.169-0.024-0.264,0.005-0.596,0.357c-0.082,0.088-0.156,0.31-0.275,0.4
			c-0.135,0.103-0.87,0.785-1.551,1.441c-0.184,0.042-0.378,0.081-0.588,0.117c-0.002-0.002-0.004-0.004-0.007-0.005
			c-0.368-0.207-0.75-0.375-1.12-0.528c-0.016-0.007-0.031-0.013-0.047-0.02c-0.034-0.014-0.068-0.028-0.104-0.042
			c-0.035-0.015-0.07-0.029-0.105-0.043c-0.008-0.003-0.016-0.006-0.022-0.009c-0.013-0.005-0.023-0.01-0.035-0.014
			c-0.069-0.028-0.137-0.056-0.204-0.082c-0.023-0.01-0.047-0.019-0.07-0.028c-0.063-0.023-0.123-0.048-0.183-0.071
			c-0.019-0.007-0.038-0.016-0.058-0.022C15.271,23.5,15.109,23.439,14.951,23.38z M13.295,31.95
			c1.182-0.159,2.654-0.358,3.669-0.491c0.444-0.059,0.942-0.254,1.306-0.396c0.535-0.21,0.943-0.458,1.25-0.759
			c0.7-0.689,0.783-1.729,0.221-2.783l-0.009-0.018c-0.056-0.103-0.118-0.208-0.189-0.318c-0.198,0.258-0.376,0.515-0.53,0.767
			c-1.079,1.754-2.082,2.398-2.734,2.63c-0.003,0.001-0.005,0.002-0.007,0.002c-0.002,0.001-0.004,0.002-0.007,0.003l-0.008,0.003
			c-0.003,0.001-0.007,0.002-0.011,0.002c-0.019,0.002-0.039-0.005-0.053-0.02s-0.019-0.036-0.013-0.055
			c0.005-0.021,0.02-0.036,0.039-0.042c0,0,0.016-0.004,0.016-0.005c0.02-0.008,0.035-0.018,0.048-0.028
			c0.103-0.099,0.206-0.19,0.315-0.287c0.516-0.455,1.098-0.973,2.008-2.452c1.035-1.684,2.629-2.956,3.152-3.375
			c0.074-0.061,0.129-0.104,0.146-0.12c0.051-0.049,0.076-0.088,0.106-0.139c0.048-0.078,0.108-0.175,0.281-0.341
			c0.151-0.145,0.282-0.22,0.408-0.235c0.116-0.016,0.218,0.021,0.303,0.057c0.075,0.033,0.175,0.045,0.272,0.032l0,0
			c0.109-0.015,0.307-0.072,0.425-0.299s-0.052-0.396-0.253-0.563c-0.039-0.033-0.073-0.063-0.098-0.088
			c-0.064-0.069-0.102-0.17-0.137-0.266c-0.031-0.087-0.064-0.178-0.111-0.217c-0.101-0.083-0.203-0.119-0.305-0.105
			c-0.209,0.027-0.359,0.254-0.379,0.448c-0.037,0.362-0.4,0.608-0.597,0.74l-0.017,0.011c-0.113,0.077-0.227,0.101-0.332,0.114
			c-0.02,0.003-0.039,0.005-0.059,0.007c-0.02,0.003-0.037,0.004-0.055,0.006c-0.041,0.007-0.071,0.012-0.098,0.019l-0.034,0.01
			c-0.099,0.026-0.108,0.028-0.845,0.425c-0.831,0.446-1.719,0.866-3.425,1.089c-0.221,0.029-0.454,0.055-0.69,0.075
			c-0.112,0.01-0.225,0.021-0.336,0.036c-1.99,0.262-3.186,1.229-3.197,1.239c-0.062,0.05-0.119,0.102-0.17,0.156
			c-0.009,0.01-0.021,0.016-0.035,0.018c-0.004,0.001-0.009,0.001-0.014,0c-0.018-0.002-0.033-0.011-0.043-0.026
			c-0.016-0.021-0.014-0.05,0.002-0.07c0.387-0.486,1.189-1.499,3.395-1.788c0.117-0.016,0.238-0.029,0.357-0.039
			c0.113-0.01,0.227-0.021,0.34-0.033c-0.249-0.113-0.5-0.218-0.738-0.313c-2.146-0.864-3.771-1.36-5.244-1.167
			c-0.725,0.096-1.957,0.622-2.95,1.557c-0.841,0.79-1.791,2.143-1.535,4.092c0.198,1.506,1.103,2.558,2.688,3.129
			c1.301,0.467,2.59,0.429,2.863,0.393C11.923,32.135,12.542,32.051,13.295,31.95z"/>
	</g>
</g>
</svg>
