<?xml version="1.0" encoding="utf-8"?>
<!-- Generator: Adobe Illustrator 16.0.0, SVG Export Plug-In . SVG Version: 6.00 Build 0)  -->
<!DOCTYPE svg PUBLIC "-//W3C//DTD SVG 1.1//EN" "http://www.w3.org/Graphics/SVG/1.1/DTD/svg11.dtd">
<svg version="1.1" xmlns="http://www.w3.org/2000/svg" xmlns:xlink="http://www.w3.org/1999/xlink" x="0px" y="0px" width="12px"
	 height="35px" viewBox="0 0 12 35" enable-background="new 0 0 12 35" xml:space="preserve">
<g id="portionsetter_x5F_typeA">
</g>
<g id="portionsetter_x5F_typeB">
</g>
<g id="icons">
	<g>
		<circle fill-rule="evenodd" clip-rule="evenodd" fill="#553E31" cx="6" cy="3.257" r="3.257"/>
		<path fill-rule="evenodd" clip-rule="evenodd" fill="#553E31" d="M5.993,20.631c0,0-0.504,0.104-0.504,0.934s0,10.088,0,12.042
			s-2.752,1.747-2.752,0.041c0-1.707,0-2.548,0-6.226s-0.369-4.958-0.554-6.918C2,18.544,3.157,16.386,3.46,15.646
			c0.304-0.739-0.677-2.163-0.204-1.956c0.473,0.208,0.786-0.152,1.326-0.415c-0.427,0.115-0.969-0.185-1.344-0.402
			c-0.375-0.219-0.73-0.438-1.008-0.335c-0.3,0.657-0.52,2.571-0.588,3.366c-0.069,0.795-0.196,3.297-0.174,4.15
			c0.023,0.854-0.864,0.899-1.003,0.127c-0.103-0.573-0.274-2.032-0.307-3.274C0.063,13.16,0.856,10.784,1.841,9.28
			s3.041-1.928,4.152-1.928h0.014c1.111,0,3.168,0.424,4.152,1.928s1.778,3.88,1.682,7.627c-0.032,1.242-0.204,2.701-0.307,3.274
			c-0.139,0.772-1.026,0.727-1.003-0.127c0.022-0.854-0.104-3.355-0.174-4.15c-0.068-0.795-0.288-2.709-0.588-3.366
			c-0.277-0.104-0.633,0.116-1.008,0.335c-0.375,0.218-0.917,0.518-1.344,0.402c0.54,0.263,0.854,0.623,1.326,0.415
			c0.473-0.207-0.508,1.217-0.204,1.956c0.303,0.739,1.46,2.897,1.276,4.857c-0.185,1.96-0.554,3.24-0.554,6.918s0,4.519,0,6.226
			c0,1.706-2.752,1.913-2.752-0.041s0-11.212,0-12.042s-0.504-0.934-0.504-0.934H5.993z"/>
	</g>
</g>
</svg>
