<?xml version="1.0" encoding="utf-8"?>
<!-- Generator: Adobe Illustrator 15.0.0, SVG Export Plug-In . SVG Version: 6.00 Build 0)  -->
<!DOCTYPE svg PUBLIC "-//W3C//DTD SVG 1.1//EN" "http://www.w3.org/Graphics/SVG/1.1/DTD/svg11.dtd">
<svg version="1.1" id="Layer_1" xmlns="http://www.w3.org/2000/svg" xmlns:xlink="http://www.w3.org/1999/xlink" x="0px" y="0px"
	 width="40px" height="40px" viewBox="0 0 40 40" enable-background="new 0 0 40 40" xml:space="preserve">
<g>
	<path fill="#553E31" d="M23.402,15.508c-0.91-0.925-1.387-1.734-1.313-2.649c0.131-1.591,0.928-2.228,1.803-2.866
		c0.771-0.565,1.879-1.695,2.609-2.665C26.764,6.98,26.912,6.513,27,6.054c0.115-0.828,0.303-0.688,0.398,0
		c0.697,4.277,0.441,6.465,0.164,7.887c-0.309,1.589-0.91,2.108-1.842,2.35c-0.93,0.239-1.631-0.229-1.631-0.229
		c0.475-0.892,1.289-3.266,1.543-3.823c0.254-0.554-0.201-0.756-0.439-0.089C24.953,12.816,23.402,15.508,23.402,15.508z
		 M32.387,15.835c-5.314,0.721-10.889,6.771-11.56,9.201c0.375-4.954,0.843-6.677,0.081-9.702c-1.329-5.265-6.43-5.777-8.756-5.444
		c-2.132,0.309-3.29,0.717-4.951,1.245c-0.438,0.156-0.426,0.438,0.146,0.298c1.585-0.329,3.985-0.556,5.715,0.513
		c2.708,1.669,4.504,3.735,5.511,12.386c0.691,5.936-0.312,10.439-0.135,11.133c0.178,0.69,1.011,0.687,1.107,0.246
		c0.094-0.439,0.011-4.297,2.53-9.618c2.521-5.318,7.199-8.566,10.84-10C33.359,15.781,32.982,15.714,32.387,15.835z"/>
	<g>
		<path fill="#553E31" d="M20,2c9.925,0,18,8.075,18,18c0,9.925-8.075,18-18,18S2,29.925,2,20C2,10.075,10.075,2,20,2 M20,0
			C8.973,0,0,8.972,0,20s8.972,20,20,20c11.029,0,20-8.972,20-20S31.029,0,20,0L20,0z"/>
	</g>
</g>
</svg>
