<?xml version="1.0" encoding="utf-8"?>
<!-- Generator: Adobe Illustrator 15.0.0, SVG Export Plug-In . SVG Version: 6.00 Build 0)  -->
<!DOCTYPE svg PUBLIC "-//W3C//DTD SVG 1.1//EN" "http://www.w3.org/Graphics/SVG/1.1/DTD/svg11.dtd">
<svg version="1.1" id="Layer_1" xmlns="http://www.w3.org/2000/svg" xmlns:xlink="http://www.w3.org/1999/xlink" x="0px" y="0px"
	 width="40px" height="40px" viewBox="0 0 40 40" enable-background="new 0 0 40 40" xml:space="preserve">
<g>
	<g>
		<path fill="#553E31" d="M20,2c9.925,0,18,8.075,18,18c0,9.925-8.075,18-18,18c-9.925,0-18-8.075-18-18C2,10.075,10.075,2,20,2
			 M20,0C8.973,0,0,8.972,0,20s8.973,20,20,20c11.028,0,20-8.972,20-20S31.028,0,20,0L20,0z"/>
	</g>
	<path fill="#553E31" stroke="#553E31" stroke-width="0.0903" stroke-miterlimit="10" d="M18.69,24.735
		c0.287,0.346,0.196,1.49-0.601,3.403c-0.505,1.209-0.271,2.92-0.679,4.05c-0.405,1.13-1.445,1.476-1.278,0.677
		c0.164-0.798,0.36-2.017,0.481-3.658c0.119-1.641-0.964-1.987-0.964-1.987s-3.041,4.411-3.75,5.404
		c-0.707,0.994-1.641,0.649-0.963-0.496c0.523-0.884,4.982-7.321,6.982-10.203c0.247,0.217,0.493,0.433,0.736,0.646
		c0.026,0.022,0.051,0.047,0.076,0.07l-1.459,2.049C17.273,24.689,18.405,24.389,18.69,24.735z M6.67,18.082
		c0.189-0.355,1.162-1.815,3.248-2.131c2.281-0.346,5.719,2.636,9.398,5.868c3.68,3.231,6.555,7.09,9.711,6.886
		c3.155-0.205,4.899-3.79,5.047-4.069c0.329-0.704-0.251-1.146-0.727-0.52c-0.319,0.376-1.161,1.814-3.247,2.131
		c-2.282,0.346-5.24-3.181-8.921-6.412c-3.68-3.231-7.033-6.546-10.189-6.342c-3.154,0.204-4.91,3.82-5.046,4.07
		C5.564,18.262,6.213,18.838,6.67,18.082z M21.212,17.956l1.397-1.198c0.101-0.088,0.158-0.216,0.157-0.349l-0.021-1.563
		c-0.002-0.146-0.074-0.281-0.194-0.364c-0.077-0.053-0.167-0.081-0.257-0.081c-0.052,0-0.104,0.01-0.154,0.027
		c-0.091,0.032-0.182,0.078-0.273,0.137c-0.643,0.408-1.383,1.036-1.415,2.259c-0.009,0.367-0.004,0.634,0.018,0.838
		c0.019,0.167,0.127,0.31,0.282,0.371c0.054,0.022,0.112,0.033,0.167,0.033C21.024,18.065,21.128,18.027,21.212,17.956z
		 M23.963,15.02l1.397-1.197c0.102-0.088,0.159-0.215,0.157-0.35l-0.021-1.562c-0.001-0.146-0.075-0.283-0.194-0.366
		c-0.076-0.053-0.166-0.08-0.258-0.08c-0.052,0-0.104,0.01-0.154,0.027c-0.09,0.032-0.183,0.079-0.273,0.137
		c-0.642,0.409-1.384,1.037-1.415,2.259c-0.009,0.367-0.003,0.634,0.02,0.838c0.017,0.167,0.126,0.31,0.281,0.373
		c0.055,0.021,0.11,0.031,0.167,0.031C23.774,15.13,23.88,15.091,23.963,15.02z M26.729,12.123l1.396-1.197
		c0.102-0.089,0.158-0.216,0.158-0.352l-0.022-1.562c-0.002-0.146-0.074-0.281-0.194-0.365C27.99,8.595,27.9,8.568,27.809,8.568
		c-0.052,0-0.104,0.008-0.153,0.026c-0.09,0.033-0.183,0.08-0.274,0.138c-0.643,0.409-1.383,1.037-1.414,2.257
		c-0.01,0.368-0.005,0.636,0.019,0.839c0.018,0.166,0.126,0.31,0.282,0.371c0.055,0.022,0.11,0.032,0.167,0.032
		C26.54,12.231,26.646,12.194,26.729,12.123z M21.654,18.795c-0.001,0.055,0.007,0.111,0.026,0.166
		c0.055,0.158,0.193,0.273,0.359,0.299c0.202,0.029,0.469,0.047,0.836,0.052c1.222,0.018,1.88-0.696,2.314-1.321
		c0.062-0.09,0.112-0.179,0.148-0.268c0.021-0.05,0.03-0.102,0.033-0.153c0.003-0.09-0.021-0.181-0.069-0.261
		c-0.079-0.122-0.212-0.201-0.358-0.209l-1.56-0.085c-0.134-0.008-0.263,0.045-0.355,0.144l-1.254,1.346
		C21.701,18.585,21.658,18.688,21.654,18.795z M24.188,16.166c-0.002,0.056,0.006,0.112,0.025,0.167
		c0.054,0.158,0.194,0.272,0.36,0.298c0.202,0.03,0.467,0.047,0.835,0.052c1.222,0.019,1.881-0.696,2.315-1.321
		c0.062-0.088,0.111-0.18,0.147-0.269c0.021-0.05,0.031-0.101,0.033-0.151c0.004-0.091-0.021-0.183-0.069-0.26
		c-0.079-0.124-0.211-0.202-0.357-0.21l-1.561-0.086c-0.133-0.007-0.263,0.045-0.354,0.145l-1.254,1.346
		C24.234,15.955,24.194,16.06,24.188,16.166z M26.684,13.522c-0.003,0.057,0.007,0.112,0.025,0.167
		c0.056,0.158,0.193,0.273,0.359,0.298c0.205,0.03,0.47,0.047,0.837,0.052c1.224,0.019,1.879-0.697,2.314-1.321
		c0.063-0.089,0.11-0.179,0.148-0.269c0.02-0.05,0.032-0.101,0.033-0.152c0.004-0.091-0.021-0.181-0.071-0.26
		c-0.075-0.124-0.208-0.201-0.354-0.21l-1.562-0.084c-0.133-0.008-0.264,0.044-0.354,0.142l-1.254,1.348
		C26.73,13.313,26.689,13.417,26.684,13.522z M29.236,11c0.35-0.004,0.972-0.025,1.227-0.121c0.04-0.014,0.077-0.034,0.109-0.057
		c0.283-0.207,0.727-0.879,0.807-1.223c0.076-0.337-0.021-0.802-0.106-1.031c-0.021-0.053-0.044-0.104-0.074-0.151
		c-0.083-0.133-0.229-0.208-0.382-0.208c-0.037,0-0.077,0.004-0.116,0.014c-0.397,0.106-1.146,0.51-1.479,0.852
		c-0.312,0.322-0.402,0.811-0.441,1.445c-0.009,0.127,0.037,0.249,0.124,0.341C28.989,10.949,29.107,11,29.23,11
		C29.232,11,29.233,11,29.236,11z"/>
</g>
</svg>
