<?xml version="1.0" encoding="utf-8"?>
<!-- Generator: Adobe Illustrator 16.0.0, SVG Export Plug-In . SVG Version: 6.00 Build 0)  -->
<!DOCTYPE svg PUBLIC "-//W3C//DTD SVG 1.1//EN" "http://www.w3.org/Graphics/SVG/1.1/DTD/svg11.dtd">
<svg version="1.1" id="Layer_1" xmlns="http://www.w3.org/2000/svg" xmlns:xlink="http://www.w3.org/1999/xlink" x="0px" y="0px"
	 width="40px" height="23px" viewBox="0 0 40 23" enable-background="new 0 0 40 23" xml:space="preserve">
<linearGradient id="SVGID_1_" gradientUnits="userSpaceOnUse" x1="32.9902" y1="2.3711" x2="39" y2="2.3711">
	<stop  offset="0" style="stop-color:#CDB8AB"/>
	<stop  offset="1" style="stop-color:#553E31"/>
</linearGradient>
<path fill="url(#SVGID_1_)" stroke="#553E31" stroke-miterlimit="10" d="M32.99,4.242c3.319,0,6.01-0.838,6.01-1.871
	S36.31,0.5,32.99,0.5"/>
<path fill="#CDB8AB" d="M31.99,23H0.516c-0.209,0-0.397-0.123-0.477-0.311c-0.08-0.188-0.034-0.404,0.114-0.546l8.56-8.148
	l-8.56-8.142C0.005,5.711-0.041,5.495,0.039,5.307c0.079-0.188,0.268-0.311,0.477-0.311H31.99V23z"/>
<g>
	<defs>
		<path id="XMLID_8_" d="M32.99,4.242h-32l8.306,8.148c0.199,0.195,0.199,0.512,0,0.707L0.99,21.246h32
			c3.319,0,6.01-0.838,6.01-1.871V2.371C39,3.404,36.31,4.242,32.99,4.242z"/>
	</defs>
	<linearGradient id="XMLID_2_" gradientUnits="userSpaceOnUse" x1="31.4277" y1="11.8086" x2="39.6901" y2="11.8086">
		<stop  offset="0" style="stop-color:#CDB8AB"/>
		<stop  offset="1" style="stop-color:#FFFCF5"/>
	</linearGradient>
	<use xlink:href="#XMLID_8_"  overflow="visible" fill="url(#XMLID_2_)"/>
	<clipPath id="XMLID_3_">
		<use xlink:href="#XMLID_8_"  overflow="visible"/>
	</clipPath>
	<use xlink:href="#XMLID_8_"  overflow="visible" fill="none" stroke="#553E31" stroke-linejoin="round" stroke-miterlimit="10"/>
</g>
<g>
	<defs>
		<path id="SVGID_3_" d="M2.214,20.746H32.99c3.635,0,5.51-0.961,5.51-1.371V3.715c-1.233,0.699-3.425,1.027-5.51,1.027H2.214
			l7.433,7.292c0.192,0.188,0.299,0.441,0.299,0.71s-0.106,0.521-0.3,0.711L2.214,20.746z"/>
	</defs>
	<clipPath id="SVGID_2_">
		<use xlink:href="#SVGID_3_"  overflow="visible"/>
	</clipPath>
	<linearGradient id="SVGID_4_" gradientUnits="userSpaceOnUse" x1="31.4277" y1="11.9756" x2="39.6901" y2="11.9756">
		<stop  offset="0" style="stop-color:#EBE0D5"/>
		<stop  offset="1" style="stop-color:#FFFCF5"/>
	</linearGradient>
	<path clip-path="url(#SVGID_2_)" fill="url(#SVGID_4_)" d="M32.99,9.657h-32v6.508h32c3.319,0,6.01-0.838,6.01-1.871V7.786
		C39,8.819,36.31,9.657,32.99,9.657z"/>
</g>
</svg>
