<?xml version="1.0" encoding="utf-8"?>
<!-- Generator: Adobe Illustrator 16.0.0, SVG Export Plug-In . SVG Version: 6.00 Build 0)  -->
<!DOCTYPE svg PUBLIC "-//W3C//DTD SVG 1.1//EN" "http://www.w3.org/Graphics/SVG/1.1/DTD/svg11.dtd">
<svg version="1.1" id="Layer_1" xmlns="http://www.w3.org/2000/svg" xmlns:xlink="http://www.w3.org/1999/xlink" x="0px" y="0px"
	 width="32px" height="32px" viewBox="0 0 32 32" enable-background="new 0 0 32 32" xml:space="preserve">
<g>
	
		<path fill="#CDB8AB" stroke="#553E31" stroke-width="1.7522" stroke-linecap="round" stroke-linejoin="round" stroke-miterlimit="10" d="
		M22.851,7.12c-0.958-1.251-1.746-1.392-2.979-1.27c-2.237,0.219-4.279,1.385-6.493,0.97C11.621,6.491,9.99,5.692,8.202,5.5
		C6.41,5.311,4.599,6.49,2.834,7.382c-1.586,0.804-2.611,2.739-1.522,4.688c0.775,1.391,2.026,2.289,2.91,3.59
		c0.805,1.184,0.996,2.129,1.06,3.859c0.054,1.502-0.745,3.977-0.289,5.17c0.561,1.469,2.79,1.104,3.851,1.043
		c1.83-0.109,3.698-0.816,5.522-0.936c0.816-0.055,1.662-0.146,2.431,0.135c0.77,0.281,1.347,0.977,2.071,1.367
		c1.463,0.787,2.512-0.717,3.91-1.438c1.057-0.545,2.048,0.141,2.993,0.486c1.371,0.504,3.158,0.059,4.333-1.537
		c3.518-4.789-2.975-5.539-3.831-8.258c-0.663-2.104,0.633-3.97,0.507-5.996c-0.173-2.779-1.25-2.041-2.608-2.167
		C23.835,7.357,23.084,7.426,22.851,7.12z"/>
	<g>
		<path fill="#553E31" d="M12.743,18.578l1.859-0.205c0.045,0.379,0.164,0.659,0.355,0.842c0.191,0.182,0.444,0.273,0.759,0.273
			c0.396,0,0.734-0.183,1.012-0.547c0.278-0.365,0.456-1.121,0.533-2.27c-0.483,0.561-1.087,0.84-1.812,0.84
			c-0.789,0-1.469-0.304-2.041-0.912s-0.858-1.4-0.858-2.375c0-1.017,0.302-1.836,0.906-2.458s1.373-0.933,2.307-0.933
			c1.016,0,1.85,0.393,2.502,1.179s0.978,2.079,0.978,3.88c0,1.832-0.339,3.153-1.019,3.965c-0.679,0.811-1.563,1.217-2.652,1.217
			c-0.784,0-1.417-0.209-1.9-0.626S12.879,19.408,12.743,18.578z M17.09,14.381c0-0.619-0.143-1.1-0.427-1.441
			s-0.614-0.514-0.988-0.514c-0.355,0-0.65,0.141-0.885,0.421s-0.352,0.739-0.352,1.378c0,0.646,0.127,1.121,0.383,1.425
			s0.574,0.454,0.957,0.454c0.369,0,0.68-0.146,0.933-0.438C16.964,15.375,17.09,14.946,17.09,14.381z"/>
	</g>
</g>
</svg>
