<?xml version="1.0" encoding="utf-8"?>
<!-- Generator: Adobe Illustrator 16.0.0, SVG Export Plug-In . SVG Version: 6.00 Build 0)  -->
<!DOCTYPE svg PUBLIC "-//W3C//DTD SVG 1.1//EN" "http://www.w3.org/Graphics/SVG/1.1/DTD/svg11.dtd">
<svg version="1.1" id="Layer_1" xmlns="http://www.w3.org/2000/svg" xmlns:xlink="http://www.w3.org/1999/xlink" x="0px" y="0px"
	 width="32px" height="32px" viewBox="0 0 32 32" enable-background="new 0 0 32 32" xml:space="preserve">
<g>
	
		<path fill="#CDB8AB" stroke="#553E31" stroke-width="1.7522" stroke-linecap="round" stroke-linejoin="round" stroke-miterlimit="10" d="
		M22.852,7.12c-0.958-1.251-1.746-1.392-2.979-1.27c-2.237,0.219-4.278,1.385-6.493,0.97C11.621,6.491,9.99,5.692,8.201,5.5
		C6.41,5.311,4.6,6.49,2.834,7.382c-1.586,0.804-2.611,2.739-1.522,4.688c0.775,1.391,2.026,2.289,2.909,3.59
		c0.805,1.184,0.996,2.129,1.061,3.859c0.055,1.502-0.744,3.977-0.289,5.17c0.562,1.469,2.791,1.104,3.852,1.043
		c1.83-0.109,3.698-0.816,5.522-0.936c0.816-0.055,1.662-0.146,2.431,0.135c0.77,0.281,1.348,0.977,2.071,1.367
		c1.463,0.787,2.512-0.717,3.909-1.438c1.057-0.545,2.049,0.141,2.993,0.486c1.37,0.504,3.157,0.059,4.333-1.537
		c3.518-4.789-2.975-5.539-3.831-8.258c-0.663-2.104,0.633-3.97,0.507-5.996c-0.174-2.779-1.25-2.041-2.607-2.167
		C23.835,7.357,23.084,7.426,22.852,7.12z"/>
	<g>
		<path fill="#553E31" d="M12.633,18.236l1.859-0.225c0.06,0.474,0.219,0.836,0.479,1.086c0.26,0.251,0.574,0.377,0.943,0.377
			c0.396,0,0.73-0.15,1.002-0.451s0.406-0.707,0.406-1.217c0-0.483-0.129-0.866-0.389-1.148c-0.26-0.283-0.577-0.424-0.951-0.424
			c-0.246,0-0.539,0.047-0.881,0.143l0.211-1.564c0.52,0.014,0.916-0.1,1.189-0.339s0.41-0.558,0.41-0.954
			c0-0.337-0.1-0.605-0.301-0.807c-0.2-0.2-0.467-0.301-0.799-0.301c-0.328,0-0.609,0.114-0.842,0.342
			c-0.232,0.229-0.373,0.561-0.424,0.998l-1.77-0.301c0.123-0.605,0.309-1.09,0.557-1.452s0.595-0.647,1.039-0.854
			s0.942-0.311,1.494-0.311c0.943,0,1.699,0.301,2.27,0.902c0.469,0.492,0.703,1.048,0.703,1.668c0,0.879-0.48,1.581-1.441,2.105
			c0.574,0.123,1.033,0.398,1.377,0.826c0.344,0.429,0.516,0.946,0.516,1.553c0,0.879-0.32,1.629-0.963,2.248
			c-0.643,0.62-1.443,0.93-2.4,0.93c-0.906,0-1.658-0.26-2.256-0.782C13.075,19.762,12.729,19.08,12.633,18.236z"/>
	</g>
</g>
</svg>
