<?xml version="1.0" encoding="utf-8"?>
<!-- Generator: Adobe Illustrator 16.0.0, SVG Export Plug-In . SVG Version: 6.00 Build 0)  -->
<!DOCTYPE svg PUBLIC "-//W3C//DTD SVG 1.1//EN" "http://www.w3.org/Graphics/SVG/1.1/DTD/svg11.dtd">
<svg version="1.1" id="Layer_1" xmlns="http://www.w3.org/2000/svg" xmlns:xlink="http://www.w3.org/1999/xlink" x="0px" y="0px"
	 width="32px" height="32px" viewBox="0 0 32 32" enable-background="new 0 0 32 32" xml:space="preserve">
<g>
	
		<path fill="#CDB8AB" stroke="#553E31" stroke-width="1.7522" stroke-linecap="round" stroke-linejoin="round" stroke-miterlimit="10" d="
		M22.851,7.12c-0.958-1.251-1.746-1.392-2.979-1.27c-2.237,0.219-4.279,1.385-6.493,0.97C11.621,6.491,9.99,5.692,8.202,5.5
		C6.41,5.311,4.599,6.49,2.834,7.382c-1.586,0.804-2.611,2.739-1.522,4.688c0.775,1.391,2.026,2.289,2.91,3.59
		c0.805,1.184,0.996,2.129,1.06,3.859c0.054,1.502-0.745,3.977-0.289,5.17c0.561,1.469,2.79,1.104,3.851,1.043
		c1.83-0.109,3.698-0.816,5.522-0.936c0.816-0.055,1.662-0.146,2.431,0.135c0.77,0.281,1.347,0.977,2.071,1.367
		c1.463,0.787,2.512-0.717,3.91-1.438c1.057-0.545,2.048,0.141,2.993,0.486c1.371,0.504,3.158,0.059,4.333-1.537
		c3.518-4.789-2.975-5.539-3.831-8.258c-0.663-2.104,0.633-3.97,0.507-5.996c-0.173-2.779-1.25-2.041-2.608-2.167
		C23.835,7.357,23.084,7.426,22.851,7.12z"/>
	<g>
		<path fill="#553E31" d="M19.209,13.328l-1.859,0.205c-0.045-0.383-0.164-0.665-0.355-0.848c-0.191-0.182-0.44-0.273-0.745-0.273
			c-0.406,0-0.749,0.183-1.029,0.547c-0.28,0.365-0.457,1.124-0.53,2.277c0.479-0.565,1.073-0.848,1.784-0.848
			c0.802,0,1.489,0.305,2.061,0.916c0.572,0.61,0.858,1.398,0.858,2.365c0,1.025-0.301,1.848-0.902,2.467
			c-0.602,0.62-1.374,0.93-2.317,0.93c-1.012,0-1.843-0.393-2.495-1.179s-0.978-2.075-0.978-3.866c0-1.836,0.339-3.16,1.019-3.971
			c0.679-0.812,1.561-1.217,2.646-1.217c0.761,0,1.391,0.213,1.89,0.639S19.073,12.518,19.209,13.328z M14.855,17.52
			c0,0.624,0.144,1.105,0.431,1.445s0.615,0.51,0.984,0.51c0.355,0,0.652-0.14,0.889-0.418c0.237-0.277,0.355-0.733,0.355-1.367
			c0-0.651-0.127-1.129-0.383-1.432s-0.574-0.455-0.957-0.455c-0.369,0-0.681,0.145-0.937,0.435S14.855,16.954,14.855,17.52z"/>
	</g>
</g>
</svg>
