<?xml version="1.0" encoding="utf-8"?>
<!-- Generator: Adobe Illustrator 16.0.0, SVG Export Plug-In . SVG Version: 6.00 Build 0)  -->
<!DOCTYPE svg PUBLIC "-//W3C//DTD SVG 1.1//EN" "http://www.w3.org/Graphics/SVG/1.1/DTD/svg11.dtd">
<svg version="1.1" id="Layer_1" xmlns="http://www.w3.org/2000/svg" xmlns:xlink="http://www.w3.org/1999/xlink" x="0px" y="0px"
	 width="32px" height="32px" viewBox="0 0 32 32" enable-background="new 0 0 32 32" xml:space="preserve">
<g>
	
		<path fill="#CDB8AB" stroke="#553E31" stroke-width="1.7522" stroke-linecap="round" stroke-linejoin="round" stroke-miterlimit="10" d="
		M22.851,7.12c-0.958-1.251-1.746-1.392-2.979-1.27c-2.237,0.219-4.279,1.385-6.493,0.97C11.621,6.491,9.99,5.692,8.202,5.5
		C6.41,5.311,4.599,6.49,2.834,7.382c-1.586,0.804-2.611,2.739-1.522,4.688c0.775,1.391,2.026,2.289,2.91,3.59
		c0.805,1.184,0.996,2.129,1.06,3.859c0.054,1.502-0.745,3.977-0.289,5.17c0.561,1.469,2.79,1.104,3.851,1.043
		c1.83-0.109,3.698-0.816,5.522-0.936c0.816-0.055,1.662-0.146,2.431,0.135c0.77,0.281,1.347,0.977,2.071,1.367
		c1.463,0.787,2.512-0.717,3.91-1.438c1.057-0.545,2.048,0.141,2.993,0.486c1.371,0.504,3.158,0.059,4.333-1.537
		c3.518-4.789-2.975-5.539-3.831-8.258c-0.663-2.104,0.633-3.97,0.507-5.996c-0.173-2.779-1.25-2.041-2.608-2.167
		C23.835,7.357,23.084,7.426,22.851,7.12z"/>
	<g>
		<path fill="#553E31" d="M14.424,20.896h-1.921v-7.24c-0.702,0.656-1.529,1.143-2.481,1.457v-1.744
			c0.501-0.164,1.046-0.475,1.634-0.933s0.991-0.992,1.21-1.603h1.559V20.896z"/>
		<path fill="#553E31" d="M19.142,10.834c0.971,0,1.729,0.346,2.276,1.039c0.652,0.82,0.978,2.18,0.978,4.08
			c0,1.896-0.328,3.259-0.984,4.088c-0.542,0.684-1.299,1.025-2.27,1.025c-0.975,0-1.761-0.375-2.358-1.124
			s-0.896-2.086-0.896-4.009c0-1.887,0.328-3.245,0.984-4.074C17.415,11.176,18.171,10.834,19.142,10.834z M19.142,12.426
			c-0.232,0-0.44,0.074-0.622,0.223s-0.324,0.414-0.424,0.797c-0.132,0.496-0.198,1.332-0.198,2.508s0.059,1.984,0.178,2.424
			s0.268,0.732,0.448,0.879c0.18,0.146,0.386,0.219,0.619,0.219s0.44-0.074,0.622-0.223s0.324-0.414,0.424-0.797
			c0.132-0.492,0.198-1.326,0.198-2.502s-0.059-1.982-0.178-2.423s-0.268-0.733-0.448-0.882S19.375,12.426,19.142,12.426z"/>
	</g>
</g>
</svg>
