<?xml version="1.0" encoding="utf-8"?>
<!-- Generator: Adobe Illustrator 16.0.0, SVG Export Plug-In . SVG Version: 6.00 Build 0)  -->
<!DOCTYPE svg PUBLIC "-//W3C//DTD SVG 1.1//EN" "http://www.w3.org/Graphics/SVG/1.1/DTD/svg11.dtd">
<svg version="1.1" id="Layer_1" xmlns="http://www.w3.org/2000/svg" xmlns:xlink="http://www.w3.org/1999/xlink" x="0px" y="0px"
	 width="230px" height="90px" viewBox="0 0 230 90" enable-background="new 0 0 230 90" xml:space="preserve">
<path fill="#2CAAE1" d="M170.372,10.654c-4.074,1.807-8.453,3.028-13.049,3.578c4.69-2.812,8.293-7.265,9.989-12.57
	c-4.39,2.604-9.252,4.495-14.428,5.514C148.74,2.759,142.835,0,136.301,0c-12.548,0-22.721,10.172-22.721,22.72
	c0,1.781,0.201,3.515,0.588,5.178C95.285,26.95,78.543,17.905,67.337,4.159c-1.956,3.355-3.076,7.258-3.076,11.422
	c0,7.883,4.011,14.837,10.108,18.912c-3.725-0.118-7.228-1.14-10.291-2.842c-0.002,0.095-0.002,0.189-0.002,0.286
	c0,11.008,7.832,20.191,18.226,22.279c-1.906,0.519-3.914,0.797-5.986,0.797c-1.464,0-2.887-0.143-4.274-0.408
	C74.932,63.63,83.323,70.2,93.265,70.383c-7.776,6.094-17.572,9.726-28.218,9.726c-1.833,0-3.642-0.107-5.419-0.317
	C69.683,86.238,81.625,90,94.456,90c41.791,0,64.645-34.622,64.645-64.646c0-0.985-0.021-1.965-0.065-2.939
	C163.475,19.211,167.326,15.21,170.372,10.654z"/>
<g>
</g>
<g>
</g>
<g>
</g>
<g>
</g>
<g>
</g>
<g>
</g>
</svg>
