<?xml version="1.0" encoding="utf-8"?>
<!-- Generator: Adobe Illustrator 16.0.0, SVG Export Plug-In . SVG Version: 6.00 Build 0)  -->
<!DOCTYPE svg PUBLIC "-//W3C//DTD SVG 1.1//EN" "http://www.w3.org/Graphics/SVG/1.1/DTD/svg11.dtd">
<svg version="1.1" id="Layer_1" xmlns="http://www.w3.org/2000/svg" xmlns:xlink="http://www.w3.org/1999/xlink" x="0px" y="0px"
	 width="230px" height="90px" viewBox="63.797 -11.104 230 90" enable-background="new 63.797 -11.104 230 90" xml:space="preserve"
	>
<g>
	<g>
		<path fill="#7B0099" d="M126.546,23.24c-1.125,0.112-5.811,1.161-7.385,1.497c-1.687,0.45-17.089,12.349-18.101,15.273
			c-0.225,1.013-0.337,2.568-0.337,4.03l-0.113,2.36c0,1.687,0.468,4.402,0.694,5.863c1.01,0.226,8.341,0.029,9.69,0.255
			l-0.168,3.021c-1.315-0.094-10.623-0.073-15.941-0.073c-2.698,0-11.375,0.298-14.04,0.218l0.503-2.876
			c1.461-0.11,7.515,0.263,8.845-1.142c0.66-0.696,0.45-1.444,0.45-5.489v-1.912c0-0.901,0-2.586-0.226-4.161
			c-0.562-1.688-14.13-18.626-17.615-21.325c-1.009-0.338-7.353-0.972-8.925-1.309l-0.081-2.59
			c0.786-0.393,7.838,0.096,14.681-0.157c4.498-0.167,14.759,0,16.026,0.15l-0.323,2.283c-1.35,0.337-7.849,0.461-9.534,0.911
			c4.385,6.521,11.319,14.917,13.569,18.178c1.236-1.8,12.104-9.279,12.442-11.863c-1.687-0.337-7.272-1.143-8.171-1.143
			l-0.534-2.944c1.529-0.239,9.58,0,13.581,0c3.455,0,10.833,0,12.931,0.172L126.546,23.24z"/>
		<path fill="#7B0099" d="M149.78,54.28c-0.498-0.07-6.129-0.067-8.186-0.067c-1.204,0-7.341-0.038-8.403-0.038l0.319-2.634
			c1.417-0.068,4.056-0.642,5.26-0.783c-0.779-1.772-3.351-7.397-3.918-8.458c-1.489,0-6.84,0.165-8.328,0.45
			c-0.285,0.497-2.317,2.491-2.67,5.181c0.993,0.217,2.895,0.623,4.029,0.765l-0.419,2.69c-1.203-0.069-6.008,0.071-7.143,0
			c-1.063,0-6.002,0.013-6.922,0.154l0.878-2.845c1.134-0.142,3.746-0.954,4.737-1.166c1.488-2.126,8.38-15.598,8.947-16.872
			c-0.922-0.215-2.487-0.954-3.479-1.096l-0.138-1.946c1.206,0.071,7.194,0.25,7.833,0.219c1.422-0.069,6.713-0.043,7.917-0.114
			l-0.445,1.913c-1.064,0.071-2.792,0.588-3.787,0.8c0.498,1.488,2.471,6.285,3.958,9.828c1.135,2.552,3.017,7.551,4.788,10.459
			c1.206,0.212,3.97,1.023,5.244,1.094l0.071,0.709L149.78,54.28z M131.245,31.739l-0.071-0.446
			c-1.275,2.975-3.442,7.653-3.866,8.789l6.979-0.004C133.436,37.879,131.883,33.582,131.245,31.739z"/>
		<path fill="#7B0099" d="M191.288,46.989c-0.976-0.076-5.681-0.067-8.084,0c-1.93,0.055-6.511-0.175-8.691-0.081l-0.168-2.672
			c0.752-0.076,5.442-0.395,6.347-0.544c0.3-1.43,0.157-3.456,0.157-5.183l-0.118-3.146c-2.406,0-18.307,0.826-18.983,0.902
			l-1.162,0.15c0,4.284,0.225,5.639,0.525,7.219c1.278,0.225,5.865,0.523,6.843,0.676l-0.059,2.913c-1.129-0.075-8.184,0-10.363,0
			c-2.631,0-9.031-0.057-10.533,0.02l0.203-3.009c1.204-0.076,5.752-0.522,6.729-0.675c0.151-1.952,0.227-5.038,0.227-8.269v-3.984
			c0-1.354-0.075-5.263-0.148-6.617c-0.979-0.15-5.526-0.455-6.88-0.527l-0.24-2.277c0.9,0.076,7.179-0.096,10.486-0.096
			c3.083,0,10.072,0.06,10.899-0.016l-0.244,2.39c-1.43,0.073-6.167,0.45-6.994,0.6c-0.226,1.128-0.45,2.106-0.45,5.715
			l-0.112,1.882c1.353,0,18.127-0.067,20.217-0.365v-2.59c0-3.31,0.511-6.884,0.138-7.863c-0.827-0.227-5.309-0.856-6.738-0.931
			l0.2-2.401c0.901,0.076,5.127,0.05,8.284,0.125c3.308,0,8.115,0.137,9.093-0.013l-0.222,1.976
			c-0.979,0.076-5.338,1.179-5.338,1.179s-0.298,2.059-0.079,5.023c0.181,2.461,0.236,7.301,0.236,7.301
			c0.124,5.39,0.457,9.746,0.156,9.971c-0.362,0.271,3.452,0.503,4.505,0.652l0.413,0.716L191.288,46.989z"/>
		<path fill="#7B0099" d="M230.071,34.427c0.356,9.182-8.028,13.738-18.921,13.738c-4.532,0-10.047-0.863-14.758-3.69
			c-3.676-2.205-4.283-5.065-4.283-8.643c0-7.394,8.052-13.523,20.373-13.444c4.69,0,9.213,0.714,12.868,3.564
			c3.26,2.543,3.812,3.806,4.406,6.591L230.071,34.427z M224.025,35.055c0.271-7.6-5.677-9.623-13.189-9.107
			c-3.93,0.271-11.932,2.35-11.932,9.107c0,6.679,6.137,10.295,14.326,9.582c6.337-0.552,9.664-2.885,10.48-6.128L224.025,35.055z"
			/>
		<path fill="#7B0099" d="M285.035,39.914l-4.868-0.472c0.509-2.462,0.065-21.36,0.025-23.377l-0.249-3.97
			c1.354,0.269,1.148,0.127,6.87,0.73c3.486,0.366,3.938,0.521,5.086,0.566l-1.497,4.708
			C289.126,21.864,285.424,38.656,285.035,39.914z M281.673,49.894l-2.607-0.224l-0.027-5.65l3.303,0.413l2.958,0.139l-0.821,5.531
			L281.673,49.894z"/>
		<path fill="#7B0099" d="M275.731,30.696c0.644,8.598-9.282,15.743-21.718,15.743c-5.174,0-9.578-0.629-14.682-4.004
			c-4.195-2.776-6.2-5.182-6.724-9.919c-0.928-8.39,9.191-15.439,23.259-15.349c5.355,0,10.517,0.814,14.69,4.069
			c3.723,2.904,4.374,5.656,5.053,8.835L275.731,30.696z M269.245,31.916c0.516-8.258-7.439-11.266-16.016-10.677
			c-4.489,0.307-12.876,2.962-12.876,10.677c0,7.622,7.018,11.467,16.369,10.652c7.233-0.632,10.247-3.352,11.892-7.04
			C268.614,35.528,269.088,34.427,269.245,31.916z"/>
		<path fill="#7B0099" d="M291.037,44.62c1.497,0,2.76,1.187,2.76,2.761c0,1.569-1.263,2.755-2.76,2.755
			c-1.505,0-2.759-1.185-2.759-2.755C288.278,45.806,289.532,44.62,291.037,44.62z M291.037,49.736c1.26,0,2.27-1.022,2.27-2.355
			c0-1.337-1.01-2.359-2.27-2.359c-1.269,0-2.269,1.022-2.269,2.359C288.768,48.713,289.768,49.736,291.037,49.736z M289.983,45.76
			h1.216c0.766,0,1.127,0.305,1.127,0.922c0,0.585-0.37,0.829-0.853,0.881l0.928,1.424h-0.526l-0.876-1.386h-0.526v1.386h-0.489
			V45.76L289.983,45.76z M290.472,47.2h0.505c0.438,0,0.861-0.021,0.861-0.542c0-0.443-0.388-0.496-0.721-0.496h-0.646V47.2
			L290.472,47.2z"/>
	</g>
</g>
</svg>
