<?xml version="1.0" encoding="utf-8"?>
<!-- Generator: Adobe Illustrator 16.0.0, SVG Export Plug-In . SVG Version: 6.00 Build 0)  -->
<!DOCTYPE svg PUBLIC "-//W3C//DTD SVG 1.1//EN" "http://www.w3.org/Graphics/SVG/1.1/DTD/svg11.dtd">
<svg version="1.1" id="Layer_1" xmlns="http://www.w3.org/2000/svg" xmlns:xlink="http://www.w3.org/1999/xlink" x="0px" y="0px"
	 width="91px" height="31px" viewBox="0 0 91 31" enable-background="new 0 0 91 31" xml:space="preserve">
<path fill="none" stroke="#CDB8AB" stroke-width="2" stroke-miterlimit="10" d="M90,24.959c0,2.763-1.238,5.001-5,5.001H28.679H6H1
	V0.04"/>
<path fill="#EBDFD5" d="M6,30h23.679H86c2.762,0,5-2.238,5-5V5c0-2.762-2.238-5-5-5H29.679H6H1v5v20v5H6z"/>
<g>
	<g>
		<path fill="#563F32" d="M41.792,18.934l-0.033-0.86c-0.1-1.685,0.463-3.403,1.952-5.188c1.057-1.256,1.916-2.313,1.916-3.438
			c0-1.156-0.76-1.916-2.412-1.983c-1.092,0-2.412,0.397-3.273,0.992l-1.123-3.602c1.189-0.694,3.174-1.355,5.52-1.355
			c4.361,0,6.345,2.412,6.345,5.155c0,2.512-1.554,4.165-2.808,5.552c-1.224,1.354-1.721,2.644-1.688,4.132v0.595H41.792z
			 M40.934,23.493c0-1.752,1.222-3.007,2.94-3.007c1.785,0,2.94,1.255,2.975,3.007c0,1.72-1.189,3.007-2.975,3.007
			C42.123,26.5,40.934,25.213,40.934,23.493z"/>
	</g>
</g>
</svg>
