<?xml version="1.0" encoding="utf-8"?>
<!-- Generator: Adobe Illustrator 16.0.0, SVG Export Plug-In . SVG Version: 6.00 Build 0)  -->
<!DOCTYPE svg PUBLIC "-//W3C//DTD SVG 1.1//EN" "http://www.w3.org/Graphics/SVG/1.1/DTD/svg11.dtd">
<svg version="1.1" id="Layer_1" xmlns="http://www.w3.org/2000/svg" xmlns:xlink="http://www.w3.org/1999/xlink" x="0px" y="0px"
	 width="32px" height="32px" viewBox="0 0 32 32" enable-background="new 0 0 32 32" xml:space="preserve">
<g>
	<path fill="#553E31" d="M18.33,17.681l-4.108,2.155c0.009-0.013,0.853-1.102,0.853-1.102l-1.257-0.481
		c-1.264-0.484-1.829-0.93-2.014-1.1l-0.398-0.365l-0.524,0.134c-0.538,0.137-2.505,0.665-5.221,1.688
		c-0.048,0.018-0.094,0.035-0.138,0.051c1.032-1.153,2.134-2.196,3.326-3.154L9.74,14.79L1.197,6.689
		c0.104-0.034,0.244-0.071,0.428-0.105L2.27,6.462L2.387,5.95c0.041-0.007,0.119-0.022,0.23-0.029
		C3.593,6.492,4.82,7.254,5.484,7.765c0.778,0.598,4.75,3.167,7.049,4.644l0.487,0.313l0.514-0.268
		c3.645-1.894,6.88-2.602,8.261-2.904l0.894-0.206l0.205-0.443c0.044-0.096,1.108-2.347,3.196-2.347
		c1.433,0,1.923,0.724,2.067,1.035l0.206,0.445l0.108,0.025c-0.759,0.498-0.945,1.762-0.986,2.514
		c-0.119,2.17-1.279,4.03-2.232,5.208c-1.306,1.613-2.678,2.243-3.78,2.748l-0.11,0.051c-0.644,0.295-2.889,0.775-3.369,0.803
		l-0.247,0.013l-0.803,0.48L18.33,17.681z"/>
	<path fill="#553E31" d="M26.091,7.555c0.728,0,1.011,0.23,1.118,0.383c-0.499,0.745-0.675,1.74-0.722,2.582
		c-0.109,2.003-1.307,3.762-2.011,4.632c-1.158,1.432-2.36,1.983-3.42,2.468l-0.11,0.051c-0.271,0.125-1.03,0.321-1.729,0.478
		l1.944-3.083l-5.431,2.85l-1.556-0.597c-1.164-0.445-1.616-0.829-1.695-0.901l-0.798-0.732l-1.049,0.268
		c-0.199,0.051-0.587,0.153-1.132,0.313l1.759-1.413l-1.662-1.576L3.924,7.897c0.369,0.241,0.703,0.47,0.95,0.66
		c0.767,0.589,4.294,2.877,7.118,4.693l0.975,0.626l1.029-0.535c3.526-1.833,6.67-2.521,8.022-2.817l0.132-0.029l0.293-0.066
		l0.949-0.223l0.409-0.885C24.029,8.83,24.883,7.555,26.091,7.555 M2.732,4.917c-0.305,0-0.857,0.051-1.143,0.388
		C1.516,5.393,1.465,5.493,1.44,5.601C0.257,5.823,0.1,6.224,0.045,6.361c-0.068,0.17-0.094,0.44,0.191,0.795l7.984,7.571
		c-1.236,0.993-2.39,2.085-3.416,3.238c-0.505,0.488-1.068,1.165-0.883,1.621c0.05,0.125,0.196,0.335,0.609,0.335
		c0.322,0,0.807-0.123,1.48-0.376c2.646-0.997,4.553-1.512,5.115-1.655c0.271,0.249,0.947,0.766,2.332,1.296
		c-0.505,0.652-0.818,1.079-0.934,1.265c-0.178,0.286-0.145,0.435-0.002,0.661c0.123,0.197,0.41,0.656,0.757,2.295
		c0.38,1.804,0.453,2.496,0.462,2.747c-0.051-0.001-0.104-0.006-0.154-0.006c-0.978,0-1.226,0.122-1.406,0.282
		c-0.184,0.159-0.242,0.407-0.153,0.487c0.089,0.079,4.453,0.396,4.453,0.396s0.275,0.026,0.432,0.026
		c0.154,0,0.253-0.04,0.315-0.094l3.033,0.068c0,0,0.144-0.208,0.133-0.368c-0.009-0.159-0.255-0.301-0.5-0.348
		c0,0,1.058-0.079,1.096-0.188c0.041-0.109-0.555-0.458-0.555-0.458c-0.269-0.059-0.612-0.082-0.965-0.082
		c-0.488,0-0.995,0.044-1.351,0.095c-0.263-0.78-0.93-2.781-1.142-3.585c-0.188-0.714,0.046-1.266,0.136-1.441l0.935-0.559
		c0.586-0.032,2.956-0.536,3.732-0.893c1.156-0.531,2.75-1.225,4.25-3.078c1.123-1.388,2.325-3.441,2.453-5.781
		c0.021-0.386,0.187-1.602,0.583-1.758c0.544-0.214,1.863-0.666,1.876-0.671L32,7.838l-2.935-0.669
		c-0.212-0.457-0.948-1.614-2.975-1.614c-2.278,0-3.669,1.985-4.104,2.928c-0.112,0.026-0.247,0.056-0.404,0.091
		c-1.432,0.313-4.759,1.046-8.508,2.994c-1.963-1.262-6.215-4.007-6.98-4.596C5.056,6.174,3.043,5.01,2.959,4.961L2.892,4.924
		L2.732,4.917L2.732,4.917z M14.97,25.913c-0.245-0.894-0.757-2.767-0.915-3.541c-0.15-0.724,0.115-1.262,0.215-1.433l1.229-0.645
		c-0.068,0.108-0.119,0.191-0.152,0.252c-0.161,0.297-0.119,0.443,0.033,0.661c0.135,0.189,0.447,0.631,0.883,2.248
		c0.332,1.23,0.486,1.938,0.56,2.343l-0.179-0.03c-0.117-0.019-0.245-0.028-0.384-0.028C15.904,25.74,15.476,25.8,14.97,25.913
		L14.97,25.913z M16.176,26.473c-0.003,0-0.006,0-0.008-0.001l0.04-0.007C16.198,26.468,16.186,26.471,16.176,26.473L16.176,26.473z
		"/>
</g>
<circle fill="#EBE0D5" cx="26.356" cy="7.579" r="0.742"/>
</svg>
