<?xml version="1.0" encoding="utf-8"?>
<!-- Generator: Adobe Illustrator 16.0.0, SVG Export Plug-In . SVG Version: 6.00 Build 0)  -->
<!DOCTYPE svg PUBLIC "-//W3C//DTD SVG 1.1//EN" "http://www.w3.org/Graphics/SVG/1.1/DTD/svg11.dtd">
<svg version="1.1" xmlns="http://www.w3.org/2000/svg" xmlns:xlink="http://www.w3.org/1999/xlink" x="0px" y="0px" width="32px"
	 height="32px" viewBox="0 0 32 32" enable-background="new 0 0 32 32" xml:space="preserve">
<g id="Layer_1">
	<g>
		<path fill="#553E31" d="M0.383,15.873c-0.006-0.07-0.014-0.146-0.02-0.225c-0.096-1.127-0.273-3.229,0.162-4.619
			c0.123-0.395,0.262-0.855,0.395-1.299c0.135-0.451,0.264-0.883,0.367-1.207c0.271-1.131,0.834-2.281,2.117-2.439
			C4.301,5.975,5.854,5.83,6.9,6.16c1.047,0.334,1.692,0.639,3.027,0.666c1.336,0.025,6.547,0.025,7.637-0.076
			c1.092-0.104,2.828-0.256,3.652-0.23s1.848,0.561,2.427,0.512c0.579-0.053,0.802-0.486,1.024-0.768s0.445-0.281,0.867-0.281
			c0.424,0,0.469,0.076,0.914-0.484c0.445-0.563,0.823-1.074,1.559-0.766c0.734,0.305,1.477,0.879,1.68,1.082
			c0.422-0.281,0.434-0.186,0.813-0.109c0.379,0.078,0.652,0.699,0.252,0.93s-0.262,0.131-0.5,0.191
			c-0.237,0.059-0.424,0.281-0.386,0.408c0.037,0.127,0.216,0.537,0.608,1.08c0.404,0.561,0.982,1.219,1.273,1.627
			c0.289,0.408,0.412,1.053-0.09,1.43c-0.419,0.316-0.387,0.612-1.184,0.443c-0.813-0.172-1.566,0.188-2.297,0.203
			c-0.526,0.012-1.093-0.455-1.484,0.703c-0.309,0.912-1.202,2.328-1.604,3.709c-0.4,1.379-1.201,2.963-3.25,3.141
			c-0.066,1.328,0.018,2.221,0.129,2.885c0.08,0.478,0.57,2.552,0.887,3.412c0.244,0.246,0.431,0.583,0.494,0.715
			c0.188,0.391-0.967,0.322-1.324,0.246c-0.118-0.081-0.062-0.275-0.119-0.498c-0.039-0.152-0.207-0.34-0.219-0.422
			c-0.027-0.189-0.531-2.094-0.641-2.625c-0.781-1.75-0.563-2.016-0.609-2.219c-0.03-0.131-0.615,2.109-0.66,2.494
			c-0.045,0.383,0.045,1.174-0.021,1.531c-0.067,0.357-0.023,0.793,0.133,0.971c0.156,0.18,0.512,0.537,0.512,0.92
			s-1.283-0.086-1.551-0.162s-0.192-0.893-0.192-0.893s-0.118-0.215-0.111-0.367c0.028-0.588,0.047-1.231,0.118-1.771
			c0.186-1.408-0.23-2.66-0.242-3.754c-0.005-0.457,0.254-1.092,0.234-1.234c-0.066-0.484-0.111-0.479-0.313-0.506
			c-0.199-0.025-1.78-0.205-3.027,0.076c-1.246,0.281-3.385,0.996-5.321-0.254c-1.313,1.021-1.425,1.633-3.474,1.379
			c-0.244,0.74-0.556,1.201-0.756,1.736c-0.201,0.537,0.021,1.764,0.267,2.504s0.223,1.967,0.624,2.299
			c0.4,0.332,1.046,1.326,1.046,1.326s-1.38,0.027-1.581-0.178c-0.2-0.205-0.133-0.588-0.289-0.74s-0.289,0.025-0.379-0.256
			c-0.089-0.281-0.689-2.17-0.779-2.783c-0.089-0.613-0.223-1.277-0.512-1.738c-0.289-0.459-0.49-1.021-0.4-1.506
			c0.088-0.486,0.512-1.227,0.334-1.609c-0.179-0.383-0.334-0.281-0.646,0.307c-0.313,0.588-1.069,2.887-1.202,3.627
			c-0.134,0.74-0.357,2.657-0.268,2.911c0.089,0.256,0.579,0.357,0.734,0.818c0.156,0.459,0.156,0.459,0.156,0.459
			s-1.266,0.219-1.426-0.102c-0.178-0.357-0.267-0.895-0.378-0.971s-0.137-0.273-0.183-0.375c-0.044-0.102,0.273-2.501,0.18-3.507
			c-0.104-1.107-0.031-2.758-0.134-3.219c-0.118-0.518,0.383-1.438,0.578-2.332c-0.024-2.211-0.323-3.645-0.446-4.713
			c-0.322,1.25-0.16,3.178-0.078,4.127c0.027,0.322,0.045,0.535,0.042,0.658c-0.001,0.018-0.077,1.602-0.575,1.658
			c-0.012,0.002-0.023,0.002-0.034,0.002c-0.14,0-0.29-0.102-0.339-0.34C0.047,17.408-0.199,16.121,0.383,15.873z"/>
		<g>
			<path fill="#553E31" d="M8.813,18.979c0.072,0.24,0.231,1.148-0.151,1.221c-0.339,0.064-0.614-0.51-0.643-0.867"/>
		</g>
		<g>
			<path fill="#553E31" d="M7.613,19.305c0.024,0.367,0.001,1.002-0.319,1.074c-0.319,0.074-0.456-0.568-0.4-1.027"/>
		</g>
		<g>
			<ellipse fill="#EBE0D5" cx="28.003" cy="7.669" rx="0.562" ry="0.612"/>
		</g>
	</g>
</g>
<g id="Layer_3">
</g>
</svg>
