<?xml version="1.0" encoding="utf-8"?>
<!-- Generator: Adobe Illustrator 16.0.0, SVG Export Plug-In . SVG Version: 6.00 Build 0)  -->
<!DOCTYPE svg PUBLIC "-//W3C//DTD SVG 1.1//EN" "http://www.w3.org/Graphics/SVG/1.1/DTD/svg11.dtd">
<svg version="1.1" id="Mineral" xmlns="http://www.w3.org/2000/svg" xmlns:xlink="http://www.w3.org/1999/xlink" x="0px" y="0px"
	 width="32px" height="32px" viewBox="0 0 32 32" enable-background="new 0 0 32 32" xml:space="preserve">
<path fill="#EBE0D5" stroke="#553E31" stroke-width="2.2224" stroke-linejoin="round" stroke-miterlimit="10" d="M30.697,26.496
	c0,0-5.984-1.133-8.08-1.447c-2.098-0.314-4.814,0.855-7.673,0.9s-6.636-0.924-9.053-1.35c-3.12-0.549-4.841,1.119-4.841,1.119
	s-0.431-5.633,1.856-5.859c0.953-0.225,2.698-4.377,2.698-4.377s1.525-2.43,2.191-3.554c0.668-1.125,5.146-2.655,5.146-2.655
	s1.523-3.685,2.859-3.505c1.334,0.181,3.279,1.273,3.852,1.678c0.57,0.405,2.143,0.301,3.668,0.917c1.523,0.617-0.049,2.534,2,4.229
	c2.049,1.695,3.125,3.881,3.125,3.881c1.719,2.351,0.5,4.101,0.861,4.748C29.785,22.076,31.697,26.137,30.697,26.496z"/>
<path fill="#553E31" d="M15.296,19.652c0,0-0.009,0.008-0.024,0.023c-0.146,0.133-0.902,0.838-1.086,1.211
	c-0.201,0.414,0.902,1.277,0.902,1.277l0.95-1.09L15.296,19.652z"/>
<path fill="#553E31" d="M17.459,9.13c0,0-0.012,0.003-0.033,0.009C17.23,9.19,16.201,9.466,15.857,9.72
	c-0.383,0.28,0.215,1.605,0.215,1.605l1.387-0.535V9.13z"/>
<path fill="#553E31" d="M25.031,17.118c0,0-0.01-0.006-0.031-0.018c-0.189-0.104-1.188-0.644-1.652-0.689
	c-0.514-0.053-1.146,1.498-1.146,1.498L23.68,18.5L25.031,17.118z"/>
<path fill="#553E31" d="M11.072,19.791c0,0-0.004,0.014-0.013,0.039c-0.07,0.234-0.438,1.463-0.407,1.969
	c0.035,0.559,1.672,0.701,1.672,0.701l0.341-1.752L11.072,19.791z"/>
<path fill="#553E31" d="M18.936,14.938c0,0-0.01,0.004-0.033,0.011c-0.193,0.07-1.213,0.441-1.555,0.78
	c-0.377,0.376,0.215,2.152,0.215,2.152l1.373-0.717V14.938z"/>
<path fill="#553E31" d="M15.729,14.772c0,0-0.013-0.009-0.036-0.029c-0.215-0.169-1.347-1.046-1.895-1.208
	c-0.607-0.181-1.517,1.542-1.517,1.542l1.696,1.051L15.729,14.772z"/>
<path fill="none" stroke="#553E31" stroke-width="1.3419" stroke-miterlimit="10" d="M10.65,15.479c0,0-1.815,2.102-1.989,2.654
	c-0.175,0.555-0.305,2.775-0.305,2.775"/>
<path fill="none" stroke="#553E31" stroke-width="1.3419" stroke-miterlimit="10" d="M22.619,15.264c0,0-0.848-2.653-1.229-3.088
	c-0.381-0.436-2.201-1.693-2.201-1.693"/>
<path fill="none" stroke="#553E31" stroke-width="1.6904" stroke-miterlimit="10" d="M26.439,23.072c0,0-3.104-1.719-3.871-1.818
	c-0.771-0.1-3.768,0.164-3.768,0.164"/>
</svg>
