<?xml version="1.0" encoding="utf-8"?>
<!-- Generator: Adobe Illustrator 16.0.0, SVG Export Plug-In . SVG Version: 6.00 Build 0)  -->
<!DOCTYPE svg PUBLIC "-//W3C//DTD SVG 1.1//EN" "http://www.w3.org/Graphics/SVG/1.1/DTD/svg11.dtd">
<svg version="1.1" xmlns="http://www.w3.org/2000/svg" xmlns:xlink="http://www.w3.org/1999/xlink" x="0px" y="0px" width="32px"
	 height="32px" viewBox="0 0 32 32" enable-background="new 0 0 32 32" xml:space="preserve">
<g id="Layer_1">
	<g>
		<path fill="#EBE0D5" stroke="#553E31" stroke-width="1.336" stroke-linejoin="round" stroke-miterlimit="10" d="M29.162,25.183
			c0,0-5.359-1.003-7.236-1.282c-1.878-0.277-4.312,0.758-6.871,0.798c-2.56,0.039-5.943-0.818-8.107-1.196
			c-2.795-0.486-4.336,0.991-4.336,0.991s-0.385-4.988,1.663-5.189c0.854-0.198,2.416-3.876,2.416-3.876s1.366-2.151,1.963-3.148
			c0.599-0.996,4.609-2.352,4.609-2.352s1.364-3.264,2.562-3.104c1.194,0.16,2.936,1.127,3.448,1.486
			c0.511,0.358,1.92,0.267,3.286,0.812c1.363,0.546-0.045,2.245,1.79,3.747c1.835,1.501,2.799,3.437,2.799,3.437
			c1.54,2.083,0.448,3.633,0.771,4.205C28.346,21.268,30.059,24.864,29.162,25.183z"/>
		<path fill="#553E31" d="M15.37,19.12c0,0-0.008,0.008-0.022,0.021c-0.132,0.117-0.809,0.742-0.973,1.072
			c-0.181,0.367,0.809,1.131,0.809,1.131l0.851-0.964L15.37,19.12z"/>
		<path fill="#553E31" d="M17.307,9.801c0,0-0.011,0.003-0.03,0.008c-0.175,0.046-1.096,0.29-1.403,0.515
			c-0.344,0.248,0.191,1.421,0.191,1.421l1.242-0.474V9.801z"/>
		<path fill="#553E31" d="M24.088,16.876c0,0-0.009-0.005-0.027-0.016c-0.17-0.092-1.064-0.57-1.48-0.61
			c-0.46-0.047-1.026,1.326-1.026,1.326l1.324,0.523L24.088,16.876z"/>
		<path fill="#553E31" d="M11.587,19.244c0,0-0.003,0.012-0.012,0.034c-0.063,0.208-0.393,1.296-0.365,1.744
			c0.033,0.495,1.498,0.621,1.498,0.621l0.306-1.552L11.587,19.244z"/>
		<path fill="#553E31" d="M18.63,14.945c0,0-0.01,0.004-0.03,0.01c-0.173,0.062-1.086,0.391-1.394,0.691
			c-0.336,0.333,0.193,1.906,0.193,1.906l1.23-0.635V14.945z"/>
		<path fill="#553E31" d="M15.758,14.799c0,0-0.011-0.008-0.032-0.026c-0.193-0.15-1.207-0.926-1.697-1.07
			c-0.543-0.16-1.358,1.366-1.358,1.366L14.19,16L15.758,14.799z"/>
		<path fill="none" stroke="#553E31" stroke-width="1.1952" stroke-miterlimit="10" d="M11.209,15.424c0,0-1.626,1.861-1.782,2.351
			c-0.155,0.492-0.271,2.459-0.271,2.459"/>
		<path fill="none" stroke="#553E31" stroke-width="1.1952" stroke-miterlimit="10" d="M21.928,15.234c0,0-0.759-2.35-1.101-2.736
			c-0.341-0.386-1.97-1.5-1.97-1.5"/>
		<path fill="none" stroke="#553E31" stroke-width="1.5056" stroke-miterlimit="10" d="M25.35,22.149c0,0-2.779-1.522-3.467-1.61
			c-0.69-0.088-3.375,0.146-3.375,0.146"/>
	</g>
</g>
<g id="Layer_3">
</g>
</svg>
