<?xml version="1.0" encoding="utf-8"?>
<!-- Generator: Adobe Illustrator 16.0.0, SVG Export Plug-In . SVG Version: 6.00 Build 0)  -->
<!DOCTYPE svg PUBLIC "-//W3C//DTD SVG 1.1//EN" "http://www.w3.org/Graphics/SVG/1.1/DTD/svg11.dtd">
<svg version="1.1" id="Layer_1" xmlns="http://www.w3.org/2000/svg" xmlns:xlink="http://www.w3.org/1999/xlink" x="0px" y="0px"
	 width="29.752px" height="50px" viewBox="155.832 0 29.752 50" enable-background="new 155.832 0 29.752 50" xml:space="preserve">
<g>
	<ellipse fill="#CDB8AB" cx="170.709" cy="42.593" rx="14.875" ry="5.556"/>
	<path fill="#563F32" d="M170.709,48.148c-8.217,0-14.877-2.488-14.877-5.557v1.852c0,3.067,6.66,5.557,14.877,5.557
		c8.215,0,14.875-2.488,14.875-5.557v-1.852C185.584,45.66,178.924,48.148,170.709,48.148z"/>
</g>
<path fill="#EBDFD5" d="M163.27,2.778v38.425c0,1.535,3.33,2.779,7.439,2.779c4.107,0,7.438-1.244,7.438-2.779V2.778H163.27z"/>
<ellipse fill="#CDB8AB" cx="170.709" cy="2.778" rx="7.438" ry="2.777"/>
<path fill="#563F32" d="M170.709,7.438c-4.109,0-7.439-1.244-7.439-2.779v36.544c0,1.535,3.33,2.779,7.439,2.779
	c4.107,0,7.438-1.244,7.438-2.779V4.659C178.146,6.194,174.816,7.438,170.709,7.438z"/>
<path fill="#CDB8AB" d="M178.146,17.369c-0.033,0.067-0.053,0.143-0.053,0.224c0,0.944-2.633,2.263-6.92,2.263
	c-0.285,0-0.518,0.231-0.518,0.516c0,0.283,0.23,0.514,0.518,0.514c2.047,0,3.979-0.3,5.439-0.846
	c0.621-0.232,1.135-0.503,1.531-0.803v-1.868H178.146z"/>
<path fill="#CDB8AB" d="M178.146,24.776c-0.033,0.067-0.053,0.144-0.053,0.224c0,0.945-2.633,2.264-6.92,2.264
	c-0.285,0-0.518,0.23-0.518,0.516c0,0.283,0.23,0.514,0.518,0.514c2.047,0,3.979-0.3,5.439-0.846
	c0.621-0.231,1.135-0.504,1.531-0.805v-1.867H178.146z"/>
<path fill="#CDB8AB" d="M178.146,32.184c-0.033,0.068-0.053,0.146-0.053,0.225c0,0.943-2.633,2.263-6.92,2.263
	c-0.285,0-0.518,0.231-0.518,0.517c0,0.283,0.23,0.514,0.518,0.514c2.047,0,3.979-0.301,5.439-0.846
	c0.621-0.232,1.135-0.504,1.531-0.804v-1.868H178.146z"/>
<path fill="#CDB8AB" d="M178.146,9.962c-0.033,0.067-0.053,0.144-0.053,0.224c0,0.945-2.633,2.264-6.92,2.264
	c-0.285,0-0.518,0.229-0.518,0.514c0,0.284,0.23,0.515,0.518,0.515c2.047,0,3.979-0.302,5.439-0.847
	c0.621-0.23,1.135-0.502,1.531-0.803V9.962H178.146z"/>
</svg>
