<?xml version="1.0" encoding="utf-8"?>
<!-- Generator: Adobe Illustrator 16.0.0, SVG Export Plug-In . SVG Version: 6.00 Build 0)  -->
<!DOCTYPE svg PUBLIC "-//W3C//DTD SVG 1.1//EN" "http://www.w3.org/Graphics/SVG/1.1/DTD/svg11.dtd">
<svg version="1.1" id="Layer_1" xmlns="http://www.w3.org/2000/svg" xmlns:xlink="http://www.w3.org/1999/xlink" x="0px" y="0px"
	 width="29.752px" height="50px" viewBox="113.246 0 29.752 50" enable-background="new 113.246 0 29.752 50" xml:space="preserve">
<g>
	<path fill="#553E31" d="M118.384,26.468v-1.189c0.219,0.002,0.359-0.038,0.422-0.121c0.03-0.043,0.051-0.093,0.062-0.147
		c0.012-0.055,0.019-0.151,0.023-0.289c0.002-0.069,0.004-0.294,0.006-0.675c-0.002-0.523-0.005-0.826-0.01-0.909
		c-0.013-0.155-0.035-0.257-0.067-0.307c-0.048-0.069-0.154-0.103-0.318-0.103c-0.112,0-0.191,0.021-0.236,0.065
		c-0.063,0.059-0.097,0.199-0.101,0.421c0,0.153-0.014,0.474-0.039,0.961c-0.026,0.503-0.041,0.83-0.046,0.979
		c-0.013,0.39-0.063,0.664-0.149,0.824c-0.11,0.204-0.298,0.338-0.564,0.4c-0.146,0.035-0.339,0.054-0.577,0.054
		c-0.502,0-0.855-0.087-1.061-0.26c-0.156-0.13-0.259-0.326-0.309-0.59c-0.043-0.238-0.064-0.805-0.064-1.699
		c0-0.582,0.019-0.993,0.055-1.232c0.05-0.316,0.137-0.544,0.26-0.684c0.171-0.189,0.477-0.283,0.918-0.283
		c0.048,0,0.123,0.001,0.228,0.003v1.188c-0.106,0.004-0.18,0.011-0.221,0.021c-0.121,0.028-0.189,0.118-0.205,0.271
		c-0.013,0.136-0.019,0.466-0.019,0.991c0,0.519,0.016,0.827,0.048,0.923c0.039,0.108,0.14,0.163,0.302,0.163
		c0.156,0,0.251-0.057,0.286-0.171c0.027-0.096,0.055-0.53,0.081-1.3c0.021-0.698,0.049-1.143,0.081-1.336
		c0.032-0.195,0.081-0.35,0.146-0.464c0.065-0.115,0.157-0.207,0.276-0.276c0.175-0.104,0.457-0.156,0.847-0.156
		c0.435,0,0.753,0.051,0.957,0.153c0.201,0.102,0.338,0.27,0.411,0.501c0.074,0.228,0.11,0.856,0.11,1.884
		c0,0.625-0.018,1.076-0.055,1.354c-0.043,0.338-0.128,0.582-0.253,0.729c-0.134,0.159-0.323,0.253-0.567,0.283
		c-0.119,0.016-0.26,0.023-0.422,0.023H118.384z"/>
	<path fill="#553E31" d="M113.421,17.209l1.038-0.469l0.658,1.716l-0.522,0.25L113.421,17.209z M115.357,18.094
		c0-0.846,0.023-1.431,0.071-1.758c0.069-0.47,0.314-0.758,0.736-0.864c0.29-0.073,0.781-0.109,1.473-0.109
		c0.69,0,1.181,0.037,1.47,0.109c0.422,0.106,0.668,0.394,0.736,0.864c0.048,0.324,0.071,0.922,0.071,1.793
		c0,0.869-0.023,1.467-0.071,1.793c-0.068,0.47-0.314,0.758-0.736,0.864c-0.289,0.073-0.779,0.109-1.47,0.109
		c-0.693,0-1.185-0.036-1.473-0.109c-0.422-0.106-0.667-0.394-0.736-0.864C115.381,19.594,115.357,18.985,115.357,18.094z
		 M116.509,18.177c0,0.615,0.019,0.989,0.056,1.121c0.045,0.159,0.148,0.261,0.308,0.307c0.158,0.043,0.449,0.065,0.873,0.065
		c0.274,0,0.473-0.013,0.594-0.039c0.225-0.049,0.354-0.197,0.386-0.445c0.026-0.183,0.039-0.535,0.039-1.056
		s-0.013-0.873-0.039-1.056c-0.032-0.248-0.161-0.395-0.386-0.442c-0.123-0.027-0.314-0.041-0.574-0.041
		c-0.318,0-0.544,0.008-0.678,0.023c-0.223,0.027-0.371,0.09-0.444,0.188c-0.069,0.089-0.111,0.274-0.127,0.558
		C116.512,17.462,116.509,17.734,116.509,18.177z"/>
</g>
</svg>
