<?xml version="1.0" encoding="utf-8"?>
<!-- Generator: Adobe Illustrator 16.0.0, SVG Export Plug-In . SVG Version: 6.00 Build 0)  -->
<!DOCTYPE svg PUBLIC "-//W3C//DTD SVG 1.1//EN" "http://www.w3.org/Graphics/SVG/1.1/DTD/svg11.dtd">
<svg version="1.1" id="Layer_1" xmlns="http://www.w3.org/2000/svg" xmlns:xlink="http://www.w3.org/1999/xlink" x="0px" y="0px"
	 width="29.752px" height="50px" viewBox="113.246 55.67 29.752 50" enable-background="new 113.246 55.67 29.752 50"
	 xml:space="preserve">
<g>
	<path fill="#553E31" d="M117.107,87.704v-1.437c0.265,0.002,0.435-0.047,0.51-0.146c0.037-0.053,0.063-0.111,0.074-0.179
		c0.014-0.066,0.023-0.183,0.028-0.349c0.003-0.084,0.005-0.355,0.008-0.816c-0.003-0.633-0.007-0.998-0.012-1.099
		c-0.017-0.188-0.044-0.311-0.083-0.37c-0.057-0.084-0.186-0.125-0.384-0.125c-0.136,0-0.231,0.026-0.286,0.078
		c-0.076,0.071-0.117,0.241-0.121,0.51c0,0.186-0.017,0.573-0.048,1.162c-0.031,0.608-0.05,1.003-0.055,1.184
		c-0.016,0.471-0.076,0.803-0.181,0.995c-0.133,0.247-0.361,0.408-0.682,0.484c-0.178,0.043-0.411,0.064-0.699,0.064
		c-0.605,0-1.033-0.104-1.281-0.313c-0.189-0.157-0.313-0.395-0.373-0.713c-0.053-0.288-0.078-0.973-0.078-2.054
		c0-0.703,0.021-1.2,0.066-1.49c0.061-0.383,0.164-0.658,0.313-0.827c0.206-0.229,0.577-0.342,1.11-0.342
		c0.057,0,0.148,0.001,0.273,0.003v1.437c-0.127,0.005-0.217,0.014-0.266,0.025c-0.146,0.033-0.229,0.143-0.248,0.328
		c-0.016,0.164-0.023,0.563-0.023,1.197c0,0.628,0.02,1,0.06,1.116c0.047,0.131,0.169,0.196,0.364,0.196
		c0.188,0,0.304-0.069,0.346-0.207c0.033-0.116,0.066-0.641,0.098-1.572c0.026-0.844,0.059-1.382,0.098-1.615
		c0.039-0.234,0.099-0.422,0.177-0.561c0.079-0.14,0.19-0.251,0.333-0.334c0.213-0.126,0.553-0.188,1.023-0.188
		c0.525,0,0.912,0.062,1.158,0.186c0.242,0.123,0.408,0.325,0.498,0.605c0.088,0.275,0.133,1.035,0.133,2.278
		c0,0.756-0.022,1.301-0.066,1.636c-0.053,0.409-0.154,0.703-0.307,0.881c-0.162,0.192-0.391,0.307-0.686,0.343
		c-0.145,0.019-0.314,0.028-0.51,0.028H117.107z"/>
	<path fill="#553E31" d="M118.881,75.59l-0.906,0.416v3.22l0.906,0.417v1.693l-5.354-2.581v-2.303l5.354-2.546V75.59z
		 M116.802,76.527l-2.027,0.938v0.295l2.027,0.938V76.527z"/>
	<path fill="#553E31" d="M113.527,73.32v-1.558h3.988v-3.462h1.365v5.02H113.527z"/>
	<path fill="#553E31" d="M113.527,68.777v-5.89h1.365v2.163h3.988v1.559h-3.988v2.168H113.527z"/>
</g>
</svg>
