<?xml version="1.0" encoding="utf-8"?>
<!-- Generator: Adobe Illustrator 16.0.0, SVG Export Plug-In . SVG Version: 6.00 Build 0)  -->
<!DOCTYPE svg PUBLIC "-//W3C//DTD SVG 1.1//EN" "http://www.w3.org/Graphics/SVG/1.1/DTD/svg11.dtd">
<svg version="1.1" id="Layer_1" xmlns="http://www.w3.org/2000/svg" xmlns:xlink="http://www.w3.org/1999/xlink" x="0px" y="0px"
	 width="29.752px" height="50px" viewBox="0 55.67 29.752 50" enable-background="new 0 55.67 29.752 50" xml:space="preserve">
<g>
	<path fill="#553E31" d="M3.602,84.004v-1.537c0.262-0.01,0.441-0.015,0.538-0.015c0.39,0,0.702,0.058,0.937,0.174
		c0.246,0.12,0.417,0.351,0.514,0.69c0.107,0.372,0.161,1.015,0.161,1.929c0,1.008-0.017,1.687-0.051,2.036
		c-0.029,0.325-0.074,0.581-0.137,0.769c-0.063,0.187-0.154,0.342-0.274,0.465c-0.162,0.165-0.376,0.271-0.643,0.314
		c-0.28,0.05-0.818,0.074-1.616,0.074c-0.766,0-1.283-0.019-1.549-0.056c-0.4-0.054-0.69-0.201-0.871-0.439
		c-0.136-0.183-0.232-0.474-0.29-0.872c-0.058-0.414-0.086-1.156-0.086-2.229c0-0.638,0.015-1.092,0.043-1.363
		c0.042-0.408,0.125-0.707,0.251-0.894c0.154-0.231,0.377-0.378,0.67-0.439c0.209-0.045,0.451-0.067,0.726-0.067
		c0.047,0,0.15,0.002,0.31,0.004v1.537c-0.13,0.005-0.219,0.01-0.267,0.015c-0.159,0.02-0.26,0.088-0.302,0.203
		c-0.063,0.175-0.094,0.653-0.094,1.434c0,0.532,0.016,0.899,0.047,1.102c0.037,0.246,0.179,0.398,0.428,0.458
		c0.201,0.047,0.525,0.07,0.973,0.07c0.46,0,0.778-0.023,0.953-0.07c0.228-0.06,0.36-0.222,0.396-0.487
		c0.029-0.217,0.043-0.598,0.043-1.143c0-0.588-0.013-0.99-0.039-1.204c-0.024-0.202-0.101-0.33-0.231-0.384
		C4.03,84.033,3.851,84.009,3.602,84.004z"/>
	<path fill="#553E31" d="M5.669,76.066l-0.906,0.432v3.337l0.906,0.433v1.755l-5.353-2.676V76.96l5.353-2.638V76.066z M3.59,77.038
		L1.563,78.01v0.307l2.027,0.972V77.038z"/>
	<path fill="#553E31" d="M0.316,73.715V72.1h3.988v-3.587h1.365v5.202H0.316z"/>
	<path fill="#553E31" d="M3.896,67.961v-1.489c0.264,0.003,0.434-0.048,0.51-0.151c0.037-0.055,0.062-0.115,0.074-0.185
		c0.013-0.069,0.022-0.19,0.028-0.362c0.002-0.086,0.005-0.368,0.008-0.846c-0.003-0.655-0.007-1.035-0.012-1.139
		c-0.016-0.194-0.043-0.322-0.083-0.384c-0.058-0.087-0.186-0.13-0.384-0.13c-0.136,0-0.231,0.027-0.286,0.082
		c-0.076,0.074-0.117,0.25-0.122,0.528c0,0.192-0.016,0.593-0.047,1.204c-0.031,0.631-0.049,1.039-0.055,1.227
		c-0.016,0.488-0.076,0.832-0.181,1.031c-0.133,0.256-0.361,0.424-0.682,0.502c-0.178,0.045-0.411,0.066-0.698,0.066
		c-0.606,0-1.034-0.107-1.282-0.324c-0.188-0.163-0.313-0.409-0.373-0.739c-0.052-0.298-0.079-1.007-0.079-2.128
		c0-0.729,0.022-1.244,0.067-1.545c0.06-0.396,0.165-0.682,0.313-0.857c0.207-0.236,0.577-0.354,1.11-0.354
		c0.058,0,0.149,0.001,0.274,0.004v1.489c-0.128,0.005-0.217,0.014-0.267,0.025c-0.146,0.035-0.229,0.148-0.247,0.34
		c-0.016,0.17-0.023,0.584-0.023,1.242c0,0.65,0.02,1.035,0.059,1.156c0.047,0.135,0.168,0.203,0.364,0.203
		c0.188,0,0.304-0.072,0.345-0.215c0.034-0.12,0.067-0.664,0.098-1.629c0.026-0.875,0.059-1.433,0.098-1.674
		c0.039-0.244,0.098-0.438,0.176-0.582c0.079-0.145,0.19-0.26,0.333-0.346c0.212-0.131,0.553-0.195,1.023-0.195
		c0.525,0,0.911,0.064,1.157,0.191c0.243,0.129,0.409,0.338,0.498,0.629c0.089,0.285,0.133,1.072,0.133,2.361
		c0,0.783-0.022,1.348-0.067,1.695c-0.052,0.424-0.154,0.728-0.306,0.912c-0.162,0.199-0.391,0.318-0.687,0.355
		c-0.144,0.02-0.313,0.029-0.51,0.029H3.896z"/>
</g>
</svg>
