<?xml version="1.0" encoding="utf-8"?>
<!-- Generator: Adobe Illustrator 16.0.0, SVG Export Plug-In . SVG Version: 6.00 Build 0)  -->
<!DOCTYPE svg PUBLIC "-//W3C//DTD SVG 1.1//EN" "http://www.w3.org/Graphics/SVG/1.1/DTD/svg11.dtd">
<svg version="1.1" id="Layer_1" xmlns="http://www.w3.org/2000/svg" xmlns:xlink="http://www.w3.org/1999/xlink" x="0px" y="0px"
	 width="30px" height="50px" viewBox="113.122 55.67 30 50" enable-background="new 113.122 55.67 30 50" xml:space="preserve">
<g>
	<path fill="#553E31" d="M118.851,91.703h-3.999v-2.466c0-0.488,0.011-0.803,0.032-0.943c0.053-0.357,0.18-0.599,0.383-0.724
		c0.201-0.126,0.563-0.188,1.082-0.188c0.494,0,0.841,0.052,1.04,0.155c0.135,0.07,0.237,0.169,0.308,0.295
		c0.07,0.127,0.119,0.3,0.146,0.52c0.02,0.156,0.029,0.448,0.029,0.876v1.379h0.979V91.703z M116.873,90.606v-1.371
		c-0.002-0.25-0.006-0.402-0.012-0.458s-0.021-0.104-0.047-0.148c-0.033-0.057-0.083-0.096-0.151-0.116
		c-0.066-0.021-0.172-0.032-0.314-0.032s-0.247,0.014-0.313,0.04s-0.114,0.073-0.144,0.14c-0.021,0.049-0.035,0.241-0.041,0.575
		v1.371H116.873z"/>
	<path fill="#553E31" d="M118.851,86.48h-3.999v-2.65c0.002-0.622,0.01-0.994,0.022-1.117s0.058-0.242,0.136-0.356
		c0.092-0.137,0.218-0.23,0.38-0.282c0.16-0.051,0.414-0.076,0.76-0.076c0.291,0,0.505,0.017,0.642,0.049s0.246,0.094,0.328,0.184
		c0.088,0.097,0.148,0.242,0.182,0.438c0.02-0.23,0.093-0.396,0.22-0.496c0.076-0.058,0.168-0.095,0.277-0.11
		c0.107-0.016,0.335-0.023,0.681-0.023h0.372v1.08h-0.214c-0.223,0-0.381,0.008-0.476,0.022c-0.095,0.016-0.168,0.043-0.219,0.083
		c-0.047,0.041-0.076,0.097-0.09,0.168c-0.012,0.071-0.019,0.22-0.019,0.446v1.546h1.017V86.48z M116.835,85.384v-1.543
		c-0.006-0.269-0.011-0.43-0.016-0.481s-0.021-0.096-0.046-0.133c-0.033-0.048-0.082-0.081-0.147-0.101
		c-0.065-0.019-0.165-0.028-0.298-0.028c-0.131,0-0.229,0.011-0.293,0.032c-0.064,0.022-0.111,0.061-0.141,0.115
		c-0.02,0.039-0.031,0.085-0.035,0.139s-0.007,0.207-0.009,0.46v1.54H116.835z"/>
	<path fill="#553E31" d="M114.793,78.666c0-0.777,0.021-1.312,0.064-1.604c0.063-0.42,0.284-0.678,0.665-0.772
		c0.262-0.065,0.704-0.098,1.327-0.098c0.625,0,1.068,0.032,1.33,0.098c0.381,0.095,0.603,0.353,0.665,0.772
		c0.043,0.292,0.064,0.822,0.064,1.593c0,0.784-0.021,1.321-0.064,1.613c-0.063,0.42-0.284,0.678-0.665,0.772
		c-0.262,0.065-0.713,0.098-1.354,0.098c-0.609,0-1.044-0.032-1.304-0.098c-0.381-0.095-0.603-0.353-0.665-0.772
		C114.814,79.979,114.793,79.444,114.793,78.666z M115.833,78.663c0,0.582,0.017,0.932,0.05,1.049
		c0.039,0.136,0.127,0.225,0.263,0.267s0.405,0.063,0.81,0.063c0.244,0,0.421-0.012,0.53-0.034c0.203-0.044,0.319-0.177,0.349-0.398
		c0.023-0.163,0.035-0.48,0.035-0.952c0-0.44-0.009-0.734-0.026-0.88c-0.018-0.146-0.057-0.254-0.117-0.324
		c-0.055-0.063-0.135-0.106-0.242-0.13c-0.105-0.022-0.28-0.034-0.522-0.034c-0.287,0-0.498,0.009-0.633,0.026
		s-0.236,0.05-0.305,0.095c-0.086,0.059-0.14,0.154-0.159,0.288C115.843,77.831,115.833,78.153,115.833,78.663z"/>
	<path fill="#553E31" d="M114.852,75.412v-4.355h1.02v1.601h2.979v1.152h-2.979v1.603H114.852z"/>
	<path fill="#553E31" d="M114.852,70.264v-3.986h0.94v2.905h0.577v-2.758h0.879v2.758h0.642v-2.927h0.961v4.008H114.852z"/>
	<path fill="#553E31" d="M114.852,65.373v-1.152h3.999v1.152H114.852z"/>
	<path fill="#553E31" d="M114.852,63.178v-1.923l2.982-1.885v-0.113l-2.982,0.026v-1.115h3.999v1.906l-2.982,1.893v0.119
		l2.982-0.024v1.116H114.852z"/>
</g>
</svg>
