<?xml version="1.0" encoding="utf-8"?>
<!-- Generator: Adobe Illustrator 16.0.0, SVG Export Plug-In . SVG Version: 6.00 Build 0)  -->
<!DOCTYPE svg PUBLIC "-//W3C//DTD SVG 1.1//EN" "http://www.w3.org/Graphics/SVG/1.1/DTD/svg11.dtd">
<svg version="1.1" id="Layer_1" xmlns="http://www.w3.org/2000/svg" xmlns:xlink="http://www.w3.org/1999/xlink" x="0px" y="0px"
	 width="29.752px" height="50px" viewBox="0 0 29.752 50" enable-background="new 0 0 29.752 50" xml:space="preserve">
<g>
	<path fill="#553E31" d="M2.176,31.88v-1.227h1.605V29.98l-1.635-1.592v-1.876l2.202,2.327l2.255-2.524v1.864L4.91,29.98v0.673
		h1.693v1.227H2.176z"/>
	<path fill="#553E31" d="M4.894,22.135v-1.227c0.217-0.008,0.365-0.012,0.444-0.012c0.322,0,0.581,0.046,0.775,0.139
		c0.204,0.096,0.346,0.28,0.426,0.551c0.088,0.297,0.133,0.81,0.133,1.54c0,0.804-0.015,1.346-0.042,1.625
		c-0.024,0.259-0.063,0.464-0.114,0.613s-0.127,0.273-0.227,0.372c-0.135,0.131-0.312,0.215-0.532,0.25
		c-0.231,0.039-0.677,0.059-1.337,0.059c-0.634,0-1.061-0.014-1.281-0.043c-0.331-0.044-0.571-0.16-0.72-0.352
		c-0.112-0.146-0.192-0.377-0.24-0.696c-0.048-0.331-0.071-0.923-0.071-1.778c0-0.509,0.012-0.872,0.035-1.088
		c0.035-0.326,0.104-0.564,0.208-0.713c0.128-0.185,0.313-0.302,0.555-0.351c0.173-0.036,0.373-0.053,0.601-0.053
		c0.038,0,0.124,0.001,0.256,0.003V22.2c-0.108,0.004-0.182,0.008-0.221,0.012c-0.132,0.016-0.215,0.07-0.25,0.162
		c-0.052,0.14-0.077,0.521-0.077,1.144c0,0.425,0.013,0.718,0.038,0.879c0.03,0.197,0.148,0.318,0.354,0.366
		c0.166,0.038,0.435,0.056,0.804,0.056c0.381,0,0.644-0.019,0.789-0.056c0.188-0.047,0.297-0.177,0.327-0.389
		c0.024-0.173,0.036-0.477,0.036-0.911c0-0.47-0.011-0.791-0.033-0.961c-0.019-0.161-0.083-0.264-0.191-0.307
		C5.247,22.159,5.1,22.139,4.894,22.135z"/>
	<path fill="#553E31" d="M6.604,15.8l-0.749,0.345v2.663l0.749,0.345v1.4l-4.428-2.135v-1.905l4.428-2.105V15.8z M4.884,16.575
		l-1.677,0.775v0.245l1.677,0.775V16.575z"/>
	<path fill="#553E31" d="M2.176,13.923v-1.289h3.299V9.771h1.129v4.152H2.176z"/>
</g>
</svg>
