<?xml version="1.0" encoding="utf-8"?>
<!-- Generator: Adobe Illustrator 16.0.0, SVG Export Plug-In . SVG Version: 6.00 Build 0)  -->
<!DOCTYPE svg PUBLIC "-//W3C//DTD SVG 1.1//EN" "http://www.w3.org/Graphics/SVG/1.1/DTD/svg11.dtd">
<svg version="1.1" id="Layer_1" xmlns="http://www.w3.org/2000/svg" xmlns:xlink="http://www.w3.org/1999/xlink" x="0px" y="0px"
	 width="29.752px" height="50px" viewBox="37.749 0 29.752 50" enable-background="new 37.749 0 29.752 50" xml:space="preserve">
<g>
	<path fill="#553E31" d="M42.643,31.486V30.26c0.217-0.008,0.365-0.012,0.444-0.012c0.322,0,0.581,0.046,0.775,0.139
		c0.204,0.097,0.346,0.28,0.426,0.552c0.088,0.297,0.133,0.81,0.133,1.539c0,0.804-0.015,1.346-0.042,1.625
		c-0.024,0.26-0.063,0.464-0.114,0.613s-0.127,0.273-0.227,0.372c-0.135,0.131-0.312,0.215-0.532,0.25
		c-0.231,0.04-0.677,0.06-1.337,0.06c-0.634,0-1.061-0.015-1.281-0.045c-0.331-0.043-0.571-0.16-0.72-0.351
		c-0.112-0.146-0.192-0.378-0.24-0.696c-0.048-0.33-0.071-0.923-0.071-1.778c0-0.509,0.012-0.871,0.035-1.088
		c0.035-0.326,0.104-0.564,0.208-0.714c0.128-0.185,0.313-0.302,0.555-0.351c0.173-0.035,0.373-0.053,0.601-0.053
		c0.038,0,0.124,0.001,0.256,0.003v1.227c-0.108,0.004-0.182,0.008-0.221,0.012c-0.132,0.016-0.215,0.069-0.25,0.162
		c-0.052,0.14-0.077,0.521-0.077,1.145c0,0.425,0.013,0.718,0.038,0.879c0.03,0.196,0.148,0.318,0.354,0.365
		c0.166,0.037,0.435,0.056,0.804,0.056c0.381,0,0.644-0.019,0.789-0.056c0.188-0.047,0.297-0.177,0.327-0.39
		c0.024-0.173,0.036-0.477,0.036-0.911c0-0.47-0.011-0.79-0.033-0.961c-0.019-0.161-0.083-0.264-0.191-0.307
		C42.997,31.511,42.849,31.49,42.643,31.486z"/>
	<path fill="#553E31" d="M39.925,29.542v-1.227h2.033c0.468-0.006,0.763-0.021,0.886-0.044c0.21-0.039,0.333-0.173,0.37-0.401
		c0.034-0.208,0.052-0.523,0.052-0.946c0-0.437-0.014-0.743-0.042-0.92c-0.043-0.258-0.205-0.401-0.486-0.431
		c-0.228-0.023-0.487-0.035-0.779-0.035h-2.033v-1.228h2.033c0.71,0.014,1.174,0.035,1.393,0.062
		c0.367,0.049,0.639,0.21,0.813,0.484c0.128,0.202,0.206,0.542,0.234,1.021c0.013,0.22,0.019,0.564,0.019,1.032
		c0,0.689-0.021,1.181-0.064,1.472c-0.032,0.22-0.077,0.395-0.135,0.524s-0.139,0.24-0.245,0.33
		c-0.145,0.124-0.326,0.204-0.545,0.239c-0.248,0.039-0.549,0.06-0.901,0.062l-0.568,0.006H39.925z"/>
	<path fill="#553E31" d="M39.925,23.463v-1.227h1.605v-0.672l-1.635-1.593v-1.875l2.202,2.327l2.255-2.524v1.864l-1.693,1.802v0.672
		h1.693v1.227H39.925z"/>
	<path fill="#553E31" d="M39.86,14.842c0-0.846,0.023-1.431,0.071-1.758c0.069-0.47,0.314-0.758,0.736-0.864
		c0.29-0.073,0.781-0.109,1.473-0.109c0.69,0,1.181,0.037,1.47,0.109c0.422,0.106,0.668,0.394,0.736,0.864
		c0.048,0.324,0.071,0.922,0.071,1.793c0,0.869-0.023,1.467-0.071,1.793c-0.068,0.47-0.314,0.758-0.736,0.864
		c-0.289,0.073-0.779,0.109-1.47,0.109c-0.693,0-1.185-0.036-1.473-0.109c-0.422-0.106-0.667-0.394-0.736-0.864
		C39.883,16.342,39.86,15.733,39.86,14.842z M41.011,14.925c0,0.615,0.019,0.989,0.056,1.121c0.045,0.159,0.148,0.261,0.308,0.307
		c0.158,0.043,0.449,0.065,0.873,0.065c0.274,0,0.473-0.013,0.594-0.039c0.225-0.049,0.354-0.197,0.386-0.445
		c0.026-0.183,0.039-0.535,0.039-1.056s-0.013-0.873-0.039-1.056c-0.032-0.248-0.161-0.395-0.386-0.442
		c-0.123-0.027-0.314-0.041-0.574-0.041c-0.318,0-0.544,0.008-0.678,0.023c-0.223,0.027-0.371,0.09-0.444,0.188
		c-0.069,0.089-0.111,0.274-0.127,0.558C41.014,14.21,41.011,14.482,41.011,14.925z"/>
	<path fill="#553E31" d="M44.353,11.325h-4.428V8.361c0.002-0.7,0.009-1.112,0.022-1.238c0.015-0.144,0.061-0.274,0.138-0.391
		c0.077-0.117,0.175-0.208,0.294-0.273c0.127-0.067,0.261-0.107,0.398-0.121c0.162-0.018,0.358-0.026,0.587-0.026
		c0.361,0,0.613,0.022,0.756,0.068c0.213,0.069,0.359,0.199,0.441,0.389c0.028,0.065,0.054,0.162,0.075,0.292
		c0.021-0.257,0.103-0.442,0.243-0.554c0.063-0.049,0.135-0.084,0.216-0.105s0.199-0.035,0.354-0.042
		c0.08-0.002,0.244-0.003,0.49-0.003h0.412v1.209h-0.237c-0.264,0-0.452,0.011-0.567,0.032c-0.164,0.032-0.262,0.111-0.292,0.239
		c-0.02,0.085-0.029,0.263-0.029,0.534v1.728h1.126V11.325z M42.121,10.099V8.374c-0.004-0.258-0.008-0.41-0.013-0.458
		c-0.011-0.173-0.069-0.282-0.175-0.327c-0.073-0.031-0.198-0.047-0.373-0.047c-0.151,0-0.264,0.014-0.338,0.042
		c-0.107,0.042-0.168,0.141-0.182,0.298c-0.004,0.055-0.007,0.22-0.01,0.496v1.722H42.121z"/>
</g>
</svg>
