<?xml version="1.0" encoding="utf-8"?>
<!-- Generator: Adobe Illustrator 16.0.0, SVG Export Plug-In . SVG Version: 6.00 Build 0)  -->
<!DOCTYPE svg PUBLIC "-//W3C//DTD SVG 1.1//EN" "http://www.w3.org/Graphics/SVG/1.1/DTD/svg11.dtd">
<svg version="1.1" id="Layer_1" xmlns="http://www.w3.org/2000/svg" xmlns:xlink="http://www.w3.org/1999/xlink" x="0px" y="0px"
	 width="155px" height="49.999px" viewBox="0 0 155 49.999" enable-background="new 0 0 155 49.999" xml:space="preserve">
<g>
	<g>
		<g>
			<ellipse fill="#CDB8AB" cx="96.375" cy="42.592" rx="14.875" ry="5.556"/>
			<path fill="#563F32" d="M96.375,48.147c-8.216,0-14.876-2.488-14.876-5.557v1.852c0,3.067,6.66,5.557,14.876,5.557
				c8.215,0,14.875-2.488,14.875-5.557v-1.852C111.25,45.659,104.59,48.147,96.375,48.147z"/>
		</g>
		<path fill="#EBDFD5" d="M88.938,2.777v38.425c0,1.535,3.33,2.779,7.438,2.779c4.106,0,7.438-1.244,7.438-2.779V2.777H88.938z"/>
		<ellipse fill="#CDB8AB" cx="96.375" cy="2.777" rx="7.438" ry="2.777"/>
		<g>
			<path fill="#563F32" d="M81.499,27.69V22.61h1.304v3.616h1.049v-3.438h1.277v3.438h1.918v1.465H81.499z"/>
			<path fill="#563F32" d="M87.047,16.742l-0.939,0.412v3.18l0.939,0.412v1.673l-5.548-2.55v-2.274l5.548-2.515V16.742z
				 M84.893,17.668l-2.102,0.927v0.292l2.102,0.926V17.668z"/>
			<path fill="#563F32" d="M81.499,15.304V9.486h1.414v2.138h4.134v1.539h-4.134v2.141H81.499z"/>
		</g>
	</g>
	<g>
		<g>
			<ellipse fill="#CDB8AB" cx="134.124" cy="42.592" rx="14.876" ry="5.556"/>
			<path fill="#563F32" d="M134.124,48.147c-8.216,0-14.876-2.488-14.876-5.557v1.852c0,3.067,6.66,5.557,14.876,5.557
				S149,47.511,149,44.442v-1.852C149,45.659,142.34,48.147,134.124,48.147z"/>
		</g>
		<path fill="#EBDFD5" d="M126.686,2.777v38.425c0,1.535,3.33,2.779,7.438,2.779s7.438-1.244,7.438-2.779V2.777H126.686z"/>
		<ellipse fill="#CDB8AB" cx="134.124" cy="2.777" rx="7.438" ry="2.777"/>
		<g>
			<path fill="#563F32" d="M123.045,31.908v-1.419c0.273,0.003,0.449-0.047,0.527-0.145c0.039-0.052,0.064-0.111,0.078-0.177
				s0.021-0.181,0.026-0.345c0.005-0.082,0.007-0.352,0.009-0.807c-0.002-0.625-0.006-0.986-0.013-1.086
				c-0.016-0.185-0.044-0.307-0.085-0.365c-0.061-0.082-0.191-0.123-0.398-0.123c-0.141,0-0.238,0.025-0.295,0.078
				c-0.08,0.069-0.121,0.237-0.127,0.502c0,0.185-0.017,0.566-0.05,1.148c-0.032,0.602-0.051,0.99-0.057,1.169
				c-0.017,0.466-0.078,0.792-0.188,0.982c-0.137,0.243-0.373,0.403-0.707,0.479c-0.184,0.042-0.425,0.063-0.723,0.063
				c-0.629,0-1.072-0.104-1.33-0.311c-0.193-0.154-0.322-0.39-0.385-0.703c-0.055-0.285-0.082-0.961-0.082-2.028
				c0-0.695,0.023-1.187,0.068-1.472c0.063-0.379,0.172-0.65,0.326-0.817c0.213-0.226,0.598-0.339,1.149-0.339
				c0.06,0,0.153,0.002,0.284,0.004v1.42c-0.133,0.004-0.225,0.013-0.276,0.023c-0.151,0.032-0.237,0.142-0.256,0.323
				c-0.017,0.162-0.024,0.558-0.024,1.185c0,0.619,0.021,0.986,0.062,1.103c0.05,0.129,0.175,0.192,0.378,0.192
				c0.195,0,0.314-0.067,0.357-0.203c0.035-0.115,0.069-0.633,0.102-1.553c0.027-0.834,0.063-1.365,0.102-1.597
				c0.041-0.231,0.103-0.417,0.185-0.555c0.081-0.138,0.196-0.247,0.346-0.329c0.22-0.124,0.572-0.188,1.062-0.188
				c0.545,0,0.943,0.063,1.199,0.185c0.252,0.122,0.424,0.321,0.516,0.599c0.093,0.272,0.139,1.022,0.139,2.25
				c0,0.746-0.023,1.285-0.068,1.616c-0.055,0.403-0.16,0.693-0.317,0.869c-0.168,0.19-0.404,0.303-0.711,0.338
				c-0.148,0.021-0.325,0.028-0.528,0.028h-0.293V31.908z"/>
			<path fill="#563F32" d="M124.881,19.762l-0.938,0.412v3.18l0.938,0.412v1.673l-5.547-2.55v-2.274l5.547-2.515V19.762z
				 M122.727,20.687l-2.101,0.927v0.292l2.101,0.926V20.687z"/>
			<path fill="#563F32" d="M119.334,17.341v-1.539h4.133v-3.419h1.414v4.958H119.334z"/>
			<path fill="#563F32" d="M119.334,12.673V6.855h1.414v2.138h4.133v1.539h-4.133v2.141H119.334z"/>
		</g>
	</g>
	<g>
		<g>
			<ellipse fill="#CDB8AB" cx="20.876" cy="42.592" rx="14.876" ry="5.556"/>
			<path fill="#563F32" d="M20.876,48.147C12.661,48.147,6,45.659,6,42.592v1.853c0,3.066,6.661,5.555,14.876,5.555
				s14.876-2.488,14.876-5.557v-1.852C35.752,45.659,29.091,48.147,20.876,48.147z"/>
		</g>
		<path fill="#EBDFD5" d="M13.438,2.777v38.425c0,1.535,3.33,2.779,7.438,2.779s7.438-1.244,7.438-2.779V2.777H13.438z"/>
		<ellipse fill="#CDB8AB" cx="20.876" cy="2.777" rx="7.438" ry="2.777"/>
		<g>
			<path fill="#563F32" d="M9.492,27.245V25.78c0.271-0.01,0.457-0.014,0.557-0.014c0.404,0,0.728,0.056,0.972,0.166
				c0.254,0.113,0.432,0.334,0.533,0.657c0.11,0.354,0.166,0.968,0.166,1.839c0,0.959-0.018,1.606-0.053,1.939
				c-0.03,0.311-0.077,0.554-0.143,0.732c-0.064,0.178-0.16,0.325-0.284,0.442c-0.168,0.157-0.39,0.257-0.667,0.3
				c-0.29,0.047-0.848,0.07-1.675,0.07c-0.793,0-1.329-0.018-1.605-0.053c-0.415-0.053-0.715-0.191-0.903-0.42
				c-0.141-0.174-0.241-0.45-0.3-0.83C6.03,30.218,6,29.51,6,28.488c0-0.607,0.015-1.041,0.045-1.3
				c0.043-0.39,0.13-0.674,0.26-0.853c0.16-0.221,0.392-0.36,0.695-0.419c0.217-0.042,0.467-0.063,0.752-0.063
				c0.049,0,0.156,0.002,0.321,0.004v1.465c-0.135,0.005-0.227,0.01-0.276,0.014c-0.165,0.02-0.269,0.084-0.313,0.193
				c-0.064,0.167-0.097,0.623-0.097,1.367c0,0.506,0.016,0.855,0.049,1.049c0.038,0.234,0.186,0.381,0.443,0.437
				c0.209,0.046,0.544,0.067,1.008,0.067c0.477,0,0.807-0.021,0.988-0.067c0.236-0.056,0.373-0.211,0.411-0.465
				c0.03-0.206,0.044-0.569,0.044-1.088c0-0.562-0.013-0.942-0.041-1.147c-0.024-0.192-0.104-0.313-0.24-0.365
				C9.935,27.272,9.749,27.25,9.492,27.245z"/>
			<path fill="#563F32" d="M11.633,19.5l-0.939,0.412v3.18l0.939,0.412v1.673l-5.548-2.55v-2.274l5.548-2.515V19.5z M9.479,20.427
				l-2.102,0.926v0.292l2.102,0.927V20.427z"/>
			<path fill="#563F32" d="M6.085,17.079V15.54h4.133v-3.419h1.415v4.958H6.085L6.085,17.079z"/>
			<path fill="#563F32" d="M9.796,11.415V9.996c0.274,0.002,0.45-0.046,0.528-0.145c0.038-0.052,0.064-0.11,0.077-0.176
				c0.015-0.066,0.024-0.18,0.029-0.345c0.003-0.082,0.006-0.351,0.008-0.806c-0.002-0.625-0.006-0.986-0.012-1.085
				c-0.016-0.185-0.044-0.307-0.085-0.366C10.282,6.991,10.149,6.95,9.943,6.95c-0.141,0-0.24,0.025-0.297,0.077
				c-0.078,0.07-0.12,0.238-0.125,0.504c0,0.183-0.017,0.565-0.049,1.147C9.439,9.28,9.42,9.67,9.415,9.848
				c-0.016,0.465-0.079,0.793-0.187,0.982c-0.138,0.244-0.374,0.404-0.708,0.479c-0.184,0.042-0.425,0.063-0.724,0.063
				c-0.628,0-1.071-0.104-1.329-0.311c-0.195-0.154-0.324-0.39-0.386-0.704C6.027,10.074,6,9.398,6,8.33
				c0-0.694,0.023-1.186,0.069-1.472C6.131,6.48,6.24,6.208,6.394,6.042c0.214-0.226,0.598-0.338,1.151-0.338
				c0.06,0,0.154,0.001,0.284,0.003v1.419C7.696,7.131,7.604,7.139,7.553,7.15C7.401,7.184,7.316,7.292,7.297,7.475
				C7.281,7.637,7.272,8.031,7.272,8.658c0,0.619,0.021,0.987,0.061,1.102C7.382,9.89,7.508,9.954,7.71,9.954
				c0.195,0,0.315-0.068,0.358-0.205c0.036-0.114,0.07-0.632,0.102-1.553c0.027-0.833,0.062-1.365,0.102-1.595
				c0.041-0.232,0.102-0.416,0.184-0.554C8.536,5.909,8.651,5.8,8.801,5.718c0.219-0.125,0.573-0.187,1.06-0.187
				c0.545,0,0.944,0.061,1.199,0.183c0.252,0.122,0.424,0.322,0.516,0.599c0.092,0.272,0.138,1.022,0.138,2.25
				c0,0.747-0.023,1.285-0.069,1.616c-0.054,0.404-0.16,0.694-0.316,0.87c-0.168,0.19-0.406,0.303-0.711,0.338
				c-0.149,0.019-0.325,0.028-0.529,0.028H9.796z"/>
		</g>
	</g>
	<g>
		<g>
			<ellipse fill="#CDB8AB" cx="58.625" cy="42.592" rx="14.876" ry="5.556"/>
			<path fill="#563F32" d="M58.625,48.147c-8.215,0-14.876-2.488-14.876-5.557v1.852c0.001,3.068,6.661,5.557,14.876,5.557
				s14.876-2.488,14.876-5.557v-1.852C73.501,45.659,66.841,48.147,58.625,48.147z"/>
		</g>
		<path fill="#EBDFD5" d="M51.188,2.777v38.425c0,1.535,3.33,2.779,7.438,2.779s7.438-1.244,7.438-2.779V2.777H51.188z"/>
		<ellipse fill="#CDB8AB" cx="58.625" cy="2.777" rx="7.438" ry="2.777"/>
		<g>
			<path fill="#563F32" d="M47.546,37.823v-1.42c0.273,0.003,0.45-0.045,0.528-0.145c0.038-0.052,0.063-0.109,0.078-0.177
				c0.013-0.065,0.022-0.181,0.028-0.345c0.002-0.082,0.005-0.352,0.008-0.807c-0.002-0.625-0.007-0.986-0.012-1.084
				c-0.016-0.187-0.045-0.309-0.085-0.367c-0.059-0.082-0.192-0.123-0.398-0.123c-0.142,0-0.24,0.025-0.297,0.078
				c-0.079,0.069-0.121,0.237-0.126,0.502c0,0.185-0.016,0.566-0.048,1.148c-0.032,0.602-0.052,0.99-0.057,1.169
				c-0.016,0.466-0.078,0.792-0.187,0.981c-0.138,0.244-0.374,0.404-0.708,0.479c-0.185,0.043-0.425,0.063-0.723,0.063
				c-0.629,0-1.072-0.104-1.329-0.311c-0.195-0.154-0.324-0.39-0.387-0.703c-0.054-0.285-0.081-0.961-0.081-2.029
				c0-0.694,0.023-1.186,0.069-1.471c0.063-0.379,0.171-0.65,0.326-0.817c0.214-0.226,0.597-0.339,1.15-0.339
				c0.059,0,0.154,0.002,0.284,0.004v1.42c-0.133,0.005-0.225,0.013-0.276,0.023c-0.152,0.033-0.237,0.142-0.256,0.324
				c-0.016,0.162-0.025,0.557-0.025,1.184c0,0.619,0.021,0.986,0.061,1.103c0.049,0.129,0.175,0.192,0.378,0.192
				c0.195,0,0.314-0.066,0.357-0.203c0.035-0.115,0.069-0.633,0.102-1.553c0.027-0.834,0.061-1.365,0.102-1.597
				c0.04-0.231,0.102-0.417,0.182-0.554c0.082-0.139,0.197-0.247,0.346-0.329c0.22-0.125,0.573-0.188,1.061-0.188
				c0.545,0,0.944,0.063,1.199,0.185c0.252,0.122,0.425,0.321,0.516,0.599c0.092,0.272,0.138,1.022,0.138,2.25
				c0,0.746-0.023,1.285-0.069,1.616c-0.054,0.403-0.16,0.692-0.317,0.869c-0.168,0.19-0.405,0.304-0.711,0.339
				c-0.149,0.02-0.325,0.027-0.528,0.027h-0.293V37.823z"/>
			<path fill="#563F32" d="M43.835,30.916v-1.465h2.548c0.585-0.009,0.956-0.025,1.109-0.054c0.263-0.047,0.417-0.207,0.464-0.479
				c0.043-0.249,0.065-0.625,0.065-1.13c0-0.521-0.018-0.889-0.053-1.1c-0.054-0.308-0.257-0.479-0.609-0.515
				c-0.285-0.028-0.61-0.042-0.976-0.042h-2.548v-1.463h2.548c0.889,0.017,1.47,0.041,1.744,0.074
				c0.46,0.059,0.801,0.251,1.02,0.577c0.16,0.242,0.258,0.647,0.292,1.219c0.017,0.263,0.024,0.674,0.024,1.231
				c0,0.824-0.027,1.41-0.081,1.758c-0.041,0.263-0.097,0.472-0.169,0.627c-0.071,0.154-0.174,0.285-0.307,0.395
				c-0.182,0.147-0.409,0.242-0.683,0.285c-0.312,0.047-0.688,0.071-1.13,0.073l-0.711,0.008H43.835z"/>
			<path fill="#563F32" d="M46.237,20.558v-3.349c0.122-0.005,0.2-0.007,0.235-0.007c0.727,0,1.287,0.018,1.683,0.053
				c0.639,0.057,1.026,0.371,1.162,0.943c0.068,0.296,0.108,0.62,0.122,0.972c0.017,0.374,0.024,0.816,0.024,1.328
				c0,0.908-0.038,1.558-0.113,1.947c-0.103,0.54-0.391,0.874-0.862,1.003c-0.23,0.063-0.495,0.1-0.792,0.109
				c-0.374,0.012-0.772,0.018-1.195,0.018c-0.715,0-1.218-0.029-1.508-0.088c-0.403-0.085-0.688-0.23-0.854-0.437
				c-0.089-0.108-0.158-0.243-0.206-0.407c-0.047-0.163-0.085-0.394-0.116-0.691c-0.043-0.42-0.064-0.988-0.064-1.704
				c0-0.921,0.042-1.572,0.126-1.954c0.084-0.388,0.233-0.66,0.447-0.817c0.192-0.139,0.496-0.223,0.911-0.254
				c0.111-0.007,0.281-0.011,0.512-0.011v1.465c-0.151,0.003-0.254,0.01-0.309,0.021c-0.138,0.033-0.221,0.138-0.248,0.313
				c-0.035,0.232-0.053,0.69-0.053,1.373c0,0.608,0.024,1.029,0.07,1.265c0.046,0.223,0.187,0.357,0.423,0.404
				c0.178,0.038,0.497,0.057,0.955,0.057c0.525,0,0.884-0.02,1.077-0.06c0.257-0.052,0.401-0.212,0.43-0.479
				c0.014-0.131,0.026-0.527,0.037-1.189c-0.005-0.724-0.021-1.189-0.049-1.398c-0.035-0.189-0.131-0.299-0.288-0.327
				c-0.098-0.017-0.247-0.024-0.447-0.024v1.926L46.237,20.558L46.237,20.558z"/>
			<path fill="#563F32" d="M49.383,10.932l-0.939,0.412v3.18l0.939,0.412v1.673l-5.548-2.55v-2.274l5.548-2.514V10.932z
				 M47.229,11.858l-2.102,0.926v0.292l2.102,0.927V11.858z"/>
			<path fill="#563F32" d="M49.383,8.511h-5.548V4.972c0.003-0.835,0.012-1.328,0.029-1.479c0.019-0.172,0.076-0.327,0.172-0.467
				c0.096-0.14,0.219-0.248,0.368-0.325c0.16-0.08,0.327-0.128,0.5-0.145c0.203-0.021,0.448-0.032,0.736-0.032
				c0.452,0,0.768,0.027,0.947,0.081c0.266,0.083,0.449,0.237,0.552,0.465c0.035,0.078,0.067,0.194,0.094,0.349
				c0.027-0.308,0.128-0.528,0.305-0.662c0.079-0.059,0.169-0.1,0.271-0.125c0.101-0.024,0.25-0.041,0.445-0.051
				c0.1-0.002,0.305-0.004,0.613-0.004h0.517v1.444h-0.297c-0.33,0-0.567,0.013-0.711,0.038c-0.205,0.038-0.327,0.133-0.366,0.285
				c-0.024,0.102-0.036,0.314-0.036,0.638v2.063h1.41L49.383,8.511L49.383,8.511z M46.587,7.046v-2.06
				c-0.006-0.308-0.011-0.489-0.017-0.546c-0.014-0.207-0.086-0.337-0.22-0.391c-0.092-0.038-0.248-0.057-0.467-0.057
				c-0.19,0-0.331,0.017-0.423,0.049c-0.136,0.05-0.212,0.168-0.228,0.356c-0.005,0.065-0.009,0.263-0.012,0.591v2.057L46.587,7.046
				L46.587,7.046z"/>
		</g>
	</g>
</g>
<g>
	<g>
		<path fill="#563F32" d="M133.568,30.116c-0.722,0-1.267-0.578-1.267-1.345c0-0.79,0.541-1.363,1.286-1.363
			c0.769,0,1.286,0.548,1.286,1.363C134.874,29.563,134.337,30.116,133.568,30.116z M132.853,26.19
			c-0.076,0-0.139-0.059-0.145-0.135l-0.038-0.502c-0.129-1.132,0.297-2.327,1.232-3.449c0.836-0.985,1.319-1.718,1.319-2.556
			c0-0.961-0.602-1.5-1.694-1.517c-0.676,0-1.407,0.224-1.862,0.57c-0.025,0.019-0.057,0.029-0.088,0.029
			c-0.014,0-0.026-0.002-0.04-0.005c-0.044-0.013-0.079-0.045-0.096-0.088l-0.464-1.218c-0.023-0.062-0.002-0.132,0.052-0.17
			c0.688-0.485,1.806-0.799,2.848-0.799c2.491,0,3.375,1.609,3.375,2.987c0,1.34-0.704,2.278-1.697,3.458
			c-0.807,0.953-1.125,1.778-1.067,2.759l0.038,0.479c0.003,0.041-0.011,0.08-0.038,0.11c-0.027,0.029-0.066,0.047-0.106,0.047
			H132.853z"/>
		<path fill="#CDB8AB" d="M133.877,16.495c2.225,0,3.229,1.373,3.229,2.842c0,1.314-0.734,2.262-1.663,3.364
			c-0.851,1.005-1.159,1.875-1.101,2.862l0.038,0.482h-1.528l-0.038-0.502c-0.116-1.025,0.232-2.185,1.199-3.345
			c0.87-1.024,1.354-1.778,1.354-2.649c0-0.986-0.619-1.643-1.838-1.662c-0.695,0-1.469,0.231-1.952,0.599l-0.464-1.218
			C131.771,16.804,132.853,16.495,133.877,16.495 M133.588,27.554c0.696,0,1.141,0.503,1.141,1.218c0,0.677-0.444,1.199-1.16,1.199
			c-0.657,0-1.121-0.522-1.121-1.199C132.447,28.057,132.931,27.554,133.588,27.554 M133.877,16.205
			c-1.069,0-2.22,0.324-2.931,0.826c-0.108,0.077-0.151,0.217-0.104,0.341l0.464,1.218c0.033,0.086,0.104,0.151,0.191,0.176
			c0.026,0.008,0.054,0.011,0.08,0.011c0.063,0,0.125-0.02,0.176-0.059c0.425-0.323,1.139-0.54,1.776-0.54
			c0.996,0.016,1.548,0.503,1.548,1.372c0,0.793-0.471,1.503-1.284,2.461c-0.963,1.156-1.4,2.388-1.267,3.566l0.037,0.491
			c0.011,0.151,0.138,0.269,0.289,0.269h1.528c0.081,0,0.158-0.033,0.213-0.093s0.083-0.14,0.076-0.22l-0.038-0.483
			c-0.056-0.935,0.254-1.73,1.033-2.651c0.981-1.165,1.731-2.165,1.731-3.551C137.396,17.778,136.309,16.205,133.877,16.205
			L133.877,16.205z M133.588,27.264c-0.829,0-1.431,0.634-1.431,1.508c0,0.85,0.606,1.489,1.411,1.489
			c0.841,0,1.45-0.626,1.45-1.489C135.019,27.884,134.431,27.264,133.588,27.264L133.588,27.264z"/>
	</g>
</g>
<g>
	<g>
		<path fill="#563F32" d="M96.193,30.116c-0.722,0-1.267-0.578-1.267-1.345c0-0.79,0.541-1.363,1.286-1.363
			c0.769,0,1.286,0.548,1.286,1.363C97.499,29.563,96.962,30.116,96.193,30.116z M95.478,26.19c-0.076,0-0.139-0.059-0.145-0.135
			l-0.038-0.502c-0.129-1.132,0.297-2.327,1.232-3.449c0.836-0.985,1.319-1.718,1.319-2.556c0-0.961-0.602-1.5-1.694-1.517
			c-0.676,0-1.407,0.224-1.862,0.57c-0.025,0.019-0.057,0.029-0.088,0.029c-0.014,0-0.026-0.002-0.04-0.005
			c-0.044-0.013-0.079-0.045-0.096-0.088l-0.464-1.218c-0.023-0.062-0.002-0.132,0.052-0.17c0.688-0.485,1.806-0.799,2.848-0.799
			c2.491,0,3.375,1.609,3.375,2.987c0,1.34-0.704,2.278-1.697,3.458c-0.807,0.953-1.125,1.778-1.067,2.759l0.038,0.479
			c0.003,0.041-0.011,0.08-0.038,0.11c-0.027,0.029-0.066,0.047-0.106,0.047H95.478z"/>
		<path fill="#CDB8AB" d="M96.502,16.495c2.225,0,3.229,1.373,3.229,2.842c0,1.314-0.734,2.262-1.663,3.364
			c-0.851,1.005-1.159,1.875-1.101,2.862l0.038,0.482h-1.528l-0.038-0.502c-0.116-1.025,0.232-2.185,1.199-3.345
			c0.87-1.024,1.354-1.778,1.354-2.649c0-0.986-0.619-1.643-1.838-1.662c-0.695,0-1.469,0.231-1.952,0.599l-0.464-1.218
			C94.396,16.804,95.478,16.495,96.502,16.495 M96.213,27.554c0.696,0,1.141,0.503,1.141,1.218c0,0.677-0.444,1.199-1.16,1.199
			c-0.657,0-1.121-0.522-1.121-1.199C95.072,28.057,95.556,27.554,96.213,27.554 M96.502,16.205c-1.069,0-2.22,0.324-2.931,0.826
			c-0.108,0.077-0.151,0.217-0.104,0.341l0.464,1.218c0.033,0.086,0.104,0.151,0.191,0.176c0.026,0.008,0.054,0.011,0.08,0.011
			c0.063,0,0.125-0.02,0.176-0.059c0.425-0.323,1.139-0.54,1.776-0.54c0.996,0.016,1.548,0.503,1.548,1.372
			c0,0.793-0.471,1.503-1.284,2.461c-0.963,1.156-1.4,2.388-1.267,3.566l0.037,0.491c0.011,0.151,0.138,0.269,0.289,0.269h1.528
			c0.081,0,0.158-0.033,0.213-0.093c0.056-0.06,0.083-0.14,0.076-0.22l-0.038-0.483c-0.056-0.935,0.254-1.73,1.033-2.651
			c0.981-1.165,1.731-2.165,1.731-3.551C100.021,17.778,98.934,16.205,96.502,16.205L96.502,16.205z M96.213,27.264
			c-0.829,0-1.431,0.634-1.431,1.508c0,0.85,0.606,1.489,1.411,1.489c0.841,0,1.45-0.626,1.45-1.489
			C97.644,27.884,97.056,27.264,96.213,27.264L96.213,27.264z"/>
	</g>
</g>
<g>
	<g>
		<path fill="#563F32" d="M58.068,30.116c-0.722,0-1.266-0.578-1.266-1.345c0-0.79,0.541-1.363,1.286-1.363
			c0.769,0,1.286,0.548,1.286,1.363C59.374,29.563,58.837,30.116,58.068,30.116z M57.353,26.19c-0.076,0-0.139-0.059-0.145-0.135
			l-0.038-0.502c-0.128-1.132,0.297-2.327,1.232-3.449c0.836-0.985,1.32-1.718,1.32-2.556c0-0.961-0.602-1.5-1.695-1.517
			c-0.675,0-1.407,0.224-1.862,0.57c-0.025,0.019-0.057,0.029-0.088,0.029c-0.013,0-0.027-0.002-0.04-0.005
			c-0.044-0.013-0.079-0.045-0.096-0.088l-0.464-1.218c-0.023-0.062-0.002-0.132,0.052-0.17c0.688-0.485,1.806-0.799,2.847-0.799
			c2.491,0,3.375,1.609,3.375,2.987c0,1.34-0.703,2.278-1.697,3.458c-0.806,0.953-1.125,1.778-1.066,2.759l0.038,0.479
			c0.003,0.041-0.01,0.08-0.038,0.11c-0.027,0.029-0.066,0.047-0.106,0.047H57.353z"/>
		<path fill="#CDB8AB" d="M58.377,16.495c2.225,0,3.229,1.373,3.229,2.842c0,1.314-0.734,2.262-1.663,3.364
			c-0.851,1.005-1.159,1.875-1.101,2.862l0.038,0.482h-1.528l-0.038-0.502c-0.116-1.025,0.232-2.185,1.199-3.345
			c0.87-1.024,1.354-1.778,1.354-2.649c0-0.986-0.619-1.643-1.838-1.662c-0.695,0-1.469,0.231-1.952,0.599l-0.464-1.218
			C56.271,16.804,57.353,16.495,58.377,16.495 M58.088,27.554c0.696,0,1.141,0.503,1.141,1.218c0,0.677-0.444,1.199-1.16,1.199
			c-0.657,0-1.121-0.522-1.121-1.199C56.947,28.057,57.431,27.554,58.088,27.554 M58.377,16.205c-1.069,0-2.22,0.324-2.931,0.826
			c-0.108,0.077-0.151,0.217-0.104,0.341l0.464,1.218c0.032,0.086,0.104,0.151,0.191,0.176c0.026,0.008,0.053,0.011,0.08,0.011
			c0.063,0,0.125-0.02,0.176-0.059c0.424-0.323,1.138-0.54,1.776-0.54c0.997,0.016,1.548,0.503,1.548,1.372
			c0,0.793-0.471,1.503-1.285,2.461c-0.962,1.156-1.4,2.388-1.267,3.566l0.037,0.491c0.012,0.151,0.138,0.269,0.29,0.269h1.528
			c0.081,0,0.158-0.033,0.213-0.093c0.055-0.06,0.083-0.14,0.077-0.22l-0.039-0.483c-0.055-0.935,0.253-1.73,1.033-2.651
			c0.981-1.165,1.731-2.165,1.731-3.551C61.896,17.778,60.809,16.205,58.377,16.205L58.377,16.205z M58.088,27.264
			c-0.829,0-1.431,0.634-1.431,1.508c0,0.85,0.606,1.489,1.411,1.489c0.84,0,1.45-0.626,1.45-1.489
			C59.519,27.884,58.93,27.264,58.088,27.264L58.088,27.264z"/>
	</g>
</g>
<g>
	<g>
		<path fill="#563F32" d="M20.068,30.116c-0.722,0-1.266-0.578-1.266-1.345c0-0.79,0.541-1.363,1.286-1.363
			c0.769,0,1.286,0.548,1.286,1.363C21.374,29.563,20.837,30.116,20.068,30.116z M19.353,26.19c-0.076,0-0.139-0.059-0.145-0.135
			l-0.038-0.502c-0.128-1.132,0.297-2.327,1.232-3.449c0.836-0.985,1.32-1.718,1.32-2.556c0-0.961-0.602-1.5-1.695-1.517
			c-0.675,0-1.407,0.224-1.862,0.57c-0.025,0.019-0.057,0.029-0.088,0.029c-0.013,0-0.027-0.002-0.04-0.005
			c-0.044-0.013-0.079-0.045-0.096-0.088l-0.464-1.218c-0.023-0.062-0.002-0.132,0.052-0.17c0.688-0.485,1.806-0.799,2.847-0.799
			c2.491,0,3.375,1.609,3.375,2.987c0,1.34-0.703,2.278-1.697,3.458c-0.806,0.953-1.125,1.778-1.066,2.759l0.038,0.479
			c0.003,0.041-0.01,0.08-0.038,0.11c-0.027,0.029-0.066,0.047-0.106,0.047H19.353z"/>
		<path fill="#CDB8AB" d="M20.377,16.495c2.225,0,3.229,1.373,3.229,2.842c0,1.314-0.734,2.262-1.663,3.364
			c-0.851,1.005-1.159,1.875-1.101,2.862l0.038,0.482h-1.528l-0.038-0.502c-0.116-1.025,0.232-2.185,1.199-3.345
			c0.87-1.024,1.354-1.778,1.354-2.649c0-0.986-0.619-1.643-1.838-1.662c-0.695,0-1.469,0.231-1.952,0.599l-0.464-1.218
			C18.271,16.804,19.353,16.495,20.377,16.495 M20.088,27.554c0.696,0,1.141,0.503,1.141,1.218c0,0.677-0.444,1.199-1.16,1.199
			c-0.657,0-1.121-0.522-1.121-1.199C18.947,28.057,19.431,27.554,20.088,27.554 M20.377,16.205c-1.069,0-2.22,0.324-2.931,0.826
			c-0.108,0.077-0.151,0.217-0.104,0.341l0.464,1.218c0.032,0.086,0.104,0.151,0.191,0.176c0.026,0.008,0.053,0.011,0.08,0.011
			c0.063,0,0.125-0.02,0.176-0.059c0.424-0.323,1.138-0.54,1.776-0.54c0.997,0.016,1.548,0.503,1.548,1.372
			c0,0.793-0.471,1.503-1.285,2.461c-0.962,1.156-1.4,2.388-1.267,3.566l0.037,0.491c0.012,0.151,0.138,0.269,0.29,0.269h1.528
			c0.081,0,0.158-0.033,0.213-0.093c0.055-0.06,0.083-0.14,0.077-0.22l-0.039-0.483c-0.055-0.935,0.253-1.73,1.033-2.651
			c0.981-1.165,1.731-2.165,1.731-3.551C23.896,17.778,22.809,16.205,20.377,16.205L20.377,16.205z M20.088,27.264
			c-0.829,0-1.431,0.634-1.431,1.508c0,0.85,0.606,1.489,1.411,1.489c0.84,0,1.45-0.626,1.45-1.489
			C21.519,27.884,20.93,27.264,20.088,27.264L20.088,27.264z"/>
	</g>
</g>
</svg>
