<?xml version="1.0" encoding="utf-8"?>
<!-- Generator: Adobe Illustrator 15.0.0, SVG Export Plug-In . SVG Version: 6.00 Build 0)  -->
<!DOCTYPE svg PUBLIC "-//W3C//DTD SVG 1.1//EN" "http://www.w3.org/Graphics/SVG/1.1/DTD/svg11.dtd">
<svg version="1.1" id="Layer_1" xmlns="http://www.w3.org/2000/svg" xmlns:xlink="http://www.w3.org/1999/xlink" x="0px" y="0px"
	 width="16px" height="30px" viewBox="12 5 16 30" enable-background="new 12 5 16 30" xml:space="preserve">
<g>
	<path fill="#CDB8AB" d="M16.126,25.101l-0.042-1.119c-0.129-2.195,0.602-4.433,2.54-6.714c1.377-1.678,2.497-3.099,2.497-4.519
		c0-1.507-0.99-2.54-3.142-2.582c-1.42,0-3.142,0.516-4.261,1.292l-1.465-4.693C13.846,5.86,16.385,5,19.44,5
		c5.682,0,8.308,3.142,8.308,6.714c0,3.271-2.066,5.423-3.702,7.231c-1.549,1.766-2.238,3.443-2.196,5.382v0.773H16.126z
		 M15.215,31.083c0-2.325,1.593-3.917,3.832-3.917c2.324,0,3.83,1.592,3.875,3.917c0,2.238-1.508,3.917-3.875,3.917
		C16.765,35,15.215,33.322,15.215,31.083z"/>
</g>
</svg>
