<?xml version="1.0" encoding="utf-8"?>
<!-- Generator: Adobe Illustrator 15.0.0, SVG Export Plug-In . SVG Version: 6.00 Build 0)  -->
<!DOCTYPE svg PUBLIC "-//W3C//DTD SVG 1.1//EN" "http://www.w3.org/Graphics/SVG/1.1/DTD/svg11.dtd">
<svg version="1.1" id="Layer_1" xmlns="http://www.w3.org/2000/svg" xmlns:xlink="http://www.w3.org/1999/xlink" x="0px" y="0px"
	 width="45px" height="30px" viewBox="0 0 45 30" enable-background="new 0 0 45 30" xml:space="preserve">
<g>
	<path fill="#cdb8ab" d="M44.462,16.029c-0.134-0.176-0.291-0.334-0.471-0.47c-0.718-0.541-1.659-0.613-2.511-0.407
		c-1.95,0.473-2.697,1.812-3.869,3.315c-0.801,1.029-4.156,0.766-5.902,0.511c-1.132-0.166-2.22-0.175-3.35,0.049
		c-1.108,0.22-2.18,0.582-3.228,1.002c-0.601,0.241-1.195,0.498-1.79,0.754l-0.543,0.233c-1.54,0.657-3.193,1.108-5.36,1.465
		c-1.158,0.191-2.318,0.211-3.44,0.228c-0.637,0.011-1.295,0.021-1.937,0.064c-1.637,0.108-3.219,0.53-4.894,0.977
		c-1.301,0.348-2.646,0.707-4.012,0.9c-0.49,0.07-1.264,0.104-2.012,0.139C0.719,24.809,0.316,24.826,0,24.85l0.279,1.285
		c0,0,0.691-0.008,1.03-0.05c1.284-0.157,2.545-0.38,3.836-0.465c2.077-0.141,4.1-0.651,6.182-0.761
		c1.237-0.063,2.469-0.297,3.708-0.358c1.398-0.071,2.758-0.149,4.147-0.365c2.718-0.421,5.412-0.891,8.111-1.384
		c2.441-0.449,4.867-1.01,7.338-1.296c0.734-0.086,1.473-0.148,2.203-0.254c0.769-0.11,1.533-0.251,2.306-0.324
		c0.925-0.088,1.858-0.114,2.778-0.254c0.779-0.118,1.57-0.349,2.169-0.888c0.583-0.524,0.927-1.287,0.911-2.068
		C44.955,15.545,44.814,16.494,44.462,16.029z"/>
	<path fill="#cdb8ab" d="M38.699,14.947c0.575-0.628,2.594-0.87,3.548-0.914c0.528-0.028,1.241,0.067,1.942,0.262
		c-0.619-1.217-1.56-2.254-2.561-3.176c-0.643-0.592-1.381-1.09-2.059-1.641c-0.783-0.637-1.528-1.153-2.414-1.643
		c-1.889-1.042-3.893-1.947-5.887-2.763c-1.767-0.725-3.654-1.036-5.549-1.138c-1.668-0.088-3.693-0.315-4.916,1.067
		c-0.572,0.646-1.104,1.413-1.446,2.208c-0.184,0.432-0.34,0.802-0.568,1.152c1.414-0.193,2.999-0.391,4.055-0.492
		c4.314-0.41,7.632,0.16,9.864,1.696c0.187,0.128,0.371,0.259,0.556,0.391c0.564,0.4,1.148,0.813,1.744,1.124
		c0.262,0.137,0.525,0.269,0.788,0.399c0.594,0.297,0.687,0.438,1.289,0.785c0.583,0.336,1.209,1.501,1.509,2.452"/>
	<path fill="#cdb8ab" d="M1.461,24.851c0.038-0.007,0.081-0.021,0.126-0.038c-0.043,0.014-0.083,0.023-0.124,0.036
		C1.463,24.85,1.462,24.85,1.461,24.851z"/>
	<path fill="#cdb8ab" d="M21.232,8.025c0.097-0.234,0.13-0.398,0.004-0.398l-0.209,0.2C21.096,7.889,21.164,7.956,21.232,8.025z"/>
	<path fill="#cdb8ab" d="M19.737,7.682l-0.178-0.021c-0.154,0-0.428,0.36-0.768,0.702c-0.34,0.342-4.178,3.357-5.583,4.337
		c-2.606,1.821-5.216,3.727-7.578,5.866c-1.567,1.417-3.314,3.568-4.312,4.744C1.064,23.61,0.071,24.771,0,24.85
		c0.145-0.006,0.692,0.152,1.002,0.107c0.133-0.019,0.291-0.059,0.461-0.108c0.791-0.945,4.057-4.582,4.964-5.402
		c2.383-2.158,4.994-4.05,7.459-5.772c1.392-0.971,4.024-3.053,5.374-4.159l1.766-1.688C20.673,7.518,20.281,7.355,19.737,7.682z"/>
	<path fill="#cdb8ab" d="M43.678,13.428c0,0,1.018,1.57,1.249,2.846c0.231,1.274-1,0.934-1,0.934s-0.203-2.226-1.429-3.625"/>
	<path fill="#cdb8ab" d="M43.406,15.127c0,0-0.908-1.63-4.707-0.18c0.162-0.758,0.065-1.464,0.065-1.464l4.179-0.139L43.406,15.127z
		"/>
	<g>
		<g>
			<path fill="#cdb8ab" d="M26.238,14.769c-0.009-0.012-0.02-0.024-0.027-0.037c-0.008,0.265-0.104,0.527-0.295,0.763
				c-0.397,0.486-0.998,0.757-1.535,0.957c-0.653,0.245-1.375,0.42-2.271,0.551c-0.285,0.042-0.581,0.078-0.88,0.105
				c-0.519,0.049-1.052,0.078-1.629,0.088c-0.964,0.015-2.163,0.035-3.288-0.12c-0.508-0.07-0.897-0.229-1.19-0.488
				c-0.104-0.093-0.197-0.206-0.272-0.326c0.004,0.13,0.022,0.259,0.061,0.382c0.071,0.234,0.229,0.476,0.423,0.646
				c0.293,0.259,0.682,0.418,1.19,0.488c1.125,0.154,2.325,0.135,3.288,0.119c0.577-0.01,1.11-0.038,1.63-0.087
				c0.299-0.027,0.595-0.063,0.88-0.105c0.896-0.131,1.618-0.306,2.272-0.551c0.536-0.2,1.137-0.47,1.534-0.958
				C26.481,15.76,26.523,15.227,26.238,14.769z"/>
		</g>
		<path fill="#cdb8ab" d="M15.631,14.265c0.096-0.084,0.196-0.162,0.296-0.234c0.149-0.106,0.305-0.205,0.461-0.299
			c0.32-0.191,0.656-0.368,1.007-0.495c0.951-0.345,2.011-0.458,3.018-0.522c0.626-0.04,1.253-0.018,1.876,0.062
			c0.736,0.094,1.474,0.259,2.159,0.547c0.46,0.193,0.982,0.461,1.256,0.899c0.207,0.332,0.157,0.698-0.085,0.996
			c-0.34,0.417-0.884,0.66-1.376,0.845c-0.706,0.264-1.451,0.422-2.196,0.531c-0.815,0.119-1.639,0.175-2.462,0.188
			c-1.067,0.018-2.172,0.03-3.231-0.116c-0.357-0.049-0.72-0.155-0.996-0.398c-0.135-0.12-0.261-0.303-0.314-0.477
			c-0.109-0.356-0.019-0.743,0.18-1.051C15.334,14.57,15.478,14.399,15.631,14.265z M16.17,14.897
			c0.11,0.039,0.329,0.005,0.445,0.005c0.578,0,1.154-0.093,1.725-0.139c-0.219-0.119-0.525-0.107-0.728-0.244
			c0.188-0.035,0.381-0.088,0.567-0.14c0.218-0.06,0.434-0.165,0.652-0.213c0.193-0.042,0.351,0.173,0.553,0.183
			c-0.016-0.088,0.029-0.167,0.06-0.248c0.063-0.165,0.12-0.338,0.201-0.494c0.056-0.11,0.15-0.32,0.302-0.311
			c-0.295,0.036-0.603,0.174-0.893,0.248c-0.444,0.111-0.89,0.243-1.328,0.377c-0.421,0.128-0.832,0.272-1.236,0.443
			c-0.166,0.069-0.343,0.152-0.473,0.279C16.001,14.715,16.047,14.854,16.17,14.897z M19.132,15.352
			c-0.831,0.08-1.677,0.077-2.499,0.226c0.288,0.187,0.634,0.303,0.966,0.396c0.473,0.133,1.009,0.24,1.497,0.279
			c-0.023-0.092,0.146-0.245,0.196-0.321c0.074-0.113,0.181-0.235,0.232-0.358c-0.154,0.065-0.331,0.123-0.497,0.15
			c-0.099,0.017-0.307,0.065-0.386-0.011c0.042-0.106,0.204-0.136,0.298-0.188C19.007,15.487,19.108,15.47,19.132,15.352z
			 M20.685,15.159c0.028,0.235,0.006,0.465-0.002,0.698c-0.002,0.046-0.007,0.25,0.024,0.289c0.044,0.053,0.068,0.021,0.129,0.002
			c0.502-0.156,1.026-0.249,1.538-0.384c0.287-0.075,0.572-0.163,0.862-0.229c0.173-0.039,0.438-0.07,0.587-0.174
			c0.199-0.14-0.285-0.099-0.361-0.091c-0.365,0.034-0.694,0.106-1.048,0.2c-0.377,0.1-0.766,0.062-1.106-0.125
			c-0.251-0.139-0.026-0.273-0.323-0.228C20.98,15.14,20.674,15.141,20.685,15.159z M20.531,14.498
			c0.263-0.054,0.526-0.145,0.795-0.181c0.201-0.027,0.501-0.111,0.695-0.024c-0.078,0.063-0.272,0.106-0.291,0.222
			c0.095,0.039,0.231,0,0.332-0.009c0.179-0.016,0.358-0.007,0.537-0.015c0.384-0.019,0.771-0.049,1.146-0.135
			c0.081-0.019,0.347-0.068,0.309-0.201c-0.023-0.082-0.337-0.202-0.403-0.231c-0.499-0.226-1.083-0.353-1.628-0.365
			c-0.253-0.006-0.508,0.146-0.718,0.271c-0.13,0.078-0.356,0.116-0.381,0.283C20.817,14.18,20.512,14.351,20.531,14.498z"/>
	</g>
	<g>
		<path fill="none" stroke="#cdb8ab" stroke-width="0.7708" stroke-miterlimit="10" d="M35.031,14.792
			c-0.438-0.141-0.888-0.241-1.346-0.321c-0.258-0.046-0.516-0.087-0.774-0.134c-0.751-0.13-1.518-0.213-2.279-0.152
			c-0.218,0.018-0.434,0.047-0.647,0.092c-0.478,0.099-0.965,0.29-1.381,0.546c-0.671,0.412-0.974,0.979-0.527,1.676
			c0.521,0.818,1.72,1.06,2.613,1.15c1.371,0.141,2.745,0.109,4.107-0.114c0.51-0.084,1.031-0.19,1.523-0.354
			c0.236-0.078,0.666-0.2,0.775-0.464c0.068-0.167,0.036-0.423-0.035-0.582c-0.157-0.351-0.486-0.604-0.807-0.796
			C35.863,15.104,35.453,14.93,35.031,14.792z"/>
		<path fill="none" stroke="#cdb8ab" stroke-width="0.7708" stroke-miterlimit="10" d="M29.277,15.114
			c-0.185,0.108-0.168,0.125-0.141,0.292s0.217,0.067,0.315,0.004c0.1-0.064,0.149-0.176,0.134-0.275
			C29.569,15.034,29.463,15.006,29.277,15.114z"/>
		<path fill="none" stroke="#cdb8ab" stroke-width="0.7708" stroke-miterlimit="10" d="M31.887,15.893
			c-0.152,0.091-0.138,0.107-0.103,0.271s0.192,0.08,0.274,0.024c0.082-0.055,0.118-0.158,0.097-0.256
			C32.135,15.834,32.039,15.801,31.887,15.893z"/>
		<path fill="none" stroke="#cdb8ab" stroke-width="0.7708" stroke-miterlimit="10" d="M35.872,16.156
			c-0.169,0.025-0.353,0.123-0.251,0.177c0.104,0.054,0.375,0.079,0.521,0.042C36.289,16.339,35.955,16.145,35.872,16.156z"/>
		<path fill="none" stroke="#cdb8ab" stroke-width="0.7708" stroke-miterlimit="10" d="M31.74,14.764
			c-0.17,0.024-0.354,0.123-0.25,0.178c0.102,0.053,0.374,0.079,0.521,0.042C32.158,14.945,31.823,14.752,31.74,14.764z"/>
		<path fill="none" stroke="#cdb8ab" stroke-width="0.7708" stroke-miterlimit="10" d="M30.186,16.789
			c0.102-0.012,0.312,0.034,0.365-0.071c0.055-0.106,0.146-0.234-0.086-0.234c-0.23-0.001-0.504,0.158-0.434,0.194
			C30.103,16.715,30.186,16.789,30.186,16.789z"/>
		<path fill="none" stroke="#cdb8ab" stroke-width="0.7708" stroke-miterlimit="10" d="M33.512,17.076
			c0.149-0.028,0.558-0.06,0.566-0.113c0.009-0.055-0.282-0.283-0.32-0.279c-0.039,0.005-0.27,0.158-0.333,0.176
			C33.362,16.876,33.428,17.092,33.512,17.076z"/>
		<path fill="none" stroke="#cdb8ab" stroke-width="0.7708" stroke-miterlimit="10" d="M33.915,15.308
			c0.104-0.04,0.312,0.089,0.343,0.086c0.032-0.003,0.015,0.246-0.247,0.209c-0.263-0.036-0.338-0.036-0.378-0.108
			C33.594,15.421,33.915,15.308,33.915,15.308z"/>
	</g>
	<g>
		<path fill="none" stroke="#cdb8ab" stroke-width="0.6108" stroke-miterlimit="10" d="M6.908,20.129
			c0.339-0.133,0.69-0.233,1.048-0.319c0.202-0.049,0.405-0.094,0.606-0.143c0.587-0.14,1.19-0.242,1.796-0.23
			c0.173,0.003,0.345,0.017,0.516,0.041c0.383,0.055,0.777,0.183,1.12,0.365c0.55,0.294,0.817,0.727,0.498,1.3
			c-0.374,0.673-1.31,0.922-2.012,1.036c-1.077,0.178-2.166,0.219-3.254,0.108C6.817,22.245,6.4,22.186,6.002,22.08
			c-0.19-0.052-0.536-0.127-0.635-0.33c-0.063-0.129-0.05-0.332-0.001-0.461c0.108-0.285,0.356-0.503,0.6-0.67
			C6.264,20.417,6.58,20.258,6.908,20.129z"/>
		<path fill="none" stroke="#cdb8ab" stroke-width="0.6108" stroke-miterlimit="10" d="M11.474,20.106
			c0.151,0.077,0.139,0.091,0.126,0.225c-0.014,0.133-0.168,0.063-0.25,0.017c-0.082-0.045-0.127-0.131-0.119-0.211
			C11.239,20.058,11.323,20.029,11.474,20.106z"/>
		<path fill="none" stroke="#cdb8ab" stroke-width="0.6108" stroke-miterlimit="10" d="M9.448,20.847
			c0.125,0.065,0.114,0.079,0.094,0.21s-0.149,0.072-0.216,0.033c-0.067-0.039-0.101-0.12-0.089-0.197
			C9.25,20.813,9.323,20.781,9.448,20.847z"/>
		<path fill="none" stroke="#cdb8ab" stroke-width="0.6108" stroke-miterlimit="10" d="M6.308,21.248
			c0.135,0.013,0.285,0.081,0.207,0.128c-0.079,0.048-0.292,0.081-0.41,0.059S6.242,21.243,6.308,21.248z"/>
		<path fill="none" stroke="#cdb8ab" stroke-width="0.6108" stroke-miterlimit="10" d="M9.509,19.948
			c0.136,0.011,0.286,0.08,0.207,0.128c-0.078,0.048-0.292,0.079-0.41,0.059C9.188,20.112,9.443,19.942,9.509,19.948z"/>
		<path fill="none" stroke="#cdb8ab" stroke-width="0.6108" stroke-miterlimit="10" d="M10.836,21.476
			c-0.081-0.005-0.244,0.042-0.292-0.04s-0.126-0.178,0.057-0.189c0.183-0.011,0.406,0.102,0.353,0.134
			C10.899,21.411,10.836,21.476,10.836,21.476z"/>
		<path fill="none" stroke="#cdb8ab" stroke-width="0.6108" stroke-miterlimit="10" d="M8.219,21.862
			c-0.119-0.016-0.444-0.02-0.453-0.062c-0.009-0.044,0.21-0.238,0.241-0.237s0.221,0.112,0.271,0.123
			C8.328,21.697,8.287,21.87,8.219,21.862z"/>
		<path fill="none" stroke="#cdb8ab" stroke-width="0.6108" stroke-miterlimit="10" d="M7.815,20.483
			c-0.084-0.027-0.242,0.086-0.267,0.084c-0.026-0.001,0,0.195,0.206,0.153c0.206-0.041,0.265-0.045,0.293-0.104
			C8.075,20.557,7.815,20.483,7.815,20.483z"/>
	</g>
	<g>
		<path fill="#cdb8ab" d="M21.373,12.279c-0.82,0-1.521-0.391-1.628-0.604c-0.02-0.039-0.019-0.125,0.007-0.16
			c0.206-0.317,1.173-0.91,1.65-1.18c-0.354-0.195-0.843-0.589-0.691-1.011c0.154-0.428,0.669-0.589,0.978-0.685l0.106-0.034
			c0.194-0.064,0.69-0.129,1.266-0.129c0.297,0,0.613,0.018,0.917,0.061c0.991,0.14,1.491,0.826,1.617,1.169
			c0.174,0.476-0.001,0.847-0.317,1.256c-0.266,0.345-0.864,0.382-1.109,0.382c-0.155,0-0.309-0.014-0.422-0.038
			c-0.262-0.055-0.462-0.154-0.716-0.28l-0.242-0.118c-0.636,0.267-0.853,1.227-0.854,1.236c-0.01,0.046-0.046,0.081-0.092,0.089
			C21.682,12.266,21.524,12.279,21.373,12.279z M22.104,9.672c0.116,0,0.269,0.047,0.337,0.077c0.148,0.065,0.223,0.145,0.223,0.239
			c0,0.056-0.026,0.133-0.151,0.189c-0.101,0.045-1.006,0.451-1.578,0.809c-0.544,0.341-0.615,0.41-0.668,0.484
			c-0.048,0.079-0.037,0.12,0.104,0.191c0.308,0.154,0.631,0.315,1.06,0.315c0.041,0,0.083-0.001,0.127-0.004
			c0.026-0.099,0.094-0.259,0.263-0.496c0.17-0.24,0.625-0.818,1.149-0.989c0.289-0.094,0.495-0.138,0.65-0.138
			c0.059,0,0.112,0.006,0.162,0.019c0.053,0.013,0.146,0.112,0.144,0.167c-0.004,0.14-0.181,0.243-0.356,0.285
			c0.014,0.004,0.026,0.008,0.041,0.012c0.206,0.057,0.483,0.132,0.749,0.132c0.166,0,0.304-0.031,0.411-0.091
			c0.268-0.151,0.564-0.435,0.458-0.923c-0.11-0.503-0.519-0.843-1.182-0.983c-0.465-0.099-0.823-0.16-1.167-0.16
			c-0.223,0-0.438,0.025-0.676,0.08c-0.636,0.146-1.041,0.413-1.075,0.495c-0.012,0.104,0.065,0.353,0.314,0.458
			c0.201,0.085,0.421,0.148,0.523,0.148c-0.088-0.065-0.101-0.149-0.064-0.217C21.927,9.726,21.981,9.672,22.104,9.672z"/>
		<path fill="#cdb8ab" d="M23.061,8.593c0.292,0,0.603,0.017,0.9,0.059c0.871,0.123,1.387,0.717,1.525,1.095
			c0.143,0.391,0.037,0.708-0.301,1.146c-0.2,0.26-0.653,0.337-1.018,0.337c-0.159,0-0.301-0.015-0.398-0.035
			c-0.32-0.067-0.546-0.206-0.932-0.389c-0.793,0.287-1.017,1.316-1.017,1.316c-0.153,0.028-0.303,0.041-0.448,0.041
			c-0.905,0-1.594-0.489-1.528-0.579c0.216-0.333,1.445-1.066,1.812-1.255c-0.262-0.099-0.989-0.542-0.837-0.965
			c0.152-0.423,0.733-0.555,1.012-0.648C22.016,8.655,22.502,8.593,23.061,8.593 M21.967,10.103c0.098,0,0.143-0.04,0.072-0.147
			c-0.083-0.128-0.027-0.167,0.065-0.167c0.097,0,0.233,0.042,0.292,0.067c0.114,0.05,0.24,0.141,0.07,0.216
			c-0.169,0.075-1.039,0.47-1.593,0.816c-0.555,0.348-0.635,0.423-0.701,0.515c-0.065,0.092-0.168,0.204,0.147,0.362
			c0.275,0.137,0.627,0.327,1.112,0.327c0.073,0,0.148-0.004,0.228-0.014c0,0-0.016-0.153,0.256-0.535
			c0.272-0.384,0.682-0.813,1.09-0.946c0.294-0.096,0.48-0.132,0.614-0.132c0.052,0,0.096,0.005,0.135,0.015
			c0.14,0.034-0.001,0.188-0.247,0.234c-0.087,0.017-0.161,0.022-0.221,0.022c-0.108,0-0.167-0.018-0.167-0.018
			s0.137,0.136,0.459,0.225c0.203,0.055,0.497,0.136,0.78,0.136c0.167,0,0.33-0.028,0.468-0.106c0.372-0.211,0.62-0.563,0.515-1.049
			c-0.106-0.484-0.477-0.904-1.271-1.072c-0.48-0.102-0.841-0.162-1.191-0.162c-0.229,0-0.452,0.026-0.702,0.083
			c-0.631,0.145-1.144,0.439-1.162,0.587c-0.019,0.148,0.076,0.456,0.382,0.586C21.579,10.022,21.827,10.103,21.967,10.103
			 M23.061,8.361c-0.527,0-1.062,0.055-1.301,0.135L21.654,8.53c-0.329,0.103-0.878,0.274-1.052,0.756
			c-0.158,0.439,0.231,0.819,0.576,1.047c-0.5,0.292-1.321,0.808-1.527,1.125c-0.045,0.069-0.047,0.196-0.01,0.27
			c0.135,0.266,0.894,0.667,1.732,0.667c0.165,0,0.33-0.015,0.49-0.045c0.091-0.017,0.164-0.087,0.184-0.178
			c0.002-0.009,0.191-0.83,0.783-1.112l0.149,0.072c0.261,0.129,0.467,0.231,0.743,0.289c0.123,0.026,0.281,0.04,0.446,0.04
			c0.325,0,0.915-0.055,1.201-0.427c0.294-0.38,0.538-0.81,0.335-1.366c-0.188-0.51-0.802-1.116-1.711-1.245
			C23.707,8.382,23.394,8.361,23.061,8.361L23.061,8.361z M21.247,9.419c0.091-0.087,0.449-0.298,0.983-0.421
			c0.229-0.052,0.436-0.077,0.65-0.077c0.333,0,0.685,0.061,1.143,0.157c0.623,0.132,0.99,0.433,1.092,0.896
			c0.073,0.336-0.063,0.604-0.402,0.797c-0.089,0.05-0.208,0.076-0.354,0.076c-0.151,0-0.31-0.027-0.454-0.06
			c0.08-0.066,0.134-0.151,0.137-0.25c0.002-0.104-0.057-0.239-0.232-0.282c-0.059-0.015-0.121-0.021-0.189-0.021
			c-0.17,0-0.382,0.044-0.686,0.144c-0.557,0.181-1.03,0.782-1.208,1.032c-0.136,0.191-0.212,0.339-0.254,0.451
			c-0.014,0-0.027,0-0.041,0c-0.402,0-0.698-0.148-0.96-0.279l-0.049-0.024c-0.022-0.011-0.04-0.021-0.054-0.03
			c0.042-0.056,0.13-0.132,0.628-0.443c0.565-0.354,1.463-0.756,1.564-0.801c0.192-0.085,0.22-0.221,0.22-0.294
			c0-0.1-0.051-0.24-0.292-0.345c-0.071-0.03-0.241-0.086-0.385-0.086c-0.189,0-0.271,0.099-0.303,0.158
			c-0.017,0.03-0.031,0.069-0.034,0.117c-0.087-0.025-0.186-0.06-0.278-0.099C21.313,9.657,21.256,9.496,21.247,9.419L21.247,9.419z
			"/>
	</g>
	<g>
		<path fill="#cdb8ab" d="M16.964,21.971c-0.379,0-1.311-0.146-2.106-0.46c-0.959-0.381-1.294-1.188-1.337-1.563
			c-0.061-0.519,0.204-0.847,0.62-1.182c0.153-0.124,0.371-0.187,0.648-0.187c0.362,0,0.756,0.109,0.97,0.211
			c0.246,0.116,0.42,0.262,0.641,0.446l0.222,0.183c0.698-0.114,1.149-1.022,1.153-1.031c0.02-0.042,0.062-0.067,0.107-0.067
			c0.002,0,0.004,0,0.006,0c1.063,0.055,1.865,0.766,1.959,1.044c0.016,0.047-0.002,0.149-0.04,0.181
			c-0.281,0.267-1.394,0.628-1.937,0.783c0.307,0.28,0.702,0.794,0.448,1.18c-0.258,0.393-0.815,0.429-1.148,0.45
			C17.17,21.959,16.967,21.971,16.964,21.971z M14.812,18.956c-0.066,0-0.129,0.009-0.186,0.024c-0.305,0.088-0.67,0.3-0.681,0.813
			c-0.012,0.531,0.315,0.971,0.945,1.271c0.75,0.357,1.191,0.518,1.826,0.524c0.001,0,0.001,0,0.002,0
			c0.691,0,1.144-0.167,1.193-0.237c0.038-0.101,0.02-0.368-0.203-0.534c-0.226-0.166-0.449-0.278-0.516-0.278
			c0.073,0.017,0.114,0.132,0.051,0.221c-0.022,0.031-0.119,0.075-0.157,0.075c-0.142,0-0.341-0.124-0.399-0.168
			c-0.131-0.099-0.188-0.2-0.166-0.294c0.013-0.057,0.058-0.128,0.197-0.153c0.112-0.021,1.114-0.206,1.775-0.429
			c0.611-0.206,0.712-0.259,0.785-0.322c0.068-0.068,0.065-0.114-0.058-0.219c-0.294-0.247-0.609-0.513-1.114-0.597
			c-0.05,0.093-0.156,0.237-0.382,0.435c-0.229,0.199-0.824,0.668-1.389,0.713c-0.128,0.01-0.236,0.015-0.33,0.015
			c-0.231,0-0.39-0.028-0.513-0.092c-0.049-0.025-0.118-0.144-0.104-0.197c0.034-0.141,0.238-0.203,0.425-0.203
			c0,0-0.023-0.015-0.036-0.021C15.527,19.163,15.152,18.956,14.812,18.956z"/>
		<path fill="#cdb8ab" d="M17.882,18.44c1.166,0.06,1.951,0.928,1.848,1.015c-0.296,0.281-1.703,0.719-2.117,0.819
			c0.239,0.162,0.86,0.781,0.605,1.169c-0.254,0.387-0.868,0.379-1.17,0.404c-0.024,0.002-0.053,0.003-0.085,0.003
			c-0.376,0-1.288-0.146-2.063-0.451c-0.841-0.334-1.215-1.054-1.262-1.465c-0.05-0.427,0.133-0.719,0.576-1.075
			c0.145-0.117,0.354-0.16,0.573-0.16c0.352,0,0.731,0.11,0.918,0.199c0.305,0.145,0.497,0.339,0.84,0.614
			C17.41,19.416,17.882,18.44,17.882,18.44 M16.008,19.696c-0.23,0-0.363-0.03-0.458-0.079c-0.125-0.064,0.029-0.175,0.266-0.175
			c0.013,0,0.025,0,0.038,0.001c0.258,0.013,0.389,0.089,0.389,0.089s-0.104-0.17-0.406-0.335c-0.251-0.139-0.653-0.36-1.025-0.36
			c-0.074,0-0.147,0.009-0.218,0.029c-0.423,0.121-0.757,0.413-0.767,0.925c-0.011,0.511,0.259,1.021,1.013,1.381
			c0.754,0.359,1.209,0.529,1.876,0.536c0.015,0,0.029,0,0.044,0c0.648,0,1.208-0.167,1.261-0.309
			c0.054-0.144,0.034-0.474-0.241-0.678c-0.186-0.138-0.46-0.302-0.586-0.302c-0.062,0-0.088,0.038-0.053,0.138
			c0.042,0.118,0.009,0.158-0.053,0.158c-0.097,0-0.266-0.098-0.328-0.145c-0.103-0.077-0.206-0.2-0.019-0.234
			c0.188-0.034,1.153-0.218,1.792-0.433c0.64-0.216,0.739-0.27,0.826-0.346c0.087-0.077,0.218-0.165-0.06-0.399
			c-0.278-0.233-0.643-0.563-1.266-0.637c0,0-0.021,0.157-0.386,0.476c-0.365,0.317-0.879,0.648-1.319,0.684
			C16.204,19.691,16.098,19.696,16.008,19.696 M17.882,18.202c-0.091,0-0.174,0.052-0.214,0.134
			c-0.004,0.008-0.392,0.785-1.053,0.925c-0.049-0.04-0.095-0.079-0.139-0.115c-0.228-0.189-0.408-0.34-0.667-0.463
			c-0.225-0.106-0.64-0.222-1.021-0.222c-0.305,0-0.548,0.071-0.723,0.213c-0.386,0.311-0.734,0.682-0.663,1.288
			c0.063,0.555,0.533,1.311,1.411,1.659c0.819,0.323,1.75,0.469,2.15,0.469c0.041,0,0.077-0.002,0.107-0.005l0.107-0.007
			c0.355-0.023,0.95-0.062,1.241-0.504c0.264-0.401-0.034-0.876-0.324-1.188c0.571-0.172,1.52-0.491,1.8-0.758
			c0.058-0.048,0.113-0.159,0.065-0.301c-0.104-0.311-0.933-1.067-2.065-1.125C17.891,18.202,17.886,18.202,17.882,18.202
			L17.882,18.202z M16.008,19.935c0.096,0,0.208-0.005,0.339-0.015c0.6-0.048,1.219-0.535,1.457-0.742
			c0.183-0.159,0.295-0.289,0.363-0.392c0.428,0.092,0.707,0.327,0.937,0.521l0.042,0.035c0.02,0.018,0.036,0.032,0.048,0.044
			c-0.053,0.044-0.156,0.097-0.737,0.292c-0.665,0.224-1.714,0.416-1.759,0.425c-0.213,0.038-0.274,0.169-0.292,0.243
			c-0.024,0.1-0.007,0.254,0.209,0.416c0.004,0.003,0.261,0.192,0.472,0.192c0.105,0,0.198-0.046,0.255-0.125
			c0.018-0.025,0.032-0.053,0.041-0.082c0.075,0.042,0.164,0.099,0.255,0.166c0.159,0.118,0.176,0.293,0.167,0.371
			c-0.107,0.063-0.5,0.186-1.044,0.186c-0.658-0.007-1.07-0.156-1.818-0.514c-0.593-0.282-0.888-0.672-0.877-1.16
			c0.009-0.44,0.328-0.624,0.594-0.7c0.046-0.014,0.098-0.02,0.153-0.02c0.214,0,0.459,0.099,0.664,0.199
			c-0.101,0.047-0.176,0.119-0.202,0.223c-0.024,0.102,0.005,0.248,0.167,0.331C15.581,19.902,15.756,19.935,16.008,19.935
			L16.008,19.935z"/>
	</g>
	<path fill="#cdb8ab" d="M23.387,19.53c-0.174,0.509-0.848,0.741-1.508,0.518c-0.659-0.225-1.053-0.819-0.88-1.329
		c0.173-0.509,0.848-0.74,1.507-0.517C23.165,18.426,23.559,19.02,23.387,19.53z M22.087,18.374
		c-0.264-0.09-0.534,0.004-0.604,0.208c-0.069,0.203,0.088,0.442,0.353,0.532c0.264,0.09,0.534-0.004,0.604-0.207
		C22.509,18.702,22.352,18.464,22.087,18.374z"/>
	<path fill="#cdb8ab" d="M12.862,18.334c-0.2,0.589-0.978,0.856-1.739,0.598c-0.76-0.258-1.215-0.944-1.015-1.533
		c0.199-0.588,0.978-0.854,1.739-0.596C12.607,17.06,13.063,17.745,12.862,18.334z M11.363,17.001
		c-0.305-0.104-0.617,0.004-0.697,0.239c-0.08,0.234,0.103,0.51,0.407,0.614c0.305,0.104,0.618-0.005,0.697-0.239
		C11.851,17.379,11.668,17.104,11.363,17.001z"/>
	<path fill="#cdb8ab" d="M29.238,9.871c-0.038,0.531-0.625,0.924-1.313,0.875c-0.688-0.048-1.214-0.518-1.177-1.05
		c0.037-0.531,0.624-0.923,1.312-0.874C28.748,8.87,29.274,9.34,29.238,9.871z M27.703,9.093c-0.275-0.02-0.512,0.138-0.525,0.352
		c-0.016,0.211,0.195,0.4,0.471,0.42c0.276,0.02,0.512-0.139,0.526-0.351C28.189,9.301,27.979,9.111,27.703,9.093z"/>
	
		<path fill="none" stroke="#cdb8ab" stroke-width="0.5699" stroke-linecap="round" stroke-linejoin="round" stroke-miterlimit="10" d="
		M33.967,11.473c-0.503,0.3-0.463,0.409-0.457,0.42c0.026,0.047,0.096,0.106,0.158,0.159c0.031,0.026,0.062,0.053,0.09,0.079
		c0.078,0.074,0.172,0.141,0.271,0.211c0.117,0.084,0.24,0.17,0.352,0.28c0.145,0.14,0.283,0.286,0.422,0.431
		c0.088,0.094,0.176,0.186,0.266,0.277c0.025,0.025,0.05,0.055,0.076,0.088c0.012,0.016,0.029,0.036,0.039,0.048
		c0.006,0.001,0.016,0.002,0.025,0.002c0.031,0,0.063-0.003,0.092-0.004c0.037-0.004,0.072-0.005,0.104-0.005
		c0.162,0,0.336,0.001,0.514,0.021c0.041,0.004,0.084,0.01,0.125,0.01c0.059,0,0.07-0.011,0.074-0.016
		c0.076-0.075,0.105-0.264,0.072-0.442c-0.029-0.028-0.113-0.069-0.159-0.093c-0.043-0.021-0.083-0.042-0.118-0.063
		c-0.097-0.058-0.191-0.117-0.285-0.178c-0.131-0.083-0.256-0.163-0.385-0.234c-0.227-0.126-0.35-0.297-0.346-0.479
		c0.002-0.05,0.016-0.125,0.064-0.201c-0.262-0.116-0.5-0.266-0.743-0.432C34.133,11.385,34.048,11.424,33.967,11.473z"/>
	
		<path fill="none" stroke="#cdb8ab" stroke-width="0.4748" stroke-linecap="round" stroke-linejoin="round" stroke-miterlimit="10" d="
		M24.756,18.492c0.053,0.485,0.148,0.492,0.159,0.492c0.044-0.004,0.114-0.036,0.175-0.064c0.031-0.014,0.063-0.027,0.092-0.04
		c0.084-0.034,0.166-0.082,0.254-0.133c0.104-0.06,0.213-0.122,0.334-0.169c0.156-0.06,0.315-0.114,0.474-0.168
		c0.101-0.034,0.202-0.07,0.304-0.105c0.026-0.01,0.059-0.019,0.092-0.026c0.016-0.004,0.037-0.01,0.051-0.013
		c0.002-0.005,0.006-0.011,0.01-0.02c0.01-0.023,0.02-0.047,0.027-0.07c0.012-0.029,0.022-0.058,0.033-0.081
		c0.057-0.122,0.117-0.253,0.194-0.381c0.019-0.029,0.037-0.061,0.052-0.092c0.02-0.044,0.016-0.056,0.014-0.062
		c-0.031-0.083-0.162-0.171-0.311-0.209c-0.031,0.013-0.091,0.063-0.125,0.089c-0.031,0.025-0.061,0.049-0.088,0.067
		c-0.077,0.054-0.156,0.104-0.234,0.154c-0.108,0.07-0.212,0.137-0.311,0.21c-0.176,0.128-0.347,0.161-0.483,0.095
		c-0.038-0.02-0.09-0.056-0.13-0.119c-0.18,0.156-0.376,0.286-0.586,0.412C24.748,18.337,24.747,18.413,24.756,18.492z"/>
	
		<path fill="none" stroke="#cdb8ab" stroke-width="0.6183" stroke-linecap="round" stroke-linejoin="round" stroke-miterlimit="10" d="
		M27.611,11.724c-0.242-0.03-0.543,0.054-0.787,0.08c-0.268,0.029-0.537,0.056-0.807,0.071c-0.395,0.024-0.791,0.03-1.184,0.061
		c-0.171,0.013-0.342,0.029-0.51,0.058c-0.068,0.013-0.479,0.163-0.512,0.141c0.264,0.181,0.523,0.343,0.807,0.469
		c-0.027-0.013,0.248-0.211,0.268-0.221c0.129-0.062,0.272-0.092,0.41-0.131c0.178-0.052,0.347-0.132,0.525-0.182
		c0.452-0.125,0.893-0.105,1.354-0.105c0.128,0,0.214-0.018,0.272-0.056C27.512,11.866,27.584,11.792,27.611,11.724z"/>
	
		<path fill="none" stroke="#cdb8ab" stroke-width="0.5787" stroke-linecap="round" stroke-linejoin="round" stroke-miterlimit="10" d="
		M14.98,13.372c-0.184,0.137-0.333,0.387-0.481,0.563c-0.163,0.192-0.328,0.386-0.5,0.57c-0.251,0.271-0.515,0.53-0.762,0.806
		c-0.106,0.119-0.211,0.24-0.307,0.37c-0.038,0.051-0.218,0.418-0.256,0.424c0.295-0.048,0.576-0.105,0.85-0.203
		c-0.027,0.009,0.032-0.304,0.039-0.323c0.048-0.125,0.125-0.237,0.192-0.354c0.088-0.149,0.149-0.313,0.239-0.462
		c0.225-0.377,0.535-0.647,0.847-0.947c0.087-0.083,0.134-0.15,0.148-0.213C15.005,13.532,15.006,13.436,14.98,13.372z"/>
	
		<path fill="none" stroke="#cdb8ab" stroke-width="0.5318" stroke-linecap="round" stroke-linejoin="round" stroke-miterlimit="10" d="
		M30.166,10.809c-0.104,0.049-0.195,0.11-0.266,0.186c-0.464,0.494-0.699,1.082-1.535,1.407c-0.695,0.271-0.611,0.519-0.611,0.519
		l2.947-0.105c0,0,0.771-0.653,1.137-1.413c0.107-0.225,0.242-0.487-0.14-0.616C31.234,10.63,30.587,10.615,30.166,10.809z"/>
</g>
</svg>
