<?xml version="1.0" encoding="utf-8"?>
<!-- Generator: Adobe Illustrator 16.0.0, SVG Export Plug-In . SVG Version: 6.00 Build 0)  -->
<!DOCTYPE svg PUBLIC "-//W3C//DTD SVG 1.1//EN" "http://www.w3.org/Graphics/SVG/1.1/DTD/svg11.dtd">
<svg version="1.1" id="MainLayer" xmlns="http://www.w3.org/2000/svg" xmlns:xlink="http://www.w3.org/1999/xlink" x="0px" y="0px"
	 width="53.869px" height="9.621px" viewBox="0 0 53.869 9.621" enable-background="new 0 0 53.869 9.621" xml:space="preserve">
<path id="Stroke" fill="#553E31" d="M4.812,0l1.485,3.167l3.324,0.508L7.215,6.141L7.782,9.62L4.81,7.977L1.836,9.621l0.568-3.48
	L0,3.677l3.322-0.509L4.812,0z M6.586,7.891l-0.338-2.08l1.438-1.478L5.696,4.03L4.81,2.14L3.922,4.03L1.934,4.333l1.439,1.478
	l-0.34,2.08l1.775-0.98L6.586,7.891z M15.873,0l1.486,3.167l3.323,0.508l-2.404,2.465l0.568,3.479l-2.974-1.646L12.898,9.62
	l0.565-3.479l-2.4-2.465l3.322-0.508L15.873,0z M17.648,7.891l-0.339-2.08l1.44-1.478l-1.99-0.304l-0.887-1.89l-0.887,1.89
	l-1.988,0.304l1.438,1.478l-0.339,2.08l1.773-0.98L17.648,7.891z M26.936,0l1.486,3.167l3.322,0.508L29.34,6.141l0.566,3.479
	l-2.972-1.646L23.96,9.62l0.567-3.479l-2.405-2.465l3.323-0.508L26.936,0z M28.711,7.891l-0.34-2.08l1.439-1.478l-1.991-0.304
	l-0.885-1.89l-0.888,1.89l-1.988,0.304l1.439,1.478l-0.34,2.08l1.775-0.98L28.711,7.891z M37.998,0l1.484,3.167l3.322,0.508
	L40.4,6.141l0.566,3.479l-2.973-1.646L35.02,9.62l0.564-3.479l-2.402-2.465l3.322-0.508L37.998,0z M39.773,7.891l-0.34-2.08
	l1.438-1.478l-1.99-0.304l-0.887-1.89l-0.888,1.89l-1.989,0.304l1.438,1.478l-0.341,2.08l1.775-0.98L39.773,7.891z M49.061,0
	l1.484,3.167l3.324,0.508l-2.406,2.465l0.566,3.479l-2.973-1.646L46.082,9.62l0.564-3.479l-2.402-2.465l3.322-0.508L49.061,0z
	 M50.834,7.891l-0.34-2.08l1.439-1.478l-1.99-0.304l-0.885-1.89L48.171,4.03l-1.987,0.304l1.438,1.477l-0.34,2.08l1.775-0.98
	L50.834,7.891z"/>
<g id="Filling">
	<g id="Filling_x5F_group">
										<defs>
											<path id="SVGID_1_" d="M6.586,7.891l-0.338-2.08l1.438-1.478L5.696,4.03L4.81,2.14L3.922,4.03L1.934,4.333l1.439,1.478
												l-0.34,2.08l1.775-0.98L6.586,7.891z M17.648,7.891l-0.339-2.08l1.44-1.478l-1.99-0.304l-0.887-1.89l-0.887,1.89
												l-1.988,0.304l1.438,1.478l-0.339,2.08l1.773-0.98L17.648,7.891z M28.711,7.891l-0.34-2.08l1.439-1.478l-1.991-0.304
												l-0.885-1.89l-0.888,1.89l-1.988,0.304l1.439,1.478l-0.34,2.08l1.775-0.98L28.711,7.891z M39.773,7.891l-0.34-2.08
												l1.438-1.478l-1.99-0.304l-0.887-1.89l-0.888,1.89l-1.989,0.304l1.438,1.478l-0.341,2.08l1.775-0.98L39.773,7.891z
												 M50.834,7.891l-0.34-2.08l1.439-1.478l-1.99-0.304l-0.885-1.89L48.171,4.03l-1.987,0.304l1.438,1.477l-0.34,2.08
												l1.775-0.98L50.834,7.891z"/>
										</defs>
										<clipPath id="SVGID_2_">
											<use xlink:href="#SVGID_1_"  overflow="visible"/>
										</clipPath>
										<rect id="Filiing_x5F_rect" x="1.936" clip-path="url(#SVGID_2_)" fill="#FBB040" width="00" height="9.62"/>
	</g>
</g>
</svg>
