<?xml version="1.0" encoding="utf-8"?>
<!-- Generator: Adobe Illustrator 16.0.0, SVG Export Plug-In . SVG Version: 6.00 Build 0)  -->
<!DOCTYPE svg PUBLIC "-//W3C//DTD SVG 1.1//EN" "http://www.w3.org/Graphics/SVG/1.1/DTD/svg11.dtd">
<svg version="1.1" id="Layer_1" xmlns="http://www.w3.org/2000/svg" xmlns:xlink="http://www.w3.org/1999/xlink" x="0px" y="0px"
	 width="12px" height="20px" viewBox="0 0 12 20" enable-background="new 0 0 12 20" xml:space="preserve">
<g>
	<g>
		<path fill="#553E31" d="M12,1.439C12,0.674,12,0.491,12,0H1.01C0.803,0,0.617,0.123,0.539,0.309
			c-0.08,0.188-0.035,0.402,0.109,0.545l0.42,0.412c-0.01,0.016-0.027,0.023-0.035,0.039C0.955,1.492,1,1.707,1.145,1.85
			l8.061,7.908L0.648,18.15c-0.145,0.143-0.189,0.359-0.109,0.545c0.078,0.188,0.264,0.309,0.471,0.309h0.279l-0.145,0.143
			C1,19.289,0.955,19.506,1.033,19.691C1.113,19.879,1.299,20,1.506,20H12c0-0.918,0-1.935,0-2.561C12,12.439,12,6.439,12,1.439z"/>
		<path fill="#EBE0D5" d="M12,1.439C12,1.263,12,1.125,12,1H2.24l8.305,8.148c0.199,0.195,0.199,0.512,0,0.707L2.24,18.004H12
			c0-0.207,0-0.402,0-0.564C12,12.439,12,6.439,12,1.439z"/>
	</g>
</g>
</svg>
