<?xml version="1.0" encoding="utf-8"?>
<!-- Generator: Adobe Illustrator 16.0.0, SVG Export Plug-In . SVG Version: 6.00 Build 0)  -->
<!DOCTYPE svg PUBLIC "-//W3C//DTD SVG 1.1//EN" "http://www.w3.org/Graphics/SVG/1.1/DTD/svg11.dtd">
<svg version="1.1" id="Layer_1" xmlns="http://www.w3.org/2000/svg" xmlns:xlink="http://www.w3.org/1999/xlink" x="0px" y="0px"
	 width="35px" height="35px" viewBox="0 0 35 35" enable-background="new 0 0 35 35" xml:space="preserve">
<g>
	<path fill-rule="evenodd" clip-rule="evenodd" fill="#553E31" d="M0.5,16.06c0.24-1.129,0.413-2.276,0.729-3.384
		C3.457,4.86,11.162-0.292,19.242,0.6c7.789,0.86,13.896,6.688,15.067,14.373c1.409,9.263-5.168,18.112-14.391,19.364
		C10.603,35.602,2.215,29.363,0.696,20.04c-0.061-0.369-0.13-0.738-0.195-1.106C0.5,17.975,0.5,17.018,0.5,16.06z M32.487,17.604
		C32.618,9.42,25.876,2.58,17.585,2.486C9.412,2.394,2.667,9.048,2.51,17.355c-0.153,8.182,6.574,15.036,14.867,15.148
		C25.579,32.615,32.354,25.933,32.487,17.604z"/>
	<path fill-rule="evenodd" clip-rule="evenodd" fill="#553E31" d="M11.414,8.104c1.037,1.797,2.079,3.602,3.148,5.455
		c-1.316,1.11-1.117,2.548-0.718,3.949c0.497,1.747,1.4,3.286,2.817,4.464c0.898,0.751,1.892,1.153,3.105,0.609
		c1.059,1.837,2.107,3.659,3.155,5.475c-1.507,1.18-2.956,1.303-4.51,0.361c-1.884-1.14-3.331-2.749-4.62-4.5
		c-2.227-3.03-3.937-6.312-4.727-10.022c-0.13-0.611-0.215-1.241-0.237-1.867C8.758,10.044,9.482,8.956,11.414,8.104z"/>
	<path fill-rule="evenodd" clip-rule="evenodd" fill="#553E31" d="M22.473,20.225c0.255,0.235,0.527,0.392,0.668,0.627
		c0.972,1.647,1.911,3.311,2.871,4.967c0.302,0.521,0.167,0.91-0.332,1.199c-2.139,1.224-1.937,1.465-3.184-0.76
		c-0.687-1.229-1.407-2.438-2.104-3.663c-0.402-0.708-0.325-0.98,0.384-1.401C21.312,20.874,21.858,20.574,22.473,20.225z"/>
	<path fill-rule="evenodd" clip-rule="evenodd" fill="#553E31" d="M15.646,13.671c-0.305-0.233-0.584-0.348-0.708-0.554
		c-1-1.688-1.976-3.389-2.953-5.091c-0.278-0.486-0.135-0.87,0.332-1.144c0.456-0.268,0.916-0.525,1.375-0.787
		c0.494-0.282,0.866-0.137,1.137,0.333c0.969,1.677,1.944,3.351,2.887,5.042c0.116,0.207,0.167,0.663,0.053,0.752
		C17.107,12.738,16.388,13.177,15.646,13.671z"/>
</g>
</svg>
