<?xml version="1.0" encoding="utf-8"?>
<!-- Generator: Adobe Illustrator 15.0.0, SVG Export Plug-In . SVG Version: 6.00 Build 0)  -->
<!DOCTYPE svg PUBLIC "-//W3C//DTD SVG 1.1//EN" "http://www.w3.org/Graphics/SVG/1.1/DTD/svg11.dtd">
<svg version="1.1" id="Layer_1" xmlns="http://www.w3.org/2000/svg" xmlns:xlink="http://www.w3.org/1999/xlink" x="0px" y="0px"
	 width="65px" height="65px" viewBox="0 0 65 65" enable-background="new 0 0 65 65" xml:space="preserve">
<g>
	<defs>
		<path id="SVGID_1_" d="M32.5,58.521c-14.35,0-26.021-11.673-26.021-26.021S18.15,6.479,32.5,6.479
			c14.348,0,26.021,11.673,26.021,26.021S46.848,58.521,32.5,58.521z"/>
	</defs>
	<clipPath id="SVGID_2_">
		<use xlink:href="#SVGID_1_"  overflow="visible"/>
	</clipPath>
	<g clip-path="url(#SVGID_2_)">
		
			<path fill="#CDB8AB" stroke="#553E31" stroke-width="0.9556" stroke-linecap="round" stroke-linejoin="round" stroke-miterlimit="10" d="
			M48.61,37.647c0,8.573-7.192,15.523-16.063,15.523c-8.873,0-16.064-6.95-16.064-15.523"/>
		
			<ellipse fill="#EBE0D5" stroke="#553E31" stroke-width="1.0436" stroke-linecap="round" stroke-linejoin="round" stroke-miterlimit="10" cx="32.546" cy="37.678" rx="16.064" ry="9.689"/>
		
			<path fill="#E4D7CD" stroke="#553E31" stroke-width="1.0436" stroke-linecap="round" stroke-linejoin="round" stroke-miterlimit="10" d="
			M23.641,45.709c2.566,1.046,5.659,1.658,8.988,1.658c3.365,0,6.487-0.625,9.067-1.693c-1.114-1.831-4.728-3.172-9.017-3.172
			C28.365,42.502,24.732,43.861,23.641,45.709z"/>
		<g>
			<g>
				<path fill="#553E31" d="M21.565,34.922c0.312-0.621,0.911-1.08,1.488-1.382c0.593-0.313,1.2-0.565,1.812-0.784
					c1.226-0.43,2.472-0.721,3.726-0.896c2.511-0.331,5.03-0.288,7.5,0.101c2.458,0.403,4.915,1.082,7.065,2.497
					c1.041,0.711,2.088,1.69,2.404,3.111c0.146,0.7,0.034,1.447-0.259,2.078c-0.29,0.634-0.728,1.16-1.21,1.603l-0.006,0.006
					c-0.211,0.192-0.537,0.178-0.73-0.032c-0.192-0.211-0.179-0.537,0.032-0.73c0.005-0.005,0.012-0.01,0.017-0.015
					c0.846-0.71,1.433-1.717,1.195-2.713c-0.2-0.999-1.077-1.821-2.025-2.418c-1.96-1.196-4.337-1.713-6.661-1.927
					c-2.343-0.185-4.719-0.051-6.99,0.41c-1.134,0.232-2.25,0.529-3.294,0.953c-0.521,0.211-1.026,0.448-1.493,0.723
					c-0.486,0.278-0.897,0.501-1.499,0.677l-0.016,0.005c-0.477,0.14-0.976-0.135-1.116-0.611
					C21.44,35.351,21.468,35.117,21.565,34.922z"/>
			</g>
			<g>
				<path fill="#553E31" d="M24.245,31.322c-0.43,0.666-0.784,1.408-1.001,2.135c-0.219,0.725-0.281,1.466-0.109,2.019l-0.504-0.814
					c0.162,0.158,0.58,0.372,0.926,0.501c0.369,0.139,0.765,0.236,1.175,0.296c0.821,0.116,1.695,0.063,2.56-0.129
					c0.162-0.038,0.324,0.063,0.362,0.225c0.032,0.135-0.036,0.271-0.152,0.334c-0.834,0.442-1.763,0.772-2.759,0.904
					c-0.498,0.064-1.01,0.082-1.53,0.037c-0.541-0.06-1-0.114-1.639-0.387c-0.329-0.141-0.521-0.468-0.504-0.805l0-0.01
					c0.054-1.104,0.492-1.999,0.99-2.749c0.513-0.752,1.103-1.383,1.774-1.944c0.12-0.101,0.299-0.084,0.399,0.036
					c0.082,0.098,0.086,0.234,0.021,0.335L24.245,31.322z"/>
			</g>
		</g>
		<g>
			<path fill="#553E31" d="M31.877,45.013c-0.479,0-0.925-0.067-1.327-0.201c-1.822-0.604-3.703-2.504-3.008-5.868
				c0.56-2.731,2.774-3.714,4.096-4.301c0.253-0.111,0.477-0.211,0.654-0.307c0.997-0.542,1.65-1.813,1.656-1.826l7.108-15.001
				l0.315,0.152c0.016,0.007,1.556,0.78,0.631,2.747c-0.761,1.622-4.817,11.343-5.494,13.167c-0.552,1.484-0.361,1.961,0.271,3.54
				l0.177,0.442c0.865,2.192-0.045,3.898-0.776,5.271C35.515,44.073,33.665,45.013,31.877,45.013L31.877,45.013z"/>
			<path fill="#EBE0D5" d="M41.221,17.974c0,0,1.257,0.607,0.468,2.286c-0.787,1.679-4.855,11.442-5.506,13.193
				c-0.649,1.748-0.327,2.264,0.45,4.231c0.776,1.968,0.038,3.482-0.76,4.979c-0.63,1.181-2.398,2.002-3.996,2.002
				c-0.426,0-0.84-0.058-1.217-0.184c-1.793-0.595-3.412-2.396-2.777-5.468c0.63-3.07,3.479-3.773,4.576-4.373
				c1.103-0.599,1.8-1.974,1.8-1.974L41.221,17.974 M40.893,17.042l-0.3,0.633L33.63,32.369l0,0c0,0-0.612,1.177-1.503,1.66
				c-0.171,0.094-0.386,0.188-0.629,0.296c-1.383,0.614-3.699,1.642-4.296,4.549c-0.741,3.587,1.282,5.618,3.24,6.268
				c0.437,0.146,0.92,0.219,1.436,0.219c1.938,0,3.877-0.996,4.609-2.37c0.725-1.358,1.717-3.22,0.793-5.561l-0.177-0.444
				c-0.624-1.562-0.772-1.932-0.269-3.29c0.677-1.82,4.725-11.521,5.484-13.14c0.887-1.887-0.273-2.956-0.795-3.208L40.893,17.042
				L40.893,17.042z"/>
		</g>
		
			<path fill="#CDB8AB" stroke="#553E31" stroke-width="1.0436" stroke-linecap="round" stroke-linejoin="round" stroke-miterlimit="10" d="
			M55.368,0c0,0-4.936,2.965-6.979,3.925c-3.195,1.501-7.085,3.073-8.999,6.242c-0.607,1.009-0.996,2.211-1.244,3.359
			c-0.229,1.055-0.688,2.043-0.871,3.113c-0.125,0.737-0.049,1.114-0.482,1.761c-0.325,0.486-0.663,0.95-0.81,1.524
			c-0.15,0.596-0.102,1.222-0.219,1.823c-0.171,0.879-0.437,1.741-0.097,2.615c0.251,0.643,0.955,1.816,1.426,2.322
			c0.822-1.927,2.807-6.134,2.807-6.134s0.538-1.105,1.43-1.675c0.891-0.571,0.631-0.492,1.242-1.071
			c0.938,0.089,1.658-0.24,2.756-0.627c-1.148,0.188-2.25,1.161-2.846,1.565c-0.594,0.406-2.754,2.827-2.959,3.797
			c-0.203,0.969,0.057,1.994,0.791,2.207c0.736,0.214,0.854,0.107,1.211-0.34c0.356-0.449,3.65-3.603,5.053-4.301
			c1.404-0.701,0.813-0.371,1.699-0.865c0.887-0.496,1.59-1.754,2.223-2.322c0.636-0.569,1.564-1.43,2.299-3.548
			c0.733-2.115,2.829-4.309,4.458-5.125c1.626-0.815,8.13-2.828,10.579-3.32C61.834,2.555,55.368,0,55.368,0z"/>
	</g>
</g>
</svg>
