<?xml version="1.0" encoding="utf-8"?>
<!-- Generator: Adobe Illustrator 15.0.0, SVG Export Plug-In . SVG Version: 6.00 Build 0)  -->
<!DOCTYPE svg PUBLIC "-//W3C//DTD SVG 1.1//EN" "http://www.w3.org/Graphics/SVG/1.1/DTD/svg11.dtd">
<svg version="1.1" id="Layer_1" xmlns="http://www.w3.org/2000/svg" xmlns:xlink="http://www.w3.org/1999/xlink" x="0px" y="0px"
	 width="65px" height="65px" viewBox="0 0 65 65" enable-background="new 0 0 65 65" xml:space="preserve">
<g>
	<defs>
		<path id="SVGID_1_" d="M32.5,58.521c-14.348,0-26.021-11.673-26.021-26.021S18.152,6.479,32.5,6.479S58.521,18.151,58.521,32.5
			S46.848,58.521,32.5,58.521z"/>
	</defs>
	<clipPath id="SVGID_2_">
		<use xlink:href="#SVGID_1_"  overflow="visible"/>
	</clipPath>
	<polygon clip-path="url(#SVGID_2_)" fill="#EBE0D5" stroke="#553E31" stroke-miterlimit="10" points="73.695,47.689 6.486,57.356 
		-5.846,24.69 43.195,18.439 	"/>
	
		<path clip-path="url(#SVGID_2_)" fill="#CDB8AB" stroke="#553E31" stroke-linecap="round" stroke-linejoin="round" stroke-miterlimit="10" d="
		M34.147,27.419c-4.476-1.777-9.067-0.088-13.608,0.448c-2.435,0.287-4.789,0.414-6.981,1.659c-1.45,0.822-2.479,2.237-2.604,3.908
		c-0.167,2.246,2.047,3.478,3.716,4.544c1.811,1.155,3.855,2.393,5.322,3.988c1.035,1.126,1.272,2.722,2.321,3.806
		c1.187,1.229,2.771,1.386,4.392,1.172c1.385-0.182,2.754-0.618,4.129-0.873c1.612-0.299,3.268-0.55,4.91-0.589
		c2.738-0.064,5.631,0.61,8.307-0.144c2.346-0.66,4.34-2.854,4.648-5.301c0.451-3.598-3.369-5.957-6.07-7.483L34.147,27.419z"/>
	
		<ellipse transform="matrix(0.7682 -0.6402 0.6402 0.7682 -8.4645 15.3138)" clip-path="url(#SVGID_2_)" fill="#CDB8AB" stroke="#553E31" stroke-linecap="round" stroke-linejoin="round" stroke-miterlimit="10" cx="16.917" cy="19.347" rx="1.982" ry="1.175"/>
	
		<ellipse transform="matrix(0.7683 -0.6401 0.6401 0.7683 -8.9818 16.2765)" clip-path="url(#SVGID_2_)" fill="#EBE0D5" stroke="#553E31" stroke-linecap="round" stroke-linejoin="round" stroke-miterlimit="10" cx="17.99" cy="20.544" rx="3.018" ry="1.788"/>
	
		<polyline clip-path="url(#SVGID_2_)" fill="#EBE0D5" stroke="#553E31" stroke-linecap="round" stroke-linejoin="round" stroke-miterlimit="10" points="
		20.309,18.612 49.621,45.157 44.982,49.02 15.672,22.476 	"/>
	
		<path clip-path="url(#SVGID_2_)" fill="#CDB8AB" stroke="#553E31" stroke-linecap="round" stroke-linejoin="round" stroke-miterlimit="10" d="
		M49.621,45.157c0.631,0.759,0.105,2.239-1.174,3.306s-2.832,1.314-3.465,0.557c-0.631-0.759-0.104-2.238,1.174-3.306
		C47.439,44.647,48.99,44.399,49.621,45.157z"/>
	
		<path clip-path="url(#SVGID_2_)" fill="#CDB8AB" stroke="#553E31" stroke-linecap="round" stroke-linejoin="round" stroke-miterlimit="10" d="
		M49.805,46.783c0.414,0.5,0.07,1.471-0.771,2.173c-0.842,0.699-1.859,0.863-2.275,0.365c-0.414-0.499-0.068-1.47,0.77-2.173
		C48.371,46.448,49.389,46.286,49.805,46.783z"/>
	
		<path clip-path="url(#SVGID_2_)" fill="#CDB8AB" stroke="#553E31" stroke-linecap="round" stroke-linejoin="round" stroke-miterlimit="10" d="
		M35.493,38.959c-1.07,1.588-2.067,3.457-1.61,3.854c0.459,0.398,0.509,1.052,1.885-0.294c1.376-1.344,2.797-2.95,4.111-3.959
		c0,0,1.742-1.639,2.041-1.926c0.59-0.564,0.939-0.733,1.559-1.238c-0.389,0.276-1.002,0.887-1.002,0.887s-0.744,0.77-1.145,1.131
		c-0.459,0.413-1.636,1.423-2.125,1.926c-0.419,0.434-1.094,1.374-0.506,1.865c0.46,0.382,0.803,0.475,1.744-0.076
		c0.939-0.55,2.107-1.552,2.658-2.148c0.551-0.596,2.281-2.13,2.844-2.545c0.688-0.503,3.723-1.589,5.029-2.826
		c1.307-1.239,4.035-4.814,5.846-6.535c1.811-1.72,9.285-8.597,11.258-10.638c1.971-2.04,5.457-10.135,5.457-10.135l-10.41-0.176"/>
	
		<path clip-path="url(#SVGID_2_)" fill="#CDB8AB" stroke="#553E31" stroke-linecap="round" stroke-linejoin="round" stroke-miterlimit="10" d="
		M63.219,6.156c0,0-12.318,15.011-13.42,15.958c-1.1,0.949-1.986,1.774-4.617,2.478c-2.629,0.702-2.506,0.794-3.453,1.284
		c-0.947,0.488-3.516,1.926-4.279,2.291c-0.766,0.368-1.65,1.192-2.445,1.469c-0.796,0.274-1.682,0.428-1.682,0.428
		s-0.674,0.306-0.367,0.765c0.306,0.458,1.437,1.131,2.477,0.641c1.039-0.488,2.108-1.131,2.813-1.741
		c-1.314,1.069-2.863,2.188-3.424,2.629c-0.643,0.504-1.23,1.055-1.85,1.604c-0.631,0.562-1.957,1.811-2.568,2.721
		c-0.559,0.834-1.291,1.856-0.717,2.431c0.428,0.43,1.038,0.358,2.17-0.712c1.131-1.069,2.281-2.225,3.095-2.957
		c0.939-0.85,0.633-0.643,2.069-1.712c1.438-1.069,1.438-1.069,1.438-1.069s-2.518,1.9-3.576,3.087
		c-0.764,0.855-1.1,1.192-1.1,1.192s-0.703,0.824-1.254,1.619c-0.551,0.796-1.195,1.905-1.345,2.354
		c-0.206,0.618-0.329,1.238,0.062,1.65c0.518,0.549,1.101,0.39,1.987-0.61c0.966-1.091,2.108-2.659,2.903-3.485
		s1.17-1.291,2.446-2.416c1.353-1.191,2.444-1.855,2.751-2.102"/>
	
		<path clip-path="url(#SVGID_2_)" fill="#CDB8AB" stroke="#553E31" stroke-linecap="round" stroke-linejoin="round" stroke-miterlimit="10" d="
		M18.71,29.56c-0.55,0.436-1.498,0.732-1.513-0.092c-0.013-0.666,0.9-2.278,1.245-2.852c0.344-0.573,1.482-2.101,1.834-2.478
		c0.344-0.365,1.995-1.879,1.995-1.879c-0.493,0.378-0.964,0.848-1.445,1.261c-0.588,0.506-1.283,1.353-1.834,1.881
		c-0.55,0.527-1.261,0.366-1.444,0.16c-0.184-0.207-0.091-0.481,0.229-1.009s1.101-1.743,1.902-2.384
		c0.803-0.643,4.013-2.821,5.159-3.784c1.146-0.962,4.081-3.623,4.77-4.265c0.688-0.642,0.618-1.789,0.894-2.682
		c0.275-0.895,0.757-5.319,0.757-5.319l7.497-0.344c0,0-1.398,7.152-1.559,8.07c-0.16,0.916-0.895,2.889-0.871,3.896
		c0.021,1.011,0.16,2.064,0.021,3.026c-0.137,0.964-0.894,2.913-1.535,3.646c-0.643,0.733-1.376,1.215-1.789,1.857
		c-0.412,0.642-0.641,0.711-1.146,1.697c-0.504,0.985-0.778,1.055-1.123,1.123c-0.344,0.068-1.055-0.047-1.353-0.597
		c-0.298-0.551-0.551-1.237-0.274-1.902c0.274-0.665,0.871-1.514,1.329-1.881c0.458-0.366,0.894-0.939,1.032-1.215
		c-0.345,0.184-1.422,0.825-1.88,1.17c-0.459,0.344-1.386,1.248-1.812,1.708c-0.459,0.493-1.444,1.673-1.972,2.452
		c-0.458,0.677-1.353,1.926-1.777,2.592c-0.386,0.604-1.284,2.223-2.019,1.788c-0.688-0.642-0.756-1.284-0.469-2.156
		c0,0,1.424-2.584,1.982-3.496c0.619-1.008,1.857-2.935,2.42-3.542c0,0-2.385,2.809-2.958,3.542
		c-0.393,0.503-1.077,1.444-1.56,2.133c-0.446,0.638-1.398,1.627-1.789,1.948c-0.389,0.321-0.664,0.505-1.168,0.345
		c-0.504-0.161-0.573-0.252-0.504-0.688c0.068-0.436,0.263-0.928,0.676-1.57c0.412-0.642,1.594-2.18,2.006-2.822
		c0.322-0.501,0.785-1.059,1.223-1.697c0.275-0.401,1.667-1.682,2.033-2.049"/>
	
		<path clip-path="url(#SVGID_2_)" fill="#CDB8AB" stroke="#553E31" stroke-linecap="round" stroke-linejoin="round" stroke-miterlimit="10" d="
		M43.662,41.508"/>
</g>
</svg>
