<?xml version="1.0" encoding="utf-8"?>
<!-- Generator: Adobe Illustrator 15.0.0, SVG Export Plug-In . SVG Version: 6.00 Build 0)  -->
<!DOCTYPE svg PUBLIC "-//W3C//DTD SVG 1.1//EN" "http://www.w3.org/Graphics/SVG/1.1/DTD/svg11.dtd">
<svg version="1.1" id="Layer_1" xmlns="http://www.w3.org/2000/svg" xmlns:xlink="http://www.w3.org/1999/xlink" x="0px" y="0px"
	 width="65px" height="65px" viewBox="0 0 65 65" enable-background="new 0 0 65 65" xml:space="preserve">
<g>
	<path fill="#553E31" d="M32.5,0C14.58,0,0,14.579,0,32.5C0,50.42,14.58,65,32.5,65C50.421,65,65,50.42,65,32.5
		C65,14.579,50.421,0,32.5,0z"/>
	<path fill="#FFFCF5" d="M32.5,58.521c-14.349,0-26.021-11.673-26.021-26.021S18.151,6.479,32.5,6.479S58.522,18.151,58.522,32.5
		S46.849,58.521,32.5,58.521z"/>
	<path fill="#CDB8AB" d="M51.028,12.419c-4.421-4.083-10.188-6.722-16.551-7.18V1.827c7.301,0.466,13.915,3.49,18.957,8.187
		L51.028,12.419z"/>
	<path fill="#EBE0D5" d="M30.523,5.24c-6.363,0.458-12.13,3.097-16.551,7.179l-2.406-2.406c5.041-4.696,11.655-7.72,18.957-8.187
		V5.24z"/>
	<path fill="#EBE0D5" d="M12.419,13.972c-4.082,4.421-6.723,10.188-7.18,16.551H1.827c0.466-7.301,3.49-13.916,8.186-18.958
		L12.419,13.972z"/>
	<path fill="#CDB8AB" d="M5.239,34.477c0.458,6.364,3.098,12.13,7.18,16.552l-2.405,2.406c-4.697-5.042-7.721-11.656-8.187-18.958
		H5.239z"/>
	<path fill="#CDB8AB" d="M13.973,52.581c4.421,4.082,10.188,6.722,16.551,7.18v3.413c-7.302-0.467-13.916-3.491-18.957-8.187
		L13.973,52.581z"/>
	<path fill="#CDB8AB" d="M34.478,59.761c6.363-0.458,12.13-3.098,16.551-7.18l2.406,2.406c-5.042,4.695-11.656,7.72-18.957,8.187
		V59.761z"/>
	<path fill="#CDB8AB" d="M52.581,51.028c4.082-4.422,6.722-10.188,7.18-16.552h3.413c-0.467,7.302-3.49,13.916-8.187,18.958
		L52.581,51.028z"/>
	<path fill="#CDB8AB" d="M59.761,30.523c-0.458-6.363-3.098-12.13-7.18-16.551l2.406-2.406c4.696,5.042,7.72,11.656,8.187,18.958
		H59.761z"/>
</g>
</svg>
