<?xml version="1.0" encoding="utf-8"?>
<!-- Generator: Adobe Illustrator 16.0.0, SVG Export Plug-In . SVG Version: 6.00 Build 0)  -->
<!DOCTYPE svg PUBLIC "-//W3C//DTD SVG 1.1//EN" "http://www.w3.org/Graphics/SVG/1.1/DTD/svg11.dtd">
<svg version="1.1" id="Layer_1" xmlns="http://www.w3.org/2000/svg" xmlns:xlink="http://www.w3.org/1999/xlink" x="0px" y="0px"
	 width="60px" height="60px" viewBox="0 0 60 60" enable-background="new 0 0 60 60" xml:space="preserve">
<g>
	<defs>
		<path id="SVGID_27_" d="M29.999,53.5C17.041,53.5,6.5,42.958,6.5,30c0-12.96,10.541-23.5,23.499-23.5
			C42.958,6.5,53.5,17.04,53.5,30C53.5,42.958,42.958,53.5,29.999,53.5z"/>
	</defs>
	<clipPath id="SVGID_2_">
		<use xlink:href="#SVGID_27_"  overflow="visible"/>
	</clipPath>
	<rect x="0.625" y="0.625" clip-path="url(#SVGID_2_)" fill="#FFFCF5" width="58.75" height="58.75"/>
	
		<path clip-path="url(#SVGID_2_)" fill="#CDB8AB" stroke="#553E31" stroke-width="0.8998" stroke-linecap="round" stroke-linejoin="round" stroke-miterlimit="10" d="
		M23.889,18.811c0,0-2.532,1.731-3.657,4.088c-1.126,2.355-2.207,1.789-2.207,1.789l-1.158-4.58l4.222-3.318l1.652,0.978
		L23.889,18.811z"/>
	
		<path clip-path="url(#SVGID_2_)" fill="#CDB8AB" stroke="#553E31" stroke-width="0.8998" stroke-linecap="round" stroke-linejoin="round" stroke-miterlimit="10" d="
		M23.677,16.871c0,0,0.539,0.767,0.525,1.374c-0.013,0.605-0.008,2.36,0.071,2.879c0.076,0.518,0.397,2.162,0.913,2.567
		c0.517,0.407,1.079,0.79,1.494,0.785c0.414-0.004,0.937-0.189,1.078-0.307c0.259-0.217,0.381-0.698,0.373-1.072
		c-0.008-0.373,0.021-1.858,0.105-2.182s0.026-2.175-0.056-2.639c-0.083-0.463-0.104-1.445-0.04-1.992
		c0.063-0.546-0.22-1.906-0.48-2.233c-0.26-0.327-0.801-1.063-1.311-1.523l1.452,1.499c0.233-0.298,0.397-0.573,0.439-0.597
		c0.043-0.023,2.985-2.616,3.741-3.03c0.756-0.415,4.028-2.992,4.752-3.671c0.725-0.682,2.669-3.239,3.176-3.954L25.45,1.255
		l-0.688,1.3l-1.411,2.984l-1.775,2.933l-1.971,2.842L18.4,14.446l1.651,2.709l1.132,0.524l1.248,1.055l1.699,0.354"/>
	
		<path clip-path="url(#SVGID_2_)" fill="#CDB8AB" stroke="#553E31" stroke-width="0.8998" stroke-linecap="round" stroke-linejoin="round" stroke-miterlimit="10" d="
		M24.902,29.066l1.433-0.772l0.365-0.979l0.523-1.095l-0.341-1.32l0.023-0.882l-0.734-0.637l-0.456-1.242
		c-0.701-0.383-1.518-0.628-2.407-0.658c-2.634-0.087-4.829,1.646-4.902,3.871c-0.074,2.225,2.003,4.097,4.637,4.184
		c0.612,0.021,1.039-0.198,1.578-0.355L24.902,29.066z"/>
	
		<path clip-path="url(#SVGID_2_)" fill="#CDB8AB" stroke="#553E31" stroke-width="0.8998" stroke-linecap="round" stroke-linejoin="round" stroke-miterlimit="10" d="
		M25.15,1.522c0,0-1.712,4.265-2.788,5.77c-1.075,1.504-2.633,4.069-3.355,4.723c-0.722,0.653-2.769,1.903-3.501,2.667
		c-0.731,0.761-1.986,2.416-2.105,3.123c-0.119,0.708,0.015,1.659-0.153,2.306c-0.17,0.648-0.791,3.245-0.815,4.127
		c-0.025,0.88,0.782,1.727,1.49,2.454c0.707,0.727,1.909,2.714,2.761,3.067c0.853,0.354,3.691,1.327,4.16,1.04
		c0.466-0.289,0.531-0.597,0.523-0.911c-0.01-0.313-0.389-0.991-0.743-1.152c-0.282-0.13-0.714-0.438-0.985-0.491L17.788,27
		c0,0-0.888-4.165-0.896-4.128c0.017-0.068,0.154-0.187,0.198-0.244c0.159-0.208,0.314-0.417,0.469-0.629
		c0.303-0.417,0.659-0.791,0.889-1.257c0.38-0.776,0.777-1.564,1.354-2.216c0.381-0.431,0.946-1.079,1.585-0.744"/>
	
		<path clip-path="url(#SVGID_2_)" fill="#EBE0D5" stroke="#553E31" stroke-width="0.8998" stroke-linecap="round" stroke-linejoin="round" stroke-miterlimit="10" d="
		M24.271,28.512c0,0-1.227-0.884-1.171-0.896c0.057-0.013,0.429-1.675,0.429-1.675l-0.172-1.563l0.718-0.617l-0.002-1.398
		l1.069-0.469c-0.577-0.234-1.171-0.429-1.848-0.452c-2.636-0.088-4.831,1.646-4.904,3.872c-0.073,2.224,2.003,4.099,4.639,4.184
		c0.502,0.018,0.947-0.145,1.406-0.252L24.271,28.512z"/>
	
		<path clip-path="url(#SVGID_2_)" fill="#CDB8AB" stroke="#553E31" stroke-width="0.8998" stroke-linecap="round" stroke-linejoin="round" stroke-miterlimit="10" d="
		M23.928,17.309l0.258,0.658l0.013,0.926l-0.007,0.704c0,0-1.538-0.567-1.929-0.975c-0.392-0.409-0.969-0.903-1.245-1.038
		c-0.278-0.137-0.715,0.556-1.026,0.804c-0.313,0.249-0.677,0.754-1.002,1.291c-0.324,0.536-0.38,0.849-0.547,1.014
		c-0.168,0.164,0.296,1.616,0.289,2.001c-0.007,0.387,0.34,0.955,0.583,1.489c0.242,0.532,0.665,1.497,0.745,1.986
		c0.08,0.492,0.416,1.355-0.036,1.866c-0.211,0.24-0.519,0.294-0.687,0.32c-0.168,0.025-0.574-0.052-1.012-0.423
		c-0.437-0.371-1.304-1.307-1.562-1.675c-0.257-0.369-0.883-1.47-1.212-2.108c-0.329-0.637-0.506-1.491-0.511-1.886
		c-0.005-0.397,0.313-2.054,0.483-2.498"/>
	
		<path clip-path="url(#SVGID_2_)" fill="#CDB8AB" stroke="#553E31" stroke-width="0.8998" stroke-linecap="round" stroke-linejoin="round" stroke-miterlimit="10" d="
		M33.066,37.932c-0.416-0.952-1.022-1.746-1.727-2.336c-0.137-0.112-0.279-0.215-0.422-0.312l-0.946-0.009l-1.542-0.027
		l-0.604,0.894l-1.568,0.508l-0.248,0.854l-0.922,1.238l0.098,1.1l-0.11,1.371c0.025,0.061,0.038,0.124,0.064,0.186
		c1.188,2.719,3.927,4.149,6.117,3.193C33.444,43.634,34.256,40.652,33.066,37.932z"/>
	
		<path clip-path="url(#SVGID_2_)" fill="#EBE0D5" stroke="#553E31" stroke-width="0.8998" stroke-linecap="round" stroke-linejoin="round" stroke-miterlimit="10" d="
		M33.066,37.932c-0.354-0.811-0.849-1.504-1.423-2.058l0.156,0.845l-1.471,0.729l-0.427,0.839l-1.968,0.824
		c0,0-0.412,0.579-0.453,0.593c-0.042,0.014-1.583,0.248-1.583,0.248l-0.453,1.086l-0.339,0.265
		c0.013,0.031,0.019,0.063,0.032,0.096c1.188,2.719,3.927,4.149,6.117,3.193C33.444,43.634,34.256,40.652,33.066,37.932z"/>
	
		<path clip-path="url(#SVGID_2_)" fill="#CDB8AB" stroke="#553E31" stroke-width="0.8998" stroke-linecap="round" stroke-linejoin="round" stroke-miterlimit="10" d="
		M42.946,36.53c0,0-2.347,1.98-3.484,2.384c-0.226,0.079-0.746,0.246-1.369,0.441c-1.392,0.438-3.293,1.017-3.547,1.099
		c0,0-2.962,0.89-3.677,0.999c-0.714,0.11-3.081,0.606-3.493,0.936c-0.412,0.331-0.936,1.02-0.908,1.514
		c0.027,0.495,0.11,0.825,1.211,1.018c1.101,0.193,3.714,0.275,4.648,0.165c0.936-0.109,7.015-1.045,8.005-1.54
		s1.624-0.55,1.927-0.771c-1.02,0.551-3.906,1.293-4.787,1.458c-0.882,0.165-4.787,0.771-5.558,0.771
		c-0.77,0-4.235-0.056-4.621-0.165c-0.385-0.11-0.495-0.056-0.467,0.413c0.027,0.468,0.521,0.989,0.962,1.237
		c0.441,0.247,1.732,1.432,2.476,1.485c0.743,0.056,2.395,0.193,3.412,0.274c1.018,0.083,2.778,0.634,4.952,0.056
		c2.173-0.577,3.053-0.659,3.878-0.935c-0.88,0.164-4.923,1.183-5.419,1.154c-0.497-0.027-3.301-0.247-3.687-0.356
		c0.523,0.302,1.237,1.018,2.036,1.347c0.797,0.331,4.236,1.184,4.868,1.184c0.634,0,4.018,0.11,5.777-0.192
		c1.761-0.303,6.547-2.613,7.317-3.247c0.77-0.632,5.09-3.521,6.327-4.181c1.237-0.661,5.392-2.916,7.181-3.852
		c1.788-0.936,0.935-13.507,0.935-13.507l-2.917,2.586c0,0-6.849,3.878-7.922,4.457c-1.072,0.577-5.117,1.897-6.079,1.76
		c-0.963-0.138-5.777-0.33-6.657-0.495c-0.881-0.164-2.531-0.33-3.466,0.357c-0.936,0.688-3.218,1.789-3.852,1.954
		c-0.633,0.164-3.025,0.302-3.714,0.164c-0.688-0.137-0.844-0.091-1.202-0.229c0,0,0.541,0.676,0.913,1.344
		c0.399,0.714,0.633,1.54,0.812,1.966c0,0,1.575,0.483,2.401,0.374l1.299-0.388l2.723-1.017l2.037-1.404"/>
	
		<path clip-path="url(#SVGID_2_)" fill="#CDB8AB" stroke="#553E31" stroke-width="0.8998" stroke-linecap="round" stroke-linejoin="round" stroke-miterlimit="10" d="
		M23.213,27.404c0.118,0.159,0.51,0.325,0.68,0.411c0.302,0.151,0.377,0.418,0.644,0.623c0.497,0.387,0.865,0.869,0.89,1.522
		c0.021,0.587-0.241,1.067-0.437,1.601c-0.195,0.532-0.106,0.972,0.299,1.375c0.275,0.273,0.804,0.598,1.209,0.478
		c0.286-0.085,0.365-0.547,0.459-0.795c0.372-0.976-0.148-1.95-0.026-2.944c0.04-0.333,0.153-0.658,0.141-1
		c-0.016-0.455-0.333-0.802-0.693-1.039c-0.354-0.233-0.734-0.473-1.143-0.598c-0.474-0.145-1.132-0.061-1.607,0.052L23.213,27.404z
		"/>
</g>
</svg>
