<?xml version="1.0" encoding="utf-8"?>
<!-- Generator: Adobe Illustrator 16.0.0, SVG Export Plug-In . SVG Version: 6.00 Build 0)  -->
<!DOCTYPE svg PUBLIC "-//W3C//DTD SVG 1.1//EN" "http://www.w3.org/Graphics/SVG/1.1/DTD/svg11.dtd">
<svg version="1.1" id="Layer_1" xmlns="http://www.w3.org/2000/svg" xmlns:xlink="http://www.w3.org/1999/xlink" x="0px" y="0px"
	 width="60px" height="60px" viewBox="0 0 60 60" enable-background="new 0 0 60 60" xml:space="preserve">
<g>
	<defs>
		<path id="SVGID_41_" d="M29.999,53.5C17.041,53.5,6.5,42.958,6.5,30c0-12.96,10.541-23.5,23.499-23.5
			C42.958,6.5,53.5,17.04,53.5,30C53.5,42.958,42.958,53.5,29.999,53.5z"/>
	</defs>
	<clipPath id="SVGID_2_">
		<use xlink:href="#SVGID_41_"  overflow="visible"/>
	</clipPath>
	<rect x="0.625" y="0.625" clip-path="url(#SVGID_2_)" fill="#FFFCF5" width="58.75" height="58.75"/>
	<g clip-path="url(#SVGID_2_)">
		<polygon fill="#EBE0D5" stroke="#553E31" stroke-miterlimit="10" points="57.417,26.682 2.676,38.829 20.351,59.31 52.91,56.445 
					"/>
		
			<path fill="#CDB8AB" stroke="#553E31" stroke-width="0.8821" stroke-linecap="round" stroke-linejoin="round" stroke-miterlimit="10" d="
			M43.96,37.595c0,7.741-6.495,14.019-14.508,14.019s-14.507-6.277-14.507-14.019"/>
		
			<ellipse fill="#EBE0D5" stroke="#553E31" stroke-width="0.8475" stroke-linecap="round" stroke-linejoin="round" stroke-miterlimit="10" cx="29.47" cy="37.622" rx="14.507" ry="6.773"/>
		
			<path fill="#E4D7CD" stroke="#553E31" stroke-width="0.9164" stroke-linecap="round" stroke-linejoin="round" stroke-miterlimit="10" d="
			M21.428,42.979c2.317,0.854,5.109,1.354,8.117,1.354c3.038,0,5.858-0.512,8.188-1.384c-1.007-1.496-4.27-2.594-8.144-2.594
			C25.693,40.355,22.413,41.467,21.428,42.979z"/>
		<g>
			<path fill="#CDB8AB" stroke="#553E31" stroke-linecap="round" stroke-linejoin="round" stroke-miterlimit="10" d="M35.708,32.231
				c0.441-0.248,0.83-0.632,1.127-1.179c0.637-1.16,0.571-2.5,0.775-3.768c0.209-1.297,1.467-2.983,0.301-4.169
				c-1.024-1.043-2.941-0.832-4.265-0.792c-1.5,0.046-2.284,0.617-3.304,1.51c-0.905,0.796-1.504,2.39-1.69,3.546
				c-0.169,1.045,0.498,2.392,1.166,3.139C31.158,32.017,33.893,33.257,35.708,32.231z"/>
			<path fill="#CDB8AB" stroke="#553E31" stroke-linecap="round" stroke-linejoin="round" stroke-miterlimit="10" d="M48.215-1.052
				c0,0-4.312,4.144-5.135,4.71c-0.823,0.565-2.767,2.887-3.71,3.371c-0.942,0.483-4.689,3.327-5.225,3.881
				c-0.538,0.553-1.438,1.051-1.794,1.467c-0.356,0.417-1.238,2.006-1.495,2.402c-0.256,0.399-2.174,2.302-2.617,3.026
				c-0.444,0.723-0.396,1.21-0.492,1.866c-0.094,0.657-0.068,1.963-0.129,2.584c-0.061,0.62-0.333,1.652-0.288,2.231
				c0.045,0.581,0.832,2.198,0.98,2.667c0.148,0.468,0.218,0.961,0.492,0.991c0.274,0.033,0.771,0.034,1.002-0.277
				c0,0,0.324-0.309,0.355-1.479c0.029-1.173,0.014-2.099,0.014-2.099s0.653-1.535,0.845-2.117c0,0-0.383,1.824-0.297,2.512
				c0.086,0.686,0.36,2.111,0.518,2.628c0.159,0.518,0.723,0.94,1.236,0.545c0.517-0.395,0.762-0.678,0.896-1.3
				c0.132-0.624,0.218-1.992,0.447-2.541c0.229-0.548,0.802-1.966,1.055-2.27c0.254-0.306,1.449-1.26,1.894-2.313
				c0.99-0.73,1.192-0.695,1.471-0.923c0.059,0.206,0.931,1.26,1.383,1.413c0,0-0.023,0.548,0.061,0.832
				c0,0-0.756,1.519-0.794,2.146s-0.482,0.942-0.599,1.154c-0.562,1.027-0.636,3.007-0.636,3.007s0.063,0.617,0.538,0.65
				c0.487,0.033,0.729-0.622,0.953-0.912c0.226-0.29,2.171-1.24,2.546-1.887c0.376-0.649,0.911-2.449,1.121-3.097
				c0.211-0.648,0.946-1.48,1.181-2.217c0.236-0.735,1.076-2.831,1.399-4.036c0.325-1.206,0.732-4.349,2.453-5.482
				c1.72-1.134,9.973-5.274,11.957-6.263c1.985-0.986,2.535-1.419,2.535-1.419L48.215-1.052z"/>
			<path fill="#CDB8AB" stroke="#553E31" stroke-linecap="round" stroke-linejoin="round" stroke-miterlimit="10" d="M34.165,16.253
				c0,0-1.751,2.142-2.183,2.82c-0.431,0.678-0.563,1.136-0.776,1.877c-0.214,0.742-0.176,0.918-0.195,1.313"/>
		</g>
		<g>
			<g>
				<path fill="#553E31" d="M21.914,28.328c-0.352-0.313-0.566-0.692-0.744-1.135c-0.158-0.429-0.26-0.867-0.368-1.308
					c-0.206-0.882-0.349-1.78-0.423-2.682c-0.167-1.807,0.018-3.608,0.332-5.341c0.181-0.866,0.351-1.711,0.669-2.574
					c0.305-0.85,0.69-1.66,1.13-2.429c0.9-1.531,1.944-2.926,3.321-4.076c0.119-0.099,0.296-0.083,0.396,0.036
					c0.091,0.108,0.085,0.267-0.008,0.368l-0.024,0.027c-1.084,1.197-1.933,2.696-2.536,4.201c-0.632,1.525-0.852,3.092-1.062,4.735
					c-0.189,1.625-0.189,3.244,0.01,4.82c0.101,0.788,0.26,1.565,0.475,2.329l0.35,1.137c0.09,0.364,0.172,0.78,0.13,1.259
					c-0.047,0.54-0.522,0.938-1.062,0.892c-0.218-0.02-0.413-0.108-0.564-0.243L21.914,28.328z"/>
			</g>
			<g>
				<path fill="#553E31" d="M19.095,24.677c0.55,0.616,1.198,1.176,1.867,1.594c0.668,0.419,1.395,0.684,1.992,0.661l-0.979,0.285
					c0.201-0.114,0.534-0.473,0.76-0.782c0.243-0.33,0.452-0.699,0.627-1.093c0.348-0.789,0.541-1.681,0.593-2.603
					c0.007-0.178,0.157-0.314,0.334-0.307c0.146,0.006,0.267,0.114,0.299,0.25c0.215,0.962,0.29,1.987,0.146,3.027
					c-0.073,0.52-0.197,1.041-0.386,1.553c-0.212,0.528-0.394,0.977-0.848,1.546c-0.237,0.298-0.628,0.402-0.97,0.289l-0.01-0.004
					c-1.099-0.366-1.875-1.06-2.488-1.772c-0.61-0.729-1.077-1.499-1.451-2.332c-0.068-0.152,0-0.332,0.152-0.399
					c0.123-0.056,0.264-0.021,0.349,0.074L19.095,24.677z"/>
			</g>
		</g>
	</g>
</g>
</svg>
