<?xml version="1.0" encoding="utf-8"?>
<!-- Generator: Adobe Illustrator 16.0.0, SVG Export Plug-In . SVG Version: 6.00 Build 0)  -->
<!DOCTYPE svg PUBLIC "-//W3C//DTD SVG 1.1//EN" "http://www.w3.org/Graphics/SVG/1.1/DTD/svg11.dtd">
<svg version="1.1" xmlns="http://www.w3.org/2000/svg" xmlns:xlink="http://www.w3.org/1999/xlink" x="0px" y="0px" width="32px"
	 height="32px" viewBox="0 0 32 32" enable-background="new 0 0 32 32" xml:space="preserve">
<g id="Layer_1">
	<g>
		
			<path fill="#553E31" stroke="#553E31" stroke-width="0.7153" stroke-linecap="round" stroke-linejoin="round" stroke-miterlimit="10" d="
			M6.897,26.602c0,0,0.15,0.426,0.586,0.837c0.918,0.865,2.803-0.112,4.209-0.772c1.408-0.662,17.307-8.061,17.748-8.326
			c0.439-0.266,0.652-0.769,0.652-0.769"/>
		
			<path fill="#CDB8AB" stroke="#553E31" stroke-width="0.7153" stroke-linecap="round" stroke-linejoin="round" stroke-miterlimit="10" d="
			M1.419,11.073c0.234,0.649,4.943,12.783,5.227,13.286c0.285,0.505,0.994,1.111,2.275,0.662c1.279-0.45,20.525-8.782,20.994-9.048
			c0.469-0.263,0.371-0.768,0.084-1.06c-0.285-0.289-9.992-8.792-10.35-9.108c-0.352-0.32-0.824-0.32-1.277-0.239
			C17.917,5.647,2.757,9.538,2.075,9.829C1.394,10.121,1.222,10.519,1.419,11.073z"/>
		<path fill="#EBE0D5" d="M4.022,11.746c0.844-0.254,13.361-3.848,13.83-3.964c0.469-0.115,1.238-0.143,1.939,0.617
			c0.703,0.755,8.371,7.931,8.371,7.931s-17.611,7.972-18.189,8.235c-0.578,0.262-1.416,0.458-2.01-0.88
			c-0.592-1.336-4.068-9.907-4.307-10.571C3.284,12.064,3.444,11.922,4.022,11.746z"/>
		
			<path fill="#EBE0D5" stroke="#553E31" stroke-width="0.7153" stroke-linecap="round" stroke-linejoin="round" stroke-miterlimit="10" d="
			M1.524,8.802c0.67-0.184,15.381-4.214,16.232-4.422c1.055-0.259,1.607-0.228,2.346,0.291c0.432,0.308,9.82,8.848,10.908,9.838
			c1.086,0.996,0.668,2.216-0.186,2.652c-0.611,0.312-19.504,8.804-21.127,9.495c-2.174,0.928-3.711,0.134-4.535-1.827
			C4.735,23.807,0.747,12.176,0.489,11.42C-0.017,9.924,0.856,8.989,1.524,8.802z M1.788,11.605
			c0.234,0.649,4.574,12.251,4.857,12.754c0.285,0.505,0.963,0.986,2.244,0.537c1.277-0.449,20.322-8.471,20.795-8.736
			c0.467-0.263,0.488-0.703,0.205-0.998c-0.287-0.289-9.947-8.852-10.303-9.17c-0.354-0.317-0.797-0.268-1.252-0.187
			C17.88,5.885,2.868,9.912,2.185,10.202C1.505,10.494,1.591,11.051,1.788,11.605z"/>
	</g>
</g>
<g id="Layer_3">
</g>
</svg>
