<?xml version="1.0" encoding="utf-8"?>
<!-- Generator: Adobe Illustrator 16.0.0, SVG Export Plug-In . SVG Version: 6.00 Build 0)  -->
<!DOCTYPE svg PUBLIC "-//W3C//DTD SVG 1.1//EN" "http://www.w3.org/Graphics/SVG/1.1/DTD/svg11.dtd">
<svg version="1.1" xmlns="http://www.w3.org/2000/svg" xmlns:xlink="http://www.w3.org/1999/xlink" x="0px" y="0px" width="32px"
	 height="32px" viewBox="0 0 32 32" enable-background="new 0 0 32 32" xml:space="preserve">
<g id="Layer_1">
	<g>
		<polyline fill="#CDB8AB" stroke="#553E31" stroke-linecap="round" stroke-linejoin="round" stroke-miterlimit="10" points="
			13.963,4.889 14.684,1.547 15.73,2.245 15.884,0.5 16.748,1.198 17.084,0.998 17.469,4.54 		"/>
		<polygon fill="#CDB8AB" stroke="#553E31" stroke-linecap="round" stroke-linejoin="round" stroke-miterlimit="10" points="
			18.419,4.249 18.545,2.513 17.977,1.822 17.005,2.725 17.005,4.411 		"/>
		<path fill="none" stroke="#553E31" stroke-linecap="round" stroke-linejoin="round" stroke-miterlimit="10" d="M14.184,26.964
			c-0.375,0.135-1.04,0.563-1.241,0.918c-0.122,0.215-0.159,0.535-0.094,0.778c0.068,0.253,0.296,0.378,0.373,0.6"/>
		<path fill="none" stroke="#553E31" stroke-linecap="round" stroke-linejoin="round" stroke-miterlimit="10" d="M16.588,26.789
			c-0.582,0.34-1.195,0.757-1.707,1.194c-0.449,0.383-0.32,0.743,0.034,1.132c0.148,0.164,0.278,0.385,0.438,0.521
			c0.117,0.098,0.299,0.131,0.401,0.244"/>
		<path fill="none" stroke="#553E31" stroke-linecap="round" stroke-linejoin="round" stroke-miterlimit="10" d="M17.33,26.571
			c-0.267,0.154-0.454,0.603-0.438,0.911c0.019,0.343,0.267,0.57,0.346,0.902c0.1,0.424,0.094,2.423-0.441,2.447"/>
		<path fill="none" stroke="#553E31" stroke-linecap="round" stroke-linejoin="round" stroke-miterlimit="10" d="M17.865,26.696
			c-0.357,0.313,0.179,0.793,0.383,1c0.296,0.298,0.628,0.611,0.594,1.081c-0.032,0.463-0.273,0.801-0.234,1.3
			c0.041,0.543,0.071,0.99-0.297,1.423"/>
		<path fill="none" stroke="#553E31" stroke-linecap="round" stroke-linejoin="round" stroke-miterlimit="10" d="M18.4,26.417
			c-0.149,1.018,1.043,0.89,1.605,1.247"/>
		<path fill="none" stroke="#553E31" stroke-linecap="round" stroke-linejoin="round" stroke-miterlimit="10" d="M16.812,26.54
			c-0.528,0.025-0.137,0.701-0.11,0.938c0.053,0.479-0.702,0.672-0.555,1.062"/>
		
			<path fill="#CDB8AB" stroke="#553E31" stroke-width="1.25" stroke-linecap="round" stroke-linejoin="round" stroke-miterlimit="10" d="
			M13.893,4.135l0.854,0.621l1.625-1.287l1.024,0.978l1.368-0.755c0,0-0.427,1.243,0.086,2.573c0.512,1.332,0.683,1.51,2.179,2.309
			c3.445,1.839,7.318,4.009,7.345,8.456c0.005,0.943-0.097,2.165-0.467,3.043c-0.957,2.276-3.047,4.078-5.281,5.042
			c-0.828,0.357-1.7,0.618-2.58,0.811c-4.871,1.065-6.709,0.977-9.529,0.045c-2.091-0.69-4.256-1.801-5.596-3.6
			c-1.366-1.833-1.668-4.154-0.826-6.276c0.438-1.106,1.177-2.55,2.044-3.383c1.427-1.374,3.26-2.274,5.041-3.087
			c1.042-0.476,2.344-1.047,2.499-2.339C13.893,5.511,13.893,4.135,13.893,4.135z"/>
		<path fill="none" stroke="#553E31" stroke-linecap="round" stroke-linejoin="round" stroke-miterlimit="10" d="M14.576,5.864
			c0,0,0.3,1.997-1.623,3.551c-1.98,1.6-4.233,2.779-5.686,4.957c-1.479,2.221-1.659,5.03-0.374,7.385
			c0.357,0.655,0.81,1.252,1.308,1.807c1.302,1.447,2.802,2.548,4.733,3.015"/>
		<path fill="none" stroke="#553E31" stroke-linecap="round" stroke-linejoin="round" stroke-miterlimit="10" d="M15.261,5.511
			c0,0,0,3.017-1.538,4.614c-1.376,1.428-2.847,2.747-3.794,4.521c-1.293,2.417-1.099,5.381,0.055,7.814
			c0.727,1.53,2.045,3.834,3.909,4.117"/>
		<path fill="none" stroke="#553E31" stroke-linecap="round" stroke-linejoin="round" stroke-miterlimit="10" d="M15.815,4.889
			c0,0,0,4.22-1.41,7.101c-0.924,1.886-2.018,4.133-1.443,7.315c0.572,3.17,1.358,5.574,2.598,7.273"/>
		<path fill="none" stroke="#553E31" stroke-linecap="round" stroke-linejoin="round" stroke-miterlimit="10" d="M16.372,4.889
			c0,0-0.428,2.44,0.342,4.704c0.897,2.64,2.39,5.179,2.475,8.028c0.048,1.618-0.104,3.221-0.366,4.815
			c-0.217,1.311-0.54,2.858-1.297,3.98"/>
		<path fill="none" stroke="#553E31" stroke-linecap="round" stroke-linejoin="round" stroke-miterlimit="10" d="M17.332,4.995
			c0,0,0.257,2.912,1.171,4.426c1.428,2.367,3.829,4.019,4.354,6.887c0.342,1.876,0,3.829-0.782,5.553
			c-0.823,1.813-1.872,3.428-3.668,4.4"/>
		<path fill="none" stroke="#553E31" stroke-linecap="round" stroke-linejoin="round" stroke-miterlimit="10" d="M18.134,4.995
			c0,0-0.32,0.848,0.562,2.38c0.881,1.53,1.25,2.459,3.044,3.459c1.554,0.864,2.729,1.618,3.67,3.169
			c0.896,1.479,1.267,3.411,0.753,5.052c-0.268,0.853-1.04,2.457-1.579,3.178c-1.645,2.201-3.412,3.308-6.041,4.028"/>
	</g>
</g>
<g id="Layer_3">
</g>
</svg>
