<?xml version="1.0" encoding="utf-8"?>
<!-- Generator: Adobe Illustrator 16.0.0, SVG Export Plug-In . SVG Version: 6.00 Build 0)  -->
<!DOCTYPE svg PUBLIC "-//W3C//DTD SVG 1.1//EN" "http://www.w3.org/Graphics/SVG/1.1/DTD/svg11.dtd">
<svg version="1.1" xmlns="http://www.w3.org/2000/svg" xmlns:xlink="http://www.w3.org/1999/xlink" x="0px" y="0px" width="32px"
	 height="32px" viewBox="0 0 32 32" enable-background="new 0 0 32 32" xml:space="preserve">
<g id="Layer_1">
	<g>
		
			<path fill="#CDB8AB" stroke="#553E31" stroke-width="0.98" stroke-linecap="round" stroke-linejoin="round" stroke-miterlimit="10" d="
			M4.438,6.809c0,0-0.408,1.502-0.341,2.32s0.988,2.488,0.988,3.58c0,1.09-0.383,2.523-0.498,3.75c-0.115,1.229,0.014,3.752,0,5.117
			c-0.014,1.363,0.006,2.215-0.497,2.932c-0.504,0.717-0.675,1.773-1.186,2.422s-1.327,1.807-1.907,2.148
			c0,0-0.682,0.477,0.101,0.682c0.784,0.203,6.646,1.908,12.334,1.738c5.689-0.17,15.092-1.193,16.795-1.705
			c1.702-0.512,0.919-1.227,0.511-1.602c-0.408-0.377-2.044-2.148-2.146-2.49c-0.103-0.342,0.171-0.479,0.102-0.852
			c-0.068-0.377-0.613-0.889-0.647-1.195c-0.033-0.305,0.103-2.592-0.103-2.76c-0.203-0.172-0.69-1.291-0.621-1.563
			c0.067-0.271,0.357-1.305,0.051-1.816s-0.213-2.113-0.213-2.863s-0.578-1.396-0.578-1.842c0-0.443-0.238-0.818,0-1.398
			s0.477-2.898,0.272-3.375c-0.205-0.479-0.205-0.785-0.511-1.229c-0.307-0.441-18.67-0.441-18.67-0.441L4.438,6.809z"/>
		
			<path fill="#CDB8AB" stroke="#553E31" stroke-width="0.98" stroke-linecap="round" stroke-linejoin="round" stroke-miterlimit="10" d="
			M3.724,6.502C4.585,6.85,6.022,7.133,8.05,7.85c2.027,0.715,3.271,0.613,4.361,1.023C13.5,9.281,18.1,9.451,18.798,9.246
			c0.698-0.203,3.219-0.75,4.496-0.715c1.278,0.033,2.182-0.324,2.658-0.75c0.477-0.428,1.789-0.869,1.84-1.279
			c0.052-0.41,0.085-1.484-0.307-1.961s-1.994-2.029-2.726-2.232c-0.732-0.205-1.313-0.529-1.755-0.854
			c-0.443-0.324-0.699-0.289-1.43-0.273c-0.733,0.018-1.876,0.117-2.453-0.01c-0.581-0.125-5.144-0.023-5.878,0.197
			c-0.732,0.223-1.242,0.496-2.025,0.426c-0.784-0.066-1.994-0.119-2.437,0.053c-0.442,0.17-1.38,0.41-1.856,0.41
			S5.562,2.463,5.153,2.58C4.745,2.699,4.217,2.957,3.859,2.988C3.502,3.023,3.621,3.023,3.485,3.213
			C3.349,3.4,3.229,3.979,3.366,4.508c0.136,0.527,0.048,0.664-0.061,1.123C3.195,6.092,3.197,6.289,3.724,6.502z"/>
		
			<path fill="#EBE0D5" stroke="#553E31" stroke-width="0.98" stroke-linecap="round" stroke-linejoin="round" stroke-miterlimit="10" d="
			M5.887,4.609c0,0,0.362-1.441,1.827-2.09s4.204-1.391,5.635-1.662c1.431-0.273,3.824-0.408,5.22-0.357
			c1.396,0.053,2.988,1.459,3.993,2.072s1.823,1.832,2.095,2.326c-0.374,0.188-1.123,0.479-1.362,0.699
			c-0.238,0.223-1.635,0.699-1.992,0.699c-0.358,0-1.346-0.139-1.737,0c-0.393,0.139-2.369,0.277-2.947,0.105
			C16.038,6.23,12.24,6.16,11.763,6.16c-0.477,0-0.953,0.035-1.566-0.17C9.582,5.785,9.105,5.785,8.221,5.631
			C7.334,5.479,6.159,4.832,5.887,4.609z"/>
		<path fill="#553E31" d="M26.786,11.455c0,0-0.869,1.432-1.227,1.688s-0.868,0.844-1.636,1.102
			c-0.766,0.254-2.043,1.072-1.149,0.945c0.896-0.129,2.836-0.512,3.245-1.023s0.767-1.893,0.767-1.893V11.455z"/>
		<path fill="#553E31" d="M27.451,15.623c0,0-0.767,1.33-1.79,1.74c-1.021,0.41-2.375,1.125-2.375,1.125s0.434,0.076,1.609-0.256
			s1.25-0.684,1.763-1.172S27.399,16.391,27.451,15.623z"/>
		<path fill="#553E31" d="M27.821,18.002c0,0-0.973,1.35-1.981,2.199c-0.817,0.691-2.4,2.047-1.48,1.867
			c0.919-0.18,1.608-0.256,2.096-1.047C26.939,20.229,27.758,19.205,27.821,18.002z"/>
		<path fill="#553E31" d="M28.396,22.557c0,0-0.204,1.354-1.43,2.045c-1.228,0.689-1.865,1.1-2.338,1.049
			c-0.474-0.051,0.293-0.359,0.74-0.613c0.446-0.256,0.549-0.205,1.418-0.742s1.277-1.715,1.38-1.971
			C28.267,22.068,28.396,22.557,28.396,22.557z"/>
		<path fill="#553E31" d="M28.856,25.42c0.062,0.768-0.103,1.305-0.59,1.867c-0.483,0.563-0.561,1.201-0.97,1.457
			s0.051,0.436,0.384,0.129c0.332-0.307,0.562-0.818,0.945-1.484c0.383-0.664,0.475-0.607,0.493-0.955
			C29.137,26.086,28.856,25.42,28.856,25.42z"/>
		<path fill="#553E31" d="M28.396,23.834c-0.581,0.715-0.28,1.791-1.072,2.379c-0.793,0.588-2.652,1.637-3.243,1.816
			c-0.59,0.178-1.842,0.816-0.59,0.613c1.251-0.205,2.12-0.205,2.785-0.844c0.664-0.641,0.537-0.691,1.176-1.051
			c0.638-0.357,1.327-2.352,1.276-2.633C28.678,23.834,28.563,23.629,28.396,23.834z"/>
		<path fill="#553E31" d="M24.808,8.088c-0.686,0.082-0.81,0.754-1.337,1.248c-0.528,0.492-1.363,0.748-0.597,0.816
			c0.768,0.068,1.075,0.289,1.499-0.137c0.426-0.426,0.41-0.391,0.971-0.68c0.563-0.293,1.047-0.156,1.296-0.668
			c0.247-0.51,0.484-0.816,0.25-0.92C26.656,7.645,25.378,8.021,24.808,8.088z"/>
		<path fill="#553E31" d="M20.454,8.773c-0.511,0.408-1.012,0.404-1.053,0.725c-0.04,0.322-0.162,0.461,0.598,0.438
			c0.757-0.025,0.845-0.299,1.138-0.447c0.292-0.146-0.099,0.045,0.694-0.232c0.795-0.277,1.465-0.691,0.991-0.752
			C22.349,8.445,20.693,8.582,20.454,8.773z"/>
		
			<path fill="none" stroke="#553E31" stroke-width="0.98" stroke-linecap="round" stroke-linejoin="round" stroke-miterlimit="10" d="
			M3.383,4.582c0.118-0.398,0.118-0.945,0.544-1.014S4.2,3.535,4.626,3.859s0.727,0.418,1.261,0.75"/>
		
			<path fill="none" stroke="#553E31" stroke-width="0.98" stroke-linecap="round" stroke-linejoin="round" stroke-miterlimit="10" d="
			M24.656,4.898c0,0,1.03-0.803,1.711-0.824c0.683-0.021,0.533,0.193,0.618,0.387c0.086,0.193,0.097,0.563,0.232,0.766
			c0.136,0.201-0.482,0.201-0.124,0.492c0.357,0.289,0.442,0.357,0.442,0.527s-0.206,0.285-0.514,0.848"/>
		<g>
			
				<line fill="none" stroke="#553E31" stroke-width="0.5253" stroke-miterlimit="10" x1="11.494" y1="29.473" x2="17.542" y2="14.332"/>
			<path fill="#553E31" d="M16.793,14.783c0.052-0.541-0.36-0.941-0.079-1.514c0.281-0.566,1.576-1.15,1.803-1.721
				c0.227-0.566,0.553-0.225,0.402,0.352c-0.146,0.574,0.017,0.922,0.135,1.51c0.117,0.588,0.227,0.725-0.304,0.959
				c-0.526,0.234-1.104,0.449-1.442,1.092C16.972,16.102,16.793,14.783,16.793,14.783z"/>
			<path fill="#553E31" d="M12.634,26.043c0,0-1.138-1.887-1.295-2.445c-0.158-0.557-0.295-1.313,0.047-1.955
				c0.334-0.637,0.422-0.629,0.473-1.217c0.059-0.59,0.226-0.334,0.271-0.037c0.045,0.303,0.209,0.533,0.645,1.27
				c0.432,0.738,0.679,1.352,0.44,2.047C13.01,24.303,12.634,26.043,12.634,26.043z"/>
			<path fill="#553E31" d="M14.123,22.32c0,0-1.138-1.893-1.297-2.447c-0.158-0.557-0.291-1.318,0.047-1.959
				c0.336-0.637,0.422-0.627,0.476-1.219c0.056-0.588,0.225-0.332,0.268-0.031c0.044,0.297,0.21,0.529,0.645,1.27
				c0.434,0.734,0.679,1.352,0.443,2.041C14.498,20.574,14.123,22.32,14.123,22.32z"/>
			<path fill="#553E31" d="M15.611,18.588c0,0-1.138-1.887-1.298-2.443c-0.155-0.559-0.291-1.314,0.048-1.955
				c0.337-0.645,0.422-0.633,0.476-1.221c0.058-0.588,0.225-0.334,0.27-0.035c0.043,0.303,0.209,0.531,0.643,1.271
				c0.434,0.734,0.681,1.35,0.444,2.045C15.986,16.848,15.611,18.588,15.611,18.588z"/>
			<path fill="#553E31" d="M14.756,21.949c0,0,2.124-0.58,2.625-0.873c0.498-0.297,1.115-0.754,1.311-1.449
				c0.199-0.701,0.129-0.748,0.495-1.215c0.364-0.463,0.067-0.396-0.172-0.211c-0.239,0.189-0.515,0.244-1.339,0.477
				c-0.82,0.234-1.422,0.512-1.729,1.176C15.684,20.43,14.756,21.949,14.756,21.949z"/>
			<path fill="#553E31" d="M13.257,25.617c0,0,2.124-0.58,2.625-0.873c0.498-0.297,1.115-0.754,1.311-1.449
				c0.199-0.701,0.129-0.748,0.495-1.215c0.364-0.463,0.067-0.396-0.172-0.211c-0.239,0.189-0.515,0.244-1.339,0.477
				c-0.82,0.234-1.422,0.512-1.729,1.176C14.185,24.098,13.257,25.617,13.257,25.617z"/>
			<path fill="#553E31" d="M16.246,18.219c0,0,2.125-0.58,2.624-0.873c0.498-0.295,1.115-0.756,1.312-1.447
				c0.196-0.697,0.129-0.748,0.494-1.215c0.365-0.463,0.066-0.395-0.171-0.209c-0.24,0.189-0.516,0.242-1.339,0.473
				c-0.822,0.238-1.425,0.516-1.73,1.18C17.173,16.701,16.246,18.219,16.246,18.219z"/>
		</g>
	</g>
</g>
<g id="Layer_3">
</g>
</svg>
