<?xml version="1.0" encoding="utf-8"?>
<!-- Generator: Adobe Illustrator 16.0.0, SVG Export Plug-In . SVG Version: 6.00 Build 0)  -->
<!DOCTYPE svg PUBLIC "-//W3C//DTD SVG 1.1//EN" "http://www.w3.org/Graphics/SVG/1.1/DTD/svg11.dtd">
<svg version="1.1" xmlns="http://www.w3.org/2000/svg" xmlns:xlink="http://www.w3.org/1999/xlink" x="0px" y="0px" width="32px"
	 height="32px" viewBox="0 0 32 32" enable-background="new 0 0 32 32" xml:space="preserve">
<g id="Layer_1">
	<g>
		<path fill-rule="evenodd" clip-rule="evenodd" fill="#553E31" d="M13.149,18.88c0.538-0.178,1.128-0.372,1.742-0.564
			c0.497,0.514,1.204,1.369,1.438,2.272c1.453-0.491,4.114-1.687,4.114-1.687s-0.198-0.846-1.155-1.736
			c0.61-0.111,1.183-0.18,1.688-0.191c2.618-0.058,4.258,0.587,4.489,1.575c0.23,0.986,0.433,2.972-0.259,3.259
			c-0.691,0.288-3.544,0.237-5.842-0.805c-0.534-0.242-0.169,1-0.056,1.525c0.393,1.878,1.192,2.315,1.725,3.524
			c0,0,0.549,2.699,1.784,3.466c0.533,0.333,0.663-0.027,1.107-0.516c0.446-0.49,2.878-3.31,3.194-5.626
			c0.489-0.849,1.367-2.172,1.684-4.776c0,0,1.611-2.604,1.094-5.18c-0.519-2.576-1.741-5.381-3.972-7.351
			c-2.229-1.972-7.589-4.624-12.187-3.411C10.632,3.479,9.163,4.902,8.59,5.479c0,0-6.59,2.24-6.59,12.815
			c0,0,0.121,1.221,1.827,0.373c0,0-0.48,1.453,0.644,1.509c1.121,0.059,5.053-0.154,7.269-0.843c0.033-0.01,0.067-0.021,0.1-0.031
			L13.149,18.88z"/>
		<path fill-rule="evenodd" clip-rule="evenodd" fill="#CDB8AB" d="M11.839,19.303c0.385-1.793,0.868-5.791-1.192-9.854
			c-0.519-1.021,0.13-0.733,0.575-0.128c0.435,0.589,2.414,2.709,1.928,9.56L11.839,19.303z"/>
		<circle fill-rule="evenodd" clip-rule="evenodd" fill="#CDB8AB" cx="7.431" cy="12.492" r="1.302"/>
		<path fill-rule="evenodd" clip-rule="evenodd" fill="#CDB8AB" d="M18.492,18.996c0.395-0.167,0.758-0.325,1.045-0.449
			c-0.184-0.313-0.5-0.73-1.031-1.143c-0.139-0.111-0.375-0.137-0.546-0.137c-0.244,0-0.521,0.046-0.804,0.117L18.492,18.996z"/>
		<path fill-rule="evenodd" clip-rule="evenodd" fill="#CDB8AB" d="M16.444,17.607c-0.321,0.118-0.632,0.254-0.908,0.386
			c0.399,0.433,0.879,1.036,1.201,1.714c0.342-0.131,0.717-0.28,1.089-0.434L16.444,17.607z"/>
		<path fill-rule="evenodd" clip-rule="evenodd" fill="#CDB8AB" d="M24.551,23.474c-1.298,0.432-2.656,0.649-3.81,0.755
			c0.069,0.108,0.139,0.21,0.211,0.317c0.157,0.233,0.318,0.471,0.472,0.744c1.156-0.408,2.447-0.928,3.305-1.461
			C24.669,23.71,24.609,23.591,24.551,23.474z"/>
		<path fill-rule="evenodd" clip-rule="evenodd" fill="#CDB8AB" d="M24.929,24.382c-0.904,0.542-2.09,1.137-3.217,1.539
			c0.074,0.371,0.211,0.853,0.392,1.325c0.906-0.702,2.181-1.734,2.992-2.62L24.929,24.382z"/>
		<path fill-rule="evenodd" clip-rule="evenodd" fill="#CDB8AB" d="M19.983,22.386c0.102,0.485,0.232,0.858,0.383,1.177
			c1.153-0.089,2.558-0.289,3.881-0.718c-0.03-0.067-0.063-0.132-0.095-0.196c-0.069,0.001-0.138,0.001-0.202,0.001
			c-0.536,0-2.253-0.057-4.064-0.695c0.014,0.064,0.027,0.12,0.037,0.165C19.947,22.217,19.968,22.309,19.983,22.386z"/>
		<path fill-rule="evenodd" clip-rule="evenodd" fill="#CDB8AB" d="M22.389,27.904c0.211,0.422,0.456,0.785,0.726,0.984
			c0.025-0.031,0.05-0.062,0.073-0.089c0.068-0.081,0.144-0.17,0.228-0.263c0.603-0.66,1.575-1.895,2.261-3.173
			c-0.084-0.107-0.165-0.219-0.244-0.332C24.573,26.12,23.403,27.129,22.389,27.904z"/>
		<path fill-rule="evenodd" clip-rule="evenodd" fill="#CDB8AB" d="M21.915,4.386c-0.397-0.18-0.811-0.346-1.237-0.5l-1.327,1.681
			c0.394,0.116,0.771,0.247,1.134,0.391L21.915,4.386z"/>
		<path fill-rule="evenodd" clip-rule="evenodd" fill="#CDB8AB" d="M19.981,3.653c-0.417-0.129-0.841-0.242-1.273-0.333
			l-1.241,1.814c0.401,0.068,0.787,0.146,1.159,0.237L19.981,3.653z"/>
		<path fill-rule="evenodd" clip-rule="evenodd" fill="#CDB8AB" d="M23.738,5.344c-0.362-0.22-0.755-0.439-1.173-0.648l-1.411,1.549
			c0.368,0.171,0.719,0.352,1.054,0.545L23.738,5.344z"/>
		<path fill-rule="evenodd" clip-rule="evenodd" fill="#CDB8AB" d="M14.576,3.184l-0.887,1.712c0.373-0.012,0.735-0.014,1.09-0.006
			l1.097-1.842C15.43,3.063,14.993,3.109,14.576,3.184z"/>
		<path fill-rule="evenodd" clip-rule="evenodd" fill="#CDB8AB" d="M17.965,3.184c-0.427-0.066-0.856-0.11-1.291-0.128l-1.11,1.868
			c0.393,0.023,0.773,0.056,1.143,0.1L17.965,3.184z"/>
		<path fill-rule="evenodd" clip-rule="evenodd" fill="#CDB8AB" d="M25.388,6.518C25.099,6.268,24.746,6,24.339,5.727l-1.524,1.441
			c0.325,0.216,0.635,0.442,0.927,0.678L25.388,6.518z"/>
		<path fill-rule="evenodd" clip-rule="evenodd" fill="#CDB8AB" d="M25.9,6.992l-1.626,1.312c0.271,0.249,0.528,0.503,0.771,0.765
			l1.678-1.146C26.473,7.602,26.197,7.289,25.9,6.992z"/>
		<path fill-rule="evenodd" clip-rule="evenodd" fill="#CDB8AB" d="M29.308,14.569l-1.076,0.31c0.296,1.012,0.391,1.765,0.466,2.342
			l0,0C28.685,17.259,29.287,15.841,29.308,14.569z"/>
		<path fill-rule="evenodd" clip-rule="evenodd" fill="#CDB8AB" d="M13.69,3.389c-1.77,0.498-2.938,1.189-3.686,1.758
			c0,0-0.148,0.125,0.814-0.008c0.721-0.101,1.409-0.167,2.074-0.207L13.69,3.389z"/>
		<path fill-rule="evenodd" clip-rule="evenodd" fill="#CDB8AB" d="M29.27,13.864c-0.014-0.104-0.029-0.204-0.051-0.308
			c-0.024-0.122-0.052-0.252-0.083-0.388l-1.313,0.492c0.072,0.189,0.139,0.376,0.201,0.561L29.27,13.864z"/>
		<path fill-rule="evenodd" clip-rule="evenodd" fill="#CDB8AB" d="M28.467,11.009c-0.122-0.307-0.259-0.622-0.412-0.939
			l-1.566,0.894c0.158,0.254,0.309,0.507,0.448,0.761L28.467,11.009z"/>
		<path fill-rule="evenodd" clip-rule="evenodd" fill="#CDB8AB" d="M28.964,12.495c-0.071-0.265-0.157-0.546-0.257-0.835
			l-1.454,0.679c0.111,0.229,0.217,0.455,0.312,0.679L28.964,12.495z"/>
		<path fill-rule="evenodd" clip-rule="evenodd" fill="#CDB8AB" d="M27.736,9.456c-0.182-0.328-0.382-0.654-0.604-0.977
			l-1.631,1.114c0.213,0.261,0.416,0.525,0.605,0.793L27.736,9.456z"/>
	</g>
</g>
<g id="Layer_3">
</g>
</svg>
