<?xml version="1.0" encoding="utf-8"?>
<!-- Generator: Adobe Illustrator 16.0.0, SVG Export Plug-In . SVG Version: 6.00 Build 0)  -->
<!DOCTYPE svg PUBLIC "-//W3C//DTD SVG 1.1//EN" "http://www.w3.org/Graphics/SVG/1.1/DTD/svg11.dtd">
<svg version="1.1" xmlns="http://www.w3.org/2000/svg" xmlns:xlink="http://www.w3.org/1999/xlink" x="0px" y="0px" width="32px"
	 height="32px" viewBox="0 0 32 32" enable-background="new 0 0 32 32" xml:space="preserve">
<g id="Layer_1">
	<g>
		<ellipse fill="#EBE0D5" stroke="#553E31" stroke-miterlimit="10" cx="16" cy="16" rx="15.5" ry="15.475"/>
		<path fill="#553E31" d="M14.971,18.673c0.026,0.133-0.016,0.289-0.079,0.509c-0.104,0.364-0.21,0.837-0.398,1.161
			c-0.228,0.386-0.699,0.626-0.993,0.978c-0.242,0.292-0.342,0.771-0.568,1.024c-0.22,0.249-0.565,0.182-0.846,0.319
			c-0.424,0.211-0.647,0.787-0.863,1.206c-0.406,0.793-1.031,1.178-1.788,1.621c-0.513,0.302-1.404,0.694-1.489,1.296
			c-0.053,0.381,0.059,0.819,0.182,1.171c0.096,0.271,0.42,0.693,0.401,0.979c-0.044,0.678-0.903,0.008-1.137-0.243
			c-0.43-0.465-0.57-1.19-0.719-1.788c-0.177-0.713-0.301-1.367-0.361-2.111c-0.067-0.831-0.119-1.559,0.038-2.387
			c0.055-0.292,0.229-0.685,0.216-0.977c-0.014-0.306-0.229-0.56-0.289-0.863c-0.056-0.281,0.021-0.622-0.102-0.878
			c-0.119-0.249-0.404-0.431-0.591-0.604c-0.583-0.547-0.895-1.262-1.063-2.052c-0.139-0.656-0.178-1.355,0.409-1.775
			c0.534-0.383,0.954-0.985,0.872-1.696c-0.039-0.336-0.224-0.406-0.429-0.626c-0.226-0.24-0.223-0.46-0.343-0.743
			c-0.215-0.508-0.669-0.785-0.828-1.315c-0.105-0.356-0.18-0.348-0.498-0.587c-0.164-0.123-0.422-0.308-0.546-0.471
			c-0.776-1.045,0.048-2.285,0.68-3.108c0.243-0.318,0.502-0.627,0.771-0.925c1.566-1.737,3.534-3.105,5.703-3.981
			c1.086-0.438,2.223-0.753,3.379-0.934c0.444-0.069,1.228-0.297,1.654-0.114c0.416,0.178,0.678,0.661,0.455,1.063
			c-0.076,0.14-0.28,0.501-0.417,0.564c-0.255,0.12-0.421-0.129-0.607-0.167c-0.312-0.064-0.722,0.083-1.058,0.031
			C13.399,2.2,13.164,2.07,12.813,2.102c-0.774,0.07-1.332,0.618-1.027,1.415c0.33,0.86,1.181-0.099,1.571-0.396
			c0.333-0.255,0.479-0.419,0.908-0.401c0.318,0.013,0.574,0.098,0.873,0.005c0.062,0.25-0.124,0.551-0.248,0.783
			c-0.043,0.081-0.237,0.32-0.237,0.409c-0.001,0.117,0.142,0.121,0.15,0.188c0.042,0.345-0.146,0.837-0.29,1.185
			c-0.305,0.019-0.576-0.12-0.873-0.075c-0.387,0.059-0.742,0.221-1.148,0.254c-0.402,0.032-0.801,0.038-1.17,0.234
			C10.967,5.894,10.76,6.109,10.334,6.2c-0.698,0.15-1.668,0.27-1.926,1.052C8.301,7.581,8.314,7.924,8.273,8.268
			c-0.025,0.193-0.184,0.754-0.4,0.837c-0.379,0.144-0.422-0.429-0.4-0.685c0.033-0.432,0.164-0.845-0.254-1.141
			C6.672,6.892,5.141,7.336,4.711,7.831C4.48,8.097,4.324,8.64,4.385,8.985C4.474,9.472,4.719,9.3,5.078,9.427
			C5.83,9.69,5.049,10.45,5.219,10.914c0.065,0.182,0.224,0.22,0.257,0.436c0.025,0.162-0.058,0.288-0.064,0.435
			c-0.019,0.356,0.137,0.613,0.394,0.862c0.23,0.223,0.511,0.355,0.836,0.369c0.354,0.017,0.406-0.203,0.731-0.361
			c0.334-0.161,0.775-0.173,1.082,0.036C8.617,12.8,8.73,13.003,8.89,13.126c0.181,0.141,0.376,0.194,0.581,0.299
			c0.419,0.212,0.82,0.432,1.162,0.753c0.322,0.303,0.448,0.638,0.689,0.979c0.299,0.419,0.829,0.593,1.164,0.979
			c0.257,0.295,0.357,0.614,0.51,0.94c0.301,0.649,1.156,0.845,1.705,1.246C14.87,18.444,14.948,18.551,14.971,18.673z"/>
		<path fill="#553E31" d="M24.398,3.263c-0.15-0.15-0.691-0.051-0.879,0.028c-0.285,0.118-0.428,0.362-0.357,0.697
			c0.055,0.251,0.246,0.567,0.41,0.761c0.246,0.286,0.475,0.244,0.791,0.361c0.606,0.226,0.991,0.924,0.789,1.568
			c-0.176,0.563-0.961,0.802-1.443,0.972c-0.617,0.217-0.996,0.784-0.427,1.37c0.283,0.291,1.341,0.703,1.736,0.553
			c0.48-0.184,0.501-1.754,1.134-1.206c0.118,0.101,0.098,0.286,0.182,0.399c0.088,0.121,0.173,0.135,0.281,0.228
			c0.137,0.119,0.246,0.378,0.406,0.497c0.305,0.226,0.963,0.141,1.332,0.159c0.059,0.565,0.908,0.517,1.313,0.873
			c0.765,0.676-0.369,0.919-0.918,0.709c-0.684-0.261-1.048-0.947-1.805-1.052c-0.373-0.051-0.72,0.08-1.09,0.117
			c-0.402,0.041-0.791,0.089-1.2,0.108c-0.722,0.035-1.288,0.242-1.823,0.715c-0.238,0.213-0.521,0.427-0.79,0.599
			c-0.378,0.242-0.44,0.293-0.519,0.718c-0.122,0.667-0.416,1.277-0.544,1.95c-0.154,0.81,0.04,1.325,0.324,2.047
			c0.125,0.316,0.165,0.629,0.482,0.819c0.38,0.227,0.92,0.243,1.335,0.368c0.746,0.225,1.229,0.518,2.033,0.545
			c0.354,0.012,1.055-0.045,1.354,0.171c0.338,0.241,0.037,0.532-0.109,0.811c-0.291,0.547-0.327,1.155-0.326,1.773
			c0.001,0.612,0.308,1.199-0.01,1.771c-0.167,0.301-0.461,0.479-0.617,0.806c-0.149,0.313-0.152,0.611-0.217,0.942
			c-0.139,0.719-0.619,1.349-0.719,2.066c-0.092,0.672-0.082,1.463,0.002,2.139c0.016,0.127,0.053,0.142,0.034,0.254
			c0,0,6.79-4.24,6.829-13.163C31.41,7.578,24.617,3.48,24.398,3.263z"/>
		<path fill="#553E31" d="M16.521,0.724c-0.099,0.309,0.114,0.799-0.01,1.199c-0.103,0.331-0.269,0.621-0.28,0.975
			c-0.014,0.397,0.136,0.691,0.409,0.972c0.279,0.287,0.325,0.294,0.607,0.011c0.25-0.25,0.432-0.532,0.646-0.797
			c0.277-0.347,0.328-0.409,0.734-0.519c0.754-0.202,0.495-0.909,1.047-1.23c0.039-0.235-3.071-0.705-3.19-0.501"/>
		<path fill="#553E31" d="M22.52,5.366c-0.105,0.285-0.27,0.352-0.072,0.651c0.168,0.256,0.504,0.23,0.674,0.438
			c0.155,0.189,0.029,0.615,0.443,0.546c0.674-0.116,0.365-1.167,0.137-1.481c-0.203-0.277-0.5-0.479-0.711-0.734
			c-0.106-0.126-0.502-0.631-0.443-0.108C22.547,4.677,22.586,5.186,22.52,5.366z"/>
		<path fill="#553E31" d="M7.102,10.017c0.184,0.064,0.229-0.003,0.426,0.033c0.176,0.031,0.382,0.086,0.558,0.146
			c0.303,0.105,0.771,0.199,1.082,0.181C9.251,9.892,8.156,9.74,7.873,9.679C7.607,9.621,6.904,9.264,6.724,9.477
			S6.658,9.722,6.839,9.918"/>
		<path fill="#553E31" d="M19.738,4.134c-0.25,0.027-0.855-0.335-0.986-0.545c0.149-0.221,0.838-0.596,1.021-0.29
			C19.773,3.299,20.295,4.071,19.738,4.134z"/>
	</g>
</g>
<g id="Layer_3">
</g>
</svg>
